<svg xmlns="http://www.w3.org/2000/svg" width="733" height="298"><g fill="none" fill-rule="evenodd" stroke="#dbd9ed" stroke-width="4"><path d="M76 41a35 35 0 0 1 29 16 35 35 0 0 1 56 25 36 36 0 0 1 5 55 35 35 0 0 1-56-7 35 35 0 0 1-35-1 35 35 0 0 1-54-30 35 35 0 0 1 20-33 35 35 0 0 1 14-18c6-4 13-7 21-7ZM151 184a27 27 0 0 1 27 29 20 20 0 0 0 5 0h2a27 27 0 0 1 19 46 27 27 0 0 1-34 3 27 27 0 0 1-36 7 27 27 0 0 1-10-11 27 27 0 0 1-24-8 27 27 0 0 1-38 0 27 27 0 0 1 19-46 27 27 0 0 1 10-15 27 27 0 0 1 38 6 27 27 0 0 1 22-11ZM516 58a20 20 0 0 1 20 22 19 19 0 0 0 5 0h1a20 20 0 0 1 14 34 20 20 0 0 1-26 2 20 20 0 0 1-27 6 20 20 0 0 1-8-9 20 20 0 0 1-19-6 20 20 0 0 1-28 0 20 20 0 0 1 15-34 20 20 0 0 1 7-11 20 20 0 0 1 29 5 20 20 0 0 1 17-9ZM333 41a48 48 0 0 1 45 64 49 49 0 0 1 20 24 48 48 0 0 1 40 48 48 48 0 0 1-65 45 49 49 0 0 1-82-1 48 48 0 0 1-46-13 48 48 0 0 1 6-73 48 48 0 0 1 43-75 49 49 0 0 1 39-19ZM614 129a33 33 0 0 1 31 45 33 33 0 0 1 14 16 33 33 0 0 1 28 33 33 33 0 0 1-45 31 33 33 0 0 1-56-1 33 33 0 0 1-32-9 33 33 0 0 1 5-50 33 33 0 0 1 28-52h1v-1c6-7 16-12 26-12Z"/></g></svg>