<svg xmlns="http://www.w3.org/2000/svg" viewBox="0 0 938 310">
  <g fill="none" fill-rule="evenodd">
    <path fill="#FFF" d="m324 164 1-1h2l-3 13h6l-2-6v-4l2-2 1 2 8 4h3l1-3-1-1-12-5v-1l15-3-2-3h-1l-5 1-4 2h-2l6-12v-2l-1 2-5 7-1-4-2-3h-1v4l1 3c2 3 0 5-3 5h-4l-2 1h2l3 3-3 3-5 6v2l2-2 6-6Zm74 103 3-3-3 15h1l3-2h2v-10l1-2 2 2 6 6 4-2v-3c-5 0-9-2-13-4l1-2 15-3-3-3-1-1-5 1-4 3 6-12v-3l-2 2-6 9-1-5-2-4h-1v6l1 3c2 1 0 3-1 3h-6v3l3 1-3 5-3 4-2 2h2l6-6Zm82-86 1-3 2 1-3 14h6l-2-6v-6h3l6 6c2 1 3 0 5-2l1-1v-2h-1c-4 0-8-2-12-4v-2l15-3-2-3h-1l-5 2-4 1h-2l6-12v-3l-1 2-6 9v-5l-2-4h-1v6l1 3c0 1 0 3-3 3h-6v3h2l1 3-3 3-3 6v1l2-1 6-6ZM37 106l1-1h2l-3 13h6l-2-6v-4l2-2 1 2 6 4h5l1-3-1-1-12-5v-1l15-3-2-3h-1l-5 1-4 2h-2l6-12v-2l-1 2-6 7v-4l-2-3h-1v4l1 3c0 3 0 5-3 5h-6v1h2l1 3-1 3-5 6v2l2-2 6-6Zm641 93v3h-1l-6-14-2 2-1 3h-2l5 4 3 3v3h-11c-1 0-3 2-1 3v3h1c4-2 8-4 12-4l2 1-11 12h6l2-4 3-3v-2l3 14 1 1v-12l3 2 5 3v-2l-3-4h-3c-3-2-3-3-2-5l3-3 2-1v-2h-5v-4l-1-6v-2 2l-2 9Zm-472-79v3h-1l-6-12h-2l-1 3-2 1 3 3 5 5v1h-11l-3 3 2 3h1c4-2 8-4 12-4v1l-9 12 3 2 2-2 3-4 1-3 2-2 3 14 1 1v-1l-1-11 4 3 3 2h2v-2c-2-1-2-3-5-3l-3-1v-5l3-3h2v-1h-2v-2 2l-4-2v-12l-2 2v9Zm22 99v3h-1l-6-12h-2l-1 3-2 1 3 3 5 5v1h-11l-3 3 2 3h1c4-2 8-4 12-4v1l-9 12 3 2 2-2 3-4 1-3 2-2 3 14 1 1v-1l-1-11 4 3 3 2h2v-2c-2-1-2-3-5-3l-3-1v-5l3-3h2v-1h-2v-2 2l-4-2v-12l-2 2v9Zm609 38v3h-1l-6-12h-2l-3 3v1l3 3 5 5v1h-11l-3 3 2 3h1c4-2 8-4 12-4v1l-9 12 3 2 2-2 3-4 1-3 2-2 3 14 1 1v-3l-1-9 4 3 3 2 2-2c-2-1-2-3-5-3l-3-1v-5l3-3h2v-1l-2-2v2l-4-2v-12l-2 2v9Zm70-77v3h-1l-6-12-2 1-1 2-2 1 5 3 3 5v1h-11c-1 0-3 2-1 3v3h1c4-2 8-4 12-4l2 1-11 12 5 2 1-2 2-3 3-4 3 12 1 1v-12l3 3 5 2v-2l-3-3-3-1c-3-2-3-3-2-5l3-1 2-2v-1h-5v-5l-1-7v-2 2l-2 9Zm-791 44-2-3h2l10 9v-1l2-3v-2l-5-1-4-3v-2h1l8-3 1-4-1-2v-1l-2 1-10 8h-2l6-15h-4l-2 1v5l-1 4v2l-8-12-1-2v3l4 9-4-1h-5v1h2l3 2h4l2 4-2 3-1 2v1h1l5-1 1 4 3 6v2-2l-1-9Zm660-79-2-3h2l10 9v-2l2-3v-1l-5-2-4-3v-1h1l8-3 1-5-1-1v-2l-2 2-10 7h-2l6-15h-4l-2 2v4l-1 5v1c-3-4-6-7-8-12l-1-1v3l4 9-4-2h-5v2h2l3 1h4l2 5-2 3-1 1v2h1l5-2 1 5 3 6v1-1l-1-9Zm149-62-2-3h2l10 9v-2l2-3v-1l-5-2-4-3v-1h1l8-3 1-5-1-1v-2l-2 2-10 7h-2l6-15h-4l-2 2v4l-1 5v1c-3-4-6-7-8-12l-1-1v3l4 9-4-2h-5v2h2l3 1h4l2 5-2 3-1 1v2h1l5-2 1 5 3 6v1-1l-1-9ZM33 168v1l-1 2-6-14-2 2-1 1-2 2 3 4 5 3v2h-3l-8 1c-1 0-3 0-3 3l2 2v1l1-1 12-3v1l-9 11 3 1h2l3-4 1-5h2l3 12 1 3v-3l-1-9 4 2 3 3 2-2-5-4-3-2v-3l3-3 2-1-2-2h-3v-4l-1-6v-2l-2 2v9ZM18 270v1l-2 2-6-14-1 2-2 1-1 2 3 4 4 3v2h-3l-7 1c-2 0-3 0-3 3l1 2v1l2-1 12-3v1l-9 11 3 1h1l3-4 2-5h1l3 12 2 3v-3l-2-9 5 2 3 3 1-2-4-4-3-2v-3l3-3 1-1-1-2h-3v-4l-2-6v-2l-1 2v9ZM266 11v3h-1l-6-12-2 1-3 2v1l3 3 5 5v1h-11c-3 0-3 2-3 3l2 3c4-2 8-4 13-4v1l-9 12 3 2 2-2 3-3 1-4h2l3 12 1 1v-1l-1-11 4 3 3 3v-1h2v-2l-5-3-3-1v-5l3-1 2-2v-1h-6V0l-2 2v9Zm357 69v3h-2l-6-12-1 1-3 2v1l3 3 4 5v1h-10c-3 0-3 2-3 3l1 3c5-2 9-4 14-4v1l-9 12 3 2 1-2 3-3 2-4h1l3 12 2 1v-1l-2-11 5 3 3 3v-1h1v-2l-4-3-3-1v-5l3-1 1-2v-1h-6V69l-1 2v9ZM506 29v3h-2l-6-12-1 1-3 2v1l3 3 4 5v1h-10c-3 0-3 2-3 3l1 3c5-2 9-4 14-4v1l-9 12 3 2 1-2 3-3 2-4h1l3 12 2 1v-1l-2-11 5 3 3 3v-1h1v-2l-4-3-3-1v-5l3-1 1-2v-1h-6V18l-1 2v9Zm122 256v3h-1l-6-14-2 2-3 3 3 4 5 3v3h-11l-3 3 2 3c4-2 8-4 13-4v1l-9 11 3 1h2l3-4 1-5h2l3 14 1 1v-3l-1-9 4 2 3 3 2-2-5-4h-3v-5l3-3 2-1-2-2h-4v-12l-2 2v9Z"/>
  </g>
</svg>