<svg xmlns="http://www.w3.org/2000/svg" viewBox="0 0 1467 1467"><path fill-rule="evenodd" d="M325.4 581.8a11.9 11.9 0 0 0-4.4 10c0 3.7-.3 4.1-2.7 4.4-1.7.2-3 1-3.1 2-.3 1.4.3 1.8 2.7 1.8h3.1v11.4c0 11.3 0 11.4-2.5 12-1.6.4-2.5 1.3-2.5 2.6 0 1.8.7 2 9 2 8.1 0 9-.2 9-1.9 0-1.2-1-2.1-3.3-2.7l-3.2-1-.3-10.6-.3-10.7 4.8-.3c4-.3 4.8-.6 5.1-2.5.3-2-.2-2.2-4.5-2.5-4.4-.3-4.8-.5-5.1-3.1a9 9 0 0 1 1.2-5.2c1.4-2.1 1.8-2.2 6.1-1.3 2.6.5 4.8.8 5 .6.2-.2.5-1.7.7-3.3l.3-3-6.5-.2c-5-.2-7 .1-8.6 1.5m171.9-1.1c-4.5.6-4.7 4-.3 5l3 .5v36.6l-2.5.6c-1.6.4-2.5 1.3-2.5 2.7 0 1.8.5 2 8.2 1.7 6.7-.2 8.3-.6 8.6-2 .2-1-.6-1.8-2.3-2.2l-2.6-.7.3-10.7.3-10.7 3.7-.3c2.7-.2 4.1.2 5.7 2 1.8 1.9 2.1 3.4 2.1 10.9 0 8.4 0 8.7-2.5 9.3-1.6.4-2.5 1.3-2.5 2.6 0 1.8.7 2 8 2s8-.2 8-2c0-1.3-.9-2.2-2.5-2.6-2.5-.6-2.5-.8-2.5-11v-10.3l-3.4-3.5c-2.6-2.9-4-3.6-7-3.6-2 0-4.6.5-5.7 1-1.8 1-2 .7-2-4.2 0-3-.4-6.6-.8-8.3-.7-3.2-2.1-3.7-8.9-2.8m405.6 0c-4 .6-3.8 4.1.2 5l3 .5v36.6l-2.5.6c-1.6.4-2.5 1.3-2.5 2.7 0 1.8.5 2 8.2 1.7 6.7-.2 8.3-.6 8.6-2 .2-1-.6-1.8-2.3-2.2l-2.6-.7.3-10.7c.3-10.4.4-10.7 2.7-11 7-1 9.1 2.3 9.1 13.7 0 7.6-.1 8-2.5 8.5-1.6.4-2.5 1.3-2.5 2.6 0 1.8.7 2 8 2 7.1 0 8-.2 8-1.8 0-1-1.1-2.4-2.5-3-2.4-1.1-2.5-1.5-2.5-11.1 0-10 0-10-3.4-13.5-2.6-2.9-4-3.6-7-3.6-2 0-4.5.4-5.5 1-1.7.8-1.9.2-2.4-6.5-.3-4-.8-7.9-1.2-8.5-.6-1-3.4-1-8.8-.3m-688.8 1c-1 .2-4 7.3-8.6 20-7 19.7-7.6 20.8-12.6 22.6-.5.1-.5 1-.1 2 .5 1.4 2 1.7 9 1.7 7.6 0 8.4-.2 8.4-1.9 0-1.2-1-2.3-3-3-2.8-1-2.8-1-1.8-4.6l1.2-3.6 8.4.3 8.4.3 1.4 3.3c1.3 3.3 1.3 3.3-1.6 4.4-2 .6-3 1.7-3 2.9 0 1.7.8 1.9 8.9 1.9 7.5 0 9-.3 9.5-1.7.4-1 .4-1.9 0-2-5.1-1.8-5.7-2.8-12.7-23-7.1-20.8-7.2-20.9-11.8-19.6m139.1 2.2c0 1.2 1 2.3 3 3l3 1v34.2l-3 1c-2 .7-3 1.8-3 3 0 1.7.8 1.9 9 1.9 8.4 0 9-.1 9-2 0-1.5-.8-2.2-3-2.6-2.5-.6-3-1.2-3.5-4.8-.3-2.2-.5-8.8-.3-14.6l.3-10.5 5.8 17.9 5.8 17.8 3.1-.6c1.8-.3 3.3-.8 3.6-1 .2-.2 3-8 6.2-17.3l5.9-16.8v14.3l.1 14.3-3 1c-2 .7-3 1.8-3 3 0 1.7.8 1.9 9 1.9s9-.2 9-1.9c0-1.2-1-2.3-3-3l-3-1v-34.2l3-1c2-.7 3-1.8 3-3 0-1.8-.6-2-7.2-1.7l-7.1.3-6.1 17.7A194 194 0 0 1 380 618c-.3 0-3.2-8-6.6-17.8l-6.1-17.7-7.2-.3c-6.5-.3-7.1-.1-7.1 1.7m200.3-.7-5.3 1v4.8c0 6 .7 8 3 8 1.3 0 2-1.1 2.4-4.5l.7-4.5h5.3c4.2 0 5.7.5 7.4 2.3 1.2 1.3 2.2 3.2 2.2 4.3 0 3.2-5.4 10.8-14 19.8-7 7.3-8 8.7-7.4 11l.6 2.6H577v-4.4c0-5.6-.8-7.6-3-7.6-1.1 0-2 1-2.4 3-.5 2.8-.9 3-4.8 3-2.4 0-6.1.3-8.3.7l-4 .6 7.7-8c8.2-8.7 13.8-17.3 13.8-21.3 0-3.2-3-7.7-6.6-10.1-3.2-2-7.7-2.3-16.1-.7m38 1.2c-5.1 3.2-7.3 8.3-8 18.8-.7 9.9.9 15.9 5.6 20.8 4.6 4.8 9.4 6 15.6 3.5 5.4-2 8-5.1 10-11.8 3.4-11.6 1.2-23.8-5.5-30.2-4.3-4.1-12-4.6-17.6-1m35.9-1.3-5.3 1v4.8c0 6 .7 8 3 8 1.5 0 2-1 2.6-4.5l.6-4.5h5.2c4.2 0 5.7.5 7.4 2.3 1.2 1.3 2.2 3.2 2.2 4.3 0 3.2-5.4 10.8-14 19.8-7 7.3-8 8.7-7.4 11l.6 2.6H651v-4.4c0-5.6-.8-7.6-3-7.6-1.1 0-2 1-2.4 3-.5 2.8-.9 3-4.8 3-2.4 0-6.1.3-8.3.7l-4 .6 7.8-8.3c8.4-9 13.7-17 13.7-21 0-3.2-3-7.7-6.6-10.1-3.2-2-7.7-2.3-16.1-.7m438.4.9c-5.1 2.7-7.7 8.7-8.4 19-.7 10 .9 16 5.6 21 4.6 4.7 9.4 5.8 15.6 3.4 5.4-2 8-5.1 10-11.8 3.4-11.6 1.2-23.8-5.5-30.2-4-3.8-11.8-4.5-17.3-1.4m50 0c-5.1 2.7-7.7 8.7-8.4 19-.7 10 .9 16 5.6 21 4.6 4.7 9.4 5.8 15.6 3.4 5.4-2 8-5.1 10-11.8 3.4-11.6 1.2-23.8-5.5-30.2-4-3.8-11.8-4.5-17.3-1.4m38.7.3c-5.2 3.2-7.4 8.3-8.1 18.8-.7 9.9.9 15.9 5.6 20.8 4.6 4.8 9.4 6 15.6 3.5 5.4-2 8-5.1 10-11.8 3.4-11.6 1.2-23.8-5.5-30.2-4.3-4.1-12-4.6-17.6-1m39.3-.4c-5.1 2.7-7.7 8.7-8.4 19-.7 9.4.7 15.3 4.9 20.3 3.8 4.6 8.8 6.2 14.7 4.6 8.6-2.3 13.1-10.6 13.1-24.2a24 24 0 0 0-7-18.3c-4-3.8-11.8-4.5-17.3-1.4m-534.8-.9c-.7 2-2.3 22.2-1.8 22.9.4.6 3.4.8 8.2.3 7.5-.7 7.6-.6 10.6 2.4 3.5 3.4 3.8 5 1.6 9.2-2 3.7-4.3 5-9.2 5-5 0-6-.8-6.8-5.3-.8-4-3.7-5.2-4.9-2.1-1 2.4-.7 10.2.3 10.8.5.3 4.3 1 8.4 1.7 6.8 1 8 1 11.4-.7 4.3-2.2 8-7 8.9-12 .8-4.4-2-10.2-6.6-13.2-3-2.1-4.2-2.3-9.8-1.8l-6.2.7v-3c0-1.5.3-4.3.6-6l.6-3.1h10c7.8 0 9.8-.3 9.8-1.4 0-.8.3-2.1.6-3 .5-1.4-1-1.6-12.5-1.6-7.2 0-13.1.1-13.2.3m366 0c-.7 2-2.3 22-1.8 22.8.4.6 3.4.8 8.2.3 7.5-.7 7.6-.6 10.6 2.4 3.5 3.4 3.8 5 1.6 9.2-2 3.7-4.3 5-9.2 5-5 0-6-.8-6.8-5.3-.8-4-3.7-5.2-4.9-2.1-1 2.4-.7 10.2.3 10.8.5.3 4.3 1 8.4 1.7 6.8 1 8 1 11.4-.7 4.3-2.2 8-7 8.9-12 .8-4.4-2-10.2-6.6-13.2-3-2.1-4.2-2.3-9.8-1.8l-6.2.7v-3c0-1.5.3-4.3.6-6l.7-3.1h9.8c7.9 0 9.9-.3 9.9-1.4 0-.8.3-2.1.6-3 .5-1.4-1-1.6-12.5-1.6-7.2 0-13.1.1-13.2.3m-141.7 3.4c-.7.3-1.2 2.3-1.2 4.9 0 4.2-.1 4.4-3 4.4-2.3 0-3 .4-3 2s.7 2 3 2h3v11.9c0 15.1.9 16.7 9.5 16.5 5.9-.2 7.5-1.2 7.5-4.8 0-1.6-.6-1.8-3.8-1.3-6.6.8-7.2 0-7.2-11.3v-10h4.9c3.5 0 5-.4 5.5-1.6 1.1-3 .6-3.3-4.6-3.6l-5.3-.3.3-4.8c.3-4.3.1-4.7-2-4.6-1.3 0-2.9.3-3.5.6m-289 2.5c-3 1.4-4.4 6.9-4.5 16.2-.1 12 4.7 18.8 12.1 17 5-1.3 7.2-6 7.3-16 0-8.5-1-12.6-4.4-16.1-2.3-2.5-6.7-3-10.6-1m474 0c-2.8 1.3-4.4 7-4.5 16.2 0 12 4.8 18.7 12.2 16.9 5-1.3 7.2-6 7.3-16 0-8.5-1-12.6-4.4-16.1-2.3-2.5-6.7-3-10.6-1m50 0c-2.8 1.3-4.4 7-4.5 16.2 0 12 4.8 18.7 12.2 16.9 5-1.3 7.2-6 7.3-16 0-8.5-1-12.6-4.4-16.1-2.3-2.5-6.7-3-10.6-1m39 0c-2.8 1.3-4.3 6.8-4.4 16.1-.1 12 4.7 18.8 12.1 17 5-1.3 7.2-6 7.3-16 0-8.5-1-12.6-4.4-16.1-2.3-2.5-6.7-3-10.6-1m38 .7c-3.7 3.5-4.8 19.8-1.7 26.3 2.4 5.1 6 7.2 10.4 6 5-1.2 7.2-5.8 7.3-16 0-8.4-1-12.5-4.4-16-2.8-3-8.6-3-11.5-.3M212 599.3l-2.8 8.5c-.4.9 1.1 1.2 5.7 1.2s6-.3 5.7-1.3l-2.8-8.5c-1.2-4-2.6-7.2-2.9-7.2-.3 0-1.7 3.3-3 7.3m32.3-1c-4 4.2-4.6 6.3-3.3 10.4l1.3 3.3 7.2 2.4c6.2 2 7 2.6 7.3 5 .4 3.5-1.5 4.1-9 2.7a30 30 0 0 0-6.3-1c-.2.3-.5 1.8-.7 3.4l-.3 3 7.3.9c8.6 1 11.3.2 14.2-4.6 4.3-7 2-11.5-8-15-4.9-1.8-6.5-2.8-6.5-4.2 0-3.2 2.8-4.1 8.7-3 5.7 1.3 6.8.8 6.8-3.2 0-2.4-3.1-3.4-11-3.4-4 0-5 .5-7.7 3.3m45.5-1.2c-4.7 2.4-7 6.7-7.5 14.4-.4 5.1-.2 6.5 1.9 9.4 3.7 5.5 7.3 7.6 12.8 7.6 8.4 0 13.8-6 14.7-16.3.3-4.4 0-6.5-1.5-9.2a14.6 14.6 0 0 0-20.4-6m125-1.3c-1.7.4-3.3 4.7-2.3 6.2.3.5 2.2.5 4.2 0 9-2 12.3-.6 12.3 5.5 0 2.2-.5 2.6-4.8 3.1-11.5 1.7-11.6 1.7-12.3 6-.8 5 .1 7.6 3.8 10.4 2.3 1.9 3.5 2.1 7.3 1.6 2.5-.4 4.9-1.4 5.3-2.2.8-1.2 1-1.2 2 .2 1.8 2.3 10 1.7 10.5-.8.3-1.2-.6-2-2.7-2.8l-3.1-1.1v-10.3c0-9.7-.2-10.5-2.6-13.4-2.4-3-3-3-9.2-3-3.7 0-7.4.3-8.4.6m31.2.3c-3.6.4-4.5.9-4.5 2.5 0 1.2.9 2.1 2.5 2.5 2.4.6 2.5.8 2.8 11.2l.3 10.6-2.6.6c-1.6.4-2.5 1.3-2.5 2.6 0 1.8.7 2 9 2 8.1 0 9-.2 9-1.9 0-1.2-1-2.1-3.3-2.7l-3.2-1v-19.9l5.6-.3c5.4-.3 5.7-.4 6.1-3.3.6-3.7.3-3.9-4.9-3.9-3.2 0-4.6.5-5.5 2-1.2 2-1.4 2-2.8.2-1.2-1.4-2.5-1.6-6-1.2m28.8.6c-3.6 2-6.8 8.3-7.5 15-.5 4.2-.1 6 1.6 9 3.6 6.3 6.6 8 14 7.7 6.8-.1 9.1-1.5 9.1-5.5 0-1.5-.7-1.7-6.3-1.2-7.3.7-9.1-.3-11.1-6-2.6-7.5 1.8-15.6 8.4-15.6 2.5 0 2.9.4 3.5 4 .5 3 1.2 4 2.5 4 2.2 0 3-2 3-7.5 0-3.6-.4-4.4-2.3-4.9-4-1-12.1-.5-15 1M722 596c-3.6.4-4.5.9-4.5 2.5 0 1.2.9 2.1 2.5 2.5 2.4.6 2.5.8 2.8 11.2l.3 10.6-2.6.6c-1.6.4-2.5 1.3-2.5 2.7 0 1.8.5 2 8.2 1.7 6.5-.2 8.3-.6 8.6-1.8.1-1-1-2-2.8-2.7l-3-1.1v-10c0-10.8.2-11.2 6-11.2 4.7 0 6.5 3.1 6.8 12.5l.4 8.3-3 1.6c-2 1-3 2.1-2.6 3.1.5 1.2 2.4 1.5 8.5 1.5 7.2 0 7.9-.2 7.9-2 0-1.2-.9-2.2-2.4-2.6-2.4-.6-2.5-1-2.8-11-.3-11.4-.3-11.4 5.7-11.4 5.2 0 6.5 2.7 6.5 13.1 0 8.4 0 8.7-2.5 9.3-1.6.4-2.5 1.3-2.5 2.7 0 1.8.5 2 8.2 1.7 6.7-.2 8.3-.6 8.6-2 .2-1-.6-1.8-2.3-2.2-2.4-.6-2.5-1-2.5-8.4 0-10-1.3-14.5-5.2-17.7-2.8-2.4-3.9-2.7-8.6-2.3-3.7.3-5.7 1-6.4 2.2-.9 1.5-1.1 1.5-3.5-.4-3.4-2.6-9.6-2.7-12.2 0-1.8 1.7-2 1.7-3.3.1-1-1.3-2.3-1.6-5.8-1.1m59.8 1c-4.7 2.5-7 6.8-7.5 14.5-.4 5.1-.2 6.5 1.9 9.4 3.7 5.5 7.3 7.6 12.8 7.6 8.4 0 13.8-6 14.7-16.3.3-4.4 0-6.5-1.5-9.2a14.6 14.6 0 0 0-20.4-6m30.2-1c-3.6.4-4.5.9-4.5 2.5 0 1.2.9 2.1 2.5 2.5 2.4.6 2.5.8 2.8 11.2l.3 10.6-2.6.6c-1.6.4-2.5 1.3-2.5 2.6 0 1.8.7 2 9 2 8.1 0 9-.2 9-1.9 0-1.2-1-2.1-3.3-2.7l-3.2-1v-19.9l5.6-.3c5.4-.3 5.7-.4 6.1-3.3.6-3.7.3-3.9-4.9-3.9-3.2 0-4.6.5-5.5 2-1.2 2-1.4 2-2.8.2-1.2-1.4-2.5-1.6-6-1.2m28.8 1c-4.7 2.5-7 6.8-7.5 14.5-.4 5.1-.2 6.5 1.9 9.5 1.3 1.9 4 4.5 5.8 5.8 3 2 4.3 2.3 8.7 1.8 7.1-.8 8-1.3 8.5-4.7.5-3.2.4-3.2-6.1-2-6.8 1.4-10.6-1-12.5-7.5-.6-2.1-.3-2.2 9.4-2.9l10-.7v-4.5c0-5.5-1.2-7.8-5-9.8-4-2-8.7-1.8-13.2.6m101-1.4c-1.6.4-3.3 4.7-2.3 6.2.3.5 2.2.5 4.2 0 9-2 12.3-.6 12.3 5.5 0 2.2-.5 2.6-4.8 3.1-11.5 1.7-11.6 1.7-12.3 6-.8 5 .1 7.6 3.8 10.4 2.3 1.9 3.5 2.1 7.3 1.6 2.5-.4 4.9-1.4 5.3-2.2.8-1.2 1-1.2 2 .2 1.8 2.3 10 1.7 10.5-.8.3-1.2-.6-2-2.7-2.8l-3.1-1.1v-10.3c0-9.7-.2-10.5-2.6-13.4-2.4-3-3-3-9.2-3-3.7 0-7.4.3-8.4.6m32.2.3c-3.6.4-4.5.9-4.5 2.5 0 1.2.9 2.1 2.5 2.5 2.4.6 2.5.8 2.8 11.2l.3 10.6-2.6.6c-1.6.4-2.5 1.3-2.5 2.7 0 1.8.5 2 8.2 1.7 6.5-.2 8.3-.6 8.6-1.8.1-1-1-2-2.8-2.7l-3-1.1v-10c0-10.8.2-11.2 6-11.2 5 0 7 3.9 7 13.5 0 8 0 8.3-2.5 9-1.6.3-2.5 1.2-2.5 2.5 0 1.8.7 2 8 2s8-.2 8-2c0-1.3-.9-2.2-2.5-2.6-2.4-.6-2.5-.8-2.5-10 0-10.2-1.2-14-5.2-16.8-3.2-2.2-9.4-2-11.7.3-1.8 1.8-2 1.8-3.3.2-1-1.3-2.3-1.6-5.8-1.1m-131 5.3c-1.4.7-2.6 2.3-2.8 3.5-.3 2 0 2.2 5.8 2.2 7 0 9-2 5-5.2-2.6-2.1-4.6-2.2-8-.5m-552.4 2c-1 1.3-1.6 4.3-1.6 8 0 5.2.3 6.2 3 8.9 2.7 2.6 3.6 3 6.8 2.4 5-.8 6.2-2.8 6.2-10.1 0-5.2-.4-6.6-2.5-8.9-3.2-3.5-9.6-3.7-12-.4m492 0c-1 1.4-1.5 4.4-1.5 8.1 0 5.2.3 6.2 3 8.9 2.7 2.6 3.6 3 6.8 2.4 5.3-.8 6.4-2.8 6-11-.3-5.7-.8-7.2-2.7-8.7-3.3-2.7-9.5-2.5-11.5.3m-362.9 12.5c-2 .5-2.3 4.6-.3 6.2.8.7 3.2 1 5.3 1 3.6-.4 3.8-.6 4.1-4.1.3-3.8.3-3.8-3.5-3.7-2 0-4.6.3-5.6.6m527 0c-2 .5-2.3 4.6-.3 6.2.8.7 3.2 1 5.3 1 3.6-.4 3.8-.6 4.1-4.1.3-3.8.3-3.8-3.5-3.7-2 0-4.6.3-5.5.6m-255.2 6.5c-1.4 2-1.4 2.4.2 5 1.5 2.6 1.5 3 0 5.7-2.3 3.8-2.3 4.3.4 4 5.1-.8 9.6-14.6 5.2-16.3-2.8-1-4.2-.7-5.8 1.6m403 0c-1.4 2-1.3 2.4.2 5s1.5 3 0 5.7c-2.3 3.8-2.3 4.3.4 4 5.1-.8 9.6-14.6 5.2-16.3-2.8-1-4.2-.7-5.8 1.6m-657.3 54.5c-4.5.6-4.7 4-.3 5l3 .5v36.6l-2.5.6c-1.6.4-2.5 1.3-2.5 2.7 0 1.8.5 2 8.2 1.7 6.7-.2 8.3-.6 8.6-2 .2-1-.6-1.8-2.3-2.2l-2.6-.7.3-10.7.3-10.7 3.7-.3c2.7-.2 4.1.2 5.7 2 1.8 1.9 2.1 3.4 2.1 10.9 0 8.4 0 8.7-2.5 9.3-1.6.4-2.5 1.3-2.5 2.6 0 1.8.7 2 8 2s8-.2 8-2c0-1.3-.9-2.2-2.5-2.6-2.5-.6-2.5-.8-2.5-11v-10.3l-3.4-3.5c-2.7-2.9-4-3.6-7-3.6-2 0-4.6.5-5.7 1-1.8 1-2 .7-2-4.2 0-3-.4-6.6-.8-8.3-.7-3.2-2.1-3.7-8.9-2.8m144.3.2c-4.2.9-4.6 4-.6 4.7l3.1.6v20.5c0 17.2.2 20.5 1.5 21 .8.3 4.6.6 8.3.7 6 0 7.3-.2 10.4-2.6 6.7-5.1 9.6-16.1 6-22.8-3.6-6.6-11.8-9.9-17.3-7-1.8 1-1.9.7-1.9-4.9 0-10.6-1.3-12-9.5-10.2m146.3-.2c-4 .6-3.8 4.1.2 5l3 .5v36.6l-2.5.6c-1.6.4-2.5 1.3-2.5 2.7 0 1.8.5 2 8.2 1.7 6.7-.2 8.3-.6 8.6-2 .2-1-.6-1.8-2.3-2.2-2.3-.6-2.5-1.1-2.5-5.7 0-6.6 1.2-6.2 7.4 3 4.9 7 5 7.1 9.3 7.1 3.5 0 4.3-.3 4.3-1.8 0-1-1-2.4-2.4-3-1.4-.6-4.3-3.9-6.6-7.2l-4.2-6.2 4.3-4.5a29 29 0 0 1 6.6-5.4c1.3-.5 2.3-1.5 2.3-2.4 0-1.2-1.5-1.5-8-1.5-6.7 0-8 .3-8 1.6 0 .9.9 1.8 2 2.1 2.6.7 2.6.8-1 5.4-5.2 6.5-6 5.5-6.1-7.4-.2-15.3-.6-17.2-4.4-17.3-1.7 0-4.2 0-5.8.3m55.8.2c-4.2.9-4.6 4-.6 4.7l3.1.6V719l-2.5.6c-1.6.4-2.5 1.3-2.5 2.5 0 1.8.7 2 8.2 1.7 6.7-.2 8.3-.6 8.6-2 .2-1-.6-1.8-2.3-2.2l-2.5-.6v-19c0-10.4-.4-20-1-21.4-1-2.7-2.5-3-8.5-1.7m19 0c-4.2.9-4.6 4-.6 4.7l3.1.6V719l-2.5.6c-1.6.4-2.5 1.3-2.5 2.5 0 1.8.7 2 8.2 1.7 6.7-.2 8.3-.6 8.6-2 .2-1-.6-1.8-2.3-2.2l-2.5-.6v-19c0-10.4-.4-20-1-21.4-1-2.7-2.5-3-8.5-1.7m66 0c-4.2.9-4.6 4-.6 4.7 3 .6 3.1 1 3.1 5.3v4.6l-4.7-.3c-6.6-.4-10.7 2.3-13.8 9-4.7 10-2.3 19.3 6 23.2 4.3 2 11 1.4 12-1.2.6-1.6.7-1.6 1.6 0 .7 1.3 2.3 1.8 6 1.8 4.5 0 4.9-.2 4.9-2.4 0-1.8-.6-2.5-2.3-2.8-2.2-.3-2.2-.5-2.7-20.3-.3-11-.9-20.6-1.3-21.3-.9-1.3-3.3-1.4-8.2-.3m-101 1.7c-3 3-1.2 7.4 3.2 7.4 1.6 0 2.7-.9 3.5-2.6 1-2.3 1-2.9-1.1-4.5-2.8-2.3-3.5-2.3-5.5-.3m137 0c-3.1 3-1.3 7.4 3.1 7.4 1.6 0 2.7-.9 3.5-2.6 1-2.3 1-2.9-1.1-4.5-2.8-2.3-3.5-2.3-5.5-.3m79.2.4c-6.4 3.5-10.9 11-12.2 20.2-2.3 15.5 11.2 28.6 25.4 24.8 3-.8 4.6-.8 5.3 0 .6.5 2 1 2.9 1 1.6 0 1.8-1 1.8-11.5V702h-8c-7.8 0-8 0-8 2.4 0 2.3.5 2.5 4.8 2.8l4.7.3.3 4.9c.4 5.8-.4 6.6-6.9 6.6-9.2 0-15.4-7.5-15.4-18.5 0-10.7 5.6-17 15.2-17 6 0 6.7.6 7.8 5.8 1.1 5.4 4.1 2.8 5-4.4.8-6.6 1-6.5-11.5-7.4-6.3-.5-8-.2-11.2 1.5m-670.5 3.7c-.8.3-1.3 2.3-1.3 5v4.4l-7.9-.6c-7.3-.7-8-.6-9.4 1.5-1.5 2.1-1.6 2.1-2.5.3-.9-1.6-1.8-1.8-5.9-1.4-4 .5-4.8 1-4.8 2.6 0 1.2.9 2.1 2.5 2.5 2.4.6 2.5.8 2.8 11.2l.3 10.6-2.6.6c-1.6.4-2.5 1.3-2.5 2.6 0 1.8.7 2 9 2 8.1 0 9-.2 9-1.9 0-1.2-1-2.1-3.3-2.7l-3.2-1v-19.9l5.8-.3c5.4-.3 5.7-.4 5.8-3 0-1.7.3-2 .6-1 .3 1.2 1.4 1.8 3.4 1.8h2.9v11.9c0 15.1.9 16.7 9.5 16.5 5.9-.2 7.5-1.2 7.5-4.8 0-1.6-.6-1.8-4-1.3-6.1.8-7-.6-7-11.9V697h4.9c3.5 0 5-.4 5.5-1.6 1.1-3 .6-3.3-4.6-3.6l-5.3-.3.3-4.8c.3-4.3.1-4.7-2-4.6-1.3 0-2.9.3-3.6.6M199 692c-3.6.4-4.5.9-4.5 2.5 0 1.2.9 2.1 2.5 2.5 2.4.6 2.5.8 2.8 11.2l.3 10.6-2.6.6c-1.6.4-2.5 1.3-2.5 2.7 0 1.8.5 2 8.2 1.7 6.5-.2 8.3-.6 8.6-1.8.1-1-1-2-2.8-2.7l-3-1.1v-10c0-10.8.2-11.2 6-11.2 4.7 0 6.5 3.1 6.8 12.5l.4 8.3-3 1.6c-2 1-3 2.1-2.6 3.1.5 1.2 2.4 1.5 8.5 1.5 7.2 0 7.9-.2 7.9-2 0-1.2-.9-2.2-2.4-2.6-2.4-.6-2.5-1-2.8-11-.3-11.4-.3-11.4 5.7-11.4 5.2 0 6.5 2.7 6.5 13.1 0 8.4 0 8.7-2.5 9.3-1.6.4-2.5 1.3-2.5 2.7 0 1.8.5 2 8.2 1.7 6.7-.2 8.3-.6 8.6-2 .2-1-.6-1.8-2.3-2.2-2.4-.6-2.5-1-2.5-8.4 0-10-1.3-14.5-5.2-17.7-2.8-2.4-3.9-2.7-8.6-2.3-3.7.3-5.7 1-6.4 2.2-.9 1.5-1.1 1.5-3.5-.4-3.4-2.6-9.6-2.7-12.2 0-1.8 1.7-2 1.7-3.3.1-1-1.3-2.3-1.6-5.8-1.1m54.8-.3c-1.7.4-3.3 4.7-2.3 6.2.3.5 2.2.5 4.2 0 9-2 12.3-.6 12.3 5.5 0 2.2-.5 2.6-4.8 3.1-11.5 1.7-11.6 1.7-12.3 6-.8 5 .1 7.6 3.8 10.4 2.3 1.9 3.5 2.1 7.3 1.6 2.5-.4 4.9-1.4 5.3-2.2.8-1.2 1-1.2 2 .2 1.8 2.3 10 1.7 10.5-.8.3-1.2-.6-2-2.7-2.8l-3.1-1.1v-10.3c0-9.7-.2-10.5-2.6-13.4-2.4-3-3-3-9.2-3-3.7 0-7.4.3-8.4.6m118.2.3c-3.6.4-4.5.9-4.5 2.5 0 1.2.9 2.1 2.5 2.5 2.4.6 2.5.8 2.8 11.2l.3 10.6-2.6.6c-1.6.4-2.5 1.3-2.5 2.6 0 1.8.7 2 9 2 8.1 0 9-.2 9-1.9 0-1.2-1-2.1-3.3-2.7l-3.2-1v-19.9l5.6-.3c5.4-.3 5.7-.4 6.1-3.3.6-3.7.3-3.9-4.9-3.9-3.2 0-4.6.5-5.5 2-1.2 2-1.4 2-2.8.2-1.2-1.4-2.5-1.6-6-1.2m26.3 2.3c-4 4.2-4.6 6.3-3.3 10.4l1.3 3.3 7.2 2.4c6.2 2 7 2.6 7.3 5 .4 3.5-1.5 4.1-9 2.7a30 30 0 0 0-6.3-1c-.2.3-.5 1.8-.7 3.4l-.3 3 7.3.9c8.6 1 11.3.2 14.2-4.6 4.3-7 2-11.5-8-15-4.9-1.8-6.5-2.8-6.5-4.2 0-3.2 2.8-4.1 8.7-3 5.7 1.3 6.8.8 6.8-3.2 0-2.4-3.1-3.4-11-3.4-4 0-5 .5-7.7 3.3m77.5-2.6c-1.7.4-3.3 4.7-2.3 6.2.3.5 2.2.5 4.2 0 9-2 12.3-.6 12.3 5.5 0 2.2-.5 2.6-4.8 3.1-11.5 1.7-11.6 1.7-12.3 6-.8 5 .1 7.6 3.8 10.4 2.3 1.9 3.5 2.1 7.3 1.6 2.5-.4 4.9-1.4 5.3-2.2.8-1.2 1-1.2 2 .2 1.8 2.3 10 1.7 10.5-.8.3-1.2-.6-2-2.7-2.8l-3.1-1.1v-10.3c0-9.7-.2-10.5-2.6-13.4-2.4-3-3-3-9.2-3-3.7 0-7.4.3-8.4.6m69 1.4c-4.7 2.4-7 6.7-7.5 14.4-.4 5.1-.2 6.5 1.9 9.5 1.3 1.9 4 4.5 5.8 5.8 3 2 4.3 2.3 8.7 1.8 7.1-.8 8-1.3 8.5-4.7.5-3.2.4-3.2-6.1-2-6.8 1.4-10.6-1-12.5-7.5-.6-2.1-.3-2.2 9.4-2.9l10-.7v-4.5c0-5.5-1.2-7.8-5-9.8-4-2-8.7-1.8-13.2.6m78 0c-4.7 2.4-7 6.7-7.5 14.4-.4 5.1-.2 6.5 1.9 9.5 1.3 1.9 4 4.5 5.8 5.8 3 2 4.3 2.3 8.7 1.8 7.1-.8 8-1.3 8.5-4.7.5-3.2.4-3.2-6.1-2-6.8 1.4-10.6-1-12.5-7.5-.6-2.1-.3-2.2 9.4-2.9l10-.7v-4.5c0-5.5-1.2-7.8-5-9.8-4-2-8.7-1.8-13.2.6m31 0c-4.7 2.4-7 6.7-7.5 14.4-.4 5.1-.2 6.5 1.9 9.5 1.3 1.9 4 4.5 5.8 5.8 3 2 4.3 2.3 8.7 1.8 7.1-.8 8-1.3 8.5-4.7.5-3.2.4-3.2-6.1-2-6.8 1.4-10.6-1-12.5-7.5-.6-2.1-.3-2.2 9.4-2.9l10-.7v-4.5c0-5.5-1.2-7.8-5-9.8-4-2-8.7-1.8-13.2.6M680 692c-3.6.4-4.5.9-4.5 2.5 0 1.2.9 2.1 2.5 2.5 2.4.6 2.5.8 2.8 11.2l.3 10.6-2.6.6c-1.6.4-2.5 1.3-2.5 2.7 0 1.8.5 2 8.2 1.7 6.5-.2 8.3-.6 8.6-1.8.1-1-1-2-2.8-2.7l-3-1.1v-10c0-10.9.2-11.2 6-11.2 5.3 0 7 3.2 7 13 0 8.5 0 8.8-2.5 9.4-1.6.4-2.5 1.3-2.5 2.6 0 1.8.7 2 8 2s8-.2 8-2c0-1.3-.9-2.2-2.5-2.6-2.4-.6-2.5-.8-2.5-10 0-10.2-1.2-14-5.2-16.8-3.2-2.2-9.4-2-11.7.3-1.8 1.8-2 1.8-3.3.2-1-1.3-2.3-1.6-5.8-1.1m85-.1c-3.7 1-3.8 3.8 0 4.6l3 .7V708c0 10.8 0 10.9-2.5 11.5-1.6.4-2.5 1.3-2.5 2.5 0 1.8.7 2 8.2 1.7 6.7-.2 8.3-.6 8.6-2 .2-1-.6-1.8-2.3-2.2-2.5-.6-2.5-.7-2.6-11.9-.1-14.4-.6-16.1-4.4-16.4-1.7 0-4.1.2-5.5.6m62.8 1.2c-4.7 2.4-7 6.7-7.5 14.4-.4 5.1-.2 6.5 1.9 9.5 1.3 1.9 4 4.5 5.8 5.8 3 2 4.3 2.3 8.7 1.8 7.1-.8 8-1.3 8.5-4.7.5-3.2.4-3.2-6.1-2-6.8 1.4-10.6-1-12.5-7.5-.6-2.1-.3-2.2 9.4-2.9l10-.7v-4.5c0-5.5-1.2-7.8-5-9.8-4-2-8.7-1.8-13.2.6m74.2-1.2c-3.7 1-3.8 3.8 0 4.6l3 .7V708c0 10.8 0 10.9-2.5 11.5-1.6.4-2.5 1.3-2.5 2.5 0 1.8.7 2 8.2 1.7 6.7-.2 8.3-.6 8.6-2 .2-1-.6-1.8-2.3-2.2-2.5-.6-2.5-.7-2.6-11.9-.1-14.4-.6-16.1-4.4-16.4-1.7 0-4.1.2-5.5.6m22 0c-3.6.5-4.5 1-4.5 2.6 0 1.2.9 2.1 2.5 2.5 2.4.6 2.5.8 2.8 11.2l.3 10.6-2.6.6c-1.6.4-2.5 1.3-2.5 2.7 0 1.8.5 2 8.2 1.7 6.5-.2 8.3-.6 8.6-1.8.1-1-1-2-2.8-2.7l-3-1.1v-10c0-10.9.2-11.2 6-11.2 5.3 0 7 3.2 7 13 0 8.5 0 8.8-2.5 9.4-1.6.4-2.5 1.3-2.5 2.6 0 1.8.7 2 8 2s8-.2 8-2c0-1.3-.9-2.2-2.5-2.6-2.4-.6-2.5-.8-2.5-10 0-10.2-1.2-14-5.2-16.8-3.2-2.2-9.4-2-11.7.3-1.8 1.8-2 1.8-3.3.2-1-1.3-2.3-1.6-5.8-1.1m92.8-.3c-1.6.4-3.3 4.7-2.3 6.2.3.5 2.2.5 4.2 0 9-2 12.3-.6 12.3 5.5 0 2.2-.5 2.6-4.8 3.1-11.5 1.7-11.6 1.7-12.3 6-.8 5 .1 7.6 3.8 10.4 2.3 1.9 3.5 2.1 7.3 1.6 2.5-.4 4.9-1.4 5.3-2.2.8-1.2 1-1.2 2 .2 1.8 2.3 10 1.7 10.5-.8.3-1.2-.6-2-2.7-2.8l-3.1-1.1v-10.3c0-9.7-.2-10.5-2.6-13.4-2.4-3-3-3-9.2-3-3.7 0-7.4.3-8.4.6m62 0c-1.6.4-3.3 4.7-2.3 6.2.3.5 2.2.5 4.2 0 9-2 12.3-.6 12.3 5.5 0 2.2-.5 2.6-4.8 3.1-11.5 1.7-11.6 1.7-12.3 6-.8 5 .1 7.6 3.8 10.4 2.3 1.9 3.5 2.1 7.3 1.6 2.5-.4 4.9-1.4 5.3-2.2.8-1.2 1-1.2 2 .2 1.8 2.3 10 1.7 10.5-.8.3-1.2-.6-2-2.7-2.8l-3.1-1.1v-10.3c0-9.7-.2-10.5-2.6-13.4-2.4-3-3-3-9.2-3-3.7 0-7.4.3-8.4.6M330 694c0 1.3.7 2 2 2 1.8 0 3 2.6 10 21.8 1.6 4.3 2.7 6.1 3.7 5.8 1.8-.7 1.8-.6-2.2 6.5-3.7 6.4-3.5 7.8.8 7.9h2.4c.3 0 3.9-9 7.8-20.2 5.6-16 7.6-20.5 9.3-21.3 1.2-.5 2.2-1.8 2.2-2.8 0-1.6-.8-1.8-7.2-1.5-7.5.3-10 2-5.5 3.7l2.5 1-3 9.8a2755 2755 0 0 1-3.2 10.8c-.4 1-1.3-1-5.6-12.8L341 697l2.5-1c1.3-.4 2.4-1.5 2.4-2.4 0-1.2-1.5-1.5-8-1.5-7.3 0-8 .2-8 2m170-.3c0 1 1 2.3 2.2 2.8 1.7.7 3.6 4.4 7.4 14 5 13 5 13 8.5 13.3l3.4.3 5-13.3c3.8-9.7 5.8-13.6 7.3-14.3 1.2-.5 2.2-1.8 2.2-2.8 0-1.6-.8-1.8-7.2-1.5-7.6.3-10 2-5.4 3.8l2.6 1-3.2 8.7a85.7 85.7 0 0 1-3.8 9.6c-.4.4-2.3-3.6-4.2-8.8l-3.6-9.6 2.5-1c4.7-1.7 2-3.4-6-3.7-6.9-.3-7.7 0-7.7 1.5m544.6 3c.3 2.7 1 5.2 1.5 5.7 1.5 1.7 3.9-.3 3.9-3.4v-3h6.1c4.8 0 6 .3 5.2 1.3l-9.1 11.9a55.9 55.9 0 0 0-8.2 12.7c0 2 .5 2.1 13.6 2.1h13.7l-.7-3.1c-.3-1.7-.6-4.2-.6-5.5 0-1.9-.5-2.4-2.5-2.4-2.1 0-2.5.5-2.5 3v3h-12l9-12c5.8-7.6 8.8-12.4 8.4-13.4-.5-1.3-2.8-1.6-13.6-1.6h-13l.8 4.8m-497.6.5c-1.4.7-2.6 2.3-2.8 3.5-.3 2 0 2.2 5.8 2.2 7 0 9-2 5-5.2-2.6-2.1-4.6-2.2-8-.5m78 0c-1.4.7-2.6 2.3-2.8 3.5-.3 2 0 2.2 5.8 2.2 7 0 9-2 5-5.2-2.6-2.1-4.6-2.2-8-.5m31 0c-1.4.7-2.6 2.3-2.8 3.5-.3 2 0 2.2 5.8 2.2 7 0 9-2 5-5.2-2.6-2.1-4.6-2.2-8-.5m174 0c-1.4.7-2.6 2.3-2.8 3.5-.3 2.2-.1 2.3 5.9 2 6.9-.3 8.2-1.5 5-4.7-2.4-2.4-4.5-2.6-8.1-.8m33.5-.4c-11 4.6-7.5 23.8 4 21.7l3.5-.7V696h-2.8c-1.5.1-3.6.5-4.7 1M591 708v11h3.8c9 0 13.7-11.7 7.6-19-2.2-2.5-3.3-3-7-3H591v11m-332.3 3.7c-2 .5-2.3 4.6-.3 6.2.8.7 3.2 1 5.3 1 3.6-.4 3.8-.6 4.1-4.1.3-3.8.3-3.8-3.5-3.7-2 0-4.6.3-5.6.6m222 0c-2 .5-2.3 4.6-.3 6.2.8.7 3.2 1 5.3 1 3.6-.4 3.8-.6 4.1-4.1.3-3.8.3-3.8-3.5-3.7-2 0-4.6.3-5.6.6m541 0c-2 .5-2.3 4.3-.5 6.1 1.3 1.3 5.6 1.6 8.2.6 1-.4 1.6-1.8 1.6-4 0-3.3-.1-3.4-3.8-3.3-2 0-4.5.3-5.5.6m62 0c-2 .5-2.3 4.6-.3 6.2.8.7 3.2 1 5.3 1 3.6-.4 3.8-.6 4.1-4.1.3-3.8.3-3.8-3.5-3.7-2 0-4.6.3-5.5.6m24.4 6.8c-1 2.1-.9 2.8.8 4.5 2.5 2.5 3.5 2.5 6 0 2.4-2.4 2.5-3.4.4-5.4-2.4-2.4-5.9-2-7.2 1m-605.7 54.3c-4.2.9-4.6 4-.6 4.7l3.1.6v20.5c0 17.2.2 20.5 1.5 21 .8.3 4.6.6 8.3.7 6 0 7.3-.2 10.4-2.6 6.7-5.1 9.6-16.1 6-22.8-3.6-6.6-11.8-9.9-17.3-7-1.8 1-1.9.7-1.9-4.9 0-10.6-1.3-12-9.5-10.2m108 1.7c-3 3-1.2 7.4 3.2 7.4 1.6 0 2.7-.9 3.5-2.6 1-2.3 1-2.9-1.1-4.5-2.8-2.3-3.5-2.3-5.5-.3M195 775.9c0 1.2 1 2.3 3 3l3 1v34.2l-3 1c-2 .7-3 1.8-3 3 0 1.8 1 1.9 17.5 1.9H230v-5.9c0-4.5-.4-6-1.6-6.5-2.3-.9-3 0-3.8 3.9-.7 3.4-.8 3.5-5.5 3.5-2.7 0-6.3-.3-8-.6l-3.1-.6v-14.9l7.4.7c7.3.6 7.3.6 7.8-2 .3-1.4.3-2.8 0-3-.3-.4-3.8-.6-7.9-.6H208v-14l3.3-.5c1.8-.4 5.3-.5 7.7-.3 4.1.3 4.5.6 5 3.3.4 2 1.2 3 2.6 3.3 1.8.3 2.2-.4 2.8-3.5 1.4-9 2.9-8.3-16.9-8.3-16.5 0-17.5.1-17.5 1.9m737 0c0 1.2 1 2.3 3 3l3 1v34.2l-3 1c-2 .7-3 1.8-3 3 0 1.8 1 1.9 17.5 1.9H967v-5.9c0-4.5-.4-6-1.6-6.5-2.3-.9-3 0-3.8 3.9-.7 3.4-.8 3.5-5.5 3.5-2.7 0-6.3-.3-8-.6l-3.1-.6v-14.9l7.4.7c7.3.6 7.3.6 7.8-2 .3-1.4.3-2.8 0-3-.3-.4-3.8-.6-7.9-.6H945v-14l3.3-.5c1.8-.4 5.3-.5 7.7-.3 4.1.3 4.5.6 5 3.3.4 2 1.2 3 2.6 3.3 1.8.3 2.2-.4 2.8-3.5 1.4-9 2.9-8.3-16.9-8.3-16.5 0-17.5.1-17.5 1.9m-655.2 13.2c-4.7 2.4-7 6.7-7.5 14.4-.4 5.1-.2 6.5 1.9 9.5 1.3 1.9 4 4.5 5.8 5.8 3 2 4.3 2.3 8.7 1.8 7.1-.8 8-1.3 8.5-4.7.5-3.2.4-3.2-6.1-2-6.8 1.4-10.6-1-12.5-7.5-.6-2.1-.3-2.2 9.4-2.9l10-.7v-4.5c0-5.5-1.2-7.8-5-9.8-4-2-8.7-1.8-13.2.6M303 788c-3.6.4-4.5.9-4.5 2.5 0 1.2.9 2.1 2.5 2.5 2.4.6 2.5.8 2.8 11.2l.3 10.6-2.6.6c-1.6.4-2.5 1.3-2.5 2.6 0 1.8.7 2 9 2 8.1 0 9-.2 9-1.9 0-1.2-1-2.1-3.3-2.7l-3.2-1v-19.9l5.8-.3c3.9-.2 5.7-.7 5.7-1.6 0-.9.9-1.2 2.5-.9 2.5.5 3.3 2.3 10.5 22.1 1.6 4.3 2.7 6.1 3.7 5.8 1.8-.7 1.8-.6-2.2 6.5-3.7 6.4-3.5 7.8.8 7.9h2.4c.3 0 3.9-9 7.8-20.2 5.6-16 7.6-20.5 9.3-21.3 1.2-.5 2.2-1.8 2.2-2.8 0-1.6-.8-1.8-7.2-1.5-7.5.3-10 2-5.5 3.7l2.5 1-3 9.8a2755 2755 0 0 1-3.2 10.8c-.4 1-1.3-1-5.6-12.8L334 793l2.5-1c1.3-.4 2.4-1.5 2.4-2.2 0-1-3-1.5-12.8-2-11.9-.7-12.8-.6-14.3 1.3-1.6 1.9-1.8 1.9-3 .2-1.1-1.4-2.4-1.7-5.9-1.2m75 0c-3.6.4-4.5.9-4.5 2.5 0 1.2.9 2.1 2.5 2.5 2.4.6 2.5.8 2.8 11.2l.3 10.6-2.6.6c-1.6.4-2.5 1.3-2.5 2.7 0 1.8.5 2 8.2 1.7 6.5-.2 8.3-.6 8.6-1.8.1-1-1-2-2.8-2.7l-3-1.1v-10c0-10.8.2-11.2 6-11.2 5 0 7 3.9 7 13.5 0 8 0 8.3-2.5 9-1.6.3-2.5 1.2-2.5 2.5 0 1.8.7 2 8 2s8-.2 8-2c0-1.3-.9-2.2-2.5-2.6-2.4-.6-2.5-.8-2.5-10 0-10.2-1.2-14-5.2-16.8-3.2-2.2-9.4-2-11.7.3-1.8 1.8-2 1.8-3.3.2-1-1.3-2.3-1.6-5.8-1.1m36 0c-5.3.6-6.8 3.4-2.6 5 2.5.9 2.6 1.3 2.6 8.2 0 9.6 1.4 14 5.2 17.3 2.7 2.3 3.8 2.6 7.2 2 2.3-.3 4.6-1.3 5.3-2.1 1-1.4 1.2-1.4 2 0 .7 1.3 2.1 1.6 5.9 1.4 4-.2 4.9-.6 4.9-2.3 0-1.2-.9-2.1-2.5-2.5-2.5-.6-2.5-.8-3-13a86 86 0 0 0-1.2-13.5c-.3-.5-2.9-.8-5.7-.7-4.3.3-5.1.7-5.1 2.3 0 1.2 1 2.3 2.5 2.9 2.4 1 2.5 1.2 2.5 10.9v9.9l-3 .6c-3.9.7-6.8-.7-7.5-3.7-.2-1.2-.6-6.6-.7-11.9a34 34 0 0 0-1.3-10.5c-.6-.5-3-.6-5.5-.3m37 0c-3.6.4-4.5.9-4.5 2.5 0 1.2.9 2.1 2.5 2.5 2.4.6 2.5.8 2.8 11.2l.3 10.6-2.6.6c-1.6.4-2.5 1.3-2.5 2.7 0 1.8.5 2 8.2 1.7 6.5-.2 8.3-.6 8.6-1.8.1-1-1-2-2.8-2.7l-3-1.1v-10c0-10.8.2-11.2 6-11.2 4.7 0 6.5 3.1 6.8 12.5l.4 8.3-3 1.6c-2 1-3 2.1-2.6 3.1.5 1.2 2.4 1.5 8.5 1.5 7.2 0 7.9-.2 7.9-2 0-1.2-.9-2.2-2.4-2.6-2.4-.6-2.5-1-2.8-11-.3-11.4-.3-11.4 5.7-11.4 5.2 0 6.5 2.7 6.5 13.1 0 8.4 0 8.7-2.5 9.3-1.6.4-2.5 1.3-2.5 2.7 0 1.8.5 2 8.2 1.7 6.7-.2 8.3-.6 8.6-2 .2-1-.6-1.8-2.3-2.2-2.4-.6-2.5-1-2.5-8.4 0-10-1.3-14.5-5.2-17.7-2.8-2.4-3.9-2.7-8.6-2.3-3.7.3-5.7 1-6.4 2.2-.9 1.5-1.1 1.5-3.5-.4-3.4-2.6-9.6-2.7-12.2 0-1.8 1.7-2 1.7-3.3.1-1-1.3-2.3-1.6-5.8-1.1m93.8 1c-4.7 2.5-7 6.8-7.5 14.5-.4 5.1-.2 6.5 1.9 9.5 1.3 1.9 4 4.5 5.8 5.8 3 2 4.3 2.3 8.7 1.8 7.1-.8 8-1.3 8.5-4.7.5-3.2.4-3.2-6.1-2-6.8 1.4-10.6-1-12.5-7.5-.6-2.1-.3-2.2 9.4-2.9l10-.7v-4.5c0-5.5-1.2-7.8-5-9.8-4-2-8.7-1.8-13.2.6M571 788c-3.6.4-4.5.9-4.5 2.5 0 1.2.9 2.1 2.5 2.5 2.4.6 2.5.8 2.8 11.2l.3 10.6-2.6.6c-1.6.4-2.5 1.3-2.5 2.6 0 1.8.7 2 9 2 8.1 0 9-.2 9-1.9 0-1.2-1-2.1-3.3-2.7l-3.2-1v-19.9l5.6-.3c5.4-.3 5.7-.4 6.1-3.3.6-3.7.3-3.9-4.9-3.9-3.2 0-4.6.5-5.5 2-1.2 2-1.4 2-2.8.2-1.2-1.4-2.5-1.6-6-1.2m37-.1c-3.7 1-3.8 3.8 0 4.6l3 .7V804c0 10.8 0 10.9-2.5 11.5-1.6.4-2.5 1.3-2.5 2.5 0 1.8.7 2 8.2 1.7 6.7-.2 8.3-.6 8.6-2 .2-1-.6-1.8-2.3-2.2-2.5-.6-2.5-.7-2.6-11.9-.1-14.4-.6-16.1-4.4-16.4-1.7 0-4.1.2-5.5.6m22.3 2.4c-4 4.2-4.6 6.3-3.3 10.4l1.3 3.3c.1 0 3.4 1 7.2 2.4 6.2 2 7 2.6 7.3 5 .4 3.5-1.5 4.1-9 2.7a30 30 0 0 0-6.3-1c-.2.3-.5 1.8-.7 3.4l-.3 3 7.3.9c8.6 1 11.3.2 14.2-4.6 4.3-7 2-11.5-8-15-4.9-1.8-6.5-2.8-6.5-4.2 0-3.2 2.8-4.1 8.7-3 5.7 1.3 6.8.8 6.8-3.2 0-2.4-3.1-3.4-11-3.4-4 0-5 .5-7.7 3.3m41.5-2.6c-1.6.4-3.3 4.7-2.3 6.2.3.5 2.2.5 4.2 0 9-2 12.3-.6 12.3 5.5 0 2.2-.5 2.6-4.8 3.1-11.5 1.7-11.6 1.7-12.3 6-.8 5 .1 7.6 3.8 10.4 2.3 1.9 3.5 2.1 7.3 1.6 2.5-.4 4.9-1.4 5.3-2.2.8-1.2 1-1.2 2 .2 1.8 2.3 10 1.7 10.5-.8.3-1.2-.6-2-2.7-2.8l-3.1-1.1v-10.3c0-9.7-.2-10.5-2.6-13.4-2.4-3-3-3-9.2-3-3.7 0-7.4.3-8.4.6m44.2.3c-5.6.6-6.7 3.2-2 4.8l3 1.1V828l-2.5 1c-1.4.5-2.5 1.6-2.5 2.5 0 1.2 1.6 1.5 9 1.5 8.2 0 9-.2 9-2 0-1.3-.8-2-2.8-2.2-2.4-.3-2.7-.7-3-4.7l-.3-4.3 3.4.6c6.3 1.2 12.5-2.7 15.8-9.9a17.4 17.4 0 0 0-4.3-21c-3.7-3.1-10.8-3.5-13.5-.7-1.6 1.6-2 1.6-3.3.2-1.1-1.2-2.7-1.5-6-1m40.8 1c-4.7 2.5-7 6.8-7.5 14.5-.4 5.1-.2 6.5 1.9 9.5 1.3 1.9 4 4.5 5.8 5.8 3 2 4.3 2.3 8.7 1.8 7.1-.8 8-1.3 8.5-4.7.5-3.2.4-3.2-6.1-2-6.8 1.4-10.6-1-12.5-7.5-.6-2.1-.3-2.2 9.4-2.9l10-.7v-4.5c0-5.5-1.2-7.8-5-9.8-4-2-8.7-1.8-13.2.6M783 788c-3.6.4-4.5.9-4.5 2.5 0 1.2.9 2.1 2.5 2.5 2.4.6 2.5.8 2.8 11.2l.3 10.6-2.6.6c-1.6.4-2.5 1.3-2.5 2.6 0 1.8.7 2 9 2 8.1 0 9-.2 9-1.9 0-1.2-1-2.1-3.3-2.7l-3.2-1v-19.9l5.6-.3c5.4-.3 5.7-.4 6.1-3.3.6-3.7.3-3.9-4.9-3.9-3.2 0-4.6.5-5.5 2-1.2 2-1.4 2-2.8.2-1.2-1.4-2.5-1.6-6-1.2m26.3 2.3c-4 4.2-4.6 6.3-3.3 10.4l1.3 3.3c.1 0 3.4 1 7.2 2.4 6.2 2 7 2.6 7.3 5 .4 3.5-1.5 4.1-9 2.7a30 30 0 0 0-6.3-1c-.2.3-.5 1.8-.7 3.4l-.3 3 7.3.9c8.6 1 11.3.2 14.2-4.6 4.3-7 2-11.5-8-15-4.9-1.8-6.5-2.8-6.5-4.2 0-3.2 2.8-4.1 8.7-3 5.7 1.3 6.8.8 6.8-3.2 0-2.4-3.1-3.4-11-3.4-4 0-5 .5-7.7 3.3m31.5-1.2c-4.7 2.4-7 6.7-7.5 14.4-.4 5.1-.2 6.5 1.9 9.4 3.7 5.5 7.3 7.6 12.8 7.6 8.4 0 13.8-6 14.7-16.3.3-4.4 0-6.5-1.5-9.2a14.6 14.6 0 0 0-20.4-6m30.2-1c-3.6.4-4.5.9-4.5 2.5 0 1.2.9 2.1 2.5 2.5 2.4.6 2.5.8 2.8 11.2l.3 10.6-2.6.6c-1.6.4-2.5 1.3-2.5 2.7 0 1.8.5 2 8.2 1.7 6.5-.2 8.3-.6 8.6-1.8.1-1-1-2-2.8-2.7l-3-1.1v-10c0-10.9.2-11.2 6-11.2 5.3 0 7 3.2 7 13 0 8.5 0 8.8-2.5 9.4-1.6.4-2.5 1.3-2.5 2.6 0 1.8.7 2 8 2s8-.2 8-2c0-1.3-.9-2.2-2.5-2.6-2.4-.6-2.5-.8-2.5-10 0-10.2-1.2-14-5.2-16.8-3.2-2.2-9.4-2-11.7.3-1.8 1.8-2 1.8-3.3.2-1-1.3-2.3-1.6-5.8-1.1m142.8 1c-4.7 2.5-7 6.8-7.5 14.5-.4 5.1-.2 6.5 1.9 9.5 1.3 1.9 4 4.5 5.8 5.8 3 2 4.3 2.3 8.7 1.8 7.1-.8 8-1.3 8.5-4.7.5-3.2.4-3.2-6.1-2-6.8 1.4-10.6-1-12.5-7.5-.6-2.1-.3-2.2 9.4-2.9l10-.7v-4.5c0-5.5-1.2-7.8-5-9.8-4-2-8.7-1.8-13.2.6m27.2-1.1c-3.6.4-4.5.9-4.5 2.5 0 1.2.9 2.1 2.5 2.5 2.4.6 2.5.8 2.8 11.2l.3 10.6-2.6.6c-1.6.4-2.5 1.3-2.5 2.6 0 1.8.7 2 9 2 8.1 0 9-.2 9-1.9 0-1.2-1-2.1-3.3-2.7l-3.2-1v-19.9l5.8-.3c3.9-.2 5.7-.7 5.7-1.6 0-.9.9-1.2 2.5-.9 2.5.5 3.3 2.3 10.5 22.1 1.6 4.3 2.7 6.1 3.7 5.8 1.8-.7 1.8-.6-2.2 6.5-3.7 6.4-3.5 7.8.8 7.9h2.4c.3 0 3.9-9 7.8-20.2 5.6-16 7.6-20.5 9.3-21.3 1.2-.5 2.2-1.8 2.2-2.8 0-1.6-.8-1.8-7.2-1.5-7.5.3-10 2-5.5 3.7l2.5 1-3 9.8a2755 2755 0 0 1-3.2 10.8c-.4 1-1.3-1-5.6-12.8l-2.9-7.8 2.5-1c1.3-.4 2.4-1.5 2.4-2.2 0-1-3-1.5-12.8-2-11.9-.7-12.8-.6-14.3 1.3-1.6 1.9-1.8 1.9-3 .2-1.1-1.4-2.4-1.7-5.9-1.2m-810 1.7c0 1 1 2.3 2.2 2.8 1.7.7 3.6 4.4 7.4 14 5 13 5 13 8.5 13.3l3.4.3 5-13.3c3.8-9.7 5.8-13.6 7.3-14.3 1.2-.5 2.2-1.8 2.2-2.8 0-1.6-.8-1.8-7.2-1.5-7.6.3-10 2-5.4 3.8l2.6 1-3.2 8.7a85.7 85.7 0 0 1-3.8 9.6c-.4.4-2.3-3.6-4.2-8.8l-3.6-9.6 2.5-1c4.7-1.7 2-3.4-6-3.7-6.9-.3-7.7 0-7.7 1.5m738 0c0 1 1 2.3 2.2 2.8 1.7.7 3.6 4.4 7.4 14 5 13 5 13 8.5 13.3l3.4.3 5-13.3c3.8-9.7 5.8-13.6 7.3-14.3 1.2-.5 2.2-1.8 2.2-2.8 0-1.6-.8-1.8-7.2-1.5-7.6.3-10 2-5.4 3.8l2.6 1-3.2 8.7a85.7 85.7 0 0 1-3.8 9.6c-.4.4-2.3-3.6-4.2-8.8l-3.6-9.6 2.5-1c4.7-1.7 2-3.4-6-3.7-6.9-.3-7.7 0-7.7 1.5m-690 3.6c-1.4.7-2.6 2.3-2.8 3.5-.3 2 0 2.2 5.8 2.2 7 0 9-2 5-5.2-2.6-2.1-4.6-2.2-8-.5m268 0c-1.4.7-2.6 2.3-2.8 3.5-.3 2 0 2.2 5.8 2.2 7 0 9-2 5-5.2-2.6-2.1-4.6-2.2-8-.5m212 0c-1.4.7-2.6 2.3-2.8 3.5-.3 2 0 2.2 5.8 2.2 7 0 9-2 5-5.2-2.6-2.1-4.6-2.2-8-.5m257 0c-1.4.7-2.6 2.3-2.8 3.5-.3 2 0 2.2 5.8 2.2 7 0 9-2 5-5.2-2.6-2.1-4.6-2.2-8-.5M512 804v11h3.8c9 0 13.7-11.7 7.6-19-2.2-2.5-3.3-3-7-3H512v11m212.7-10.3c-.4.3-.7 5.3-.7 11V815h3.6c2 0 4.4-.5 5.5-1 2.8-1.6 4.9-6.3 4.9-11.3 0-5.9-3.6-9.7-9-9.7-2 0-4 .3-4.3.7m116.9 1.5c-1 1.4-1.6 4.4-1.6 8.1 0 5.2.3 6.2 3 8.9 2.7 2.6 3.6 3 6.8 2.4 5.3-.8 6.4-2.8 6-11-.3-5.7-.8-7.2-2.7-8.7-3.3-2.7-9.5-2.5-11.5.3m-164.9 12.5c-2 .5-2.3 4.6-.3 6.2.8.7 3.2 1 5.3 1 3.6-.4 3.8-.6 4.1-4.1.3-3.8.3-3.8-3.5-3.7-2 0-4.6.3-5.5.6m228.4 6.8c-1 2.1-.9 2.8.8 4.5 2.5 2.5 3.5 2.5 6 0 2.4-2.4 2.5-3.4.4-5.4-2.4-2.4-5.9-2-7.2 1M198 884c-5.6.6-6.7 3.2-2 4.8l3 1.1V924l-2.5 1c-1.4.5-2.5 1.6-2.5 2.5 0 1.2 1.6 1.5 9 1.5 8.2 0 9-.2 9-2 0-1.3-.8-2-2.8-2.2-2.4-.3-2.7-.7-3-4.7l-.3-4.3 3.4.6c6.3 1.2 12.5-2.7 15.8-9.9a17.4 17.4 0 0 0-4.3-21c-3.7-3.1-10.8-3.5-13.6-.7-1.5 1.6-1.8 1.6-3.2.2-1.1-1.2-2.7-1.5-6-1m39.8 1c-4.7 2.5-7 6.8-7.5 14.5-.4 5.1-.2 6.5 1.9 9.5 1.3 1.9 4 4.5 5.8 5.8 3 2 4.3 2.3 8.7 1.8 7.1-.8 8-1.3 8.5-4.7.5-3.2.4-3.2-6.1-2-6.8 1.4-10.6-1-12.5-7.5-.6-2.1-.3-2.2 9.4-2.9l10-.7v-4.5c0-5.5-1.2-7.8-5-9.8-4-2-8.7-1.8-13.2.6M265 884c-3.6.4-4.5.9-4.5 2.5 0 1.2.9 2.1 2.5 2.5 2.4.6 2.5.8 2.8 11.2l.3 10.6-2.6.6c-1.6.4-2.5 1.3-2.5 2.6 0 1.8.7 2 9 2 8.1 0 9-.2 9-1.9 0-1.2-1-2.1-3.3-2.7l-3.2-1v-19.9l5.6-.3c5.4-.3 5.7-.4 6.1-3.3.6-3.7.3-3.9-4.9-3.9-3.2 0-4.6.5-5.5 2-1.2 2-1.4 2-2.8.2-1.2-1.4-2.5-1.6-6-1.2m25.3 2.3c-4 4.2-4.6 6.3-3.3 10.4l1.3 3.3 7.2 2.4c6.2 2 7 2.6 7.3 5 .4 3.5-1.5 4.1-9 2.7a30 30 0 0 0-6.3-1c-.2.3-.5 1.8-.7 3.4l-.3 3 7.3.9c8.6 1 11.3.2 14.2-4.6 4.3-7 2-11.5-8-15-4.9-1.8-6.5-2.8-6.5-4.2 0-3.2 2.8-4.1 8.7-3 5.7 1.3 6.8.8 6.8-3.2 0-2.4-3.1-3.4-11-3.4-4 0-5 .5-7.7 3.3m31.7-1.4c-4.8 2.5-7.1 7-7.7 14.4-.4 5.3-.2 6.7 1.9 9.6 3.7 5.5 7.3 7.6 12.8 7.6 8.4 0 13.8-6 14.7-16.3a14.7 14.7 0 0 0-21.7-15.4m30-.8c-3.6.4-4.5.9-4.5 2.5 0 1.2.9 2.1 2.5 2.5 2.4.6 2.5.8 2.8 11.2l.3 10.6-2.6.6c-1.6.4-2.5 1.3-2.5 2.7 0 1.8.5 2 8.2 1.7 6.5-.2 8.3-.6 8.6-1.8.1-1-1-2-2.8-2.7l-3-1.1v-10c0-10.8.2-11.2 6-11.2 5 0 7 3.9 7 13.5 0 8 0 8.3-2.5 9-1.6.3-2.5 1.2-2.5 2.5 0 1.8.7 2 8 2s8-.2 8-2c0-1.3-.9-2.2-2.5-2.6-2.4-.6-2.5-.8-2.5-10 0-10.2-1.2-14-5.2-16.8-3.2-2.2-9.4-2-11.7.3-1.8 1.8-2 1.8-3.3.2-1-1.3-2.3-1.6-5.8-1.1m51.8-.3c-1.7.4-3.3 4.7-2.3 6.2.3.5 2.2.5 4.2 0 9-2 12.3-.6 12.3 5.5 0 2.2-.5 2.6-4.8 3.1-11.5 1.7-11.6 1.7-12.3 6-.8 5 .1 7.6 3.8 10.4 2.3 1.9 3.5 2.1 7.3 1.6 2.5-.4 4.9-1.4 5.3-2.2.8-1.2 1-1.2 2 .2 1.8 2.3 10 1.7 10.5-.8.3-1.2-.6-2-2.7-2.8l-3.1-1.1v-10.3c0-9.7-.2-10.5-2.6-13.4-2.4-3-3-3-9.2-3-3.7 0-7.4.3-8.4.6m45.2.3c-3.6.4-4.5.9-4.5 2.5 0 1.2.9 2.1 2.5 2.5 2.4.6 2.5.8 2.8 11.2l.3 10.6-2.6.6c-1.6.4-2.5 1.3-2.5 2.7 0 1.8.5 2 8.2 1.7 6.5-.2 8.3-.6 8.6-1.8.1-1-1-2-2.8-2.7l-3-1.1v-10c0-10.8.2-11.2 6-11.2 5 0 7 3.9 7 13.5 0 8 0 8.3-2.5 9-1.6.3-2.5 1.2-2.5 2.5 0 1.8.7 2 8 2s8-.2 8-2c0-1.3-.9-2.2-2.5-2.6-2.4-.6-2.5-.8-2.5-10 0-10.2-1.2-14-5.2-16.8-3.2-2.2-9.4-2-11.7.3-1.8 1.8-2 1.8-3.3.2-1-1.3-2.3-1.6-5.8-1.1m37.8-.3c-1.7.4-3.3 4.7-2.3 6.2.3.5 2.2.5 4.2 0 9-2 12.3-.6 12.3 5.5 0 2.2-.5 2.6-4.8 3.1-11.5 1.7-11.6 1.7-12.3 6-.8 5 .1 7.6 3.8 10.4 2.3 1.9 3.5 2.1 7.3 1.6 2.5-.4 4.9-1.4 5.3-2.2.8-1.2 1-1.2 2 .2 1.8 2.3 10 1.7 10.5-.8.3-1.2-.6-2-2.7-2.8l-3.1-1.1v-10.3c0-9.7-.2-10.5-2.6-13.4-2.4-3-3-3-9.2-3-3.7 0-7.4.3-8.4.6m31.2.3c-3.6.4-4.5.9-4.5 2.5 0 1.2.9 2.1 2.5 2.5 2.4.6 2.5.8 2.8 11.2l.3 10.6-2.6.6c-1.6.4-2.5 1.3-2.5 2.7 0 1.8.5 2 8.2 1.7 6.5-.2 8.3-.6 8.6-1.8.1-1-1-2-2.8-2.7l-3-1.1v-10c0-10.8.2-11.2 6-11.2 4.7 0 6.5 3.1 6.8 12.5l.4 8.3-3 1.6c-2 1-3 2.1-2.6 3.1.5 1.2 2.4 1.5 8.5 1.5 7.2 0 7.9-.2 7.9-2 0-1.2-.9-2.2-2.4-2.6-2.4-.6-2.5-1-2.8-11-.3-11.4-.3-11.4 5.7-11.4 5.2 0 6.5 2.7 6.5 13.1 0 8.4 0 8.7-2.5 9.3-1.6.4-2.5 1.3-2.5 2.7 0 1.8.5 2 8.2 1.7 6.7-.2 8.3-.6 8.6-2 .2-1-.6-1.8-2.3-2.2-2.4-.6-2.5-1-2.5-8.4 0-10-1.3-14.5-5.2-17.7-2.8-2.4-3.9-2.7-8.6-2.3-3.7.3-5.7 1-6.4 2.2-.9 1.5-1.1 1.5-3.5-.4-3.4-2.6-9.6-2.7-12.2 0-1.8 1.7-2 1.7-3.3.1-1-1.3-2.3-1.6-5.8-1.1m59.8 1c-4.7 2.5-7 6.8-7.5 14.5-.4 5.1-.2 6.5 1.9 9.5 1.3 1.9 4 4.5 5.8 5.8 3 2 4.3 2.3 8.7 1.8 7.1-.8 8-1.3 8.5-4.7.5-3.2.4-3.2-6.1-2-6.8 1.4-10.6-1-12.5-7.5-.6-2.1-.3-2.2 9.4-2.9l10-.7v-4.5c0-5.5-1.2-7.8-5-9.8-4-2-8.7-1.8-13.2.6M240 889.3c-1.4.7-2.6 2.3-2.8 3.5-.3 2 0 2.2 5.8 2.2 7 0 9-2 5-5.2-2.6-2.1-4.6-2.2-8-.5m340 0c-1.4.7-2.6 2.3-2.8 3.5-.3 2 0 2.2 5.8 2.2 7 0 9-2 5-5.2-2.6-2.1-4.6-2.2-8-.5m-373.3.4c-.4.3-.7 5.3-.7 11V911h3.6c2 0 4.4-.5 5.5-1 2.8-1.6 4.9-6.3 4.9-11.3 0-5.9-3.6-9.7-9-9.7-2 0-4 .3-4.3.7m115.9 1.5c-1 1.4-1.6 4.4-1.6 8.1 0 5.2.3 6.2 3 8.9 2.7 2.6 3.6 3 6.8 2.4 5.3-.8 6.4-2.8 6-11-.3-5.7-.8-7.2-2.7-8.7-3.3-2.7-9.5-2.5-11.5.3m86.1 12.5c-2 .5-2.3 4.6-.3 6.2.8.7 3.2 1 5.3 1 3.6-.4 3.8-.6 4.1-4.1.3-3.8.3-3.8-3.5-3.7-2 0-4.6.3-5.6.6m83 0c-2 .5-2.3 4.3-.5 6.1 1.3 1.3 5.6 1.6 8.2.6 1-.4 1.6-1.8 1.6-4 0-3.3-.1-3.4-3.8-3.3-2 0-4.5.3-5.4.6m109.4 6.8c-1 2.1-.9 2.8.8 4.5 1.1 1.1 2.6 2 3.4 2 2 0 4.6-3.9 3.8-5.9-1.4-3.9-6.4-4.3-8-.6"/></svg>