<svg xmlns="http://www.w3.org/2000/svg" viewbox="0 0 713 446"><g fill-rule="nonzero"><path d="m158 1-2 2-4 1-6 2c-2 2-2 3-2 8 1 7-2 11-7 11l-7 3c-1 2-4 3-5 3l-2 1c-1 1-2 2-5 2-4 0-5 0-15 10-7 8-10 11-12 11-3 0-11 4-11 5l-2 1-3 1c-1 2-3 2-8 2-7 0-8 0-12 4l-4 6c0 2 3 5 5 5s2-3 0-3c-1-1 0-2 2-5 3-4 3-4 10-4s8 0 11-3l5-3 3-2 5-1c3 0 5-1 13-10 9-8 11-10 13-10l5-1 3-2 5-3 7-3c3-1 10-7 10-9l2-1c2 0 2-1-1-4-2-3-2-3 0-5l4-2 5-2h8c2 1 5 2 11 2 7 0 8 0 10 3l5 3 2 1c1 1 4 2 9 2 7 0 8 0 8-2 0-1-2-2-8-2-5 0-7-1-8-2l-2-1c-2 0-3-1-5-3-2-3-2-3-12-3-8 0-10 0-11-2-2-2-4-2-7-1ZM376 6l-1 1-9 5-3 1-3 2c0 2 5 1 6-1h2v2l-2 3-1 1c-1 0-2 5-1 8s2 2 3-2c0-3 1-3 3-2 1 0 2 0 3-2 0-2 1-3 3-3l2 1 2 1c1 0 2-1 0-3-1-1-1-1 2-1l4 1c1 0 2 0 1-1-1-4 0-6 3-6 5 0 4-3-2-4-10-2-12-2-12-1ZM396 11c-2 1-1 3 1 3l2 1h-3c-1 0-2 0-3 2 0 2-1 3-2 3v1h3c3 0 4 2 2 3l-2 3c0 2 4 4 5 2s2-1 3 1c1 3 3 2 4-1v-5h2c4 0 5 0 6-2 1-1 0-2-1-4-3-2-3-2-5-1-2 2-6 3-6 1l2-1c2-1 1-3-1-4l-3-2h-4ZM218 16c0 3 2 4 6 4 3 0 4 0 5 2h28c23 0 29 0 31-2l32-1a398 398 0 0 0 34-2c0-2-67-2-68 0s-5 2-28 2c-24 0-27 0-29-2s-11-3-11-1ZM417 24c0 2 1 2 5 2 4-1 4-1 4 1s1 2 2 2l4-1c4 0 2-2-2-3l-4-2-5-1c-3 0-4 0-4 2Z" /><path d="m181 26 2 1c2 0 2 0 1-1h-3ZM327 27c0 3 2 4 3 1 1-2 0-3-1-3l-2 2ZM191 29c-1 1 0 1 2 1l2-1-2-1-2 1ZM277 30c-4 4-3 5 4 4 5 0 7-2 3-4l-2-1c0-2-2-1-5 1ZM368 29c0 1 4 2 5 1v6c-2 6-4 8-7 9-4 2-5 4-2 6 1 1 2 0 8-6l7-9 5 1 3 3c-1 2 2 5 3 4l-1-3v-5c0-4-2-5-11-7h-10ZM408 29l1 3 1 2c-1 2 0 3 2 2 2 0 2 0 2 2l2 2c2 0 2-2 0-4l-2-4-2-3h-4ZM435 29c-1 1 1 3 4 3l3 3c0 5 4 6 6 2l3-2c2 0 2 0 1 2-2 2-1 3 3 2 4 0 6-3 4-4l-3-1c-2 0-3-1-3-2-1-2-4-1-6 1s-2 2-4 0l-2-3c-1-2-5-3-6-1ZM258 31c1 1 2 2 5 2s3 0 2-1l-4-3c-3 0-3 0-3 2ZM158 32c-4 5-13 14-15 14s-7 4-7 7c-1 2 0 8 1 8l2-2c0-2 3-3 5-4 5-2 5-2 7 0 1 2 1 3-3 4l-2 2-2 1c-2 0-3 2-1 2 2 1 0 3-2 3l-3 2c0 1-1 1-2-1-2-2-2-3-4-2-2 0-3 0-3-4l-1-4 3-1c2-1 1-1-2-2-4-2-8-3-9-1l-3 1-3 1-7 4c-6 2-6 3-1 4 3 1 4 1 8-2l5-3c2 0 2 0 1 2l-4 3c-2 1-2 2-2 5v10l-2 4c-1 2-3 3-4 1-1-1-2 0-2 2l-5 6c-4 1-4 2-5 5 0 3-4 6-6 5l-3 2c-1 2-3 2-3-1l-1-3-2-3c-1-4 2-5 5-2 4 3 6 1 4-3l-1-8c0-5 1-5 6-11l5-7c0-2-5-1-8 1l-7 6c-4 4-4 4-3 8 0 3 0 5-2 8l-6 5c-2 0-3 1-3 2l6 6c15 15 14 14 15 20l-1 6-7 3 1 3v4c-3 4-13 2-13-3 0-2-1-1-4 1-2 2-2 4 0 4l2 2c0 2 1 2 2 2 2-1 3 2 2 5v4l3 2c2 2 5 3 6 1l-1-2c-1-2-1-4 1-7 3-4 8-4 11-1s6 3 8 2c1-1 2 0 3 2l1 5c0 2 1 2 2 2 2-1 2 0 3 5 2 7 2 8 4 8s2-1 3-7c1-4 1-5 2-4 1 3 5 7 6 6h5l4 3c0 2 1 3 3 3l2 1c-1 2 1 3 4 3s4 1 2 2l-2 3-1 2v2c0 1 0 2-2 2l-4 4c-2 5-6 6-9 4l-4-2c-2-1-6-7-5-9l-1-1-1-3c1-4 0-8-1-8s-6 5-6 7l2 7 4 8c2 0 4 2 6 4 3 3 5 4 8 4 4 0 6 1 13 7l8 4c4 0 11-3 14-5 2-2 2-2 3 0v4c-1 2-1 2 1 2l3-2 5-11h-5c-2 2-24 5-27 3l-4-1c-2-1-2-1 1-7l3-8c2-4 11-8 14-5 2 1 4 0 5-5 0-2 0-3-2-4-3-2-4-4-1-4s15-9 18-12c2-4 2-4 7-4l12 2c4 1 6 2 7 1 0-1 2-1 4 1l14 2c7 0 10 0 11 2 3 2 3 5 0 5s-6 2-6 5c0 1 2 1 5-1 3-1 3-1 5 1s2 2 1 3l-2 3-5 10c-2 1 0 2 2 1 4-2 7-6 8-9s1-4-1-7c-1-3-2-5-1-6v-5c-2-3-1-5 3-5 2 0 3-1 5-4 3-7 0-12-12-26-7-7-8-9-8-12l-1-5c-2-2-2-3 0-4s3-1 2-4c0-4-2-5-4-4l-7 1h-6l-3-1c-3-3-6-3-8-2-1 2-4 2-14 2-11 0-13 0-17 2-6 3-8 6-7 10l1 6 2 5 3 4 2 5c2 3 4 12 4 14-1 1 0 2 1 3 3 2 3 5 1 8h-3l-1-3c0-3-3-3-6-1l-4 3v-2l1-5 2-4c2-3 1-5 0-3l-5 3c-3 1-3 1-3 4 0 5-2 5-6 1-2-2-3-3-2-5s1-5-1-5-3 3-3 5l-1 3c-3 4-1 9 3 10 8 2 14 3 17 1h4l-2 1-2 1-1 2-6 3c-3 2-6 3-11 3-5 1-6 1-8-2-2-2-2-2-4-1s-2 1-5-3l-4-6c0-3 0-3-3-3l-9-1c-4 0-5-1-6-4l-4-5c-3-1-8-9-8-11l2-3 2-3-2-4-2-4c0-2 6-9 8-9 3 0 4-3 4-8-1-5-1-5 2-8l4-3 2-2h6c0 1 1 2 3 2 3-1 4 0 4 2l1 4c2 2 9-4 9-6s1-2 4-2c3 1 3 1 3-1l-1-4c-2-1-1-10 1-11l4-2 4-5 3-5 1-4c0-3 0-3-2-2-2 2-4 2-4-1 0-2 5-5 6-5l1 3c0 1 1 2 3 2 4 0 5 1 6 4 0 3 3 4 3 2l2-1c3 0 3-4 0-6l-3-3c0-3 5-5 9-5 2 1 4 0 6-1 4-3 4-7 1-5h-15c-1 1-2 0-3-2-2-3-3-4-6-4l-4 2Zm-31 34c0 4 1 6 3 6l3 2h6l-2 3c-3 3-8 4-8 1l-3-1c-2 0-11-7-11-8s1-2 3-2l4-2c2-1 5-1 5 1Zm94 36 1 3-7 1c-1-1 2-7 3-7l3 3Zm-17 1 3 3c1-1 2 0 3 3l3 4 6 6 5 6c2 1 6 9 6 11s0 3 2 3 3 1 5 4l1 4-1-1-1-1-2 1 1 2c2 0 1 2-1 4-2 1-2 1-1-1 0-2 0-2-1-1l-7 1-7 1-5 1c-5 1-7 0-4-3 2-1 2-1 0-3-3-2-4-1-4 1s-2 4-4 3l-3-1c-2-1-2-1-1-2v-4l-1 1-4 2-4 2c-3 1-6 1-6-1l-2-2c-2 0-3-3-2-11l-1-8c-2-2-4-16-2-19 1-3 5-5 8-4h3l5-1 6-2c2-2 6-1 7 2Zm-50 70c-1 2-4 2-4 1l2-2 2 1Z" /><path d="m180 133 1 2 2-2-2-2-1 2ZM294 32c0 1 1 3 2 2h9l8-1c-1-2-18-3-19-1ZM355 33c-2 2-2 3 0 3s5-3 5-4c0-2-4-1-5 1ZM428 34c0 2-3 7-5 7l-2 1 6 3 4 2c1 2 3 4 5 4l3 3 2 2h4l2-1c2 2 3-1 2-4-1-5-1-5-4-5l-2 3v3l-1-2c0-3 0-4-7-10-3-2-3-3-3-4 2-2 0-4-2-4s-3 0-2 2ZM203 39c-2 3-2 3-1 4 3 0 8-2 8-4 0-3-4-2-7 0ZM461 40c-2 3-2 3 3 4h2v-2l5 2h3c2 0 3 0 4 2l3 3 7 3 5 3 2 1 3 2 12 6 5 3c1 0 7 2 11 5l5 1 3 1 3 2 3 2c2 2 6 1 6-2 0-2-11-9-11-8l-2 1c-2 0-2-1-1-2 0-1 0-2-2-3l-4-2h-4c-3 1-4 1-4-1s-6-5-9-5l-3-2-4-2-3-1-4-1c-2 0-3-1-3-2l-3-1-3-2c-1-3-11-5-12-3s-3 1-3-2c0-2-1-3-4-3-4 0-5 0-6 3ZM351 40c-1 1-2 2-3 1-2 0-2 0-1 2l1 4c1 3 2 3 4 2 1-1 1-1 2 1 1 3 1 4-2 8l-2 6h8l3-2c3-4 3-5-1-7-3-1-4-4-2-6 1-1 1-1-1-2l-2-3-2-4h-2ZM235 42h4l-3-1c-2 0-2 0-1 1ZM382 42c-1 2 0 3 1 2v-3l-1 1ZM403 43l-2 3c-2 1-3 2-2 3 3 3 8 0 7-4l-1-2c0-2-2-2-2 0ZM309 45l1 4v3c-1 2-4 2-6 0s-3-1-6 2-4 4 0 5l2 2c0 2 1 2 4 2 4-1 5-1 6-4s1-3 2-1l3 3 3 2c2 3 6-1 5-5h-2c-2 1-5-4-4-6 1-1 1-3-1-5-2-5-5-5-7-2ZM332 45c-2 1-2 3 0 3s2 0 2 2c-2 6-2 7 0 7 2 1 2 1 2 3v4c1 2 3 0 3-4l3-8c5-7 4-8-3-8l-7 1ZM208 47l-4 3c-4 3-5 3-10 2-4 0-5 0-6 2-1 1-1 2-4 1s-7 0-7 1l1 1c2 0 5 6 5 7-1 2 2 4 3 3v-7c-2-2 0-3 3-2 3 3 11 2 12-1s5-3 9 1c6 4 9 4 10 2v-5c2 0 8 5 9 9 1 2 1 2 1 0 0-5 1-5 6-4l7 3c3 1 12 3 23 3 7 1 8 1 9 3l4 4c4 2 4 2 5 0l2-4 2-4c0-2 0-2-5-2l-7 2c-1 1-2 1-8-2l-9-2-8-2-10-1-6-1-4-1c-4 0-8-1-11-4-5-5-11-8-12-5ZM268 47c-1 2 1 4 2 2 1-1 1-3-1-3l-1 1ZM411 48c0 2 1 2 2 2 2 0 3-1 3-2l-3-1-2 1ZM387 49c0 5 7 7 8 2 0-3 0-3-4-3l-4 1ZM423 51l-4 1c-3 0-4 1-1 2 2 1 6-1 6-3h-1ZM469 54c-1 3 2 5 6 3v-3c-2-4-5-4-6 0ZM407 54c-2 1-2 2 1 4 2 2 2 2 4 0 4-4 0-7-5-4ZM477 54l3 1 2-1-2-1-3 1ZM399 56c-1 0-1 2 1 2 1 0 3-2 1-2h-2ZM481 57c-2 3 0 4 5 4 5 1 6-1 1-4h-6ZM442 62l-2 2-1 1c-3 0-7 3-7 6s2 3 3 0c0-2 1-2 3-2l3-1c1-1 2-1 3 1 2 1 2 1 2-1l-2-8-2 2ZM379 65c-4 3-5 6-3 6 3 0 8-4 8-6 0-3-2-3-5 0ZM341 66l-2 2c1 1 6-1 6-3s-2-1-4 1ZM464 65l2 1 2-1-2-1-2 1ZM175 66l-6 1c-4 1-6 2-9 5l-5 6 3 3c4 3 5 5 5 9l-3 2c-4 0-5 5-2 7 2 1 3 1 4-3l3-5c2-2 2-2 1-3-2-2-2-7 0-10l3-5c0-2 1-3 3-3l3 1c1 2 4 4 7 4l-2-5c-3-5-4-6-5-4ZM493 69c-1 3-1 4 2 4l7 3c5 6 6 5 4-2-2-4-4-5-9-7-2 0-3 0-4 2ZM426 71l-1 2c0 3 4 2 4-1 0-2-2-3-3-1ZM298 72l-4 7c-3 3-4 5-4 9 0 5 0 5 4 6 4 0 6-1 6-4 0-5 4-7 8-4 1 2 3 2 6 1l8 1 12 2h6v-3c0-3-1-4-3-4l-4 1h-3v-2l2-4v-3l-4 2c-2 1-4 2-5 1h-4c-3 1-7 0-8-3l-5-1c-4 1-5 0-6-1l-2-1ZM514 74c0 2 1 3 2 3 2 0 3-3 1-5s-3-1-3 2ZM228 75l-4 2c-4 0-8 2-6 4l6 3 5 2 3-3 3-3-6-6-1 1ZM40 79l-7 8-6 8-1 2c-2 1-2 9 0 13l1 7c0 4 3 10 4 10l2-3c0-2 2-4 4-6 3-2 4-3 4-5 0-3 4-6 9-7 3-1 5-3 4-5l-4-1c-7 2-12-6-7-9l1-2c-2-3-10 1-10 5-1 3-4 3-4-1l2-2c1 0 4-2 6-5 4-4 6-6 8-6 4-1 3-3-1-4-3 0-4 0-5 3Zm0 23c0 5-1 6-3 6-1 1-2 0-2-1-2-6 0-11 3-11 1 0 2 2 2 6ZM282 78v4c2 2 4 0 2-4v-2l-2 2ZM470 78l2 1 1-1-1-1-2 1Z" /><path d="M549 78c0 2 4 5 6 5 3 0 7 4 6 6 0 2 7 5 10 5l2 1 3 3 5 3 5 3 2 1-3 1c-2 0-2 3 0 4l4 3c0 2 2 3 3 3l3 1c1 1 2 1 2-1l-1-1-1-2 1-1 1 1 1 2 2 2c0 3 4 7 6 7 2-1 2 0-1 3l-3 3-3-2-3-2-3 2-5 3h-6c-2 4-15 0-15-4l2-3 2-2-2-3c-6-5-11-8-11-5l2 1 1 2c0 3-1 4-4 1l-6-3c-3 0-6-2-9-4-3-3-4-3-8-3-3 1-4 1-6-1l-5-2-6-4c-2-3-3-3-4-2-1 2-4 2-3 0l-2-1c-2 0-3-1-4-3s-1-2-3-1c-3 0-4-2-2-4 1-1 1-1-2-1l-5-2h-2c-1 1-2 2-3 1v-4l1-3c0-2 0-3-3-1v2c1 2-3 4-6 3-3 0-4 0-5 3-2 3-11 8-14 8-4-1-5-5-4-9 1-2 1-2-1-2l-2-1c-2-1-8 1-10 3-2 1-2 2 2 4l4 3 1 2c0 2 2 4 5 4l4 1 3 2 3 1 5 1c3 0 4-1 4-2 0-2 3-3 7-2l7 1 6 3 5 1 6 1 5 2 8 3c15 7 25 10 30 10l4 1 3 2c2 0 3 1 3 2l4 5 3 4c0 2-10 2-17 0l-27-1h-23c0-1-22 0-28 2-3 0-4 1-2 2h14l14-1 2 3 2 2 6-2c9-2 9-2 14-1h15l5 1c3 1 4 1 6-1h2c1 1 5 2 16 2l17 1h7l6-3c1-1 6-2 6 0l4 3c4 2 6 2 23 2 18 0 20 0 21 2l1 4c-1 1 0 3 1 4l4 12 2 6 2 5c1 2 1 2 4 1l4-1v-3l-2-4-3-4c-1-1-2-2-1-3 0-2 0-3-2-4-3-2-4-6-2-6v-3l-2-8c0-4-1-6-2-6l-3 2c0 2-1 3-2 3-1 1-6-4-6-6s-6-13-8-13l-2-1c-2-1-5-2-6-1 0 2 1 3 6 5s5 3 5 6 0 4-2 5-3 1-4-1l-2-1-7 4c-1 3-7 2-9 0s-2-2 0-6l3-3c2 0 2-2 0-4l-3-4-3-3-3-2-3-2c-3-1-3-1-2-5 0-3-1-4-3-1-2 2-4 1-4-2 0-2-1-4-4-5-3-2-3-4-3-5 0-2 0-2-2-2l-3-2-3-1-3-1c-1-3-7-5-10-5-2 1-3 1-2-1 0-2-1-3-3-3l-3-2-3-1-4-1-1-1-1 1ZM265 80l-11 1c-11 0-10 0-12 2-4 4 1 8 6 5 3-2 6-3 8-1l6 3c4 0 4 0 3-2s-1-2 1-4l2-2 2 2 3 3 2 1c0 1-1 2-3 2-3 0-4 2-2 3l3 5c3 6 4 7 7 6 2-1 2-2 2-8-1-8-2-9-4-9l-4-4c-2-4-4-5-9-3ZM371 81l-5 4-3 3-4-4-5-3-4 4-5 5-3 1 2 3 4 3c3 1 11-1 12-3l3-1 7-2 6-3c2-1 3-7 1-7h-6ZM184 82c-2 1-3 3-1 3h7c5 1 7 1 8 3l2 2 3-2c5-3 6-4 9-2 2 2 4 2 4 1l-4-3c-3-2-5-2-13-2h-15ZM384 83c-1 1 0 2 2 1l1-1h-3ZM423 85l-3 3c-3 0-3 2-1 3l6-1c4-3 3-2 2-6-2-3-4-3-4 1Z" /><path d="m520 83 2 1c2 0 0-2-2-2v1ZM62 86c-3 1-4 2-1 4 2 2 2 3-2 5-2 3-2 3-1 4 3 2 5 1 5-1l2-4v-6c2-2 0-3-3-2ZM74 86l-3 2-2 1c0 3 4 2 5 0l3-2 1-1c-1-2-4-1-4 0ZM506 86c-2 1 0 2 2 1v-1h-2ZM524 89c1 2 3 4 8 6l8 4 3 1c1 2 2 2 3 1h12c5-3 7-4 5-6s-2-2-7-1h-11c-2 1-4 0-6-1l-6-2-5-1-2-2c-2-1-2-1-2 1ZM229 89c-1 1 3 6 5 6s5-4 5-5h-3l-5-1h-2ZM144 94l2 3c3 2 4 1 4-2s-4-4-6-1ZM593 98c-3 1-2 2 3 2l10 3 11 5c3 0 6 2 7 3l7 2c5 0 12 3 14 5l8 6c2 0 1-5-1-7s-2-2-1-3 3-1 3 1c0 1 1 2 3 2l5 3c4 2 4 2 4 0s2-1 5 1c4 2 5 3 7 2 3-1 6 1 7 5l2 4 4 5 5 6c4 4 4 8 1 12s-3 4-1 6c2 1 3 8 3 24 1 4 1 5 3 5 3 2 3 6 0 11-2 4-3 12 0 12l1 1-5 10-1 4c0 5-3 13-4 11l-2-1c-2 0-3 2-6 8l-4 9c0 2-1 3-4 4-6 2-11 7-11 11-1 5 1 5 5 1l4-3 3-2 4-2 4-1 3-2c2 0 2-2 0-2-3-1-1-3 1-3h3c1-1 2-2 3-1 2 0 2 0 2-2s1-3 7-10l2-3 2-6 2-5 1-1a201 201 0 0 0 0-41l1-12-1-8c-1 0-2 1-1 3 1 5 0 8-2 6s-2-8 0-10v-5l-2-6v-4c2-2 2-3 0-5l-2-4c-1-4-4-8-6-11-8-7-11-10-13-10l-2-2-3-1c-2 0-3-1-3-2l-5-1-6-2-5-1-4-2-6-1-4-2-5-1-5 1c-1 1-3 0-5-1-2-2-4-3-7-3l-5-1-7-1c-6 0-7 0-8-2s-2-2-6-2l-7 1Zm35 10h-3l2-1c2 0 2 0 1 1Zm19 2c1 0 2 4 0 4s-5-3-4-4h4Zm64 111-1 4c-1 2-1 1-1-2l1-4 1 2ZM307 99c-4 2-4 5 1 6l6 4c3 2 4 3 6 2l7-1 6-2c1-3 8-5 10-5h1c0-3-3-3-10-2-4 0-6 1-7 2h-6c-2 0-3 0-5-2-3-3-4-3-9-2ZM564 99l4 4c3 2 8 3 7 1l-2-1-4-3c-3-2-5-3-5-1ZM114 108c-3 4-4 6-1 8s4 2 4-1l3-4c3-3 2-6-1-6l-5 3ZM279 107c1 2 5 2 5 1 0-2-1-2-2-2l-3 1ZM64 110l-7 2c-5 0-9 1-8 3l3 1c2 0 3 1 5 3l3 3c3-1 5 0 6 2l2 2v-10l-1-4c1-3-1-3-3-2ZM69 112c0 2 1 3 2 3 2 0 3-2 1-4s-3-1-3 1ZM418 115l1 1 1-2-1-2-1 3ZM275 115l-1 2c0 2-4 6-5 5l-1 2-2 3c-1 2-1 2 1 3 2 0 2 1 2 3-1 2 0 2 1 3 2 0 2 1 2 6 1 4 0 6-2 11l-3 6h-6l-6 2h-3c-2 0-4 2-2 5 1 1 2 2 1 3 0 3 3 8 6 9 4 0 4 2 1 3l-4 3-6 2-4 1-4 4-9 8-1 3-3 5-4 5c-2 0-3 1-3 3-1 4 0 5 2 3l3-2 3-2 3-3c3-1 3-1 3-6 0-4 0-5 2-7 3-2 5-1 5 2 0 1 0 2-2 3l-2 2c0 4 1 5 5 6l3-1-2-2-2-1c-1-1 4-7 7-9s3-4 0-5-2-2 1-2l3 1c0 2 1 2 3 2 2-1 3 0 3 4l1 6h-4c-5 1-6 2-4 5l2 3c1 1 1 1-1 3-2 3-2 5 0 5 4 0 6-3 6-7l1-5 1-3 1-3 1-3-1-3c-2-1-1-2 2-3 2 0 2-1 2-3v-4l1-6c-1-3 0-4 1-4 2 0 2-1 3-3l4-7 4-6c-2-6-2-6 0-6 3-1 3-3 2-8v-5c3-1 3-3 0-6-2-2-2-3 0-6 3-3 3-8 0-12-2-3-4-4-5-2Zm-4 47-1 3h-5c0-2 3-5 5-5l1 2Z" /><path d="M618 116h2l-1-1-1 1ZM18 118l-1 4c-2 2-2 14 0 17v8c2 2 2 2 1 6l-1 7-4 19c-3 12-3 12 0 13s3 5 0 8-3 3-3 14c0 13 1 14 6 20 3 3 3 3 0 6-4 3-4 8 0 13 3 4 3 7 1 9s-2 17-1 18c2 1 5 11 5 17 0 3 1 5 3 7 2 3 2 4 1 6s3 9 5 9l1 6c-1 5-1 6 3 9l3 5h2l2-1c2 0 1 4 0 7-1 2-1 3 1 6l4 4 1 2-1 6c0 3 1 5 3 7 3 4 4 6 1 10-1 1 4 5 6 5 2-1 3 0 5 1l4 2c1 0 5 4 5 6l3 3 3 1c0 2 11 7 18 9l6 3 4 1c3 0 4 0 5 2 0 2 6 4 11 4l6 1 7 2c6 1 12 3 12 5l9 1 12 1 7 1 6 2 3 2 5 7c1 3 1 3 4 3 2-1 3 0 5 1l3 2 3 1 13-1 14-1a309 309 0 0 0 41-5c2 1 5 0 25-2l21-4a333 333 0 0 0 43-7l11-2 6-1 4-1c4 0 23-2 29-4l3-3c1-3 1-3 5-3 2 0 3 0 3 2v2l7-1a330 330 0 0 1 38-6l8-2 12-2c10-1 25-4 29-6l9-1 9-2 20-3c6-1 6-1 6-3l2-2h12l6 1c5 0 6 0 8-2 4-4 6-7 6-9l4-1 4-2h4c2 0 3 0 4-3l4-3 4-3 4-3 7-5c5-4 5-4 5-8-1-3 0-4 1-4l1-3c-1-2-1-2 1-3l2-2 2-3 2-5 2-3 1-8c-1-6-1-7 1-7 1 0 2 0 1-2l2-3c4-2 5-4 5-10-1-5-1-6 1-6 1-1 2-1 1-3 0-2 1-3 3-4l3-4 2-2c2 0 2-3 0-3l-4 3-4 3c-1 0-3-9-2-10 2-3 3-8 2-9-2-2-4-1-4 0l-1 3-2 2-2 1c-2 0-3 1-2 3 2 1 2 17 1 18-2 2-5 13-4 14s-2 4-3 4l-2-1-1-3-1 3c0 2 1 3 2 3 3 1 4 4 2 7l-4 6c-2 5-4 6-5 2l2-4c3-2 3-3 1-3s-7 6-7 8l-2 3c-2 1-2 2-1 2l3-1c2-2 3 0 3 4 0 2 0 3-2 4-2 0-2 1-1 3l-1 3-3-2h-2v3c3 1 0 7-3 7v-1c2-2 3-5 1-5l-7 6-7 6-3 4c-1 4-2 5-3 5l-3 2h-3c-4-2-4-1-6 2-1 3-3 4-3 2s-2-1-2 1-1 2-7 3l-8 1-10 3-3 1-1 1-2 1-1 1c-2 0-2-1-1-3 1-1 1-1-2-1l-3 1-7 3c-7-2-8-2-10 0 0 1-2 2-3 1l-3 1-4 2-4 1c-1 2-4 2-4 0h-6c-2 0-3 0-4 2-2 2-5 3-5 1l-1-1-2 1-4 1c-2-1-4 0-6 1-3 2-4 2-5 0-1-1-1-1-3 1s-3 2-6 1l-7 1c-1 2-3 2-5 1-2 0-4 0-6 2-3 2-4 2-6 1h-3c-1 1-7 2-10 1h-4l-4 1-3 1-6 1-8 2-7 2c-2 3-5 2-4-1 0-1 0-2-3-2s-4 1-4 2c1 3-2 4-7 4-3-1-5 0-7 1l-5 1h-11c-1 2-3 2-6 2l-7 1h-4l-3 1-5 1-5 2h-4l-6 1h-3l-4 1-4 1-4 1h-6l-4 1-8 1-9 1-6 1h-3c-2-2-5-1-8 1l-6 2h-5l-3-1 2-2 1-2c0-1 2-4 5-6 3-4 4-4 6-3 1 1 1 1 1-1 0-4 3-7 6-6 3 0 5-2 3-3h-2c-2 3-3 2-3-1 1-3 0-4-2-4-3 0-8 4-8 6 1 1 0 2-1 2l-2 4c0 2-1 3-4 4l-5 5-3 3-11 5-4 2c-2 1-4 2-5 1h-2c-2 2-5 2-7 0h-3c-2 3-7 2-13-2s-8-9-8-14v-18c1-8 0-14-5-17-3-2-5-2-3 0 1 1 0 3-1 6-2 3-2 5-1 6 2 3 1 4-2 7-2 1-3 4-4 6l-2 4-3 2-8 1-6 1c-2 2-5 1-7-2-3-3-10-6-12-5l-4-2c-2-2-3-3-7-3l-4-1h-4l-4-1-3-1-6-2c-2-1-4-2-6-1-2 0-3 0-5-4s-4-5-6-6l-7-4-6-4-2-1-2-4c-3-2-2-5 1-6 4-1 4-2 1-6-2-4-3-4-5-1s-4 2-7 0c-3-3-3-3-1-8 1-4 1-5-1-7l-2-6c0-4-1-5-3-9-2-2-5-5-5-7l-3-4-2-3-2-4c-2-4-5-19-6-29-1-6-4-13-7-14-4-1-3-5 2-5l3-1 2-2 2-1-2-2c-2 0-3-1-3-3l-2-4-1-6-1-6c-2-2-2-2 0-5 1-4 3-4 4-1 0 2 1 2 1 1 1-1 1-2-1-4l-2-6c-1-3-1-4 1-4s2-2 1-5-1-3-3-3c-3 1-3 0-3-2 0-3 0-3 2-3 3 1 3 0 4-10 0-14 1-16 4-20 4-4 4-4 2-11-2-5-3-6-4-4s-3 1-3-1l2-4c1 0 3-3 3-5 1-2 2-3 5-4 2-1 3-1 2-3v-7c-1-5-1-5-6-6l-6-1-2-2-2-2c-2-1-2-5 0-8 2-2 2-6 0-6l-2 2Zm-4 100-1 2-1-2 1-2 1 2Zm599 137 1 2h-5c-1-3 1-4 4-2Zm-82 30-1 2c-2 0-3-1-2-2 1-2 3-1 3 0ZM577 119l1 2v-3c-1-1-1-1-1 1ZM138 119l-8 3-7 1c-3 2-3 2-3 5 1 6 1 7 4 3l2-4 2-2c2 0 2 0 0 3l-1 3c1 1 11-1 13-2 4-2 2-11-1-11l-1 1ZM581 120v4l4-4h-4ZM667 125c0 2 3 7 5 7s5-3 4-3l-4-3c-3-2-5-3-5-1Z" /><path d="m73 127 3 3c2 2 3 2 5 1s3-3 1-5l-3 1h-6ZM660 131l3 5 3 3 1-2v-3l-4-2c-2-2-3-2-3-1ZM439 133l-2 4c-2 1-9 1-11-1h-3l-5-2c-2-2-3-2-5-1-1 1-1 1 1 2l4 3c7 9 7 9 9 7l2-4c0-2 2-3 3-1 2 1 10 1 13-1 6-3 6-5 0-5-3 1-4 0-4-1l-1-2-1 2ZM675 134c0 2 5 6 6 6 1-1-2-6-4-7l-2 1ZM262 135c-1 1-1 3 1 3l1-1c0-2-1-3-2-2ZM49 137v5l2-2c2-2 0-5-2-3ZM297 137c-1 1-1 1 1 3 1 3 2 7 0 8l-1 5 9-5c1-2 3-2 11-2 11 0 12-2 3-4l-13-4c-8-2-8-2-10-1ZM452 137l1 1c1 1 4 0 4-1h-5ZM138 139c-2 1-1 3 1 3l2-1c0-2-2-3-3-2ZM339 139l-3 2 3-1c4 0 5-1 3-1h-3ZM399 138l1 3c1 2 2 3 3 2 3-1 3-2 0-3l-4-2ZM126 143l-2 4c1 1 6-1 6-3 0-1 1-2 3-2 3-1 3-2-1-2l-6 3ZM667 142v9c2 4 12 9 12 6l-1-3-2-4c-1-3-6-9-7-9l-2 1ZM344 143c0 2 2 4 5 4l3 2-4 3-2 9-1 11c-1 2-1 2-3 0l-4-3c-2-2-3-3-3-6l1-5c2-4-2-11-5-9-1 0-1 6 1 8v3l-2 6v4l4 2c5 1 5 1 5 5 0 3 0 4 2 4l4-1c3-2 4 0 5 5l1 5c2 1 4 0 4-2l2-3c4-2 1-6-3-5-3 0-5-3-4-5v-3c-1-1 0-2 2-3 3-2 3-2 3-8v-9l-2-4-2-4c-2-2-7-3-7-1ZM360 143l2 1 2-1-2-1-2 1ZM408 143v2l-1 3c-1 2 0 5 3 8l1 4c-1 3-1 3 1 3s3 2 1 3-2 6 0 6l3-3 2-4 2-3c2-3 2-4 0-7-1-1-3-4-5-4-2-2-3-2-2-5 0-2 0-3-2-3h-3ZM682 145c0 1 1 4 3 5l2 5 2 6 1-2 3-4c3-3 3-4-1-4-2-1-2-1-2-5v-4h-4c-3 0-4 1-4 3ZM63 147l-1 5c2 3 2 3 5 0 3-2 3-4 3-6-1-3-4-3-7 1Z" /><path d="M430 149c-1 3-1 5 1 7l2 2v-3l-1-6-2-4v4ZM285 149l-1 2-2 1 1 2 5-6c-1-2-3-1-3 1ZM451 150l-4 4-1 4v1l2-2 5-4c3-1 4-2 4-4 1-3-1-3-6 1ZM469 148c0 1 3 2 4 1v-1h-4ZM492 148v2h2c2-1 0-3-2-2ZM532 150l-2 2 1 4c0 2 1 3 3 4 3 1 3 1 4-2s0-8-2-9l-4 1ZM10 152l-2 2-4 4-4 3v8c1 8 1 8 3 9l3 2c3 2 3-1 0-4-2-2-2-3-2-8s1-7 3-9l2-3c0-1 1-2 3-2l2-2c0-2-4-1-4 0ZM96 153c-3 3-3 3-2 5l2 4c0 3-2 4-4 2-1-3-7-2-7 1h8v3l-1 4-2 1c-2 0-3 2-3 7 0 3-1 4-2 1v-6c1-6-1-8-4-6-2 1-3 2-3 5l-1 6 2 4c3 2 2 4-1 3-4 0-6 4-5 7 1 4 1 4-1 4-3 1-5 10-4 17l1 9c0 3 0 4 2 5 4 1 2 5-2 5-2-1-2 0-3 4l2 12a158 158 0 0 1 5 21l2 5c0 4 6 14 9 17 1 0 2 2 1 5 0 5 0 5 5 9 8 8 11 10 14 10l7 3 10 1c7 0 8 0 10-2l3-3c2 0 1-3 0-4-3-1-1-2 4-2 6 0 8 2 4 4-3 1-7 4-7 6 0 3 4 3 9 0l6-2c2 1 5 0 8-2 5-2 6-2 5-4 0-2-1-2-5-2l-5 2h-5l7-5 4-2c2-2 2-2 4-1l2 2h3l3-4 3-3c0-2-4-1-5 1s-2 2-4 1c-4 0-11 2-13 4-1 2-2 2-5 1h-5l-7 1c-5 0-5 1-5 3s-4 4-7 3h-3c-1 1-3 0-8-2l-8-4-2-2-2-1c-2 0-8-5-8-8 0-1 2-2 5-2s3-1 0-5c-3-2-3-2-4-1-2 2-2 2-4 0-3-3-4-5-2-5l2 2c2 2 4 3 4 0l2-2c2-1 1-7-1-6h-2c-2 1-2-4 1-12 5-11 5-11 2-12l-3-3c0-2-1-3-2-3-2 0-2 1-2 5l-1 6c-2 0-2 2 0 2l2 4c0 4 0 5-2 6-3 3-4 6-1 7 1 1 2 4 0 4-3 2-6-4-5-10 0-4-2-10-6-16-2-4-3-5-2-8l-1-3c-2-1-2-3 1-6 2-2 5-3 4 0-1 1 1 8 4 13l2 4v-8l-2-10v-11l-1-3v-9c-2-6-2-11 0-11l2-2c0-2 0-3 2-1l1 2 4-15c2-5 2-6 5-6 4-1 4-1 4-6l2-12c2-13 1-14-4-10Zm-18 75-3 2 2-3 1 1Zm15 54h-2v-2h1l1 2ZM385 152l3 1h4l-2-1-3-1-2 1ZM464 152l1 2c1 1 3-1 2-2-1-2-3-1-3 0ZM516 152l2 1 2-1-2-1-2 1ZM314 155c-2 2-2 5 1 6 1 1 2 0 2-2l3-3 1-2c0-3-5-3-7 1ZM324 153c-1 2 1 7 2 8 1 0 2-2 1-6 0-3-2-4-3-2ZM550 154c1 2 1 3 3 3 3 1 3 2 0 3-4 1-7 4-7 6l3 3c2 2 2 2 3 0v-3c-1-3 2-4 3-2s8 1 8 0c0-2-1-4-4-4l-3-3-2-2-3-2c-1-1-1-1-1 1ZM379 155l2 2c2 1 2 1 2-1l-2-1h-2Z" /><path d="M306 159c-2 4-2 5 0 7l6 11 3 3c2 0 2 0 2 5-1 6 1 8 7 7 3 0 4 0 6 2s3 2 4 0v-4l-1-2v-2c-1-1-2 0-2 2-2 3-4 4-4 2l-2-4-2-3s-1-2-3-2c-2-2-2-2 0-2l3 2h4l3-3c0-2-7-4-11-3-3 0-3 0-5-3 0-2-2-3-3-4-2 0-2-1-2-6 1-6 0-7-3-3ZM370 158v5c1 1 4-2 4-4s-2-3-4-1ZM460 158c-1 1 1 2 2 1l-1-2-1 1ZM60 159c-1 1-1 6 1 7 2 0 2-1 2-5-1-3-2-4-3-2ZM591 160l-3 1c-2-1-4 0-4 3s4 2 7 0c2-2 3-6 1-6l-1 2ZM676 160c-2 0-4 3-2 4 1 1 2 1 3-1 3-2 2-4-1-3ZM397 161v2c1 1 1 1 1-1s0-3-1-1ZM481 162c0 2 1 3 3 3l2 3c0 3 2 5 6 5l6 3-2 2c-3 1-4 4-1 4 2 0 2 0 0 1l-7 1c-4 0-10 2-16 7-3 3-4 3-8 3h-5l-4 2c-3-1-3 0-5 4-2 6-4 7-7 3-3-2-3-3-1-4 2-2 1-2-2-2-4 0-5 4-2 5l1 5 1 8v6l1 5 2 3 2-3 3-3c3 0 8-3 8-5 0-1-4-2-5 0h-7v-5l-1-3-1-1 2-1 1 1h6l5-1c5 1 6 0 3-5l-3-3 5-1 6-2 3-1c4 0 9-3 12-6l5-3c4-1 3 4-2 9l-5 6c0 2 2 8 4 9 3 4 4 2 4-5 1-6 1-7 3-7 1 0 2 1 2 3l4 3c2 0 4 2 5 3l4 3c3 0 3-1 1-3-1-1-2-2-1-3l-1-2c-3 0-3-2-2-6s0-4-2-1c-2 2-2 2-1 3v2c-3 0-6-2-6-4l-2-2c-2-1-2-1 1-2l5-2-3-1c-1 1-2 0-2-1-1-2 0-3 2-2s2 0 3-2l2-2 1-2v-4c2-1 1-3-3-5-2 0-4-2-4-3l-1-1-1 1c0 2-2 3-2 3v-3c1-2 1-2-1-3-1-1-2-2-1-3 0-1 0-2-2-1l-3-1-1-1-1 2ZM181 166c-3 3-4 6-1 6l3-3 2-3 1-2c0-2-1-1-5 2ZM504 164c-1 1 0 2 2 2l1-2c0-1-2-2-3 0ZM574 164c-2 0-2 1 0 2 1 1 4 1 4-2h-4ZM625 163c-1 1 0 6 1 6l2-5-3-1ZM215 167v3l2 2v2l2 4c0 2 1 3 2 3 2 0 3-1 2-3l-1-6c0-3-3-8-5-8l-2 3ZM391 165l-2 3-2 3 3-1 3-2c3 0 3-3 1-3h-3Z" /><path d="M467 166c-2 2-2 2 0 3 2 0 4 2 5 3 3 3 4 4 6 1 3-3 3-3 0-4-2-1-3-2-2-3 0-2 0-2-2-1h-3c-2-1-2-1-4 1ZM432 167c0 2 2 4 3 2 2-1 1-4-1-4l-2 2ZM672 168c-1 3-1 4 1 4l1-3c0-4 0-4-2-1ZM378 169l2 2 2-2-2-2c-1 0-2 0-2 2ZM512 168c-2 3-1 4 1 3l2-3h-3ZM595 170c-1 1-2 3-4 3-3 0-5 2-5 3h5l3-1c3 0 4-2 2-5v-2l-1 2ZM631 170c0 2 1 2 3 1 1 0 1-1-1-2s-2-1-2 1ZM66 171v2h1l1-2-1-2c-2 0-2 0-1 2ZM463 170l-1 2-3 4-4 4c-1 2-1 2-4 1-3-2-3-2-3 0 0 1 1 2 3 2 2 1 2 1 2 4l-3 3v3c1 1 2 1 3-1l2-3 1-3c-1-1 2-2 4 0l3-1c3-2 3-4 0-4l-2-1c0-2 4-5 6-6v-2l-2-2h-2ZM523 170v2l-1 3c-1 2-1 3 1 3 1-1 2-2 2-5 0-4-1-5-2-3ZM613 170c1 2 5 3 5 1l-4-2-1 1ZM367 173l3 4 2-1 3-2 1-1-4-2-7-1 2 3ZM531 171c-1 3 0 4 3 4s3-1 0-3c-2-2-3-2-3-1ZM443 172c-5 0-6 2-3 4 2 1 3 1 5-2l2-3-4 1ZM603 174c1 3 4 4 4 1 0-2-2-4-3-4l-1 3ZM559 173l1 2 1-2-1-1-1 1ZM422 176l-2 4c0 2-3 1-4-2-2-3-3-3-6 0l-2 2h2l4 3c1 2 2 2 4 2 1 0 2 0 3 2 2 4 7 9 10 9 2 0 5-2 5-4s3-2 5-1c2 2 2 2 4 0 2-3 1-5-5-4-6 0-11-3-11-8 0-7-4-8-7-3Zm7 8-3 3c-2 1-4-1-1-3 2-2 4-1 4 0ZM195 176c0 2 5 4 6 2 2-2 0-4-3-4-2 0-3 0-3 2ZM541 175c-1 1-1 2 1 2l1-1c0-1-1-2-2-1ZM570 176l1 1c1 1 1 0 1-1s-1-2-2 0ZM641 178l2 2c2 0 2-2 0-2h-2ZM376 180c-2 1-2 4 0 4l3 2c2 2 2 2 1 5-2 2-3 9-2 13l3 2c2 0 2-1 2-2l-1-6c0-3 0-4 2-5 5-1 5-1 2-2-3-2-3-6 1-7 5-1 4-3-1-3l-5-1h-5ZM661 186l1 7v3c-2 2-2 8 0 8l2-3c0-3 1-3 2-2 2 0 2 0 2-2v-9h-1c-2 4-4 2-4-2l-1-5-1 5ZM668 182l2 2h1l-1-2h-2ZM525 184c-1 1-1 8 1 9 1 1 1 1 1-1l2-4v-4h-4ZM531 184c0 1 1 2 3 2s2 0 1-1l-2-1-1-1-1 1ZM543 185c-1 2 0 4 2 4l1-2c0-4-1-5-3-2ZM580 185c-1 1 1 2 2 1l-1-2-1 1ZM637 185v1c2 1 3 0 1-1h-1ZM561 187c0 2 2 3 3 0l-1-2-2 2ZM408 189c0 2-1 3-3 4l-3 2h3c3 0 4-1 5-2 2-3 4-3 5 0 0 2 0 2 1 1l-1-3-1-2-3-2c-2 0-3 0-3 2ZM503 188c-2 0-1 2 1 2l2-1c0-1-1-2-3-1ZM517 188v2h2l-1-2h-1ZM620 188c0 2 1 2 2 2 2 0 3-1 3-2l-3-1-2 1ZM681 189l1 3 1 1c2 0 1-5-1-6l-1 2ZM183 191l-4 1c-3 0-3 1-2 4 1 2 1 2 5-1 4-2 5-4 2-5l-1 1ZM649 191c-1 0 0 3 1 2l1-2c0-1-1-2-2 0ZM106 193l-2 5c-2 4-2 12-1 16l2 7a194 194 0 0 0 4 18l2 2c2 0 6 4 6 6l2 3v2h-2c-1-1-2 0-4 1l-4 1-5 8-3 4c-2 3-2 6 1 6l3-4c2-4 2-5 9-8 8-4 8-4 10-3 1 1 3 2 5 1 2 0 4 0 7 2 4 2 6 2 11-3 3-3 4-3 5-2 3 2 4 1 4-2l1-3c2-1 3-5 2-6l-4 3-4 4c-2 0-2-4-1-6l9-4c1 2 4-1 3-3 0-2 0-2 2-2s3 1 1 2c-1 1 0 3 2 3l1-2 2-1c2 0 2 2-1 5-2 2-3 3-5 2-1 0-2 0-2 2l-1 2-2 3c0 2 8 5 11 3l3-1h-3c-4 0-2-4 3-6 4-2 5-3 5-5l-1-4c-3-2-2-4 2-6 7-5 10-8 10-11s0-3-3-3l-7 3-8 3-9 5c-4 3-5 4-7 3l-8-1-18-4-4-2-4-1-4-1-6-3c-2-2-2-3-1-4v-6c-2-7-2-9 0-14l1-5c-1-2-5-1-5 1Zm16 43c2 2 2 2 3 0 2-1 2-1 5 1l2 3 2-2 2-3 2 3c2 2 2 2 5 1 3-2 6-1 6 2 0 1 0 2-2 1-2 0-2 0-1 1l2 4c0 3 0 3-3 3l-4-2-2-1c-2 0-2 1-1 3 0 2 0 3-2 3l-2 2c-1 4-10 1-10-3l-1-3-1-2-2-3c-2 0-3-10-1-10l3 2ZM346 192l-5 4-5 3c-1 0-3 3-3 5 0 3-5 7-7 7s-2 0-1-3c0-3-1-7-3-5l-4 1c-4 1-3 3 1 5s4 2 4 6c-1 4-1 5 1 5h3c0-3 2-6 4-7l5-2c1-1 2-1 3 1l2 2 1-2c3-4 3-4 1-8-2-3-2-3-1-4h3l4 2c3 0 3 0 3-4-1-5-2-7-3-7l-3 1ZM292 194v2h2l1-2h-3ZM366 196l-1 2-2 2c0 2 4 1 6-1 1-2 1-2-1-4-2-1-2-1-2 1ZM544 196c-1 2 0 5 1 5v-7l-1 2ZM649 196c-1 1-1 2 1 2l1-1c0-1-1-2-2-1ZM552 197c0 2 1 3 5 3h2c-2 0-3-2-3-2-1-2-4-3-4-1ZM562 197c-2 0 0 2 3 2 2 0 3-2 1-2l-2-1-2 1ZM570 197c-1 1 4 5 5 4s-1-4-3-5l-2 1ZM580 197l1 2 1-2-1-1-1 1ZM588 197l2 2 3 1c3 1 4 1 2-2-1-2-7-3-7-1ZM204 202a173 173 0 0 0-13 12c0 2 1 3 2 3s2 3 2 7c-1 2-1 3 1 3l2-5 2-6 1-2c-1-1 1-4 3-4s3 6 1 7l-2 5-3 7-3 5-1 4c-2 2-1 6 1 6 1 0 5-4 5-6l1-7c1-4 2-5 5-7l3-4c-1-2 0-4 1-5l2-4 2-1c2-1 2-3-1-6l-2-4c0-3-3-2-9 2ZM249 200c0 2 2 3 3 2l-2-4-1 2ZM535 200l-1 2 3-2h-2ZM615 201l-1 5-1 2v2c1 1 2 2 3 1l4-10c0-3-3-2-5 0ZM517 201l3 3c2 0 1-3 0-3h-3ZM56 203l1 2 1-1c2-1 1-3-1-3l-1 2ZM633 203c-3 3-2 4 1 4 8 2 10 2 10 1s-6-7-8-7l-3 2ZM395 204c-1 3 0 6 2 6 2 1 2-1 2-5 0-3-3-4-4-1ZM416 204c-5 1-7 3-4 3l3 3c0 3 4 5 6 3s7-3 9-1c1 1 1 1 1-2 0-2-1-4-3-5l-3-2c-2-1-3-1-9 1ZM82 204v4c1 1 1 1 1-2s-1-4-1-2Z" /><path d="M349 204c-2 1-2 2 0 5 1 2 2 2 4 2 4-1 5-4 2-6s-3-2-6-1ZM371 205l-3 4c-2 3-3 4-2 6 0 2 0 2-3 2-4 0-6 2-4 4s5 2 6 0c2-2 6-1 9 1 1 2 4 3 6 4l4 2c2 1 8 1 9-1l2-1 3-1c1-2-2-3-7-3-4 0-5 0-4-2 0-2-2-4-2-2-1 3-6 2-9 0s-3-3-2-6c2-8 1-9-1-9l-2 2ZM675 205c-2 2-2 2-1 3 2 1 3 1 4-1 2-4 0-5-3-2ZM301 206v3c0 2 1 3 2 2 2-2 2-5 0-5h-2ZM387 206l2 2 1-1-2-2-1 1ZM514 210v7l1 4c0 1 2 3 4 3l-1-6c-2-2-1-4 2-4h3l-3-2-2-4c0-2 0-3-2-3-1 0-2 1-2 5ZM585 206l-4 4c-2 2-4 4-4 6-1 3 0 4 2 2h3c2 1 2 1 2-1l2-4v-5l2-2c0-2-3-1-3 0ZM533 208l-3 3 2 2 3 4 1 2 4-2 1-5c-1-7-3-8-8-4ZM554 208c-2 2-2 2-1 3 2 1 4 1 5-1 1-3-1-4-4-2ZM602 209l-1 2-2 2-2 3c0 3 2 4 4 2h4c4 2 6-3 2-7-3-3-4-4-5-2ZM402 211c-3 2-2 5 1 9l3 3 2-2c2-3 3-7 1-10-2-2-4-3-7 0Zm3 6c-1 0-3-1-2-2h1l1 2ZM466 212l-5 4-2 2c0 2 3 2 4 1l3-1c3 0 13-4 13-5s-7-4-10-4l-3 3ZM567 211l2 3c1 0 1-4-1-5l-1 2ZM688 210l-2 4v4c1 1 2 0 3-3v-5h-1ZM635 213c-1 3-1 3 1 3s3-1 3-3c0-4-3-4-4 0ZM665 211c-1 1 0 11 2 13h1l2-5c2-5 3-7 1-8l-2 1h-2l-2-1Z" /><path d="m375 212 4 2v-2h-4ZM504 215l2 2 1-2-1-1-2 1ZM626 216c-2 0-1 4 1 4l2-2v-2h-3ZM54 220c0 3 2 5 2 2l1-3-2-2-1 3ZM309 218c0 3 4 7 7 7h3l-4-4c-4-4-6-5-6-3ZM237 219c-1 1 0 3 2 3l1-3h-3ZM241 223c-3 5-3 5-1 7 3 4 2 6-2 6-3-1-3-1-5 7l-3 10-2 3-5 9c0 2 4 1 5-1l3-2c0 1 2 0 3-2s1-2 3-1l1 3c1 2 5-1 5-3l2-3 1-5 2-6c4-14 4-20-1-25l-3-2-3 5Zm1 15v5c-1 5-5 13-6 13-2-1-2-10 0-15 2-4 4-5 6-3ZM421 221l1 2 2 2 1 3 1 1c0 3 2 3 5 1l3-1-2-2-3-4c-1-3-1-3-4-3l-4 1ZM503 221l-3 1-4 1h-10c-3 2-4 2-6 1h-6l-9 2c-5 0-19 3-20 5l5 2h7l9-1 7-1 7-1c6 1 6 1 8-2 1-2 5-3 7-1h2l5-2c4 0 4-1 4-2 0-3-2-4-3-2ZM553 221l2 1 2-1-2-1-2 1ZM274 223c-2 0-2 2 0 4 1 1 1 1 2-1l1-3h-3ZM585 224c-1 1 0 3 1 2v-4l-1 2ZM216 224l-1 4c-2 11-2 11-7 16-3 2-4 4-4 5 1 3 6 1 9-2 2-2 2-2 3-1 4 6 4 6 6 3l3-6c0-3 1-5 4-8s4-6 2-9c-1-3-6-1-6 3 0 3-6 13-7 12s-1-7 1-11v-7l-3 1ZM415 224l-6 1-7 2c-3 0-2 2 1 2l3 1c1 2 6 3 9 2l3-2c2-3 2-3 0-5l-3-1ZM683 224v1l1 2-1 2c-2 0-6 7-6 10s-2 6-4 7c-4 1-3 4 2 5 3 1 3 1 3-3l2-7 3-5c2-3 2-3 4-2 2 2 2 2 3 0l-1-3c-1 0-2-1-1-2s1-2-1-4c-3-2-3-2-4-1ZM640 225l2 1 2-1-2-1-2 1ZM84 227c-1 2-1 6 1 7 2 0 3-3 1-6 0-4 0-4-2-1ZM294 227c-1 4 0 6 3 5 3-2 4-4 2-6-3-2-4-1-5 1ZM636 229l2 2c1 0 1-2-1-3l-1 1ZM95 230l-1 2c0 2 0 2 1 1l1-3h-1ZM609 230l2 1 1-1-1-1-2 1ZM615 230l2 2 2 1 1 1c1-1-2-5-3-5l-2 1ZM37 234c0 4 4 8 5 6 1-1 1-2-2-4-2-3-3-3-3-2ZM310 235c0 3 1 6 3 6 3 1 3 3 0 3-2 1-3 5-2 7l3 2c3 1 4 1 2 2-2 2-3 2-4 1h-2c-1 2 0 7 3 10l2 4-1 3-1 2c-4 0-5 5-5 12v8l-1 4-3 6-2 4c2 2 1 4-2 10-3 4-4 6-3 8l-1 5c-1 1 0 3 2 2l4 3 6 3c3 0 4-1 2-3l-2-4c0-2 0-2-2-2-1 1-2 0-3-2s-1-3 1-7c2-5 5-6 7-4v4c-1 3-1 3 1 3l4-3c2-3 2-3 1-4l-2-3-1-2-2-2-1-4v-4c1-2 4-3 4-1l3 1 4 2h2v-3l-1-2h-1l-3 1c-2-1-2-1-1-3l3-1c1 1 1 0 1-1 0-2 0-3-2-2-2 0-3 0-3-6l-1-7c-2-2-1-4 2-4 2 1 3 0 2-3l2-4c1-1 1-1-2-4s-4-5-2-7h3c2 2 4-1 2-3-3-3-2-7 1-4 1 1 3 1 3-1l-3-2-4-4c-1-2 1-4 3-4l3-4h-7l-7-1-1-3-1 2ZM650 236l2 2c2 0 2-1 2-2-1-2-4-3-4 0ZM96 238c0 3 3 8 5 8s1-4 0-5l-2-3c-1-4-3-4-3 0ZM185 236l-4 2-2 3c0 2 1 3 3 3l2-1 2-1 4-1c2-1 2-1 0-4-2-2-2-2-5-1ZM291 247c-1 10 0 15 2 15s3-22 1-24-3-1-3 9ZM396 239l-2 3v2c2 0 1 3-1 3-4 1-3 3 1 3 2 0 3-1 4-3v-4c-2-1-2-1 0-1 4 1 4 0 1-3-2-3-3-3-3 0ZM606 240c0 4 1 4 4 2 2-3 2-4-1-4-2 0-3 0-3 2ZM625 240c1 1 1 2 3 2l1-2-2-2c-2 0-2 0-2 2ZM87 241c-1 1 0 3 1 3l1-3c0-2-1-3-2 0ZM481 244l1 8 1-2c-1-1 0-2 1-3 2-2 2-2 0-3l-2-3-1-2v5ZM506 240l2 1 1-1-2-1c-1 0-2 0-1 1ZM571 240c-1 1 1 2 2 1l-1-2-1 1ZM618 240c-1 2 0 5 1 5l1-3c0-3-1-4-2-2ZM591 242v5l2 2v-2l2-4c1-1 1-1-1-2s-3-1-3 1ZM330 242c1 2 3 2 3 1l-1-1h-2ZM415 242l2 3c2 1 2 1 2-1s-4-4-4-2ZM438 242v3c0 2 1 2 2 1l1-3c-1-2-2-3-3-1ZM470 242l-1 2 4-2h-3ZM493 242c-1 1 1 3 3 2s1-3-1-3l-2 1ZM426 243l1 3 1 1c2 0 1-4-1-5l-1 1ZM509 243c1 2 4 2 4 1l-2-2-2 1ZM501 245c-2 1-2 2-1 5l1 4v-2c0-2 0-2 3-2l3-1-1-1-2-2c-1-2-2-2-3-1ZM27 247c0 2 1 3 3 3 3 0 4-2 2-4-3-2-5-1-5 1ZM340 246v5c1 3 1 3 2 1v-5l-2-1ZM353 246c-2 1-2 2-1 2 1 1 4-1 4-2h-3ZM368 247l-1 2c1 1 2 0 4-3 1-2-1-1-3 1ZM651 248c-1 3 1 4 4 2v-3c-3-1-3-1-4 1ZM382 248l2 2c2 1 4 0 3-2h-5ZM609 248l1 3c1 2 1 2 1 0l-1-4-1 1ZM632 249c0 2 2 5 3 4 2-1 1-5 0-5-3-1-3-1-3 1ZM188 250l3 1c4-1 4-3 0-3-2 0-3 0-3 2ZM358 249c3 2 3 4 1 4l-2 1 1 1 7-4-3-2c-3-1-6-2-4 0ZM520 250c0 1 2 1 3-1l-1-1-2 2ZM464 252c-1 1 2 4 3 3l-1-3h-2ZM185 253c-1 3 0 5 1 5s2-1 2-3l-1-3-2 1ZM206 255c-1 2-2 3-1 4l5-2c4-3 4-3 0-4-2-1-3-1-4 2ZM590 254l1 1c2 0 1-1 0-2l-1 1ZM670 254c-1 3 0 5 1 2v-2h-1ZM599 255l-1 2c0 2 0 2 1 1v-3ZM488 256c-2 1-2 1 0 2l3 4 1 3 2-3v-6h-6ZM614 257l1 2 1 4v2c2-1 3-6 2-8-1-3-3-2-4 0ZM545 257c-1 1 1 3 2 3l1-3c0-1-2-2-3 0ZM332 258l-1 2c0 2 0 2 1 0v-2ZM633 259c-1 2-1 3 2 3 1-1 2-5 0-5l-2 2ZM277 259v5l3 1 1-2c0-3-2-5-4-4ZM480 260l1 2h1c0-2-1-3-2-2ZM161 262l-1 3c0 2 0 3-2 4-4 1-10 10-10 13 0 2 2 3 2 1s6-4 10-4 6-2 4-6v-2c1-1 0-3-1-6-1-4-1-4-2-3ZM196 264l-3 4c-2 1-2 1-4-1-1-2-1-2-6 4l-6 7c0 1-1 2-3 2-3 0-4 1-5 2l-2 4-1 2c0 2 6 1 7-1 5-4 8-6 10-6 2 1 2 1 2-1s2-3 7-4c2-1 2-2 1-3h1l4 1h7c4 1 6 0 6-3l4-3 3-1c1-1-3-3-5-3l-3-1c-1-1-2-1-4 2l-2 5-1 1c-2 0-2-1-1-3 0-3 0-4-2-5-4-3-3-3-4 1ZM35 263v2c2 2 5 3 5 1 0-3-2-5-5-3ZM171 264c-2 2-2 5 1 5 2 0 9-5 9-6l-4-1-6 2ZM394 263c-1 0 3 5 5 5v-1c0-2-4-5-5-4ZM623 264c1 3 3 4 3 1l-1-3-2 2ZM588 266l1 3c1 1 1 0 1-2l-1-4-1 3Z" /><path d="m231 267-3 5-2 3-2 2-2 4-2 5-1 4c1 2 0 2-2 3l-3-1c0-2-5-6-7-6l-2 1 3 1c1 0 2 0 2 2 0 3-1 5-3 5s-4 2-3 3 2 0 4-1l4-1-1 4c-2 4-5 5-7 2l-5-2-4-1v4l-1 4-2-2-1-2-1 2-3 3-3 4c0 3 0 3 4 3 9 1 14 0 19-4l10-4 2-3 1-2 4-5 4-6 3-5 6-12c1-2 1-2-1-3l-2-2c0-5-3-7-3-2Zm-30 39-2 5c-3 2-9 3-9 0l2-1 5-3c3-4 4-4 4-1Zm6 4c-1 0-3-1-2-2h1l1 2ZM436 266l1 2 1-2-1-1-1 1ZM111 269c1 5 1 6-2 6h-3c0 2 4 6 5 6l5 3c4 3 7 2 6-2-1-1 0-2 1-3s1-1-1-1l-7 2c-2 1-3 1-4-1l1-3c4-6 4-9-1-10-2 0-2 0 0 3ZM25 269l3 2c4 0 4-2 1-3-4-1-4-1-4 1ZM286 269l-4 2c-2 0-6 4-6 7v11l2 20c0 13 0 13-8 13l-5 1 4 5c3 2 3 3 2 5v4l-2 4-2 3 2 5c2 4 3 5 5 5 1-1 2-1 2-7v-13c3-1 3-4 1-5-3-1-2-2 3-5l5-3v-48l3-2 1-1c0-3-1-3-3-1ZM500 268c-1 3 0 4 1 2v-2h-1ZM121 270c-1 2 0 3 2 1l2-2c0-2-4-1-4 1ZM130 271c-3 4-3 5 0 5 3-1 4 0 3 1l2 3v2c-1 1-2 0-2-1l-2-1c-2 1 0 3 2 5 3 1 3 1 6-1l2-5 2-3c2-3 1-4-2-4-2 1-3 1-5-1l-3-3-3 3ZM661 269l1 2 1-2-1-1-1 1ZM616 271c-1 2-1 2 1 2s3-1 1-3c-1-1-2-1-2 1ZM425 274c-3 2-2 4 3 3 5 0 6-2 4-4s-4-1-7 1ZM346 274v2h2l-1-2h-1ZM607 274c-3 0-4 2-1 2l4 2c3 2 4 3 4 0 0-2-3-5-4-5l-3 1ZM444 275l1 2 1 3c0 3 4 3 5-1l-1-4h-6ZM588 275l1 2 1-2-1-1-1 1ZM622 276c-2 3-2 6 0 4l2-6-2 2ZM490 278c0 3 1 4 2 4 2 0 2-1 2-3 0-3-1-4-3-4-3 0-3 0-1 3ZM597 277v3c2 0 6 5 6 6l3 4c2 1 3 3 3 5l2 2 1-3c0-2 0-3-2-4l-3-3c1-2 0-2-1-3l-5-5c-2-3-3-4-4-2ZM418 278l-1 2 3-2h-2ZM380 279v4l1-1 2-3v-1l-3 1ZM461 281l-1 2 3-2h-2ZM513 281v2h3l1-2h-4ZM358 283c-1 2 0 3 1 2v-3l-1 1ZM617 283c-2 0-1 3 1 3h4c2-3-1-5-5-3ZM99 286l2 3c3 0 3-3 0-4-2-1-2-1-2 1ZM584 285c1 2 3 2 3 1l-1-2-2 1ZM543 286l1 2 1-2-1-1-1 1ZM157 287v1c1 1 3 0 3-1h-3ZM321 287l1 2 1-2-1-1-1 1ZM414 288c-1 3 0 4 2 2v-3c0-1-1-1-2 1ZM525 288l-2 2c1 1 4-2 4-3l-2 1ZM635 287l1 3c1 2 1 2 2 1 1-4-2-7-3-4ZM190 289c-1 1-1 2 1 2l1-1c0-1-1-2-2-1ZM550 292c0 5 0 5 2 4l2-2-2-4-2-2v4ZM44 290l2 1 2-1-2-1-2 1ZM478 291c0 2 2 3 3 3l-2-4-1 1ZM425 294c-2 3-2 3 0 3 3 0 6-3 5-4-1-3-2-2-5 1ZM111 293c-1 1 2 3 5 2 3 0 4-2 1-2l-3-1-3 1ZM367 293v2h1c1-2 0-4-1-2ZM415 293l5 2v-2h-5ZM152 294c-2 1-2 4-1 4l3-3c2-2 1-3-2-1ZM535 295v2c1 1 3-1 3-3s-2-1-3 1ZM338 296c-1 4-1 4 2 3l2-3c-1-2-2-2-4 0ZM358 297v3l2-2v-3c-2-1-2-1-2 2ZM494 295c-1 1 2 3 3 2l1-2h-4ZM101 296c0 2 3 4 5 4s3-1 2-3-7-3-7-1ZM135 296c-1 1 0 1 1 2 2 0 3 0 2-2h-3ZM142 295l2 3 2 2v-2c0-2-4-4-4-3ZM594 297c-1 2 1 6 2 6 2 0 1-7 0-8l-2 2ZM625 296c-1 3 1 5 2 3l1-2c-1-2-3-2-3-1ZM183 298c0 2-4 4-6 3-3-1-2 1 1 4l4 3c2 0 2-1 2-4s1-4 2-4v-2c-1-3-3-3-3 0ZM43 300l-3 8c0 5 0 5 2 4 1-2 2-2 5-2 4 1 3 1 3-7l-1-5c-2-2-5-1-6 2ZM411 299l2 2c1 0 1-3-1-4l-1 2ZM375 299l2 1 1-1-1-1-2 1ZM474 300l-1 3c1 1 5-1 5-2-1-2-2-2-4-1ZM505 300l-4 2c-1 0-2 1-1 3l1 4 5-5c3-4 4-5 2-5l-3 1ZM122 301c-2 1-2 3 1 3l1 2c1 1 1 2 2 0 2-1 2-2 0-4-1-1-2-2-4-1ZM600 303l1 3 1-3-1-2-1 2ZM622 302c-1 1-1 2 1 2l1-2c0-1-1-2-2 0ZM348 304l-1 3c-2 3-2 6-1 6l2-2 2-1c2 0 2-1 2-2l-1-4-1-2-2 2Z" /><path d="M262 306c-3 3-3 5 1 5 3 0 6-3 6-6s-4-3-7 1ZM366 305c-1 0-1 2 1 2l1-2v-1l-2 1ZM447 305l1 2 1-2-1-1-1 1ZM616 305v3c1 1 1-1 1-3h-1ZM379 308l-1 5c-2 2-2 3 0 3s3-2 2-7c-1-4-1-4-1-1ZM520 308v2l3-2h-3ZM319 310v3l1 3c-2 3 3 2 4-1l2-3v-3c-1-1-1-1-1 1-1 2-3 3-3 0-1-3-3-3-3 0ZM170 311c-1 1 0 2 3 2l4-1c1-2-6-3-7-1ZM598 311c-1 1-1 4 1 4l1-2c0-2-1-3-2-2ZM612 311l1 2 1-2-1-1-1 1ZM543 313v2c1 2 2 1 3-2 0-3-2-3-3 0ZM256 314c-1 2 0 3 1 1v-1h-1ZM579 314c-1 1 0 1 2 1l2-1-2-1-2 1ZM490 316c0 2 2 3 3 0l-1-2-2 2ZM250 316l1 2 1-2-1-1-1 1ZM354 318c1 2 3 2 3 0l-1-2-2 2ZM588 317v3c1 1 3 0 3-2s-3-3-3-1ZM52 318l4 1 3-1-4-1-3 1ZM340 320c-1 3 0 4 2 2s2-2 0-3c-2-2-2-2-2 1ZM517 318l2 2 1-2-2-1c-1 0-2 0-1 1ZM465 320c1 3 2 3 2 1l-1-3-1 2ZM494 319c-1 2-1 2 1 2 3 0 4 3 2 4v3l1-1 2-2c2-1 1-4-1-5-3-2-3-2-5-1ZM430 320c-1 2 0 3 1 1v-1h-1ZM550 320c-1 1 0 3 1 3l1-2c0-2-1-3-2-1ZM603 321l-1 2v1c2 0 4-2 4-4s-2-1-3 1ZM59 322c0 2 5 7 6 7 2-1 1-4 0-4s-2-1-2-3c-1-2-4-3-4 0ZM413 321v3l1-1 1-2 1-1-3 1ZM531 323v3l3 1c2 2 2 1 1-3-1-5-4-5-4-1ZM256 323l-1 2-2 5c-4 4-4 6 0 5 7-1 7-1 7-3l-3-10-1 1ZM369 323v2h2c1-2 0-3-2-2ZM572 323c-1 1-1 2 1 2 2 1 2 0 2-1 0-2-2-2-3-1ZM449 324l2 1 1-1-1-1-2 1ZM329 326l-2 3-2 4-3 5c0 3-4 4-4 2s-1-3-2-1v2l3 2c0 2 0 2 1 0 2-3 6-4 7-2l2 1-1-5c-1 0-1-2 2-5 2-2 3-4 2-5 0-2-1-2-3-1ZM346 332l-2 2c0 2 3 2 5 1 4-3 1-5-3-3ZM67 333c-1 1 0 4 1 4 2 0 2-2 1-4h-2ZM364 334l1 1 1-2-1-1-1 2ZM436 336c-1 2 0 3 1 1v-2c0-1-1-1-1 1ZM454 335c-1 1 1 2 2 1l-1-2-1 1ZM72 336c-1 1 2 4 3 3l-2-4-1 1ZM294 339l-2 2c-1 0-2 1-2 3l-2 5-3 4-1 3-2 3 2 4c2 2 2 11 0 13l-7 1-5 1 3 5c4 7 6 7 7 3l3-5c3-2 5-12 5-18 0-4 1-6 3-8l3-6 2-6 2-4c-2-2-4-2-6 0ZM395 338l2 1 1-1-1-1-2 1ZM247 340l2 5c1 6 3 8 6 9 4 2 1 9-4 10-4 1-6 3-7 6l-5 6c-5 4-5 5-1 7 3 2 4 2 6 0l4-1 1-1 3-2c2 0 3-1 3-3 0-3 5-6 8-6s3-1 3-7c1-4 0-5-3-10l-5-8-1-4-10-1ZM361 342c-1 2 0 4 1 3v-6l-1 3ZM589 343l-2 2c1 1 5-1 6-3 0-1-1-1-4 1ZM80 343c-2 3 0 5 4 5s4-2 1-4-3-2-5-1ZM191 343c-3 0-3 3-1 5 3 3 4 2 6-1s2-3 0-4h-5ZM183 345c-1 0 0 4 2 4l2-3c-1-2-3-3-4-1ZM304 346l-1 4v2c2 3 4-2 2-6l-1-3v3ZM594 345c0 1 5 3 6 2 2-2 1-3-2-3l-4 1ZM607 345c-1 1 1 2 2 1l-1-2-1 1ZM162 348l1 4h2c2-2 1-5 0-5-3-1-3-1-3 1ZM321 348l1 2 2-2-2-2-1 2ZM54 352l2 2 1-1c-1-2-3-2-3-1ZM440 353l1 1 2-1-1-1-2 1ZM72 355c0 2 1 3 4 3 2-1 2-3-1-4-1-1-2-1-3 1ZM67 355c-1 1-1 2 1 2l1-1c0-1-1-2-2-1ZM370 355c-1 3 1 5 2 3l1-2c-1-2-3-2-3-1ZM418 355c-1 1 1 4 2 2v-2h-2ZM327 356c-1 1-1 2 1 2l2-2c0-1-2-2-3 0ZM341 357c1 2 3 2 3 1l-1-2-2 1ZM174 361l1 3 1-3-1-3-1 3ZM344 361c1 2 4 2 4 1l-2-2-2 1ZM384 362c-1 1-1 2 1 2l2-2c0-1-2-2-3 0ZM80 366c-2 1-1 3 4 9s13 11 18 11c3-1 4 0 4 2s1 3 2 3l1-2c0-2 0-3 2-4 3-1 2-3-3-2-6 0-9-3-9-9 0-3-1-4-2-4s-4-1-5-3c-3-2-11-3-12-1ZM363 367v3c2 2 3 1 3-2 0-2-1-3-3-1ZM187 368c0 2 1 2 2 2 2 0 3-1 3-2l-3-1-2 1ZM346 369l1 1c2-1 2-3 1-3l-2 2ZM219 374l2 5c1 1 8 0 9-1 2-1-7-8-10-8-2 0-2 1-1 4ZM180 375l-1 4c0 3 1 3 3 3 3 0 3 0 3-3 0-5-4-8-5-4ZM190 374v1c2 1 3 0 1-1h-1ZM158 384c-1 3-1 3 1 2l2-2h-3ZM337 385l1 1 1-2-1-1-1 2ZM392 384l2 1 1-1-1-1-2 1ZM128 388c-2 1-2 4-2 7 0 2 3 1 3-1l2-3 1-2c-1-2-2-2-4-1ZM144 389c-1 3-1 4 2 4s3 0 3-3c0-2 0-3-2-3l-3 2ZM226 388l-3 3c-1 2-1 2 1 3s3 1 5-2c2-2 3-3 2-4h-5ZM268 390c-2 1-3 2-2 3l-2 2c-2 0-3 3-1 5h6c4 0 5-1 5-3l2-2c3 0 3-2 0-4-2-2-3-2-8-1ZM108 395c0 2 2 4 3 2v-3c-2-2-3-1-3 1ZM238 394l2 2 3 1c0 2 3 3 3 1l-2-2-3-2c-1-2-3-1-3 0ZM213 398c-2 3-2 3-1 4 2 2 7 2 7 0 1-2-1-6-2-6l-4 2ZM194 404l1 1 2-1-1-1-2 1ZM217 409c0 2 0 2 2 0l2-2h-2l-2 2ZM195 416c0 1 1 2 3 2s3-1 3-2l-3-1-3 1Z" /></g></svg>