<svg id="logo" width="40px" xmlns="http://www.w3.org/2000/svg" viewBox="0 0 512 665">
  <path fill="#4d41a1" fill-rule="evenodd" d="M333 39c-14 59-15 69-14 157v52l-11 3-13 4-58-115-57-115-19 20-36 40-19 21 70 67 69 69-5 17-6 15-34-1c-87-1-129 0-150 4-31 6-45 25-41 58 1 12 5 30 10 44l4 10 22-11a653 653 0 0 1 226-74l7 25a14004 14004 0 0 1-178 201l9 7c25 19 48 28 65 25 9-1 20-7 27-14 13-12 21-28 40-72 18-42 27-59 40-72 6-7 14-12 15-10l16 72c23 103 33 146 38 155 2 6 22 35 23 35l6-44a1113 1113 0 0 0-21-173l67 43 67 43 6-13 6-13-3-8c-10-28-28-48-58-63a479 479 0 0 0-54-22c-36-18-39-42-9-74 11-12 25-24 52-44l26-20a1752 1752 0 0 0-19-30l-3-3-10 4a11228 11228 0 0 0-60 23 394 394 0 0 1-2-106c4-40 3-52-16-117l-8-28-7 28"/>
</svg>