<svg id="pitcher" alt="A line drawing of a person carrying a large ornate pitcher on their shoulder. They pour the pitcher into a well; the contents of the pitcher sparkle and spell out 'Tiny Awards'. The image seems almost ancient Greek, yet distinctly modern." xmlns="http://www.w3.org/2000/svg" viewBox="0 0 1014 1396">
        <g id="pitcher-image" fill="#4d41a1" fill-rule="evenodd">
          <path d="M584 12c-5 8-5 8-4 11l9 7c9 7 10 9 9 18-1 8-1 16 2 23l2 7c-1 1-8 1-19-1-26-3-39 0-65 18-11 7-11 7-27 6-9-1-13 0-19 5-4 3-5 3-8 2-3 0-5 0-7 2l-13 5c-1-1 4-10 8-14 6-7 8-11 8-14s-4-10-5-8l-7 14c-5 13-5 14-7 13-3-3-6-11-7-18l-2-9c-1-5-10-6-11-1l4 15c4 12 5 17 2 17l-13-6-15-7c-3 0-3 0-1 3 1 2 5 5 12 8 16 9 15 8 10 12-3 2-4 3-13 3-14 0-16 1-14 11 1 4 1 4 4 4l10-4c8-3 21-6 21-3l-7 10c-10 14-11 17-6 17 4 0 7-4 13-14l6-10h2l1 18c-1 19-1 20 6 20l4 1c0 1-6 9-11 13-6 5-11 13-16 22l-20 45c-6 18-8 20-14 15l-3-3 2-3 5-5c4-3 5-6 3-10l-2-2-2 4-5 7c-3 5-6 4-5-3l4-11c5-9 5-11 0-12-6-2-7-1-7 3l-1 13c-1 8-4 21-7 23 0 1-5 0-12-3l-13-4c-1 0-3 7-1 9l6 1 9 1 5 1-8 8c-4 5-9 9-10 9l-5-4c-5-6-6-7-12-3l-5 4 8 4 13 10c10 12 9 16-8 25-8 5-9 5-8 7 3 4 8 1 22-10l5-3-3 12-4 12c2 1 4-2 8-10l4-10c2 0 14 6 15 8s0 27-2 28c-1 1-14 6-15 5l3-9 3-9c-1-2-1-2-6 7-7 13-8 13-15 3-6-8-8-10-11-8s-2 5 3 8c6 4 15 13 15 15l-2 1-29-3c-2 1-2 2-2 6v5l3-1c20-3 24-3 25-1 1 1 0 2-8 11l-7 9c1-1 3 0 8 8l6 9-2-6-2-7c0-4 12-27 13-27 3 0 2 13 0 25l-2 15c1 4 1 5-1 7s-3 2-13 2h-13l1 3c3 4 8 5 18 3l9-2-3 7-3 10-4 8c-2 3-10 8-11 7l2-9c3-11 2-12-4-2l-6 8-3-8-3-10c-1-1-6-2-7 0l1 5 3 9 1 4h-5c-3-1-7-2-9-4l-7-3c-2 0-3 0-5 3l-3 3 2 3c2 2 4 2 12 3l14 2c8 3 7 5-6 9l-12 4 1 3c1 2 2 2 5 2l9-4 10-2c3 0 4 0 8 4 7 8 7 10 2 22l-14 40c-2 9-4 15-7 15-2 1-17-2-17-2l9-8c5-3 9-7 8-7l-10 4-3 1-2-6-1-6c-1-1-2 1-4 5-3 6-5 9-8 9l-10-7-11-7c-1 0-3 7-2 9l4 4c12 5 16 6 16 8l-6 5c-6 4-8 6-8 10l3 1c3 0 5-1 10-6 7-8 8-7 5 5-2 9-2 12 1 10 1-1 2-2 2-5 0-5 2-9 5-11h15c6 2 6 3 5 21-3 22-3 23-5 25-4 4-17 2-17-3l3-10 3-10h-2c-1 0-3 2-5 8l-5 8-5-2c-7-3-15-4-19-3l-7 7 11 1c11 0 15 1 15 5 0 3-2 4-10 6s-14 7-14 10l1 3c2 3 6 1 13-6 5-4 6-5 7-4s1 2-1 5c-4 7-6 13-5 14 2 1 5-2 9-11 3-4 5-8 6-7l3 9c2 7 2 8 3 6v-8c-1-5 0-8 3-11 4-4 11-3 14 3l4 28c0 4-1 5-7 13l-8 9c-1 1-1-2-3-11l-2-11h-1c-1 1-2 2-1 7 2 16 2 15 0 14l-10-5c-7-4-11-5-14-3-3 3-1 5 12 8 23 6 22 10 0 12-13 1-17 2-17 4l1 5c2 4 4 4 18-1 9-4 11-5 12-3 1 1-1 3-7 12l-7 12c1 2 5 1 7-2 4-3 12-20 12-22 0-5 2-10 7-16l6-8c2-4 3-3 5 5l4 8c2 0 1-6-2-26-2-12-2-18-2-37v-23l4-23c11-49 12-53 21-69 9-14 48-67 55-73 2-2 2-2 3 1s1 5-2 10c-4 12-7 16-18 28-19 23-26 34-36 58-15 36-22 65-21 95 1 18 7 65 9 66 2 2 1-15-2-35-2-21-2-42 1-60 4-20 11-49 14-57 6-17 18-37 32-54 10-12 24-33 26-39s4-7 5-4c1 4-2 19-7 25-1 4-6 10-10 15l-35 49c-8 13-14 33-18 54l-2 34c0 29 1 35 11 76 7 29 10 36 12 34l-5-22c-9-37-14-67-14-83 0-8 4-43 7-56 5-25 15-43 38-69 17-19 23-29 25-43 0-4 2-7 3-8s1-1 3 1c2 3 3 9 1 18-3 10-6 16-13 25-17 21-18 22-18 25 0 4 2 4 5 0l10-13c14-18 19-28 21-41 0-6 1-7 2-7l2 1v13c0 20-3 26-21 46-21 22-28 34-34 55-6 22-7 28-7 47 0 24 3 40 13 77l28 104c6 22 7 33 7 63-1 20-1 28-3 37-5 29-23 74-28 70l11-29 10-27 2-18 2-25a543 543 0 0 0-30-143c-16-50-20-68-22-94a204 204 0 0 1 27-111c-1-1-2 0-8 9-7 9-18 43-21 63-2 10-1 42 1 61 2 14 4 22 11 43 11 37 29 102 32 122a196 196 0 0 1 2 78c-6 30-15 55-29 85-11 23-17 40-20 54-2 14-1 49 2 58l2 6-1-8c-2-23 0-46 5-61 2-9 5-3 2 9-5 29-1 56 19 109 4 13 5 16 5 23 0 10-4 28-6 29-3 0-3-5 0-13l1-9c0-5-8-32-15-52-8-22-8-21-9-21l1 6c2 10 1 17-3 13a238 238 0 0 1-8-85c1-10 2-18 1-22 0-7 0-7 2-8 4-1 7-5 8-12l3-9c2-4 3-10 1-8l-5 12c-2 7-4 11-5 11-2 0-2-1-1-5 0-6-1-7-3-1a145 145 0 0 0-6 42l-3-3c-3-2-3-3-2-10a296 296 0 0 1 10-49l-11-6-10-5 9-5c7-3 10-5 9-6 0-1-2-1-7 1-13 4-17 2-17-8 0-7-2-13-4-14-2 0-2 5 0 14 1 10 1 9-1 9s-4-2-8-6c-7-7-11-10-15-10-3 0-4 1-6 3-3 3-2 3 9 9 8 4 13 8 12 8a100 100 0 0 1-25 13l1 2c4 3 8 3 16-3 8-5 14-7 19-6 1 0 2 2 2 9 2 14 3 17 5 16l1-12 1-10 14 8 2 2-1 8-10 43c-1 2-5 4-8 2s-3-3 2-8l3-6-6 3-5 2 1-10 1-12v-2l-3 2c-2 2-2 4-3 10l-2 8c-1 2-4 0-10-5l-7-3c-7 0-6 2 5 9 14 9 14 10-3 10h-12v6c0 6 0 6 2 6l21-7c6 0 9 7 9 19 0 4 1 5 3 2 2-2 2-4 1-10-2-6-1-8 3-8 7 0 11 7 11 18l2 8c2 6 1 8-5 14-4 5-9 13-9 16 0 1 3 0 4-3l10-11c2 0 4 6 4 10v5l-5 2-16 4v-15c-1-15-1-18-4-18l-1 18v18l-5 2-12 2-10 2c-1 1-2 9 0 9l14-6c13-5 15-5 15-2l-9 10-8 9 3 2c4 3 5 3 6-2l6-9c4-6 4-7 6-6s2 2 2 11c0 10 1 13 2 6l1-10 1-7 6-3 5-2-4-4-5-4 11-3c2 0 4 4 8 14l10 24c12 23 16 39 16 58 0 13-2 22-9 36-8 15-9 18-13 19-3 2-3 2-5-1s-1-7 5-9c4-3 5-5 2-5a458 458 0 0 0-43 3l-114 6a5774 5774 0 0 0-123 20l-11 4c-8 1-13 4-22 11a128 128 0 0 1-22 13c-2 2-5 3-5 2-2-1-3 3-3 11s2 18 7 28c3 6 3 14 1 26-2 9-4 14-8 18-3 3-4 4-4 6 1 2 2 2 6 2l21 3 23 3a1814 1814 0 0 1 70 7c3-2 3-3 0-6-2-2-4-2-14-3-13 0-15-1-15-6l-5-33c0-8 0-8 20-8 15 0 17 0 18 2 2 2 2 6 4 25l2 25c1 5 0 4 26 5l82 1c53 1 58 1 85-1 21-2 43-2 93-3a417 417 0 0 0 121-11 401 401 0 0 0 126-39c2-2 1-4-3-36-3-19-4-25-3-26l8-2c8-1 13-4 17-12 5-8 5-15 1-27-7-16-8-23-9-38 0-11 0-16 2-29a1144 1144 0 0 0 11-80 139 139 0 0 0-4-73l-5-20-11-23c-12-24-13-26-11-33a310 310 0 0 0 53-52c8-10 20-23 33-35 17-17 22-22 26-28 5-10 5-10 9 8 1 7 4 17 7 23 9 24 11 38 11 81 0 29 0 30 2 39 2 5 5 15 9 22 4 10 5 12 6 19 1 17 0 21-3 32l-4 20-2 15-1 26a602 602 0 0 1-5 86l-4 34c-5 19-15 39-35 69-18 28-27 36-47 43-7 3-7 5 0 12 8 8 19 11 43 11h17l19-5 31-9c10-3 12-4 14-7 3-5 3-10-1-21-4-14-4-16-3-26 3-21 7-32 26-72l25-57c2-8 7-19 11-27l10-23 4-9-1-30c0-32-1-49-5-68-2-14-3-20-1-31l3-28c1-22 2-24 11-53 3-10 7-22 7-27 4-19 5-45 2-91-1-21 3-36 12-57l4-14c-1-3-1-3 2-6l14-10c15-10 21-15 25-25l7-11 4-8c1-4 4-7 7-9l8-2c6-1 8-2 8-5 0-2-3-4-14-11l-36-18-41-24c-21-13-43-25-44-23l30 22a414 414 0 0 0 84 47l5 4-7 5c-8 5-9 6-12 15-2 4-3 6-5 7s-2 2-4 8c0 2-2 5-8 11-13 11-19 16-30 21-15 7-19 11-49 39a98 98 0 0 1-27 20l-14 9c-8 6-13 8-44 17-45 14-52 17-62 25-6 5-10 6-13 3-2-2-2-2 0-22a524 524 0 0 0-1-88l-1 21c-3 65-4 80-7 85-2 1-2 1-15-4-26-11-31-12-48-7-16 4-32 3-33-2a525 525 0 0 1 57-90l12-2c14-3 26-6 39-13 9-4 12-5 13-4 1 2 1 13-1 44l-1 24c3 7 7-21 7-52l1-21c2-3 8-8 10-8s3 5 3 13a1547 1547 0 0 0-1 95h3c1-1 2-7 2-38 1-42 2-69 4-73l3-5c4-3 26-20 28-20 3-1 3 1 0 17a240 240 0 0 0 9 95c3 3 4 2 5-1v-12c-9-49-10-64-8-87 2-17 7-25 20-36 20-16 33-33 42-53a423 423 0 0 1 15-33c2-9 2-23 0-30-6-18-13-25-26-25-8 0-12-2-16-6s-5-8-5-31a480 480 0 0 0-34-178c-3-8-13-20-21-29a322 322 0 0 0-82-58c-16-9-17-10-17-17 0-6-3-13-8-23s-5-15-1-16h10l19 2c14 1 15 1 20 9 2 4 4 6 5 6 3 0 20-17 20-20a1535 1535 0 0 1-90-79c-5-6-10-10-20-16l-20-14c-12-11-15-13-21-9-2 0-5 5-9 10Zm26 21 14 11 20 15 10 7c6 2 7 2 6-1l-43-36c-5-4-7-4-8-1l1 5Zm-3 19c0 12 4 19 24 35 16 12 20 16 28 20l9 5c8 6 30 10 33 7 1-2 1-2-1-4-4-5-19-17-31-26l-31-23c-30-24-29-24-31-22v8Zm57 22c1 1 45 42 55 49 3 3 6 2 7-1l-3-6c-4-4-51-45-54-46h-3c-2 1-2 2-2 4Zm-41 23c15 9 23 14 29 20 5 6 10 7 12 3 1-3 0-5-6-7l-23-16c-17-12-26-18-28-18l-1 3c0 4 2 6 17 15Zm-72-3c-11 2-25 8-34 15l-5 4 4 2c17 7 20 8 64 17 23 5 44 12 65 24l12 5c3 0 4-4 2-9l-3-14c-3-10-5-13-9-18-6-6-10-9-21-13l-18-10c-8-6-16-8-29-8-6-1-10-1-13 1l-15 4Zm-79 27v5h-4c-5 0-9 3-9 8 0 3-1 3-6 7-3 3-6 6-7 9l-2 5 18-5c19-7 22-7 21-1-1 2-2 5-6 8l-5 5 2 2c5 4 7 3 26-1l20-5 2-5 3-13c2-6 2-7 1-9s-8-7-15-11c-15-9-15-9-30-7-8 1-9 2-9 8Zm-29 12c0 10 1 9 10-4l8-13-6 1c-9 3-12 7-12 16Zm86 30c2 3 3 3 4 1l12-25c0-4-1-7-3-7-1 0-4 2-6 5-9 11-11 21-7 26Zm15-7c-3 12-4 14-2 18 3 5 28 19 40 21l9 2-1-6c-3-7-3-13-2-20 1-8 4-14 9-19l4-6c0-2-3-3-16-7-17-4-23-4-28-3-7 3-10 7-13 20Zm50 27c2 13 3 14 12 19 18 12 32 24 42 38 3 5 7 9 10 11l8 6a7971 7971 0 0 1 47 52c9 8 18 9 30 4s18-9 24-19c8-11 8-11 11-7 4 5 4 9-1 14s-22 16-31 21c-7 3-14 4-20 2-8-4-24-18-76-72l-31-32-12-6-13-7-4 2c-2 2-2 3-2 10 0 8 0 8 3 11 4 4 3 2 1 17l-1 10c1 4 3 3 5-3 2-7 6-13 8-13l1 2-4 16c-1 4 0 3 10-11l3-5-2-5-2-7c0-2 3-5 8-6 3 0 3 0 3 2-3 6-3 9-1 14 2 4 2 5 1 5l-5 4c-2 3-3 4-3 7 0 4 0 4 8 5 4 1 4 1 4 6l1 10 1 8c2 4 9 8 10 6 1-1-1-16-3-26 0-3 0-3 4-3l4-1-6-5c-5-5-6-6-6-9l-2-8v-5c2 0 5 3 7 9l6 9c3 3 3 5 4 11 2 12 5 19 15 26 6 5 9 5 14 1l4-2 4 3 3 4-20 7c-2 0-3 0-5-3l-2-3c0-3-4-7-9-10l-5-2-1 7c1 8-2 13-10 23-4 6-5 7-3 7 4 0 7-2 13-7s13-9 15-8c1 1-3 5-8 9l-8 7c-8 6-8 7-13 2-6-5-7-5-22 9-13 13-16 17-15 22 1 4 7 12 8 11l3-8c2-8 2-9 5-10a2123 2123 0 0 1-2 21c2 1 3 1 14-1l12-4c0-2-9-10-10-10l-5-9 10 6 9 6 2-8c1-8 3-11 7-16 5-5 8-5 17 1 13 8 14 8 15 7l-2-6a36060 36060 0 0 0-10-17c1-4 4 0 12 16 7 14 11 21 12 20l9-13c8-13 9-13 10-11l2 3-9 12c-9 13-9 14 6 9l12-3 1 4c0 4-2 5-12 5s-14 1-14 4c0 2 4 6 11 13l11 12-2 3c-1 1-1 1-3-1-7-11-17-20-18-17l2 11c4 12 4 13-2 14h-4v-16c0-12 0-16-2-19l-2-3c-2 0-7 6-10 14l-4 8-1-3c-2-3-3-4-11-8l-7-4c-2-2-2-2 3 0 11 3 19-1 24-10l3-5h-6l-35 6-5 4-2 3 4 1h4l8 13 8 14-1 1-8-7-6-8c-2 0-2 2-1 8 4 15 4 17 3 20l-3 2-2-16c0-9-2-18-3-21-1-5-1-5-3-4-2 2-3 13-5 37-1 15 6 70 12 96 8 37 23 66 43 84 9 8 23 17 29 19 6 1 9 0 17-5 7-5 50-39 59-48l6-5 1-9c1-10 0-24-2-34v-8l3 3c3 4 5 11 4 28l1 12 3-4c5-6 5-10 4-23l-2-34c-2-28-4-39-9-54l-5-21a2100 2100 0 0 0-16-70l2-4c4-7 8 3 17 39 12 43 16 69 17 115l1 31 3 1c4 2 4 2 7 15 6 22 8 23 26 23h13l2-3c5-7 7-14 8-28 0-15-1-20-7-26-4-3-16-9-22-10-5-2-8 1-12 8l-3 8-8 8c-2 0-1-3 4-16 3-5 5-11 5-13l-3-9c-2-6-2-8-4-38l-2-38c-1-17-16-87-20-97a254 254 0 0 0-61-81l-17-12-15-9a518 518 0 0 1-45-27l-39-17c-2 0-10 8-13 14l-4 15c-1 10-2 13-4 13-1 0-2-6-2-14 1-8 4-15 10-23 3-3 4-6 4-8 0-3 0-3-4-3-3 0-4 1-7 4-8 8-12 21-10 31Zm74-17 3 1-1-8c0-9-2-10-4-5-2 6-1 10 2 12Zm-218 1c2 1 4-1 9-9 1 0 1-1-1-2-1-1-2 0-5 4-4 5-5 7-3 7Zm53 2c-19 5-30 5-42 0a281 281 0 0 0-34 55c-2 3 1 9 5 12a998 998 0 0 1 34 30l12 10a382 382 0 0 0 93 52c21 8 21 8 27 5l9-7c4-5 4-7 1-11-3-2-2-5 3-10 6-6 8-10 9-21 1-12 1-13-3-13l-7 1c-3 1-5 0-14-2-19-6-23-9-34-27-9-15-9-15-22-11l-17 8c-8 5-16 8-22 7-3-1-4-1-6 1l-2 2 2 6c6 11 22 25 28 24 2 0 3-2 6-8l4-8-8 2c-6 1-7 2-7 0l14-12c14-9 17-11 21-11 4 1 6 6 6 18 0 10 0 10-3 13-2 2-2 2-10 2-7-1-8-1-11 2l-3 4c0 3 8 13 12 16 5 3 9 2 11-2l2-7 1-6c2-2 2-2 4-1l4 3c1 1 5 3 11 4l10 3-5 7c-4 3-6 6-6 7h5c3 0 5 0 7 3 2 1 3 4 3 5l7 1 6-1-2 2c-2 3-8 6-11 6l-5-4c-4-4-5-5-10-5l-8-2c-4-2-13-4-16-3-5 1-7 1-17-9l-20-16-20-17c-10-9-15-12-24-12-7 0-12-6-12-13 0-6 3-10 11-15l7-4 5 4c6 4 11 5 14 3v-11c-1-3-3-3-16 0-8 2-8 2-10 0s-2-2 1-9c10-17 14-21 42-35l9-7a377 377 0 0 0-19 2Zm3 12v19c1 4 1 4 4 4 5-2 10-5 11-7 1-3 10-11 11-10l-4 7c-3 5-4 7-3 8l1 1 27-12-2-2-9-6c-12-9-12-9-18-9l-8 1-10 6Zm5 11c3 2 5 1 9-5 2-5 3-6 1-6l-1-1-3 1c-4 1-9 8-6 11Zm26 13-2 3 3 1c5 2 10 1 19-4l8-3-1 4c-2 3-2 3 1 7l7 8c6 5 7 8 5 18-1 9 0 15 4 16 4 2 5 0 6-6s0-13-3-19-4-13-1-19v-6c-2-3-12-8-19-8h-9c-6 1-15 5-18 8Zm-55-1c-1 4-1 4 2 4 4 0 5-1 4-6 0-3-1-4-3-4l-2 1-1 5Zm20 22c1 6 1 6 5 8 3 2 3 3 2 5l1 3a5398 5398 0 0 0 45-19c2 0 5 3 7 9l8 14 4-11c0-4-2-8-7-12-7-6-9-7-17-6-12 1-18 0-25-3-7-4-9-4-16 0-7 3-7 4-7 12Zm-74 24a529 529 0 0 0 40 31v-4c-1-2-5-7-16-16-27-25-32-29-33-26-1 1 6 12 9 15Zm-86-1 12 7c8 5 12 6 12 5a592 592 0 0 1-7-25c-1-1-3 0-9 6-5 3-8 7-8 7Zm135-1 3 2 6-9c0-2-3-6-4-6l-3 5c-3 5-3 5-2 8Zm-76 38c0 10 0 13 6 19 5 6 6 8 2 15-3 7-3 10 1 19 3 9 15 20 18 17l2-10c2-12 7-24 13-35 10-16 16-22 17-17 1 2 0 5-8 15-15 22-21 43-14 54 2 5 7 8 10 8 2 0 3-3 8-15 7-22 14-33 28-43 9-6 9-6-8-18a684 684 0 0 1-60-49l-4 3c-5 7-9 21-11 37Zm135-26c4 0 10-6 10-9l-1-3-6 6c-5 6-5 6-3 6Zm12 4c2 4 5 5 7 2 1-2 1-13-1-14l-4 4c-3 5-3 5-2 8Zm-197 29 5 10c4 0 16-24 16-29l-2-4-5 4c-6 6-14 17-14 19Zm36-9c4 1 11-4 8-8-1-1-5-3-12-4-4-1-4-1-4 1s5 10 8 11Zm34 27 1 8 8-22c8-23 8-27 2-21-7 7-11 21-11 35Zm307-20c-3 7-4 8-11 7-7-2-8-1-4 3 3 3 4 4 8 4 11 0 20-13 19-27v-5l-5 6-7 12Zm-364 11c-5 6-9 13-7 13l9-4c11-5 12-5 13 1v6c1 2 9-7 12-13 3-5 4-18 2-20l-6 6-4 7-1-6c-1-5-1-7-4-9-3-3-5-3-5 3 0 5-1 7-9 16Zm137 4a362 362 0 0 0 81 42c3-1 8-8 7-8l-8-3a929 929 0 0 1-88-44l-19-11-4 1c1 2 12 10 31 23Zm61-7 2 3c2 3 6 2 8-3v-6a37 37 0 0 0-10 6Zm54 7c-2 5 4 10 9 8 2 0 4-3 7-5l4-5-6-4-6-5c-1 0-3 2-4 5l-4 6Zm-305 8c0 4-2 3 18 2 11-1 14-2 14-3 0-2-14-6-22-7-5 0-6 0-8 2l-2 6Zm166 15c-5 8-21 40-21 43 0 6 11 13 18 12 5-1 17-11 29-25 24-29 25-29 21-34l-27-15-9 8-11 11Zm-111-8c3 3 6 3 8 1l2-3c0-2-3-6-5-7-1-1-2 0-4 3-2 4-2 4-1 6Zm14 25c2 3 5 2 8-6 5-9 7-17 7-23-1-7-3-7-7 1-6 9-10 25-8 28Zm308-5c3-6 4-14 3-18l-3-5-1 13c0 13 0 13 1 10Zm-296-1 5 1c6 0 5 2-3 6-13 6-16 13-13 35l3 12c2 4 8 6 12 6 2-1 4 0 10 6 3 4 11 10 17 14l18 13 6 5 1-4c1-7 6-15 13-22l6-6c-3-3-48-32-49-31l-3 9c-2 8-5 12-7 12l-4-14c-3-13-3-14-8-19l-3-6 5-4 7-4c1-3 1-3-2-11l-3-8-4 5-4 5Zm129 7c-11 16-23 28-33 34-7 5-9 8-6 10 2 3 3 2 13-2 22-8 39-18 51-30 8-7 11-12 9-16-1-2-8-7-14-10-5-2-6-2-8-1l-12 15Zm-197-3 3-2c2-1 1-2-6-4-8-2-8-2-7 0 1 3 7 6 10 6Zm319 8c0 3 2 3 16 1s16-3 11-7-15-9-18-9l-5 2c-2 3-5 11-4 13Zm-88 4c-7 10-17 19-28 25l-20 9c-11 4-14 6-14 7l4 3c3 1 5 1 12-1 20-5 40-17 58-34 6-6 7-7 7-10-1-6-11-10-14-6l-5 7Zm-147 4a789 789 0 0 0 68 43c3 2 11 2 13 1 1-2-5-6-29-21a787 787 0 0 1-43-26c-3-2-10-3-11-1l2 4Zm164 10 8 5 5 4c-13-4-16-3-19 1-2 4-3 9-2 9l14-5 14-4c3 0 4-3 2-6-2-6-9-15-11-15l-6 6-5 5Zm-208 1c-3 2-5 11-6 25l-2 18c-1 3-2 5-1 6l6 6 5 3-3 2c-3 2-3 3-3 12 0 6-1 3-3-5l-2-6-6 16c-4 10-6 14-12 17l-4 2 3 2c3 4 8 5 11 4l36-41c5-6 5-8-5-17l-7-7 4-6 3-9c0-2-4-6-8-9-5-2-4-4 2-4h5l-2-6c-2-6-3-6-7-5l-4 2Zm241 6 10 10 9 8 2-9c3-13 3-17 2-17a307 307 0 0 0-23 8Zm-110 31c-21 5-32 9-35 12s-4 6-2 9c0 2 1 2 4 0h9c5 1 12 7 12 9l-11-2-7-2c-2 0-9 6-9 8l6 6c8 6 8 9 2 16l-5 5-6-4c-6-4-10-5-14-2l-2 3c0 2 12 21 18 30 13 16 32 32 48 39 17 7 31 6 48-7l15-9c27-17 35-31 29-50l-3-15-5-22-5-17 5-15c6-16 6-16-9-12l-15 4c-4 0-5 2-9 12-5 10-5 12 3 17 8 4 8 3 7-11l1-12c1 0 2 2 3 10l2 9h4c3-1 4 0 1 3v3l3 3c3 2 3 2 1 4-2 3-15 7-27 9-14 2-21 6-25 11-2 4-4 6-10 11-2 2-2 3-2 7 0 10 1 10 12-2l12-10-2 7c-2 6-3 7-6 8-3 2-8 7-8 9l2 1a8095 8095 0 0 0 30-9c1 2-2 4-13 8l-12 5 20 6c3 0 5 1 6 3l1 3-17-3c-17-3-20-3-21 0l1 1c2 0 18 10 19 12 3 5-1 5-10 0l-9-5c-4-3-6-2-12 8-4 8-8 11-7 7l2-4 5-13c4-9 5-12 4-14-1-4-5-6-15-8l-13-4c-2-1-5-6-4-7l12 3 13 4 3 1v-6c0-9-3-16-10-20s-13-10-11-11c1-2 6 0 14 6 8 5 13 7 16 6s13-13 17-19l14-27c12-26 12-26-1-18-15 11-28 16-52 22Zm93 5c0 6 1 8 5 8l4 1-3 4c-6 6-5 8 4 14l4 3-3 4-3 4 5 20c10 37 17 55 28 71 11 15 31 37 35 37l2-1-14-24c-9-15-11-19-16-38-7-29-10-54-11-87-1-22-1-23-4-28l-6-8-4-3-1 9a401 401 0 0 0 12 95l-10-40a1122 1122 0 0 1-10-71c-1-2-1-2-3 0-3 4-9 21-11 30Zm-176 17 38 27h5c2 0 3-1 2-4-2-6-25-23-58-43-12-7-15-9-19-9-3 0-4 0-4 2 0 1 10 9 36 27Zm129-1c0 3 0 4 2 5 2 2 3 2 10 0 11-2 11-2 8-5-9-7-14-9-17-6l-3 6Zm100 6c0 3 7 10 10 10s10-7 11-10c0-2 0-4-2-7-5-8-7-9-13-5-3 2-6 7-6 12Zm-64 19 3 9c1 0 2-1 2-3 2-2 1-3 0-8-3-6-4-9-7-10h-2l4 12Zm168 9a550 550 0 0 1 25 96c1 0 2-2 2-11 1-16 0-24-10-57a7609 7609 0 0 1-15-45c-2-3-7-4-8-1 0 2 0 5 6 18Zm-188-6 1 4c1 1 10-13 10-15 0-1-4 1-7 4s-4 5-4 7Zm-127 5c2 1 2 0 4-4 1-5 1-6-3-6-3 0-3 0-3 5 0 4 0 5 2 5Zm218 14c4 2 8 1 11-3 4-4 3-6-3-12l-4-5-4 4c-6 8-6 14 0 16Zm50 3v11l2 16a310 310 0 0 0 24 67c3 1 4 1 5-1l-4-11a274 274 0 0 1-18-90c1-4 0-4-3-7l-3-3-2 2c-3 4-3 5-1 16Zm-270-2-6 16c-4 8-13 20-23 27-8 7-9 9-9 13l-3 5c-3 3-5 7-9 17-7 19-9 27-10 44a391 391 0 0 0 18 109c5 14 6 19 10 37l8 30c7 26 8 30 9 66 2 47 0 58-10 84a1303 1303 0 0 0-39 119l-2 21 3 9 4 19c1 10 3 18 10 33 6 14 7 19 7 32 0 19-5 43-14 59-5 11-4 12 11 10 16-3 35-3 61-2a601 601 0 0 0 57 1c22 0 23 0 43 3l26 4h5v-6c0-9 2-10 7-2l3 5 3-3 9-6c13-10 18-24 16-45-2-19-8-46-14-58a261 261 0 0 1-21-82l-9-84-12-16-10-13-3 8c-3 9-6 14-8 13-2-2-1-7 1-15l2-7-5 2-9 5c-4 1-5 1-6-1-3-4 0-7 12-10 8-3 7-5-5-11l-12-6v-5l3-3c2 0 8 3 14 8l7 5-1-10c-2-6-2-9-1-12 1-4 2-4 6-1 3 3 4 3 4 12 1 12 4 21 9 27l4 3c1-3 3-20 2-21l-5 1-6 1 10-10c11-10 11-11 17-31a439 439 0 0 1 33-80c2-8 4-12 15-25s35-44 41-54c6-8 6-9 1-15l-8-13-6-13-2-9c0-3 1-5 11-13 5-4 11-14 13-21l5-11 3-8-10-7a111 111 0 0 1-54-57l-21-41-4 4-21 23c-17 17-22 21-28 21l-12 2c-21 5-34 0-58-19-15-13-14-12-25-28l-17-33-2-2-3 11Zm-100 0 4 5 5 5 3-3 2-3-5-5-5-5-2 3-2 3Zm-14 18c1 1 1 0 3-4l3-7-4 3c-3 3-4 5-2 8Zm165 2c1 1 21-6 21-7-1-2-3-2-13 1-9 3-10 3-8 6Zm176 12 3 3 4-4c5-4 8-9 8-10l-4-3-6-2-4-2-2 4c-3 8-2 10 1 14Zm-368-5c8 5 11 8 9 10a666 666 0 0 0-17 17c1 1 2 1 11-7l8-6 1 6c1 6 1 8 3 7l1-9 1-8 6-4c7-3 10-6 9-7l-8 3-8 4 1-9c2-10 0-11-3-2l-3 7c0 1-3-1-5-4-4-6-9-9-16-10h-5c-1 2 6 8 15 12Zm-22 16 2 2 8-3 7-2-4-4c-4-3-5-4-9-1-4 2-5 4-4 8Zm590 2c1 3 5 3 5 0l-2-5c0-4-2-5-3-3v8Zm-115 22c2 5 2 10 3 19 0 8 1 11 2 11l1 1 1-6c2-5 2-7 0-17-2-13-5-22-6-23h-2c-3 0-2 5 1 15Zm30 32-28 24c-12 11-21 12-37 7-9-2-9-2-12-1l-4 7-10 18c-14 24-15 26-15 33 0 6 6 24 9 27 2 1 2 1 2-7v-11c2-3 4 1 6 11 1 8 4 14 6 13v-14l1-5c1 0 2 2 3 8l2 9c2 4 6 3 16-1 13-7 15-9 15-15 0-8-2-17-5-22l-2-6c0-2 9-1 10 0l2 17 1 16 10-6c16-10 53-37 59-43s7-26 1-38l-4-10c0-3 0-3 2-2 3 3 7 10 9 16l2 16 1 10 9-9a165 165 0 0 0 38-54l1-4-7-1-13-2h-6l-4 8a1140 1140 0 0 1-5 8l1-7 1-7-13 6c-14 9-18 8-4-1 15-9 14-8 8-12-7-4-7-5 3-3l8 2c1-1-9-23-10-23l-7 8c-7 11-16 20-40 40Zm73-36c6-7 8-12 4-12l-7 8c-7 11-5 12 3 4Zm-156 24c5 14 14 27 22 33l4 2-2-2-7-11c-7-11-10-17-11-25-1-5-2-7-4-7l-3 2c-1 1 0 3 1 8Zm192 11a371 371 0 0 1 44 75c0 4 3 8 5 7 2-3-3-20-10-34-4-8-16-25-23-34a96 96 0 0 0-21-22c-1 0 1 4 5 8Zm-9 15c9 12 17 31 19 47 0 6 0 7 4 10 7 5 7-1-1-20-8-21-14-33-20-40-5-5-6-6-7-5l5 8Zm-91 5c3 6 6 16 7 22 3 17 3 16 4 14 2-4 1-17-1-24-3-13-11-27-14-24l4 12Zm-19 52c1 1-1-14-3-19-2-4-11-15-11-12l14 31Zm79-11c1 18 3 28 9 43 7 19 12 29 20 38l9 8c4 0 1-7-6-17-13-18-18-32-24-67-2-15-4-22-5-23-2-2-2-2-3 0v18Zm-98 11 3 19c1 1 3-8 3-14 0-10-5-26-9-29-1-1-1-1-1 2l4 22Zm-39 40 4 2c1-1-5-20-6-22-2-1-4-1-5 1s4 15 7 19Zm-400-4 2 1 4 1h5c4 1 5 6 8 19l3 12c4 3 4 0 1-14-3-16-4-19-7-21-3-1-9-1-13 1l-3 1Zm60 102c10 25 10 27 11 60 0 28-1 46-3 46l-5-29a621 621 0 0 0-37-140l-5 7c-3 8-3 8-1 6l4-2c3 0 9 19 20 59 18 69 18 87 3 143l-7 27 7-15c4-12 6-15 7-15 2 1 1 8-3 21-4 12-8 27-7 29l29-84 3-21c1-13 2-16 4-14l1 15c-1 19-4 34-13 60s-9 25-7 23 13-27 16-37c6-20 9-44 8-77-2-44-4-53-18-91-8-22-11-29-13-29h-1l5 15c13 33 20 58 22 77v37c-2 3-3 0-3-9 0-12-2-27-6-42a1368 1368 0 0 0-43-112l32 92Zm-56-80c3 0 2-3-1-7-3-3-4-4-4-2 0 3 3 9 5 9Zm345 78a667 667 0 0 0 31-72c0-2-1-2-4 2-10 16-28 61-27 70Zm57-6c-1 16-1 18 1 18 1 0 2-5 3-35 2-47 2-48 0-48a1128 1128 0 0 0-4 65Zm178-33-20 19c-6 4-21 14-29 17a514 514 0 0 1-56 19c-2 2-2 3-2 8 2 15 4 26 8 35a233 233 0 0 1 15 96l1 33 2 4 7 6c4 2 12 3 13 1l-2-8-2-8c0-2 5-4 6-4l1 9 1 10 8-9c8-9 12-12 8-6l-11 21c-2 6 0 9 7 13l6 3 2-3c2-7 2-8-4-10l-6-2 6-3 8-3 1-9c0-5 1-8 2-9l3 3c3 5 2 8-4 28-4 16-7 28-7 34 0 3-1 4-4 7l-4 3 2-6c3-9 5-16 3-21-2-6-7-11-15-14-4-2-6-2-9-1-6 2-9 5-9 10l1 5 6-4 5-4-3 6c-2 5-2 7-3 23-1 13-1 19-3 27-6 23-6 28-9 105-1 41-4 60-10 82-5 20-14 35-27 49-10 11-11 12-6 23l1 5-4-5-5-5-3 13c0 1 2 2 7 3 9 3 11 2 15-7 4-7 6-9 9-9 1 0 2 1 2 3s-2 4-6 9c-11 12-10 9-1 21l10 12c2 1 6 0 12-4 7-5 14-8 19-8l8-2c3-3 3-5 0-15s-4-23-3-39c1-19 4-26 24-66 23-46 22-44 29-63l7-21c1-1-1-3-8-10l-10-9 3 11 2 11c-1 2-2 1-5-6-3-8-5-8-7 1-2 10-3 8-3-4v-11l-9 4-10 3c-2-1-2-1 10-8l10-7-12-3c-13-3-15-3-14-5s3-1 15 1l14 2-8-11-10-11h2c2 2 18 15 19 14l-1-13c-2-14-1-16 3-6 2 5 2 8 2 16 0 10 0 12 5 18l8 11 6 8c1 0 3-2 5-8l2-7-7-2c-7-1-10-3-10-4h23l-1-28a37863 37863 0 0 0-1-53c-6-13-9-25-9-31 0-4 1-6 3-9l3-3-2-16-2-26c0-9 0-10 9-29l9-30c4-18 5-22 7-42 1-22 1-22-1-42-2-16-2-21-1-26 6-40 7-44 13-54 2-6 3-8 2-11l-1-3-3 1c-5 1-23 16-38 30Zm-197 27 1 3 1-3c2-2 3-8 5-26a1513 1513 0 0 1 1-30l-3 1-5 55Zm-382-32c-1 2-6 0-8-3-2-5-4-7-7-7-2 0-2 0-1 2 0 3 1 4 13 13l9 8 2-6c4-7 3-6 1-8l-3-3-2-7-3-6-2 1c1 3 2 15 1 16Zm-22 11c-5 0-6 0-6 2l2 5c1 2 2 2 4 2 4-1 14-8 14-10h-7l-7 1Zm32 13c3 5 3 5 3 3 1-4-1-10-4-11-2-1-2-1-1 1l2 7Zm-14 1c-2 9-2 10-1 10 2 0 5-17 3-18l-1-1-1 9Zm17 31c4 11 2 12-9 2l-10-6-3 2c-2 1-2 2 7 7 11 7 15 10 15 12l-5 8c-10 13-13 19-9 21 2 1 4-2 10-14l8-11 4 11 4 10c1 1 1-2-1-12-2-14-1-19 5-26l4-5 1-3-1-2-5 6c-6 11-9 10-11-2l-3-10h-3c-2 1-1 5 2 12Zm404 24c-9 0-10 0-17-3-16-9-19-10-25-11-7-1-12-1-28 2-12 2-24 3-31 1-6-3-8-2-11 0a607 607 0 0 0-37 92c-3 6-3 7-3 19 1 17 3 34 8 54 5 24 6 30 7 61s2 37 9 52l7 20 7 24c8 21 9 26 10 50v21l-3 5c-3 4-7 9-17 17-7 7-14 12-14 11l-1 3v3l-4-2c-4-1-4-1-8 1-3 1-3 2-3 6 0 5 0 5-13 2-10-1-15-1-29 4-7 2-8 3-11 6l-3 4 3 3c4 3 9 4 40 4l27-1c8-3 17-7 15-8l-8-3c-9-3-9-4-8-7l12-6v4c0 3 0 4 5 7 4 4 6 4 15 6 9 1 17 3 31 8 3 2 6 2 12 2 11-1 18-6 20-14 1-4 1-6-5-25-10-30-10-34-6-50l7-52c1-18 3-27 6-38 5-20 4-35-3-63-5-19-14-42-29-70l-3-6-3 3c-3 2-3 2-5 0l-3-4c-1-2-3-1-9 5-4 3-5 3-9 3-20-3-22-3-22-7 0-2 1-2 10-1 10 0 11 0 17-2l13-6c8-2 11-5 31-23 12-11 28-29 36-40 7-10 13-16 27-24s21-15 31-29c5-6 7-11 9-16 2-7 1-10-1-10l-12 7c-21 12-20 11-31 11Zm-431 0-1 4 11-5c7-3 10-6 10-6h-8c-6 1-11 4-12 7Zm53 4v-3c-1-3-1-3-5-3l-5 1c0 2 9 6 10 5Zm-17 51c-1 10-2 9-10-3l-8-10-4 3-4 4 8 5c11 9 11 9-5 10l-14 1v7c1 1 2 1 10-1l21-5v2l-10 10c-10 8-11 9-9 10h9l6-6c5-10 6-10 10 2 3 12 6 16 6 9l-1-9v-5l8 3c6 4 7 4 8 2s-4-6-11-8c-3 0-5-2-6-3 0-2 2-4 8-8 5-3 4-5-2-3l-5 1-1-4v-6c1-3 0-10-2-11l-2 3v10Zm498 56c2 11 7 22 9 22 2-1 2-5 0-13l-3-22-2-24c0-6 0-9 2-13 4-11 4-12-1-13l-6-1h-3v19c0 20 1 30 4 45Zm-508 18 8-9c7-8 8-10 6-10l-7 7c-5 5-8 10-7 12Zm313 31c-2 8-2 10-2 37 0 31 1 42 4 42l3-3v-15a249 249 0 0 1 2-73c0-2-2-1-3 1l-4 11Zm-333 4c1 0 6-9 7-13s-2-3-5 3c-4 7-5 10-2 10Zm60 25h2a2167 2167 0 0 1 15-39c-1 0-3 1-5 4-7 8-15 30-12 35Zm449-18c2 6 4 6 12 3 7-3 6-5-2-7-11-3-11-3-12-2l2 6Zm23 52 2-1-3-3c-3-3-3-3-3-9 1-8 0-11-2-5-4 14-2 21 6 18Zm-542 46c12 6 14 6 14 5 1-1-3-4-10-9-10-7-13-8-14-5-1 2 0 4 10 9Zm581 19 1 1 9-3c8-4 12-7 12-9s-4-1-12 5l-10 6Zm-554 65c2 0 2-1 2-9s-1-10-2-10c-2 0-2 1-2 9 0 9 0 10 2 10Zm-2 12-10-8c-11-9-13-11-17-9l-2 4 12 8 11 8c0 2 0 2-10 2-11 0-15 1-15 4s4 3 13 1c10-1 14-1 17 3 2 2 2 2 0 10-2 10-2 11-1 11l3-8c5-12 5-12 7-12l6 3c4 3 11 6 11 4 0-1-5-6-11-10-4-3-4-3-3-7 1-7 3-12 6-16 3-3 4-8 3-9l-7 10c-7 10-10 13-13 11Zm15 1c0 2 12 0 13-1 3-4-3-5-9-2l-4 3Zm-33 25c2 0 3-1 5-3l2-4c0-2-2-1-6 2s-4 4-1 5Zm337 24 4 4h6l10-3c3-2 3-2 3-9 0-11-2-11-3-1-2 13-6 13-22-1-6-5-7-6-7-4 2 5 5 10 9 14Zm-277 2c-3 3-3 7 1 10 3 2 7 2 16-1 7-2 7-2 10-1 4 3 7 2 10-1 4-5 6-9 5-10-1-2-11-2-26-1-13 1-14 1-16 4Zm122-2-9 10c1 1 6 2 19 2h18l2-3c2-2 5-10 4-11h-26l-8 2Zm-78 10c0 2 0 2 33 1 26-1 30-2 32-5s2-7 0-7a378 378 0 0 0-58 0c-3 2-7 8-7 11Zm117 4a688 688 0 0 1 40-10l-1-2-11-1c-15-3-24-2-26 0-3 2-4 13-2 13Zm-211-10-9 2-2 3 2 3c3 4 4 4 14 3 12 0 17-2 21-5l2-3-3-3c-2-2-4-2-9-2a83 83 0 0 0-16 2Zm-71 8c-2 0-3 1-4 3-2 3-2 3 0 5s4 2 14 2h11l-2 4-2 4 15 13c19 16 26 21 31 21 3 0 3 0 2-3l-6-7c-8-6-18-18-11-13l14 11c12 9 18 13 20 10 1-2-4-7-25-24-13-10-16-12-19-12-4 0-4 2 0 7l2 4-6-4c-7-4-11-10-9-11 2-2 8-3 17-4 10-1 13-3 13-7l-2-3a1612 1612 0 0 0-53 4Zm-69 5c-6 1-7 1-7 3 0 4 2 10 4 12s7 1 34-3c20-2 24-4 26-8 1-3 1-4-1-6-2-3-5-3-30-1l-26 3Zm188 2-68 5c-3 1-3 1 14 16l21 18c5 4 10 5 25 1 12-2 15-2 53-3 72-2 115-4 158-8 14-1 21-3 21-6s-7-3-35-3a130 130 0 0 1-38-3l1-7c2-5 2-6 1-8l-2-3-27-1a1298 1298 0 0 0-124 2Zm-250 8c-2 2-2 3-1 5 0 4 5 10 8 12 3 1 3 2 2 9l-1 7-4-2c-6-4-6-1 0 7l5 8-4 2-9 8-8 9c-2 3-3 4-2 5l70-1h20l3-4c5-4 7-11 6-13l-7-2c-6-1-10-2-9-3v-4l-8-8c-13-11-10-10 5 1 10 7 16 10 18 8v-3c-1-2-38-27-40-27l-3 2c0 1-1 2-5 1l-6-1 3 4 1 3-9-3-2 3c0 3-1 3-7-1l-5-4 4-2 21-5 18-4-6-12c-1-2-8-2-16-1-26 3-31 4-32 6Zm121 4 10 10c32 26 33 27 35 27 4-2 2-5-5-11-13-11-25-21-24-22 2-2 7 2 22 15 16 14 22 17 23 14 0-2-6-8-16-16-10-7-16-12-20-17-1-3-3-4-4-4a534 534 0 0 0-21 4Zm-174 15c-1 2-1 3 1 4 1 2 4 2 23 2l21 1 3-3c4-4 4-7 0-12-4-6-8-8-14-8-4 0-7 1-19 7l-15 9Zm163-7 4 6a707 707 0 0 1-20-11c-3 0-5 2-3 3l18 13c15 11 28 19 29 18s-3-6-11-13l-8-7c1-1 9 5 19 12 10 8 15 10 16 8 2-1-2-6-15-17-26-21-26-21-31-21l-4 1 6 8Zm376 1c-3 6-2 8 3 11 5 2 21 7 29 8 9 2 16-1 23-8 4-3 6-6 6-7l-15-7c-17-7-24-8-34-6-8 2-10 3-12 9Zm-403 2 3 6-9-6c-7-5-9-6-10-5-2 3 0 5 10 13 12 9 14 11 14 16-1 3 1 6 4 6 2 0 2 0 2-3v-3l5 3c3 3 7 4 9 2 1-1-1-4-9-10l-11-10 16 10c11 9 19 11 19 7a680 680 0 0 0-46-33c-1 1 1 4 3 7Zm-27 1 27 20c2-2 0-4-11-13-14-11-13-10-15-9l-1 2Zm645 29c2 5 4 7 6 5 1-1-1-26-2-29-1-1-2-1-3 2-2 4-2 18-1 22Zm-249-18c0 3 15 11 26 14 9 2 24 1 29-2l4-2c0-1-11-6-20-8-8-3-24-5-28-5l-7 1-4 2Zm-433 7c5 3 7 6 7 11l-1 4 5-1c6 0 6 1 2 6l-3 5c0 2 3 1 7-3 5-5 7-6 17-6l13-1c3-1 3-1-13-12l-12-9 7 8c5 4 8 8 8 9-2 1-9-2-14-6l-9-8-3-1 2 3 6 6c3 4 3 6 1 6l-13-9c-12-9-13-10-13-8l6 6Zm382 0c0 2 6 5 13 6l12 6c5 2 8 4 12 4l37-4c2-1-2-4-9-6l-11-5c-10-6-23-8-40-6-9 1-14 3-14 5Zm-476 3v18c1 2 1 2 6 2 6-1 44-18 49-22l4-3c0-3-30-4-46-2-8 1-12 3-13 7Zm598 7 2 17 2 18c2 4 8 4 16-2 7-5 7-10 4-33l-2-14-12 5c-11 6-11 6-10 9Zm-187-9-4 10c1 2-1 3-1 0l-5-5c-4-4-4-4-13-4l-65 4c-4 1-5 4-5 11 0 5 0 7 2 8 1 1 12 1 62-1 82-4 110-6 110-8s-12-8-16-8c-3 0-5-1-11-5l-8-5h-12a252 252 0 0 0-34 3Zm-343 3c3 3 3 3 5 2 1-2 1-2-2-4-4-3-4-4-6-2-1 1 0 2 3 4Zm25 8c3-1 2-3 0-6l-7-4 2 5c3 5 4 6 5 5Zm-63 8c-19 9-21 10-18 14 1 2 11 3 15 2l3-3 5-4a320 320 0 0 0 25-22c-1-2-2-1-8 2l-22 11Zm540-6-9 4c-2 2-3 6-1 14l2 14-1 9c-2 0-2-1-5-19l-3-17c-1-3-2-3-27 1-20 3-22 3-24 6-2 2-2 3-2 6l2 20c3 24 3 25 5 26a557 557 0 0 0 86-24c3-2 4-5 3-15a320 320 0 0 1-2-30c0-3-4-2-10 1l-14 4Zm-309-4c-22 1-24 2-28 8-3 6-4 6-4 0v-5h-19c-34 1-38 2-43 10-4 4-8 13-5 12a3282 3282 0 0 1 148-9c2-1 2-2 2-8 0-10 0-10-15-10l-14 1-22 1Zm-222 22c-8 8-10 12-10 19l2 18c1 17 1 16 12 18 10 1 11 0 11-14 0-12-2-25-4-28l-6-4-4-1 7-3c3-1 8-3 9-5 5-4 12-14 12-18 1-3 0-4-4-2s-17 12-25 20Zm375-1c-1 2 1 43 3 50 1 6 2 6 28 4a161 161 0 0 1 25-1l14-2c15-2 15-2 15-13a491 491 0 0 0-7-42c-2-2-11-2-47 0-28 1-30 2-31 4Zm-93 2c-3 2-3 4 0 31 1 15 2 21 4 22 1 2 4 2 43 2 36 0 41 0 41-2l-1-15-2-26c0-11 0-13-2-14l-4-2a1157 1157 0 0 0-79 4Zm-95 10 1 16c2 14 2 14 0 16-3 4-4 1-6-20-2-18-2-19-4-19l-56 4c-3 2-3 4-2 16a371 371 0 0 1 4 37l20 1a29601 29601 0 0 1 131-5c5 0 5-3 4-13l-3-24c-1-21-1-20-15-20l-40 3c-30 2-32 3-34 8Zm-213 36c5 4 9 6 11 4 2-1 1-36-1-39l-4-4-19-3h-2l3 13c4 17 6 23 12 29Zm690-31c-7 5-9 8-6 11 4 4 29 8 43 7l8-2-4-10c-7-11-11-15-19-16l-8 1c-4 1-7 3-14 9Zm-599-6 2 22c2 24 3 26 9 28l19 1 16 1 2-2c2-3 2-4 3-19 0-17-1-28-5-32-2-2-2-2-27 0l-19 1Z"/>
          <g id="pitcher-text" visibility="hidden" transform="translate(147 182)">
            <path d="M102 13c3-3 7-5 10-5 4 0 9 3 9 5 0 3-11 41-13 44l-4 2c-3 0-6 3-5 4s17 6 19 5c1-1 1-3-2-5-3-3-3-4 0-15l7-21c4-13 5-15 11-13 5 2 7 5 9 11l2 5c2 0 7-14 6-15L102 0l-3 5c-3 9-1 13 3 8ZM65 97l4 2c1 1 5 44 4 46l-4 3-3 4c0 1 2 2 14 0 5 0 6 0 6-2l-3-3-4-2-3-23-2-22 4-3c5-5 5-6-3-6l-10 1c-5 0-5 3 0 5ZM111 205l5 1 9 21 8 22-23-19-25-20-11 5c0 1 4 3 7 3l3 1c2 2 17 40 17 42l-2 4-1 4c0 2 1 2 6 0 7-3 11-5 11-7l-5-2c-5-1-5-1-8-8l-11-27a682 682 0 0 0 37 31c5 3 9 1 9-4l-9-24-9-24 2-4c3-2 3-5 2-5-1-1-4 1-9 2-10 4-11 6-3 8ZM60 283c-5 1-5 4 0 6l4 2-2 11-6 16c-1 0-14-22-14-24l3-3c4-2 4-4 2-5-1-1-17 1-18 2-2 2-2 3 2 5 3 1 5 4 12 15 13 21 15 30 9 34-3 2-4 5 0 5l9-1c9-2 11-4 5-6-3-1-5-3-5-4-2-5-1-16 3-30 3-12 4-15 7-18l3-5H60ZM46 427c3-2 7 1 7 4v2l-4 24c-5 24-5 29-3 32 2 2 2 5 0 5l-10-4c-9-5-10-7-4-8l6-2c2-3 3-10 2-12l-16-8c-2-1-3-1-7 3-4 5-4 7-2 10 3 3 3 6 1 6l-15-7c-2-2 0-4 3-4l5-1 17-19 1-1a1048 1048 0 0 0 19-20Zm-10 15-7 8-2 3h-1v1c0 1 1 2 7 5l8 3 4-13v-2l2-14c-1-2-3-1-11 9ZM70 534c-2 1-2 1 6 4 2 1 2 1 2 24l-1 25c-2 3-1 3-15-21l-11-20 4-4c5-6 4-7-8-4l-11 3c-2 1 0 4 4 5l4 2 1 25c-1 20-1 24-3 24-1 0-24-39-24-43l3-4c4-3 4-5 1-5-4 0-18 4-19 5s0 3 3 4c4 0 6 3 19 26 12 21 14 24 17 24 4 0 5-3 6-24l1-21c2-2 3 1 13 19 9 16 12 19 15 17 4-2 4-5 4-26 1-25 1-32 4-35 5-5 2-6-9-3-3 0-6 2-6 3ZM67 637c4 0 6 2 24 26 13 17 14 18 18 19 6 1 5 3-5 7l-10 4c-2 0-2-3 1-6l2-4c0-3-6-10-8-10l-10 3-8 4v5c0 7 2 9 5 9 4 0 6 1 6 3 0 1-13 7-16 7-2 0-3-2-1-4l3-4-3-28-2-25v-4l4-2Zm1 7c-1 0-2 1-2 4l2 13v1l2 12c1 1 14-5 15-7 1-1-15-23-17-23ZM59 721c1-1 0-2 13 4 9 3 12 5 16 9 8 8 9 15 4 23-3 4-7 6-12 7-9 1-9 1-3 17 4 11 4 14 1 14-5 0-8-6-9-18-1-7-3-12-7-14-5-2-7-1-10 8-1 4-1 4 1 7 3 4 3 7-1 5l-9-3c-8-3-8-6-2-7l5-1 9-21 9-21-3-4c-2-2-2-4-2-5Zm5 22-6 14c0 1 9 4 16 4s12-2 14-6c2-5 2-6 0-11-3-4-5-6-11-10-7-5-8-5-13 9ZM30 827h3c10 1 13 1 17 3 15 7 21 24 12 39-7 13-18 19-38 20-7 1-8 1-8-1-1-1 0-2 1-2l3-3 3-2-1-21-2-24-5-3-3-3c0-1 2-2 5-2l12-1Zm-4 7v24l3 23c1 2 1 2 6 2 7-1 13-4 18-9 13-11 10-30-6-38-7-3-20-4-21-2ZM47 936c10-5 29 1 28 8 0 4-4 4-9 0-9-7-16-7-21-3-3 3-3 6 0 9l14 7 12 8c2 4 2 10-2 15-3 5-10 11-16 14-8 3-19 1-20-5-2-6 3-14 12-21l6-5-6-5c-7-3-9-6-8-11 2-5 5-9 10-11Zm4 32c-9 4-15 16-10 21 3 2 9 3 13 1 7-4 13-14 11-20-1-4-8-5-14-2Z"/>
          </g>
        </g>
      </svg>