<svg xmlns="http://www.w3.org/2000/svg" viewBox="0 0 219 377">
  <g fill="#4D41A1">
    <path d="M26 1c4 2 6 7 2 5-1 0-2 0-2 2-1 2-1 2-2 1-2-3-3-3-2 1 0 2 0 3-2 4l-3 3c0 3-3 2-5-1s-1-5 2-3c2 1 2 1 2-1l-2-2c-3 0-6-3-5-4h6l2 1 2-1-1-1-2-2 2-1 2-1h6ZM212 3c-1 2 0 3 1 3 2 0 4 2 4 5 0 2 0 2-2 1-3 0-4 1-2 2 1 2-1 6-3 7l-3 1c-1 0-2 0-2-2 0-4 2-7 4-7s3-3 1-4V7l-1-1c-2 1-2 0 0-3s3-3 3 0ZM44 8l1 3 3 3c0 3 0 3-2 2l-4-2-2-1c-2 0-1 3 1 5s3 6 1 6l-3-2c-3-3-5-1-2 1l2 3h-4c-1-1-2 0-3 1v3c2 1 3 8 1 8l-3-3c-2-2-3-2-4-1l1 3c2 2 2 3 1 7 0 3-1 2-4-1s-5-2-3 1c2 2 3 6 2 6-1 1-2 0-4-2l-3-2c-1 1 0 7 1 8 1 2 0 8-1 8l-3-2-2-1H7l-4 2v-1l3-2c1-2 1-2 3-1 2 2 2 2 2 0 1-2 0-3-2-2v-1l1-1 3-2c1-1 1-1-1-1h-2v-1l-1 1H6c-2-1-2-3 1-3 2 0 3-2 1-2l-1-2c1-1 7-2 9 0l2-1c1-1 1-1-1-1s-4-2-3-3c1-2 5-1 6 0l2-1c2-1 1-2-1-2l-3-1c-1-1-1-1 1-3 1-1 6-2 6 0l1 1 1-2 1-1 1-1-2-1-3-1c-1-2 2-3 6-3 4 1 4-1 1-2s-4-3-1-4c2-1 5 0 5 1h1c1-2 1-3-1-4-3 0-4-3-2-3h4c3 1 4 0 2-2-2-1-2-1 0-2l2 1 2-1c1-2 1-2 1 1ZM12 47l2 2v-2c1-1 0-1-1-1-2 0-2 0-1 1ZM8 10l2 4c-1 1 0 3 1 4s2 6 0 6l-4-3-5-4-2-2v-3l2 3c2 2 2 2 4 0v-1c-2 0-4-3-4-5l6 1ZM3 19l-1 2v1H1v-4l2 1ZM217 23c2 2 3 8 1 8l-4-2c-2-2-3-1-2 2 0 2 0 3-2 4-4 1-6 1-6-1 0-3 3-6 5-6l1-2c0-5 4-7 7-3ZM7 26c3 5 3 5-1 4-2 0-2 0-2 2 1 1 0 2-2 2s-2-1-2-5c0-5 0-5 2-4l2-1c-1-4 1-2 3 2ZM199 25c2 3 1 6 0 5l-3 3-1 1-2-1-2-1c-1-1 1-3 4-3 2 0 2-1 2-4 0-2 2-1 2 0ZM187 31c-1 1-1 2 1 3 2 2 3 6 1 6l-3-1h-1c-1 1-1 0-1-2l-1-4 1-2c3-3 3-3 3 0Z"/>
    <path d="m215 35 2 4v3l-4-1c-3-1-3-1-2 1l-1 2v3l1-2c0-2 2-1 3 2 2 5 1 7-1 7l-3-1-2-1-1-1v-3c2-1 1-2-1-1-3 0-3 0-3-2l2-5c3-2 3-2 3 0 1 1 1 0 1-1 0-4 3-6 6-4ZM196 37c2 0 4 3 4 6 0 2-1 2-4 0-2-2-3-2-4 1s-1 3 2 5l2 4c0 2 0 2-4 0l-3-3c1-2 0-2-1-2-3 0-4-1-3-3h-1l-2 1h1c2 2 1 3-1 6l-3 4c0 4-3 10-5 10s-2-1-1-3l1-4c1-1 2-2 1-3l2-4 1-6 2-5h4c3 2 8 1 9-2 0-2 1-3 3-2ZM2 40v2c-1 1-2 0-2-2h2Z"/>
    <path d="M188 52v6c-1 1-1 1 0 0 1 0 5 3 5 6 0 2-2 2-6 0-3-2-4-4-2-5s1-2-1-2c-3 1-4 0-1-4 1-2 3-3 5-1ZM206 53c2 1 3 4 1 6l-1 2 2-1c1-1 1-1 2 1 3 3 3 9 1 9-3 0-2 4 0 6 1 1 2 2 1 3s-1 7 1 9l1 7c0 5 0 6-2 5-5-1-6-1-6 1s0 2 2 1c3 0 7 1 7 3 0 1 1 2 2 1l1 3c0 3-2 5-3 3h-4v-5h1c-1-3-4-2-4 0v3c1 1 2 4 1 6-2 2 0 2 3 1 3-2 3-2 4 0l-2 3c-2 1-2 1 0 3 1 2 1 7-1 7s-4-4-3-7v-3h-1l-5-5-2-3h-2c-1 0-1 1 1 3l2 3 2 2c2 0 3 1 3 5v5c-1 2-1 3 1 3l3 4h-6c-2-1-3-4-1-4 2-1 1-2-3-3l-4-2-2-1-2-2c-1-2-1-2 1-3l3-1-1 3v1c3-2 4-9 2-8-1 1-1 1-1-1v-1l-1 2c1 1 0 2-2 3-2 2-3 2-2 4l2 4c2 2 1 6-1 7-2 2-3 2-2 4v2h2l2-2-1-2c-1-1-1-2 4-3 4 0 6 2 4 5-1 1 0 2 1 3 3 3 2 7 0 7l-4-2-1-3-1 3 1 4c3 5 0 8-4 5-4-2-5-5-3-7 2-1 2-1 0-3-2-1-3-3-2-3l-1-1c-2 0-1-5 1-5 3-1 2-3-1-3s-4-2-1-5c1-2 3-3 3-1l1 2v-2c0-3-1-4-2-2-2 1-3 1-3-1l2-2c3-2 3-3-1-3l-2 1 2-2 3-1c0 1 3 0 3-2l2-2c1-1 2-2 1-3h-2l-4 2c-2 0-1-4 1-5 1-1 2-2 1-3l-6 4-1 1c-1 0-2-1-2-3s2-5 3-4 1 0 2-1c1-3 4-5 5-4l-1 3c-1 2 0 3 2 2h3v-2l1-4c2-1 2-1 2 1 1 1 1 1 3-2 3-4 3-6 0-4-4 3-6 2-5-3 0-4 1-5 2-5 2-1 3-5 1-6-2 0-2-7 0-9l3-1h1l-1-2c-2 0-3-4-1-4l1-1c0-1-1-2-3-1-2 0-3 0-3-2s3-6 5-6l2 1Zm-2 22 2 2c1 0 2-2 0-2h-2Zm3 11 1 4 1 2 3 1v-2l-1-2-2-3c-3-2-4-2-2 0Zm-10 19c-2 1-2 1-1 2l2 1c2-2 5-1 5 1s0 2 1 1l1-2 1-1c0-2-5-2-9-2Zm5 19c0 2 0 3 1 2l2-2-1-2c-2-2-2-1-2 2Zm-5 17c0 2 1 3 3 1s1-3-1-2l-2 1ZM7 53c0 2 0 2-1 1H5c0 1 0 2-1 1l-1 1 1 1 1 1-2 1-2-1v-2c-1-2 1-4 4-4 2 0 3 0 2 1ZM182 60c1 1-1 3-2 2s0-3 1-3l1 1ZM12 63l4 2c1 2 1 5-1 4l-1 1c0 2-1 2-4 1s-4-1-1 2l2 3v4c1 2 0 3-4 2-3-1-6-5-4-6l-1-2v-1c2 0 3 2 3 4l1 1v-5c-1-3 0-6 3-6l2-1-3-1H5l2-1 1-1 1-1 3 1Z"/>
    <path d="M186 66c2 3 3 5 1 7l-2 2-1 3v2l1 3c1 3-1 4-4 1-2-2-3-1-2 2 0 2 1 3 3 4 2 0 3 1 3 2h-4l1 1c1 0 4 6 3 7s-7-2-9-4c-1-2-1-2 1-3l3-2h-3c-3 3-5 2-5-2 1-3-2-7-3-5v1l1 2-1 2c-3 0-2 1 0 3 2 0 3 2 4 3 1 2 1 2-2 2-4 0-5 0-4 4l1 2 1-2c3-3 4-3 9 0 4 1 6 5 4 5v1l1 8-4-1c-5-3-5-7-1-7 2 0 3-2 1-3l-2 1h-1c-2-4-2-4-2-2 1 4-1 6-4 5s-5-2-4-4l-2-1-2 2c-1 2-1 2-3 1l-4-3c0-3-2-2-2 1l-2 3c-2 0-2 0 0 2 3 1 3 1 3 5 0 3 0 4-2 4l-4-3c-3-3-4-3-4 0l-2 3c-2 1-2 2-1 2 3 0 4 3 3 8l-2 8c0 3-1 4-2 2h-3c-1 1-2 1-3-1-2 0-3-2-3-2l-3-1c-1 0-2 0-1 1 2 0 1 3 0 5-2 1-2 1-1 2 3 2 3 7 1 10l-2 3-4 4c-1 0-4-6-3-7l2-1 1-1c0-3 0-4 2-4l1 3-2 3v1c1 0 4-2 3-3v-4l-1-3-1-2v-2l-6-2h-4l-4-2c-3-1-3-3 1-3 1 0 2-1 1-2 0-1 5-1 6 1 1 1 1 1-1 1l-3 1h2l4 1c2 1 7-1 8-4l1-2v-1l-2 2c0 2-4 4-6 2-1 0-1-1 1-2 1-1 1-1-1-1l1-2 3-1 6-1v-3l2-1 3 1c0 1 1 2 2 1 3-2 3-3-1-4-3-1-4-2-1-4v-3c-2-1-2-1 0-4 3-2 7-3 7-1l-1 1-1 2c-1 1 0 2 1 1l1-1 3-1c3 1 4-1 1-2-3 0-4-1-1-4h7v-2c-3 1-2-1 0-3l4 2 3 3 2-3c2-1 3-3 2-4 0-2-2-2-2 1l-2 2h-2l-2-2c-3-2-6 0-6 1 1 2-2 3-5 2-2 0-2-1-1-2l3-1c2 0 2 0 0-2-1-1-1-1 1-1 2 1 10-3 8-3-3-1 0-3 3-3 3 1 3 1 3-1-1-1 0-2 2-3 3-2 2-5-2-4-3 1-3 0-1-3 3-3 5-3 4 0 0 4 2 4 4 0 1-2 6-4 9-4 1 0 1 1-1 2l-3 3h2l5-2v-1c-1 1-2 0-1-2 0-2 1-3 3-1 1 1 1 1 0 0l-1-3h2l1 1c0-1-3-4-4-3l-1 2-2 2c-4 0-1-5 4-6 2 0 3 0 5 2Zm-11 13c-2 0-1 2 1 2h2c1-2 1-3-1-3l-2 1Zm-8 2 1 1c3 0 5-1 5-3 0-1-5 0-6 2Zm8 4 1 2c-1 1 0 0 0 0v-3c-2-2-2-2-1 1Zm-10 1c0 1-1 2-2 1v1h3v-3l-1 1Zm-6 5c-2 2-3 3-2 4 0 2 1 2 2 0l1-2 3-2c2 0 2-1 1-1-2-1-2-1-5 1Zm7 3h2l-1-1-1 1Zm-35 33c-1 3 0 6 1 5l2 1 2 2v-1c-1-1-1-1 1-2 3 0 4-4 2-6s-3-1-2 1 1 4-3 4h-2l2-2c2-1 2-2 1-2l-1-1c0-3-3-1-3 1ZM34 80c3 3 3 4 0 4-3 1-3 1-2 5 0 3 0 3-4 0-3-2-5 0-2 2 2 2 3 8 1 8l-3-2-4-1h-4c-5 0-6-1-3-4l4-1c3 1 6-1 6-3h-1l-4 1-2-1 2-2c3-3 4-3 6-1s2 2 2 0v-2h1c3 0 3-2 0-2l-3-1v-1c4-1 9-1 10 1ZM4 82l2 3 1 1c1 2-1 6-2 6l-2 2c-1 3-3 2-3-1 0-2 1-2 3-2 3 0 3-1 0-4-2-2-3-3-2-4v-2c1-2 2-1 3 1Z"/>
    <path d="m10 93-1 3c0 2 1 2 4 2h7c3 0 4 1 4 3l1 3c-1 1-5-1-6-2h-3c-2 1-7-1-7-3-1-1-1-1-3 1-3 3-2 4 2 3 4 0 4 0 5 2l-1 5-1 2-2-2c-2-2-4-3-4-1l1 1c1 1 0 1-2 1l-4-2 1-1c1 1 1 0 1-1l1-1 1-1-2-1c-1 0-2 0-1-1v-2l-1-1 2-1c2 1 4-1 4-4l2-4 2 2Zm-2 14 3 1c2-1-1-2-3-2s-2 0 0 1Z"/>
    <path d="m20 104 2 5c0 3 0 3-5 1l-3-4c1-3 3-4 6-2ZM168 109l1 3c-1 1 0 2 1 2l2-2 1-2 1 1c-1 1 0 2 2 3l3 4c2 3 4 3 3 0 0-3 3-1 4 3 1 6-3 8-10 6-2-1-2-1-1 1 2 1 2 2 1 4-1 1-1 2 1 2 2 1 4 5 3 7s-1 1-4 0c-4-3-5-5-3-7v-1c-2 0-2-1-2-3v-3l-1-1 2-1c1 1 1 0 2-1l2-3 1-1h-1l-4 1c-4 0-10-4-10-8 0-3 4-6 6-4Zm2 7 1 2c1 0 2-1 1-2l-1-1-1 1ZM15 111c3 2 2 3 0 3s-2 1-2 3c0 4-1 5-4 2-2-1-3-2-3 0l2 1 1 1c0 2-2 2-5 0l-3-1c-1 1-1 0-1-2s0-2 2-1v-2c-1-2 0-3 6-3 3 0 7-1 5-3l2 2ZM127 120c1 2-3 4-6 3-2-1-2-1 1-2 3-2 4-2 5-1Z"/>
    <path d="M167 122c2 1 3 4 1 3l-2 1 2 1c1 1 2 1 1 3v5l-1 2-3 2c-1 2-2 2-3 1-2-1 0-5 2-6l2-4c0-2 0-2-2-1-4 2-6 0-4-5 2-3 4-4 7-2ZM27 126l1 1v2l1 5c-1 4-3 5-7 2-3-2-4-1-1 2 2 4 3 5 1 5s-2 0-1 2 1 2-1 2c-3 0-6-4-5-5l-2-1c-2 0-2 0-1-2l3-1c2 1 2-1-1-3-2-2-2-2-1-3l5 1h2l-2-2-1-2c1-2 5 0 5 1l1 2 1-1v-2c1 0 1-1-1-2l-2-2h2l4 1ZM148 129l1 1 1 2c2 0 3 1 2 3 0 3-2 2-2 0l-1-2-1 3c0 3-2 5-3 3v-7l1-2c-1-2-1-2 2-1ZM114 138c1 1 3 2 4 1l3 1c2 2 3 4 1 3l-2 2-1 2c-1 0-1-3 1-5l-1-1-1 1-1 1-2-1-4-1c-3 0-3 0-1 1 3 2 2 3-1 3-2 0-3 0-3 2s0 2 2 1c1-1 5-1 5 1l-1 2-2 2 2-2 3-3v-2l1-2v1l1 2c2 1 1 4-1 4l-2 2-1 2v1c2 1 2 5 1 8-1 2-1 2-2 1l-2-1c-1 2-1 2-3 0s-3-4-1-5l2-3 1-5c1-1 1-2-1-2-9 0-12-1-6-4 3-1 3-1 1-1l-3-2c0-2 1-2 3-2l6-1c2-2 3-2 5-1Zm-4 20-1 3 1-1 2-1 1-1c0-2-2-1-3 0Z"/>
    <path d="m171 139-2 3-1 3-2 3v4c-2 0-4 3-3 4l-2 2c-1 2-1 2 1 4 3 3 4 2 3-1s0-4 2-6l2-5 2-2c2 0 2-1 2-4v-3c1 0 5 4 6 7 0 2 1 3 3 3 1 0 2-1 1-2l1-2 1-2c0-2 2-4 3-3l-1 3c-1 2-1 2 1 5 2 2 2 4 2 6v10c-1 1-5-3-5-5v-3l1-2v-1c-1 1-1 0-1-1 1-2 0-2-3 1-2 1-2 6 0 6s1 4-2 6l-2 4 4-3 3-3v3c0 3-3 7-4 5h-6l1 2c1 1 2 8 0 8l-3-2c-2-2-3-2-4-1v9c0 2 0 2 1 0s2 0 1 4c0 3-1 4-3 2h-1l-2 1-1-1-2-4-2 2c-1 3 0 3 1 4l2 3 1 2 1-3c0-2 1-3 3-1v5l-1 1c1 1 3-1 4-3l2-2c1 1 0 8-1 10-2 1-3 1-3-1s-1-2-2 1c-2 2-4 0-4-3 0-4-2-4-2 0l-2 3c-2 0-2-1-2-3l-2-4-1-4v-2c-2 1-2 7 0 8s3 5 1 6c-1 1-7-4-6-5l1-2 1-2h-1c-3 0-2-2 2-6 2-2 3-3 1-3l-4 2-1 2-1-1c1-2 0-2-7-1l-1 2h3c2 0 2 0 1 1l-6 1c-3 0-4 1-5 2l1 1c1-1 2 0 2 1l-1 1c-1-1-2 0-3 1s-1 1-2-1h-2c-2 2-4 1-4-1v-3l-1 3-3 2c-1 0-2 0-1 1l1 2 2 2 2 2c-1 2-5 2-6 1 0-1-1-2-2-1-2 0-6-2-6-4l-1-1-1 1-2 3c-1 2-1 2 1 3v2l-3 1c-1 2-1 2 1 3 0 1 2 2 3 1v1l-3 1-1 3c0 2 0 2 2 0l4-2c3 0 4 0 3 2h1c1-1 2-2 3-1 3 2 4 0 2-2h-2v-1c0-2 0-2 2 0 2 1 2 4 2 6s1 3 2 3l3 1h2l2-2c1 1 2 0 3-1s1-1-1-2h-2c0 1-1 2-3 2h-3l3-2c1-2 3-3 2-4 0-1-3-2-3 0l-1 1c-2 1-2 0-1-2 2-3 1-4-2-2h-1v-3l-1 1h-2c-2-1-6 1-5 2 0 2-2 2-3 1-1-2 2-5 4-5v-1c-1-1-1-1 1-2l4 2c-1 2 3 2 5 0 2-3 3-3 4 2 2 5 5 7 4 2-1-2-1-2 1-1 3 1 3 4 1 5v13c0 1-1 2-2 1-1 0-3 4-2 5l1-2h2l2-1 1-3c-1-2-1-2 1-2l3 2c1 3 3 2 3 0v-4h3v5l-2 5c-1 3-3 3-3 0-1-4-3-4-3 0 0 2-1 2-4 2-3 1-5 0-7-2-2-3-4-2-2 1v3l-2 4c0 3-1 5-3 5-2 2-2 3 2 3l3 1c0 1 0 2 1 1l2 1c2 1 2 2 0 4s-2 2-4 1c-3-1-4-4-2-4l1-1-1-1c-1 0-3 7-2 8l-2 2h-4l1-1 1-1c-1-3 0-6 1-7l1-4-1-3c0-1-3-4-4-3l2 4v7c-2 4-5 4-4 0 0-2-1-2-2-2-2 0-2 0-1 1v3c-4 4-7 2-5-3v-2l-3-1-4-1-4-1c-1-1-1-1-2 1l-1 2-2 2-2 2-2 1c-2 0-2 0-1 3 1 4 3 4 3 0-1-3-1-3 2-3 3 1 4 1 5-2 2-3 5-4 5-2l2 1c1-1 2 0 2 1s-1 2-2 1c-3 0-4 2-3 4 0 1 2 1 2-1l2-1 1 2v2l1 1c-1 2-7 5-8 4h-2c-2 3-4 2-4-2s-1-4-3 0l-3 3c-2 0-2 0-1-1l1-3h-1l-2 1-4 3v2l2-2 1-1v4c-2 3-6 5-8 4-1 0-1-7 1-8l-2-1c-2 0-3-1-3-2l-2-1c-3 0-2-2 1-4 3-1 2-3-1-3-2 0-2 0-2 2l-1 3c-1 0-2-1-2-3l-1-4-2-2-2-1c-3 0-3 0-2-3 2-5 1-8-3-8l-3-2c0-2-1-3-3-1l-3 1c-3 0-3 1-4 3l1 4c1 1-1 4-3 4s-2-6 0-8v-2l-1 1-3 2c-2 1-2 1-1 2 2 2 1 7-1 8h-4c-2 2 0 3 4 3l3 1 2 2c2 1 2 1 1-1l1-1 2-2c0-1 1-2 3-2 4-2 5-5 2-4s-4 0-3-2c2-1 6-2 6 0h1l1-1h1l-4-2-5-1 2-1c2 1 2 1 3-1 0-2 1-2 2-1v3l1 1 2-1 2-1-1 2v2c2 0 1 2-2 3-3 0-3 0-2 1 3 1 2 4 0 4l-2 2-1 2-1-1-1-1v3l1 1 1 2 1 2 2-6 3-3c2-2 2-3 3-1l2 1 3 1c1 0 1 1-1 3-1 2-2 2-3 1l-1-2-2-1h-2c0 2 5 6 6 6h2c1 1-1 5-3 7l-2 3c0 2 2 3 3 1l2-1c2 0 3-2 1-3-2 0 3-4 5-4 3 0 6 3 5 5l-2 2v3c1 3 0 6-1 4-1-1-1-1-4 1l-3 3-2-3c-1-1-2-3-1-4l-1-1-1 1-2 3c-2 0-3 1-3 2l-3 4c-3 2-3 2-4 0 0-1-1-2-2-1-2 0-2 1-2 5l-4 2c-4 0-4 0-4-3v-3l-6 3h1l3 2 4 3 3 2c1 1 3 2 4 1 3-1 6 4 3 7-1 1-2 2-1 3l-1 2-3 2h-2c-2-2-2-7 0-8 1 0 2-5 0-4l-1 2c0 1 0 2-1 1l-1 1-1 2-1 1-2 3-1 3c1 3 0 3-3 0-2-1-3-3-2-4l-1-2c-2 1-2 2-1 3 0 2 0 2-1 1-2-1-4 0-4 3l-1 1c-1 0 0-4 2-5l1-1 2-3c2-2 1-4-2-7s-6-5-7-3c0 1-1 2-3 2-3 1-4 4-2 4l2 3c1 4 3 3 3-1l2-6c3-3 4-1 1 7-1 4-1 4 1 3l1 1-3 1-1 2-2 3v5c0 2 0 2 1 1l2-3c-1-3 0-3 2 1l6 4c3 1 3 1 2 3s0 6 1 4l1-3 2-2v2c0 3-5 7-7 6v-5c0-5-1-5-2-4h-2v-1l-3-1H8c1 1 0 2-1 3-2 1-2 1-1 3 1 1 1 1 0 0H4c0 1 0 2-1 1l-1 2v3c-1 2-1 1-1-3 0-3 1-4 2-5l2-2c-1-2-4-3-4 0-1 1-1 1-1-1s1-2 3-2l2-2-3-1c-3 0-2-3 1-4 2 0 4-3 2-4 0-1-1-1-1 1l-2 2c-1-1-2-18-1-26 0-3 1-3 3-3 3 0 4 1 4 4 1 5 1 5 4 4 2-1 2-1 1 1-1 1-1 2 1 3l1 2 2 3 2 3h1c2-1 3-2 3 0l-1 1c-2-1-2 2-1 5h1l3-2c2 0 1-3-2-5l-4-3c-2-1 0-3 2-3s3-4 1-5l-4 4-1 1c-1-1 0-3 1-4l2-4 2-3 1-2-2-1-1-3-1 1c0 2-2 2-5 0-2-2-2-2-1-3 3-2 2-3 0-3-3-1-3-1-3 2l1 4v1H3l-1 1c-2 0-2-2 0-4v-2l-2-3c0-1 2-2 2 0 1 2 3 0 3-2s-3-3-3-1H1c-1-3-1-7 1-8l1 1 3 3 2 3c0 3 2 3 3 0 2-3 4-3 6 1 1 2 1 3 2 2h4l1-3c0-3 0-3-6-4-4 0-5-6-3-9 2-2 3-1 2 1h1v-3l-3-1-1-1c0-2-2-1-2 1-1 4-3 6-6 4-1-1-2-2-4-1-2 0-2 0-2-3 0-2 1-3 2-3v-2l2-1 2-2H4c-3 1-4 1-4-2 0-2 0-2 2 0h1c-1-1 2-3 5-2 2 1 3 3 1 3-3 1-2 2 2 3 5 2 9 1 9-1s1-3 2-3c2-1 2-1 0-1-3-1-3-1-3-3s-1-3-2-3c-2 0-5-4-5-6 1-1 0-1-1-1-2 0-2 0-1 2 0 2 0 2-6 2-4 0-5 0-3-4v-6l3 1c2 2 3 1 3-2l2-2 3-1 2 1h-1l-1 1 3 3c2 0 3 1 3 2v2c2 1 4-1 5-4l3-2 2-2-2-2c-2 0-2 0-3-3 0-3 0-4 2-5l2-1-2-2c-2-1-2-2-1-2v-1l-2 2c-1 1-1 2-2 1l-2 1c-2 2-4-2-3-5 2-3 3-3 6-1 3 1 3 1 5-1 2-3 2-6 0-5-2 0-4-2-3-3l-1-1v-2c1-1 1-1 0 0-3 2-4-2-1-5l1-2-2 1-4 2c-2 1-2 1-1-1 0-1 0-2-1 0-1 1-2 2-4 1-3 0-4 1-4 2l-1 1c-1 0-2-1-1-2 0-2-1-3-3-2v-4l-1-5v-5h5l5 1 4 2 6 3 3 4v1l2 2c3 0 5 2 5 4s1 2 2 1l2 1c1 0 3 0 5-2 3-3 3-3 2-5-2-1-2-1 1-4l4-2 1-2-2-2c-6-1-3-4 5-5 4 0 7-1 7-2l-3-1c-4 1-4 0 0-3 2-2 2-2 0-2-1 1-2 0-3-1-2-1-2-1 0-2h10c2 0 1 3-1 4l-2 2h2c3 0 3 0 3 2l-3 2c-2 0-3 3 0 3l3 1c1 1 1 1 1-1-1-2-1-3 1-4 2 0 4 1 2 2l-2 2c0 1 5-2 5-4l-1-1-3-2c-1-1-1-1 1-1 4 0 8 2 7 3l1 1c1-1 4 1 4 2s-1 3-3 3c-3 2-3 2-4 1 0-2-1-2-3-1l-2 3-2 3v2c2 0 4 4 3 6l-3-1c-1-1-2-1-2 1h-3c-1-2 0-9 2-9 1 0 0-3-2-4l-1 1v1c-2 1-2 1-1 3 1 3 0 4-2 2h-1c-1 4-1 5 1 4h2c0 2-4 5-5 5-2-1-2-5-1-5v-2l-2-1-2 1h-1l-2-1c-1 1 2 3 4 2v1c0 2-3 3-4 2h-1l3 3 1 1-1 4c-1 4-3 4-6 0l-3-3-3 3-3 3 2 2c2 1 2 3 2 6-1 3-1 3-3 3-1 0-2 0-2 2l1 2c2-1 3 0 3 3 0 4 2 6 5 5 3 0 3-1 2-2-2-3-1-4 4-5s5-1 8 2l2 5v3c-2 2-7 2-7 0l-2-1c-1-1-1 0-1 2s0 4-2 5c-2 2-2 2-3 0l-2-5c0-2-1-2-3-2l-5-1-2 1 1 2 1-1v-1c1 0 4 4 4 6s-4 5-6 4l-2 1 1 1 2 2c1 3 6 4 6 2 0-1 1-2 3-1l4-1 2-1c2 0 2 0 1-1l-2-2c0-1 5-3 6-2l3 1c3 1 1 3-1 3-2-1-2-1-1 1 3 2 2 3 0 2-3 0-5 1-2 3h2c2-1 6-2 7 0v3c2 0 4-4 2-5l-1-3 2-1c1 1 2 0 3-1h4l1 2v5l-1 1-1-2-1-2c-3 0-3 2-2 3 2 2 2 3 0 6-1 1-1 2-3 1l-1-2-1-1h-2l-1-1h-1c1-2 0-2-1-1l-2 1c0 1 2 3 4 3 4 1 6 4 2 4-3 0-2 2 1 4 4 1 5 0 5-1l-1-1h-1c-1 0 0-2 2-3 3-2 5-3 4-1h3l1-1 1 2-2 3-2 3v2c-1 0-2 0-1 1 0 2 0 2 1 0l3-1 1-1c0-2 0-2 2-1l1 3c0 2 0 2 2 0l4-2c3 0 0-2-3-2s-4 0-4-2c0-3 2-5 4-5v6l5-3c2-3 3-4 2-6l-2-2c-1 1-1 0-1-1h-2l-1-1v-1l-1 2c1 1 0 2-1 4-2 1-2 1-1-1s0-4-2-6-3-1-2 0v4c0 2-3 5-4 4-2-1-1-2 1-2s2 0 1-2v-5c-1-2 0-2 2-3l4 1c1 2 4 2 9 1l-2-2c-2-2-2-5 1-7v-1c-1-1-2 0-3 1l-2 1c0-2 4-4 7-5l3-2h1c3 1 3 3 0 3l1 1c2 1 2 3-1 3-1 0-1 1 1 2s2 1 2-1l4-1c5-1 5 0 1 2-2 0-3 2-4 3 0 2-1 3-2 3v-2c1-2-1-2-2 0v5c1 1 2 2 1 3h-2l-2-1v2l1 4v1l8-6c1 1 1 0 1-2l1-6 1 3c-1 3-1 3 1 3l2-1v-1c-1 0-2-4-1-5 1-2 5 0 5 2-1 2 0 2 4 2 2 0 4 1 4 3l-1 1-2 1 2 1h4v-1c-2-2-1-6 2-6l2-2c1-2 2-2 4-2 3 0 5-1 2-2-2-1-6 0-6 1 0 2-6 4-8 3h-2c-3 3-4 2-3 0l3-2 2-2c0-2-1-3-3-1-1 1-1 1-1-1l1-1h1l1-1c1 1 6-1 6-2-1-2-5-3-5-2l2 1v1c-1 2-3 2-3 1 0-4-5-5-6-2-1 1-2 2-3 1l-2 1v-1l-1-3h-4c-2-1-2-2-1-3 2-1 3-2 0-2l-1-3v-3l-1 1-2 2c-2 0-3 1-3 2l-4 4c-5 2-5 2-5-1 0-2 1-3 2-3l1-1 3-2 4-2 3-1 4-2h3c1 0 1 1-1 2-2 3-3 5-1 5s4-2 4-5c1-2 0-3-1-4l-2-2c1-1 2-2 4-1l3-1-2-1-3-1v-3c-2 0-2-1 0-3l1-2v-2c2-1 5-2 4 0h2c2 0 5 1 4 3l-3 1c-2 0-6 3-5 4l2-1c1-2 4-1 4 0l-2 2-1 1h3c2-2 3-1 3 1v4c1 1 1 1 2-1 1-1 0-2-1-4s-1-2 1-4c3-3 8-5 8-3l-1 1v1c0 1 2 1 2-1l2-1c2 0 2 0 0-2v-3c2-1 2-1 0-2l-1-2h6l3-2c2-3 2-3 1-4-2-2-1-3 2-2l2 2 2-1h1l2 1 2 1 2 2c1 2 1 2 1 0l2-3v-3c0-2-2-1-2 1s0 2-5 0c-3-2-3-3 0-5h2l1 2v-3c0-2 1-2 2-2 2 0 2 0 1 2s-1 2 1 1c3-1 3-4 1-4l-2-1c-1-1-2-1-3 1-3 3-7 4-7 1l4-3c4-1 3-1 0-2-3 0-4-1-1-3l2-3c0-2 2-4 3-5 4-4 4-4 4-2l-1 2v1l4-1c2-2 4-3 5-2 2 0 2-1 1-3s-1-3 1-4l4-5 1-2 3-1 1 1Zm2 11-1 1-1-1v7l1 4c-1 0-10 6-10 8v1h-3c-2 2-3 1-1-1v-2c-2-1-2-1-2 3-1 2-1 3 2 4 2 0 2 1 1 2s-2 1-3-1c-2-2-3-2-3 1 1 2-1 7-2 7v1l-1 3c-1 1-1 2-3 1l-4-3c-1-2-1-2-2 0v5c2 2 2 2 4 0h3c0 1 2 1 2-1l2-1v1c-2 1 0 2 2 1l3-3c1-1 1-1 1 1l-1 2-1 1 4-2 2-3h-10l3-2c3 0 6-3 5-5-1-1 2-3 3-1v2c-1-1-2-1-2 2l3 3c2 0 2 0 0-1s-2-1 0-2l3-3 3-3c1 0 2 0 1-3l1-4c2 1 7-4 6-5-1-2-2-2-3 1-1 1-1 0-1-3 0-4 1-7 2-5v2l1 2c2-1 2-7 0-9s-2-3-1-4 1-1-1-1l-2 3Zm-5 6v2l-1 2c-1 2 1 2 3 1v-4c-1-2-3-3-2-1Zm-14 4h-1c1 1-1 5-3 5l-1 1c1 2 3 2 4-1l4-3c1-1 2-1 1-3 0-2 0-2-1-1 0 2-1 2-3 2Zm5 5 2 2v-3c0-1-2-1-2 1Zm-13-1 1 1 3-1-2-1-2 1Zm-95 12c-2 2-2 3 0 4v1c-3 0-2 2 1 2 2 0 3-1 4-3l2-4c0-2-5-1-7 0Zm-49 4c-1 1 3 8 4 8l2-2v-3c-1-1-1-1 1-2l2-1c0-2-9-1-9 0Zm9 4c-1 2-1 2 1 3l5-1 3-1-2-1c-3-3-5-3-7 0Zm152 5 2 1 1-1-1-1-2 1Zm-27 1-1 1-1-1-1-1v5c-2 2-1 3 2 2s5-5 3-7c-2-1-3-1-2 1Zm-8 8-1 1v1c1 1 1 1 3-1v-3l-2 2Zm29 1c-1 3-1 3 1 3l1-2c0-3-1-3-2-1Zm-128 0v2c1 2 1 2 2 0 2-3 1-4-2-2Zm-2 13 2 3 1-2c0-2-2-3-3-1Zm20 10h2l-1-1c-2-1-3 0-1 1Zm3 2h2l1-2c0-1-3 0-3 2Zm66 9 1 1 1 1c-1 0 0 1 0 0 2 0 2 0 1-3 0-1-3-1-3 1Zm-90-1c0 1-3 4-4 3l-3 2c-2 3-1 3 2 1l3-2c0 1 2 0 2-2 2-1 2-2 1-2h-1Zm-4 9 2 4 1 3h1v-2l-1-4v-2c-2-3-4-2-3 1Zm64 0c-2 3-1 4 1 2 2-3 3-4 1-4l-2 2Zm20 5-5 2-2 1h2l4 1h2l2 1-1 2v1c2 1 3-1 3-4 0-2-1-2-3-2h-2l2-2c3-3 1-3-2 0Zm-83 9 2 1v-4c0-2 0-2-2-1-1 2-2 2 0 4Zm70-3 1 1h3l2-1-3-1-3 1Zm-89 2c-2 2-2 3-1 3 2 0 4-2 4-4s-1-1-3 1Zm96 1 3 1 2 1h1c1-2 0-3-4-3-2 0-3 0-2 1Zm10 2 1 2 1-2-1-1-1 1Zm-91 0 1 2 1-2-1-1-1 1Zm-1 8 1 1v1l1 1 2 2c2-1 5 3 5 6v3l-2 1-3 2c-2-1-2-1-1 1 0 2 5 1 7-1 1-1 1-1 1 1l-2 4c-2 1-2 2-1 2 2 1 5-1 4-3 0-1 1-2 3-2h3c0 2 5 2 7 0h-5c-1-1 3-3 9-5 3-1 3-2 0-2h-2l-3 1-3 1-2 2c-2 1-7 0-7-1 0-2 5-4 6-4 2 1 2 1 2-1 0-1 0-2-2-1h-3l2-3 3-3c2 0 2-2 0-2-2-1-6 2-5 4 0 2-2 6-4 6s-1-5 1-7c1-2 1-2-1-1l-3 1h-1c1-2 0-2-1-1-1 0-2 0-1-2l-1-2h-2l-2 1Zm52 1c-3 1-4 3-2 3l2 1h2c2-2 4-7 2-6l-4 2Zm21 0-1 1c-2 1-1 3 1 3 3 1 4-2 1-4h-1Zm-46 5c0 2 0 2-1 1-2-2-5-3-5-1l3 3c2 1 3 1 5-2 3-4 3-7 0-5l-2 4Zm15 4-1 1c0 2 4 1 4-1l-1-1-2 1Zm-45 3c0 1 2 3 3 2v-2c-1-1-3-2-3 0Zm42 4h2l1-2c-1-2-3 0-3 2Zm-41 2c0 1 0 2 1 1v-3l-1 2ZM3 294c3 0 3-1 3-2H3v2Zm0 2c-1 3 1 4 3 3s2-1 0-3H3Zm22 7c-2 1-2 2 0 2 2 1 4-1 3-2h-3Z"/>
    <path d="M167 168c-1 2-1 2 1 2l1 2c0 3-3 4-3 1l-1-3 2-3v1ZM1 140v5l-1-3c0-3 0-4 1-2ZM12 142l2 3 2 3c2 2 3 5 1 6h-2c-1-2-2 1 0 3s-2 2-5 1l-3-1 2 1c1 1 2 4 0 4l-1 3c0 3-1 3-3 3-4 0-6-2-4-4v-1c-2 0-1-2 1-2h2v2c2 1 2-3 1-4-2-1-2-1 0-2s1-1-3-2l-2-1c0-2 4-3 6-1l2 1-2-3c-3-3-4-4-1-4s5 2 4 5c0 1 0 2 1 1 2 0 2-1 1-3v-2c1-1 0-2-2-2l-4-2c-1-1-1-1 1-2h6ZM88 146c1 1 1 1-1 1h-2l3 1 3 2c0 1-1 2-3 2l-3 1 1 1 4 3c2 2 3 3 4 2 2-1 1-2 0-2l-3-2c-1-1-1-1 1-2l3 1 4 2 2 2 2 2 2 4c-1 2-3 1-5-2s-3-4-3-2l-2 3v2l2 2-3 7-1 2c0 2-2 4-4 3v-6c2-1 4-10 2-10 0 0-2 1-2 3-2 2-2 3-1 5s1 2-1 2l-2 1c0 2-4 4-5 3l3-6v-2l-1-1v2l-2 1-1-1-1-1c-2 1-3-2-1-4 2-3 5-2 7 1 1 3 3 2 3-1l-2-2-2-2-3-1c-3 0-2-3 1-3 4 0 3-2 0-2-2 0-3-1-3-2v-2h4c2-1 2-1 0-1l-4-2c-2-1-1-3 5-4 3 0 4 0 5 2Zm-4 13 2 1 2 1 3 1 2-1-1-1-3-1c-1-1-5-2-5 0ZM131 151c1 1-1 6-2 7-2 1-4 1-4-1s6-8 6-6Z"/>
    <path d="M103 154c0 5-1 6-1 3l-1-2c-3 0-2-3 0-4 3-2 3-2 2 3ZM108 152l-1 2-1 1c0 2 0 3-1 2l1-6 2 1ZM2 195h3l1 1 1 1h8c2-2 4-2 4 0l3 3 2 3c-1 1-7 2-9 0s-3-1-3 1c-1 4-3 3-5-1l-3-4-2-1c-3-3-2-4 0-3ZM148 199c0 2-1 3-2 3-2 0-2-1-1-4 1-2 3-1 3 1ZM143 202c0 1 1 2 2 1l1 1-2 1h-5l2-2v-3l2 2ZM94 204c-1 1 0 2 1 2s2 1 1 3c0 2-4 3-8 1v-2c2-1 2-1-1-2-2-1-2-1-1-3 2-2 8-1 8 1Z"/>
    <path d="m138 204-1 3c-2 1-2 1 1 1l3-1c1-1 1-1 1 1l-3 6v-4l-4-1c-1 0-2 0-3 2-2 3-2 3 0 3l1-2 1-1 1 2c0 2-1 2-4 2-3 1-3 0-3-2 1-2 1-2-1-2s-6-3-5-4h6c4 0 6-1 7-2 1-2 2-2 3-1ZM150 210c1 2 2 3 1 4v2l1-1c1-2 3-1 3 1l-2 3c-2 2-2 2-4 1l-1-4v-2l-1-2-2-1-2-1 2-1h2c0-2 1-1 3 1ZM84 210c1 2 3 3 3 2l1 1-3 1c-3 0-4 0-4 2 0 1 0 2-1 1l-1 1c-1 2-3 2-5 1h-2l-1-1 8-6c2-1 2-1 0-1-2-1-2-1-1-2 2-2 2-1 6 1Zm-7 6c-2 2 0 2 2 0v-1l-2 1Z"/>
    <path d="M65 210h1l2 1v1c-2 0-2 0 0 1 3 1 2 5-1 6l-2 1c1 2 3 2 4 0h3l4 1c2 0 2 0 2 3 0 4-3 6-3 3v-5h-3v4l-5 1c-3 0-3 0-3-3v-2c-4 2-4 3-3 5v3c-1 1-2 2-3 1-1 0-1-8 1-9 2-2 1-3-1-2-2 0-4-2-2-3l4-1c3 0 4-2 1-4v-2h4Zm-3 8-1 1c1 1 4 0 4-1h-3ZM2 210v4c-1 0-2-1-2-3s2-3 2-1ZM110 211c2 1 1 2-2 6l-3 2c-1-1 0-2 1-2 2-1 2-2 2-4-1-3 1-4 2-2ZM144 221c2 3 3 4 2 0l1-2 1 2 1 2 2 3c0 2-1 3-2 3l-3-2c-2-2-2-2-3 1-2 3-7 3-8 0l1-1c1 1 3-2 2-5l1-3v2c0 2 2 4 4 3v-3l-1-2c1-1 1 0 2 2ZM136 223l-1 3v-3l1-2v2ZM98 229l-1 2c-2-1-2-4 0-4 1 0 2 0 1 2ZM106 231l1 2c-1 1-3 1-3-1l-1-2 3 1ZM150 233c1 2 2 2 2 0 1-1 1-1 2 1l1 5c-1 2-3 2-4-1l-1-2v2l-3 6c-2 0-2-5-1-7l1-5c1-2 1-2 3 1ZM98 241l-5 1 1-1 3-1 1 1ZM4 242c2 1 0 3-2 3l-2-2c0-2 2-3 4-1ZM135 246c1 2 2 2 2 1 1-2 5 0 6 2l1 3v-3c-1-3 0-4 2-3 2 2 4 7 4 9h-2c-2-2-2-2-2 0-1 3-3 3-4 0v-2l-2 2c-1 3-4 4-4 2 0-1-1-1-2 1l-2 2-1-2c-1-3-1-7 1-7v-3c0-3 1-4 3-2Zm1 5-2 3 4-4c0-2-1-1-2 1ZM130 247c1 2-4 9-5 9l-1-4c0-2 1-3 2-3v-2l2-1 2 1ZM75 249l-1 3c-1-1 0-6 1-6v3ZM84 249l-1 2-1-2 1-1 1 1ZM128 270h-4l2-1 2 1ZM85 273c2 1 1 7-1 9-1 2-1 2-2 1l-1-2-1-1c-1 0-2-1-2-3 0-1 0-2 3-1l2-1c0-2 1-3 2-2ZM22 273l-2 1c-2 1-3-1 0-2l2 1ZM13 288c2 2 2 4 0 5l-2-2c-1-3 0-4 2-3ZM19 292l-2 1c-2 0-2 0 0-1l2-2v2ZM72 294v1l-3-1v-1c0-2 1-1 3 1ZM68 301l1 1 2 4c2 2 2 5-1 4l-2 1c-1 1-3-3-2-4 0-1-1-1-2 1-2 3-4 2-2-1l1-3-4 5c-1 3-5 4-4 1 0-2 0-2-3-3-4 0-5 0-5 3 0 4-2 6-4 4l-2-7c0-5 0-5 3-5 2 0 3 0 4 2l1 2 1-3c-1-2-1-2 1-2 3 0 5 1 5 3 0 1 0 2 1 1l1-2c0-2 0-2 2-2 3 2 5 2 6 0h2ZM81 306l-1 1c-1 0-2 0-1 1l-1 1v-3h3ZM147 310c2 1 1 7 0 9-2 1-4 1-4-1l-1-2v2l-1 3c-1 2-4 0-4-3 0-2-1-2-2 1l-4 4c-2 0-2-5 0-7 1-1 1-1-1-1l-3 3c0 2-2 3-3 4-2 1-2 1-2-3l1-6c1-2 1-3 2-2h6c3 0 4 0 5 2l2 1v-1c-1-2-1-3 1-3 1-1 3 0 4 1l2 1c0-2 1-3 2-2Z"/>
    <path d="M121 310c2 2 3 5 1 5l-1 2-3 6-2-3c0-2-2-2-5 1s-4 2-4-1c1-2 1-2-1-1l-1 1-3 6-2-3-2-3c-2 0-2 2-1 4l1 3c-1 2-1 2-3 0s-3-3-3-1l-2 1c-2 1-3 0-3-1 0-3-1-3-3 0-2 2-6 4-8 3-1 0-1-1 1-3 0-2 2-3 2-3v-2c-1-3 9-4 13-1l1 1-1-2c-2-2-2-3 0-3l2-2c0-2 1-3 3-1l4 1h11l6 1-1-3c0-4 2-4 4-2Zm-22 8 3 1c1-1-1-3-3-3v2ZM78 317c0 3 0 4-2 7l-3 4-4 3c-5 3-5 5-2 7l1 1-1 2-1 4h-2c-2-2-2-2-3-1-2 3-4 1-3-2 1-2 1-3-1-3l-1 1-2 2-3 2h2c2-1 4 1 2 2l-2 4c1 2 0 2-3 2-5 1-9 4-8 7l-1 5-1 6c1-2 0-3-3-3-2 0-3 1-2 2 0 1 0 2-2 3l-3 2c-2 3-4 4-3 1l-1-2h-1l2-1h1l-1-2c-2-1-1-2 2-2l2-1 2-1 4-2c1-2 1-3-1-1l-4 1c-2 1-2 0-1-1 0-3 0-3-2 0l-2 2-2-3-2-4-1-1v4c1 4-2 7-5 3-2-2-2-1-1 2 1 2 1 2-2 1h-4c-1 1-2 0-5-1l-4-2v-4c2 1 6-4 4-6l2-2 2-3c0-2 0-2-1-1s-2 2-3 1c-2 0-3 1-1 2H3c-2 0-3 0-2-2l3-2 3-1-1-1H5l1-1v-2H0l2-2 1-2 1-1 1 1v1l1-3c1-2 5-5 5-3l-3 3c-2 3-2 3-1 4l4 2 1-2c0-3 1-3 3 0 2 2 2 3 1 4-1 2-5 3-5 1l-1-1c-2 0-1 1 2 4l1 3v1h5c3 0 3 0 4 2 0 2 3 2 5 1l1-2 3-1h3l2 2 2 2 2 3v-4c-1-3 0-6 1-3 1 2 3 1 4-2 0-2 0-2 3-1 3 2 4 1 4 0l-2-1c-2 1-2 1-2-1l2-6c3-4 3-7-1-8-2 0-3-1-3-2l1-3 2-1c4-2 1-4-3-3l-2 1c1 2 0 2-2 1h-2c-1 1-1 1-2-1h-3c-2 0-3 1-3 2l-2 1-3-1-4-1c-3 0-4 0-3-2s5-3 7-1 4 2 4-1c0-2 5-2 9 0l2 1 3-3c4-1 6-1 9 2 2 1 2 1 2-1-1-3-1-3 2-3l5 1c2 1 2 6 0 7v2c2 1 3 0 3-3l2-3c2 0 2-1 1-2-2-3-1-3 4-4l5 1Zm-21 6-2 1h-2c-1 2 1 3 2 2l2-1h2c2 2 2 2 3 1v-2c-1-2-5-2-5-1Zm-5 5-4 2 2 1c2 0 3 1 3 3 1 3 3 3 4 0v-3l2-2 2-2h-3l-6 1Zm7 7v2h2l1-5v-4l-2 3c-1 1-2 3-1 4ZM8 354l-3 5-2 4 3-2 2-1h1l1 1 1 3 1-2h2v-1h2c-3-7-3-7-4-6-2 1-2 1-2-1l-1-1-1 1Zm21 2c0 2 1 4 2 3 2-1 1-3 0-3h-2Zm-14 1 1 1h3v-1c-3-1-4-2-4 0Zm20 2h2l-1-1-1 1Zm8 13c0 1 3 2 5 1l1-1-1-1c-1-2-5-1-5 1Z"/>
    <path d="M56 331v2h-2c0-2 2-4 2-2ZM20 319c0 2-2 5-2 3l-1 1c-2 2-2 2-2 0l1-4c0-1 4-2 4 0ZM38 329l2 3c1 3 1 3 3 2h1l-2 3c-2 1-2 1 0 1 1 0 2 0 3-2 1-1 1-2 3-1 2 0 2 0 0 2v2c1 0 1 1-1 3l-2 2-1-2c-1-3-1-3-2-1-1 5-3 5-4 0-1-3-2-4-3-3h-2l-2-1v-1l2-3c0-2-1-2-2-1h-1c1-1 0-1-1-1-1-1 0-1 3-1l4-1h2Zm-1 3c-3 1-2 4 0 4l2-2c0-2 0-2-2-2ZM116 330l-1 2-1-2 1-1 1 1ZM27 332c1 3 1 4-2 4v-5c1-1 1-1 2 1Z"/>
    <path d="M27 339h3c4-1 5 2 4 5l-2 3c-2 0-5-3-4-5l-1-2-2 3c0 2-1 4-3 5-3 2-3 2-4 0-1-3-1-3 1-3l1-2c-1-1 0-1 1-1l2-2c0-2 2-3 4-1ZM6 369l-1 3c0 1-1 2-2 1l-1 2c1 1 0 2-1 2l-1-4c0-3 3-6 5-6l1 2ZM19 375c0 2-2 2-5 1-2 0-2-1 0-2 2-2 5-1 5 1Z"/>
  </g>
</svg>
