<svg xmlns="http://www.w3.org/2000/svg" width="1744" height="2400" version="1.0" viewBox="0 0 1308 1800" fill="#4d41a1"><path d="m764 22-3 7-2 2-3 1-1 3q-1 5-4 9l-2 2v7l-1 1-2 1 1 4 2 6 1 3-2-2-3-2h-1v5l-1 13v26l2 4 1 6 2 6 1 3h3l5 2q3 3 5 3l6 2 17 1h12v-1l3-4 2-2h-4v-2l2-2 2-1 3 1 4 2 8 4 1-2q-1-3-6-4-4-1 1-2l4-1 4 3 5 2 1-1 1-3 2-1q6-2 8-5l-4-1-6-1-7-1h-4l-3 2-5 2h-3l2-1q4-4 0-5l-2-2v-2h-8v1l2 1 3 2 2 2-2 1q-3 4-9 4l-4 1v-2l2-3 1-2-8 5q-2 3-8 3-5 0-2-3l1-2v-2l3-2 6-5q4-4 8-6l6-4 21-12 5-2 6-1 5-2h4v-2l3-1 2-2 1-1h2l4-1 2-1 4-1 2-2-1-2-2-2-10 1h-10l-2 2-2 1h-4l-5-1-3 1-4 2-3-1h-4l-1 2v2h-3l-2-1-1 3q-2 4-3 0 0-3-7 4l-7 6-3 1v2l1 2h-1l-2 2-2 5-2 3-1-3-1-3c-1 0-6 8-6 10l-1 3-4 4-2 3 2-1q10-1 2 6l-3 2h-2l-3-1v-9l-1-3h3l-1-3-1-3h-4l1-3q0-6 5-8l2-2v-2l1 2q3 4 3-1l-1-3q-5 1-8 5l-1 1v-6l1-2 2-1c2 0 7-4 7-5h-8l-2 1v-2c0-3 5-9 7-9l1-2q0-2-4 0l-1 1v-6l4-4 4-3-2-2-2-1 2-3 3-2 2 1 1 2-1 1-1 4v3h2l2-1V34l-1-1-1-4-1-3v-9h-1zm44 58-3 4h-1l1-2 1-4 2-3 2-1v1zm-11 4-5 7-6 5v-2l2-3 1-3v-1h4l1-2q2-3 3-1m-7 42 4 2 4 1-3 1-3 1-5-2-3-3z"/><path d="m722 67-1 3q0 8-5 11l-2 1v3l-1 4-1 2 1 3 1 2 1-2q2-4 3 0l1 1-1 2q-3 1-1 7 4 8-1 6-5-4 1 6 9 14-2 5-10-8-3 2l4 4 3 4q5 5 2 5l-3-1-1-1-1 1v2l3 4 3 4-1 3v2l-1-1-3-1h-2v2l3 5q5 6 1 4h-2v2c0 2 6 9 8 9h1v4h2l3 2q4 3 12 4l6 1 4 3h1l2-2 1-2 3 3 2 3h2l2-2v-2l-2-1-3-3v-1l3 1 6 5 3 4h6l6 1v-2q1-3 3-1l1 1 3-2 2-1-1-2v-2h2q3-1 7 1 6 2 8-1 3-3-1-4l-3-1c-1-2-6-5-7-5l-3-2-4-1-5-1-6-3-3-2-3 1h-2l-3-2-4-2h-11l-1 1q-1 3 6 3l6 2 3 1 3-1h2l2 2 1 2h3q8 0 2 4-4 5-4 1v-2l-1-1-6 1q-5 3-6 0l1-1 1-2v-1h-3l-3 1-5 2-3 1v-1l2-3 2-2-1-1h-2l-2 1-4 1-3 2-2 1v-2l1-3-3-1-6-1-3-1c0-2 3-8 6-10l4-7 3-4 1-2q1-5-7 5l-7 8h-1v-4h-1l-2 1q-1 3-3-1 0-6 2-7l2-1h2v4l2 1v-4l-1-1 1-3 1-3-1-1-1-1-2 1q-5 4-6 1l2-3c5-5 6-10 2-7l-2 2-1-1-2-2 1-2 3-4q3-3-2-4h-2v-6l4-4 3-3c0-2-5-1-6 0l-1 1v-1q2-4 5-6l1-6v-7l-2-1-2-2v-3q1-9-3-6m57 112 1 1v1l-1 2h-7l-1-2v-1l1-1 3-1zM386 84l1 1 5 3 9 6 16 6 3 1 3-1q5 0-3-4-17-10-19-9l-5-2-8-3zM665 92l1 2 2 1q8-1 0-6h-3z"/><path d="m350 92 2 4 2 3v1l-1 2 2 1h10l17 1 28 4 22 4 10 1 1 2 3 2q4 1-3 5l-3 1-1 2q0 5 5 5h4l5 6 5 6h3l6 1 4 2 5 3 4 2h13l3 1v5l-4 4-4 3h-3l-9-3q-14-3-23-4h-6l4-1 7-3 6-2 3-1h-65c0 1 5 10 7 11q2 2-1 3l-1 1c0 2-6 5-9 5l-4 1q-2 2-4 1h-1v-9l4-6 3-6-1-4-2-6v-2l-4-4q-5-5-1-7l1-2-1-2v-2h-4l-2-3-4-3h-1v6l2 9 1 2-3 3-2 4-7 13-2 3 1 3 2 4 4 5 2 3-1 2-2 1 1 1c3 3 1 5-12 15q-12 10-11 12-1 4 11-5l9-5 2 1 5 2 5 2 9 2 11 1h5l2-1 5-3 3-1 11 1 18 3-7 2h-2v1l-1 2h-34l-4 1-5 3q-3 2 1 3l3 1 4 4 4 4 2-1 36-6h2v1h4l8-4 28-10c3 0 13-13 14-19q1-5 6-3l11 1h8l2-2 5-4q2-5 11 1a226 226 0 0 1 62 60c3 3 6 10 5 10l-5-2-4-1h-8l-6-6-6-6-1 1-1 1 1 1 1 3v1h-6l-3-3-7-5-4-2-1 1-1 1 4 3 3 4h-2l-3-1-12-4 1 3 1 2h-7l1-2 1-4v-2l-2-1-6-1-6-2-11-1-9-1-4-2-3-3-2 1q-2 1-3 4l-2 2-3 2h-10v-3l-1-3-3-2-2-1-2 1-5 3-10 3-6 1-5 5q-10 7-12 6-6 2-14 9l-3 4h-3l-3-1-3-1-4 1 1 1 1 1v1l-2-1-1-1-7 1h-22l-13-1-1 1q1 2 7 3l7 2 3 2h-7c-28 1-32 2-24 6l3 1h3c7-2 22-3 26-2h3l-3 2-9 4-6 2-4 4-4 4h6l5-2 7-3q10-5-1 6-19 19-13 19 3-1 13-12c15-14 17-16 27-21 13-6 15-6 24-7h9l4 1 5 2h29l4-3q6-4 7-11l1-3 4-2 6-2 5-2 4-2 3-4 3-4 11 1h11l1 1q3 3 1 4l-3 1v1l1 1 2 3v2l3 3c4 4 4 4 32 4l25 1 1 1 5 2 6 1 13 5 6 3 5 2 3 2 5 4 12 15q2 1 11 16c3 5 7 20 8 26l3 7 1 5 1 3 2 13 1 5 2 2-1 3v2l1 1 1 2-1 4v4l1 2 2 3v6l1 9 1 2-1 6-1 18q2 52-1 56c-1 0-11-17-11-19l-2-3-1-4-2-4-1-3-6-19-1-2-1 1h-1v10l1 9h-1l-4-4-17-21-9-10-2-2 2-1 5-3 8-6q3-1 5-3l5-4 6-7 4-6 9-12 1-3q2-1 2-7l1-5-1-2-1-1 2-1q2-1 1-2-2-3-5 1l-1 2-2-1c-3 0-8 2-7 3q1 3-2 4l-3 1-1 2-2-1h-2l-1 1-3 3h-3l-1 2q0 2-3 3l-2 3-1 3-2 3-1 2-2 1-3 1v5h-3v6h-2l-1 1v2l1 3-2 3-3 3c-1 0-6-5-7-9l-2-2 2-5v-14l3-1q6-3 5-7 0-3-4-1v-3l1-3 3-1 6-4 3-4v-4l1-4 2-6 1-4-2-2q-3-4 0-9l1-2-2-2-1-2v-6q1-14-11 4l-7 9-3 2v6h5v5h-2q-5-1 1 10v7l-1-1-1-1h-2v2l1 5q3 9-2 5-3-4-1 5 2 8-2 3-6-6-4 6v5h-1l-12-10-11-11 3-6c7-15 7-40-2-44l-2-1v-3l-1-4-2-3q-1-3-5-6l-5-4h-2l-1 1v3l1 2h-3l-1-5-1-4-3-3-4-2-1 1v3l2 5 2 4 1 2 1 5 3 8 3 3-1 5q0 9 3 2 4-6 0-10l-3-2 2-5q2-7 2-3l5 10 5 7v3l1 5 1 1 1 12v12l-1 3-3 2h-2l-1-4-1-4-3-4-6-5q-4-1-11-7l-13-10-5-3-3 1q-5 1-2 2l1 1v2l-1 2h-2q-5-1-7-5l-1-2-4 1h-5l-5-4-7-4-2-1-1-2-3 1h-3l-1-1-2-1h-8l-8 1v4h2l4 1 6 2 5 2v6h1l4-1 2-2 2 1 1 1-1 3-1 2 1 2 2 1q4 2 6 6l1 3 4 1 6 2 3 1 4 2 2 1h11l1-1 2-3q0-2 6-2h3l-2-2-2-4v-1l-2 1-2 1v-1l1-2 2-3v-1l2 2 4 5 2 4-2 3-2 4h-5l-5 1v4l3-1h3l2 1 4 2h2l-1-3v-3h2l2-1 3 1 3 1v2l-1 3h4l6 3 3 2-1 1-1 1-3-2q-6-4-7 0-1 2-4 0-2-3-2 2 1 5-6-1l-4-3-1 1-1 1 1 1c4 4-2 4-7 0l-4-2h-1l2 2 1 2-2 1-3 1v1l1 1h6q10-1 5 4l-3 4-3 1q-12 2-13-2l-1-1 4-2 3-2v-2l-1-2-2-1-4-2-1-2-1 1-2 1 2 1q4 4-1 6l-4 1-3-1h-4l-1 1c-2 3-11 8-12 8q-3-1-4 3 1 4 3 2l1-1h12v1l2 1 2-1-2-1-2-1 2-2 2-3v-1l3-2 4-2h3q1 2-6 6l-3 3v2h23l13-1 1-2q-1-4 5-1l4 1c2 0 12-6 14-9l1-2-1-1v-3l1 1v1h2l3-1 4 4 7 6c4 2 10 9 10 10v2h-3l-5-1q-2-3-6 1l-1 3-3-1q-5-2-5 2v3h8q6-2-1 7l-5 5h-2q-4 0 0-4 5-4 2-5l-4 4-4 4 1 2 1 1h-10l-2 1q-2 2-3 1l-1 1-5 2h-3v2c-1 4 6 5 9 2l2-2h2l3 1 2-2 3-2h9l4-3 6-3 6-6 1-2-1-1-1-1q2-2 3 0l1 1 3-2c4-4 5-4 14 5l4 4v4l-1 3-3 3-2 3h-4l-4-1 1 2v1l-2 2-3 2h-4l-5-1h-3l2 2 2 1q-1 3-5 4l-2 1-2-1-6-2h-4l-1 2q-4 3-1 5l2-1 4-2h2v4l-3 1-11 7-2 3 1 2 2 6q2 3 5-2 3-4-1-4l-2-1 1-1 3-1 3-2h1l-1 4v3l1 1q2 2 5-1 8-6 11-4l1 2v-2l1-2 5-2 4-3 3-3q2-5 4-2v1l1-1 3-2c3 0 16-10 16-13q-1-6 12 11c20 26 20 25 11 21l-8-3h-3v1l4 3 4 2 6 8 7 8 5 5q3 0-2-6-3-5-1-6l6 6 4 4 4 7v3l-1 2-2 2 3 5 2 6 1 2q2 2 1 3l1 1 5 3 3 4v4l-2 7-2 5-1 2-2 3-2 2q1 2 4-1 2-3 6-4h3v-2c0-2 4-7 6-7q3 0 2-2v-2h-4v-18l2-38 1-20-1-25a183 183 0 0 0-6-49 251 251 0 0 0-12-49v-3l2-4 2-4v-22l2-8 2-8 1-4 1-3 1-3 3-14 4-5 3-4v-3l1-4 2-6 2-5v-3l-12 13-1 2v-2l-1-3h-1l-2 3q-2 7-6-8l-4-16v-1l-1 1-2 1v60l-1 1-1 2v4q1 9 3 2c2-11 3-5 2 9l-1 11-1-2-1-3-1 1-1 6v4h-1q-3-2-10-14-9-13-22-24a75 75 0 0 1-21-18l-5-7q-6-12-11-16l-2-3-5-7-13-13-10-9-9-7-8-5-11-7-6-3-1-2q-2-5-8-9l-4-2-12-5-2-1-4-5q-7-9-9-8l1 2 2 2 1 2 1 4 2 4 1 2v1l-1 2-2-1-1-2c0-1-5-9-9-13-4-5-23-17-27-17l-3-2-4-1-3-1 3-1 8-1q1-2-15-3l-21-2c-1 1-9-1-11-2l-1-1-1 1h-13l-13-2c-18-2-33-5-35-7zm168 60q6 3 7 8c0 3-9 6-12 4l-1-1v-6q-1-8 6-5m-91 20 1 2 4-1h3l1 1 2 2 4-2q8-5 8-1v1h3l6-2h3l1 1 2 2 6-2 8-1q5 1 1 3l-3 1q-2 3-24 6l-17 4c-17 5-18 5-33-2l-8-3h-2l2-3 2-2 3-1 4-1 2-1q5 0 0 3l-1 1h1l3-1 3-1 7-2q5-3 8-1m41 53 2 2v2l-4 3-3 1 1 3v3l-1 1c-2 1-15 4-16 3q-3-2 2-2 2 0 2-2h-4l-4 2-3 1v-1l3-3 8-8 7-4 4-2q2-2 6 1m31 93 3 1 5 1 2 1h-4l-3 1-2-1-4-1h-2v-3h3zm31 8v2h-1c-2-1-5-6-5-7l1-1 3 2 2 1zm-11 0c-1 2-7 3-10 3l-2-1 2-2 6-1h4zm11 6q0 3-5 4l-4 1-2-2-2-1 3-2zm91 12q0 3-4 5-7 4-2-2 5-4 6-3m-67 18-3 3-1 2-1 2-1-4v-4l2-2 2-3 2 2 2 1zm100-4 1 5v3l-3 1q-3 0-3 2l-2 3-2 1-2-2q-4-1 0-4 5-2 5-5 2-6 6-4m-109 4q-1 4-6 5-3 1-1-4l1-2h6zm96 14 1 3-2 3q-2 5-5-1l-2-3 3-3q6-6 5 1m-38 44-3 4h-1v-6l2-3 3-2v2l1 1zm-10 2-1 3-1 2h-5l1-2q5-7 6-3m-12 6c0 4-6 9-8 8 0-1 5-8 7-8z"/><path d="M1049 103q-1 3 1 5l1 4 1 5 2 7 2 11 1 6-1 9q-3 25-6 28l-2 6-1 6-1 1v7l2 18 1 13 3 5 4 8 1 2-1 1-2 2-5 5-3 4v6l1 6 1 1-1 2-11 13-8 14-3 4-2 4q2 3 7-3l3-3 2 1q7 0-4 9l-7 6-3 5-3 6-7 12-2 4h-1v-5l2-10v-4l-2-2-2-2v-5l-1-5 2-2 1-2-2-2-2-3-3-4-3-7-1-3h-2l-1 1 1-6v-5h-4l-1 2-2 7-1 6-1 2 1 2 2 2v9l3 1 2 1-1 3v3l2 1 2 1v4l-1 5 1 1 3 2 1 3v2l-2 1h-1l-2-2-2-1v-4l1-4h-2q-5 0-2-4l1-3-1-1-1-1-2 3-3 3v2l2 8 1 6 2 1 2 1v3l2 7 1 3v4l-5 8-1-6-1-7-1-1v15l1 2-2 3-4 6-1 4v9l1 1-1 8-2 12-2 6-15 58-5 21-1 6-1 3-2 5-2 4-2 6-2 6-1 3-4 9-3 11-1 6-2 5-1 4-3 14-1 6q0 6-4 11l-1 3 1 3 1 3-2 5q-3 4-3 10l-3 10-2 11-1 9-12 46-2 5-1 3-2 5-2 7v3h-4q-6-1-2 2l3 2v3l-1 3h-2v7l-2 6-3 6v7h-1q-3 0-2-5v-3l-2-5-3-6-2-4c-3-3-7-14-7-17l4-1h3l1-2v-2l-5 1h-6v-1q0-3 5-4 3 0 2-4v-2l-4 1h-3l-3-3-4-3c-2 0-9-6-9-8s-9-12-14-15l-6-3-2-5-3-4-5-6-10-13-7-7v-1l2 1 16 5 5 1 3 3 5 3h3l1 2 4 5 3 4 3 4 3 5v2l5-1h5l5 2 5 2 4 1h2v-2l-1-2-2-1-3-2-3-1h-3l-5-2-4-3v-1h16q0-3-4-4l-3-1-2-2-9-1-10-1-3-2-3-2 1-1v-1h8l14 2h5v-1l-2-3-1-1 2-2q4-3 1-4-1 0-2 3l-2 2-6-1-8-2-3-1-5 1-17-1-1-1 2-1 10-2 9-1 2-1 3-2 3 2q5 4 5 0c0-4-9-6-17-4l-3 1v-1l1-4 2-2h-1l-6-1-6-2-2-1v-3l3-1q5-1 1-3h-2v-3l-5-1h-5l-1-2v-1l1-2q11-10 19 3l1 2 1-2 7-5 5-2 1-5 1-4 3-1q3-2 5-7l1-5 3-6 1-5-1-3-2-2-3-1-3-1-3 2-2 1-2-1-2-1-4 1-4 1-1 5-2 4-3 2-3 4-3 5-5 8-7 8q-4 5-7 9l-5 4-2 1v-4l-2-4-2-5-1-3 1-1 1-2-2-2-2-3v-5h5v-3h-4l-5 1-1 2 1-4q0-7 3-6h1v-2l1-5v-3h-1q-4 0 0-5l3-2v-4l2-1 3-3v-1l-3-1h-2v1l-1 3-2 3v2l-2 1-3 1v13l-2 1q-3 1-5 25l-1 15 4 7 3 9 3 6 3 5 3 3 6 12 1 2 2 3 1 2-2 2-1 1h1l3 1 1 2-1 1-5 2h-3v-2l1-2-3-1-2-1v-2l-2 3-2 6-1 11 1 10 1 1 1 1-1 2v5l-1 5-2 7-2 5c-2 1-10-5-14-9l-4-4c-2 0-10-9-12-12l-1-2-2 2-1 1 1 8v7h-3l-20-1h-2l-1 2-1 2 1 4 1 4-1 3-2 4-3-3-2-2v-3l2-3 1-2-1-2-3-3-1-2v-2l-4-2-4-2-2 1-2 1v-1l1-2-3-2q-3-2-5-1l-5-2-5-3-3-1-3-2-5-3-5-3h-2v3l-1 5-2 3v6l-1 7-1 2-1 4-2 1-1-2-2-4-1-2-3-3-2-3v-3l1-2h-12l-1-2-1-3h-2q-5-1-6-6l-3-2-7-3-17-5q-7 1-3-4c6-12 31-35 31-28 0 2 8 6 15 8l2 1v3c0 4 8 18 11 18l2-2 1-2q3-1-1-3l-3-1v-3q-1-5 6-3l4 1 3 3 3 3 1 3q2 8 5 9h2v-7l-2-1-1-1v-5l-1-2v-2h6l8-1 6-2 4-1v-5h-7l-2 1v-4l-1-3c-2 0-9 4-10 6l-3 3-2 1-1-1-2-1-2 1q-3 0-3 2l-2 1-1-1 2-3q4-10-3-3l-5 4-2 1v-2l-1-2h-3c-6-2 0-7 10-8l6-2 8-1 8-2h2l-1-3q-1-3-4-1c-1 2-7 2-8 0l-2-1-3 1q-6 3-8 0l-1-1-4 2q-6 5-6 2-1-3-4 3l-4 4h-1v-3q0-8-3-3-4 7-6 2l7-7 5-5q2-4 6-8 9-9 9-12l8-7 7-9c0-1 6-6 8-6h2l-2 1-2 2-3 5q-7 6-6 8l2 1 1-1 11-12 4-3h2v6l-2 3 1 1h15v-4l-2-1-3-1-1-7v-6l3-4 5-5 23-18 3-1 1-2q1-3 3-4l5-3 8-7 8-6 6-4 11-7 10-6 3-2 1-1-1-2-2-1-4 1q-4 2-6 1h-2l-3 2-4 3-9 5-3 1-2 1 2-4 3-4 3-1 1-1-2-3-4-2c-1 0-7 9-7 11l-1 2-2 4-5 5q-6 5-3 0l2-4 2-3 1-4q1-5 5-6v-6c-1-1-6 3-7 6l-8 12-3 6c0 2-3 7-5 7h-1v-5h2l1-1v-4l-1-4 2-1 2-1v-5l3-2 2-3-1-2-1-2-2 2-7 11-8 20q-1 4-4-5l-1-3 3-1 2-1-1-2-2-1 1-3 2-4 1-2-1-2q-1-4-3 0l-3 5-3 7-2 7-1 10-1 8-2 3-2 5v2l2-1 2-2 7-5 6-6 10-7 2-1 4-2 5-2 4-1q3-2 1 2l-5 3-8 7-5 4-3 1-6 5c-5 4-16 14-25 25l-6 5 1-2 1-2v-2h-3l-3 1v-1l2-3 1-1-2-2-1-1v-7q0-10 2-11l1-6v-6l1-1q2-6-3-5l-5 13-1 6-1 7-1 16v8l-3 1-2 2-3-1-2-1 1-4v-4l3-3 2-2-2-1-2-1v-7l2-1 2-1-1-1-3-1-3-1v2l-4 26v1l-2-1-2-1v-16l3-1q5-1 0-3-7-2-1-10l3-6 1-2 3-3 2-4-1-1-1-1v1l-2 2q-2 0-4 5-4 6-4 3l-2-4-2-2-1 1v7h2q3 0 1 5l-2 10-1 14-2 8-2-1-7-1h-4v-3h3q10-1 6-6l-2-4-1-4-3-1h-3v-5q2-6-1-2l-2 1-1-1-1-2 2-1q3-2 1-4h-2l-2 1-4-4-5-7q-1-3-3-2-3 2 2 6l2 2-1 4v4l2 1 2 2 2 5 3 6 2 2v7l1 8 1 1 2-1h3l4 2 5 2 3 6 2 5-1 1-1 1-4-2-5-3-3 1-1 1 10 6 3 1q6 2-9 14-10 9-9 5l-1-2-5-4-3-3v-13l1-5h-4l1 2 2 2-1 1-1 2-3-1q-5-1-1-7c3-7 2-12-1-7h-7l-1-2v-3l4-12 1-7-1-5-1-1h-1v6l-1 5-1 1-4 1h-2v-2l1-4c3-8 5-19 3-22l-1-1-2 2-2 1 1 2q3 3-1 3-5 1-1 3l1 2v1q-3 5-5 0v-12l3-15 1-2h-5l-1 6q-2 11-5 3l-2-3 1-3 2-11 1-8h-1l-1-1v-1l1 1h7c0-1-9-8-11-8l-4-1-3-2-3-1q-5-8-6 12l-2 14-1 2h1l8 6 7 5v3q2 7-2 4l-4-1-3-3-3-4h-3l-2 1-1-2v-2l1-1q3-1 1-4l-1-1-2 2-3 3-4-3-5-3h-2l-1 3-1 2h-2l-2-1-3-2-4-2h-2l-1 1 1 1 2 3 3 2 2 2 2 1h2l1 2q2 5 6 6 1 0 2 3l4 4 5 5 3 3 1-2 1-3q0-4 3 0 6 7 10 8c8 4 18 14 14 14l-1-1-4-1-7-4q-5-3-6-1l2 3 6 5 7 3 2 2 3 1 3 2 1 3 1 3v1l-1-1-2-1-2 1h-3l-1-1-2-2-4-2-2-3h-6v-1l-1-2-2 1c0 2 7 8 9 8l2 2 2 1 4 2 3 1 3 2 4 1q5 1 6 4l2 2q4 2 0 4h-1l-1-1-1-2h-3q-3 0-11-4l-5-2-3-3-2-1h-3v1c0 3 29 20 33 20l5 4q2 5 4 5 4 2-6 10c-11 11-15 15-20 23l-8 10-3 2-2-1-5-9c-4-9-5-11-9-15l-2-2-2 2q-5 7 1 5l2-1 1 1-1 3q-2 3-1 4v1l2-1 1-1 2 1 1 3-1 1q-4 2 0 3l3 1-1 2v3l2 3 1 2-3 1-2 1 1 2q4 3-2 3h-2v6h3l2-1v1l-3 8-3 7-3 6-4 6-2 2-3 6-3 6-5 9-12 31q-4 10-6 1l-1-6c-2-3-4-15-4-21l-1-7-1-2-2 1-1 2-1 5a552 552 0 0 0 2 84l2-6 1-6 2-4h1v7l-1 8 1 2q2 9 3-10l1-11-2-3-1-2h1l1 1 1 1h1l1-4 1-3 1-4 2-6 2-4 3-5 3-6 13-12 4-4-3-1h-9l-1 1v-3l3-6 3-6 2-4 1-2 7-16 1-3 2-3 1-3v-2l2-1q5-2 5-8v-2l3-3q4-4 7-2l2 2-1 2-1 3 1 12 2 13 1 7q0 8 2 9l1-3v-3l3-2 3-3v-1h-3c-5 0-5-5 0-7l3-1h-3l-3-1-1-2 3-3 2-3h-1l-3-1-1-1 2-2 1-3-1-2v-3l1 1 4 3 4 2-1 2v19h2l1 1v10q1 15-2 7l-2-3-2-1h-3l-1 1q-3 3-1 6h2l1-1 2 2 3 2 1 2v2h7l1-2v-5l-1-4 1-1 2-4 1-3h-5l-1-1q1-4 4-5h3v-4h-7v-14h1c2 0 10 9 10 10l-1 2-2 1 1 3 1 3-1 6q-3 8 1 7h1v3l-1 3 2 1 3 1v4h3l-1-3v-3l2-3 2-2-1-1-1-2h1q3-2 4-6l-3-1h-2v-5l-1-1q-3-1-1-3l2 2 2 1 4 3 2 3v9l1 10 2 5q1 7 6 1l3-3-3-1-3-2 2-1 2-1-2-2-2-2 1-1q2-4 6 1l2 3v3l1 5v2l4-2q5-4 2-5l-1-1v-1l1-2h3l5 1q3 3 3-2l-1-2-2 1h-2l-1-1-3-2-3-1-1-2-1 1q-2 3-9-3-8-8 8-4c4 2 11 2 11 0l-2-1h-3l-1-2v-2l-3 1h-4l-1-2-1-2-2 1-2 1-2-1-3-2-1 1-4 1h-2l-4-4-4-4h1l13-1 12-1h1l-1-2-2-2-2 1-3-1-5-1-19 1h-3v-6h-3q-4-1-4-3l4-1h3v2l1 1 2-2 2-2h5l8-2h3v-1q-2-3-12-3l-4-2-1-1-1 1-5 1-7 2q-5 2-5-1l-1-1 1-1 1-1v-1h-1l-1 1-3 1h-3v-3l3-1 4-2h36v1l6 6 7 5v3l1 3h1q4 1 5 6c0 2 7 9 8 9l2-3 1-2v1c0 2 5 6 7 6v-4l-1-7-2-4-1-8-1-7 2-1 3 1q4 3 2-2-2-4 2-3h1v4l-1 4 1 1 4 3 2 2 2-1 2-1 1 1 1 6v4l2 1 2 2h3l3-1 2 1 2 1-1 6v6l1 2 3 4q1 4 3 1l2-2h1v5h-2v6l1 2-2 3-3 3-3-4-4-3-1-5-3-8-1-3v3l-1 4h-1q-4-1-5-5-1-3-4-1l-1 2 7 6 7 7 3 4 2 3 1 1c0 2-6 4-8 4q-2-1-5 1l-4 2h-2v-10l2-1 1-1v-2q-3-4-4 0l-4 4q-3 1-3 2l-2 2h-2l-1 4q-3 9-7 14l-4 7-4 5-2 2-1-1-1-1v-3l3-6 1-4-12-4q-5 1-1 2l3 1-1 4-1 4-1 4-1 5-2 8-2 6-1 4-4 17-3 8-1 7-4 19-1 4-1 3-1 7v3h-4l-4 1 2 1q5 3 2 4c-3 0-10 3-10 4l6 1 5 1v4l-3 1-4 1-2 1-1 2-3-4-3-3-3 2-3 2-2-3q-4-4-4 2-1 4 7 3l6 2 4 1h3l2 2 3 2h2v4q0 5-3 1v-1l-1 3v3h-4l-1-2q-1-4-3 2l-1 3-1 2q-1 4-7 5l-4 2-2 2-2-1-3-2q-3-4-3 0v2h-3l-3-1-4-4q-6-7-4 0 3 7-4 2l-3-2v-7h-5l-9-18-15-29v-2l3 1c4 2 11 1 11-1v-2h-4c-4-1-12-7-14-11l-1-3 6-6 8-7 3-1v-2l-1-2c-1-1-9 3-11 6l-5 2-2 1v-2l-1-2h-1v8l-1 2-2 2-2-3-16-23-29-41-2-2-10-11-8-9v-2q0-6-10-10l-6-3-7-10a467 467 0 0 0-76-74l-3-2 4-6q6-12-1-8l-5 3-3 1-1-1-2-1-1 1-1 2-9-10c-11-12-22-19-22-14l6 8 5 7h-1l-2-1-4-2-6-1-2-1-5-1-14-5h-4l-2-2-1-2-5 1h-4l2-2 5-4 3-1-1-3 1-4 1-2v-2l-3-1-6-1-2-1-1 1-3 2-2 1-5 3-3 3-4-1h-3l-1-2-1-2 1-1q2-3-3-4l-3-1-3-3-4-2-2 1c-3 1-3 9 0 9l3 9v4l1 2 2 1-1 1-1 2q-1 6-10 9-7 3-4 4l6 3 4 4 2 3 1 4 3 1h20l4 4q8 9 13 8h3l3-2 4-2 2-5 2-5-2-1-1-4v-3l-3-3-6-5-2-2 1-2 2-3 1-1 3 2 4 1 2 2 3 1 5 2 8 4 6 2 4 3c3 0 18 9 19 10l1 10v9l1 1 1 1 1-1 3-7 1-5h2l3 1 4 4 11 9 14 13a445 445 0 0 1 51 55l1 4-1 1c-1 2-11 3-17 3h-16l-1 1h-11v-2l1-1h20l1-1 3-2 4-1 2-1-2-1-1-1h-12c-20 1-31 0-58-3h-5v1c0 2 9 8 16 10l6 2 10-1h10l1 2 2 2h-1l-6 1-5 1-1-2q-5-2-5 1v1h-4l-5-2c-3-2-18-3-24-1h-4v1l4 2 6 2 4 3 4 2v1h-2l-5 2-4 1-12 5-13 7-4 2-3-2-4-2-1-1 1-1 8-6 2-2v-3l-1-5-1-3-1-1 2-3q2-4-1-5l-1-2 1-2q3-4-4-2h-4v6h-3v-2c0-2 5-9 7-10l3-3v-3l-1-1-1-1-2 2q-3 4-3-2v-3l2-1c3-1 9-8 9-9q-2-3-5 1-3 5-3-4v-5l3-2 3-1v-5q1-8-5-2t-3 8l1 1h-1l-1 4q0 4-3 1l-4-2h-1l1 2 1 4 2 3 1 2v6h-5l-1-2v-3l-2-2-1-1h-2l-1 1 1 2 2 4 3 5 3 3v5q1 9-8-1c-8-8-7-8-6-12q4-8-1-7l-2-1v-12l-7-13-7-13-5-6c-5-6-19-15-21-15-5 0-3 7 2 11q13 8 13 11l4 8q4 7 1 14l-1 3-6 2-5 1-5-1-7-1-2 1v9l-1 10-1 6-2 4-1 2-1 1-2 1-8 5-6 3-5 3-4 2-4 3-1-1-2-4v-2l-3-2q-9-8-3-11l2-1v-4l-3 1h-3l-1-4-9-18-8-15v-5l-1-6 2 2 3 2h2v-1q1-3 3-1l4 2 2 1 1-3 1-3-1-1-1-4v-2h-1l-2 2q-2 2-3 0v-2h-4q-7 0-6-4l1-2h2l6 2q5 6 1-1l-3-4-2-2-1-1-1 2c-2 2-7 0-7-4l-3-3-3-4v-1l1 1 3 1 3 1 2 2h7l7 1-4-3-5-4v-11l3 1q6 0 12-3l2-1-2-1-4-1-3-1 1-1c2 0 7-6 7-8l6-2h2v-3h-2l-5-1-3-2 1-1 3-2 2-2-1-2-1-3v-2h5v-5l-2-2-3-4-1-2h-4q-6 1-2-3 1-4-2-3l-2 2-1-2-1-2h-3l-3 1-3 4c-5 4-10 12-10 14l4 1 3 1 2-1 8-2 5-1 1 1q1 3-9 12l-5 5 1 4v5l-4 3-4 4h-3q-4 0-2 4l2 3v2h-1l-3-2v-1l-2 2q-4 3 2 8l3 4v3l-1 7-1 4-4 6-4 5v8l1 7-2 1-2 2v3l-1 5-2 5c0 3-4 10-7 13l-3 4-10 7-4 2v24l3 6 3 7h1q3-3 1-5-4-4-1-6l2 2 1 2v-7c0-14 2-28 4-24q1 3 5-1l3-3-1-2q-1-4 5-5l2-1v3l1 2h3v-4l1-6 1-1 1 3q0 6 4 1l2-2v-3l1-4 1-1 3 4q2 5 4 5h1v-2l2-4 1-2 1 2 1 2-1 8v8l1 1 2 4 1 3h2l2-2v-2l2 3 4 7 2 4-1 1-1 1 1 2 1 2h5l1 3 1 4 1 4 2 2h3q3 0 7-3c6-3 8-4 14-2q6 2 6-1 0-2 2-2l3-2q3-3 3 3l1 3h-4q-3-4-3 5l-1 8-1 2 1 1 1 3 2 3 1 1-1 3v3l1 1 2 2 3 4q6 5 1 9l-2 2 1 4 3 3c2 0 6 5 6 7l-14 13-7 5-8 6-6 4-4 3-4 2-1-1v-1h-3l-2 1-1-2 1-7 1-6-1-9q-3-14-6-17h-1v6l-2 15q-3 2-1-4l1-3-1-11-1-12-1-1-1 2-1 2-1-3-1-2h-3l-1 1q0 4 5 6l2 1v3l-4 17q-2 3-1 5l-1 3-1 1h-1l-2-1 1-4 2-9 2-6-1-1 2-2 2-2-2-2-2-2h-1l-2 1 1 3v3l-2 4-2 6q-1 4-3 2v-17l-1-1q-2 0-2 3l-1 3h-1v-7a45 45 0 0 1 5-22q2-4 3 1l1 4 1-1 1-3 2-2 1 1 2 1v-2l-4-8-3-6 1-3 1-4-1-4-2-10q0-12-5-6-6 3 0 9 5 6 0 8l-2 1-2-3-3-3-5-7-1 3-3 9-3 7h-1q-3 0-6-8l-1-4h-1q-3 0-3 7l-1 4-1 2q-4 4-6 1-3-4-5 3l-2 4 1 3v3l-1 1-1 2v1h5l12-1 7-1 1 2 3 6 1 3-2 1h-3l1 2 4 3q5 3 4 6l-3-1h-5l-4-2q-5-4-6-1l2 1h2v2l1 2h2l5 2 5 1c1-1 8 4 9 7q1 6-8 3l-8-4-6-4-9-5v3l1 2 4 3 5 3 7 3 6 3 6 1h6l1 2 1 2-3 1-2 1 1 2 1 1h2l2-1 1 2v1l-1 1h-10v-4l2-1c1-1-7-5-10-5h-2l-3 5q-3 7 0 6l3 3 1 3 2 1 3 1v2q0 5 8 6l7 2 4 1 5 2 4 1 4-1 6-2 2-1v1l-3 5-4 3h-2l-4 2-5 2-3 1-1-2 1-2 1-2h-2q-6 2-2 6h2l-2 3-4 2-2 1v1h3l5-2 5-2h3l1-1v-2h6v5l-3 1-6 3-4 2-5 1-2 1-4-2-3-3h-5l-5 1v4h-2l-3-2-1-1-4 1h-3l-1-3-3-5-2-1v1l-1 4-1 1-2-1-4-4-1-3 2-2 2-2 1 1 3 1h2v-5l-1 1q-2 4-5 1-4-3-6 0-2 2-5 0-3-3-3 2v2h5l1 2q2 7-5 1-4-5-6-2l1 2 2 1-2 2-1 3q0 4-4 1-4-4 0-5l1-1v-3l-1-4q-4-1-4 2 1 4-6 3l-5 1-2 1-1 2-3-1h-3l-1 2 1 2 1 1 2-1 8-2 5-1 2 2q3 5-4 5h-2l1 3v2h-4l-2-3q-4-5-6-2v2l1 1-2 2-2 2 1 1q3 2-1 2l-4-2q-3-3-3 0l-1 3q-4 3 0 3l7 2 8 1 7 2 3 2v2l-1 2-5-1h-6l-2-2q-3-3-4 0l-1 2-3-3q-4-5-5-2l-1 1-2-1q-4-3-7 1l-1 2 1 2 3 1 2 2 1 1v-1l5-1h3l4 2 3 2-1 1-2 1-4-1-6-1-2-1v5l2 1h2v2l-1 2-3-1-5-2-1-1-2 1q-4 2-3-1v-2h3l6-1 1-2h-2l-2-3-1-2-2 1c-4 4-8 2-4-2q5-4-1-4h-2l-3 3-6 8-2 4q-3 3-4 8l-3 7-2 6-2 8-1 3v2l1 1h2l6-2h5v1l1 1 6-1q8 0 8-4l3-11 1-3 3-4q9-6 5 5t2 6l2-3v-7h2l1-4 1-4h4l1 1v4l-2 6-1 3v2h1q2 0 2-3l2-2 4-14 1-4 3-1 5-3 2-1-1 4-1 5-1 4-2 4-2 3v5l-1 6 2 1 3-1 6-2 3-1v-2q-2-3-6 0l-1 2-2-1-2-2-1-1 2-1 4-6 3-5 1-7v-6l2-2 5-2h2l-1 3-3 12-2 2 1 1 1 2-1 2q-3 3 0 2l2-2 2-2 1-4 1-4 2-1v-6l1-6 2-2 3-3 3 1h4l1-2 1-2 4-1q6-2 5 2l1 6 3-7 1-5 3-1 3-2q4-2 4 2v1h5l-1-2 4-9 2 3 2 2v2q-2 5 5 0c4-2 12-3 12-1q-1 3-5 5h-1l1 2 1 1-1 2-1 1-3-1h-3v2l-1 1h-4l-4-1-1 3-2 3h3l8-2h5l1-2 1-1h2l1 1-2 3-3 5-3 3-2 2h-3l-4-1-2-1-1 2-1 3h-2l-3 1-2 4-3 2h-6l-1 2v5l1 2-1 3-2 2 1 1 1 1-2 2-1 2 1 1 3-1 1-1 1 1 4 1h2v-3h-6v-6c0-8 1-9 5-11l6-2 15-5c4 0-1 4-7 6q-4 2 0 4l2 1q0 3-4 1l-5-2h-2l2 3q3 5-1 5l-3 3-1 2h2l3-1 9-3q0 3-4 5l-2 1 1 1 1 2h-8l-1 1 1 1 1 2h-2l-4 1q-7 0-3 3l1 3 1 2 2 1-2 1-1 2-1-1-3-2h-2l-1 2 1 3 1 6v4h2l3-1v2l1 9v7h1q4-2 6-5v-1l2 1 2 1 1-2q4-5 0-5h-2v-3l2-9 1-5 2 1h2l-1-2v-3h1l3 2 2 3-1 1 1 3q3 2-1 6-5 5-2 9h1l2-5 2-5 3-1 3-2v-5l-1-1-2-2-1-2-1-5-1-6-1-2 3 1h6l-3 2-2 2 1 1 1 1 2-1 1-1 1-4v-5l-2-2c-2-2 2-8 7-8q2 1 0 4l-2 2v2h5v-3c0-7-3-18-7-23l-3-2 2-3 1-5v-3l1 1 2 7v7l4 1 5 1h1l-1-4-2-4-1-3v-2l-3-3-3-2v-4l-1-4 1-2 2-3q0-3 5 1l2 2-2 2q-4 3 3 3h4v-2q1-3-5-9l-3-3 1-3 1-6v-3h2q3-2 3 1l3 2h1v2l-1 2 2 3 3 5v2h-1l-2 2h7v4l1 4h3v-37l-1-2q-3-5 4-7l7-5 12-9h1l-1 1-1 5v4l2 1 1 1 3-2 3-3 3-1c2-4 8-10 9-10h1v2l-1 4-1 3 1 2-4 1-3 1 1 2 1 2-2 2-1 2h-6v1q1 3 4 3c2 0 7-4 7-6 1-2 7-7 8-6l-1 4-1 2 1 1 1 3v2h-3v2l-1 4-1 2h-3l-3-1v6l-2 1-2 1 1 2 1 1-1 2v3h1l4-4c8-11 9-12 11-7l1 3-1 4-2 3h-2q-4 1-3 4v2l-4 3-4 2 2 2 2 3q1 3 5-2 5-7 8-7 4 1 0 3l-2 1 2 2 2 2-2 1-4 3-3 2q-3 2-1 4l1 2v2l-2-1-3-2-2-1h-1v4l3 1 3 3 3 3 3 1v3h5l1 2 2 1 2-1 3-2h2v1l-1 2-1 1 1 4 1 4h2c4 0 5-6 3-9l-3-6-1-4 1-2 1-3-1-2-1-3v-1l3 1h3l1-1-2-5q-5-7 2-6l3 1v-2l-3-3-2-1v-2q1-3-3-4l-5-4-5-5-2-3v-2h2l3 1 5 4 11 8 8 4h1v-4l-3-1h-3l-1-4v-3l-4-1h-3l-1-3v-3h-3q-6 0-6-4l1-2-3-1h-3l-2-3-2-2v-3q0-7 5-3l14 9 4 1v-1l-1-3v-3l-3-1-5-4-4-3-5-2-1-1 2-2v-2h-3l-4-3-2-2 1-1 1-2 9 4 4 2 5 3 4 1h3l2 1 1-1 1-1-1-2-2-1-1 1-1 1-4-3-4-4q-1-2-6-3t-3-3l1-2h-1l-4-1-4 1v-6h7l1-2 8-7 7-5 4-2h2l2-4 2-4 3-1 2-1v-4h2q4-2 4 3v2h-2l-3 1-1 4-3 6q-3 3-3 5v2h1l4-4c2-5 8-12 9-11q3 2-2 8l-6 11-4 6-2-1-2-1-1 1v2l1 2 2 3 8 8 5 2 4 2 2-1q3-3 3 4v4l4 1h4l2 3 2 3h4v-6l1-6 3-3 8-14-4-2-6-5-4-3-4-3-6-4-3-1v-2q-1-5 2-2l3 1 4 1 2 1 4 2 3 1v-1l-2-3-1-2-6-3-6-4-3-1-1-2v-2h2l4 2 5 1 3 1 4 3h2v-4l-4-2q-7-4-15-4h-4l-1-2q0-4 3-4l5-2c4-3 14-8 22-10l8-3 9-3 13-2 25-5c1-1 38-3 45-2h5v2l-4 3-4 3c0 2 6 1 9-1l3-1h4l4 1v3l-5 5-7 6q-4 3-3 5h3l9-5 9-4 4 1 3 1 4 6 4 6 7 9 13 19 12 18 5 8 2 3 2 4 4 6v3l2 1 3 2q2 8 10 22l5 9 10 17 4 8 1 6-4 4-5 6v1h7v-3l3-4 2-2 1 2 2 4v2l2 3 2 2-1 2v3q-1 4-5 6l-5 1h-2l1 2 1 1-1 1-3 1-2 1-1-4 1-7q1-6-3-6h-2v4h-4v-3l1-4 1-2-1-1-1-1-3 3-3 3 1 2 1 2-1 1q-2 3 1 3h7l-1 2-2 2v3l1 4-2-4-4-5-3-1-1 2-1 1v4q2 5 3 2l1-1h1l2 1v2q1 7 4 8l1-1 1-2v7l-5-1h-4l1-1q2-2-1-6l-2-2-1 1-2 1 1 3v3l-3 2-4 2-5 1h-6l-1 2-4 1-4 1-6 3-6 2-2 1-3 1-7 1-11 3q-11 5-17 6c-11 1-15 6-6 6l9 2 3 1 3-1 7 2q0 4-7 5l-3 1v4l-3 2-4 2-2 3v2h18l1 1 2 1-2 1-28 21c-6 7 6 4 14-3l5-4q9-6 17-13 10-9 14-9l3-1 3-2 6-1q4-4 20-6l8-2h12l17 1 30 6 5 2 3 1v1l-1 4v7l-1 1-2 3-1 1q-4 1-4 8l1 4h3l2-3 14-8q3 1-5 7l-3 3v1h3l4-3q4-3 6 5v4l-2 1h-3l1 1 1 1 1-1 2-1 2 3 2 3v2l-1 3 2 2 3 6 1 3-1 2-1 1 2 2 1 1-3 6q-2 7-4 7l-1 2c0 2-4 8-5 8l-4-2-2-2-1 2-1 2 1 2 3 1h1v2l-2 5v3l2 1h1l1-1 3-4 2-3h3l3-1v-1l-2-2-2-1 1-1 2-3 1-2 1 2v1h1l2-1v-4l1-6 1-2v2l1 4c2 1 6 8 6 11l2 7 8 29 2 7 3 11 4 16 9 38 1 1 1 20v21l-1 7-4 24-1 9-1 6c-1 1-3 16-2 20v3l-1 1-2 1v4l-1 6-2 8-2 9-1 2v13l-1 2-2 9-2 8-1 4q-3 16-5 21l-1 10-4 17-2 9-1 5-1 7-2 8-1 9-2 9-1 5v4h-4l-1-5-2-12q0-7-4-18-1-2-7 1c-4 3-4 3-13-8l-7-9-22-27v-1l2 1 3 2h7l11-3 7-2 3 1 3 1 2-1q5-2 0-5-3-1-3-2l-1-3-3-5-4-7-3-3-2 1-1 1h-3l-3-1-4 3-4 5-1 2 1 1h4l2-1-1-2v-2h1l4 2 4 1h3l-3 1-5 2-4 2q-2-1-7 1l-4 2h-2l-5-3-2-2 1-1 1-4v-2h6v-6h3l5 2h2l-1-3-1-5-1-1-3 1-10 9-8 7-4-1h-4v1l1 3 1 1h-7v-2l2-2 1-1v-6l2-1h4q4 0 1-3-2-2 3-3 6 1 1-3-3-6-8 0l-10 14-3 4-3 5c0 2-5 9-5 8-1-1 1-10 2-12l2-3 3-4 3-2v-3l1-3h2l3-3 1-1-1-2q-4-3-7 0l-3 2v-2q-2-4-4 0-1 3 2 3t-1 4l-8 18-2 8-1 5-3 2-3 2h-2l-2-3v-1l2-3 3-2v-3l-1-3h1l2-1-1-3v-4l3-1 3-1v-4l1-5q2-3-3-5h-4l-2 1q-4 3-14 5l-6 1-6 3-6 6-2 3-2 6-2 4v19l1 2 2 5 1 3-1 4-2 3h-2l1-3v-4h-2q-3 3-3-2v-3l-2-2-2-2 2-3q4-5 1-6-5-1 0-9l2-2-2-3-3-2q-2 2-5-5l-1-3 1-1 1-2v-2l-1-2 2-3 6-12 2-8 4-5 3-5 3-5 9-18 4-5 6-6 5-8 4-6v-2h-1l-3-2q-2-4-7 0l-3 1-2-1h-3v-5h-2l-3 2q-4 3-7-1l-1-1-1 1-4 3-3 2h-3l-3-1-3 3-3 3 2 3 1 2-1 4-1 3 2 2 2 2 1 7 2 12 2 9v5h-1l-5-5-3-1h-3v-1l1-2 3-1v-1l-4-4-4-4 1-1 2-1q4 1 0-5l-3-2v-6l1-6 1-1-1-3q-3-8-5 1-4 9-7 11l-2 1v3q0 6-3 14l-1 3v7l-2 1-4 3-2 2-3 1-2 2 4 5 4 6v14l-1-3-1-2-1-1-3-1v2q0 4 3 6 3 4 1 5v9h-3v-2l-2-3-2-1v-8l-3 1h-2l1-4v-4h-2l-4-2-2-2 1-2 2-3 2-2 5 5q2 2 5 0l1-2-2-1-3-1v-3l1-4-3 1-3 1-2 2-2 1-3 2-2 4-1 3 2 3 3 4 2 2 2 5v4l2 1c3 0 12 10 12 12l-1 4q-1 5-2 2v-2h-6l-1-2-1-3v-2l-3-1h-3v-3l-2-4-2-3-2-1-4-3-1-1-1 1-1 1 3 4 3 5 1 1 1 2c1 3 12 13 16 15l4 2v2l2 6q5 7 0 6h-2l-1-3-1-3-3 1h-2l-1-3-2-2-4-1-2-1v-6h-5q-6-1-7-6l-2-4-1-5v-3h-1c-3 1 0 11 4 15l4 5q3 5 6 6l11 8 5 3 4 3v3l1 6v3l-2-3-3-4-1-1-1 1q-2 3-7-4l-3-5-2 2q-3 2-3-3 0-3-3-1-3 3-3-3v-4l-3-1-3-2q-4-2-6 1l-1 2 1 4 1 4-2 1-2 2 2 4 2 4-1 1-2 1v4c2 2 4 9 4 12 0 4 5 13 11 19l6 6 6 2 7 5 2 1-1 3-1 7-1 8-1 3 1 3 1 4-2 5-2 6-3 2q-6 2 2 6l4 1-4 1-9 3-5 3 4 1 4 1 4-2 4-2 3 2q4 2 1 7l-2 2 3 1 2 1-2 3-3 3 2 1 5 1q4 0-6 5-11 3-5 5 5 3-1 5-6 1-2 3 6 2 0 3-6 2 0 4 5 3-1 5l-4 3-2 1 1 3 2 4 1 1v2l-3 1h-4q-2 1-2-2l-3-6-2-3v-10l-3-1-3-2v-2h7l2-4 2-4-1-3-1-2 3-3 2-4 5-9 1-4v-2h-2c-2 0-9 4-10 6l-1 2 2 2 2 2-4 1-5 3-2 3-2 2h4l5 1 2 1-5 4q-5 6-9 3l-1-1-1-7-1-7-4 1h-3l-1-3-1-2-2 1-1 3-2 1-3 1-2 2-3 1v4l2 1 4-1 4-2h6q1 3-6 2h-3v2l3 3 2 1-4 1-5 1h-1l2 2 3 2-3 2-2 2h-9v1q0 2 3 2l2 1v5h-5q-9 0-3 4l2 3v1l-3 1-4 1-1 2 1 2q3 4-3 6l-3 2 2 2 3 2-3 3-5 4-2 1 2 1q6 2 1 4l-2 2 2 1 2 1 1-1 1-1v-2l-1-2 2-1 2-1v-3l2-4 1-2 3-7 3-8 1-2 4-4q12-18 18-17l4 1v5l1 6 3 2 2 4 1 5v3l2 1c2 0 6 6 6 9v2l2 1 3 1 2 5 3 6 3 1 6 5 6 5 6 4 3 3h2l4-1 1-1 1 1c1 1 8 5 9 4l5 1 7 2 6 2 2 1h10l7 3 19 5 6 2 2-1 2-1v-3l-2-5v-3l-1-6-1-4 2-2 1-2-1-5v-5l1-1 1-2-1-3-1-15-1-21-1-1v-4l1-4-2-3-3-3-4-6-4-5v-5l1-5h-2l-2-1v-2l1-2 4-3 2-3v-11l2-1h1v-15l1-1 2-1-1-6-1-5 1-2q1-4-1-5v-4l-1-2-2-2-1 2-4 3h-2v-2l1-3 1-1-1-1-1-1-3 1-4 1-2-1-1-1 1-3v-3h-10v-3q0-5-4-1l-3 2v-3c-1-3 0-10 2-11a78 78 0 0 1 27 20q3 5 7 2l1-1-2-5-2-4h-6v-2l2-4v-2h-1l-3 1-4 1h-2l-1-3v-2h-8l-1-3q-1-3-3-1-3 3-4-2l-1-2 4-4 6-5h2l6 2 5 1 2-1q10-5 17-11a115 115 0 0 1 27-19l2-3v-2h5l5-1 2 1 2 2 1 1 4 2 2 2-2 1-3 2-3-2-3-1-1 1-2 1 1 1 1 5 2 7v3h-11q-4 2 8 4 15 2 20 5l3 1 3 2 3 1 10 7 9 7 10 13 10 14-3 4-4 6-4 6-5 9-3 6v7q2 0 9-7 6-10 13-12l3-1 2 2 2 1v31l2 3 1 4v221l-1 3-2 5h21v-191l-1-18-4-49v-7l1-2 1-2h2l4-1 2-1 5 2 7 2h7c0-2-11-9-15-9l-3-1-5-3q-4-1-6-4l-1-2 1-6 2-11 4-19 5-22 7-29 3-12 16-80 1-1 4-1q7 0 4-4l-1-2 2-3q2-2 5-3l2-1 3-5q6-8-2-8h-2l1 2q0 5-4 5l-2 1v-2q-1-3-3-1l-3 1h-1v-9l2-15 2-10 1-4 4-3q6-3 9-1l4 2 4 2v3l1 4h7q15 2 8 6l-2 1-3-2-3-2v1l-1 3-1 2-3-2q-5-4-6 0l-1 1-2-1q-7-2-2 3l1 2h6l7 1 1 1-2 1-3 2-3-1-3-1-1 1-1 2h-2q-3 0-4 2l1 2h12l1-2q3-4 4 0l-1 1-1 3c0 2-4 10-6 11v6h1l3-3 4-8 3-6 1-5v-2l3-4 7-5 4-2 1 2v1l-4 4-4 4 2 1q5 1-1 3l-2 1 1 1 1 3v2h-2l-2 1v5l-2 2-5 3-3 1v2l1 4 1 1 2-1 6-4q5-4 8-2l2 1 3-3 5-3 3-1 3-1 7-2 5-2 2 1 2 2 2-2 6-4 3-1 3 1h3l4-3 3-5 2-2h1l1 2 2 1v-1l1-2-3-2q-5-4-6 0v3l-4 1-5 2-3 2c-1 1-7 2-7 0q-3-2-6 1l-1 2v-2l3-5 2-4 2-2 2-1v-4l2-6 3-7q2-12 6-11l8-4 7-2 3-1 5-3 5-2 4-1 5-1 9-2 8-2 5-1 10-3 4-2h4l4 1v4h2l5 3 6 6 7 8 4 5-2 3-1 3h-3l-13 2-10 1-3 2-2 2-7-1h-6v1l2 2q5 2 3 5l-1 2 7 1 7 1q2 0 3 2l-1 1h-11l-1 2-1 2h-5q-8-2-3 4l2 3h-2l-3 1h-2l-2-2q-6-6-6 2v2l2 1h2v7h-6l-4-1-2 2-2 2h-2l-5-1h-2l-1-2v-2h-2q-3 0 0 3v5l4-1h3l2 1 1 1h3l3-1 2 2 2 3 1 3c3 3-4 3-9 0l-7-2-3-1 2 3 1 4h-1l-7-2q-8-4-9-3 2 5 5 8l2 1 11-1 17 1 2 1-2 2-2 3q0 4-5-1l-3-3-2 1-1 3-1 3v2h-5l-4-3-4-4h-2q-5 0-1 4 5 5-2 4h-3l-2-2-10-4-1 2 1 1 1 2q0 3 6 5l2 2 1 2q2 3 0 5l-8-3-6-2 3-2 3-1v-2q-2-3-7 0l-4 3-1 1 2 3 3 3 1 1h-2l-5-1-4-1-2 1 1 2 2 3v3h6l2-1 6-2h4l3-2 3-2h6q11 0 12 3l-2 1-4 3-4 2-2-1h-2l1 2 1 3v2h-2l-7-2q-13-6-5 3l3 5v1h-3l-3-1q0-2-7-4l-7-4-1 2 1 3q3 4-3 4h-3l-6-3-5-2-1 1q-2 2 3 6l4 3-4 6-1 2 1 2 8-3 9-5 4-1 4-1 8-2 6-1-1 3q1 5-7 4l-4 1-1 4q0 6-4 3-14-7-11 2l1 3-1 1-3-1-5-1h-4v1l2 4 2 2-3 3-4 3v2l2 1q5 1 6 4h-10v2l2 3h1l-1 2q-5 9 6 2 8-6 9-2v1l-2 2-3 5-2 4-3-1h-4l-1 1-1 2 1 4q3 10 1 13l-1 4 1 3 3 3c1 0 5-6 5-9v-1h3l3 1 2-4 3-4 2-1v-2l2-3 3-3 1-3 1 1q3 4 5-1 1-3 4-6l3-4 4-1h2v-1l-2-2-1-1-2 2-1 1-1-1-1-1 1-3 2-6 2-13 2-10 1-2q2-2 3-5 4-5 6-3l-1 2-1 1 2 3 1 3-1 1-4 3-2 2 2 2 3 2-4 3-3 3 3 2 4 3c1 0 3-6 2-9q-1-2 1-7l2-5v-17l6-5 6-7 1-2 1 1 1 2 1 4 2 1-4 3q-5 4-1 6l2 3v2l-3 1q-3 1-4 3v1l2 2q5 3-1 4l-2 1 1 2q6 4 7-5l1-3 1-6 3-6 1-2-1-10v-10l4-4q7-7 6-1l1 2-1 3-2 2 1 2 2 2-2 4-2 3 1 1q2 4-1 6l-2 2 1 3 1 2-2 2q-3 5 1 5l2 1 1-2 1-2v-3l-1-2 2-2q3-4 3-24l-1-11 5-5q13-12 8-2l-2 4 2 2q6 6-4 14l-2 3 1 1 4 1q3 0-2 5l-2 2 2 2q4 3 6-4l2-5v-34l8-7 8-6h2l3 1v3l-3 3-2 3 2 1q6 1 0 7-6 5-2 6t-2 7l-5 5 1 1 10-2 1-7 2-13 1-12v-10l7-4 8-5q3 0 5-3l7-4 7-4 4-2 4 1 5 2 2 1 6-1q10-1 15-8l16-14 1-1v-3l1-2 1-2h2l3-1v-1l2 2 1 5v3l3 3 4 3h2l1-1 2 2 2 3v1h2l2-1-1-2v-3l3-1 3-1v-2l-1-2-2-1-1-1 2-2 2-2-2-1q-4-2 0-5 3-2-1-5l-1-1h1l4-1q5-4 5 2l1 5 1 2 2-1q3-4 1-5-2-2 1-3l4-1h2l3 3 3 3 1-1h7c1 2-20 20-23 20l-2 5-2 5-3 4-3 5c-2 2-7 13-7 16l-2 3-2 2-1 7-1 7 1 10 2 14 2 5 2 1q4 1 4 10v6h1l3-1 6-1q14-1 14-4l4-1 3-1 5-3 4-1v-2l-1-3-2-2-1-3-2-1-1 2-2 2h-6l-1-2-1-2-4 1h-4v-1l4-5 3-4h8l1 2 1 1 4 1 6 2 2 1h9l10 1v-1q-1-10-3-6v3h-7l-2-3-1-3-2 2q-2 4-5 1l-5-1q-7 0-9-3v-1l5-3 9-5q6-4 11 0l4 1 4 1q2 3 15 4h6l1-1 1-1-1-2q0-5-4-1l-1 2h-2l-3-4q1-3-4 0l-3 2-2-1-2-2v-1l-4 1h-5v-1q0-4 4-5l3-1 4-2 4-1 2 2 11 5 4 2 2 1h5l5 1 1 1 3 1h3v-5h-1l-2-2-1-3-3 2-3 1-1-2-2-2-2 1-2 2-2-1q-3-1-3-3l-1-2-4 1h-3v-4l3-1 4-2 5 1h5l2 2 4 2 4 2 2 1h13l2-2 5-2h1l1-4 1-4h2c2 0 12-9 12-11l2-2q2-3 0-4l-3 3-2 2h-3q-5-1-6 2l1 1q3 2-1 5-3 3-6 0l-2-1-2 1-3 1h-2l-1-2v-3l-2 1-2 1-1-1-1-1 3-1 4-2h3q8 3 9 0v-1h-3q-7 0 5-5l9-5 16-4h2l-2 3q-5 4-2 4l9 4 8 3 4 3 9 6 4 3 2-1 1-2h6l1 4 1 3-1 2-1 1 1 2 4 3 6 6q8 9 14 11h2l-2-4c-3-7-3-9-3-15l1-6-2-1-1-5-1-3 2-1q2-3-1-3l-2-1 1-1 1-2v-2l-3-2-4-4-2-4-6-1-6-2v-2l-1-2h-2l-4-1c-1-2-7-2-7-1l-1 1h-15l-5-2-10-5-6-2-4-1-2-1 1-1v-2l-5-2-13-5h-4l-1-2v-2l-4 1h-4l-3-2-2-1h-3l-4 1h-8l-2-1-2 1-3 2-2-2-3-2-2 1-3 1h-2l-8 2-6 2-3-1-2-1-2 1q-3 4-10 0-6-2-2-5l5-3 2-2 3 1 3 1 1-2 2-2 2-1 2 2 2 2 3-3 2-3 2 1 2 1 4-2 3-1 2 1 2 1 2-2 2-2-3-1-2-1h-12l-11 1-2 2-4 1-5 2-3 1-7 4-4 4h-2l-5-2-3-1v-2h3l4-1v-2l3-4 2-2 2 1q5 4 4 0l1-4 2-1 3 1h3l1-3 1-2 2 2q2 3 6 1l1-1 1 1q4 2 4-1 2-4 8-5h3l1 2v1h5l2 2 4 4h2v2q1 3 4 2 3-2-4-8-8-5-6-6 0-3-10-3l-6-1-2-1-7-4-5-2h-9l-8 4-10 5-3 1-4 3q-3 4-6 4l-3 3-5 6q-5 4-5 6c0 2-6 9-8 9l-4 4q-6 5-9 2l-1-1-1 2q0 5-4 2l-2-1-2 2q-4 4-5 0v-2l-1 2q-3 3-5 3h-2v-6l3-3 4-4h5l9-1h4v-2l-1-2h-1l-2 2-1 1-3-1h-8v-2l1-1 2-1 4-1 2-1v-3l-1-2h4v2l-1 2h2l1 1 3-1 5-2 4-1 4-2q4 0 1-4-3-3-4 0l-1 2-3-1h-4l-1 2q0 5-3 2l-2-2 1-2 4-2 2-2 2-2h2l3 1v-3l-17-1h-17l-3 2-9 1-5 1-2 2q-2 3-6 4l-4 2v2l-1 3-2 4v2h-1l-3-1h-2v-10h1l1-1-2-1q-4-1-6-5l-2-3-1-2v-1l1-2h5l1 2h5l1-2 1 1q3 2 4-1 3-5 4-1l1 1h3q6-1-2-4-9-3-22-1l-7 1-4-4-5-5v-1q3-3 5 1l1 2 3-3 2-2 2 2q3 5 4 0 1-6 4 0 3 4 5-1l2-2h2v2q1 4 2 1l2-2 3-1 1 1 4 1 1-1-3-2q-4-3-7-3l-8-1h-5v-2q1-5 4-5l2 1v2q0 5 3 0l2-2 1 1 1 2h2q8-1 12 12v4h4v-6l-2-2-2-2 2-2 1-1-2-3-3-6 1-2-6-5-6-5-5-2-5-2h-6q-11 0-14 3l-4 3-4 2-1 4c-3 5-13 14-16 14l-5 3q-8 6-2-3l3-2 2-6q1-4 3-5 2-3 0-4l-2 2-1 2-2-1q-5 0-2 3l1 1-2 2-3 5q-2 2-3-2-1-2-2 1l-1 1h-2l-4-1-1-2h-13l-1 2-2 1-5 3c-4 5-5 4-21-6l-6-3-2-1v-2l1-3q3-2-1-3h-2l-1-3-3-4-3-2h-3l-7 2h-3v-1l1-1 2-1-2-1q-4-2-9 1l-4 1q-7 1-8 6-2 5-8 6l-6 3-7 3c-1 0-14 11-14 13h2l2-1 1 1c2 3-4 11-11 16l-3 3c0 2-6 7-8 7l-6 6-2 1h-2v9l2 7 1 5-2-3-2-5v-3h-3l-1 3c0 4-4 11-5 11q-3 0 0-5l1-4 8-18 1-4 5-7 4-6 7-14 3-5 9-14a797 797 0 0 0 47-96l4-10 3-5 2-7 5-10 3-9 1-4 14-40 3-4 1-3 2-5 1-4q-2-5 10 7l9 9v2l1 2c1 0 7 8 7 10h-2l-2 1v1q2 0 11 11l5 6 1-1 2-1-1-7v-6l1-1 1-2-2-1-2-2-1 3-1 3-4-4c-4-6-6-14-1-11l1 1 4-1 3-1v-2l1-2h-2l-3 1-1-1-3-2-4-1-3-2-7-1-4-2-1-2v-3l3-1 3-2h-1l-5-1h-2l-1 2-1 2v-1l-3-3-3-1v-3q-1-5 8-5l5-1 1 2 1 2 2-2 2-2v-1l-1-1h-3c-3 1-10-1-12-2l2-6 1-4 4-4 3-3-1-2-1-2 1-2 2-4 1-3 1-1 2 2 9 11 30 36h-2v-1q-1-4-5-6l-2-1q-3-4-6 0l-1 2 2 4 2 4h2l2-1 3 3 4 2 7 5 9 6 2 2 2 1h1l1-2v-3l-1-3v-5l-2-2-2-2h2q3-1 1-6l-1-3-3 1q-5 3-11-3-4-5 0-6h1l3 3 2 2h1q3-3-2-8l-3-3-2 1h-3l-2-1-1-2h-4l-4-1-2-2q-2-2 2-5 3-2 4 2t2 0l1-2h2q6 0 6 5l1 4q3 1 2-5v-2h3l3 1 2-1v-6l-2-1v-4l1-4 1-1-1-2-1-2 1-1q5-5-3-5h-3l1 7 2 11 1 4-2 1-1 1-3-1-5-2-1-1-8-1-14-1-4-2-3-3q-7-6 2-5l8-1 3-1 2 2 1 4v2l3-5 1-6v-1h-10l-15 2h-6l-1-2v-3l2-4 2-3h3l6-2h9l2 1q5-1 6 2l1 3 1-1 2-5v-3h-28v-2l2-4 3-4 5 1h12l2-1-2-1h-9q-12 1-4-9l1-2 3 1h2l1-1 3-2h1v-2l-2-2-2-1-1 1-1 1v-2l1-3 4-10 3-8 5-5 12-10q18-19 27-19l4-1c5-5 35-7 35-2q0 2 3 3l10 13-4 1h-4l-2-3-3-4-1-1-3-3q-7-5 0 3l4 5-1 2q-2 3-11-3l-6-4-1-1-1-1 2 5 2 4h-12l-2-1-1 1-5 3-3 2h-11l-1 2-1 1h-4l-4-1v1c0 4 8 5 10 2h21l1-1 6 1 6 1 1-1 1-1h3l6 2h3l1-1 4-2h3l2 2q3 3 4 1l4-3 3-2 1 2q2 5 5 2l6-2q9 1 4-5l-7-9q-4-6-6-7h-1v5l3 3 4 5 1 1h-9l-3-2-2-4-6-7-6-6h1l14 4 2 2 1-2h3l3 2c5 1 12 9 12 14v3h2q3 1 4 8l1 3-1 1q-2 1 1 4l2 2v10l1 3 2 3-1 2-2 2 1 2 2 1v6l-1 6v1l3 14-1 6-1 3 1 4 2 6 3 4 2 5 2 5 2 5v3h4l2-5 1-5 2-2 2-2v-2l-2-3q-2-2 3-3h2v-6l2-1 1-2-1-3-2-6v-2l-2 2-1 2-1-2-2-4q-3-2-3-5-1-2-4-3l-2-1v-4h2l9 7q4 6 4-1v-4h-4v-2l1-3-2-2-3-4-1-1-3-1-1-2 1-1 2-1 1 2q3 5 6 5h2l-1-1 1-4 1-1-1-2-3-1-1-2v-3l-3-1-2-1v-2l-1-3 4 2c6 4 7-1 1-6l-2-3 1-1 3-2q5-1 2-4l-2-3c0-1-8-10-10-10l-3-3-3-2h-2l-2 1-3-3-3-2h-8l-2-3-4-5-5-6q-5-3 1-7l2-4 2-4 1-5 2-4 1-3 1-2 1 1 1 1h1v-12l-1-1q-4 0 0-4l2-2v-1l-1-2h-2q-5 0-3 5v2l-2 3-3 3v5l1 4h-1l-2 6-7 10-1-4v-4l1-2 4-7 3-7 2-1-1-9q0-13-3-11l-1 1v5q0 7-2 4l-1-1-2 2-1 2v3l1 2h-2l-3-1-1-2 1-4 2-9 1-6v-11h-6v2l2 6v5l-2 1-3 1-2 1v-8l1-8v-5l2-1 1-1v-15l-1-1c-2-1-5 8-5 16q-2 6-4 4l-1-7-1-7h2l1-1v-7h-2l-2 1v6l-2 1h-1l-4-4q-6-7-8-12l-1-4-3-1h-3v-4l2-1q5 0 5 3c0 4 5 6 7 3v-2l-2-1-3-2-2-2-1-2h-3v-3l6-23 3-11 1-3 2-7 2-9 2-10 4-18 1-8 1-4 2-7 2-7 1-4 1-3 2-9 1-8 2-7 3-13 1-7 2-1c3-1 13-13 14-16l2-5 2-4q0-3 3-5 4-6 1-8v-3l2-1 2-2 6-3 6-4c2 0 13-10 14-14 1-2 8-6 13-7l3-1 6 1 7 2 2 1 1-1 1-1-5-4-6-3-3 1c-3 2-11 3-11 1 0-1 6-8 12-11l6-4 7-5 6-5 1 1 1 1v13h1l2-2 1-2q3 0 1 5l-1 2-1-1q-3-2-3 1l2 3 2 3 2 2 1 1-1 2-1 2 2 2 5 4 9 6q10 8 14 8l4 1h6l1-1 4 1 4 1 2-1v-5l-1-1 1-10 1-10s5 3 5 5l4 2 3 3c0 3 10 6 11 3l1-2 2-1h-2l-2 1-1-2v-2h5v-2q0-5-4-2l-3 1-2-1-3-1v-8l-5-1h-5l-1-5-2-8v-2l-2 2-1 2-4-1h-3v-2l-2-2-1-2 1-2 1-7 2-6 1-3v-2h2l5 1 3 1 2-1 1-2v-1l-1-1-6 1-9 1-3 1-1 7v7l-2-6-1-7-1-2h4l-1-2v-2h4l5-1 1-2 2-2 4 1 6 2 3 1h2l5 4q11 8 12 2h4l2 1v2l-1 2h1q2 1 7-6l2-4h-2l-5-1-4-2v-1q0-4 6-2l4 1 1 2 2 3 5 1 5 3h3l-1-3-1-2-2-1-2-1-4-3-3-3v-1h9l4 3 8 4 3 1h5l-1-3-1-2h-4l-1-2v-2h2l2-1 4 3 7 4 4 2 2-1 2-1 2 2 2 1h-4l-3-1-1 2q-1 3-8 4h-3v5h4l1-2v-2l2 1 3 1h2l5-4 5-5 3-1 4-2 2-3v-4q0-10-3-13c-3-3-10-7-12-7h-1l1 2v2l-1 1-2 3v2l-4 1-4 2-2 1h-1l1-3v-3h-5q-9 0-4 3 6 3-1 5l-4 1-3-1h-3v-2l3-5 3-3-1-1-1-1-1 1-1 2-4-1h-4v1l1 2 1 2v2l-3 1-5 3-4 2h-2v-1l3-5c3-5 3-4-2-5l-3-1-1 1-1 1 2 2 1 2-2 1-4 1-1 2-1 3h-6v-4l6-8 6-8h4v2l2 3 1 1h3l2-1v-1q0-2-3-3l-3-1 1-2 2-2h15l6 1h7v-3l-6-1-6-1-1 1-2 1-3-1-3-1-2 1-5 1-5 1-1 1-2-1q-3-2-4 2v1l-1-1q-3-3-8 2l-5 4c-6 0-12 7-12 12v4l-3 1q-5 2-2 3l1 2-2-1-2-1-2 1-6 2-5 1v-2l3-5q6-6 1-6-4-1 1-5l3-3-2-1-2-1 1-2 1-3c-1-1 4-6 6-6q6-1-1-3h-3v-5h2l2-2q2-4 7 0l2 3-3 1-2 2h8l5 1-1-5 1-6 1-5v-4l-2 1-2-1q-1-3 3-4h2v-8l1-3 1-3-1-1c-2-2-4-12-3-14v-3l-1-1-3 2-5 3-3 3-5 2h-2l-1 3-2 2-3 2-2 2v2l1 2-3 1q-5 2-2 3t-3 6l-4 3v2l2 3h1l3-2q3-6 5 1l2 3v5q2 8-3 2-3-2-4-1l1 1 3 14v6l-1 1-2 1-2-2-3-3-2-1 1 4v4l-1 1h-2l-2-2-2-1v-3l2-5 1-5 1-3v-9l-3 3-2 2v6l-1 1-3 3-2 4v17l-1 2-6 2-4 1-2-1-1-1 1-2 1-1-1-2-2-2 2-1q3-2-1-3h-2v-3l1-5 2-2-2-3-2-3h-3q-6-1-1 7l2 7v1h-2l-3-1-1-1h-2l-1 1 2 2q4 3-3 3l-3 1v-2l-3-2-2-1 1-3v-3h-2v-4l1-4 1-3v-2h2l2-1v-5l2-1 2-1 1-4q1-6-4-2l-3 2v5l-3 2-2 1v3l1 2-2 1h-2v6l1 5-2 1-2 2 1 2 2 4 2 3 1 2-1 1-1 1 1 2 1 4 2 3h1v3q0 5 5 5h2v-8l2 1 2 3v2h2l3 1 1 1-1 1-1 5-1 3 1 1q6 2-9 10l-6 3-4 3-6 4-3 2-12 9h-5l3-1 2-2 2-3q3-4 4-13l1-6 2-4v-1l-2 1-3 3-1 1q-3 2-5 11v5l-3-1h-2v1l1 2 2 1-2 2-1 3 1 3v2l-2 2-1 1-2-1h-2v1l1 2-5 4-15 17-4 5-1-1-1-1 1-2 1-2v-13l6-24 2-5 4-15 2-8 5-20 2-8 3-11q1 2 5-10 4-10 1-12h-1l-2 4-4 4q-2 1-3-2 0-6 9-14l6-7 3-3 3-2 4 1h3v-1l-2-1-2-1 7-5 3-3 2-3 2-2 2-3q3 2-1 6-3 5-1 5c2 0 6-6 6-9l1-3c2-1 5-8 4-9v-2l3-1 4-6 7-10 6-9v-2h-2l-2 2-2 1-3-1q-7-3-8-1l-2 1-2-1 2-1h1l2-4 3-5 4-5 3-4h4l6 2h4l4-2 6-5q4-6 7 1 9 15 26 20l5 2h22l4-2 4-1 11 1h10l5-1 4-1 1-2 1-2 2-2 3-3 2-2c1-2 9-6 11-6l3-1 3-1 8-4 7-2h3l2-3 2-8 1-4 2-1q6-1 0-3l-2-1 1-1 2-3 2-5 2-8 1-5-1-5-2-6 1-4 1-4-2-4q-2-5 1-10 5-8-1-8-6-1 0-8l2-6v-2l-2-1-12 2-4 1h-3l-1 3-1 3h-3l-7-1h-4l1-2 3-3 1-2h3l3-1v-2l2-4 1-7v-1h-3l-3 1-3 1q-5 0-4 5v2h-4l-5 1-2-2-2-2-2-3-3-2 1-2 3-3c4-2 15-12 15-13q0-3-7-2l-6 1h-4v2l1 1 1 1v1l-1 1-1-1-5-4-4-1-1-3v-3l-3-1-3 1-3 1h-1v-2l1-2-4-1h-3l-1 1-3 2-5 3-3 3v8l1 7 2 1q2 2 0 4c-2 3-4 25-2 34l1 5v6l-1 6 1 2 2 2 1-2q2-6 13-3l3 1 1-2 2-1-2-2-2-1-1-1 2-3 2-6 2-5 2-5 1-5 1-4h2q3 0 3 6v2l4 2c6 3 6 3 6 11v7l-4 5-4 5-4 2q-7 3-4 6h6q6-5 20 8l4 4v3l-1 5v2l-2-1-5-3-4-2-3-1q-3-2 0 3l1 3v7l-1 7-3 4-3 6c0 2-8 6-14 8h-3l-2-1q-4-3-9 0l-4 2-9-1-10-2-2-1v5l2 3h-1l-2-1-1-1-2 1-5 3-4 1-2-1q-5-3-6 2v2h-2c-5 0-14-7-14-10l2-7 2-5 3-1 3-1h4l4 1v-1q0-5-7-5h-3v-1q0-5 9-13l5-5 5-2 6-2 1-1 7 1h7v-1l3-2c4 0 17-10 17-13v-2h-2l-7 4-6 3-10 4-8 3h-4l-4-1-2 1-7 2-6 3-4 1h-2v2l-1 1-1 1v1l4-1h3v1l-5 6-5 5h-1l-1-1-3 2q-4 5-4 0 1-4 4-5l1-1q-1-3-9 5l-2 2h-2q-3-1 1-7t0-5l-1 1 1-3c0-3 7-10 9-10q4 0 2-3l-1-2 1-2q4-6 4 0l2 5 2 3-1 2-2 4-1 1h1l1 1 2-2c2-2 5-8 4-10l2-6 3-5-2-2-1-2 1-4c2-4 3-18 3-26v-4l2-3 27-27 1-4 1-4-2-1-3-3-3-5-2-3-3 2q-3 1-7 6l-6 4-7 4-5 3-3 6-2 5-4 1h-4l-1 2 5 25q2 5 1 7a89 89 0 0 1-14 35l-2 6-2 4h-2q-3 0-3-16l-1-9-2-4-1-4v-7q0-13 3-25l1-4v-20l1-19-2-1-1-4c-2-10-8-19-10-15m106 54c2 3 4 12 4 17l-4 15-1 5v4l-3 1h-4l-1-1v-7l-1-13-2-5 1-8c0-9 1-9 5-9h4zm65 60 2 4v2l-3-1q-5 0-5-4l-1-2h3zm-159 39 1 1-2 2q-3 3-6 0l-1-1 1-1q4-3 7-1m43 86-1 7q-5 12-6 2l-1-4 4-4 4-3h1zm8 11-1 4-3 2q-7 6-3-5l2-5h5zm-19-2 1 8 1 6-1 2q-3 2-3-1l-1-7q0-12 3-8m17 15c0 1-7 6-9 6-3 0 0-5 3-6zm86 36 4 3q8 3-9 6h-3v-1l2-4q4-10 6-4m-125 9-2 2 1 1 3 1c2 0 8 4 8 6l-11 10q-4 2 1 1 4-1 6 5l1 3-2 3-1 3 2 3 2 4 2 2 3 5 4 7 2 5q0 4 5 3l2 1c0 1-7 4-11 4h-3l-3-3q-6-4-1-4l4-1 1-1-1-2-2-2h-8l-4-3q-8-5-2 4c3 3 3 4 2 13q0 10-3 6h-2v3l1 2h-2l-1-1-2-2-1-1v-3l-2-1-4-3-1-2v-14l-2-2-4-3-3-4v-3l2-2 3-2-1 4v4h2l3-1 3-4q5-6 1-7-3-1 1-2l4-1 1-2-2-2-3-3 1-5 3-7 2-5 1-3 2-1 1-3v-1h5zm49 13 3 4q4 4 1 4l-2-1-1-2-3-1-2-3q-3 0-3-2v-1h3q4-1 4 2m-43 55 2 3v6q0 12-4 5l-2-2v-7l1-7q1-3 3 2m11 15 2 2q2 2 0 3l-3 2v1l-2-1-1-1-1 1q-4 2-2-3l1-6 1-3q3 0 5 5m-509 50 7 6 2 2 2 2q3 0 5 8l-1-1-2-2h-7v-1l-2-3-4-3-2-2-2 1h-2l-1-3-1-3h-2l-1 1-2-2-2-2 1-1 4-1 2 1 1-1q-1-5 7 4m272 25v3l-3 1h-11l3-4 2-3h9zm-9 16-1 2h-3l-5 1c-5 3-7-3-2-6l2-3 5 1h4l1-2v-1l1 3v3zm-558 24q0 3-8 6l-5 1v3q-1 4-3 1l2-6 3-3 4-2zm541 10v1l2-1 2-1 1 1 1 2h-1l-3 1-2-1-1 2-3 1-4 2-2 1-4-1-4-2v-1h2l4-1q8-6 12-3m-559 11 5 5 2 2h-1l-1 1v1l1 1 2-1h3l3 3 4 4v4h-3l-5 1h-3l-2-2-1-3-4-6-4-4h-5l2-2 2-1-2-2q-3-4 1-3zm546 17 3 5 2 3c3 1 7 7 7 9s5 6 7 6l7 7 10 11 3 5q5 11-3 1-6-8-18-18l-20-10v-1l2-1q5 0 2-4l-2-3-1-2h-2v-5l-1-1h-2v-3l-1-3-1-2q2-1 8 6m-5 23 5 3 3 2c2 0 10 5 10 6 0 2-6 5-8 5h-2v-4l-1-4q-3 0-2 11v5l-2 2-2 2-2-1-2-1-1 1-1 1 1 2 1 2-1 2q-1 4-4 0l-2-2 1-2 1-1-2-4-1-4 1-4q3-8 3 1l1 5 2 1h2v-2l1-2-1-1c-2-1-3-6-2-7l1-1-1-2-1-5v-5h1zm-204 1 3 1-1 2v1h-3l-3-1 1 2 1 1-2 3-3 1-1 1-2 1-2 1-2-1-1-3v-3l3-2 6-4 4-1zm-436 12v8l-1 3-3 8-1 4-3 2-2 1-2-2-3-6-1-3 4-4 4-4 1-4 2-6 2-4 1-3h1l1 1zm451-8c3 1 0 7-4 7q-4 0-1-4l2-2-1-1zm9 3 4 2q5 2 1 4h-1l-2-1-4-2h-2v-1q0-4 4-2m202 6c2 0 6 6 5 7l2 1c2 0 9 10 9 14l3 4q4 5 0 8l-2 2h4l3-1 2 3 2 3-2 2-2 3v1h3l3-1 1 4 2 4-1 1-1 2h1l3 4 8 17 6 13-2 2-2 4c0 1-3 7-5 8l-1 3-2 4-1 3v3l-1 5-3 8-3 8-1 3v3h-2l-1 3-4 10-2 5-2 3-1 3-2 4-1 2-5 12-6 13-2 4h-17l-1 1v-2l1-2 1-2 1-2v-1l-2 1-1 2-3-1-2-2-14 1q-22 0-31 5l-7 3-5 4-3 3-3 1-3 1h-5l-6-1-4-1-6-4-3-2-2 1-4 1h-3v-3q-2-11-7-8l-3 1v-4l-1-3 1-1q3-2-4-3-3 1-9-3-4-2-6 3l-1 2 3 3 3 2v7h-5v-5l1-2v-1h-7v2c-3 6-9-4-7-11l1-2h-2l-2 2-1 1h-5v3h-1l-2-3v-3h-1l-3 2-3 1-1 1 2 1 5 3 14 8q6 1 9 5l5 3 3 3v2h-6v1l1 2 1 1-1 2q-3 2 2 2l2 1 2-2 1-1h13l14 1c1 1-6 7-8 7s-11 5-15 9q-6 6-6 3-2-3-5 2l-3 2-5 2-3 2-2-3-2-2-1 1-4 1h-2l-3-2-2-3-1 1v1h-5l-4-1-1 1v1l2 1 4 2 4 3 2 2v1l-4 1-6 1-7 2-6 1v-3l2-9 1-7v-2l3-2 5-2 5-2 2-1h6l7-1 1-1-1-1-1-1v-2l1-3h-12l-3-2-3-2-3 1h-2v-5q2-12 5-6l4 2 2 2 2 1c3 0 10 3 11 6 1 2 8 6 11 6h2v-6q0-10-5-4l-3 3-2-1q-3-2-4-7l-1-2-2-1-1 1q-1 3-6-1l-2-2h-4l-5-1 1-2 2-9 2-13 2-6 2-8 3-15 1-1 4 3 4 3 1-1 1-1-1-1-2-1-3-4q-3-5 2-2h11l-6-4-6-2v-2a277 277 0 0 1 58-54l9-4 8-3q7-3 1-5l-3-2c0-2 8-9 12-10l7-2h12l6 1h4l3-2c7-4 10-5 18-6l11-1 3-1v-1l-2-1-3-1h2l2-1 4-4c11-7 16-14 6-10l-2 1v2l-1 2-5 3-5 3-2 2q-2 3-5 2l6-9 3-4 3-3h2l2 1 1 1-2-3-2-3 2-3 2-2h3l5 1h2l-1-2-3-2-1-1c0-2 6-8 7-8l1-1 1-3zm-56 30q1 5-3 8-8 7-2-5 6-7 5-3m-34 0 4 4 3 2v10l-3 1-3 2-2-1q-4 0-3-5v-1l2 1q5 1 2-5l-4-6-1-3h2zm42 3v1l-2 2q-3 5-3-1v-4h2zm-501 8v2l-3 3-7 7-4 2-4 1-2 1q-4-1-4 4l-1 3-1 3-2 6-3 4-3 1-3 1-2-2q-2-3 1-3h3v-2l-1-3-1-1 1-1 1-3v-2h1l2 1q1 2 4-1l1-6v-4l1-1 2-1 1 1 1 2 2-2 1-2q0-4 4 0 5 5 5-4v-3l2 1h2l1-2 1-2h2zm628 7 1 4 4 4 4 6 3 4 2 4 1 3 2 4 2 4c1 0 3 6 2 7l1 3 2 3v4l2 4v3l2 1 1 1-1 1q-3 4 1 6l1 1v2l-1 2 2 3 1 2 1-2 2-1 3-1 2-1q3 1-1 5l-1 1h-3l-3-1 1 2 2 4 2 2v3l1 3 1 2 3 4 1 3-1 1-1 1-8-1-11-2-7-1q-8 0-8-2l20-22v-1l-4 1-5 1c-3 3-14 8-15 8l-4 3-4 2-3 1-10 5h-2v3h-8l1 2v1h-3l-3-1-4 5-6 4-2 2-2 3v-3l3-9 4-9 3-7q3-8 5-6h1l-1-2v-2l1-4 3-6 1-3 3-7 3-9 1-5 2-5 1-6 2-4 1-4 2-4q0-4 5-9l2-6q0-7 3-6l1 1zm-619 3 10 13 1 3v2h-2l-5-3-3-3h-1q-3 2-1 4l3 3 1 3h4l1 3 1 4q-3 0-5-5l-1-2h-4v3l3 5 2 3 2 2 1 1-1 1-2 2 1 3v3l-2 1-2 1 2 1 2 4 3 3 2 3v2l-3 1-23 18-5 4-2-1-2-1-3 3-4 3h-2v-4l-1-5 2-2 3-3 3-2 2-2-1-1-1-1-3 3q-5 6-5-2v-3l4-3 3-3h-1l-2 1-1 1h-2v-3l2-8 2-6-1-1q-2-1 1-10l1-4 3-3 5-4 2-5q-3-1-4 3l-1 2-2 1h-2v-3l-1-3 2-4 1-3 3-1 4-2h11v12l-1 2 1 1 1 2 2-1 1-2-1-2-1-3 1-7q0-19 5-9m24 14-2 2-2 1v8h-2l-1-1v-7l2-2q4-3 5-1m-145 49v6l-3 1-2 1 1 1 1 2-1 2-1 1-2-2-1-1 1-6 2-9 1-2h3zm142 23-5 9-2 3-1-1-1-2 2-1 2-5 2-5 2-2 2-3 2-2v2q0 3-3 7m5 7 1 2-2 3-3 3h-1v-2q1-10 5-6m-58 3q-1 6-5 7-4-1-1-3l1-2 4-4zm-68 21c-3 4-5 0-2-4l2-4 1 2v4zm-27-1 2 2h13l2 2 3 1 4 3 1 2-1 1-1 1-3-1-6-1-3-1-3-1-3-2-1-1-2 1-2 1-3-4-4-3h2l2-1zm831 14q7 3 7 6-1 2-5-1l-3-2-2-3q-4-5 3 0m-782 15q-1 6-5 4h-2v-4h5v-2q2-3 2 2m483 6 2 2-2 1-3 1-3-1q-4-1-2-6l1-2 3 2zm113-2-1 3-1 2h-9q-13-1-5-4l3-2 3 1 4-1q3-1 6 1m-688 5 8 2 5 2 1 1 4 3q6 3 0 4l-3 1-2-2-3-1-3-2-3-3-2-1-2 2-1 1-2-2-3-2v-5h2zm666 0q5 2-4 2l-6 2-5 1-5 2-3 1-4 2-2 1q-1-2 5-4h3l3-3q5-5 6-2l1 1 2-1q4-5 9-2m33 3 5 3q0 3-4 3h-3v4h4v1l-3 10-3 1-1 1 1 2 1 2-1 3-3 5-2 2-4-1-6-3-3-2 3-2 2-1 2 2 2 1 1-2q3-6-4-5h-5l-1 2-2 1-4-1h-4l-1-2-4-3-4-2 3-1 2-1 2 2 2 2 1-2 2-2 3-2 3-1 2 1 2 1 2-2 4-3h2l1 2 2 1 1-1 1-3-1-3h-2l-3-1-2 1-2 2h-10l-1 2-4 1h-2l-1 1-2 2-4 1q-5 3-12 1-5-3-1-5l1-2 3 1h2l2-2 5-3h3l1 1 2 1 2-1 3-3q2-4 5 0l2 1 1-2 5-2 2-1 2 1 2 2 2-3c3-3 3-3 8 0m-114 2 1 2-1 1h-6l-4-1-1-1v-1h2l2 1 1-2q4-3 6 1m-588 6 4 2q6 3 3 5h-2l-2-2-4-2q-9-1-8-6l1-1 4 2zm619 3 1 1 2-1q4-2 4 1l2 2 2 1 2 2 1 1v2l-1 3h2l1 3 2 6 2 6 1 4 3 6v5l-3 1-3 1-4-1q-7-1-5-6v-6h6v3l1 3 1-2v-3l-1-2-1-2h-5l-6-1-1-1-1 2-5 2h-2l1-3 1-5 1-2h2l1 1v-2l-1-3-1-1 1-2 1-3-1-1-4-1h-1v7l-2 1-4 2h-1v-4l1-4-2-1c-2 0-9 1-13 3q-4 2-6-1l2-1 3-2 3-1 3-2 4-1 3-1 12-4zm-631 3 5 3 3 2h-4l-4-1h-3l-2-2c-4-4 1-6 5-2m664 8 4 2 3 1v4q1 7-2 7h-1l-1 14-2 36c-1 1-1 0-1-18l-1-15-2-8-3-22q-1-3 6-1m-498 8 1 4v1l-1-1-5-1q-6 0-2-3 3-4 7 0m350 4q2 6-1 5l-2 1v4l1 6v4q-1 5-5 6l-8 8 3-1h2l-3 6-1 1 1 1q3 1 4 10v3l1 3 2 3v3l-1 2-2-3-1-3h-2q-3 0-3-7v-4l-3 1h-2l-2-3q-2-7 2-9 5-1 0-2l-3-2-3-2-4-4-1-3h1q3 0 0-3l-3-2-1-1 1-2 6-5 6-5 19-9zm-28 0 1 3v2h-6l-2 2-1 1-2-1c-2-1-5-7-4-8v-1h7l6 1zm197-1 7 3 3 2-2 1-5 1q-4-1-3 2v1l2-1 1-1 3 1 3 1 2-2 1-1 3 2 2 2v7h-2l-2 1 1 3v3l-3 3-4 2q-4 1 0 2l1 1v3l-1 5-2 4q0 3-6 3-6 1 0 3c3 1 3 1 0 8q-3 8-1 16v3h-1l-1-1q-1-3-2 2l-2 3-1 3-3 7-1 3 1 2q2 5-1 3h-2l-1 2v5l1 3h-2l-3 2-1 1v-2l3-16 1-5q-1-2 1-9l2-13 3-8 1-4 1-6v-3h2q4 2 0-3c-3-5-3-12 0-9l3-1 3-1 2 1 1-2 1-1-2-1h-10v-6l1-5-1-1c-3-1-1-9 3-9l2-1v-4h-2l-3-2q-1-5 9-2m-87 8 6 1 6 2 2 1 18 7 7 3 6 4 4 2 6 3 4 2 1 3 2 3-1 5-2 16-3 21-3 14-5 27-1 6 1 3q2 7-1 9l-7 4-6 2-1 3q-4 4 7 1l7-1-2 11-1 4-1 4-2 3-1 5-2 3-9 20-2 5-3 6-3 6-3 6-1 2-2 6c-2 1-5 8-8 13l-10 20-2 3-12 19-1 2 1 1 1 1v2l-1 2-1-2-2-2-1 1-2 1-1-1-1-3-1-7-4-12-6-30-1-7-10-35-4-14-6-15-1-3 2-3 2-4 3-3 2-2v-7l2-1 1-3 2-3h1v-7l-1-7-2-3c-5-5-6-14-3-14 2 0 6 7 6 10v4h5v-4l1-11c2-5-2-9-4-5l-1 3-1-2q0-3-2-3l-1-1 1-6 1-8 1-1 1 1 2 6 1 6 1-1 1-4v-3l2-2 2-2-1-4-1-4v-28l1-8 2-5 13-21c0-2 5-8 7-8q6-1 12 2m-649 4 2 2-1 1-5 2-5 1q-5 4-3-2l1-4 1-2h8zm617-1h4l-1 2-3 2-6 3q-3 3-7 3l-6 2-6 3-6 4-2 2h4l3 1 2-3 2-3h4l1 2 1 2 1-3 1-4h2l4 1 1 1 2-1q5-6 1 4l-2 4-3 1-6 2-4 1-7 4-3 2q-6 1-1 5l3 3v-2l1-3 2-3 2-1 3 3 4 3v-2q1-4 4-4l-2 10-2 10-2 1-16 8 3 1 2 1 2-1 2-1 1 1 2 1 1-2 2-3 1 2 1 1-1 7-3 11-2 8q-1 11-3 14l-2 1 1 4v4l-3 8-4 9v3l-1-4-2-7-2-2v-8l-1-1-2-2-1-4v-5l-2-3-2-2v-1l1-2h7l1-2 1-1h7l1 1 1 1h1l-2-3-2-2h-12l-4-3-4-2v-13l1-13 2-2 2-1v-3l-1-2q-2-1-1-9l2-11 1-7 5-4 7-4 4-2 6-2 4-1 6-2 5-1 2-1zm-489 2-3 7-2-2-1-2 1-2q3-4 5-1m398 16 1 5v3h2l2 1v2l1 3-1 2q-3 3 0 3h6l1 3 4 8 3 5v8l2 1 2 2h5l4-1v2q0 5-6 5h-3l-1-2-1-1h-2c-3 1-19-2-20-3h-6l-26-1-7 1-6 1-4-1q-7-4-6 0v2h-3l-7-2h-3v5h-3q-8-1-9-4v-1l3-1 4-2 2-2h32l1 1 1 2h10l11-2 7-2c10-2 16-6 9-6l-5-3q-3-4-15-8l-6-2 2-3 7-8 9-10 2-3h5zm-28 31 4 2h5q12 2-4 4l-8 1-2 1-3-1-11-2-22-2-1-1 3-1 4-1h2l3-1 17-2h8zm-52 7-1 1h-6l-3 2-2 2-1-1-1-1 1-1q3-2 10-3h3zm-2 13 1 3v2h-2l-8 2-10 2h-4l2-1h2l1-3 3-2 3-2c3-3 10-4 12-1m154 46 2 5v14h-4l-1-4-1-6q-2-2 0-9 1-7 4 0m-6 18 1 3v8h-4l-1-5-2-6 2-2q3-3 4 2m129 123 2 3q-1 2 8 6l6 2-8-1c0-2-5-1-6 1l-3 1q-3-1-1-4v-2h-4q-7 1 0-5 5-5 6-1m-16 2-3 3-7 5-5 4q0-3 6-8 3-1 5-3 4-5 4-1m-16 2q1 1-5 4l-3 3q-3 5-6 4 0-3 4-5l5-3q5-5 5-3m156 2-1 3-1 2h-4l-7 1h-4l-2-1 1-2 3-3 2-1 2 2 2 3 2-3q5-5 7-1m-26 3v1l-2 2c-3 2-7 11-7 15l-1 4-2 2-2 4-1 3q-2 4-3-1l-2-6q-6-11 4-13l9-7q7-7 7-4m-73 7 3-1 3 3 3 3 6 1 10 3 5 2 4 2 4 2h2l1 2v2l-1 1-1 1-2-1-1-2-3 1h-3l-2-2-2-3-1 2-1 2-3-2q-3 0-5-4l-2-3-2 2q-3 4-6-2l-1-3h-4v3l-4-1-8-1q-9-2-3 3l3 2v2l-1 1 2 2q5 2 0 6l-1 3v4l-1 1-2-2-3-1h-9l-4-1-2 1-2 1-4-3q-6-3-6 0 0 2 3 2l4 3 2 1v6h-2l-5-4-4-3-1 2q-2 5-5 1l-2-2h-5l-1 2v2l5 2 10 3h6l1 2 2 2-2 2-2 1-3-2-3-2-2 4q-3 4 1 5t-1 3h-4l-1-1-2-2h-1v5h-1l-4-2-2-2-2 2-2 2-2-2-4-2h-2v2q0 5-5 0-6-5-6 1c-1 3 0 4 12 4l11 1 2 1q4 4 1 4l-3 2-1 1h-3l-5-3-1-2v5h-1l-6-2-3-2-1 2q-1 4-2 1l-1-1-6-4-8-6q-4-1-4-5l1-3 4-1 13-2 9-1 6 1 6 1 1-1 1-2-3-2-4-2h-7l-6-1-5 1-5 1-3-2-2-1h-3l-3 1-1-1q-4-2 14-12l30-19 7-3 6-3 8-2 21-2 13-1 2 2 2 1zm43 3 2 4v2h-5l-1 1-4-4-3-3h2l2 2 3 1h1v-2l-1-3-1-1h1zm35 7-1 1-1 2-2 7-2 4 1 2-1 6-1 3h-2l-5-2-3-3 2-3 2-4h3q4-1 0-3l-1-2 2-4 3-4h6m-77 3 3 8v4h-4l-4-6q-6-9 0-8l3-1zm87 2q4 4 1 8-4 10-4 20v7h3l-1-4v-4l2-1 2-1-1-2-1-2 1-1 4-1 2-1q3-4 5 1l1 3-2 6-3 6 1 5 1 5v-2l2-4 1-3v-1h4l2 3 1 2v17h-2l-8-3-7-3q-5-1-7-9l-3-5c-2 0-7-7-9-11l-2-5 2-2 3-2h1l-1-2v-6h3q3 0 1-3l-1-2v-3l2-1q3-3 7 1m142 3-2 2-7 3-5 3-2 1-4 1h-2l4-3 5-4 5-2q7-4 8-1m-253 14 3 2 3 2 1 1v2q-2 5-5 0l-3-3h-1l1 3q1 6-5 0-6-9 1-7zm227 0-1 3-1 2h-3q-4 0 0-4 4-3 5-1m-73 18v5l-1 1-4-1-3-1-1-1v-2l2-1 3-1 1-2 1-3 2 1zm-12 10v6l-2-1h-2v-6h1zm-151 1-2 1h-2v4l1 4-2 1h-1v3l1 4h-7l1 1 1 2v2l-3 3-2 3-1 2h-4l-1 3v3l-4 1-4 1-1 1 1-4q2-5-3-4l-3 1 1 2v3l-3 3-4 4v-2l1-3 2-10c1-13 2-15 9-17l4-1 2 1 2 2-2 2-2 1v5l-2 3-3 2v1q3 3 5-2l3-4 1-4 1-3 2-4 1-4 3-3 3-3h3l3-1 3-1zm293 2 2 7 2 5h1l2-4c3-11 9-10 9 1q0 8-3 5h-3l1 3q1 6-1 11l-2 4v-1l-3-1h-3l-1-3-1-2 1-3 2-5 1-3-1-2-2 1-2 1-1-2-2-2h-1v4l2 6v2h-3l-3-1 1 3 1 4 1 5v5l-1-2-2-2h-2v4l-1 5h-2l-2 1-1 2-1 2h-1v-7q2-18 4-19l2-6 1-5 1-3 1-4 2-2 1-2h3l2 1v-2l-1-2h3zm33 1v2h-4v11l-1 1-3 1-1-1v11h-4l-1 3-1 4v1q-2 0-3-6l5-16 2-6 3-4 3-3h2l3 1zm-146 2-6 3-2-1-1 2-2 2h-1v-3l1-3zm91 5v5l2-1h2l1 2v3l-2 3-3 4-2-3-2-2h-1l-1 1v3l1 2-2 1-2 1v4h1q4-1 4 5l1 3h-1c-1-1-7 1-7 3l2 2 2 1v3l1 3h-12l-1 3-1 2-1-1-2-6-1-6 2-5 2-9 2-7 2-3v-3l-1-2h1l3-2 1-2 4-2 3-1 1-2v-2h3zm65 2-2 7-3 6q0 5-3 5h-2l1-6 2-7 1-3q1-3 4-4h2zm-88 7v4l-2-1-3-1 2 19v2l-1 1h-2l-2-1-2-2-1 1q-3 0 0 4 3 2 3 10l1 4v6l-3-1-3-2v2l-1 4-1 2-2-1-1-2-1-7v-7l1-2 1-6 2-9 1-4 5-8 6-7h1zm175 12v2h-7l-6 1-1-1-1-1 1-2 2-1 3 1 2 1 1-1 1-2h2l2 1zm-92 10 6 2 4 1-1 3-1 4-1 1-1-2-1-2-4 1h-3l-2-2-2-2-1 2q-2 5-5-1l-3-2-1 2-1 1h-2q-5-1 3-6l6-2 4 1zm-267 4q4 3-1 3-6 0-6-3v-2h3zm-152 2 2 2 2 1-2 2-3 5-2 2-1-1-1-4 1-7v-2h2zm-207 3v27h-2l-4-2q-3-1 0-3l1-1v-2l-3-2-2-1v-4h3v-5l-1-4 2-3q5-4 6 0m367 4v5l-2 1-1-2q-2-4-6 0l-1 1 1 2 1 2-1 1-1 1-5-3-7-4-2-2 1-1c2-3 17-3 23-1m-396 28 1 3q1 1 2 7l4 11 2 6 1 5 2 3-1 4v3h-3q-9 0-11-9l-1-2h4l2 1q1-2-5-5c-4-2-6-9-2-9l2-2v-2l-1-2-2-2 2-3 2-4v-10l1 2zm363 6q0 5-6 2l-4-2h-2v3l1 3-2 1h-2l-3-2-4-5q-8-3 10-3h12zm-370 33v2l3 3 4 6 3 6 3 4 2 4 2 3-2 3-3 4-2 1-2-1-1-2q0-3-3-5-6-4-1-7l3-2-2-1q-8-2-5-6l1-1v-2l-1-11zm69 13-1 2-1 3-1 5c-2 3-4 24-3 28q1 6-3 3l-2-1v-5l-1-10-1-5h2l1-1v-2l1-4 1-4c0-5 8-13 8-9m-14 3-1 4-6 20q0 10-4 10h-1l1-4v-4h-1l-2-1-1-1 2-3 2-4v-2l-1-3 1-2c3-5 11-13 11-10m276 7-2 3-3 2-4-1q-8-1 0-3l5-1zm-335 1 2 3 1 3 2 3 3 6 3 5-2 4-1 3-3 1q-6 0-6 5v2h-1l-2-3v-2l5-5 4-6-4-1-3-1-1-1v-2l2-1q6-1 1-4l-2-1-1-5q-1-6 3-3m322 7 1 4-10-2-1-2 3-2q6-5 7 2m20-2q2 2-1 4l-3 1v4l1 3h-3v-9l2-3q2-3 4 0m-243 1h4l-1 4v3l-3 3-3 3v-2q-2-4-4 2l-1 3h-4l-1-3-2-3-1 3q-6 11-6 3v-3l2-2 3-2 1-2 1-3h2l3-1 1-2v-2l3 1zm-73 8 2 17 1 12 1 9h-1l-2-2-1-3-3 1h-3v-6q0-9-3-4l-2 2-1-1-1-1 2-5 3-5v-4l-1-4 2-4 4-4 1-1v-3q0-6 2 6m312 10v3l-2 2-2 2-1-3v-5l1-2h5zm-10 1-1 1-1 1 1 4v4l-1 2-2 2-3 2q-2 4-3-1l1-2 1-2c0-2 4-10 6-11zm-371 2 2 3 6 4c7 7 19 13 25 13q7 2 3 7-3 4-4 0l-1-2-2 1-5 1h-2v-5l-1-1-3 1-2 1-1-1-1-4-1-3h-2l-2 2-1 1-1-1-1-4v-3l-3 1h-3l-1-2-2-1h-2l1-2 1-5q1-5 3-1m51 5v4l-2 2-2 3 1 3 1 4h-6v-3l-1-6v-3l3-1 3-4q2-5 3 1m44 3 2 6v2h-1l-10 3c-1-1 2-9 3-10l1-2 4-3zm-93 9 3 5 3 3-1 1q-2 2-6-2l-3-2v-8l2 1zm15 15 5 4h-5l-3-3-4-3q-2-5 7 2m55 2-3 3-2 1-4-1-6-1-1 1 1 2q4 4 0 6l-2 1-4-2q-7-3-3 3l1 3-1 1v2h-7v9l-5-1-6-1v-3l2-3 1-3c0-4 14-15 18-15l4-1 2-2h15zm139 12q10 9 11 15l-1 2-12-14-3-5-1-2zm-145 2-2 5-2 4h-7l1 3v3l-2 1-1 2-2-1h-2l-1 1-2 1 1 2 1 3-1 2-3-1h-3v9h-2c-4 0-3-9 1-13q2-2 3-5l14-15 4-4h5zm175 7-2 6-1 2-1-3v-7l1-2h3zm-163 5 5 3 11 10 8 7 1 3 1 3-4 1q-5 3-4 0v-2h-3l-3 1-1-2-1-3 1-2-5 1h-5l-1-1v-2l1-1v-3l-3 2-2 2-1-2v-15zm-14 4v11h-3q-5 1-1 3c3 2 0 7-4 7h-6l2 3 3 2-1 2-1 2h-4l-3-1-1 2v1l2 2 2 2-1 3-3 3h-1l1 2 1 1 2-2 4-6c5-6 12-14 14-14q2 0 2 5v2l-3 1q-6 1-1 6 3 4-2 5h-4l1 4v3h-2q-7 0-4 4l2 2 2-1 6-5 4-3v6l-1 3v3l-4 1-4 1 2 2 1 2-1 1v2h-6l-1 2v1l2 1 2 2-2 1h-2l-2-1-2-5-1-3h-2l-2-1-1-2v-2h1l3 2 2 2 2-2 2-3v-2h-4l-4 1-1-2-1-2 1-3 2-4h-4l-2-5q-5-9-2-10l1-4v-4l2-1 1-3 1-2 5-5q14-17 16-13m176 10 2 6 3 1 4 1-5 2-6 4-1 2v12l1 13-2 1h-1v-34l-2-4-1-3 2-2 2-1v-6l1 1zm-163 7 6 6 12 10 7 7 1 2v3l-1 2-1 1-2-3-1-3-2 1h-2l1-1 1-3-1-2-3 1-4 1v-4q2-3-1-3l-4 2-3 1h-1l-1-3q-1-5-3 1l-1 4 3 2 6 5 2 3c-1 1-10 0-11-1l-1-1-1-13v-15zm16 34 3 4-1 2q-4 2-3-1v-2l-3-1-4-1h-1l2-3q1-5 7 2m-16 0 4 3 3 3 9 9 4 4 1 2-4 7-4 9-2 5q-5 3-1 8l2 3 2-2 3-3h1v4l2 6 1 3-8-1h-21l-1 1 1 3q1 6 5 0l2-2 1 1 4 5 1 4 2-4q1-5 4-3h2v4q1 7 5 1l3-2 1 1v10h-7l-6 1-2-2-1-1-3 1q-5-1-2 5l2 2 1-1 3-2h2v9l1 1h1l2-2 1-4v-2h3v9l2 2q4 3-5 3h-5l-5-5q-8-9-8-13v-2h-1l-3-2-3-5-3-5-2-5q-3-3-6-10l-4-6 1-1 1-1 2 1q3 1 4 3l2 3h3l3-1v-1l4 4 6 4h2v-3c-1-4-2-13-1-16q1-5 4 0 2 5 2-1v-4l-3-4-5-7-1-3 1-1c1 0 9 5 9 7l2 2 2 2 1-1q4-3-1-4l-3-1 1-2 1-3q3-2-2-2h-4v-6h-2l-3 1h-1v-2l-2-4-1-3v-2h2zm-5 12v3l-2 2-2 2 1 1 1 2-1 2-3 2h-2l1 3v3h-2l-2 1-2-3-2-3 3-6q6-11 10-12l2 1zm-34 23 2 5-1 1-1 4 1 2h1l3-1h2l1 2 1 3-1 3v3h5v1l-2 3-2 2 1 2v3l-3 2-3 2 2 2 2 2-1 2-3 3h-2l2 2 2 2-1 2q-3 3-8 1l-2-2v-6l2-16 3-13v-2l-3 3-3 3 1 3v3l-1 1-2 1v7l-2 1-1 1 1 2q4 4 1 7h-1l1 1v5l-2-3-2-2h-1l-2-5c-3-12 2-34 10-45l2-4 2 1zm201 17-1 5v-23l1 7 1 6zm-180 18 3 2-2 3-3 4v1h3q7 1 3 3l-4 2-2 2 1 2 1 2-4 1-4 2h-6l-1-1h4v-3l-1-3 2-4 1-6c0-2 5-10 6-10zm13 17q4 5 0 9l-3 4q0 4-3 1l-1-1 1-6q2-8 5-10zm168 14v8h-1l-1 1v-21l1 2zm-145 4 4 3 1 1c-2 2-10-2-10-6q0-3 5 2"/><path d="m1055 455 1 2 2 7 1 8q2 1 2-5v-3l3-3 2-3-1-1-6-3h-4zM823 719q-7 4-6 7t6-2l3-2 1 1q3 1 2-2l-1-2 1-1 1-2h-1zM841 722l-5 2-3 3-1 2 1 2 3 1h2l-1-2q-2-1 3-4l3-1 1-2v-3zM848 731l-2 1q-4 3 0 4 5-1 6-5v-1h-2zM795 737l-7 3v4h2l5-2 4-2c2 0 8-5 8-7zM823 738l-8 2-12 5-5 3-1 2v2l3 2 2 4v2l5 8 5 6v2l2 6q2 3 1 5l2 6 3 8 4 6 3 4 2 2 2 1 3-4 2-3 2-10 1-9-2-2-2-3-2-2-2-1 3 1h3l2-1 2-2h5l7-2 7-1 6-1 1-1-1-1h-18l-2 1q-3 4-7-1-4-3 3-4l7-2 3-2h2l1 1 2-2 2-2v-1h-6l-18 4c-1 1-8-4-8-5l1-2h9l1-2 1-1h4q7 0 3-3l-1-1h-6l-11 3-4 1-6-1-7-1-3-1-3-1 2-2 5-2 7-3 3-1 2 1q3 2 3-3 0-3-4-2M751 751l-7 1h-3l-1 2v1l1 1 5 1 3 1 6 1 4 1 1 1 2 2 4 1 4 1 4 3 4 4 2-1h2l1 3 6 5 3 1 4-4 4-5v-1h-6l-6 2q-3 3-3-2v-3l2-1h2v-4h-3l-8 2h-4v-6l3-1q3-1 4-4v-1l-6 2-9 3-3 1-2-1-3-2-1-3q1-4-6-1M796 780q-5 3 1 5l2 1 2-1 4-3 2-3h-2q-5-2-9 1"/><path d="m851 781-4 2-3 2 1 1 1 1h11l4-2 6-2h2v-1l-1-1h-17M276 801l-1 2-2 4-2 3q2 3 3-1l2-2q3-2 4-6zM752 1221l-3 4-1 2 1 1h4l2-1v-5q2-1-1-2zM767 1225q0 5 5 5h2v-1c0-2-4-7-6-7h-1zM779 1227l-2 2 8 4h1v-3q-4-8-7-3M740 1253l-2 3 1 1q7 3 8-1l-2-1-3-3-1-2zM680 109l-1 2 1 2 1 11 1 10-2-2-2-3v3l-1 5 1 1 2 1h2l1 3 2 5q-3 2-5-1l-1-1h-5l1 3q-1 4 3 1h2l3 3 3 3v1l-1 2h-2q-4 0-6 3v2h2l2-1v3h2l2-1 1 2 2 1-2 1-2 1v2l4 6 3 5 3 5q5 8 2 8l-3 5-3 5-3 7v2l3-2 2-4 3-4 4-5 1-3 2 4 2 4 4 2 4 2 1-1q2-2-1-5-3-4-1-6h1l2 2 2 5q0 5 3-1l1-2 3 2 3 1-1 2v4q0 3-4 0c-2-3-7-2-7 2v2h5l5 1v2l3 1 3 2q2 4 7 0l3-2v-3l-1-3h4v3l1 4 1 1h-1q-4 1 0 4l3 2 1 1h5l7-1 4-2 1-1 2 1q6 5 5-2l-10-11c-2 0-1 5 1 7q5 3 0 3h-3l-3-3-4-6-1-2-5-1q-7 1-4-2 2-4-3-4-6-2-1-6l2-1q-2-3-8 0-4 3-7 1-2-2 3-3 8-2-6-3h-8l-2-1-4-2q-4 0-1-5 4-6-2-1t-5-1l-1-5v-5l2 2v1l1-3q2-9-3-10h-1l1 4v5l-3-1-4-1 3-5 2-4-1-2-2 1h-3v-3l2-5 1-3v-2h-2l-3 1v-2l1-4 1-3v-3h-1l-3 1-1 1v-3l-1-6v-2h1l1 1c0 2 6 7 6 6l1-5v-5h-5l-2-5-4-6-3-2zm53 98 1 4 1 2 1 1-1 2c-1 0-5-6-5-8q1-5 3-1M395 117q-10 5-2 4h4l3-2 3-4 1-1h-2zM419 119v8l2 1 4-1 2-1 3 1q4 2 4-1v-2h-6l-5-1v-5h-2zM842 183c-2 1 3 10 7 14l1 1h-1q-3 3 2 5l3 3 1 3h2l4-2 3-1 2 2 2 3v1l-2-1h-3l-1 2-1 2 1 2 4 3 3 3 1 3 2 2 2 3 5 3 5 4 3 1c0 2 8 7 10 7l2-1 2-2h5l6-1 3 3 3 4v1l-7-1h-7v3l3 1h18l3 2q6 4 1 5-6 2-1 5l2 2 3-2 3-1h4l3 1v-1l-1-3q-1-6 2-2l2 1v-2c0-2-12-13-13-12l-1 2q1 5-3 3-2-1-4-11v-4l1 1q4 1-1-5l-10-11-5-4h-2l-2 1v-2l-1-2h-4l-6-7-7-6h-2l-2-1-4-3-5-3-3-1-3-1-2-2-1 1-2 2v-1l-3-1-6-3c-3-4-12-7-13-5m45 29q5 10-4 3l-4-3v-7l3 2zm14 5 3 2v3l1 5v3h-1l-5-3-3-2v-2l-1-3-1-3v-3l2 1zm-21 3q10 6 2 5h-4v-2l-4-3-3-1c0-2 7-1 9 1m37 9 3 3v5q1 9-5 2l-3-3v-9h1zm-21 2 5 3 5 2-2 1-5 1-2 1-4-1-8-5-3-3h2c3-1 11 0 12 1"/><path d="m947 202-1 18 2 4 1 4-2 1-1 2 2 2q4 5 1 5-2 2 1 3l2 1v3l2 6 1 3 5 1 4 1 1 3 1 2h-2l-3-2-3-1h-2v2l2 4 1 4v2l3 2 4 3 3 2 2 2-1 1 1 4 1 2-1 1-1 1-2-1-6-3-4-2-2 1h-3v-1l2-2q5 1-1-6c-5-7-11-10-10-6l1 2-2 1-4-1q-4-3-7 0v1l4 2 5 2 1 2 1 2-1 1-6-2-5-1-1-2-2-2-2-1q-1-3-3-3-1 3 3 7l2 3-5-1h-4l-5-4-7-4q-3 0-3-2l1-1-3-1h-3l2 2 2 2v2l-1 3h-4v-2l1-1-3-1-3-2v-4h-1l-2 1-2 2-3 2-2-1-3-1-3 2-3 3h-2l-5 1-6 2-4 2q1 4 6 5h2l1 1q2 4 4-1l2-2h18v1l-1 1-1 1q-1 3 3 1l5-2 4-2 1 1 13 1h12l2 1 1 2h5q12 1 0 3h-5l-1-1q-3-3-5-1l-8 2-6 1-1-1-1-1-7-1q-12 0-4 4l3 1h6l5-1 1 2 1 2h3l3-1v-1h5l21 1 16 1 2-2 3-1 5 3 5 3q4 1 5 6l1 3 1 1h2l1-4 1-6-1-1h-2l-2 1-1-4-1-4 2-1 2-2-2-2-3-2 1-6 1-13v-8l-2-4-1-4v-3l1-3-3-5-3-4c-2 0-1 8 0 10q2 2 1 4v1l-2-1-2-1-1 1-1 1v-3q1-7-1-8h-2v-4l-3-6-1-2v-6l1-5-2-1-1-1v-2l1-3 2 4q3 5 3 0 0-3-5-5l-2-1v-2l1-3-2-3-2-6v-3l-2-2-4-2h-1zm9 30 2 2v6l-2-2-5-8q1-1 5 2m18 22c3 4 2 13-1 13h-1v-2l2-5v-4h-1l-1 1q-2 4-3-1 0-7 5-2M1117 198v5l7-6v-1h-6zM388 226l-6 4-4 2-1 2 2 1 12-8 2-2 3-1h-2zM1121 236l-6 7q1 3 5-2 3-5 5-2c1 2 7-2 7-5v-1h-2l-2 1v-2l1-2h-1zM1165 252l-5 2v2l-2 3-2 4v1h4l5-5c7-6 7-6 7-8q0-3-7 1M1104 259l-1 5-1 3h1q3 1 3-2l2-3 1-1v-2l-2-2h-2zM1184 292v2l2 1 3 2 4 2 3 1 12 7 2 1 1-2v-1l-3-3-9-6-7-4-4-1-4-1zM985 308q-3 2-1 6v2l3-2 2-5v-2h-1zM563 321l-3 1h-2v4l1 3c2 0 7-6 7-9q-1-2-3 1M342 341l-4 5-1 1-2-1-2-1-1 2v1l1 3 2 2-1 5v5l-4 2-3 1-1 4v11l1 7h-2l-3-2-2-2 1-2v-2h-1l-4 2-2 2v5l-1 9v3h-2c-4 0-8 7-5 8l1 5 1 4v4l-1 1-2-2q-3-6-4 7v8l-2-2v-6l-2-1-2-1-1 1 1 4 1 2-1 2-4 1h-1v8l1 1 2 5q3 16 15 29l4 4-1 2q0 3-2 3l-1 4-1 3h-2q-4-2-7-8l-1-4-2-5-2-5h-3v4l2 8v4h-1l-4-2-4-2v-15h-1q-4 1-4 6v5l-1 1-3-2-3-1 1-4v-4l-1-2-2-3v-2l1-3-3-3q-7-7-5 3v6l2 2q3 3 0 5c-2 0-7-8-7-11l-2-4-2-3 1-4 1-4h2l5 1 4 1-4-3-3-3-2 1q-4 4-4 0 1-5-5-4h-3v-5h-3l-3-1h-3l-1 1-1-1-2-2-4-1-6-2-9-2-5-1-2 1q-6 2 0 7l4 5 3 12q1 2 2-2l1-3c1-1 9 7 9 8v1h-9l-1 2 1 3 2 4 1 2h2l2-1-1 3v2l4-3 5-4q2-2 5 0l3 2c2 0 7 4 6 5l-2 1-3-1v13h-3l-4-1-1 1q-2 3 1 3l9 7v8l1 7 1 1h2v-3l-1-9v-6l1-1 2-4v-2l-1-1-3 1-2 1v-1l-1-2 1-4 1-3 7-1h6l2 2q3 4-2 4h-2v3h4l6-1 2-1 3 1q6 2-2 6l-5 1v3h12l1-2q3-3 11 1l3 2-1 1-4 1-4 2-4 2-2 1v2q-2 6 7 5h5l1 1q3 4 7 0l3-2h3l4 1 2-3q7-4 5 4v3h1l1 1v-7h9l-2-1-2-1-1-2v-2h2l3 1 5 3 5 4 10 6 4-3 2-2-1-1-2-1 1-3v-2h-8l-2-1v-2l3-1 4-1 1 1 5 3 6 3 7 3 5 1 1-1v-1h-4v-6l-2-1-5-1h-2l1-1q3-4 8 1l2 2h3l4 1 3 1h2v-1l-2-3-1-2q0-2-4-3l-2 1-2-3-2-3h-3l-3-2v-1l5-1h6l4 2 4 3 4 2 7 4q6 2 6-2l1-2-2-1-6-3-8-3-3-1 1-1h7l5 3 6 4 5 2q10 3-1 5l-5 1v6h3l3-2 6-2 5-1 1-2q1-3 3-4l3-1v-2q1-3-3 0l-2 1-3-1h-2l1-2q2-3 9-1l5 1h3l1-3q4-7 9-8l3-1 1-2-4-2-7-3-5-5-6-3-3-1-1-1-2 2-2 1-2-2-5-2-4-1-5-1-6-1-1-1-7 1-14 4-5 2-1 1v2l2 1h1l2-2q4-3 8-2l2 1 2-1q4-3 9-1l2 1 1-1q4-2 4 1l1 1-2 2-5 5q-26 21-10 0l3-4-1-1-1-1-7 7-7 9v2h-4l-5 1 6-11q3-6-4-4l-3 1-2 6-4 8-3 3h-5v-2l4-7 3-5q-1-2-4 0c-2 4-15 18-16 18q-2-2 0-5l3-5v-3l-3 1-5 5q-9 7-4-1l2-3-2-6-2-13v-6l1-1 1-2-1-2-1-3 1-2 2-6 1-8 2-6 2-6 1-5 2-4 3-5 3-4q5-3 9-11l2-4-1-3q-1-6 2-10l1-2v-16l1-4 2-8v-3h-2zM232 444l2 5q3 4 1 6l-4-3-4-4c-2 0-5-5-5-6l9-2zm18 11 2 2-1 3-1 5-1 1-3-3-4-2 1-3q1-9 7-3m156 6 1 2-1 2q-1 3-2 3l-4 3-2 3h-4l-5 2h-2l1-1 1-2 3-4 4-2h4l1-3v-3zm0 20q3 0 3 2c0 2-5 1-6 0l-4-2-2-1 1-1q1-2 8 2m-55 10v1l-3 1h-3l-1-2v-2h7zm-53 8 3 3v1l-1 2-10-1c-12 0-11 0-11-1l2-1 3-1 4-2 3-1q2-2 7 1M596 343v3l1 1q2 3-1 7l-1 3 1-1 1-1 2 1q2 2 2-3l1-3-1-1-1-2v-2h2l2-1v-1h-2l-2 1v-3q-2-5-4 2"/><path d="M327 352q0 3-5 5l-2 1v6l-2 1h-2l-1 3q-2 5 2 5h2l1-4 1-3 3-1q3 1 2-5v-2h2q5 0 2-6-2-4-3 0M1042 358l-2 5-1 3 2 3 2 2-1 2-1 2h1l1 4 3 4h1l2-2 4-5q1-5 3 0 1 3 3 3l2 1v2q1 4 4 4v-4l-3-5-2-4h-2l-3-2-1-1h-2q-5 1-1-2l1-2-3-4q-4-7-7-4M308 375q1 4 4 5 4 0 2-4l-1-3h-5zM553 385l2 1-1 1-5 1h-4l-2 3-2 2h-4l-4-1v1l-2 4-2 2h-6v1q-1 4-7 4h-3l3-4 2-3h-2l-3 2-2 1v4l-1 3-1-1h-3l-1 1 5 6 6 5h2l3-8-1-1-1 1q-3 4-5 1l1-1 4-3 1-2 1 2q0 5 7-3l4-4 2 1q3 1 1 2-2 0-2 3l-1 2-3 1-5 2-2 2 1 1 3 1 3 1 2-2 4-3 1-3q3-13 11-14 6 1 2 3l-1 2h1l1 1 2-2 2-4q1-4 6-5l3-1v-1l-3-2-6-2h-2zM1108 389l-2 3-2 2v1l2-1h3l3-6q-2-3-4 1M1181 391l-1 3 1 3h-2q-5 2 0 3h2l1-1 3-3h3l-1-2-2-2-2-1zM554 430l-1 1 1 2 2 1 1-1h2v-2l-1-3h-4zM1162 433l-3 1 1 1 5 1h5v-4h-2zM1148 436l-2 1 1 1h9q3-2-3-3h-3zM1091 440l2 2 1 2 2 2 1 1v1l-1 2h7l2 4 1 3v6l1 6v1l1-1 1-5v-4h1l5 5 3 5v2l1 4v2l1-1 2-2 5 6 6 6 1 2 2 4v2l4 1 4 2v-2q1-2-1-3l-1-2 2-1 1-2-1-3-2-2 1-2 2-2q4-2-1-8l-2-3v-2l1-2-2-1-1-1-3 1q-4 1 0 4l1 1v1l-1 2h-3l-4 1-1 1-1-1-1-1 2-1h3v-2q0-3-6-3h-4l-2-2-3-2 3-4 5-3 1-1q-2-3-15-3h-7l-1-1-2-2v-6h-2l-3-1z"/><path d="M1103 440c0 3 8 4 11 2l2-1-2-1-6-1h-5zM195 450l-1 3-1 2h-2l-2-1-1 9-2 9-1 5-1 9-3 7-2 6-1 3q-1 5-3 3l-1-1 1-2c1-2 1-13-1-15v-2l1-1v-9c-1-1-5 4-6 7v4l-2-1c-2-1-11-15-11-17l-7-8-7-7-2 1-1 1 2 2 8 8 2 1v7l3 4 6 6q6 6 7 12l2 5v5l1 9 2 7-2 2v11l1 3 1-1 1-3q1-6 9-17l4-6 4-4 2-4v-2l2 1 2 1 3-1 7-1h3l4-3 7-4q6-1 7-7l2-4v-6l-8 5-8 5-5 3q-3 3-7 5l-5 3-1 1c0-2 9-15 11-17l3-3 1-2-2-1-1-3-2-3-2-2 1-2q4-4 0-10-4-9-9-5M987 469q-10 10-6 10 3 0 10-9l3-4 1-2q1-4-8 5M88 468l-3 3 1 4c1 9 9 20 13 20h2v-3l-1-7-1-4 1-2q3-5 3-1l-1 2h2l2 1 3 2 3 2 1-1 1-1-1-2v-7l-1-4h-2l-2-1-2-2-1-2H91zM599 472q-2 2 1 4 5 3 12 11l2 4h2l3-1v-2l1-3-1-4q-5-5-5-1 0 5-2 0l-1-3-4-2-4-2q-2-3-4-1M76 484l-3 5v3l2 1 2 1v2l2 7 3 4-2 1-2 1 1 2c1 2 6 7 8 7l2 2 4 3 3 2-1 1v1l2 1 2 2 3 2 2 1v6h-4l-4-1-2 1q-4 2 2 6 4 2 4 5 3 4 4-2t5-7h2v3l-2 5-2 2v8l-3 2-3 3v12l-2 1-3 3-2 1v8h4l1-3v-4l1 3 2 2q3 0 1-5l-1-3 1-2h3q4 0 3-3-2-2 2-3h2v-1l-2-2-1-1v-3q2-6 3-2 2 5 3 1l-1-4-2-3 1-4v-4h4v7l1 6 1 1 1 1v5l1 7 1 1-1 5-2 4 1 4 1 3-1 6v5l-2 1-2 2-1-1h-1l-2 2-2 2h-3l-4 1-1-2v-14l-5 13v2l2 1q5 1 1 6l-1 2 1 1h5l3 4 4 7 3 1h2v-6h4l3 1 1 2 1 2 10 10q-1 3-3-1l-1-1-2 3-4 5-3 2-4-1-5-3-4-2-4-1h3l5-1 1-2-2-2-5-2h-2l-1 2-1 4 1 1-2 1v5q4 2-1 7-4 5-1 6l3-4 3-4h2q3-1 2-2l-1-3v-1h2l2 1 3 4 4 4h4q13 1 1 4h-5v5l1 6q2 3 3-2l2-3 1-1v1l-2 6-5 8c-3 3-4 8-2 7l8-11 1-1 2-3 1-3 2-1v-11h2v-3l-1-3 2-1 2-1-1-3v-3c2 0 7 2 7 4l3 1h1v-3l-1-4-1-2h6l2-3 1-2h2l2-1q-2-2-5 0v2l-2-1h-1v-3l1-3 5-4 4-4 4-1q6 0 1-3l-1-2-2 2-5 1-2 1-1-6-1-5 2-2 1-1-1-2-1-6v-4l-2-2-4-4-3-2v4l-1 3-3 1-3 1v4l1 5 1 6v5l2 1 2 1-1 3v3l2 3 2 3-2 5c-3 5-3 5-10-2l-6-6v-19l-1-2-2-1v-14l2-1 5 2 4 2c1-1-3-9-6-10l-2-3-3-5-3-2v-5l1-5-2-2q-4-5-3-11v-2l-1-1-1-1 2-4 1-4h3l3 1q2 3 2-4 1-8-8-6h-5l-1-4-1-10-1 1-2 4-2 3 1 5 1 5c3 1 1 6-2 5l-2-1v-2l-2-5-10-19-11-18v-2l-3-2q-5-4-6-2"/><path d="m143 485-2 2 2 3 3 3-2 1-2 2 2 7q0 8 2 9l1 2-1 3-1 4-2-2-7-6-4-5v2l-1 2 1 2 1 10 1 8h8v1l-1 2q-2 1 1 7 4 3 8 2l1-1-2-3-2-3 2-2 1-2 2 1h2v-4l2-1 4-3 1-2h5v-2l-1-2v-11l-2-2-2-3-1-1h-1l1 7v7l-1 1-6-1-3-1v-13l1-3v-2l-3-3-2-3-1-5v-4zM626 487l-3 11-1 2 2 3 2 4 1 1 5 10 2 4 1 3 1 3 2 4 2 3h1v-2q-1-6 6 0 11 5 3-5l-4-5-1-2 2-4 3-5q0-5-4 1-3 8-6 3l-3-3 1-3v-5l2-3 1-1v-2l-1-2 2-1v-5l-2-1-1 1-3 10v3l-3 1h-2l-2-2-2-2 1-1 1-8 1-7h-4zM116 492l-1 3 3 4 3 4q2-2 0-5l-3-6q0-7-2 0M1127 491l2 3 2 2 2-2 1-3v-1h-3zM222 501q-3 4 0 4c4 0 6 12 3 17q-3 6 4 1l7-3c3-1 4-6 2-6q-4-1-4-9v-4l-4-1q-6-2-8 1M380 503l-7 2h-2v5l2 1 3 1 2-2 1-2h9l2-3q5-4-2-3l-4-1zM660 508v4l-1 2-2 1v10l5-13v-5h-1zM198 515l-2 2 1 4v3l-1 2-2 5v7h3v-6q1-8 6-13l2-2v-2q0-3-2-3h-2zM669 513l-1 3-2 3-3 1-1 1 1 1q4 3 0 6l-3 5v2h2l1-1 1-2 2-4c1-1 5-10 5-13l1-3h-2zM250 526l2 9 1 2v16l-1 3-6 13q-3 8-11 12l-4 3-5 4-3 4-1 1h27l4-3q8-4 3-5l-1-2v-1l1-1h3l3 1v-2l1-2h4v-1l1-4 2-4 2-3-2-1c-3-1 0-6 3-6q3 1 1-3l-3-2q-2 1-4-5v-3l-3-1q-6-3-1-4 3 0 3-2l1-1 3 1 5 2q6 2 16 11l15 19 3 3-1 4-1 6-2 9-2 8-1 5v3l4 1 3 2 2-1h3v1l1 1h19l2-2q3-2 5-1l4-1 2-1-1-1-5-2q-8 0-15-3l-5-2v-5h3l4 2 3 1 4 2 5 2h3l1-2q2-5 6-2l1 2-2 1q-4 2-2 4 3 4 10-2l4-5h9v-1l-2-3-2-2-1 1-1 2h-4q-6 1-1-4l2-3v-1l-4-4-2-1-2 1-5 3h-4v-1l1-2h2l1-4 1-3-3 1-6 4q-5 7-11 7h-1l1-2q0-2 3-5c5-7 0-6-7 1l-5 4h-1v-2l2-5v-2l-3-1-3-3v-1h2l2-1 5-2q5 0 5-2v-1l-5-2-8-2c-3 0-10-4-10-6v-2l3-1h5l3-1 1-2h5l4-1 3 3 4 3h5l-2-2-3-2-1-3h2q11-2 12 2l2 3 5 4c3 3 9 5 9 4v-4l-1-3-2-1h-3v-2l1-3h2l7 7 7 7h6l5 1v1l-2 1-3 1h-2l2 1q5 1 6-1l4-1h4l1-2 1-2h1q2 1 5-1l4-1 3-2v-1l-3-3-3-2 2-1 2-2h-4l-3 1h-2q-6-2-1-4l4-3 1-3-2-1-2 1-3 1-2 1-1 2h-5l-8 3-3 1-2-2q-5-3 1-4l3-1 3-2q4-2-2-3l-4-1-1 2-10 4-4 2c-5 4-10 2-6-2l3-2 6-5-3-1h-3l-2 2-5 2-2 1-3 4-2 3h-11v-1l8-8 6-5h-8l-2 3-3 3-1-1h-2l-6 6-5 5h-1l-1-1 2-1 2-2 4-6 4-6-1-2-2 1q-6-1-2-2l3-2h-6l-2 1-5 1-4 2q-3 1-4 4v3l-4 3-3 3v3c2 4 2 10 1 10l-4-10q0-3-7-10l-2-3-1-3h-1l-2 1-1 2-2-3-4-3h-1v2q0 6-4 0-5-7-5-1t-4 0l-7-8-3-2h-2zm91 67q4 3-3 5h-2v-2q0-6 5-3M700 521l-2 4-1 12-1 19v7l3-2 4-4 1-2-1-2q-3-2 0-5 2-2 0-5l-1-3v-4l2-1 3-2-2-1-1-4-1-2 2-2q3-3-1-5l-2-2zM545 522l-1 2 1 1q4 2 6-1v-1l-2-2q-3-2-4 1M42 523v7l2 1h2v2q0 5 2 5l6 3 4 4v3l3 6 2 3 1-1h1v-3l-4-12-4-8q-5-9-12-10l-3-1zM342 524q-3 1 5 3l5 1 1-1 7-1h5v-2h-7l-11-1h-5zM520 528h-2v2l1 2 2 1q6 0 6-4-2-2-7-1M830 530q0 3 5 5 5 0 0-4-4-3-5-1M203 536l-4 6v2h2q3 1-1 2l-2 1-1-1-1-1-1 2-1 2 1 1 2 1h-2l-2-1-3 2q-6 4-6 1l-1-2h-2l-2 2c-3 4-4 7-3 17q-1 15 6 4 9-12 16-13c10-3 17-8 13-8h-1l1-3c1-8 0-18-3-18z"/><path d="M227 535q-2 0-9 11l-2 6-1 3-2 6-1 6-3 3-3 4-1 2-2 3v1h2q5-1 13-8 3-3 6-4l2-1 3 1 2 1v5q0 9 2 6l1-1-1-6-1-6 1-6 3-8 1-6-1-2-2-1-2-2 1-3 2-3-2 1-1 1-2-2q-2-2-3-1M532 538q1 3 3 3l4 3 1 3h5l1 3 1 2c2 0 13 9 14 12q4 7 10 7l2-1 1-2v-3l-3-2-6-5-7-6-4-4-2-1-5-3c-4-4-12-8-15-8h-2zM752 539l-3 6-2 4 1 2 3 1h1v-7h3q6-1 2-5-3-6-5-1M78 539l-1 2-2 4-3 2v5l-2 1h-2v7l6 3 9 5q8 6 11 6h1v-3l-1-3 1-1 3-12v-3l-4-2-13-10q-2-3-3-1M515 543l2 4 1 2-1 1-1 2 5-1h5v3l3 1 3 3q1 3 4 3l2 1 1 3 2 3 4 2q12 2 4-6l-22-17-6-2q-7-4-6-2M141 545l-1 8-1 10-1 4 1 1 1-2 2-3 2-7q1-9 2-5l2 3 2 2 3-1q7 0 2-4l-1-2h-8l-2-3q-2-3-3-1M44 548l-1 3 2 3 1 2 1 7v9l1 2H38l-6-1-3-2q-3-5-3 2 1 8 6 12 11 7 11 9v2l-3-1h-2v5l2 2 5 3 2 1v6l-1 1-7 1h-5l3 1 4 1h11l12 1h4l2 2 3 3 1 1 3-3 3-4c0-1 5-7 7-7l1 1 2 3 1 2-2 4-6 9q-7 10 2 4l4-2 7-4-2-1-2-1v-8h2q6-1 1-3l-3-1v-4l-1-3-7-1q-10-2-16 3c-4 4-4 4-8 0l-3-3v-6l-2-1-2-1 2-1q3-3-4-4h-6l-2-2-1-2 1-2 3-2 2-2 3-1q6 0 2-5l-2-3 2-2 3-2 2 1 4 1h6q1-2-3-3l-3-2-6-6-3-4-3-3q-2-2-3-5-2-5-3 1M132 548l-3 4-3 2 3 2 3 2c2-1 2-10 1-11l-1-1zM828 548v16q3 1 3-6v-5l2-1 2-1-2-1q-3-1-4-3l-1-2z"/><path d="m758 549-1 3q-2 0-2 3l-4 4-3 2-2-1-2-2-1-3v-3h-4l-6-1h-1q0 2 5 6l3 1 1 3v2l-1 2-1 1-2-2-3-1-2 1-2-3-2-2-1 1h-2l5 5 8 7q6 5 4 6l-1 2-1-2-1-2h-3l-2-1q-1-3-5-4-3 1 3 6l12 9q2 2 3 8l2 6 1 4-5 5-5 7-1 3-1 2v2l2-4 2-4 1-2 4-3 3-3 3 4 2 3v7h1l3 6 2 5-2 4-4 4-1 1 1 3 1 3q2 0 5-6 1-4 4 1 3 6-1 8h-2v2l1 1-2 2-2 2 1 2q1 4 5-2l4-3h1v1l1 4 1 1-1 2-3 2-1 1 1 2v3l-2 2-2 4v4q2 9 5-5l1-4 2-1 3-1 6 2 6 1c2 0-2-5-5-6l-2-1v-2l1-1-2 1h-2v-1l-2-3-2-2v-2h11l1 2 2 1h2v-4h-2l-2-1v-4h-7v-2l1-3h-3q-2 4-3 0l-1-2h-5v-4l7-1 6-1q0-2-5-3h-2l-2-3-2-2-2 1-2 1 1-4q-1-5 7-5h4q1-2-4-2l-2-1-3-2-3-2-2-2-2 1-2 1-1-2-2-2 1-1 1-1 3 1 4 2 1-1 4-1h2l-2-2-2-2-2 1h-3l-1-2-1-3h-2q-10 0-3-5l3-1v-7l3-10 1-8 2-7q2-4-2-3h-4v-1q-1-2 1-5 2-5-1-7h-1zM506 551l3 6 3 5h3l3 1 1 3 1 2 5 2 6 1 2-1-2-3-5-4-4-4-4-3-2-1c-1-3-10-6-10-4M816 556q-2 10 1 9h2v-5l-1-6-1-3zM490 557l3 4c2 0 7 5 7 7l1 1 6 2 5 1 1-1 1-1-1-2-7-5-5-3c-1-2-8-6-10-6h-2zM803 555q-4 1 0 8l1 4-1 3v3l2 1 2 1 2-1 1-1-2-3q-4-5 0-5t1-5l-2-3 1-1 2-1zM152 561v2h2l4 1 2-1 3 4 4 3 1 5 1 3c2-1 1-8-1-12l-2-5h-3l-7-2h-4zM477 564l-1 5 1 1 2-1 1-1 3 2 3 3h6v-2q1-2-8-8-5-5-7 1M366 567q-3 4 4 2l4-1v-3h-6zM464 568l-4 3v3h4l7-1 2-1-3-1h-2v-3l1-2zM291 573l-3 3-4 4-3 4c1 1 11-1 12-3l3-1 6-2 2-2-5-3c-5-3-5-2-8 0M573 576c-2 3 1 11 3 11l2 2 2 3v-5l-1-2-2-5-2-4q-1-4-2 0M803 578l2 3 1 4 1 4 1 1 1-1 1-4 2-3 1-1h-2l-4-2q-4-3-4-1M64 584l-8 2h-1v2l2 2 2 1 2-1c4-2 21 0 26 3l5 2 4 2h2l-1-3-4-3-4-4-1-2h-7l-4-1-4-1-3-2zM156 586l2 3 1 4v2l1-4v-7h-4z"/><path d="M731 588h-3q-5 0-5 3l4 1h4l3 3q10 7 6-4l-2-4h-3zM683 594l-2 1v5c0 6-2 15-3 17l-1 1h1q6 2 8 1l1-1v-7l1-13 1-5h-2zM707 599l1 4 1 2-1 3-2 4 1 2q2 5 3 0 1-4 3 3 0 5 2 5 3 3-3 3-7-1-3 4l1 2 4 1h3l1 3c1 2 11 7 12 6l1-9v-8l-1-2-1-2 1-4q4-11-4-5l-4 2q-3-2-2-5 2-3-1-4l-3-1-2-2-3-2q-4-4-4 0M583 606l1 1q5 2 6 5l1 1 3 5-10-5-3-1h-2l-1 3-1 2 3 3 4 3-2-1-7-1h-4l-1 2v1l2 2 2 1-1 2q-11 14 8 3c12-6 13-6 18-7q10-2 4-6l-9-8-7-7h-4zM642 605h-3l-1 3v3h1l3-2 4-1h3v-2l-1-1h-6M518 618l-1 4 1 1 3-1h3v1l1 1 2-1h2l2 1 5 2h2v-1l-1-4-1-2-4-1-8-1h-5zM504 620l-2 1 1 1 4 1 2-1v-1q-1-4-5-1M36 620h-1l2 2 1 2h4l8 2 5 1 3 1 2 1 2-1 1-1-1-3v-3l-2-1-3-1-2 2-7 1h-5l-2-1q-2-3-5-1M492 623v1l1 1h6l1-1-2-1q-4-3-6 0"/><path d="M520 627v2l-1 2c-3 3-1 8 2 6l2-1 1 1 1 1-1 3q-4 5 2 3h3v4l-2 3-3 2-2-1-3-4-2-2-1-2-5-10-1-2v-2h2l2-1h-2l-6-1-2-1-4 4-3 4c0 3-7-2-7-4q1-4-6-2-3 0-2 1l1 2v2h-1l-5-2-2-1-3 2-2 3h-2c-4-1-13 3-13 6l4 3 8 5 4 4v6l4 1h5l1 3 3 3 5 2 8 4 6 3 4 2 6 2 2 1 2-1 2-1 1 1 1 3v2h8l19 1h11v-1q-1-2 7-5l4-3 4-2h3l-2-1-2-1v-5l-4-14-3-9h-3l1-3v-2h-3v-3l1-3-2-3-2-2h-6l-2-2-2-2h-5l1 3v2l-1-1-3-1h-2v5l-2 1-3 2q-1 4-2 0l-1-2q-2 0-2-3-4-8-8-5m33 5 1 1-1 5q-2 8-5 0l-2-3 2-3q3-4 5-1m-13 10-1 2 1 2 2-1h3l1 1 1 2v3l-1 3 3 1 2 1v10l-2 1-4 1h-2l-1 2q-1 4-3 1h-4l-3 2-3 1-1 2v2h-7v-2l1-2h-6c0-1 6-6 8-6l3-1q0-2 7-4c7-3 7-3 4-8l-2-5-2-4-1-4v-2l4-2 3-2 1 2zm20 1v1l-2 2-2 2v1l1 1 3-1h2v2l-2 4q-4 3 1 4l4 1v4l-2 1h-2v5l3 2 3 2-2 1h-8l-2-1v2l1 2-4-1h-4v2l-2 3-3 2-1 1-2-1-4-3h-4l1-2 1-2 4-1 5-2 4-1 6-2 5-2-2-6-1-9v-4h-1q-3 0-2-5l1-3v-1h6zm-49 1-1 3-2 2h-6v-1l1-2 3-1q3-3 5-1m-5 9zl-1 2q-1 3-3 1-2-4-3 0 0 5-4 3-4-3 1-4l3-3zm27 1 1 3h-3l-3 1v-2l-2-3v-1h6zM102 628l-3 3-2 2v1h6l1-3-1-4-1-1zM746 629l-1 1 1 1v2l-2 2-2 3v2h1l3-3 2-3q3-6-2-5M62 632q-1 2-3 1h-2l-8 8-8 9-1 2h2l5-4q3-4 7-5l3-2 1 1 1 3 1 4 2 4v2h-3c-2 0-8 4-8 5l-5 5-5 5 2 2 2 1 3-3 5-4 7-6 5-4h5l1-3 1-2-1-7-1-6 1-3 1-3c0-2-7-1-10 0M632 639v3l4 3q7 4 4 0l-3-5-1-3h-4zM896 641l-4 2-4-1h-4v1l-1 1-3-1h-2l-2 2q-3 4 2 9l3 3-1 1v6l1 3 1 2 1 1 1-4 2-5q3-3 0-3l-1-2v-1l4 1h4l1-3 5-7 4-4-1-2q-1-2-7 1M74 643l2 5q5 8 3 27-1 9 2 19l1 3-1 1-1 3-5 13v13l2-2 2-2 3-9 4-8 1-2 1 1q4 2 7-1t4 4v4l2 1 2 1v2l-1 3-2-1-5 1h-1l1 3q3 5 0 12-7 11-9 6l-1-1-1 1-1 1 2 4 2 4v1l-4-4q-6-7-5-2l1 3h-5v4h8v5l-2 1-2 1v5q-2 3 1 1l3-1h2l1 3 3 4 4 5 1 2 2-1q2 0 4-5l3-8 5-15 1-7 1-2 2-2-3-2-3-4v-1l4-1 4-1 3 1 4 1h2v-1l-2-3-1-2-3-7-3-7-1-7-2-13-1-5v-7l1-7h-1l-5 3-5 5q-3-1-1-3l1-9v-4l-2 4-2 4-1 5-2 11-1 9-1 1c-3 1-1-28 3-35l1-3c-1-1-7 3-8 5q-1 4-3-1v-3l1-1 2-2 6-8 6-6h-2l-6 1-5 1-5-2-5-3zm32 51 3 4 1 1-2 1h-2v4l-1 3q-3-1-4-5v-2l2-1h2l-1-1-2-2v-6l-1-6 2 4z"/><path d="m643 648-2 2 1 1 4 5 4 6 2 2 2-1q4 0-1-4l-3-3-2-4-2-1 1-3q0-4-4 0M737 648q0 3 3 5l2 2 1-1 1-1-1-1-2-4v-2h-4zM695 654l-5 4-2 2 1 1 5 2 4 1 2 5 3 6 1 2 3 5 2 1-3-9v-9h2l13-1 12-2 1-1h-4q-5 2-5-3v-2h-2l-3 1q-3 3-6-1l-1-1h-3l-3 1v-2l-1-1-2 1-5 4-3 3v-1l-1-1 2-3 2-3-1-1v-1zM142 655l-2 2 1 2q3 4 0 7l-2 5v4h1l4-3 2-4v-15h-1zM744 660q-2 2 1 5 4 3 4 1c0-2-4-7-5-6M855 667q-1 2 1 8l2 7 2 4 1 4v2l1-2q3-3 7 0l1 1h3l3-2v-1l-4-2-8-4-3-2v-4l3 1 6 2 3 1h2q2-2-1-4l-4-2-9-4-4-3-2-1z"/><path d="m714 670-3 1 1 2 2 1c2 0 8 5 8 7q2 6 4 0l1-4v-1h5q10 0 5-3l-2-1h-3l-3 1-2-1-2-1-2 1q-5 2-4-2v-2h-1zM751 670v2h-2q-4 1 0 5l3 3 2 2q2-2 0-3-4-2 1-4l2-1-3-3q-1-3-3-3h-1zM63 676l-4 2-7 4-4 4h-4l-5 1v1l1 4 1 2h2c9-2 11-4 20-14q7-8 0-4M29 677l-1 2-1 1-1 4v4l3 1q4 2 2-1l-1-2 4-3q6-7 0-6zM208 676l5 6 5 5v3l1 5 1 1v-1q3-2 5 1l2 5 3 3h6l-1-1-1-3v-3l-2-1-2-2h2l3 1 2 2 1-2-1-1-1-2q0-5 6 0c7 5 11-2 7-11l-2-4-5-1-9 1-11 1h-6v-1zM775 681q-5 8-1 9h2v-7l3-1h2l3 1 4 2q1-2-3-5-3-1-3-2-2-4-7 3M143 679l-3 4c0 2-8 10-10 10l-3 4-2 5 1 4c1 4 0 16-1 16h-1l1 1 1 2v2l-1 2h1c2 0 7-6 7-8q0-3 3-5 4-6 7-22l2-10 1-5-1-2zM203 684v3l1 3 1 2h4v-2l-2-5-3-3zM124 687q-7 9 0 8l2-1v-3l1-4 1-1q0-2-4 1M318 705q-1 2 2 6l2 2 2-1 2-1-1-2q-3-7-8-4M219 706v5l1 4 1 1h2v-2l-3-9zM196 709h-4q-6 1 1 6l4 3 2-1 1-1v-4l-1-3-1-1zM884 718v1h-2l-3-1-1 2-1 1 1 1 1 1 2-1 3-2q3 0 3-2zM688 722l-2 2-2 1 2 1 3 2q4 5 3-3-1-7-4-3M58 724l-2 5-1 2h-4v22l1 2 2 1-1 1q1 4 4 6 10-1 12-14l1-4-1 1q-3 3-5-2l-2-3 1-1 1-9v-7l-1-2q-3-3-5 2M317 724q-2 5 1 6l2-2 1-3-1-2-2-1zM204 734l-7 7 1 2v2h8l2-2 2-3v-8q4-7-6 2M957 758l-1 3v2h2q4-1 4-5zM960 767l1 3 1 4q2 5 5 3h1l-1-2-2-2v-8h-5zM966 811l-1 5v4h3l1-4q2-5-2-5zM130 826q-3 2 1 3l3 1v4l1 3 2 1 2 1 1 2q2 6 5 6h2v-2c0-2-6-11-7-11v-4h-2l-3-1v-2l-1-2h-2zM237 863l-1 4-1 3 2 1q3 4 2-8-1-4-2 0M297 867l-1 4 2 3 1 3-2 3-2 2 1 1 4 2h3l-1-5v-4l-2-2-1-1 1-1 2-2v-1l-2-2-2-2-1-2zM925 868l-1 2 2 1h14v-3l-7-1h-7zM868 871q-3 3 5 2l6 1v-3h-3l-3 1-1-2zM900 871l-2 1 1 1q3 3 6 0 4-5-5-2M910 871l-2 1 9 2 1-1-1-2zM1008 876l-1 1 2 3 2 7 1 4 4 2 4 4 1 2 1 4v4l2 4 2 3v4l2 9 2 7q1 12 3 18l1 3v45l1 8 7 24 7-7 3-4v-5l2-2q5-5 9-17l2-6 1-6q0-12 4-3l2 6 1 6 1 5 4 20 2 8 1 9v8l1 1 3 5 2 5h1v-7l-6-32-1-8-2-7-5-18-1-5-2-6-1-6v-4l-2-1-2-1 1-5v-7q-1-6 1-9l1-1 5 5 11 13 1 2 1 2 1-2q3-4 9 2l5 4 3 2 2 1 2 2 1 1h5v-2l-1-1-2-1-4-2-1-1 1-4v-3h-1l-1 2q-1 3-3-2l-1-3h-2c-2 0-9-5-11-9l-3-3-5-3-8-5-5-3h-2l-1-2-2-4-2-4-1-4-6-6-7-6 3-2 2-2-2-2-4-3-2-2v-3l1-3h-1l-5-3c-5-3-13-6-14-5l-3-2-2-2-5-1h-6zM595 886l-4 3-2 1v1q3 2 4-1v-1h7v-3q-1-5-5 0M73 892l-3 2-2-1h-2v2q0 3-5 6l-2 3-1 2-2 1h-3v2l2 2 2 1 6-5 17-17v-1h-2q-3 0-5 3M239 892q-2 5 1 6l2 3 1 3h1l1-1 1-4v-4h-2l-2-1v-2l-1-2-1-1zM593 901v2l-1 1h-5q-6 2 0 3l5 1 7 2 6 1h7l-4-7-5-5v2l-1 3-1 1-2-1-3-3-2-2h-2zM294 902l-1 4v3l-1 1q-3 2-1 3l2 2q2 4 3-8v-7h-1zM153 905l-1 3-1 3-2 3-1 2h-2v5h2l2-2 3-5 2-6 1-3h-3M855 912l1 1 1 2v1h-2q-5 1-1 3h2l2-1q3-3 0-5-3-3-3-1M124 918l-1 5-2 3 1 2q2 5 3-1l2-5 1-4v-3h-3zM284 926l1 4 5-6v-2h-6zM200 943l-1 3-2 5q-5 6-2 7l1-2 3-1h1v-3l-1-4 2-1 2-2-1-2-1-3zM380 946l-3 7-2 3-1-2-1-3-2 1-4 1-1 1 2 1 3 4 1 3h2l2-1 1 2 1 2v7h-1v-7h-6l1 2q2 2 3 7l1 6-1 1q-3 2-5-3v-3l-2 2-2 1c-1 0-1-5 1-6 1-1 2-6 0-6-1 0-6 6-6 8l-1 2v-3l-1-4h-1l-3 3-2 3 13 10c3 0 11 3 12 5l2 2v7h-1q-5-1-2-5l1-2h-1l-3 2q-4 4-7-2l-1-4-1 2v2h-5v-5l1-1h-1c-1 0-6 4-6 6l5 4 6 4 12 3 5 3q4 4 4-2c1-7 6-14 6-10l2 3 2 4v1h-7v8l-1 1-2 3q1 3-3 1l-2-1v-2l1-2h-1l-1 1-3 1h-2l-1-2v-2h-4l-4 1 1-3v-3l-3 2q-5 3-2 4l4 3 5 3 5 3 8 4q8 4 9 9v4l-2-1h-2v-3q0-5-3-3l-2 2-2-1-2-1 1-1-1-3-2-1-1 1-1 2h-7v1l5 5 6 4 3 1 3 2 1 1h4l3-1 1 2 3 3h2v6h-2l-3-2-3-2-2-2q-2-3-4 2l-1 3-2-1h-2v1l5 4 6 2 4-1h3l2 1 2 1-1 5-1 4 1 1 1 3 3 3q6 5 3 6c-2 0-23 22-23 23v2l5 1 7 1 3 1q1 3 4 1l2-2-1-2-1-3h-4c-6-1-6-1 4-11l9-9 3 3 13 10h1v-8l-1-7h2l4 2 2 2-1 2-1 2 1 1 2 3 1 3q4 2-1 6l-2 3c0 2 5 6 6 6l3 1 4 3 3 3h7l2 3q5 3 7 0v-1h-3l-3-1 1-2-1-4-2-5-1-4-1-4-1-4h1q4 1 11 7l2 2-1 2-1 2 2 2q4 4 1 6l-1 2v1h4l3-1v-10l1-1 3 2 2 3-1 1-1 2 2 2 2 4v2h1q4 1 0 6-4 7 3 4l1-2 7 2 7 3 5 1 2-1 2 2 2 2 1-1q4-4 7 1 2 2 5 3l2 1 1-1 1-1-1-2-1-4v-1h-1l-2 1 1-3v-3l-1-3-2-2v-11l-2-1-1-3-1-3h-1v-3l1-2-3-2-2-4v-2h-5v-2q1-4-2-1l-1 1v-1l-1-4-1-3h-2l-2 1-1-2-3-6-1-3-2 1-1 1 1 2 2 2 1 7 1 5h-1q-3-1-4-6l-2-3-2-5-1-2h-4v6h-4v-11l-3-1-4-3q0-2-5 1l-2 2-2-2-1-1-3 3-4 3h-6l-1 1-1 2-2-2-2-1-1 1-1 3v2h-2c-4 0-7-5-3-5l5-2 7-3 4-3v-2l2 1 2 1 2-1 2-2-1-2-1-2h-11l-2 1v3l-1 3-1-1-1-3v-2l-2-1-1 1-3 1h-1v-2q1-2-2 0l-4 1h-4l-1 2-1 1h-3l-3-1v-2l-1-3q-3 1-5 5c0 5-5 1-7-6l-1-4v-2l4-6 3-7 1-5 1-6 1-5-1-1-2-1-2 3-1 2-1-1-1-1 1-1 1-4 1-5 3-9 1-6-2-3q0-3-2-3-3 0 0 4l1 4-1 1h-6v2l2 5 1 2-1 1-4 1h-2l1 3q2 6-2 6t-2 4-1 4l-3-3-1-3v-3l7-16q3-3 3-8l2-5v-9h-1l-2 2-1 2h-5v2l1 4 2 3v2h-2l-4-2-2-2 1-3 1-5 1-6 1-9 1-4-2-2-2-2h-6v-9h1l1 1 7 7q3 1-1-5l-2-3h-1l-3-2q-4-8-9-2m9 18 2 3c2 1 1 7-2 7h-2l1 4v4h-5l-1 1 1 3 1 5v1l-2-1h-2l1-6 2-10 1-5 1-3 1-4 1-3 1 1zm20 63-2 4-3 3v3q-1 8-2 2l-1-3 2-5 3-6h3zm70 49q0 4-5 4l-3 1-1-1q-2-4-3 1l-3 3-2 1-1-2-1-3-1 1-1 2-5-1q-6-4 1-3h5l1-1v-2h4l6-2 3-1h3q4-2 3 3m16 10q0 3-4 5l-1 1-1-3q-1-4-6-1l-2 1v3q1 4-5 3h-3v-2q0-3-3-2l-1 1-2-1-3-3v-1h3l4-1c3-1 24-2 24 0m-47 1q5 2 3 5-3 4-6-5-2-4 3 0m6 11q-2 11-5 3l-1-4 2-1q4-3 4 2m38 3h3l-1 3-1 2-1-1-2-1h-6l-1-1 1-2zm6 17c1 1 0 7-1 7q-3 0-3-6v-2h2zM851 944l2 2 3 1 1 3 2 4h1l1-2v-3h2c6-1-1-6-8-6zM365 945l-3 1q-4 1-5 7v2h2l3-1 2-1-3-1-2-1 3-2 4-1h2v-4h-1zM78 953l-1 2h-7v2l2 2 3 1 3-2 6-3h2v-1l-4-2h-3zM61 958l-2 1 2 2 3 2 1-2 2-2v-1z"/><path d="m1087 963-1 3 2 4 3 3v7l2 4 3 7 1 8v8l-1 15-2 23-1 12h-3l-3 1v6h1l1-1v3c-1 5 0 22 1 33l1 11 2 1q3 7 9-11l4-8 3-4-1-2 1-2 1-3 1-2 1-1 1-3 2-1v-11l1-1 1-1-2-3-2-3 2-1 2-1c0-2-6-7-8-7l-2-1v-1l2-2 2-2-3-1-5-3-1-1 1-2 1-2-1-3q-1-8 3-1 9 16 11 15l2-10v-4l1-1q3-3 0-3l-2 2-1 2-2-1-3-2v-3l4-1 4-1 1-4 2-3-1-2-2-1v-6l-2-1q-4-2 2-3h4v-2l-1-3-4-4-5-7-3-3 1-3v-2h-2l-3 1-2-2-2-1 2-1 2-2-2-1-4-1h-3v-5l-3-1-4-2q-3-3-5 2m16 15 13 13 2 1-2 2-4 2h-2l-1-2q-1-3-2-3-5-1-6-6l-2-5-2-2v-1l1-2 2 1zm1 76 5 8 3 3-2 4-2 4-2-5-3-6-1-3h-1l2-2zl-2-1h-2v-3q1-7 4 3M871 969q0 4 3 4 5 0 1-4-3-4-4-1M828 970v3l2 4 2 2 1 3v2h2q5-1-3-11l-4-4zM274 991l1 1-1 2q-1 2 2 3h2v-2q0-5-4-6h-1z"/><path d="M300 992h-5l-4 3-3 4 3 2 3 2v5l2 1 2 1v3l-2 4-1 1h-4l-3-1v2q-2 3-3-4l-1-6 1-2 1-2-1-2-5-4-1-1-1 1-5 2-3 1 4 2 4 2v3h-6l-5 1-1-1-2-2-2 1h-2l-1-1-1-2 1-2 1-3 1-1 2-1v-5h-2l-2 3-1 2h-3l-3-1-1 2-1 5-1 2 3 3 5 4 2 2 4 3 4 1 1 1-2 3q-2 4-4 0-2-6-5-1l-3 3-1 1v-2l1-3 1-1-1-2c-2-4-7 2-7 8v1h-3q-7 0-7-4 0-3-2-3h-2v4l2 1h2v3l1 7 1 4 3 3 3 3-1 2-1 2 2 2 8 6 6 4v3l1 2h3l4 1 1 1q3-1-1-5-3-2-3-5l-1-3h-2l-2 1v-2l-1-4v-2h7l8 1 5-1 12-3 6-2q4-5 16 8l5 5-2 1q-4 4-7 1-1-4-2 0-2 5-4-1l-1-3h-2l-1 1v2l-2 3-1 1-1-1-1-2q-2-6-5 1l-1 3h-2l-2-2q-2-4-5 0l-4 2-3 1v1l1 2h7l16 1 10-1 2-1 6-2 5-1c1-3 16 6 16 9v2l-3 1h-5l-4 2q-4 3-5-2l-1-3-1 1-3 2-2 1-2-3-1-3-1 1-2 4v3l-2 1h-2v-8h-1l-2-1v1l-1 6-1 4h1l16 1 9 1 5-2 10-2h5l2 4 5 5 2 3q-1 4-3-1l-1-3-2 3-4 3h-1v-7h-1l-4 3-3 4h-2v-3q-1-6-6 0t-5 1-5-2q-9 6 7 9 11 2 5 3l-2 1c-1 1-6 0-7-1l-4-2-3-2v1l2 3 1 2h2l2-1 1 2v1h3l5 1 17 4 8 3 3 2h6l7 1 1 1v2l-39 39-2 1 3 1c5 2 6 1 12-6l8-7q2 0 3-3l9-10 1 2 1 3 1 1 3-5 3-5 2 1 3 2q4 1 0 3-6 3-1 6 6 0 0 5l-3 3 3 1h3v1l-3 4q-5 3 0 3h2l2 3 1 2v-3l4-15q2-4 4 2l2 5 1 2-1 2q-4 4 0 4 5 0 1 4l-4 5-2 4h3l2-1 1 2-2 5q-5 5 1 5h2l-1 1-1 4-1 2-1 3v1l1-1 1-2h8v-24l1-12h5v8h2v4l-1 3 1 2 3-1h3l-2 3-5 5-1 1v1l1 2h5l-2 5-5 6q-4 7 3 5l3-1-5 8-2 1-1 4q-2 6 1 8l2 1 2-1 1-1 2 1 3 5 4 5h1l1 5v4h4v-1l-2-5-2-4v-6l-1-8q-3-6-1-25l2-11 1-1 2-2 1 2 1 1-1 3-1 2 3 3 2 4h3q1-2 2 1l1 1-1 2-2 2 2 1 2 2-2 2-9 10v1h2l5-2h3l-5 4-5 5v2l1 3 1 1 3-2 4-3v1l-2 4c-5 4-4 9 1 7l3-1 2 1 5 1h3q0 5-4 6h-2v5l2 1h1l2-2 4-3h1v2l-1 2h2l2-3q0-3 2-3h1v7l2 1 3 2q1 3 4 2l2-1 3 2 6 1 4 1 3 3 6 3h2v-3l1-10v-6l-1-1-2-1 2-2 2-2v-1l-1-1-4 1-6 2-2 2-4-3q-6-5-6-8c1 0 10 2 12 4q3 3 9-4l4-4-1-1-1-1-1 1-3 2q-3-3 1-4l2-1v-2l-1-3 1-2 1-1h-2l-2 2-1 1-2-1h-3q-4 0 0-3l3-2 1 1 1 1v-1q-2-7-5-4l-3 1h-2l-2 2q-3 3-4 1l2-2 1-2 2-3 1-2-1-1v-8l-1-1-3 2q-5 5-4-2l1-4-2 1-4 3q-7 5-3-3l1-5-1-1-3 2q-3 1-4 4-3 5-7 4l-1-1 1-4v-3h-1l-2 1-2 2-2 1-1-1-2-1v-7l-2 1h-2l-3-5-3-4v-6l2 1 9 2 10 2 15 5h4l3-2q4-3 4 1l2 4 2 3 1 2 1 1h2l1-2v-2l-2-2-1-1 1-2 2-1-3-5-5-5-1-1v-7l-4-3-4-4v-1l-3-6-3-3-2 2-2 4q-1 4-4-3l-1-4h-4l-6 2q-4 5-2-3l2-5v-4l-2-1q-3 0-1 2l1 2-4 4-7 5h-2l-2-2-2-1-2 2-2 2h1l6 3 5 1h4l5-1 1 1 6 2 6 3 2 1 3-1 2-2 1 2 3 5 3 5 2 1h2v6l-3 1-3 1v-1l1-3 1-3-1-1-2 1-12 6 4-5q8-11-6-2-10 7-10 4l1-2 3-4 2-4h-1l-2 1-13 8h-3v-1l2-3v-3h-4l-3 1-2-1-1-1 1-2v-2h-2l-4-3-2-3v-8h-5v-2l-3-3q-3-1-4-3l-1-2 1-1v-3l1-3h1v4h5l8-1 14 2 5 1h4l2-4 1-4-3-1-3-2-3 3q-10 5-2-3l3-5q-1-2-3-1l-1 1-4-1h-3v5l-3 3-4 3-2 1v-1q-1-2 1-3l1-5-9 6q-3 2-4 0l-1-2-3 2-3 1h-2v-2l1-5 1-3-1-1-4 2-2 2-2-1-1-3-2-2-1-1v-19l-3-3-2-3v-3l-2-6-2-2v-3q0-5-6-11l-3-4c1-1-2-6-3-6q-6 1-8 5l3 5q6 6 2 5-9-2-1 6l4 6v2h-2l-3-1-3-2c-4 0-4 0-4-15l-1-23-1-5-2-3 2-1 1-1-2-2-3-2-1 1-5-1-3-1q-1 2 5 6l2 2v5l-2 1-2 2 3 4q5 8 0 5l-2-1-2 1-2 1 4 4 5 5v2c0 4-7 3-12-3l-3-3-1-6-1-17-1-19-1-3 1-1 2-3v-2l-3-1-5-1-2-1-1 1v3h2l1 2h-3l-4 3v1l1 1 4 3 3 3-1 3-2 4 2 1q3 3 0 6l-1 2 1 3 2 5-1 1h-9l-1-2-1-14a66 66 0 0 0-6-24l-1-2v-1h12l-1-2-2-1zm-14 38 5 3 3 5q-3 3-7-1l-2-1-1 2-1 3h-5v-2l-2-3h-1l-2 3q-3 6-4 0-1-5-3 0c-1 4-6 7-6 3q1-6-6-1l-5 4-2-1h-2v-5h2l1-1v-2l-2-3v-2h20l6-1 7-2h3zm77 42q4 6 0 8-4 0-4-7 1-9 4-1m-13 26-2 3-2 1-2-1-2-1-3 1-2 1-2-2q-7-3 10-4h5zm109 99 6 1 5 3 1 1-1 1-3 1-4 2q-5 2-6-1 1-3-4-1-4 2-3-1v-1l-3-1q-5-1-6-5v-2l8 1zm-18 11-1 4h2l3-1v1c0 3-9 12-10 10v-7l1-6 1-6 1-2 2 2 1 2zm27 7 2 1h6l1 1v1q-1 2-4 3l-2 1-1-1-1-2-3 1h-2v-3h-2l-3 1-2-2-2-3v-1l6 1h5zm-15 5 2 3-2 1-2 1-2-1v-7h1zm-11 6-5 5q-2 0-2-5v-1h4zM1071 1022l-1 3v2h2l4 3 2 1v-1c0-2-6-9-7-8M1055 1026q1 4 5 5h1v3l-1 5-1 1v2h10v-2q0-4-10-14-4-4-4 0M1047 1043l1 5 1 5-1 1-3 4-2 4 1 2v2h2l6-2h5l1 1 1 2-1 2-3 3-2 2v1h2l6-2h3v3l1 2 1 1h2l1-2v-1l-1-2-2-4c0-2-4-11-7-14l-4-6q-7-9-8-7M1066 1046q-4 5 1 3l4-1h2v-2q-2-3-7 0M1073 1053l-1 4v1h5l1-2-1-2-2-2-1-2zM599 1067l2 3q5 4 0 8-4 4 1 6l3 1 1-2v-4h2q3 0 3-5l-1-1-2 2-3 1-1-1 1-4v-4l-2-1q-4-2-4 1M1043 1077v11h3l3 1 1 2v2l-1 3 3 1q5 2 2 5l-1 2q3 3 7-1l1-2-1-2-2-3-2-6-3-6c-1-4-7-12-9-12h-1z"/><path d="M207 1079q-3 2 2 2l3 1v5l3 2 2 4 1 1 4 2 6 6 4 6v1l-1-1q-3-3-4 2-2 5-3-3l-1-4-3 1h-4v-10h-2l-2 2-1 4v1l-1-1-1-5q-1-6-3-2l-2 1v-2l-3-3-4-2-2-2-3 1-5 1q-3 1-1 4l1 1h-6l-6-1-2 3-1 2h-6l-3 3-6 4-2 2-4 5q-5 4-7 9l-2 4-3 2-3 1v9l-2 4-3 4v2l1 2 2 1h3l6-5 6-5 4-5 3-4q0-1 3-2l3-3q0-3 7-4l4-1v-1q-2-4 7-4h5l1-1v-1l3 1 16 1h12l2 1 2 2h4l9 2 5 1 6 2 4 2 1-1 2-1 2 1 3 1v1h2l2-1v2l1 2 4 1h4l1 2 2 1 2 1 2 2c3 0 19 11 26 18l8 7v8l1 8h-1l-5-2-3-1-1 1-1 1 2 2 1 2h-2l-10-3h-4l-5-5-8-6-8-3-10-3-5-1-8 1-9 1-5 2-3 1v6l-2-1h-5l-2 3q-7 4 12 3h13l1 2-1 3-1 1h-3l-3-1v2q-2 5-5 0l-4-3h-2l1 2v2h-1l-4-3-4-3-1 1h-1v3l1 2h-1l-2-1-3-3-2-3-2 2-2 2v-1l-4-1h-2l-1 2-2 1-5 2-2 2v2l1 3h7l1 2 1 3q3 5-3 0l-6-3h-1v3l1 3-7-4h-3l1 2 2 2-2 1-2 1v6h8l8-1v5l1 4-1 1-1 2-1-2-2-4-1-2-2-1h-3l-1 1-4 2h-2v3q0 6-5 2l-4-3v4l2 2-1 1-2 1q-4 0 2 2l3 1 2 3 2 5q-1 2-4-1l-3-2h-2l-1 3v2h-2l-2-1-3-1h-2v1l1 2 2 1-2 2-1 2 3 1h8l1-1 1 1 1 1-1 2q-1 4-6 1l-2-1-1 1-1 1 1 2q4 5-1 1l-2-2h-3l-3 1-1 2v2l-3-1h-2l-1 1v2l-3-1h-3v1l1 2 2-1h3v5l1 3 4-1 6-1 8-2h7v1l-4 1-3 1-4 1h-2l-1 3q1 6-5 1-7-2-7 2v2l-3-1-4-2q-5-3-4 4 1 4 4 0l1-1v5l-2 1-2 2-1-2-1-2-2 2-3 3 2 3 2 4 1 3v3l-1-3q-4-5-4 6l1 3 3-1 7-1q5-2 1 3l-3 4-3 4-4 5-1 2q-3 3 0 5h1l2-2 4-2 2-2 1-2 2 1h3l3-2 3-4 1-9 2-6 3-4 5-5h1v3l1 4 1 1v-4l2-4 1-1v-8l4-4 3-5 2-1h1v10l3-3 2-3-1-5v-5l1-3 5-6 3-3 2 1 1 1v-6l4-5q8-11 3 1l-3 9-3 5-2 2-1-1h-2v4l1-1q3-3 3 3l-1 3-1 2 1 3 1-1 4-5 15-17q3-5 8-7c4-3 10-9 10-11l1-1 1-1-3-1-1 1v-1l1-1 4-1q7 0 7-3h-17l1 2 1 5v3l-4 1h-8l-1-3v-2l3-4 7-8 16-19q5-4 5-6l2-3 7-2q12-6 22-6h5l3 2 3 1-1 4-2 6-1 3-2 2h-2l1 3 1 3 12-6c4-4 18-10 21-10h3v3h-2q-3 0-2 3l1 1-1 1-1 1-2-1-4-1h-2l2 3q4 5-7 5-12-1-8 3 3 4-2 3l-3 1-2 2-1 2 2 1 3 1v4h-13v4h3l3 1-1 2v3l3-1 6-7c0-1 17-14 23-17l3-2h1q4 2 0 6-3 3 0 3 4 2-2 3l-4 1-2 3-2 4-3 1-3 1-1 2v2l-3 1-4 1h-1l1 2v3l-3 1q-7 3-3 5l2 1-2 1-4 1h-2l-1 2-1 2-3-1q-4-2-3 2 0 5 3 2 4-4 5 1l1 3 4-3 4-5c0-3 22-22 26-22h1v3l-2 6-2 2 2 2q5 4-3 5l-5 1-1 1 1 2 2 2-2 1-5 2q-6 0-3 5l1 2-1 1-4 2c-6 1-10 6-5 6q5 1 0 2l-3 3-1 3h2l1 2v2h-7v3h2l4 1v1l3-2 2-3 2-3 5-8c5-6 14-16 16-16l2 8-1 4-3 1q-5 3 1 5l3 1-1 1-5 3q-8 3-2 4 6 3-7 7-5 0-1 4l1 2-3 1-4 2v2l2 3 1 2-2 1-3 1-2 2q-6 2 0 3l4 1 1 1 8-10c0-2 9-13 11-14l2-2 1 1q1 4-1 5-2 0 1 4l2 1-4 1-3 1v3l1 4-4 1q-8 1-3 5 5 3-1 4t-3 4l1 2v2h-2l-3 1v2l2 2h1l-1 2-1 2 2 2 1 2 1-2 4-5 2-4 2-4 1-5c0-2 7-9 8-9l-1 4-1 3 1 2 2 2-3 2-3 3h1q3 3-3 4l-4 1v3l1 4-2 1-1 2 1 6 3 9 2 4h4l1 2 4 4 2 2 3 1h2l2 3 3 5 1 1h1l3-5 1-3 3-1 2-1v-2l-1-3c-3-2-2-8 3-9l2-1v-3l1-3 1-4 3-6 4-8 1-3v-2l-1-2 1 1h2l3-3 2-2v-5l-1-4 2-1q2-3-1-7l-2-2 1-4 1-3 2-1 3-1h1l-1-2-2-3v-16l-2-5-3-5h3q5-2-1-4l-3-2 1-1 1-1-2-4-1-5h-2q-3-1-1-2l2-1-2-2-2-2-6 1-5 1-3-1q-4-3 0-5 3-1 4-3 2-4 3 0c0 1 4 6 6 6l2-3v-3l-2-3-2-3 1-2v-3l-1-1-1-4v-3l-7-1-7-1v-1q2-3 9-4l4-1 2-1-3-2-2-1 1-3v-2l-5-2q-7-3-4-5l2-1 2 1q4 3 2-4v-4h-3q-5 0-1-3l2-2v-1l-1-1h-10l-1-1-1-2-2 1h-3l-1-3-2-8q0-6-6-19l-3-5-5-5-6-6-8-3-2-1v1l1 2 2 4 1 4 1 2v2l-4 2-3 2v-8l1-9h-3l-3 2q-2 4-2-6 0-9-2-6-3 3-3-2v-4l-2-1h-1l-1 1-2 3q-3 2-1 4l5 8 3 6-1 3-2 3h-4v-6q-1-10-6-3l-3 4v-3l1-6q4-13-4-6l-3 4v-3l2-10-1-2-2 1-4 3-1 2 1-5v-4l-1-1-2-1-2 2-2 1-2-2q-3-3-1-6l1-2-1-1-7 2 2 2h2l-1 2v2l4 5 4 7 5 5 4 5 2 6 2 4-1 1-1 1-2-2-3-2-1-2v-2h-6v-2l-1-5-2-3v1l-3 2h-1v-5l1-5-1-3-1-2-1 1-4 2h-2v-8l-2-1-2-2 1-1 1-1v-2l-5 1h-4l-2 2-2 3-1-2q-2-3 1-4l2-1-1-1zm-6 20c5 3 10 9 7 9l-12-10q0-2 5 1m101 32 2 5-1 1-2-1-3-2 1-3q-1-7 3 0m33 42 3 3v1h-7c-8-1-7-1-6-4v-3l4 1zm-42 8 2 3-1 1-3 1-2 1q-3 3-4 1l2-1 1-1v-3l-1-2 2-1 2-1q0-3 2 2m35 1q3 1 5 3l6 5q9 7-3 4l-6-1-1-3v-3l-3-1-3-1v-2q0-5 5-1m-105 5 2 2v2l-4 2-3 1-1-1-4-2-3-2h-1l-2 1 1 2v3h-1l-5-6c1-2 18-4 21-2m108 14 16 17v2l-3 1h-7l-3-1-2-2-2-3-3-1-5-2-1-1 3-1 3-2-4-4v-5q0-4 8 2m-116 2 1 1-1 1-1 1-2-1q-4-1-4 2v1h-2l-3 2-1 2-2-3-3-4-1-2 2-1 2-1h7l7 1zm-16 18q6 1-3 2h-4v3l-2-1-3-2h-2v4q1 6-5 0-7-3-1-5 9-3 20-1m129 2a117 117 0 0 1 28 32v1l-2-1-6-1h-5l-2-2-2-2 1-1 2-2h-1l-6-2-6-1-1-2 1-1 1-2-1-1-4-2q-5 1-4-8-1-11 7-5m-140 15-2 2-2 2-1-1-4-1h-2l-1 3-1 3-2-2v-6zm138 9 2 2c4 0 24 19 26 25q5 6-7 5h-8l-1-2 1-3 1-2-1-1-5-1-4 1-2-1-2-1 1-1q3-3-2-5h-3l2-2q5-3 0-5l-3-2v-3q0-8 5-3m5 31q6 2 17 13 5 5 8 2 2-2 3 1l-2 1q-4 2 0 5l2 5 1 3-2 1-3 3q-2 4-5 2l-1-1 1-3 2-3h-2l-5-1-4-1 1-1 4-1 4-2v-1h-2l-3-1-1-2h-6l-7-1-1-1 1-1q1-4-5-4h-2l1-1q4-4-1-6l-3-2v-5h3zm-189 2h4v4h-2l-5-2h-3v-2zm218 2 2 2v2l-1 1h-6q-8 0-3-3 5-5 8-2m-27 24 12 10 4 5-7-1-9-1h-1v-3l1-3-2-1h-2l1-2v-2l-3-3q-5-5-2-5zm4 29q4 4 1 5h-2l2 3 1 3-1 1q-3 3-6-4l-1-3 1-4v-3l-2-1q-3-1-3-5v-3l4 4zm-13 6v7l-3-1-4-2-1-1v-2l1 1q3-1 2-3l-1-5v-4l2-2 1-1 1 6zM621 1083l-3 1q-6 2-7 6 0 1-3 2c-4 2-7 7-3 6h3l2 1h1v-3l-1-3h2l4 1h2l-1-3v-4h1l4-2 3-3h-2zM1037 1099l1 4h1v3l-1 6-1 2 3-1h2v5q-3 2 3 3h4v-4l-1-4-1-3c-1-4-7-14-9-14h-1zM1031 1117c0 4 2 12 4 14l1 2-1 2-1 2 2 1 3 1 1 2v2l-2 1-5 2q-6 4-5-4v-4h-1l-2 2-1 3-2 5-2 8q-2 3 1 4l4-3 7-5 7-5q2-4 6-4l4-2v-4h-4l-2-3-3-7-1-4-2-3q-1-5-5-6h-1zM961 1116l-2 2v2l2 1q5 0 5-3t-5-2"/><path d="m178 1122 3 3q6 4 0 4l-3 2q0 2 11 2h6l1-1v-1l-4-4c-6-5-14-9-14-5M202 1123l6 7 4 5h8v-4l-3-2-4-2-10-6h-2zM478 1123l3 3 3 2 1-2q4-3 1-3h-5q-4-3-3 0M1046 1124l-1 2-1 2h3q3-2 1 2l-2 4v2h2l8-6-2-2h-3v-5l-2-1h-2zM224 1125l3 4 2 5-2 1-3 1 1 1 9 3q6 4 8 3h1l-1-2c-1-5-18-19-18-16M241 1128l5 7c3 3 5 9 2 9h-1l1 1 2 1 5 2 3 2 1-1 1-1-2-3-3-5c-2-4-14-15-14-12M264 1137l1 1c1 1 7 11 9 17l4 4c7 4 1-7-9-18l-3-4-1-1zM1199 1147v4l1 2 3 1 3 1 2-1 1-1v-3l-1-3-4-1h-4zM290 1156l2 3h1v5h2l-1-6q-3-6-4-2M260 1190l-1 3v1l4 1 5 1 2 1 3-1 2-2c-1-3-12-6-15-4M247 1201l-6 2-1 1h5l1 2v4l-1 2h1l9-5 5-3q6-4-13-3M270 1222l-2 3-2 2v6l3 2q5 4 2-2v-10l1-3h-1zM572 1231l-1 3v3l2 1 3-1 1-1v-6h-2zM143 1240v3l-1 4-1 1 2-1q6-1 3-7-1-4-3 0M836 1251l-3 1-2-1-1 1 1 4 1 3-1 3h-7v2l2 4 1 3 1 2c1 0 6-5 6-7l1-3 1-2 2-5 1-4v-2h-1zM817 1255q-6 1-2 6l2 2 1-1c2 0 5-5 5-7zM801 1259c-1 1 2 6 3 6l2-5v-2h-2zM783 1265q-5 1-1 4l2 2 1-1 2-2v-2l-1-2zM798 1268q-5 1-1 4 3 4 4-1 3-4 0-4zM807 1268c-1 1 4 4 5 3l2-2v-2h-3zM799 1277l3 3 3 1h1l2-3v-2h-9zM783 1287l1 3 2 2h2q5-2-1-5zM274 1290l-1 2 1 2 2 3v3h5v-1l-1-3v-2q0-9-6-4M920 1302l-4 3q-3 2-4 5l-4 4-1 2-2-1-1-1v-13l-1 3-1 7v3l-3 1-3 1 4 2q7 3 8 1l4-3 6-4 3-4 1-1 1 1 17 21 1 1v7l-3-1-7 1h-3v2l1 3 1 1-1 3-2 4-1-2-1-2-3 1-5 2-2 1h-7l-6-1v8l-4-1h-5l-1 1v2l-2-1h-2v2l-1 2 1 1 1 2-3 2-5 3-2 1 4-1h15l2-2 2-1h11q16 0 19 2 1 3-2 3l-6 2-5 2-3-2-4-2-2 1-3 2q-4 4-3 0v-2h-4c-9 0-9 0-8 4l1 3h-5l-7-1h-2l-1 2-1 3h-8l-1 2-1 3h-7l-1 1 2 3 1 2-4 2-6 2-4 2-3 2-5 5 2-1 2-2h7l1-1v-2h3l5-1 11-5 9-3 12-1c13-2 28-2 30-1q2 2-3 3h-2l-1 2q0 3-6 2l-4-1h-1v2l1 2-3 1h-2l-4-1-5-2h-2l-1 4v3h-4l-8-2q-13-5-4 5 4 3 3 4l-1-1-1-1-4-1-7-3h-5v2l2 3v2h-3l-6-1-3-1-3 2q-5 1-2 4l1 1h-9l-1 1-1 1 1 3 3 3q3 0-2 3l-4 2v-2l-1-1-3 3-3 3-2 4q-5 5-2 5v4l-2 4-2 3 1 1q3 1-2 9l-2 6 1 2 2 1-1 8-1 9q-3 3 2 5 4 1 1 7l-1 3 1 1 1 6 2 12v7l-1 1q-2 4 1 7l1 1v13l2 1 2 1-1 6v7l1 2 6-4 5-5 3-1 4 1 2-2 3-4 3-2 2-1 2 1 1 1 1-1-1-5-2-13v-9l-2-2q-4-2-4 2l-1 2h3v4l-3 1q-6 2 0 4l3 1h-3l-3 1v2l1 1 2 1h3v4l-2-1-1-1-3 2-5 1h-2l1-5 2-8 2-6c0-2 4-9 6-10l1-2 7-14 1-2 2-4 2-3 1-1 1 3v2l-2 3q-6 5 0 5l3 1-1 2q-3 3 0 5l2 2-3 2-2 2 1 1 4 1h3v-5l1-11-1-5-1-2-2-6-1-4 2-3c5-9 6-11 10-15l5-7 6-10 6-8 3-2 4-2v-4l6-7 8-9q3-1 5-5 4-8 7-9l3-3q0-5 5-5h2l1 3 1 6 1 4v6l-1 1 1 1 1 2v2l-1 2 2 2 1 3-1 2-2 2v8h-4l-3 1h10v1l1 3v2h-1l-5 3-3 3 1 1 4 2c5 0 1 4-4 6q-3 0-3 2v2l3 1 3 1h-3l-4 5-3 4-1-1-1-18v-19l-2-2-1-6q-2-9-5-12h-1v5l-2 2-4 4-1 2 4-1h4l1 1 1 2v2l-4 3q-10 5 1 5h4l1 2v2l-3 4-4 4v2h8v6l-5 2q-12 4-2 6h4v1q0 4-5 4-7 4 2 5 4 0-2 4l-3 2 2 2 3 3-1 2-3 3-3 2v2l-1 2-1 1-2 4-4 4-1 3-2-1q-2-3 1-5l2-2v-2l2-5q2-3 0-10v-2h-3l-5 1-1 2 1 1 2 3v2l-2 1q-6 0 0 5l3 3-1 1-2 5-1 3h-3l-4 1-1 1 1 2 1 2-2 1-3 1c-1-1 0-19 1-21v-14l-1-7 1-1 1-2-1-1-1-7v-5l-1-1-2-1v12l-1 1-4 1-3 2v1h9v4l-3 1q-7 3-1 4l3 1v4l-2 1-3 1 3 3q4 4 1 4l-4 1-2 1 2 2q6 4 3 5-4 1-2 4l1 2v3l-1 4q-1 4-5 6-2-1-3-6v-2l-3-1q-5-1-6 1l2 2q3 2-1 3l-2 1 2 3q3 5-1 5h-1v1l3 2 5 1 2 1 2-1 2-4 5-5 5-3 1 2 1 1 4-4 4-5 3-1 2 1 3-3 4-5 1-2 2 1 2 2 1-2 4-6 3-4 4-1 3-1 2-5 2-5 4-2 3-2v-1l2-3 3-4 1-3h5l3-5 4-9 3-4c2 0 6-7 9-13l4-7 1-3 5-16 1-6 2-6 1-3v-3l-1-3h1q4 1 5-7l1-5 1-1 1 2q6 6 27 8l10 3 4 1 14 7 4 1c5 2 17 11 17 14l2 4 2 3h4l1-2-1-3-2-4-3-3-2-4-1-3-2-3v-1h2l7 2 6 3 2 1v8l1 7 1 1 1 2 2 4 1 1v3l1 4 1 4 1 3h-1l-1-2-2-3-2-1v-5l-2-1-3-1 1-2v-1l-1-1-3 1-1 1 1 1q2 2 1 3v2l2 2 4 2h1v2l2 3 1 3 2 4 3 3h2l2 1c0 2 8 10 9 10l5 3 4 4 2 3 1 4 2 1 1-1 1-1 6 6 5 6h5l2 3 2 4h2q5 0 9 5l6 3 4 1 1 3q0 5 5 5h2l2 3q4 7 7 7h3l3 3 4 4h2l4 5 6 8c2 2 7 8 7 10l2 1 2 2 1 3 1 3 2 2 3 2v3l2 7 1 4h2q4 0 4-5l2-5 1-2v-8l-1-7 3-1 2-2 1-3-1-4-1-2 2-1 1-1 1-12 1-16c1-6 0-23-1-24v-7l1-2-1-2-2-5-2-5-2-4-1-1 1-2v-2l-2-4-2-5 1-1v-2l-1-1-3-4-3-3-3-1v-3l1-4q2-3-1-3l-4-2-2-2 1-3v-4h-2l-2-2-2-1h-2l1 2 1 3q2 2 3 10v1-2h-3l-4 1-1-2-2-1-3 1-5 2h-1v-2q0-4-7-1l-4 2-1-1-1-2-1 2-3 2-1 1v2l3-1h2l-2 2-2 3-2-1q-5-3-2-3h1v-3l-1-3h-4l-3 3-2 2-1-1q-3-4-8 0l-1 1-1-1-1-1h3v-2q1-4-5 2l-4 5-3 2-2 1-1-1-1-1 1-4c2-7-2-10-4-5q-3 6-7 1l-3-2-1-1q3-4 11-5l6-1 26-3 31 3h4l-4-3-8-2-4-1-1-1 2-5q0-7 6-4l6 2h2v1l2 3 2 4q0 3 3-1l1-3-1-1-1-1 1-2 1-2-4-2-5-2v-3l-1-3h-2l-6-2-3-1v-5l-3-1-4-2c-2 1-8-3-9-5l-1-2-3 1h-3l-2-2-1-2h-7v-2l-1-3h-1l-4 1-1 1 1 3v2h-1l-5 3-2 2 1 2 1 2 1-1 3-2 4-2 3-2h6l-3 1-2 2v2h4l2-1 1-2 1 1 3 3q9 3 13 7l5 2h2l1 2 2 3 1 2-6 7-7 7-1-2v-4l2-5 1-4h-4l1 2v2l-2 1-3 4q-6 9-7 0v-3h-1l-5 4-5 4h-1v-2l1-4 1-1-1-1-1-1-4 3-4 4-3 3-2 1-2-2v-6l1-2v-1l-3 2-3 4-2 2-3 4q0 4-4 2l-2-1v-4q-2-8-8 1-3 4-4-2 1-6-5-4l-2 2-3-2q-3 0-3-2c0-1 11-5 18-5l7-2 2-1h36q6 0 4-4 0-4-5 0l-5 1h-1l-1-3v-3l-5 3q-10 7-5-2 5-7-6 0l-7 4h-1l1-4v-4h-2l-5 2q-7 7-11 7l-3 1v-1l1-4q3-5-2-3l-5 3-5 4q-4 5-4 0-2-5-4-1c0 1-4 2-4 0-1-2-6-1-7 1l-2 2h-11l2-3 3-2 5-3 7-3 9-2 10-2 10-1 4-1 2-2 1-2 3 2 2 2 3-1 3-1v-2l1-2 1-2 2-2 2-1v-2l-2 1-2 1-5 3-5 2-1-1-1-2q0-3-7 2-6 6-5 0t-6 0-6 1v-3h-2l-4 2q-7 5-12 3h-3l-2 2-3 3-1-2-2-2-1 2q-2 4-6 0l-1-1h-1l-1 2-4 4q-7 4-1 5l3 1v2l2 5q7 11-3 5l-7-4-3-2-2-1-5-2q-3-3-19-4l-20-6h-3l-1-3q-3-5-4 1 0 3-2 3h-1v2l1 2h-1l-4-2-1-3v-3l1-2-2-3-2-6-2-5-1-6-2-6-4-6-3-6-1-2q0-4-7-5-6-2-7-6l-1-5-4-8c-3-6-12-15-17-19q-6-3-5 0m46 69 1 2-1 2-1 1 1 2v6l1 1q4 1-1 5l-2 2 2 1 3 1-1 2q-3 3 0 6l1 1-3 2-2 2-1-1-1-5-1-6-2-7-1-4h-3l-1 3-2 4-1 1 2 1 3 1v2l-3 3-4 4v2h5l4-1v4l-4 2-4 2 1 1 4 2h3v4h-2q-5 3 0 5h2v2q0 5-5 6l-2 1 2 2q3 1 3 2l1 2h-2l-1 2q-2 3-5 4l-1-11-2-13-2-8q-2-10-6-13c-2-2-1-4 12-17 15-15 14-15 16-12m-67 47q1 2-1 3l-2 1-4 3h-3l-2-1-2-1-1 1-1 1 1 2q4 6-2 6l-3 1-5-3q-5-3-9-4h-4v1l1 1 3 4 2 4-1 1q0 3-6 1c-4-3-15-5-16-5q-3 2 3 6l5 5v1h-4l-18-4-2-1v-3q2-5 4-4l5-2 28-12 5-1c8-3 27-3 29-1m69 3v4l-1 1-1 1v-3l-1-4q-1-4 1-4zm127 4 2 2v10l1 2-1 2-1 3 2 2 1 2 1 6v6l2 1 1 1v3l-1 3-1-2-4-6q-3-2-3-5l-2-4-2-2 2-2 2-2v-2l-3-2-4-1-1-3-1-3 1-2q4-2-1-3-3-2-1-6v-1h4l4 1zm9 6 3 2 1 1 1 11v11l1 2 2 5 1 10q4 10-3 3l-3-2v-4l1-3-2-3-1-5q1-2-1-5l-1-3v-3l1-4-2-2-2-3v-7q-2-5 4-1m12 9 2 1 15 11 1 1 4 3 3 2v24h-1l-1-2v-3l-3-2-3-2-1-1 2-2 1-3h-1l-1 1v1l-1-1-2-1 1-3v-4l-3-3-4-4q-5-2-6-6v-2l-2-1-3-1v-2q0-4 3-1m-234 5q2 1-4 2l-4 1-1 4-2 4-4-1-6 1-1 1 2 2 2 3c0 2-6 1-9-1l-6-1h-4q-5-2 1 4l3 3-2 2h-10l-6-1-1 1-1 1 3 1 2 1-2 1-3-1-1-1 1-4 1-4 8-5 9-5 4-1 2-2 5-1c8-4 20-6 24-4m-47 3 6 3h1l-1 1-1 1-7-1h-8v-2q0-8 10-2m118-1 2 2-1 4c-1 6-4 13-5 12-2-1-1-19 1-19zm237 4 10 2 5 1 1 1 3 2 1 2v1l-2-1q-4 0 0 2l1 2-2 1-2 2v-1l-3-4q-5-3-6 0l-3 4-3 2h-3l-2-1 1 3v2l-3 3q-5 5-7 2c-1-1 4-6 6-6h2l-3-1-2-3q-2-5-4 1l-2 4h-1l-3 2-1 1-3-2-2-3 1-3 2-2-1-1-1-1-2 1q-4 4-8-1l-5-5q-5-4 0-4l5-1q1-3 22-2h11zm12 19v3l-2 1h-5l1-2 6-6zm-47 1 8 7 4 2v5l-1 5-2 3-3 2v-1l1-1 1-1-1-2-3-3-5-2-3-2q-4-1 1-2l2-1v-4l-3-2-3-2-1-2v-3h1zm-296 3v3l-1 2-4-1-5-1-2 1 3 4 2 3-3 1-7-1q-13-3-4 5 7 6-2 2l-6-2-4-1-3-2 4-2 7-6 3-3 4 1h4l1-1 3-2 3-1 4-1h2zm345 6h8l4 4 4 4v3l-1 2-3 2q-7 2-2-4l1-1v-1l-1-1-4 2q-5 2-7 5l-4 2h-1v-9l-4 2-4 2v3q0 5-5 5l-1-1v-2l1-6q2-5-1-3l-4 1-2 1-2-3-1-4 1-1q1-3 14-2zm-26 15 4 5 3 4-1 2-1 4-2 4c-1 0-4-6-3-7q-1-3-5-5l-2-2-1-1 3-3q5-4 5-1m-325 1q0 2-3 2-3 1-5 3l-1 2h-4q-6 1-2 4 4 2 1 5l-5-1-6-2h-3l5-3 8-5 4-3 5-2zm356 11 6 1q5 0 0 3l-2 3v1l-1-1-2-1-5 3q-7 4-4 0 3-8-2-5l-3 2-2 1-1-2-3-3-1-1 1-2 1-2h8zM803 1306c-3 3 7 7 11 5l2-1-1-1-5-2-5-2z"/><path d="M890 1310q0 3-2 3l1 2 2 1-2 3-1 3 1 1 2 4v2l-5 3q-10 4-2 4h5l1-2 2-4 1-3 1-2-1-8-1-8-1-1zM696 1326l-4 1-5 3-2 2 1 1h2l2-1 2-2h3l5-1 2-1-2-1q-3-3-4-1M759 1342l-1 3v2h1q4-1 5-4v-2h-2zM745 1367q-5 4 1 5l3 4 1 1 3-2 2-3v-1h-3l-3 1v-6q0-4-4 1M1115 1370q-3 2 2 2l6 1 2 1 5-1q9-2 5 2-3 3 4 3h3v-1l-1-2-2-3v-2h-24M577 1387l-2 2h1q7 3 7-3c0-2-5-1-6 1M1169 1401l-3 1h-1v6h4l2-3 2-3 1-2q-2-2-5 0M899 1449v3l-4 3-4 3h4l3-1 1 3 1 3-5 3-4 3 1 1 4 1 2-1 1 2q0 4-5 5l-3 1v3h4q6 1 6 4v1h-2q-6 1-5 2l4 3 4 2 1-1c2-1 2-14 1-23l-2-13q0-10-2-9zM265 1458q-4 4 0 4l1 3 5 7 4 7 1 1c2 0 13 24 13 28l-2 1h-2v-2l-1-2h-2l-3 1 1-5v-5h-2l-4 2-1 2h-8l2-4 2-3h-2c-6 2-5-3 1-6l3-2-1-1v-1h-5l-5 1-1 4-1 3v-1l-1-8q0-12-3-7v2h-4l-1-2v-10l-1-2-1-2-2 3-2 4-1-3-1-4-1-2h-4v2l3 6 3 5 3 5 3 4 3 5c2 3 5 10 5 13v2l-5-4-4-4v-3l-1-3h-1v8h-3q-8-1-4-7 1-3-1-4l-1 1-1 3h-1v-2l-1-7v-4l-2-1-2-3v-2l-2-1-2-1c0-2-7-8-9-8v3l8 12 3 5 3 3v3l-1 6v2l-2-2-1-2v-2h-4l-1-4-5-8-4-7-1-2h-4v2l1 3v2h1l3 2 2 6 2 4-1 1-2 1-2-1v-5l-1 2q-1 3-4 1l-1-2 1-3q2-4-2-4h-2v-9l-1 1-1 3q0 5-4 0-8-5-3 3l6 9v1h-8v1q0 2 3 2l2 1-1 2-1 1h-3l-3-1-1 2-2 3h1l2 3q1 4 3 0l1-2h2l3-1 5-2 4-2 5 2q7 3 1 3l-2-1-1 2-2 1-4-1h-3v1q2 6 12 3l5-3 3-1 2 1 5 2h3l2 3 1 2h3l4-1 6 2 8 2h2l1 2 1 2-1 1-1 1-4-1q-6-2-3 1 2 3-5 3h-4l-1-1-2-2h-1v6h-3l-5-1q-4-3-4 2v2l-4 1-4 1v-2h-4v3h2q4 1 6 8 2 6 4 3 5-3 6 8v4h7l6 1 1-2v-1h-5v-5h2l5-1 2-1 1-1h13l3-2 5-2 4-1 3-2 7-2 7-3c3 0 20 9 21 11v1h-5l-5-1v4l-3 1-3 1-3-3-5-3h-1v8h-1l-2-2v-2l-4-1-5-2h-2l1 3v3l-2 1h-2l-3-2q-6-4-7 0l-1 1h-4l-5-2h-2v3l3 1h11v3l-2-1h-3v2l-1 2-2-1-2-2-1 2-2 3h5l5 1 1 3 1 3h5v-2l-1-3 5-1 5-1 6-1 7-1 6-3 10-3 7-3 3-2 1-2 4 1 4 1 8 4q11 8 4 8l-2 1-2-1-2-1-2 2-2 2-3-2-4-2-1-1-1-1h-1l1 1v7l-5-2-4-1-1 1-2 1 2 1 1 1v1l-1 1-1-2v-1h-7l-1 2-3 1-1 2-1 2 2 1 7 1h5l4-1 8-1 8-2 8-4 5-2v-4l1 1 4 1h3l1 2 2 1q2 1 3 4h-6v2q1 4-6 1l-6-1-1 1 1 3v2h-1q-4 1 0 4l2 1 6-2q12-4 14-8 4-3 9 5l1 2h4l1-3 1-3-1-2-1-1 3-5 2-5v-3l-1-4h1l2-3 2-3q2-1-1-6l-1-8-1-4-2-2-7-3-5-2v-5h-5l-1-4q0-4-4-6l-2-5q-1-4-3-2l1 3 2 6 1 3 1 5v4l2 2 1 2v3l-1 3-2-6-2-5h-3v4l1 4-1 2-2 1-1-1v-8l2-2 1-1-1-3v-2l-1 2-3 2h-2v-3l-1-3 1-3q4-9-2-6-3 4-2-4v-5l-1-1-2-1-2 1q-5-2 1 10l3 9 1 4 2 6 1 5c2 6 2 13-1 13h-2l-1-4-1-4h-2l-3 1q-3 2-1-3 3-12-2-8l-2 2h-1l-1-1 1-8v-7h-1l-2 2-1 1-1-1-1-17-1-11q-2-4-2 4l-1 6-1 1-1-3-3-10-1-7-1 2q-2 4-3 2l-6-4 8 17 6 12 1 3c3 3 6 18 4 23q-4 6-3-2l-2-4-3-4-1-1-2 1-3 1h-2l-3-1v-3q0-5 3-2 3 2 1-3l-2-5v-3h-1l-2 2-1 1h-5l1-2 1-9v-7l-3 3q-3 5-6-1l-1-2v-4l1-7 1-5-1-1-4 4-3 3-4-3-3-3v-4q0-5-4-2m6 56 7 4q11 5 6 7l-2 1-3-2q-4-3-3 2v2l-3 1-2 1-3-2q-5-5-6 2 0 6-7 0l-3-3h-2q-5 1-2 4l1 2v1h-4l-8-4-8-2-3-1v-1h9l3-2 5-2 4-1 4-2 3-1 4-2 2-2z"/><path d="m173 1473-3 3-1 2h3l2 2v2l4 1 5 1 2 1h2l-2-2-5-4h-2v-4l1-3h-2zM175 1489l-1 1 1 2h5q0-7-5-3M735 1491c-3 1-1 5 3 4h2v-2q0-3-5-2M224 1503l-1 4 1 1 3-1 3-1 2-1-3-2q-4-3-5 0M214 1504v3l-2 1h-2l1 2h10l2-2-1-1-5-3-4-2zM391 1538l-1 2 1 2v4c-2 0-6 5-5 6q0 3 5-4l5-5q5-2 5-5zM274 1561q-1 4 6 2 6-1 1-2l-5-2h-2zM263 1604l-1 2 1 2q3 6 1 7l-1 1v1l1 1h4q12 1 3 5l-3 1-1-2-3-1v3l2 1-1 1-2 1-3-2-7-4-4-2v2l1 2h-1l-4-1-1-2-2 2-2 1-1-1h-6l3 5 3 4v2l-1 1-3-1-6-4-4-4v-1l1-2h-2q-4-2-3 5l1 5h-2l-1 1-2-1-7-6q-12-9-4 2l3 3-1 1-1 1h-2l-3-1v-2l-1-2h-1l1 2v2h-1l-1 1-3-2q-4-4 0-8 2-4-1-5l-2 3-1 2-3 1-4 1-4 3-5 5-5 5q-5 1-2 4 2 3 5-3l3-3 4 2q-2 1 0 3l2-1 5-1 5-1 2-1 1 1 2 1 2-1 2-1v-1h16l15 1 5 1q6 3 0 5-6 3-8 1l-2-1h-1l1 2 1 4v2h-2q-2 1-8-3l-3-1v1l1 4 1 3-1 1-1 1-2-2q-15-17-11-5t-8 2l-5-5-1 1 1 2 1 4v3l-1 1h-2l-5-5-5-5h-4l2 4q6 10-3 4-7-5-6 0l-1 2h-2l-3 2-2 2h1q4 2 3-1 1-4 5-1l1 1-2 2q-4 3 7 1l12-1 7-1c3-2 15-2 19-2l2 1-2 3-5 3-3 2-2-1-3-1h-2v2c0 2-4 7-6 7l-4-2q-7-5-4 3l2 3-2 1-3 1-2-2q-4-1-4-3l-2-3h-4v2l1 3 1 1-2 1-1 1-2-1-5-3-3-1-1 1-1 1 1 2 2 1-1 2q-2 4-6 1h-5l1 2 1 1-1 1-2 3v2h2l3-2c3-2 11-5 15-5l3-2 1-1h10v2c0 2-4 7-6 7l-4 4-3 3-4-2q-7-4-4 2l2 4h-2l-4-3-5-2h-1v2l1 3-3 1-4 1v7l4 3q5 4-1 3h-2l-1 3-1 4q-2 3 1 4l7-5q10-8 9-3l-1 3-4 6-3 5 1 1 1 2-2 4-2 5 1 3v3l-2 6-2 7 3 11 6 19 1 3h32v-2l1-3 1-5 2-4 1-4 2-7q0-6 3-13l3-9c1-4 7-15 11-20l6-9 16-18 21-23 7-7 8-6c6-4 15-12 17-16l8-6 21-19 6-7 3-1q6-1 9-6l1-2-2-3-1-2-2 1-1 3q-1 3-6 5l-5-5-5-5q-2 0 0 6l2 2-2 1h-2l-4-2-4-3-2-2-4-1h-3v2l1 4q4 3-1 3h-3l-5-4-6-4h-1v2l1 3-1 1h-2l-3-3-5-6-3-3-2-1zm39 18 1 1-1 1-8 2-10 2-6 2h-2l-1 2v1l1 2 2 1v1l-1 2h-7l-1 1-4 2-4 1-7 1-6 1v-1l2-2 3-1v-2q0-4 9-6l5-1 2-1 4-3 8-5 5-2h7zm-53 7q7 2 1 5l-3 1-3-3q-6-7 5-3m-59 3v3h-1l-4 1h-2v-2l1-4 1-2h5zm96 2 2 2 2-2 1-1h1l1 3v2h-5q-8 1-8-2 0-5 6-2m-22 16 1 5 1 3 1 1 3-1 2-1 2 1h2l-4 2-5 3-2 2-3-1-4-2-2-2-3 2-4 3h-10l-10 1-3 2-4 1-1-1-1-1 4-4 5-4 1-3v-3h3l5-3 3-1 1 1 1 1 3-2 5-1h2l1 3 3 5 2 1 1-1v-4q-2-10 4-2m-17 21 3 3 2 2c3 1-2 8-6 8l-3 2-6 1-30 8-2 1-5 2-9 2-5 1v-1l2-1 2-2q0-1 3-2l2-1 1-3v-3l3-1 2-2 3 2 3 1 1-1 1-2h-1q-4-7 5-4l4 2v-5l-1-5h2l1-1 7 9 2-1-1-3v-4h2l1 1 2 2 1-1q1-3 4 2l2 4h5l-1-6q-1-7 4-4m-20 28q5 2-1 7l-3 4-5 2-6 2-5 1-4 2-3 2-4 2q-11 5-5 5l2 1 4 5 3 2v6l-2 1-2 1q0 2-3 2l-16 11 6 5 5 3-7 8-8 8-1 2-1 1-1-1-2-4v-2h2q5 0 2-5l-2-4v-1l6 1h5v-1l-2-3-2-4-1-2h-3q-3 1-1-3l1-2-1-3-2-4 1-2q2-5 5-2l4 2 3 1-1-2-2-4q-3-5 1-5l2-1 4 4q7 5 7 2l-1-2-3-4-2-5h-2l-3 2-2 2-2 1-2 1h-3l-2 3-4 2h-1l1-2 2-3v-2l2-1h3v-3l1-2 3-1 2-1v-3l-1-2 1-1 2-2 3 1q5 3 2-3-2-9 5-3l2 2h4v-2l-1-4v-2l3 2 4 2h1v-3l-1-4 1-1q2-3 7 2 6 6 5 1 0-7 9-3m-63 9v2l-2 1-5 1h-2l1 1 1 3v1h-2l-3-1-2-2q-4-1 0-3l2-2 3-1 4-1 3-1h2zm41 17v6l-2-1q-6-6-1-7h2zm-29 70v3h-2q-4 2-2-3v-3h2l2 1z"/><path d="M251 1607v2q0 3-6 3-7 1 3 3l7 1c0 2 5 1 6-1l1-1-4-4q-5-6-8-3M367 1607l-1 2-2 3q-2 3 2 4 3 1-2 5-5 1-1 5 6 4-7 7-6 1-3 4l2 4v2l-3 1q-11 2-4 6l2 1v4l-5-1h-4v1q-1 1 2 3 5 4 2 5l-6 4-3 3 2 2 2 4v2h-2l-3 1 2 3q4 7 7-3l2-5 1-4 1-5 4-6 4-9 3-5c0-1 7-11 9-11h1v2l-1 1 2 2q5 5-3 6l-3 1q0 3 4 5l2 1v1l-4 2-5 3-1 1 2 1q6 3 0 6l-8 2-3 2 1 1 3 1 3 1v3l-3 1-3 1-4 5-3 5v1l1-1 5-2 4-1v2l1 1-2 2-4 2-4 4-2 2 2 1q3 0 1 4l-1 1h1c3 0 10-8 9-10l2-5 2-5 1-3 2-5 5-12c0-1 7-9 8-8 2 0 1 5-1 7l-1 2 3 1 3 1-1 2-6 3q-6 1-2 3l2 1v4l-4 2q-6 2-2 6 3 4-4 6-4 3 0 5 3 2-2 5l-4 2-3 2-3 1v4l4-1h3v1l-1 2-2 2h-2l-3-1-2 2q-3 4 0 5l2 4 2 3 3 2 4 2v3l1 4 3 4 5 5 5 6q3 6 5 3l1-1v1l4 5 5 5 1-1 2-2 4 5 5 4 2-1 2-2 2 2q7 5 10 5h3l2 3q5 5 5 0l2-3h2l1 2 3 2 3 2 1 2 2-1 2-1 3 2q6 5 5-1v-3l5 2 9 3h7l20 3q0-3-3-5l-4-3-4-3h-1l-1-3-2-4-1-2v-3l1-4h-1l-1-3v-2h2q4-2-2-4h-4v-5h-2l-3 2-1 2-7-1-9-1h-2v-5h-3v3q2 5-6-2-6-7-7-11v-1h5l2 3q3 6 3-1 1-4 4-2l5 7q3 5 4-4v-2h3l1 4q1 6 5 3l3-1 2 2 2 1v-4l-1-2 1-2 1-2-2-3-2-3v-3l1-2-2-3q-1-6-6-1-4 4-3-1v-3h-3l-4-1-2 1-1-1-1-2h-14c-17 0-17 0-12 5l3 3 2-1q4-2 3 1 3 7 5-2 1-3 3-2v2q-3 4 5 6l5 2 1-1 3-1h6l2-1 1 1 1 5-1 2h-2l-17-1h-15c-1 0-10-13-10-15l-2-3c-2-1-14-24-14-26l-4-6-7-13-3-6-3-6-1-3-5-18-2-8q1-2-1-6l-1-7q0-11-4-8m18 73 1 4-1 2-3 1h-2v3l3 1h4l-5 3q-9 4-4 7l2 2-3 3q-6 5 0 5h2l1 2v1l-3 3-5 3h-1v2l1 1h5v4l-7 4-7 4-1-2-1-2 1-6a106 106 0 0 1 9-29l3-7 3-6c0-2 4-7 6-7h2zm10 17-1 5-2 4v1l4-1h3v1l-2 1-3 2-1 3 2 1 1 1-1 2-4 3-2 2-1 1 3 1q6 1-4 9-10 9-6 9l2-2v-1h4c6 0 6 0 9-9l4-12 2-5h2q3 0 2 3v5l-2 5-2 2 3 1 3 2-4 4q-7 7-1 5h3v1l1 2-2 2-3 2-3 2-2 2h-2l-2-1v-9h-1l-3 1-2 2-1 1c0 1-7 4-8 3h-1l1-1 1-1-1-6-1-5 1-4 2-6 3-11 3-9 1-2 3-5 2-4h1zm23 34-1 2-2 4v1h3q6 0 0 3l-3 1v1l1 1h8v4l-3 2-4 2 4 1 3 1v2l-1 3-5 3-5 2h-2v-3c-2-7-1-24 2-30l1-3 2 1zm14 16 2 3v2l-1 3 3-1h2v2l-1 3q-3 1-2 4v1l2-1 1-1 1 1 1 1-4 3q-5 6-5 0l-1-3-2-1v-9q0-16 4-7m-25 5c0 2-8 8-9 7q-3-2 2-5 7-6 7-2m48 6 1 2 2-2 2-1v2q1 7 6 9l3 1v4h-1l-7-5-8-7q-3-1-3-3l-1-1h2zM205 1614c-4 2-3 6 2 4h2v-2q0-3-4-2M150 1668q1 4 5 4 3-3-2-5-4-2-3 1"/><path d="M410 1698v6l1 3h4v-9l-2-1h-2zM448 1702c-2 1-3 6-1 7 1 1 6-7 6-9q-2-1-5 2M518 1718q0 3 4 3l2-1v-4h-5z"/></svg>