<svg xmlns="http://www.w3.org/2000/svg" viewBox="0 0 548 515" fill="#4d41a1"><path d="M451,1 C451,2 452,3 454,3 L457,2 C457,1 456,0 454,0 L451,1 Z M462,3 C462,6 465,6 466,2 L464,0 C463,0 462,1 462,3 Z M468,4 C467,8 469,9 472,7 L472,5 C471,5 470,4 471,3 L470,0 L468,4 Z M476,2 C474,3 474,4 475,5 L478,5 C479,4 480,5 479,9 L478,14 L482,8 L486,2 L476,2 Z M495,3 C495,5 490,8 487,7 C486,7 485,8 485,10 C484,11 485,13 486,13 L487,10 L487,8 C489,11 491,20 488,20 L489,23 C492,25 491,32 488,31 C485,31 483,32 482,34 C482,36 482,37 483,36 C485,34 493,39 493,42 L495,38 L498,31 C500,31 501,31 501,29 C502,28 502,28 500,28 L498,28 C498,27 498,26 500,26 L499,24 L498,17 C498,13 499,12 502,13 C504,13 505,12 505,11 L504,9 C500,10 497,9 498,7 L501,5 C502,6 504,5 504,4 C504,3 503,2 502,3 L501,2 L498,0 C496,0 495,1 495,3 Z M472,12 L472,15 L475,12 L475,9 L472,12 Z"/><path d="M482,24 L486,27 C488,27 488,26 487,24 L483,21 C481,21 481,22 482,24 Z M462,26 L470,27 L478,29 L480,31 C482,31 481,30 479,28 C477,25 460,24 462,26 Z M476,39 L475,45 C476,47 476,48 478,46 C481,45 481,45 481,48 C481,50 482,50 483,48 C484,47 484,46 485,48 L487,49 L488,52 L485,57 L485,56 C486,55 485,54 484,54 L482,55 C481,57 485,59 490,60 L491,60 C489,59 490,55 492,55 C494,55 493,67 491,68 L489,66 C489,64 487,63 484,63 C481,64 479,63 480,61 L478,59 L477,62 C477,63 476,65 474,65 L473,67 L479,68 C481,67 483,68 484,69 L486,69 C487,68 487,69 487,70 C487,71 488,72 489,71 C491,70 491,70 489,72 C487,75 487,78 489,76 L493,77 L498,77 C502,75 502,76 501,81 C500,85 500,85 498,82 C497,80 497,79 497,81 C498,83 497,83 495,81 L492,80 L491,87 L489,95 C488,96 487,96 488,93 C489,90 489,90 487,91 C483,95 479,93 479,87 L477,81 C474,79 477,75 480,77 C484,80 484,80 484,77 C484,75 482,74 478,74 L473,75 C474,75 475,77 474,78 C474,80 473,81 472,80 C471,79 469,81 467,84 C463,90 463,90 466,89 C470,88 471,91 468,93 C466,93 466,94 467,94 C469,94 473,88 471,86 L474,84 C479,83 478,88 473,93 C469,97 468,97 465,95 C463,93 462,93 462,94 C461,96 460,95 458,93 C457,91 456,91 456,92 L454,94 L453,91 L451,87 C450,86 450,87 450,89 L450,92 C449,92 448,93 448,95 C448,97 448,98 447,96 L444,95 C443,96 442,95 440,94 C438,92 438,92 438,94 C438,96 438,96 437,95 C435,91 431,92 430,97 C429,101 430,102 431,99 C432,97 434,97 435,97 C436,98 438,99 441,98 C444,98 444,98 442,100 C440,103 431,104 428,102 C426,101 426,109 428,111 C429,112 428,112 427,112 C424,112 424,112 426,114 C429,116 430,115 433,111 C437,105 439,106 443,111 C448,117 448,117 444,121 C442,123 442,124 444,123 C445,122 447,123 448,125 C449,127 449,128 447,130 C444,132 444,132 447,138 C451,144 451,144 448,147 C447,149 445,150 445,149 C444,148 443,147 442,148 C441,149 436,141 437,140 C438,139 440,141 442,142 C447,146 447,146 445,139 C443,135 442,134 441,136 L438,138 C436,138 435,131 437,129 L438,132 C438,136 438,136 440,135 C441,133 441,131 439,127 C438,121 438,121 440,118 C443,116 443,116 440,114 C437,113 436,113 434,116 C431,121 426,122 426,119 C426,116 422,118 421,121 C419,124 419,125 421,127 C422,128 423,130 422,131 C421,133 416,126 417,123 C417,122 416,122 416,124 C414,126 414,128 415,128 C417,129 417,131 416,134 C415,137 414,138 414,135 L412,132 L410,130 L411,129 L412,127 L412,125 C413,125 414,124 414,122 L412,119 L413,118 L416,117 L416,115 C414,113 415,113 417,112 C419,111 420,112 420,113 C420,115 421,116 422,116 L422,112 C420,109 421,108 422,107 C424,106 425,104 424,103 C423,101 422,101 421,104 C419,108 416,108 416,104 C416,101 415,101 413,103 C411,105 411,105 412,103 L411,101 L408,106 L404,113 C403,114 402,113 404,110 C406,106 406,104 403,106 C402,107 402,106 403,106 L402,101 C401,99 401,99 401,102 C401,104 400,106 398,106 C397,106 396,105 397,104 C398,100 394,101 391,104 C390,106 387,106 386,106 C384,105 383,105 383,107 L380,107 L379,103 L375,99 C372,96 371,96 371,101 C371,105 372,106 375,106 L379,108 C380,109 377,114 375,114 L373,118 C373,121 373,121 374,120 C376,118 381,118 382,120 C383,121 382,122 381,124 C378,127 377,130 379,130 L382,135 C384,139 383,139 381,138 C379,138 379,138 381,139 C384,142 386,142 386,138 C386,136 387,136 390,137 C392,137 394,139 395,140 L397,140 C398,138 399,138 401,140 C403,142 403,142 401,145 C398,148 397,147 393,143 L389,141 C388,141 388,143 390,145 C392,146 393,149 393,151 C393,155 393,155 395,152 C396,150 398,149 398,150 C399,151 399,150 399,149 C399,148 400,147 402,148 C404,149 404,149 402,147 C400,145 400,145 403,145 C405,145 407,147 408,149 C409,150 411,152 412,151 L416,154 C418,158 418,158 418,153 C418,151 418,149 417,150 L413,147 L410,144 L405,141 L403,138 C405,138 405,137 405,135 L399,133 C396,133 395,134 395,135 C396,137 395,137 391,135 C388,134 386,133 385,134 L386,132 C387,129 387,129 385,130 L383,129 L384,127 C387,127 390,122 389,121 L390,119 C392,119 392,121 393,125 C393,129 392,130 390,130 C388,130 388,131 390,132 C392,134 393,133 394,131 C395,130 396,129 397,130 L398,129 C398,128 397,127 395,127 C392,127 394,124 397,124 L398,122 C398,120 400,119 401,120 L405,118 C408,116 408,116 407,119 L408,121 C409,121 410,122 408,124 L408,127 C408,128 408,129 406,129 L403,127 L400,125 L400,126 C401,127 402,128 401,129 C400,130 403,131 406,130 C408,130 408,131 408,133 C407,135 408,135 409,135 C411,134 411,134 411,137 C410,140 411,142 414,143 L416,143 L417,141 L418,137 L418,134 C421,134 421,136 420,140 C418,145 419,146 423,142 L430,139 C434,138 435,139 434,144 L435,148 C436,147 438,149 441,150 C446,154 450,153 452,150 C453,148 453,149 455,151 L455,150 L456,146 C457,145 457,147 457,149 C457,155 460,157 461,153 L460,151 L459,148 L457,144 C455,143 455,142 455,141 L454,141 C452,141 451,141 451,139 L449,134 C447,133 447,132 448,131 C451,130 452,130 452,132 L453,136 L457,137 C460,136 461,136 460,140 L460,143 L461,146 C460,149 466,149 467,147 C468,145 467,145 465,146 C463,147 464,146 466,143 L468,140 C464,142 463,127 467,125 C470,123 471,124 471,129 C471,132 470,132 470,131 L468,129 L469,134 L473,140 C474,140 476,141 476,143 C477,145 477,145 478,143 C480,141 480,141 480,144 C480,148 482,148 483,144 C484,142 484,142 484,145 C484,147 482,148 480,148 L476,149 C475,150 474,149 474,148 C473,145 473,145 470,148 L466,152 L470,153 C477,156 481,159 482,162 C482,164 482,165 481,164 L480,165 C480,167 486,171 487,169 C488,166 493,169 493,174 C493,177 494,178 497,178 C499,178 501,177 500,176 L502,175 C507,175 508,174 508,170 L508,166 L511,170 C512,173 514,174 515,174 C517,174 517,174 516,172 C513,168 520,164 523,167 C525,169 525,169 526,167 L528,166 L530,163 C530,161 530,160 529,161 L528,160 L530,158 C534,158 536,165 533,167 C531,168 531,169 535,170 C538,172 540,172 540,171 L542,169 L544,171 C543,174 545,178 548,178 L547,175 L546,171 L546,166 C546,164 545,164 543,165 C540,167 540,166 540,157 L539,145 L539,140 L538,136 C537,134 536,134 535,136 C533,138 526,138 526,136 L524,134 L522,132 L517,129 C513,127 512,126 514,125 C516,123 516,123 514,123 L514,121 C516,118 515,118 513,118 C510,118 508,123 512,123 C513,123 513,124 511,126 C508,130 505,128 507,123 C510,117 505,113 494,113 C485,113 485,113 485,117 L487,124 C489,125 489,125 488,123 C487,120 488,120 490,121 C491,122 492,121 491,120 C490,118 491,117 493,118 L495,118 C493,117 493,114 496,115 L498,119 C498,121 498,121 500,120 C502,118 507,118 507,120 L504,121 C500,120 499,125 501,129 C503,130 503,131 501,130 C499,128 493,133 493,136 L491,139 C490,140 489,139 490,137 C491,133 489,133 486,137 C483,140 483,140 484,137 L483,133 C482,133 481,133 481,135 L480,138 C478,138 478,132 480,129 L484,128 C486,129 487,126 485,124 C483,123 478,129 476,134 C474,137 473,138 472,136 L472,132 C473,132 474,130 473,129 C473,128 473,127 475,127 C478,127 478,126 478,122 C478,119 479,117 481,115 C486,110 485,105 480,106 L475,108 L475,110 L478,111 C479,113 479,114 476,117 L473,123 L473,125 C472,125 471,123 471,120 C471,115 471,115 468,119 C466,122 463,123 462,121 C461,120 460,121 460,123 C458,128 457,128 455,124 C454,119 454,117 457,118 L459,118 C459,117 458,115 456,115 L453,112 L448,109 C446,109 444,107 445,106 L444,105 L443,103 L446,102 C447,103 447,103 446,102 L447,99 L449,102 L452,102 C454,98 456,99 456,103 C456,106 455,107 455,105 L451,105 L451,107 L458,108 C462,110 466,107 463,105 C461,103 464,99 468,98 L474,97 L477,97 L479,99 L481,101 C481,103 490,105 491,103 C491,102 491,101 489,101 C487,100 487,100 489,100 C491,100 492,98 492,97 C492,94 497,92 500,93 C502,94 502,95 502,97 C501,98 502,100 503,100 C505,101 505,100 504,96 C503,92 504,92 506,93 C507,93 508,93 507,92 C507,91 506,90 504,91 L502,90 L499,90 C496,91 495,91 494,89 L495,87 L496,87 C496,86 497,85 498,86 C500,87 501,85 503,80 C505,76 506,74 506,76 L506,79 C504,79 504,80 504,81 L506,82 C509,81 509,81 506,83 C503,87 503,89 506,87 L510,82 C512,76 512,74 510,77 C508,80 508,80 509,77 C509,75 509,73 507,72 C506,71 505,70 506,69 C507,69 508,67 507,66 L508,63 L512,62 C514,61 514,61 512,66 C510,71 510,73 511,74 C512,75 515,74 516,73 C519,71 519,71 515,68 C513,66 513,65 514,65 L516,62 C516,60 516,59 517,60 C518,61 519,60 519,59 C519,58 517,57 516,58 C514,59 513,59 513,57 L511,56 L510,56 C510,55 509,53 507,53 C505,52 505,53 506,57 L506,59 L504,57 L504,69 C502,75 499,75 499,68 C499,65 499,63 498,64 L497,69 L496,74 C493,74 494,62 496,61 L498,57 C498,55 497,54 496,55 L495,53 C495,50 494,50 493,52 C491,54 490,53 490,51 L488,42 C485,37 479,35 476,39 Z M480,43 C478,46 476,44 478,41 L480,40 L480,43 Z M487,45 L485,45 L483,41 C483,39 483,39 485,42 L487,45 Z M398,114 C398,118 395,124 395,120 C395,118 392,118 388,118 C381,118 377,117 377,116 L384,110 L385,113 C384,116 385,117 389,114 L393,114 C394,115 395,115 396,113 C398,111 397,111 393,111 C390,112 387,111 387,110 L389,108 L393,106 C394,102 399,109 398,114 Z M452,115 C452,116 452,118 450,118 C448,119 447,117 448,113 C449,111 451,113 452,115 Z M437,119 C437,121 435,123 434,123 L435,125 C436,126 437,127 435,127 L434,132 C435,136 435,136 433,134 C433,132 431,131 430,132 L430,130 L428,131 L426,137 L424,137 L424,132 C426,128 426,127 424,127 C423,128 422,126 422,124 C421,121 421,121 424,123 C428,128 433,128 432,124 L434,121 L435,120 L435,116 C438,113 438,113 437,119 Z M454,126 L451,128 C449,126 450,123 452,123 C454,123 454,124 454,126 Z M463,126 L462,135 L462,137 C461,134 459,133 457,134 C454,134 453,134 454,132 C454,130 456,129 457,129 C458,130 462,126 461,125 L463,124 L463,126 Z M519,134 C520,132 520,132 520,134 L518,140 C516,141 515,141 513,139 L510,136 L510,137 C511,138 510,140 509,141 C504,147 502,150 502,152 L503,152 C504,151 506,152 508,153 C513,157 515,156 515,149 C515,145 515,143 517,143 L519,146 L520,149 L521,143 C520,137 523,134 526,138 C528,141 528,142 526,146 C523,150 523,151 525,151 C527,151 528,150 527,149 C526,144 531,145 533,151 L535,156 L532,155 C528,154 528,155 526,159 C525,162 524,163 522,163 C521,162 518,163 515,166 C512,171 511,171 511,168 L513,162 C514,159 514,159 514,162 C513,164 513,165 515,165 C518,163 517,159 512,158 C509,156 508,157 510,159 C511,162 512,162 510,161 L508,161 L507,163 C506,163 505,162 506,161 C506,159 506,157 504,157 L500,153 C497,150 494,150 495,152 C496,153 494,153 492,153 C490,152 489,151 490,150 C492,150 492,148 491,148 L488,148 C487,150 486,150 486,147 C486,145 487,144 489,145 C491,145 492,145 492,143 C492,142 493,141 494,142 C495,143 496,142 495,140 C494,137 497,132 500,134 L502,138 C502,140 502,140 501,138 C500,136 499,136 498,138 L499,141 L500,144 L500,147 C502,147 508,138 508,135 C508,133 509,133 510,133 C511,134 511,132 511,130 C511,126 511,126 515,131 C517,134 519,135 519,134 Z M507,132 L505,136 C504,138 504,138 504,134 L505,130 L507,132 Z M535,143 C535,147 535,147 533,145 C530,142 530,141 532,140 C535,137 535,137 535,143 Z M513,145 L513,150 L510,148 C508,145 508,145 510,143 C513,141 514,141 513,145 Z M484,151 L481,154 C479,156 478,156 478,153 L481,151 L484,151 Z M499,157 C503,158 504,159 503,164 L502,171 L498,174 L495,175 C496,174 495,172 494,169 L492,162 C493,159 492,158 490,159 L486,163 C485,166 484,166 485,162 C487,156 490,155 499,157 Z"/><path d="M476,72 L472,73 L476,73 L480,72 L481,70 L476,72 Z M485,82 L485,85 L482,90 C479,92 479,93 483,91 C486,89 487,87 487,84 C487,80 486,78 485,82 Z M406,94 C406,96 405,98 404,97 L403,100 C403,104 407,106 408,102 L407,94 L406,90 L406,94 Z M394,97 C394,99 395,99 397,98 L400,95 L397,95 C395,95 394,96 394,97 Z M235,103 C232,104 232,105 232,109 C232,114 232,114 233,111 C234,107 239,105 239,109 L241,111 L242,109 C241,108 243,107 245,107 C247,107 249,108 249,111 C250,114 250,114 250,110 C250,105 250,104 245,103 L240,102 L235,103 Z M362,104 C362,106 363,107 365,107 C367,107 368,106 368,105 L365,102 C363,102 362,102 362,104 Z M465,108 C465,113 465,113 467,110 L470,108 L472,108 L470,106 C469,106 469,105 471,104 C472,102 472,102 469,102 C466,102 465,103 465,108 Z M364,110 L367,113 C369,115 370,114 370,112 C370,110 369,109 367,109 L364,110 Z M236,117 C234,118 233,119 234,120 L232,121 L230,119 L230,118 C229,118 228,119 228,121 C228,124 229,124 237,123 L250,124 C255,126 255,126 255,122 C255,119 254,118 253,118 L253,119 L251,121 C249,121 248,120 248,119 C248,117 239,115 236,117 Z M469,116 C473,119 474,119 474,116 L470,114 C466,114 466,114 469,116 Z M365,124 L365,127 C366,128 365,129 364,129 C361,129 361,132 366,139 C369,142 371,144 371,142 L369,139 C368,139 368,137 370,136 L371,132 C370,131 369,132 368,133 C367,136 366,136 365,133 L364,131 C366,133 369,129 369,125 C369,122 367,121 365,124 Z M225,130 C225,134 224,134 220,133 C217,133 216,133 216,135 L223,136 C228,135 234,133 229,133 L228,129 L226,126 L225,130 Z M238,130 C238,133 239,135 240,135 C241,135 242,133 242,130 L240,126 L238,130 Z M244,130 C244,133 245,135 246,135 L247,130 L246,126 L244,130 Z M442,128 L441,132 C442,134 442,133 444,130 C446,125 446,125 442,128 Z M252,137 C250,138 251,138 256,138 L265,138 C269,138 268,144 265,144 C263,144 262,143 262,141 L260,141 C260,142 257,143 253,143 C249,143 247,143 246,140 C246,138 246,138 245,140 L243,144 L240,140 C240,138 240,138 239,141 C239,144 239,144 237,141 L236,140 C236,143 236,144 234,144 C232,144 230,142 230,140 C229,138 229,138 229,140 C229,142 228,144 226,144 L222,140 C220,138 220,138 220,140 C220,143 219,144 215,144 L211,142 L209,140 L208,155 C208,166 208,170 210,171 L212,170 L215,168 C217,167 217,167 215,167 C213,167 213,164 213,156 L213,146 L242,145 C264,145 270,146 271,148 C272,149 272,147 272,144 L271,139 C270,140 270,139 270,138 C271,135 270,135 263,135 L252,137 Z M362,142 L366,145 L364,141 C360,138 359,138 362,142 Z M370,147 C363,156 364,160 371,151 C373,148 376,146 378,147 L378,146 L376,142 C376,140 374,141 370,147 Z M357,147 L361,150 C362,149 358,143 356,143 L357,147 Z M383,148 C382,151 382,152 384,152 L387,153 L386,152 L385,148 C386,144 385,144 383,148 Z"/><path d="M264,151 L260,153 C260,155 262,156 265,155 L266,157 C266,158 267,159 269,159 L272,160 C271,165 272,166 275,164 C278,163 278,163 278,165 L280,169 L281,168 C280,167 281,167 284,167 C286,168 287,169 286,170 L288,174 C290,176 290,177 289,177 L288,178 L288,180 L285,178 C285,176 284,176 283,178 C281,180 281,180 283,180 L284,180 C284,183 287,182 292,178 C295,175 298,175 301,176 L305,177 L301,173 C298,170 292,170 289,172 L288,168 C288,163 287,162 284,162 C279,160 277,158 277,156 C278,153 276,153 274,155 C273,157 272,156 270,154 L264,151 Z M332,153 L327,156 L322,163 C318,169 317,172 318,176 L319,181 L323,177 L326,171 L327,170 L331,166 C333,164 333,164 334,165 C335,167 336,167 338,165 L338,162 C336,162 336,162 337,161 L339,162 C341,164 341,163 341,157 C340,149 337,148 332,153 Z M335,161 L333,161 L329,164 C326,168 326,166 329,161 C331,158 335,158 335,161 Z M344,152 C342,155 343,157 346,157 L346,158 C342,160 345,161 351,161 C357,160 358,161 356,162 L352,163 L350,163 L353,166 L355,166 L356,164 C357,164 358,166 358,170 C359,175 359,175 361,171 L360,165 L365,167 C367,168 367,167 367,165 C366,163 365,163 364,163 L364,162 L363,159 C361,159 360,158 360,157 C360,156 360,155 359,156 L357,155 L355,153 L353,152 C353,149 346,150 344,152 Z M397,153 L399,155 L403,153 L401,151 L397,153 Z M427,153 C423,155 423,158 427,159 C429,160 429,160 427,160 C425,160 424,161 424,162 L427,163 C429,162 430,163 430,164 L432,165 C432,164 433,164 433,166 L432,168 L433,168 L437,170 C440,173 440,170 437,167 C434,164 434,163 437,161 C439,159 439,159 437,158 L437,155 C439,152 439,152 438,155 C438,156 438,157 439,156 C441,154 440,151 437,151 C434,151 432,157 434,160 C434,161 434,162 432,162 C430,162 429,158 430,154 L431,151 L427,153 Z M245,156 L242,161 L238,167 L235,170 L226,170 C220,171 214,177 214,184 L212,187 L212,185 L211,183 L209,179 C209,177 207,176 205,176 C203,176 202,175 203,173 C203,170 198,169 197,172 L195,173 C194,172 191,175 188,179 C183,185 182,185 180,182 C177,179 176,178 177,181 C178,183 178,183 176,181 L169,179 C166,179 164,178 164,177 C164,172 157,172 154,176 L150,179 C149,178 146,180 143,184 L137,189 L135,194 C133,199 128,202 128,197 C128,194 118,191 115,193 C114,194 113,194 114,192 L112,192 C109,192 109,193 111,196 C114,200 114,207 111,205 C110,205 109,204 110,203 L109,201 L107,203 L104,204 L103,206 C103,209 106,211 107,207 C107,206 108,205 109,206 L109,209 C109,211 110,212 111,212 L113,211 C115.965626,206.64297 118.96572,202.3095 122,198 L121,198 C119,198 118,203 120,205 L122,205 C122,204 123,203 124,204 C125,205 125,204 125,203 C125,201 136,202 139,204 C141,205 141,205 139,202 C138,200 137,199 139,197 L139,193 L142,194 C146,197 148,197 148,193 C148,192 147,192 147,194 C146,196 145,196 144,194 C143,192 144,191 145,191 L150,186 C153,183 153,183 156,186 L158,187 C157,186 158,185 159,184 C160,184 160,183 158,183 C155,183 155,180 157,178 L158,178 L161,182 C164,184 166,184 168,183 C170,181 170,181 170,183 C169,185 176,187 178,186 C179,185 179,186 179,187 C179,190 178,190 170,190 C164,190 160,191 160,192 L169,193 C176,193 179,192 180,189 C182,187 182,187 183,189 L185,192 L197,192 C198,194 199,193 200,192 C201,190 198,189 193,190 L188,189 C185,187 186,187 190,185 L196,184 C197,185 197,184 197,183 C197,182 199,181 202,181 C205,181 206,182 206,184 C205,185 204,187 202,187 L201,189 C202,190 203,189 205,187 C207,185 208,185 211,187 C214,189 214,189 216,186 C217,184 218,183 220,183 C222,183 223,182 222,180 C222,178 222,178 225,179 L229,178 L232,174 C234,173 235,172 234,174 L237,174 C240,172 242,172 244,172 C246,172 247,165 245,163 C244,162 245,161 247,159 C249,158 250,158 250,160 L251,160 C251,158 252,158 253,158 L254,156 C254,155 253,154 250,154 C247,154 245,155 245,156 L245,156 Z M408,156 C409,158 410,158 411,157 C412,155 413,155 414,157 C414,158 414,158 414,157 C414,155 412,154 410,154 C407,154 406,154 408,156 Z M466,156 L465,160 C465,162 466,162 468,161 C471,158 473,158 473,161 L472,161 L471,162 C471,165 473,166 474,164 L476,163 L476,161 C475,158 473,157 471,158 L468,157 L466,156 Z M396,159 L398,163 C400,163 401,161 401,159 C401,156 401,156 399,159 C398,161 398,161 397,159 C396,156 396,157 396,159 Z"/><path d="M260,160 C258,162 257,163 259,164 L263,161 C265,157 264,157 260,160 Z M308,160 C308,162 307,163 306,162 C304,161 301,169 302,171 C304,174 306,172 306,168 C306,166 306,165 307,166 L308,171 C307,175 309,180 310,179 C313,177 312,174 310,175 L309,175 C311,173 315,172 315,174 C315,176 316,176 316,175 L316,170 C315,167 314,167 312,169 C310,171 310,171 311,168 L310,161 C309,157 309,157 308,160 Z M408,160 C405,161 405,162 408,162 C409,162 410,162 409,163 L413,170 C417,174 418,175 415,174 C413,174 412,174 413,176 C414,179 416,179 417,176 C418,175 419,176 420,178 C421,180 422,181 422,179 C422,177 421,175 419,174 C417,172 417,171 419,168 C421,166 421,165 419,163 C416,159 411,158 408,160 Z M418,168 C416,170 413,168 414,165 L417,165 C418,166 419,167 418,168 Z M43,163 L43,166 L45,171 C45,173 44,174 43,173 C41,172 41,172 41,174 C42,175 44,176 45,175 C47,174 48,175 47,176 C46,179 51,180 54,177 C56,175 57,174 55,173 L53,173 C52,174 48,170 48,167 L46,163 L43,163 Z M252,163 C248,164 248,168 252,168 C253,168 255,167 255,165 L256,162 L252,163 Z M343,165 C342,167 345,171 348,171 C350,171 351,171 349,170 L348,167 C349,164 345,163 343,165 Z M378,168 C377,172 377,173 379,174 C381,176 381,176 379,176 L375,178 C375,179 375,180 376,179 C377,178 379,178 379,180 L383,180 C384,178 386,178 387,179 L391,180 L392,181 C392,182 394,183 397,183 C401,183 401,184 399,185 C398,186 398,187 400,186 C402,186 403,187 403,190 C402,194 402,194 405,191 C407,189 407,188 406,187 L402,183 L402,180 L406,180 C407,178 409,178 410,179 L410,174 C409,170 404,172 401,177 C399,181 398,181 398,179 C398,176 397,176 394,176 C390,177 389,177 389,175 C389,172 389,172 388,174 C387,176 386,176 386,172 L386,167 L385,165 L384,169 C385,172 384,175 383,177 L381,179 L381,170 C380,164 380,164 378,168 Z M400,167 L402,169 L403,167 L402,164 C401,164 400,165 400,167 Z M422,169 L423,173 C425,174 426,171 424,168 C423,166 423,167 422,169 Z M477,166 L476,170 C477,172 476,173 474,172 C471,171 471,171 474,173 C476,174 476,176 476,178 C475,181 476,182 477,182 C478,182 479,181 478,180 L479,175 C480,171 478,164 477,166 Z M370,169 L368,171 L367,171 L368,174 C369,177 369,177 370,174 L371,169 L370,169 Z M280,170 C278,171 277,178 279,178 L281,173 C284,169 283,168 280,170 Z M426,174 C426,178 427,180 428,180 L430,178 L432,176 C433,175 433,175 432,176 C430,176 428,175 427,172 C426,169 426,169 426,174 Z M92,176 C90,179 88,181 87,180 L84,181 L80,182 L77,185 C75,187 75,187 77,186 C78,185 79,186 79,187 C80,188 79,188 77,188 C74,188 72,191 74,193 C75,194 76,193 76,192 L78,190 C79,192 76,195 73,197 C70,197 68,197 65,194 C62,190 58,190 59,194 L55,195 C52,194 50,195 48,197 C47,199 44,200 42,200 C39,200 37,202 37,204 C36,207 41,208 42,205 C42,204 44,203 47,203 C49,203 52,202 52,200 C54,197 59,197 60,201 C61,204 61,204 62,201 C63,199 64,199 67,201 L70,201 L73,204 C76,209 77,209 77,205 L75,201 L79,198 C82,196 83,194 82,193 C81,192 81,191 84,188 C87,185 91,185 91,189 L89,190 C87,189 87,190 87,193 L88,196 L91,192 L93,185 L93,184 L95,184 L98,178 L99,177 C98,179 99,179 100,178 L103,179 L100,182 C98,182 97,184 97,187 C97,190 96,192 94,193 C92,194 92,194 94,197 C98,201 97,203 94,199 C91,195 86,197 86,200 C86,202 87,204 89,204 C93,206 93,208 90,210 C88,212 88,212 91,212 C96,212 96,209 92,204 C89,199 90,198 95,202 L97,205 C95,205 95,206 98,209 L100,212 C99,212 98,213 99,214 L101,216 C103,216 103,211 100,209 C97,206 100,199 106,199 L110,198 C110,197 109,196 108,197 C104,199 104,194 107,191 C109,189 110,186 110,184 C110,180 114,180 117,186 C119,188 121,190 122,189 C124,188 123,187 121,186 C119,186 119,185 120,185 C123,185 122,183 118,182 L115,180 C114,178 112,177 110,178 C108,179 108,181 108,184 C109,188 109,188 107,184 C105,181 105,180 107,178 C109,176 109,176 106,175 L102,175 L98,174 C96,172 95,173 92,176 Z M106,186 L104,188 L101,190 C99,190 99,190 99,187 L101,184 C102,185 103,184 103,183 L104,182 L106,186 Z M103,194 C101,196 101,196 103,196 C104,196 104,197 102,198 C98,200 97,200 97,197 C97,195 97,194 98,195 L100,194 L102,192 C104,192 105,193 103,194 Z M246,172 L247,176 C248,178 248,178 250,175 L250,171 L246,172 Z M337,175 L339,175 L340,178 C340,181 340,181 342,178 C344,174 343,173 340,173 C338,173 337,174 337,175 Z M262,177 C263,182 265,187 267,187 L266,183 L263,178 L263,175 L262,177 Z M254,178 L252,182 C252,186 255,183 256,179 C256,176 256,176 254,178 Z M274,178 L274,181 L272,185 L271,187 C273,187 277,182 277,180 C277,178 274,176 274,178 Z M312,180 L313,183 C314,183 315,184 314,185 L316,184 C318,183 318,181 318,180 C316,177 314,177 312,180 Z M54,181 L53,185 L48,185 C48,187 46,188 41,187 L38,188 L39,191 C40,191 41,191 41,193 L39,193 L39,194 C41,196 41,197 42,195 L45,192 L46,190 C45,189 48,189 51,189 C56,189 58,189 58,187 C57,186 58,185 59,185 L60,183 L58,182 C58,183 56,183 56,181 L54,181 Z M239,184 C239,186 239,187 241,187 C242,187 243,188 242,189 L243,192 C245,194 246,193 249,191 C252,187 251,186 247,189 C246,190 244,189 243,186 C241,182 240,182 239,184 Z M412,186 L411,192 L409,196 C409,198 410,197 412,194 L412,185 L412,186 Z M414,186 L418,188 C420,188 421,188 419,186 C416,183 414,183 414,186 Z M230,187 L230,189 C232,191 235,189 235,187 C235,184 233,184 230,187 Z M358,189 C358,192 358,193 360,191 C361,189 363,189 366,191 C368,192 369,192 370,190 L367,187 L361,186 C359,184 358,185 358,189 Z"/><path d="M394,188 L394,191 L393,199 C393,204 393,204 395,201 C396,198 396,198 397,201 C398,202 399,203 400,202 C401,202 401,201 399,200 L399,197 L401,194 C401,192 400,192 399,194 C396,198 394,197 395,193 C397,188 397,187 394,187 L394,188 Z M491,190 C489,193 491,194 493,191 L497,188 C500,187 499,187 497,187 C494,187 492,188 491,190 Z M316,192 C314,194 315,195 317,197 L320,197 L319,192 C318,190 317,191 316,192 Z M348,192 C346,193 340,200 340,203 L345,199 C347,195 350,194 352,195 C353,195 354,195 353,194 L354,191 L354,190 L348,192 Z M86,195 C86,196 85,197 83,197 L82,199 C83,200 84,200 85,198 C87,197 87,195 87,194 L86,195 Z M301,195 L302,198 C305,200 306,198 304,195 L301,195 Z M193,197 C190,201 191,203 194,201 C197,198 198,195 196,195 L193,197 Z M247,198 L238,199 C230,200 229,200 229,204 C229,208 229,208 230,205 C231,202 232,201 240,201 L250,203 C251,204 252,203 252,202 L250,200 L248,199 C249,197 249,196 247,198 Z M259,201 L257,205 C259,205 264,199 263,198 L259,201 Z M273,198 C272,201 277,204 279,201 C280,199 280,199 278,199 C277,200 275,200 275,198 L273,198 Z M365,199 C365,200 364,201 362,200 C359,200 358,200 360,203 C361,205 362,206 362,204 L365,202 C368,202 369,200 367,198 L365,199 Z M380,199 L382,203 C386,207 387,207 387,204 C387,202 381,198 380,199 Z M175,202 C175,203 175,206 177,208 C179,210 180,211 181,209 C183,207 182,206 180,203 C177,201 176,200 175,202 Z M333,204 C333,206 333,207 335,207 C337,206 337,201 334,200 L333,204 Z M54,202 L54,205 C56,207 60,208 60,206 C60,205 59,204 57,204 C55,204 55,203 57,202 L57,200 L54,202 Z M80,205 C82,210 83,211 84,208 L86,207 C88,209 87,207 85,204 C81,200 79,200 80,205 Z M217,206 L214,210 C216,210 225,204 224,203 C223,201 222,202 217,206 Z M401,205 C402,208 404,209 404,207 L404,204 L402,202 L401,205 Z M156,206 L151,209 C149,210 150,210 153,210 L157,209 L159,206 L160,205 L156,206 Z M202,207 C202,209 203,210 204,210 L205,207 L204,204 C203,204 202,205 202,207 Z M265,206 C265,208 265,208 267,207 C269,206 270,207 269,208 C268,209 269,210 270,212 C271,214 271,213 271,210 C270,206 267,203 265,206 Z M351,208 L350,210 L348,210 C349,213 352,212 355,209 C358,207 358,207 356,207 L353,207 L351,205 L351,208 Z M117,207 C114,209 114,212 117,212 C119,212 120,211 120,209 L120,206 L117,207 Z M135,208 C133,210 134,210 136,209 C139,208 141,209 142,211 C144,213 144,213 143,209 C140,205 138,205 135,208 Z"/><path d="M198,210 C197,215 199,217 203,213 C205,211 204,211 202,212 C200,213 199,212 200,209 L200,206 L198,210 Z M233,209 C234,211 236,211 237,211 C241,209 241,207 236,207 C233,207 232,207 233,209 Z M247,209 L250,212 C252,212 253,212 253,210 L250,207 C248,207 247,207 247,209 Z M478,207 C478,209 484,214 485,213 L482,209 L478,207 Z M219,210 L219,211 L221,214 C221,216 222,216 223,216 L223,211 C222,209 221,208 219,210 Z M256,210 L260,212 L263,210 C264,209 262,208 260,208 C257,208 255,209 256,210 Z M310,212 C311,215 311,216 312,214 C314,211 313,208 311,208 L310,212 Z M365,210 L362,212 C359,210 359,211 363,214 C366,217 366,217 365,215 C364,213 364,212 366,213 C368,214 369,213 367,209 C366,207 365,207 365,210 Z M468,209 C466,211 467,213 470,215 L473,215 C472,214 473,213 474,213 C475,213 474,211 472,210 L468,209 Z M423,213 L425,217 L426,213 L425,210 C423,210 423,211 423,213 Z M51,214 C51,215 51,216 53,216 L56,214 C56,213 56,212 54,212 L51,214 Z M146,215 C144,219 145,220 149,218 C153,217 153,217 150,214 C147,212 146,213 146,215 Z M230,212 C229,215 232,220 234,219 L234,214 C232,212 231,211 230,212 Z M322,215 C322,217 323,219 325,220 C327,222 328,221 328,218 L327,215 L326,214 C326,213 326,212 324,212 C323,212 322,213 322,215 Z M463,217 L466,222 L467,224 C467,225 468,227 471,228 L475,230 L473,228 L472,225 L471,223 C470,224 468,221 466,218 C462,210 461,210 463,217 Z M112,219 C106,227 106,228 109,226 C111,225 112,223 111,222 L113,221 L116,217 C117,213 115,213 112,219 Z M186,216 C186,218 186,218 188,217 L192,215 C194,214 193,214 191,214 L186,216 Z M241,216 C244,217 246,219 247,221 L249,222 C250,220 244,215 240,214 C238,214 239,214 241,216 Z M398,215 L395,216 L395,217 C397,219 397,219 400,216 L401,213 L398,215 Z M491,216 L491,219 L494,217 C495,215 496,215 496,217 C496,220 498,220 499,216 C500,213 494,213 491,216 Z M122,217 C122,220 123,221 126,221 C128,221 129,220 129,219 C128,218 127,217 126,218 C125,219 124,218 123,217 C122,214 122,214 122,217 Z M210,216 C206,217 206,218 209,219 C210,219 213,219 214,217 C217,214 217,214 210,216 Z M343,217 C344,218 343,219 342,218 L339,218 L342,221 C345,222 346,218 343,215 L343,217 Z M253,221 L255,227 C257,229 257,228 256,223 C254,217 253,216 253,221 Z M259,219 L261,221 C263,221 264,222 264,223 L266,224 C269,222 271,225 268,227 C266,228 266,229 266,230 C267,230 269,230 270,228 C272,227 272,226 271,225 L271,222 L269,221 L263,219 L259,219 Z M217,219 L222,221 L226,220 L222,218 L217,219 Z M351,220 L347,223 L349,223 L353,224 C355,226 355,225 355,222 L355,219 L351,220 Z M376,220 L381,220 C383,219 382,219 378,219 C375,219 374,219 376,220 Z M152,223 C152,223 151,225 149,225 C145,226 144,229 147,231 C148,231 149,231 150,229 C150,227 152,227 153,227 L153,226 C152,224 153,224 155,225 L160,224 C161,223 160,223 157,222 L152,223 Z M391,223 L391,228 L389,228 C387,227 387,227 388,229 C390,231 393,230 392,227 C391,226 392,225 393,224 L393,220 C392,220 391,221 391,223 Z M433,225 L432,229 C434,229 436,225 435,222 L433,225 Z M51,226 L56,229 C57,228 52,222 49,222 L51,226 Z M115,226 L114,229 C115,228 118,230 121,232 C123,235 126,236 128,236 C129,235 128,235 127,235 C124,235 124,234 127,231 L131,228 L127,228 L122,230 C121,230 119,230 118,228 L118,226 L120,224 C120,221 117,222 115,226 Z M320,225 C317,229 317,229 320,230 L322,230 L322,226 C324,222 322,222 320,225 Z M339,224 C341,228 345,229 345,226 L344,225 C343,226 341,225 340,224 C338,221 337,221 339,224 Z M445,225 L444,228 L445,227 C445,225 447,225 449,225 C450,226 451,225 451,224 C450,222 446,223 445,225 Z M243,226 L243,229 L244,228 L248,227 C250,228 250,228 250,226 C249,223 246,223 243,226 Z M369,226 L364,227 C362,226 361,226 363,228 C366,232 372,232 372,227 C372,223 372,223 369,226 Z M395,227 C393,230 393,230 396,228 C399,225 399,225 398,229 L399,235 C400,236 401,235 401,230 C401,223 399,222 395,227 Z M405,226 L407,230 C410,233 411,230 408,226 L405,226 Z M486,227 L485,231 L488,227 C490,225 491,224 489,224 L486,227 Z M492,227 C489,230 489,230 492,230 C494,230 494,231 493,232 L494,233 L495,230 L496,227 C498,224 496,224 492,227 Z M83,231 L82,237 C80,238 81,242 83,241 C85,240 86,229 84,227 C82,226 82,227 83,231 Z M200,234 C200,236 199,237 198,237 C196,237 196,238 196,239 L200,240 L209,237 C211,237 212,236 212,234 C212,231 211,231 208,234 C206,237 205,237 203,234 C200,232 200,232 200,234 Z M318,234 C318,236 318,237 319,236 L323,238 L326,240 L322,235 C319,232 318,232 318,234 Z M75,238 C76,242 75,243 73,242 C71,242 71,242 71,244 L74,246 C77,246 78,239 76,235 C75,233 75,234 75,238 Z M89,235 L91,239 L93,242 L95,245 L95,240 C93,234 88,230 89,235 Z M262,237 C259,239 259,239 263,239 L267,237 C267,235 265,234 262,237 Z M344,236 L348,239 L348,238 C347,237 346,236 347,235 C347,234 347,233 345,233 C343,233 342,234 344,236 Z M378,236 C376,239 377,239 380,239 C382,239 383,238 383,236 L382,233 L378,236 Z M474,237 L473,239 L477,237 C479,235 480,234 478,234 L474,237 Z M489,236 L488,240 C486,240 487,241 489,242 L493,243 L492,242 L490,240 L490,235 C488,232 488,232 489,236 Z M147,237 L144,238 L142,239 C141,241 147,240 149,237 C151,235 150,234 147,237 Z M360,236 C358,238 359,238 360,240 C362,242 363,241 363,238 C363,234 363,234 360,236 Z M135,240 L131,244 C132,245 141,239 141,238 C141,236 141,236 135,240 Z M212,240 L208,243 C207,242 206,244 206,247 L207,253 L207,252 C206,250 215,238 217,240 L218,239 C218,236 216,236 212,240 Z M388,238 L392,242 L396,244 L393,240 C389,237 388,236 388,238 Z M454,239 C452,242 454,243 457,241 C460,240 460,239 457,238 L454,239 Z M49,243 L54,245 C56,244 59,245 60,246 C62,248 66,249 66,247 C66,245 65,244 64,244 L54,242 C48,241 47,241 49,243 Z M97,243 C97,245 98,246 99,246 C101,246 101,245 100,243 L98,240 L97,243 Z M244,243 C245,245 247,246 247,243 L245,241 L244,243 Z M288,242 C286,243 286,244 286,245 C287,246 288,246 290,244 C293,241 293,240 288,242 Z M403,242 L403,246 L404,246 L407,243 C410,243 410,243 407,242 L403,242 Z M481,244 C480,247 480,247 484,249 L487,250 L484,246 L482,241 L481,244 Z M166,244 L166,246 L171,247 L173,246 C173,243 168,242 166,244 Z M257,246 C257,248 258,249 259,249 C261,249 262,248 262,247 C262,246 261,245 260,246 L258,245 C258,243 257,244 257,246 Z M311,246 L315,247 C317,247 318,246 318,245 C317,243 311,244 311,246 Z M364,246 C364,248 365,249 367,250 L369,249 C368,248 369,247 370,247 L373,246 L369,244 C366,244 364,245 364,246 Z M155,250 L159,253 C161,253 160,252 158,250 L154,246 L155,250 Z M393,246 L393,253 C394,253 395,252 395,250 C395,249 396,247 398,247 C400,246 399,246 397,246 L393,246 Z M380,251 L382,253 L386,254 C391,254 387,251 382,250 C379,250 378,250 380,251 Z M62,253 L65,255 C67,255 68,256 68,257 C69,259 70,259 71,259 C73,257 72,255 68,253 C64,250 61,250 62,253 Z M96,254 C93,256 93,257 96,257 C97,257 99,256 99,254 C101,250 100,250 96,254 Z M120,255 C117,258 116,264 118,264 C120,264 123,259 124,256 C124,251 124,251 120,255 Z M482,254 L483,256 L484,256 C484,257 486,258 489,258 C492,258 493,258 492,257 C490,257 489,255 488,254 C487,250 483,250 482,254 Z"/><path d="M89,254 L89,258 C92,261 94,261 94,256 C94,253 93,252 89,254 Z M219,256 L215,258 L213,260 C213,262 213,262 212,261 C210,258 205,256 206,258 L206,260 C205,260 204,261 204,263 L206,265 L210,268 C212,271 212,271 209,270 L205,269 L208,271 C211,273 212,274 211,277 L211,279 C214,276 215,266 213,265 C212,265 212,264 213,265 C215,265 216,264 216,263 L217,263 C218,264 222,265 228,265 C235,265 237,265 237,263 C237,261 235,260 231,260 C220,261 219,260 219,258 L222,256 L223,255 C223,252 221,253 219,256 Z M426,258 L426,262 L427,264 C427,266 419,264 414,261 C412,259 411,259 410,261 L409,259 C409,254 409,254 407,258 C407,260 405,262 403,262 C400,261 399,259 403,259 L404,258 L397,259 L390,259 L388,257 C386,257 387,258 389,260 C390,261 392,262 393,261 C394,260 394,261 394,263 C393,265 395,265 405,265 L423,266 C430,268 430,268 431,262 L430,256 L429,257 C429,259 428,258 428,256 C427,253 426,253 426,258 Z M56,257 C58,258 59,259 58,260 L57,264 C58,267 57,267 54,267 C52,267 51,265 51,264 L50,262 L49,265 C50,267 49,268 48,268 L43,269 C42,270 41,270 42,268 L41,266 L39,268 C39,270 38,270 38,268 L36,266 L34,268 C34,270 32,267 31,263 C28,257 28,257 28,261 C29,263 28,266 27,268 C25,270 23,271 24,268 C25,266 23,266 19,267 L0,269 C24.6538347,270.641741 49.3995313,270.30734 74,268 C84,267 87,264 84,260 C82,259 81,259 81,261 L80,264 L79,261 C80,258 80,258 78,261 C75,265 75,265 75,261 C75,259 75,258 74,260 L68,263 C65,263 64,264 64,266 C65,268 65,268 63,266 L60,266 C60,268 59,267 59,265 C59,262 60,260 61,260 C62,260 62,259 60,258 L55,255 C53,255 54,256 56,257 Z M196,259 L192,262 C191,262 191,263 193,264 C197,266 202,265 203,262 C203,261 203,260 201,261 C198,263 197,260 200,258 L201,255 L196,259 Z M293,257 L289,258 L293,260 C296,261 296,261 291,263 C282,266 288,268 306,267 L327,266 C329,266 330,265 330,264 C330,263 325,262 319,262 L304,261 L298,259 C297,257 295,257 293,257 Z M493,260 C490,262 488,265 488,266 L491,263 C494,260 495,260 498,263 C501,266 501,266 499,263 C497,261 497,260 498,257 C501,253 498,255 493,260 Z M441,259 C441,260 440,261 438,260 C436,260 435,260 435,264 L437,268 C439,268 439,267 438,265 C436,263 436,263 440,263 L447,266 C450,268 452,268 452,267 L463,266 L471,266 L467,265 L462,262 C461,260 459,260 459,260 L450,262 C444,262 442,262 442,259 L441,259 Z M125,261 C123,263 123,264 129,265 C139,267 185,266 187,264 C188,263 187,262 183,262 L175,262 C174,261 173,262 172,263 C172,264 171,264 170,262 C169,260 169,259 167,261 C164,263 163,263 160,261 C156,258 156,259 154,261 C153,265 150,265 150,262 C150,260 147,259 144,261 L142,261 L139,262 L134,263 C132,263 131,263 131,261 C132,258 129,258 125,261 Z M377,262 L376,265 L374,263 L372,262 L372,264 C374,266 374,267 372,267 C369,268 369,268 372,269 L374,270 C374,273 366,271 364,268 C363,266 362,266 361,267 C360,269 353,269 344,269 C322,269 335,271 367,273 C390,275 391,274 389,272 C388,269 387,269 386,270 C384,273 380,273 381,270 L383,270 L384,266 L384,263 L382,265 C381,265 380,265 381,264 L379,260 C377,258 377,259 377,262 Z M381,266 L379,270 C377,272 375,270 376,267 C377,265 380,265 381,266 Z M239,262 C239,264 248,265 262,265 C277,265 283,265 282,263 C280,261 238,260 239,262 Z M93,264 C96,266 113,267 112,265 C111,264 107,263 101,263 C95,263 92,263 93,264 Z"/><path d="M345,263 L342,266 C342,268 348,267 350,266 C351,264 349,262 345,263 Z M218,272 L219,275 C219,276 220,277 222,277 L224,273 C224,270 223,269 221,269 C219,269 218,270 218,272 Z M253,270 L257,272 L260,270 L256,269 L253,270 Z M455,271 C457,273 465,274 465,272 C465,271 463,270 460,270 L455,271 Z M471,271 L472,275 C473,278 474,278 476,276 L478,271 L477,271 C476,273 475,273 475,272 L473,270 L471,271 Z M166,273 L167,277 L169,283 C168,286 169,289 170,291 C171,294 171,294 171,289 L173,281 C174,280 173,278 170,276 C169,273 167,273 166,273 Z"/><path d="M480,276 C479,278 477,279 475,279 L471,281 L469,282 L468,283 C468,286 471,286 473,284 C473,282 475,283 476,285 C477,287 478,288 479,286 L478,284 C477,283 477,282 479,280 L481,275 C481,274 482,274 484,276 C485,280 485,280 483,281 C482,282 481,282 482,283 C483,284 485,283 487,281 L490,278 L486,275 C481,272 481,272 480,276 Z M227,276 C227,278 226,279 224,279 L223,281 C224,282 223,283 222,284 C220,284 219,286 219,288 L218,290 L217,293 C218,294 219,293 220,291 C222,285 225,284 225,289 C225,292 226,294 227,294 L228,289 C228,280 228,275 230,276 L232,276 L230,274 C228,274 227,275 227,276 Z M259,275 L260,280 C261,282 262,283 264,281 L266,277 C266,276 265,276 264,278 C263,280 262,279 263,275 L259,275 Z M297,277 L297,282 C298,283 301,281 301,278 C301,274 298,274 297,277 Z M237,277 L239,279 C241,280 242,283 242,285 L243,289 L244,284 C242,278 237,272 237,277 Z M121,280 C120,283 122,285 124,285 L125,281 C125,279 125,279 127,281 C128,283 128,283 128,281 C127,278 122,277 121,280 Z M247,280 C245,281 246,282 248,284 L252,284 C254,279 252,278 247,280 Z M270,283 L272,286 L273,283 L272,279 L270,283 Z M314,283 C315,286 314,289 313,289 L314,291 C316,292 317,291 317,288 L315,281 C314,279 314,280 314,283 Z M319,283 L321,287 L322,284 L321,280 C320,280 319,281 319,283 Z M107,284 C108,286 107,286 106,286 C105,285 105,285 105,287 C105,289 104,290 103,290 L102,295 C102,300 104,301 105,295 L107,291 C108,292 109,290 109,288 L109,283 L108,281 L107,284 Z M187,285 C187,288 188,289 190,288 L193,285 L190,282 C188,281 187,282 187,285 Z M231,284 C230,286 230,287 232,287 C233,287 234,287 234,289 L235,290 L234,285 C233,281 233,281 231,284 Z M493,283 L489,284 L485,286 C485,288 485,288 488,288 C489,287 492,288 493,289 L493,292 L495,296 C497,300 497,300 491,302 C484,305 483,306 487,310 L491,310 C493,308 493,308 491,308 L489,306 L493,304 L497,302 C497,300 498,301 498,302 C499,304 500,304 500,303 L498,299 L498,295 C500,294 500,293 500,292 C499,291 498,292 497,293 C495,296 494,294 495,287 C495,281 495,280 493,283 Z M96,285 C94,288 96,296 98,295 C100,294 101,289 99,285 L96,285 Z M197,285 C195,288 196,288 198,288 C200,288 202,287 202,285 C202,282 199,282 197,285 Z M274,286 L273,293 C273,296 273,296 276,296 C278,295 278,293 278,289 C278,283 274,281 274,286 Z M116,286 L113,291 C110,293 110,293 113,296 L116,302 C117,305 117,305 117,302 L116,298 C114,297 114,296 116,294 L117,287 C116,285 116,284 116,286 Z M164,287 C164,288 164,289 162,289 L159,292 L160,296 L161,293 C161,290 162,290 163,292 C164,294 164,294 165,291 C166,287 166,285 164,285 L164,287 Z M255,287 L261,287 L257,285 C254,285 253,286 255,287 Z M348,288 L343,290 C340,290 339,294 341,294 C348,296 350,295 350,290 L350,285 L348,288 Z M123,287 C121,289 122,298 125,298 C126,298 127,297 127,295 C127,294 126,293 125,294 L125,292 C127,289 126,284 123,287 Z M62,289 C63,291 62,291 60,292 C56,292 56,292 59,293 C63,294 66,291 63,289 L62,289 Z M320,289 C319,291 321,294 323,294 L324,291 C324,288 322,287 320,289 Z M172,292 L177,293 L181,291 L177,290 C174,290 172,291 172,292 Z M474,292 C472,293 472,294 472,296 L473,304 L475,308 L477,304 L478,298 L478,291 C479,289 478,290 474,292 Z M85,296 L88,299 C90,299 89,295 86,294 L85,296 Z M73,299 C71,300 71,302 71,303 L72,309 L73,313 L74,310 C74,305 77,304 79,308 C79,311 81,311 85,311 C88,310 90,309 90,307 C90,305 89,305 86,306 L80,305 L81,303 L82,301 L79,300 C77,300 76,299 76,298 C77,295 76,295 73,299 Z M91,300 C91,305 93,310 97,310 C98,310 99,309 99,305 C99,299 98,298 95,302 C94,303 93,303 92,299 L91,295 L91,300 Z M214,298 C214,299 215,300 217,300 L221,303 C223,304 222,302 220,300 C216,296 214,295 214,298 Z M412,298 C410,301 412,303 414,301 L414,297 L412,298 Z M62,300 C60,303 61,305 64,304 L64,300 L62,300 Z M479,308 C477,311 478,314 482,314 C485,314 485,313 485,311 C484,308 480,306 479,308 Z"/><path d="M495,307 L494,313 C494,318 491,322 490,320 L490,317 C491,317 492,316 491,315 C490,312 485,318 485,322 C485,327 485,327 490,324 C494,322 497,325 494,328 L492,333 C492,335 493,334 494,332 C495,328 498,326 498,330 L500,332 L504,334 C506,338 508,338 508,335 L505,332 L502,329 L501,326 L500,323 C501,322 500,321 497,322 C494,323 493,322 494,321 L498,319 L500,316 C500,313 499,312 497,315 C495,317 495,317 495,312 L495,307 Z M441,314 L440,318 C441,319 446,313 445,311 C443,309 442,310 441,314 Z M456,315 C454,317 456,317 464,317 L472,319 C474,321 478,320 478,316 L477,316 C477,317 475,318 474,317 C472,317 471,316 472,315 L465,314 L456,315 Z M443,323 C444,327 444,328 442,327 L441,324 L440,321 L439,326 L440,338 C440,342 440,343 441,339 C442,337 443,336 443,339 C443,346 445,343 445,336 L446,326 C446,326 446,323 444,321 C442,318 442,318 443,323 Z M429,330 L428,332 L427,336 L425,341 C422,342 425,346 429,346 C432,346 432,346 429,347 C427,348 427,349 428,349 L433,347 L435,344 L435,337 C433,337 433,339 433,341 C433,344 432,345 430,344 C426,343 426,344 429,338 C432,332 432,328 430,328 L429,330 Z M233,336 C233,338 234,338 235,338 C236,337 237,338 237,339 L238,341 L238,337 C237,333 233,333 233,336 Z M196,346 C197,348 206,349 205,347 L200,345 L196,346 Z M359,356 C358,357 360,357 363,358 L367,357 C366,355 361,354 359,356 Z M92,358 L96,360 L99,359 L96,357 L92,358 Z M133,360 L136,361 L139,363 C140,365 140,364 140,362 C140,359 139,358 136,358 C134,358 133,359 133,360 Z M116,362 C117,362 118,364 117,365 C117,367 118,366 119,365 L123,361 L119,361 C116,361 115,361 116,362 Z M280,366 L283,367 L287,365 L284,364 L280,366 Z M67,372 C67,374 68,375 69,375 C70,375 71,374 71,372 L69,370 L67,372 Z M367,379 L363,381 L368,381 C370,381 372,380 372,378 L372,376 L367,379 Z M287,378 C287,380 293,381 294,379 C294,378 293,377 291,377 L287,378 Z M223,382 L219,383 L223,383 L229,384 C233,386 233,384 229,382 L223,382 Z M391,380 L397,381 L400,381 C397,379 390,378 391,380 Z M55,383 L59,384 L62,382 L58,381 L55,383 Z M204,382 L204,384 L210,384 C213,386 214,385 212,383 C210,379 206,379 204,382 Z M91,385 L95,388 L95,387 L94,384 C95,383 93,382 92,382 C88,382 88,382 91,385 Z M351,387 L356,388 L361,387 C361,386 352,385 351,387 Z M296,388 C294,390 295,391 300,389 C302,389 303,388 301,387 L296,388 Z M371,389 C371,390 373,391 376,391 L381,390 C381,389 379,388 376,388 L371,389 Z M384,390 L388,392 L391,391 L388,389 L384,390 Z M427,390 L422,390 C418,390 418,390 421,392 C424,393 425,393 427,391 L429,388 L427,390 Z M332,395 C332,397 333,397 334,396 L341,395 L345,395 L338,393 C334,393 332,393 332,395 Z M245,395 C246,397 260,398 259,396 L251,394 L245,395 Z M312,396 C310,397 309,398 310,399 L315,397 C319,393 317,393 312,396 Z M71,396 L72,400 C73,402 73,401 74,399 C75,396 73,393 71,396 Z M111,397 C109,399 110,399 112,399 C116,397 117,395 114,395 L111,397 Z M357,399 L360,399 C362,397 361,396 359,396 C356,396 355,397 357,399 Z M185,403 C182,404 182,404 186,404 L190,402 C190,400 189,401 185,403 Z M199,402 C198,403 200,404 203,404 L209,403 C209,401 202,400 199,402 Z M275,405 C275,406 276,407 278,407 L280,406 L278,403 C276,403 275,403 275,405 Z M293,404 L291,407 L293,407 C293,406 295,405 296,406 L298,405 C298,403 296,402 293,404 Z M424,405 C424,407 425,408 426,408 C428,408 428,407 427,405 L425,402 L424,405 Z M234,408 L239,409 L247,411 L249,410 C249,409 249,408 247,408 L240,407 L234,408 Z M253,409 C251,412 250,413 252,414 L254,413 C253,412 254,410 256,409 L258,406 L253,409 Z M438,408 L443,408 C445,407 444,407 440,407 C437,407 436,407 438,408 Z M473,409 L469,411 L473,411 L477,409 L478,408 L473,409 Z M67,414 L69,417 L69,414 L67,410 L67,414 Z M136,414 L140,417 C141,417 142,417 142,415 L138,413 C135,413 134,414 136,414 Z M200,417 C196,421 198,421 204,417 C207,414 208,413 206,413 L200,417 Z M160,473 C156,477 158,477 164,473 C167,470 168,469 166,469 L160,473 Z M332,415 C332,417 336,416 338,414 L336,413 L332,415 Z M112,418 C116,424 122,428 124,425 L125,420 C125,419 124,419 124,422 C122,426 122,426 120,423 L118,421 C118,422 116,421 114,418 L110,414 L112,418 Z M73,474 C76,480 82,484 84,481 L85,476 C85,475 84,475 84,478 C82,482 82,482 80,479 L78,477 C78,478 76,477 74,474 L70,470 L73,474 Z M96,420 C96,423 95,424 89,423 C85,422 87,424 92,425 C94,426 96,425 96,424 C96,423 97,423 98,425 L102,426 L101,425 C100,425 98,423 98,420 C97,417 96,417 96,420 Z M56,476 C56,479 55,480 49,479 C45,478 47,480 52,481 C54,482 56,481 56,480 C56,479 57,479 58,481 L62,482 L61,481 C60,481 58,479 58,476 C57,473 56,473 56,476 Z M168,418 L165,421 C165,424 165,424 168,421 L172,420 L173,419 C173,417 173,416 168,418 Z M128,474 L125,477 C125,480 125,480 128,477 L132,476 L133,475 C133,473 133,472 128,474 Z M272,418 C267,420 267,420 272,421 L278,419 C280,416 280,416 272,418 Z M232,474 C227,476 227,476 232,477 L238,475 C240,472 240,472 232,474 Z M385,418 L387,420 C389,419 391,420 391,421 C392,422 392,422 392,420 C391,417 386,416 385,418 Z M345,474 L347,476 C349,475 351,476 351,477 C352,478 352,478 352,476 C351,473 346,472 345,474 Z M53,423 C53,425 53,426 54,425 C55,424 55,425 55,426 L59,428 L63,428 L59,426 L55,422 C54,420 54,421 53,423 Z M74,421 C75,423 74,423 72,423 L68,425 C68,427 74,426 76,423 L75,421 L74,421 Z M439,421 C438,422 438,423 440,424 C443,425 446,424 446,422 C446,420 441,419 439,421 Z M399,477 C398,478 398,479 400,480 C403,481 406,480 406,478 C406,476 401,475 399,477 Z M465,422 C464,425 467,426 470,423 C473,421 473,421 470,422 L467,421 C467,419 466,420 465,422 Z M425,478 C424,481 427,482 430,479 C433,477 433,477 430,478 L427,477 C427,475 426,476 425,478 Z M147,423 L142,424 C139,423 139,423 139,425 L143,427 C146,427 150,424 149,422 L147,423 Z M107,479 L102,480 C99,479 99,479 99,481 L103,483 C106,483 110,480 109,478 L107,479 Z M326,423 C328,426 334,427 333,425 C333,424 331,422 329,422 L326,423 Z M286,479 C288,482 294,483 293,481 C293,480 291,478 289,478 L286,479 Z M186,424 C187,428 191,428 192,424 C192,421 192,421 191,424 C190,426 189,426 189,424 L187,422 L186,424 Z M146,480 C147,484 151,484 152,480 C152,477 152,477 151,480 C150,482 149,482 149,480 L147,478 L146,480 Z M153,428 L158,429 L160,431 C160,433 158,435 157,435 C153,436 153,439 158,438 C160,437 161,436 161,432 C161,428 160,427 156,427 C152,427 151,427 153,428 Z M113,484 L118,485 L120,487 C120,489 118,491 117,491 C113,492 113,495 118,494 C120,493 121,492 121,488 C121,484 120,483 116,483 C112,483 111,483 113,484 Z M363,430 C361,431 360,432 362,434 L364,433 C365,432 367,431 368,432 C370,433 370,433 369,430 L367,427 L363,430 Z M323,486 C321,487 320,488 322,490 L324,489 C325,488 327,487 328,488 C330,489 330,489 329,486 L327,483 L323,486 Z M45,432 L45,434 L46,436 L49,436 C51,435 53,434 54,435 L55,433 C55,430 54,430 52,432 L49,432 C49,429 48,429 45,432 Z M108,432 L114,437 C115,438 116,439 115,437 C114,435 116,435 118,437 L125,440 L128,440 L123,437 C122,435 120,434 118,434 L113,432 L108,430 C105,430 105,430 108,432 Z M68,488 L74,493 C75,494 76,495 75,493 C74,491 76,491 78,493 L85,496 L88,496 L83,493 C82,491 80,490 78,490 L73,488 L68,486 C65,486 65,486 68,488 Z M489,434 L487,434 L478,435 C473,437 474,437 481,437 C486,437 490,436 491,434 L491,432 L489,434 Z M449,490 L447,490 L438,491 C433,493 434,493 441,493 C446,493 450,492 451,490 L451,488 L449,490 Z M84,436 C82,437 83,438 86,439 L92,438 L91,436 L88,435 L84,436 Z M141,436 C138,438 138,438 142,438 L146,436 L141,436 Z M101,492 C98,494 98,494 102,494 L106,492 L101,492 Z M188,437 L189,438 C190,437 192,438 192,439 L196,441 L198,439 L196,438 C195,439 194,438 194,437 C194,434 189,434 188,437 Z M148,493 L149,494 C150,493 152,494 152,495 L156,497 L158,495 L156,494 C155,495 154,494 154,493 C154,490 149,490 148,493 Z M244,438 L247,441 C249,441 250,441 250,439 C250,436 246,435 244,438 Z M204,494 L207,497 C209,497 210,497 210,495 C210,492 206,491 204,494 Z M353,439 C354,441 358,440 358,438 L355,437 L353,439 Z M313,495 C314,497 318,496 318,494 L315,493 L313,495 Z M373,438 C371,441 372,443 374,441 L380,440 C382,441 383,441 381,439 C378,437 375,436 373,438 Z M333,494 C331,497 332,499 334,497 L340,496 C342,497 343,497 341,495 C338,493 335,492 333,494 Z M169,441 C171,442 171,443 169,444 C168,445 168,445 170,445 C173,445 173,441 169,439 L169,441 Z M129,497 C131,498 131,499 129,500 C128,501 128,501 130,501 C133,501 133,497 129,495 L129,497 Z M179,441 L174,442 L180,442 L186,440 L179,441 Z M139,497 L134,498 L140,498 L146,496 L139,497 Z M435,440 L440,440 C442,439 441,439 437,439 C434,439 433,439 435,440 Z M395,496 L400,496 C402,495 401,495 397,495 C394,495 393,495 395,496 Z M136,444 C133,446 133,446 136,446 L138,444 L142,444 C142,441 138,441 136,444 Z M96,500 C93,502 93,502 96,502 L98,500 L102,500 C102,497 98,497 96,500 Z M297,444 L300,444 L303,441 L300,441 C298,441 297,442 297,444 Z M257,500 L260,500 L263,497 L260,497 C258,497 257,498 257,500 Z M365,445 C364,446 364,447 363,446 L359,447 C356,448 356,448 360,449 L364,448 L367,448 L367,442 C367,442 365,443 365,445 Z M325,501 C324,502 324,503 323,502 L319,503 C316,504 316,504 320,505 L324,504 L327,504 L327,498 C327,498 325,499 325,501 Z M492,443 C489,444 489,445 492,446 L495,445 C495,443 496,443 497,445 C498,448 498,448 498,445 C497,442 495,441 492,443 Z M157,446 C157,449 157,450 159,450 C162,450 162,449 160,445 C158,443 158,444 157,446 Z M117,502 C117,505 117,506 119,506 C122,506 122,505 120,501 C118,499 118,500 117,502 Z M418,447 C418,450 419,452 420,452 C422,452 421,448 419,445 C418,443 418,444 418,447 Z M378,503 C378,506 379,508 380,508 C382,508 381,504 379,501 C378,499 378,500 378,503 Z M426,445 C426,447 430,449 432,447 L431,445 C428,442 426,443 426,445 Z M386,501 C386,503 390,505 392,503 L391,501 C388,498 386,499 386,501 Z M143,447 C143,448 144,449 146,449 C151,449 151,448 147,446 L143,447 Z M103,503 C103,504 104,505 106,505 C111,505 111,504 107,502 L103,503 Z M346,447 C342,450 342,452 345,452 L347,450 C346,449 347,448 348,447 L350,445 L346,447 Z M306,503 C302,506 302,508 305,508 L307,506 C306,505 307,504 308,503 L310,501 L306,503 Z M388,447 C386,449 387,449 390,449 C395,448 395,447 392,446 L388,447 Z M348,503 C346,505 347,505 350,505 C355,504 355,503 352,502 L348,503 Z M57,450 C61,453 62,453 60,449 L57,447 C54,447 54,447 57,450 Z M163,450 C161,453 162,454 165,452 L168,449 C168,446 165,447 163,450 Z M123,506 C121,509 122,510 125,508 L128,505 C128,502 125,503 123,506 Z M466,449 L465,452 C466,452 468,452 470,450 C472,448 473,447 471,447 L466,449 Z M426,505 L425,508 C426,508 428,508 430,506 C432,504 433,503 431,503 L426,505 Z M96,451 L100,454 C102,454 103,454 101,452 C99,449 96,448 96,451 Z M56,507 L60,510 C62,510 63,510 61,508 C59,505 56,504 56,507 Z M244,451 C241,452 241,452 246,453 L252,452 C254,451 253,450 251,451 L247,450 L244,451 Z M204,507 C201,508 201,508 206,509 L212,508 C214,507 213,506 211,507 L207,506 L204,507 Z M74,451 L73,455 C74,457 75,456 75,454 C77,450 76,449 74,451 Z M312,451 C313,452 312,454 311,454 C308,455 308,455 311,455 C315,455 316,453 313,450 L312,451 Z M272,507 C273,508 272,510 271,510 C268,511 268,511 271,511 C275,511 276,509 273,506 L272,507 Z M217,454 L213,455 L218,455 L222,454 L222,452 L217,454 Z M177,510 L173,511 L178,511 L182,510 L182,508 L177,510 Z M409,455 C407,458 409,460 411,458 L411,454 L409,455 Z M369,511 C367,514 369,516 371,514 L371,510 L369,511 Z M456,456 C458,458 466,459 465,457 L461,456 L459,456 C459,455 458,454 456,454 L456,456 Z M452,499 C449,500 449,501 452,502 L455,501 C455,499 456,499 457,501 C458,504 458,504 458,501 C457,498 455,497 452,499 Z M481,499 L485,503 C487,505 488,504 488,502 C488,500 487,500 486,500 C485,501 483,500 483,499 L482,497 L481,499 Z M487,509 L490,511 C492,511 492,510 492,509 L489,507 C487,507 487,508 487,509 Z M416,512 C418,514 426,515 425,513 L421,512 L419,512 C419,511 418,510 416,510 L416,512 Z"/></svg>