<?xml version="1.0" encoding="UTF-8"?>
<!-- Generated by Pixelmator Pro 3.7.1 -->
<svg width="468" height="515" viewBox="0 0 468 515" xmlns="http://www.w3.org/2000/svg">
    <path id="Path" fill="#4d41a1" stroke="none" d="M 411 1 C 411 2 412 3 414 3 L 417 2 C 417 1 416 0 414 0 L 411 1 Z M 422 3 C 422 6 425 6 426 2 L 424 0 C 423 0 422 1 422 3 Z M 428 4 C 427 8 429 9 432 7 L 432 5 C 431 5 430 4 431 3 L 430 0 L 428 4 Z M 436 2 C 434 3 434 4 435 5 L 438 5 C 439 4 440 5 439 9 L 438 14 L 442 8 L 446 2 L 436 2 Z M 455 3 C 455 5 450 8 447 7 C 446 7 445 8 445 10 C 444 11 445 13 446 13 L 447 10 L 447 8 C 449 11 451 20 448 20 L 449 23 C 452 25 451 32 448 31 C 445 31 443 32 442 34 C 442 36 442 37 443 36 C 445 34 453 39 453 42 L 455 38 L 458 31 C 460 31 461 31 461 29 C 462 28 462 28 460 28 L 458 28 C 458 27 458 26 460 26 L 459 24 L 458 17 C 458 13 459 12 462 13 C 464 13 465 12 465 11 L 464 9 C 460 10 457 9 458 7 L 461 5 C 462 6 464 5 464 4 C 464 3 463 2 462 3 L 461 2 L 458 0 C 456 0 455 1 455 3 Z M 432 12 L 432 15 L 435 12 L 435 9 L 432 12 Z"/>
    <path id="path1" fill="#4d41a1" stroke="none" d="M 442 24 L 446 27 C 448 27 448 26 447 24 L 443 21 C 441 21 441 22 442 24 Z M 422 26 L 430 27 L 438 29 L 440 31 C 442 31 441 30 439 28 C 437 25 420 24 422 26 Z M 436 39 L 435 45 C 436 47 436 48 438 46 C 441 45 441 45 441 48 C 441 50 442 50 443 48 C 444 47 444 46 445 48 L 447 49 L 448 52 L 445 57 L 445 56 C 446 55 445 54 444 54 L 442 55 C 441 57 445 59 450 60 L 451 60 C 449 59 450 55 452 55 C 454 55 453 67 451 68 L 449 66 C 449 64 447 63 444 63 C 441 64 439 63 440 61 L 438 59 L 437 62 C 437 63 436 65 434 65 L 433 67 L 439 68 C 441 67 443 68 444 69 L 446 69 C 447 68 447 69 447 70 C 447 71 448 72 449 71 C 451 70 451 70 449 72 C 447 75 447 78 449 76 L 453 77 L 458 77 C 462 75 462 76 461 81 C 460 85 460 85 458 82 C 457 80 457 79 457 81 C 458 83 457 83 455 81 L 452 80 L 451 87 L 449 95 C 448 96 447 96 448 93 C 449 90 449 90 447 91 C 443 95 439 93 439 87 L 437 81 C 434 79 437 75 440 77 C 444 80 444 80 444 77 C 444 75 442 74 438 74 L 433 75 C 434 75 435 77 434 78 C 434 80 433 81 432 80 C 431 79 429 81 427 84 C 423 90 423 90 426 89 C 430 88 431 91 428 93 C 426 93 426 94 427 94 C 429 94 433 88 431 86 L 434 84 C 439 83 438 88 433 93 C 429 97 428 97 425 95 C 423 93 422 93 422 94 C 421 96 420 95 418 93 C 417 91 416 91 416 92 L 414 94 L 413 91 L 411 87 C 410 86 410 87 410 89 L 410 92 C 409 92 408 93 408 95 C 408 97 408 98 407 96 L 404 95 C 403 96 402 95 400 94 C 398 92 398 92 398 94 C 398 96 398 96 397 95 C 395 91 391 92 390 97 C 389 101 390 102 391 99 C 392 97 394 97 395 97 C 396 98 398 99 401 98 C 404 98 404 98 402 100 C 400 103 391 104 388 102 C 386 101 386 109 388 111 C 389 112 388 112 387 112 C 384 112 384 112 386 114 C 389 116 390 115 393 111 C 397 105 399 106 403 111 C 408 117 408 117 404 121 C 402 123 402 124 404 123 C 405 122 407 123 408 125 C 409 127 409 128 407 130 C 404 132 404 132 407 138 C 411 144 411 144 408 147 C 407 149 405 150 405 149 C 404 148 403 147 402 148 C 401 149 396 141 397 140 C 398 139 400 141 402 142 C 407 146 407 146 405 139 C 403 135 402 134 401 136 L 398 138 C 396 138 395 131 397 129 L 398 132 C 398 136 398 136 400 135 C 401 133 401 131 399 127 C 398 121 398 121 400 118 C 403 116 403 116 400 114 C 397 113 396 113 394 116 C 391 121 386 122 386 119 C 386 116 382 118 381 121 C 379 124 379 125 381 127 C 382 128 383 130 382 131 C 381 133 376 126 377 123 C 377 122 376 122 376 124 C 374 126 374 128 375 128 C 377 129 377 131 376 134 C 375 137 374 138 374 135 L 372 132 L 370 130 L 371 129 L 372 127 L 372 125 C 373 125 374 124 374 122 L 372 119 L 373 118 L 376 117 L 376 115 C 374 113 375 113 377 112 C 379 111 380 112 380 113 C 380 115 381 116 382 116 L 382 112 C 380 109 381 108 382 107 C 384 106 385 104 384 103 C 383 101 382 101 381 104 C 379 108 376 108 376 104 C 376 101 375 101 373 103 C 371 105 371 105 372 103 L 371 101 L 368 106 L 364 113 C 363 114 362 113 364 110 C 366 106 366 104 363 106 C 362 107 362 106 363 106 L 362 101 C 361 99 361 99 361 102 C 361 104 360 106 358 106 C 357 106 356 105 357 104 C 358 100 354 101 351 104 C 350 106 347 106 346 106 C 344 105 343 105 343 107 L 340 107 L 339 103 L 335 99 C 332 96 331 96 331 101 C 331 105 332 106 335 106 L 339 108 C 340 109 337 114 335 114 L 333 118 C 333 121 333 121 334 120 C 336 118 341 118 342 120 C 343 121 342 122 341 124 C 338 127 337 130 339 130 L 342 135 C 344 139 343 139 341 138 C 339 138 339 138 341 139 C 344 142 346 142 346 138 C 346 136 347 136 350 137 C 352 137 354 139 355 140 L 357 140 C 358 138 359 138 361 140 C 363 142 363 142 361 145 C 358 148 357 147 353 143 L 349 141 C 348 141 348 143 350 145 C 352 146 353 149 353 151 C 353 155 353 155 355 152 C 356 150 358 149 358 150 C 359 151 359 150 359 149 C 359 148 360 147 362 148 C 364 149 364 149 362 147 C 360 145 360 145 363 145 C 365 145 367 147 368 149 C 369 150 371 152 372 151 L 376 154 C 378 158 378 158 378 153 C 378 151 378 149 377 150 L 373 147 L 370 144 L 365 141 L 363 138 C 365 138 365 137 365 135 L 359 133 C 356 133 355 134 355 135 C 356 137 355 137 351 135 C 348 134 346 133 345 134 L 346 132 C 347 129 347 129 345 130 L 343 129 L 344 127 C 347 127 350 122 349 121 L 350 119 C 352 119 352 121 353 125 C 353 129 352 130 350 130 C 348 130 348 131 350 132 C 352 134 353 133 354 131 C 355 130 356 129 357 130 L 358 129 C 358 128 357 127 355 127 C 352 127 354 124 357 124 L 358 122 C 358 120 360 119 361 120 L 365 118 C 368 116 368 116 367 119 L 368 121 C 369 121 370 122 368 124 L 368 127 C 368 128 368 129 366 129 L 363 127 L 360 125 L 360 126 C 361 127 362 128 361 129 C 360 130 363 131 366 130 C 368 130 368 131 368 133 C 367 135 368 135 369 135 C 371 134 371 134 371 137 C 370 140 371 142 374 143 L 376 143 L 377 141 L 378 137 L 378 134 C 381 134 381 136 380 140 C 378 145 379 146 383 142 L 390 139 C 394 138 395 139 394 144 L 395 148 C 396 147 398 149 401 150 C 406 154 410 153 412 150 C 413 148 413 149 415 151 L 415 150 L 416 146 C 417 145 417 147 417 149 C 417 155 420 157 421 153 L 420 151 L 419 148 L 417 144 C 415 143 415 142 415 141 L 414 141 C 412 141 411 141 411 139 L 409 134 C 407 133 407 132 408 131 C 411 130 412 130 412 132 L 413 136 L 417 137 C 420 136 421 136 420 140 L 420 143 L 421 146 C 420 149 426 149 427 147 C 428 145 427 145 425 146 C 423 147 424 146 426 143 L 428 140 C 424 142 423 127 427 125 C 430 123 431 124 431 129 C 431 132 430 132 430 131 L 428 129 L 429 134 L 433 140 C 434 140 436 141 436 143 C 437 145 437 145 438 143 C 440 141 440 141 440 144 C 440 148 442 148 443 144 C 444 142 444 142 444 145 C 444 147 442 148 440 148 L 436 149 C 435 150 434 149 434 148 C 433 145 433 145 430 148 L 426 152 L 430 153 C 437 156 441 159 442 162 C 442 164 442 165 441 164 L 440 165 C 440 167 446 171 447 169 C 448 166 453 169 453 174 C 453 177 454 178 457 178 C 459 178 461 177 460 176 L 462 175 C 467 175 468 174 468 170 L 468 166 L 471 170 C 472 173 474 174 475 174 C 477 174 477 174 476 172 C 473 168 480 164 483 167 C 485 169 485 169 486 167 L 488 166 L 490 163 C 490 161 490 160 489 161 L 488 160 L 490 158 C 494 158 496 165 493 167 C 491 168 491 169 495 170 C 498 172 500 172 500 171 L 502 169 L 504 171 C 503 174 505 178 508 178 L 507 175 L 506 171 L 506 166 C 506 164 505 164 503 165 C 500 167 500 166 500 157 L 499 145 L 499 140 L 498 136 C 497 134 496 134 495 136 C 493 138 486 138 486 136 L 484 134 L 482 132 L 477 129 C 473 127 472 126 474 125 C 476 123 476 123 474 123 L 474 121 C 476 118 475 118 473 118 C 470 118 468 123 472 123 C 473 123 473 124 471 126 C 468 130 465 128 467 123 C 470 117 465 113 454 113 C 445 113 445 113 445 117 L 447 124 C 449 125 449 125 448 123 C 447 120 448 120 450 121 C 451 122 452 121 451 120 C 450 118 451 117 453 118 L 455 118 C 453 117 453 114 456 115 L 458 119 C 458 121 458 121 460 120 C 462 118 467 118 467 120 L 464 121 C 460 120 459 125 461 129 C 463 130 463 131 461 130 C 459 128 453 133 453 136 L 451 139 C 450 140 449 139 450 137 C 451 133 449 133 446 137 C 443 140 443 140 444 137 L 443 133 C 442 133 441 133 441 135 L 440 138 C 438 138 438 132 440 129 L 444 128 C 446 129 447 126 445 124 C 443 123 438 129 436 134 C 434 137 433 138 432 136 L 432 132 C 433 132 434 130 433 129 C 433 128 433 127 435 127 C 438 127 438 126 438 122 C 438 119 439 117 441 115 C 446 110 445 105 440 106 L 435 108 L 435 110 L 438 111 C 439 113 439 114 436 117 L 433 123 L 433 125 C 432 125 431 123 431 120 C 431 115 431 115 428 119 C 426 122 423 123 422 121 C 421 120 420 121 420 123 C 418 128 417 128 415 124 C 414 119 414 117 417 118 L 419 118 C 419 117 418 115 416 115 L 413 112 L 408 109 C 406 109 404 107 405 106 L 404 105 L 403 103 L 406 102 C 407 103 407 103 406 102 L 407 99 L 409 102 L 412 102 C 414 98 416 99 416 103 C 416 106 415 107 415 105 L 411 105 L 411 107 L 418 108 C 422 110 426 107 423 105 C 421 103 424 99 428 98 L 434 97 L 437 97 L 439 99 L 441 101 C 441 103 450 105 451 103 C 451 102 451 101 449 101 C 447 100 447 100 449 100 C 451 100 452 98 452 97 C 452 94 457 92 460 93 C 462 94 462 95 462 97 C 461 98 462 100 463 100 C 465 101 465 100 464 96 C 463 92 464 92 466 93 C 467 93 468 93 467 92 C 467 91 466 90 464 91 L 462 90 L 459 90 C 456 91 455 91 454 89 L 455 87 L 456 87 C 456 86 457 85 458 86 C 460 87 461 85 463 80 C 465 76 466 74 466 76 L 466 79 C 464 79 464 80 464 81 L 466 82 C 469 81 469 81 466 83 C 463 87 463 89 466 87 L 470 82 C 472 76 472 74 470 77 C 468 80 468 80 469 77 C 469 75 469 73 467 72 C 466 71 465 70 466 69 C 467 69 468 67 467 66 L 468 63 L 472 62 C 474 61 474 61 472 66 C 470 71 470 73 471 74 C 472 75 475 74 476 73 C 479 71 479 71 475 68 C 473 66 473 65 474 65 L 476 62 C 476 60 476 59 477 60 C 478 61 479 60 479 59 C 479 58 477 57 476 58 C 474 59 473 59 473 57 L 471 56 L 470 56 C 470 55 469 53 467 53 C 465 52 465 53 466 57 L 466 59 L 464 57 L 464 69 C 462 75 459 75 459 68 C 459 65 459 63 458 64 L 457 69 L 456 74 C 453 74 454 62 456 61 L 458 57 C 458 55 457 54 456 55 L 455 53 C 455 50 454 50 453 52 C 451 54 450 53 450 51 L 448 42 C 445 37 439 35 436 39 Z M 440 43 C 438 46 436 44 438 41 L 440 40 L 440 43 Z M 447 45 L 445 45 L 443 41 C 443 39 443 39 445 42 L 447 45 Z M 358 114 C 358 118 355 124 355 120 C 355 118 352 118 348 118 C 341 118 337 117 337 116 L 344 110 L 345 113 C 344 116 345 117 349 114 L 353 114 C 354 115 355 115 356 113 C 358 111 357 111 353 111 C 350 112 347 111 347 110 L 349 108 L 353 106 C 354 102 359 109 358 114 Z M 412 115 C 412 116 412 118 410 118 C 408 119 407 117 408 113 C 409 111 411 113 412 115 Z M 397 119 C 397 121 395 123 394 123 L 395 125 C 396 126 397 127 395 127 L 394 132 C 395 136 395 136 393 134 C 393 132 391 131 390 132 L 390 130 L 388 131 L 386 137 L 384 137 L 384 132 C 386 128 386 127 384 127 C 383 128 382 126 382 124 C 381 121 381 121 384 123 C 388 128 393 128 392 124 L 394 121 L 395 120 L 395 116 C 398 113 398 113 397 119 Z M 414 126 L 411 128 C 409 126 410 123 412 123 C 414 123 414 124 414 126 Z M 423 126 L 422 135 L 422 137 C 421 134 419 133 417 134 C 414 134 413 134 414 132 C 414 130 416 129 417 129 C 418 130 422 126 421 125 L 423 124 L 423 126 Z M 479 134 C 480 132 480 132 480 134 L 478 140 C 476 141 475 141 473 139 L 470 136 L 470 137 C 471 138 470 140 469 141 C 464 147 462 150 462 152 L 463 152 C 464 151 466 152 468 153 C 473 157 475 156 475 149 C 475 145 475 143 477 143 L 479 146 L 480 149 L 481 143 C 480 137 483 134 486 138 C 488 141 488 142 486 146 C 483 150 483 151 485 151 C 487 151 488 150 487 149 C 486 144 491 145 493 151 L 495 156 L 492 155 C 488 154 488 155 486 159 C 485 162 484 163 482 163 C 481 162 478 163 475 166 C 472 171 471 171 471 168 L 473 162 C 474 159 474 159 474 162 C 473 164 473 165 475 165 C 478 163 477 159 472 158 C 469 156 468 157 470 159 C 471 162 472 162 470 161 L 468 161 L 467 163 C 466 163 465 162 466 161 C 466 159 466 157 464 157 L 460 153 C 457 150 454 150 455 152 C 456 153 454 153 452 153 C 450 152 449 151 450 150 C 452 150 452 148 451 148 L 448 148 C 447 150 446 150 446 147 C 446 145 447 144 449 145 C 451 145 452 145 452 143 C 452 142 453 141 454 142 C 455 143 456 142 455 140 C 454 137 457 132 460 134 L 462 138 C 462 140 462 140 461 138 C 460 136 459 136 458 138 L 459 141 L 460 144 L 460 147 C 462 147 468 138 468 135 C 468 133 469 133 470 133 C 471 134 471 132 471 130 C 471 126 471 126 475 131 C 477 134 479 135 479 134 Z M 467 132 L 465 136 C 464 138 464 138 464 134 L 465 130 L 467 132 Z M 495 143 C 495 147 495 147 493 145 C 490 142 490 141 492 140 C 495 137 495 137 495 143 Z M 473 145 L 473 150 L 470 148 C 468 145 468 145 470 143 C 473 141 474 141 473 145 Z M 444 151 L 441 154 C 439 156 438 156 438 153 L 441 151 L 444 151 Z M 459 157 C 463 158 464 159 463 164 L 462 171 L 458 174 L 455 175 C 456 174 455 172 454 169 L 452 162 C 453 159 452 158 450 159 L 446 163 C 445 166 444 166 445 162 C 447 156 450 155 459 157 Z"/>
    <path id="path2" fill="#4d41a1" stroke="none" d="M 436 72 L 432 73 L 436 73 L 440 72 L 441 70 L 436 72 Z M 445 82 L 445 85 L 442 90 C 439 92 439 93 443 91 C 446 89 447 87 447 84 C 447 80 446 78 445 82 Z M 366 94 C 366 96 365 98 364 97 L 363 100 C 363 104 367 106 368 102 L 367 94 L 366 90 L 366 94 Z M 354 97 C 354 99 355 99 357 98 L 360 95 L 357 95 C 355 95 354 96 354 97 Z M 195 103 C 192 104 192 105 192 109 C 192 114 192 114 193 111 C 194 107 199 105 199 109 L 201 111 L 202 109 C 201 108 203 107 205 107 C 207 107 209 108 209 111 C 210 114 210 114 210 110 C 210 105 210 104 205 103 L 200 102 L 195 103 Z M 322 104 C 322 106 323 107 325 107 C 327 107 328 106 328 105 L 325 102 C 323 102 322 102 322 104 Z M 425 108 C 425 113 425 113 427 110 L 430 108 L 432 108 L 430 106 C 429 106 429 105 431 104 C 432 102 432 102 429 102 C 426 102 425 103 425 108 Z M 324 110 L 327 113 C 329 115 330 114 330 112 C 330 110 329 109 327 109 L 324 110 Z M 196 117 C 194 118 193 119 194 120 L 192 121 L 190 119 L 190 118 C 189 118 188 119 188 121 C 188 124 189 124 197 123 L 210 124 C 215 126 215 126 215 122 C 215 119 214 118 213 118 L 213 119 L 211 121 C 209 121 208 120 208 119 C 208 117 199 115 196 117 Z M 429 116 C 433 119 434 119 434 116 L 430 114 C 426 114 426 114 429 116 Z M 325 124 L 325 127 C 326 128 325 129 324 129 C 321 129 321 132 326 139 C 329 142 331 144 331 142 L 329 139 C 328 139 328 137 330 136 L 331 132 C 330 131 329 132 328 133 C 327 136 326 136 325 133 L 324 131 C 326 133 329 129 329 125 C 329 122 327 121 325 124 Z M 185 130 C 185 134 184 134 180 133 C 177 133 176 133 176 135 L 183 136 C 188 135 194 133 189 133 L 188 129 L 186 126 L 185 130 Z M 198 130 C 198 133 199 135 200 135 C 201 135 202 133 202 130 L 200 126 L 198 130 Z M 204 130 C 204 133 205 135 206 135 L 207 130 L 206 126 L 204 130 Z M 402 128 L 401 132 C 402 134 402 133 404 130 C 406 125 406 125 402 128 Z M 212 137 C 210 138 211 138 216 138 L 225 138 C 229 138 228 144 225 144 C 223 144 222 143 222 141 L 220 141 C 220 142 217 143 213 143 C 209 143 207 143 206 140 C 206 138 206 138 205 140 L 203 144 L 200 140 C 200 138 200 138 199 141 C 199 144 199 144 197 141 L 196 140 C 196 143 196 144 194 144 C 192 144 190 142 190 140 C 189 138 189 138 189 140 C 189 142 188 144 186 144 L 182 140 C 180 138 180 138 180 140 C 180 143 179 144 175 144 L 171 142 L 169 140 L 168 155 C 168 166 168 170 170 171 L 172 170 L 175 168 C 177 167 177 167 175 167 C 173 167 173 164 173 156 L 173 146 L 202 145 C 224 145 230 146 231 148 C 232 149 232 147 232 144 L 231 139 C 230 140 230 139 230 138 C 231 135 230 135 223 135 L 212 137 Z M 322 142 L 326 145 L 324 141 C 320 138 319 138 322 142 Z M 330 147 C 323 156 324 160 331 151 C 333 148 336 146 338 147 L 338 146 L 336 142 C 336 140 334 141 330 147 Z M 317 147 L 321 150 C 322 149 318 143 316 143 L 317 147 Z M 343 148 C 342 151 342 152 344 152 L 347 153 L 346 152 L 345 148 C 346 144 345 144 343 148 Z"/>
    <path id="path3" fill="#4d41a1" stroke="none" d="M 224 151 L 220 153 C 220 155 222 156 225 155 L 226 157 C 226 158 227 159 229 159 L 232 160 C 231 165 232 166 235 164 C 238 163 238 163 238 165 L 240 169 L 241 168 C 240 167 241 167 244 167 C 246 168 247 169 246 170 L 248 174 C 250 176 250 177 249 177 L 248 178 L 248 180 L 245 178 C 245 176 244 176 243 178 C 241 180 241 180 243 180 L 244 180 C 244 183 247 182 252 178 C 255 175 258 175 261 176 L 265 177 L 261 173 C 258 170 252 170 249 172 L 248 168 C 248 163 247 162 244 162 C 239 160 237 158 237 156 C 238 153 236 153 234 155 C 233 157 232 156 230 154 L 224 151 Z M 292 153 L 287 156 L 282 163 C 278 169 277 172 278 176 L 279 181 L 283 177 L 286 171 L 287 170 L 291 166 C 293 164 293 164 294 165 C 295 167 296 167 298 165 L 298 162 C 296 162 296 162 297 161 L 299 162 C 301 164 301 163 301 157 C 300 149 297 148 292 153 Z M 295 161 L 293 161 L 289 164 C 286 168 286 166 289 161 C 291 158 295 158 295 161 Z M 304 152 C 302 155 303 157 306 157 L 306 158 C 302 160 305 161 311 161 C 317 160 318 161 316 162 L 312 163 L 310 163 L 313 166 L 315 166 L 316 164 C 317 164 318 166 318 170 C 319 175 319 175 321 171 L 320 165 L 325 167 C 327 168 327 167 327 165 C 326 163 325 163 324 163 L 324 162 L 323 159 C 321 159 320 158 320 157 C 320 156 320 155 319 156 L 317 155 L 315 153 L 313 152 C 313 149 306 150 304 152 Z M 357 153 L 359 155 L 363 153 L 361 151 L 357 153 Z M 387 153 C 383 155 383 158 387 159 C 389 160 389 160 387 160 C 385 160 384 161 384 162 L 387 163 C 389 162 390 163 390 164 L 392 165 C 392 164 393 164 393 166 L 392 168 L 393 168 L 397 170 C 400 173 400 170 397 167 C 394 164 394 163 397 161 C 399 159 399 159 397 158 L 397 155 C 399 152 399 152 398 155 C 398 156 398 157 399 156 C 401 154 400 151 397 151 C 394 151 392 157 394 160 C 394 161 394 162 392 162 C 390 162 389 158 390 154 L 391 151 L 387 153 Z M 205 156 L 202 161 L 198 167 L 195 170 L 186 170 C 180 171 174 177 174 184 L 172 187 L 172 185 L 171 183 L 169 179 C 169 177 167 176 165 176 C 163 176 162 175 163 173 C 163 170 158 169 157 172 L 155 173 C 154 172 151 175 148 179 C 143 185 142 185 140 182 C 137 179 136 178 137 181 C 138 183 138 183 136 181 L 129 179 C 126 179 124 178 124 177 C 124 172 117 172 114 176 L 110 179 C 109 178 106 180 103 184 L 97 189 L 95 194 C 93 199 88 202 88 197 C 88 194 78 191 75 193 C 74 194 73 194 74 192 L 72 192 C 69 192 69 193 71 196 C 74 200 74 207 71 205 C 70 205 69 204 70 203 L 69 201 L 67 203 L 64 204 L 63 206 C 63 209 66 211 67 207 C 67 206 68 205 69 206 L 69 209 C 69 211 70 212 71 212 L 73 211 C 75.96563 206.642975 78.965721 202.309509 82 198 L 81 198 C 79 198 78 203 80 205 L 82 205 C 82 204 83 203 84 204 C 85 205 85 204 85 203 C 85 201 96 202 99 204 C 101 205 101 205 99 202 C 98 200 97 199 99 197 L 99 193 L 102 194 C 106 197 108 197 108 193 C 108 192 107 192 107 194 C 106 196 105 196 104 194 C 103 192 104 191 105 191 L 110 186 C 113 183 113 183 116 186 L 118 187 C 117 186 118 185 119 184 C 120 184 120 183 118 183 C 115 183 115 180 117 178 L 118 178 L 121 182 C 124 184 126 184 128 183 C 130 181 130 181 130 183 C 129 185 136 187 138 186 C 139 185 139 186 139 187 C 139 190 138 190 130 190 C 124 190 120 191 120 192 L 129 193 C 136 193 139 192 140 189 C 142 187 142 187 143 189 L 145 192 L 157 192 C 158 194 159 193 160 192 C 161 190 158 189 153 190 L 148 189 C 145 187 146 187 150 185 L 156 184 C 157 185 157 184 157 183 C 157 182 159 181 162 181 C 165 181 166 182 166 184 C 165 185 164 187 162 187 L 161 189 C 162 190 163 189 165 187 C 167 185 168 185 171 187 C 174 189 174 189 176 186 C 177 184 178 183 180 183 C 182 183 183 182 182 180 C 182 178 182 178 185 179 L 189 178 L 192 174 C 194 173 195 172 194 174 L 197 174 C 200 172 202 172 204 172 C 206 172 207 165 205 163 C 204 162 205 161 207 159 C 209 158 210 158 210 160 L 211 160 C 211 158 212 158 213 158 L 214 156 C 214 155 213 154 210 154 C 207 154 205 155 205 156 L 205 156 Z M 368 156 C 369 158 370 158 371 157 C 372 155 373 155 374 157 C 374 158 374 158 374 157 C 374 155 372 154 370 154 C 367 154 366 154 368 156 Z M 426 156 L 425 160 C 425 162 426 162 428 161 C 431 158 433 158 433 161 L 432 161 L 431 162 C 431 165 433 166 434 164 L 436 163 L 436 161 C 435 158 433 157 431 158 L 428 157 L 426 156 Z M 356 159 L 358 163 C 360 163 361 161 361 159 C 361 156 361 156 359 159 C 358 161 358 161 357 159 C 356 156 356 157 356 159 Z"/>
    <path id="path4" fill="#4d41a1" stroke="none" d="M 220 160 C 218 162 217 163 219 164 L 223 161 C 225 157 224 157 220 160 Z M 268 160 C 268 162 267 163 266 162 C 264 161 261 169 262 171 C 264 174 266 172 266 168 C 266 166 266 165 267 166 L 268 171 C 267 175 269 180 270 179 C 273 177 272 174 270 175 L 269 175 C 271 173 275 172 275 174 C 275 176 276 176 276 175 L 276 170 C 275 167 274 167 272 169 C 270 171 270 171 271 168 L 270 161 C 269 157 269 157 268 160 Z M 368 160 C 365 161 365 162 368 162 C 369 162 370 162 369 163 L 373 170 C 377 174 378 175 375 174 C 373 174 372 174 373 176 C 374 179 376 179 377 176 C 378 175 379 176 380 178 C 381 180 382 181 382 179 C 382 177 381 175 379 174 C 377 172 377 171 379 168 C 381 166 381 165 379 163 C 376 159 371 158 368 160 Z M 378 168 C 376 170 373 168 374 165 L 377 165 C 378 166 379 167 378 168 Z M 3 163 L 3 166 L 5 171 C 5 173 4 174 3 173 C 1 172 1 172 1 174 C 2 175 4 176 5 175 C 7 174 8 175 7 176 C 6 179 11 180 14 177 C 16 175 17 174 15 173 L 13 173 C 12 174 8 170 8 167 L 6 163 L 3 163 Z M 212 163 C 208 164 208 168 212 168 C 213 168 215 167 215 165 L 216 162 L 212 163 Z M 303 165 C 302 167 305 171 308 171 C 310 171 311 171 309 170 L 308 167 C 309 164 305 163 303 165 Z M 338 168 C 337 172 337 173 339 174 C 341 176 341 176 339 176 L 335 178 C 335 179 335 180 336 179 C 337 178 339 178 339 180 L 343 180 C 344 178 346 178 347 179 L 351 180 L 352 181 C 352 182 354 183 357 183 C 361 183 361 184 359 185 C 358 186 358 187 360 186 C 362 186 363 187 363 190 C 362 194 362 194 365 191 C 367 189 367 188 366 187 L 362 183 L 362 180 L 366 180 C 367 178 369 178 370 179 L 370 174 C 369 170 364 172 361 177 C 359 181 358 181 358 179 C 358 176 357 176 354 176 C 350 177 349 177 349 175 C 349 172 349 172 348 174 C 347 176 346 176 346 172 L 346 167 L 345 165 L 344 169 C 345 172 344 175 343 177 L 341 179 L 341 170 C 340 164 340 164 338 168 Z M 360 167 L 362 169 L 363 167 L 362 164 C 361 164 360 165 360 167 Z M 382 169 L 383 173 C 385 174 386 171 384 168 C 383 166 383 167 382 169 Z M 437 166 L 436 170 C 437 172 436 173 434 172 C 431 171 431 171 434 173 C 436 174 436 176 436 178 C 435 181 436 182 437 182 C 438 182 439 181 438 180 L 439 175 C 440 171 438 164 437 166 Z M 330 169 L 328 171 L 327 171 L 328 174 C 329 177 329 177 330 174 L 331 169 L 330 169 Z M 240 170 C 238 171 237 178 239 178 L 241 173 C 244 169 243 168 240 170 Z M 386 174 C 386 178 387 180 388 180 L 390 178 L 392 176 C 393 175 393 175 392 176 C 390 176 388 175 387 172 C 386 169 386 169 386 174 Z M 52 176 C 50 179 48 181 47 180 L 44 181 L 40 182 L 37 185 C 35 187 35 187 37 186 C 38 185 39 186 39 187 C 40 188 39 188 37 188 C 34 188 32 191 34 193 C 35 194 36 193 36 192 L 38 190 C 39 192 36 195 33 197 C 30 197 28 197 25 194 C 22 190 18 190 19 194 L 15 195 C 12 194 10 195 8 197 C 7 199 4 200 2 200 C -1 200 -3 202 -3 204 C -4 207 1 208 2 205 C 2 204 4 203 7 203 C 9 203 12 202 12 200 C 14 197 19 197 20 201 C 21 204 21 204 22 201 C 23 199 24 199 27 201 L 30 201 L 33 204 C 36 209 37 209 37 205 L 35 201 L 39 198 C 42 196 43 194 42 193 C 41 192 41 191 44 188 C 47 185 51 185 51 189 L 49 190 C 47 189 47 190 47 193 L 48 196 L 51 192 L 53 185 L 53 184 L 55 184 L 58 178 L 59 177 C 58 179 59 179 60 178 L 63 179 L 60 182 C 58 182 57 184 57 187 C 57 190 56 192 54 193 C 52 194 52 194 54 197 C 58 201 57 203 54 199 C 51 195 46 197 46 200 C 46 202 47 204 49 204 C 53 206 53 208 50 210 C 48 212 48 212 51 212 C 56 212 56 209 52 204 C 49 199 50 198 55 202 L 57 205 C 55 205 55 206 58 209 L 60 212 C 59 212 58 213 59 214 L 61 216 C 63 216 63 211 60 209 C 57 206 60 199 66 199 L 70 198 C 70 197 69 196 68 197 C 64 199 64 194 67 191 C 69 189 70 186 70 184 C 70 180 74 180 77 186 C 79 188 81 190 82 189 C 84 188 83 187 81 186 C 79 186 79 185 80 185 C 83 185 82 183 78 182 L 75 180 C 74 178 72 177 70 178 C 68 179 68 181 68 184 C 69 188 69 188 67 184 C 65 181 65 180 67 178 C 69 176 69 176 66 175 L 62 175 L 58 174 C 56 172 55 173 52 176 Z M 66 186 L 64 188 L 61 190 C 59 190 59 190 59 187 L 61 184 C 62 185 63 184 63 183 L 64 182 L 66 186 Z M 63 194 C 61 196 61 196 63 196 C 64 196 64 197 62 198 C 58 200 57 200 57 197 C 57 195 57 194 58 195 L 60 194 L 62 192 C 64 192 65 193 63 194 Z M 206 172 L 207 176 C 208 178 208 178 210 175 L 210 171 L 206 172 Z M 297 175 L 299 175 L 300 178 C 300 181 300 181 302 178 C 304 174 303 173 300 173 C 298 173 297 174 297 175 Z M 222 177 C 223 182 225 187 227 187 L 226 183 L 223 178 L 223 175 L 222 177 Z M 214 178 L 212 182 C 212 186 215 183 216 179 C 216 176 216 176 214 178 Z M 234 178 L 234 181 L 232 185 L 231 187 C 233 187 237 182 237 180 C 237 178 234 176 234 178 Z M 272 180 L 273 183 C 274 183 275 184 274 185 L 276 184 C 278 183 278 181 278 180 C 276 177 274 177 272 180 Z M 14 181 L 13 185 L 8 185 C 8 187 6 188 1 187 L -2 188 L -1 191 C -0 191 1 191 1 193 L -1 193 L -1 194 C 1 196 1 197 2 195 L 5 192 L 6 190 C 5 189 8 189 11 189 C 16 189 18 189 18 187 C 17 186 18 185 19 185 L 20 183 L 18 182 C 18 183 16 183 16 181 L 14 181 Z M 199 184 C 199 186 199 187 201 187 C 202 187 203 188 202 189 L 203 192 C 205 194 206 193 209 191 C 212 187 211 186 207 189 C 206 190 204 189 203 186 C 201 182 200 182 199 184 Z M 372 186 L 371 192 L 369 196 C 369 198 370 197 372 194 L 372 185 L 372 186 Z M 374 186 L 378 188 C 380 188 381 188 379 186 C 376 183 374 183 374 186 Z M 190 187 L 190 189 C 192 191 195 189 195 187 C 195 184 193 184 190 187 Z M 318 189 C 318 192 318 193 320 191 C 321 189 323 189 326 191 C 328 192 329 192 330 190 L 327 187 L 321 186 C 319 184 318 185 318 189 Z"/>
    <path id="path5" fill="#4d41a1" stroke="none" d="M 354 188 L 354 191 L 353 199 C 353 204 353 204 355 201 C 356 198 356 198 357 201 C 358 202 359 203 360 202 C 361 202 361 201 359 200 L 359 197 L 361 194 C 361 192 360 192 359 194 C 356 198 354 197 355 193 C 357 188 357 187 354 187 L 354 188 Z M 451 190 C 449 193 451 194 453 191 L 457 188 C 460 187 459 187 457 187 C 454 187 452 188 451 190 Z M 276 192 C 274 194 275 195 277 197 L 280 197 L 279 192 C 278 190 277 191 276 192 Z M 308 192 C 306 193 300 200 300 203 L 305 199 C 307 195 310 194 312 195 C 313 195 314 195 313 194 L 314 191 L 314 190 L 308 192 Z M 46 195 C 46 196 45 197 43 197 L 42 199 C 43 200 44 200 45 198 C 47 197 47 195 47 194 L 46 195 Z M 261 195 L 262 198 C 265 200 266 198 264 195 L 261 195 Z M 153 197 C 150 201 151 203 154 201 C 157 198 158 195 156 195 L 153 197 Z M 207 198 L 198 199 C 190 200 189 200 189 204 C 189 208 189 208 190 205 C 191 202 192 201 200 201 L 210 203 C 211 204 212 203 212 202 L 210 200 L 208 199 C 209 197 209 196 207 198 Z M 219 201 L 217 205 C 219 205 224 199 223 198 L 219 201 Z M 233 198 C 232 201 237 204 239 201 C 240 199 240 199 238 199 C 237 200 235 200 235 198 L 233 198 Z M 325 199 C 325 200 324 201 322 200 C 319 200 318 200 320 203 C 321 205 322 206 322 204 L 325 202 C 328 202 329 200 327 198 L 325 199 Z M 340 199 L 342 203 C 346 207 347 207 347 204 C 347 202 341 198 340 199 Z M 135 202 C 135 203 135 206 137 208 C 139 210 140 211 141 209 C 143 207 142 206 140 203 C 137 201 136 200 135 202 Z M 293 204 C 293 206 293 207 295 207 C 297 206 297 201 294 200 L 293 204 Z M 14 202 L 14 205 C 16 207 20 208 20 206 C 20 205 19 204 17 204 C 15 204 15 203 17 202 L 17 200 L 14 202 Z M 40 205 C 42 210 43 211 44 208 L 46 207 C 48 209 47 207 45 204 C 41 200 39 200 40 205 Z M 177 206 L 174 210 C 176 210 185 204 184 203 C 183 201 182 202 177 206 Z M 361 205 C 362 208 364 209 364 207 L 364 204 L 362 202 L 361 205 Z M 116 206 L 111 209 C 109 210 110 210 113 210 L 117 209 L 119 206 L 120 205 L 116 206 Z M 162 207 C 162 209 163 210 164 210 L 165 207 L 164 204 C 163 204 162 205 162 207 Z M 225 206 C 225 208 225 208 227 207 C 229 206 230 207 229 208 C 228 209 229 210 230 212 C 231 214 231 213 231 210 C 230 206 227 203 225 206 Z M 311 208 L 310 210 L 308 210 C 309 213 312 212 315 209 C 318 207 318 207 316 207 L 313 207 L 311 205 L 311 208 Z M 77 207 C 74 209 74 212 77 212 C 79 212 80 211 80 209 L 80 206 L 77 207 Z M 95 208 C 93 210 94 210 96 209 C 99 208 101 209 102 211 C 104 213 104 213 103 209 C 100 205 98 205 95 208 Z"/>
    <path id="path6" fill="#4d41a1" stroke="none" d="M 158 210 C 157 215 159 217 163 213 C 165 211 164 211 162 212 C 160 213 159 212 160 209 L 160 206 L 158 210 Z M 193 209 C 194 211 196 211 197 211 C 201 209 201 207 196 207 C 193 207 192 207 193 209 Z M 207 209 L 210 212 C 212 212 213 212 213 210 L 210 207 C 208 207 207 207 207 209 Z M 438 207 C 438 209 444 214 445 213 L 442 209 L 438 207 Z M 179 210 L 179 211 L 181 214 C 181 216 182 216 183 216 L 183 211 C 182 209 181 208 179 210 Z M 216 210 L 220 212 L 223 210 C 224 209 222 208 220 208 C 217 208 215 209 216 210 Z M 270 212 C 271 215 271 216 272 214 C 274 211 273 208 271 208 L 270 212 Z M 325 210 L 322 212 C 319 210 319 211 323 214 C 326 217 326 217 325 215 C 324 213 324 212 326 213 C 328 214 329 213 327 209 C 326 207 325 207 325 210 Z M 428 209 C 426 211 427 213 430 215 L 433 215 C 432 214 433 213 434 213 C 435 213 434 211 432 210 L 428 209 Z M 383 213 L 385 217 L 386 213 L 385 210 C 383 210 383 211 383 213 Z M 11 214 C 11 215 11 216 13 216 L 16 214 C 16 213 16 212 14 212 L 11 214 Z M 106 215 C 104 219 105 220 109 218 C 113 217 113 217 110 214 C 107 212 106 213 106 215 Z M 190 212 C 189 215 192 220 194 219 L 194 214 C 192 212 191 211 190 212 Z M 282 215 C 282 217 283 219 285 220 C 287 222 288 221 288 218 L 287 215 L 286 214 C 286 213 286 212 284 212 C 283 212 282 213 282 215 Z M 423 217 L 426 222 L 427 224 C 427 225 428 227 431 228 L 435 230 L 433 228 L 432 225 L 431 223 C 430 224 428 221 426 218 C 422 210 421 210 423 217 Z M 72 219 C 66 227 66 228 69 226 C 71 225 72 223 71 222 L 73 221 L 76 217 C 77 213 75 213 72 219 Z M 146 216 C 146 218 146 218 148 217 L 152 215 C 154 214 153 214 151 214 L 146 216 Z M 201 216 C 204 217 206 219 207 221 L 209 222 C 210 220 204 215 200 214 C 198 214 199 214 201 216 Z M 358 215 L 355 216 L 355 217 C 357 219 357 219 360 216 L 361 213 L 358 215 Z M 451 216 L 451 219 L 454 217 C 455 215 456 215 456 217 C 456 220 458 220 459 216 C 460 213 454 213 451 216 Z M 82 217 C 82 220 83 221 86 221 C 88 221 89 220 89 219 C 88 218 87 217 86 218 C 85 219 84 218 83 217 C 82 214 82 214 82 217 Z M 170 216 C 166 217 166 218 169 219 C 170 219 173 219 174 217 C 177 214 177 214 170 216 Z M 303 217 C 304 218 303 219 302 218 L 299 218 L 302 221 C 305 222 306 218 303 215 L 303 217 Z M 213 221 L 215 227 C 217 229 217 228 216 223 C 214 217 213 216 213 221 Z M 219 219 L 221 221 C 223 221 224 222 224 223 L 226 224 C 229 222 231 225 228 227 C 226 228 226 229 226 230 C 227 230 229 230 230 228 C 232 227 232 226 231 225 L 231 222 L 229 221 L 223 219 L 219 219 Z M 177 219 L 182 221 L 186 220 L 182 218 L 177 219 Z M 311 220 L 307 223 L 309 223 L 313 224 C 315 226 315 225 315 222 L 315 219 L 311 220 Z M 336 220 L 341 220 C 343 219 342 219 338 219 C 335 219 334 219 336 220 Z M 112 223 C 112 223 111 225 109 225 C 105 226 104 229 107 231 C 108 231 109 231 110 229 C 110 227 112 227 113 227 L 113 226 C 112 224 113 224 115 225 L 120 224 C 121 223 120 223 117 222 L 112 223 Z M 351 223 L 351 228 L 349 228 C 347 227 347 227 348 229 C 350 231 353 230 352 227 C 351 226 352 225 353 224 L 353 220 C 352 220 351 221 351 223 Z M 393 225 L 392 229 C 394 229 396 225 395 222 L 393 225 Z M 11 226 L 16 229 C 17 228 12 222 9 222 L 11 226 Z M 75 226 L 74 229 C 75 228 78 230 81 232 C 83 235 86 236 88 236 C 89 235 88 235 87 235 C 84 235 84 234 87 231 L 91 228 L 87 228 L 82 230 C 81 230 79 230 78 228 L 78 226 L 80 224 C 80 221 77 222 75 226 Z M 280 225 C 277 229 277 229 280 230 L 282 230 L 282 226 C 284 222 282 222 280 225 Z M 299 224 C 301 228 305 229 305 226 L 304 225 C 303 226 301 225 300 224 C 298 221 297 221 299 224 Z M 405 225 L 404 228 L 405 227 C 405 225 407 225 409 225 C 410 226 411 225 411 224 C 410 222 406 223 405 225 Z M 203 226 L 203 229 L 204 228 L 208 227 C 210 228 210 228 210 226 C 209 223 206 223 203 226 Z M 329 226 L 324 227 C 322 226 321 226 323 228 C 326 232 332 232 332 227 C 332 223 332 223 329 226 Z M 355 227 C 353 230 353 230 356 228 C 359 225 359 225 358 229 L 359 235 C 360 236 361 235 361 230 C 361 223 359 222 355 227 Z M 365 226 L 367 230 C 370 233 371 230 368 226 L 365 226 Z M 446 227 L 445 231 L 448 227 C 450 225 451 224 449 224 L 446 227 Z M 452 227 C 449 230 449 230 452 230 C 454 230 454 231 453 232 L 454 233 L 455 230 L 456 227 C 458 224 456 224 452 227 Z M 43 231 L 42 237 C 40 238 41 242 43 241 C 45 240 46 229 44 227 C 42 226 42 227 43 231 Z M 160 234 C 160 236 159 237 158 237 C 156 237 156 238 156 239 L 160 240 L 169 237 C 171 237 172 236 172 234 C 172 231 171 231 168 234 C 166 237 165 237 163 234 C 160 232 160 232 160 234 Z M 278 234 C 278 236 278 237 279 236 L 283 238 L 286 240 L 282 235 C 279 232 278 232 278 234 Z M 35 238 C 36 242 35 243 33 242 C 31 242 31 242 31 244 L 34 246 C 37 246 38 239 36 235 C 35 233 35 234 35 238 Z M 49 235 L 51 239 L 53 242 L 55 245 L 55 240 C 53 234 48 230 49 235 Z M 222 237 C 219 239 219 239 223 239 L 227 237 C 227 235 225 234 222 237 Z M 304 236 L 308 239 L 308 238 C 307 237 306 236 307 235 C 307 234 307 233 305 233 C 303 233 302 234 304 236 Z M 338 236 C 336 239 337 239 340 239 C 342 239 343 238 343 236 L 342 233 L 338 236 Z M 434 237 L 433 239 L 437 237 C 439 235 440 234 438 234 L 434 237 Z M 449 236 L 448 240 C 446 240 447 241 449 242 L 453 243 L 452 242 L 450 240 L 450 235 C 448 232 448 232 449 236 Z M 107 237 L 104 238 L 102 239 C 101 241 107 240 109 237 C 111 235 110 234 107 237 Z M 320 236 C 318 238 319 238 320 240 C 322 242 323 241 323 238 C 323 234 323 234 320 236 Z M 95 240 L 91 244 C 92 245 101 239 101 238 C 101 236 101 236 95 240 Z M 172 240 L 168 243 C 167 242 166 244 166 247 L 167 253 L 167 252 C 166 250 175 238 177 240 L 178 239 C 178 236 176 236 172 240 Z M 348 238 L 352 242 L 356 244 L 353 240 C 349 237 348 236 348 238 Z M 414 239 C 412 242 414 243 417 241 C 420 240 420 239 417 238 L 414 239 Z M 9 243 L 14 245 C 16 244 19 245 20 246 C 22 248 26 249 26 247 C 26 245 25 244 24 244 L 14 242 C 8 241 7 241 9 243 Z M 57 243 C 57 245 58 246 59 246 C 61 246 61 245 60 243 L 58 240 L 57 243 Z M 204 243 C 205 245 207 246 207 243 L 205 241 L 204 243 Z M 248 242 C 246 243 246 244 246 245 C 247 246 248 246 250 244 C 253 241 253 240 248 242 Z M 363 242 L 363 246 L 364 246 L 367 243 C 370 243 370 243 367 242 L 363 242 Z M 441 244 C 440 247 440 247 444 249 L 447 250 L 444 246 L 442 241 L 441 244 Z M 126 244 L 126 246 L 131 247 L 133 246 C 133 243 128 242 126 244 Z M 217 246 C 217 248 218 249 219 249 C 221 249 222 248 222 247 C 222 246 221 245 220 246 L 218 245 C 218 243 217 244 217 246 Z M 271 246 L 275 247 C 277 247 278 246 278 245 C 277 243 271 244 271 246 Z M 324 246 C 324 248 325 249 327 250 L 329 249 C 328 248 329 247 330 247 L 333 246 L 329 244 C 326 244 324 245 324 246 Z M 115 250 L 119 253 C 121 253 120 252 118 250 L 114 246 L 115 250 Z M 353 246 L 353 253 C 354 253 355 252 355 250 C 355 249 356 247 358 247 C 360 246 359 246 357 246 L 353 246 Z M 340 251 L 342 253 L 346 254 C 351 254 347 251 342 250 C 339 250 338 250 340 251 Z M 22 253 L 25 255 C 27 255 28 256 28 257 C 29 259 30 259 31 259 C 33 257 32 255 28 253 C 24 250 21 250 22 253 Z M 56 254 C 53 256 53 257 56 257 C 57 257 59 256 59 254 C 61 250 60 250 56 254 Z M 80 255 C 77 258 76 264 78 264 C 80 264 83 259 84 256 C 84 251 84 251 80 255 Z M 442 254 L 443 256 L 444 256 C 444 257 446 258 449 258 C 452 258 453 258 452 257 C 450 257 449 255 448 254 C 447 250 443 250 442 254 Z"/>
    <path id="path7" fill="#4d41a1" stroke="none" d="M 49 254 L 49 258 C 52 261 54 261 54 256 C 54 253 53 252 49 254 Z M 179 256 L 175 258 L 173 260 C 173 262 173 262 172 261 C 170 258 165 256 166 258 L 166 260 C 165 260 164 261 164 263 L 166 265 L 170 268 C 172 271 172 271 169 270 L 165 269 L 168 271 C 171 273 172 274 171 277 L 171 279 C 174 276 175 266 173 265 C 172 265 172 264 173 265 C 175 265 176 264 176 263 L 177 263 C 178 264 182 265 188 265 C 195 265 197 265 197 263 C 197 261 195 260 191 260 C 180 261 179 260 179 258 L 182 256 L 183 255 C 183 252 181 253 179 256 Z M 386 258 L 386 262 L 387 264 C 387 266 379 264 374 261 C 372 259 371 259 370 261 L 369 259 C 369 254 369 254 367 258 C 367 260 365 262 363 262 C 360 261 359 259 363 259 L 364 258 L 357 259 L 350 259 L 348 257 C 346 257 347 258 349 260 C 350 261 352 262 353 261 C 354 260 354 261 354 263 C 353 265 355 265 365 265 L 383 266 C 390 268 390 268 391 262 L 390 256 L 389 257 C 389 259 388 258 388 256 C 387 253 386 253 386 258 Z M 16 257 C 18 258 19 259 18 260 L 17 264 C 18 267 17 267 14 267 C 12 267 11 265 11 264 L 10 262 L 9 265 C 10 267 9 268 8 268 L 3 269 C 2 270 1 270 2 268 L 1 266 L -1 268 C -1 270 -2 270 -2 268 L -4 266 L -6 268 C -6 270 -8 267 -9 263 C -12 257 -12 257 -12 261 C -11 263 -12 266 -13 268 C -15 270 -17 271 -16 268 C -15 266 -17 266 -21 267 L -40 269 C -15.346165 270.641754 9.399532 270.307343 34 268 C 44 267 47 264 44 260 C 42 259 41 259 41 261 L 40 264 L 39 261 C 40 258 40 258 38 261 C 35 265 35 265 35 261 C 35 259 35 258 34 260 L 28 263 C 25 263 24 264 24 266 C 25 268 25 268 23 266 L 20 266 C 20 268 19 267 19 265 C 19 262 20 260 21 260 C 22 260 22 259 20 258 L 15 255 C 13 255 14 256 16 257 Z M 156 259 L 152 262 C 151 262 151 263 153 264 C 157 266 162 265 163 262 C 163 261 163 260 161 261 C 158 263 157 260 160 258 L 161 255 L 156 259 Z M 253 257 L 249 258 L 253 260 C 256 261 256 261 251 263 C 242 266 248 268 266 267 L 287 266 C 289 266 290 265 290 264 C 290 263 285 262 279 262 L 264 261 L 258 259 C 257 257 255 257 253 257 Z M 453 260 C 450 262 448 265 448 266 L 451 263 C 454 260 455 260 458 263 C 461 266 461 266 459 263 C 457 261 457 260 458 257 C 461 253 458 255 453 260 Z M 401 259 C 401 260 400 261 398 260 C 396 260 395 260 395 264 L 397 268 C 399 268 399 267 398 265 C 396 263 396 263 400 263 L 407 266 C 410 268 412 268 412 267 L 423 266 L 431 266 L 427 265 L 422 262 C 421 260 419 260 419 260 L 410 262 C 404 262 402 262 402 259 L 401 259 Z M 85 261 C 83 263 83 264 89 265 C 99 267 145 266 147 264 C 148 263 147 262 143 262 L 135 262 C 134 261 133 262 132 263 C 132 264 131 264 130 262 C 129 260 129 259 127 261 C 124 263 123 263 120 261 C 116 258 116 259 114 261 C 113 265 110 265 110 262 C 110 260 107 259 104 261 L 102 261 L 99 262 L 94 263 C 92 263 91 263 91 261 C 92 258 89 258 85 261 Z M 337 262 L 336 265 L 334 263 L 332 262 L 332 264 C 334 266 334 267 332 267 C 329 268 329 268 332 269 L 334 270 C 334 273 326 271 324 268 C 323 266 322 266 321 267 C 320 269 313 269 304 269 C 282 269 295 271 327 273 C 350 275 351 274 349 272 C 348 269 347 269 346 270 C 344 273 340 273 341 270 L 343 270 L 344 266 L 344 263 L 342 265 C 341 265 340 265 341 264 L 339 260 C 337 258 337 259 337 262 Z M 341 266 L 339 270 C 337 272 335 270 336 267 C 337 265 340 265 341 266 Z M 199 262 C 199 264 208 265 222 265 C 237 265 243 265 242 263 C 240 261 198 260 199 262 Z M 53 264 C 56 266 73 267 72 265 C 71 264 67 263 61 263 C 55 263 52 263 53 264 Z"/>
    <path id="path8" fill="#4d41a1" stroke="none" d="M 305 263 L 302 266 C 302 268 308 267 310 266 C 311 264 309 262 305 263 Z M 178 272 L 179 275 C 179 276 180 277 182 277 L 184 273 C 184 270 183 269 181 269 C 179 269 178 270 178 272 Z M 213 270 L 217 272 L 220 270 L 216 269 L 213 270 Z M 415 271 C 417 273 425 274 425 272 C 425 271 423 270 420 270 L 415 271 Z M 431 271 L 432 275 C 433 278 434 278 436 276 L 438 271 L 437 271 C 436 273 435 273 435 272 L 433 270 L 431 271 Z M 126 273 L 127 277 L 129 283 C 128 286 129 289 130 291 C 131 294 131 294 131 289 L 133 281 C 134 280 133 278 130 276 C 129 273 127 273 126 273 Z"/>
    <path id="path9" fill="#4d41a1" stroke="none" d="M 440 276 C 439 278 437 279 435 279 L 431 281 L 429 282 L 428 283 C 428 286 431 286 433 284 C 433 282 435 283 436 285 C 437 287 438 288 439 286 L 438 284 C 437 283 437 282 439 280 L 441 275 C 441 274 442 274 444 276 C 445 280 445 280 443 281 C 442 282 441 282 442 283 C 443 284 445 283 447 281 L 450 278 L 446 275 C 441 272 441 272 440 276 Z M 187 276 C 187 278 186 279 184 279 L 183 281 C 184 282 183 283 182 284 C 180 284 179 286 179 288 L 178 290 L 177 293 C 178 294 179 293 180 291 C 182 285 185 284 185 289 C 185 292 186 294 187 294 L 188 289 C 188 280 188 275 190 276 L 192 276 L 190 274 C 188 274 187 275 187 276 Z M 219 275 L 220 280 C 221 282 222 283 224 281 L 226 277 C 226 276 225 276 224 278 C 223 280 222 279 223 275 L 219 275 Z M 257 277 L 257 282 C 258 283 261 281 261 278 C 261 274 258 274 257 277 Z M 197 277 L 199 279 C 201 280 202 283 202 285 L 203 289 L 204 284 C 202 278 197 272 197 277 Z M 81 280 C 80 283 82 285 84 285 L 85 281 C 85 279 85 279 87 281 C 88 283 88 283 88 281 C 87 278 82 277 81 280 Z M 207 280 C 205 281 206 282 208 284 L 212 284 C 214 279 212 278 207 280 Z M 230 283 L 232 286 L 233 283 L 232 279 L 230 283 Z M 274 283 C 275 286 274 289 273 289 L 274 291 C 276 292 277 291 277 288 L 275 281 C 274 279 274 280 274 283 Z M 279 283 L 281 287 L 282 284 L 281 280 C 280 280 279 281 279 283 Z M 67 284 C 68 286 67 286 66 286 C 65 285 65 285 65 287 C 65 289 64 290 63 290 L 62 295 C 62 300 64 301 65 295 L 67 291 C 68 292 69 290 69 288 L 69 283 L 68 281 L 67 284 Z M 147 285 C 147 288 148 289 150 288 L 153 285 L 150 282 C 148 281 147 282 147 285 Z M 191 284 C 190 286 190 287 192 287 C 193 287 194 287 194 289 L 195 290 L 194 285 C 193 281 193 281 191 284 Z M 453 283 L 449 284 L 445 286 C 445 288 445 288 448 288 C 449 287 452 288 453 289 L 453 292 L 455 296 C 457 300 457 300 451 302 C 444 305 443 306 447 310 L 451 310 C 453 308 453 308 451 308 L 449 306 L 453 304 L 457 302 C 457 300 458 301 458 302 C 459 304 460 304 460 303 L 458 299 L 458 295 C 460 294 460 293 460 292 C 459 291 458 292 457 293 C 455 296 454 294 455 287 C 455 281 455 280 453 283 Z M 56 285 C 54 288 56 296 58 295 C 60 294 61 289 59 285 L 56 285 Z M 157 285 C 155 288 156 288 158 288 C 160 288 162 287 162 285 C 162 282 159 282 157 285 Z M 234 286 L 233 293 C 233 296 233 296 236 296 C 238 295 238 293 238 289 C 238 283 234 281 234 286 Z M 76 286 L 73 291 C 70 293 70 293 73 296 L 76 302 C 77 305 77 305 77 302 L 76 298 C 74 297 74 296 76 294 L 77 287 C 76 285 76 284 76 286 Z M 124 287 C 124 288 124 289 122 289 L 119 292 L 120 296 L 121 293 C 121 290 122 290 123 292 C 124 294 124 294 125 291 C 126 287 126 285 124 285 L 124 287 Z M 215 287 L 221 287 L 217 285 C 214 285 213 286 215 287 Z M 308 288 L 303 290 C 300 290 299 294 301 294 C 308 296 310 295 310 290 L 310 285 L 308 288 Z M 83 287 C 81 289 82 298 85 298 C 86 298 87 297 87 295 C 87 294 86 293 85 294 L 85 292 C 87 289 86 284 83 287 Z M 22 289 C 23 291 22 291 20 292 C 16 292 16 292 19 293 C 23 294 26 291 23 289 L 22 289 Z M 280 289 C 279 291 281 294 283 294 L 284 291 C 284 288 282 287 280 289 Z M 132 292 L 137 293 L 141 291 L 137 290 C 134 290 132 291 132 292 Z M 434 292 C 432 293 432 294 432 296 L 433 304 L 435 308 L 437 304 L 438 298 L 438 291 C 439 289 438 290 434 292 Z M 45 296 L 48 299 C 50 299 49 295 46 294 L 45 296 Z M 33 299 C 31 300 31 302 31 303 L 32 309 L 33 313 L 34 310 C 34 305 37 304 39 308 C 39 311 41 311 45 311 C 48 310 50 309 50 307 C 50 305 49 305 46 306 L 40 305 L 41 303 L 42 301 L 39 300 C 37 300 36 299 36 298 C 37 295 36 295 33 299 Z M 51 300 C 51 305 53 310 57 310 C 58 310 59 309 59 305 C 59 299 58 298 55 302 C 54 303 53 303 52 299 L 51 295 L 51 300 Z M 174 298 C 174 299 175 300 177 300 L 181 303 C 183 304 182 302 180 300 C 176 296 174 295 174 298 Z M 372 298 C 370 301 372 303 374 301 L 374 297 L 372 298 Z M 22 300 C 20 303 21 305 24 304 L 24 300 L 22 300 Z M 439 308 C 437 311 438 314 442 314 C 445 314 445 313 445 311 C 444 308 440 306 439 308 Z"/>
    <path id="path10" fill="#4d41a1" stroke="none" d="M 455 307 L 454 313 C 454 318 451 322 450 320 L 450 317 C 451 317 452 316 451 315 C 450 312 445 318 445 322 C 445 327 445 327 450 324 C 454 322 457 325 454 328 L 452 333 C 452 335 453 334 454 332 C 455 328 458 326 458 330 L 460 332 L 464 334 C 466 338 468 338 468 335 L 465 332 L 462 329 L 461 326 L 460 323 C 461 322 460 321 457 322 C 454 323 453 322 454 321 L 458 319 L 460 316 C 460 313 459 312 457 315 C 455 317 455 317 455 312 L 455 307 Z M 401 314 L 400 318 C 401 319 406 313 405 311 C 403 309 402 310 401 314 Z M 416 315 C 414 317 416 317 424 317 L 432 319 C 434 321 438 320 438 316 L 437 316 C 437 317 435 318 434 317 C 432 317 431 316 432 315 L 425 314 L 416 315 Z M 403 323 C 404 327 404 328 402 327 L 401 324 L 400 321 L 399 326 L 400 338 C 400 342 400 343 401 339 C 402 337 403 336 403 339 C 403 346 405 343 405 336 L 406 326 C 406 326 406 323 404 321 C 402 318 402 318 403 323 Z M 389 330 L 388 332 L 387 336 L 385 341 C 382 342 385 346 389 346 C 392 346 392 346 389 347 C 387 348 387 349 388 349 L 393 347 L 395 344 L 395 337 C 393 337 393 339 393 341 C 393 344 392 345 390 344 C 386 343 386 344 389 338 C 392 332 392 328 390 328 L 389 330 Z M 193 336 C 193 338 194 338 195 338 C 196 337 197 338 197 339 L 198 341 L 198 337 C 197 333 193 333 193 336 Z M 156 346 C 157 348 166 349 165 347 L 160 345 L 156 346 Z M 319 356 C 318 357 320 357 323 358 L 327 357 C 326 355 321 354 319 356 Z M 52 358 L 56 360 L 59 359 L 56 357 L 52 358 Z M 93 360 L 96 361 L 99 363 C 100 365 100 364 100 362 C 100 359 99 358 96 358 C 94 358 93 359 93 360 Z M 76 362 C 77 362 78 364 77 365 C 77 367 78 366 79 365 L 83 361 L 79 361 C 76 361 75 361 76 362 Z M 240 366 L 243 367 L 247 365 L 244 364 L 240 366 Z M 27 372 C 27 374 28 375 29 375 C 30 375 31 374 31 372 L 29 370 L 27 372 Z M 327 379 L 323 381 L 328 381 C 330 381 332 380 332 378 L 332 376 L 327 379 Z M 247 378 C 247 380 253 381 254 379 C 254 378 253 377 251 377 L 247 378 Z M 183 382 L 179 383 L 183 383 L 189 384 C 193 386 193 384 189 382 L 183 382 Z M 351 380 L 357 381 L 360 381 C 357 379 350 378 351 380 Z M 15 383 L 19 384 L 22 382 L 18 381 L 15 383 Z M 164 382 L 164 384 L 170 384 C 173 386 174 385 172 383 C 170 379 166 379 164 382 Z M 51 385 L 55 388 L 55 387 L 54 384 C 55 383 53 382 52 382 C 48 382 48 382 51 385 Z M 311 387 L 316 388 L 321 387 C 321 386 312 385 311 387 Z M 256 388 C 254 390 255 391 260 389 C 262 389 263 388 261 387 L 256 388 Z M 331 389 C 331 390 333 391 336 391 L 341 390 C 341 389 339 388 336 388 L 331 389 Z M 344 390 L 348 392 L 351 391 L 348 389 L 344 390 Z M 387 390 L 382 390 C 378 390 378 390 381 392 C 384 393 385 393 387 391 L 389 388 L 387 390 Z M 292 395 C 292 397 293 397 294 396 L 301 395 L 305 395 L 298 393 C 294 393 292 393 292 395 Z M 205 395 C 206 397 220 398 219 396 L 211 394 L 205 395 Z M 272 396 C 270 397 269 398 270 399 L 275 397 C 279 393 277 393 272 396 Z M 31 396 L 32 400 C 33 402 33 401 34 399 C 35 396 33 393 31 396 Z M 71 397 C 69 399 70 399 72 399 C 76 397 77 395 74 395 L 71 397 Z M 317 399 L 320 399 C 322 397 321 396 319 396 C 316 396 315 397 317 399 Z M 145 403 C 142 404 142 404 146 404 L 150 402 C 150 400 149 401 145 403 Z M 159 402 C 158 403 160 404 163 404 L 169 403 C 169 401 162 400 159 402 Z M 235 405 C 235 406 236 407 238 407 L 240 406 L 238 403 C 236 403 235 403 235 405 Z M 253 404 L 251 407 L 253 407 C 253 406 255 405 256 406 L 258 405 C 258 403 256 402 253 404 Z M 384 405 C 384 407 385 408 386 408 C 388 408 388 407 387 405 L 385 402 L 384 405 Z M 194 408 L 199 409 L 207 411 L 209 410 C 209 409 209 408 207 408 L 200 407 L 194 408 Z M 213 409 C 211 412 210 413 212 414 L 214 413 C 213 412 214 410 216 409 L 218 406 L 213 409 Z M 398 408 L 403 408 C 405 407 404 407 400 407 C 397 407 396 407 398 408 Z M 433 409 L 429 411 L 433 411 L 437 409 L 438 408 L 433 409 Z M 27 414 L 29 417 L 29 414 L 27 410 L 27 414 Z M 96 414 L 100 417 C 101 417 102 417 102 415 L 98 413 C 95 413 94 414 96 414 Z M 160 417 C 156 421 158 421 164 417 C 167 414 168 413 166 413 L 160 417 Z M 120 473 C 116 477 118 477 124 473 C 127 470 128 469 126 469 L 120 473 Z M 292 415 C 292 417 296 416 298 414 L 296 413 L 292 415 Z M 72 418 C 76 424 82 428 84 425 L 85 420 C 85 419 84 419 84 422 C 82 426 82 426 80 423 L 78 421 C 78 422 76 421 74 418 L 70 414 L 72 418 Z M 33 474 C 36 480 42 484 44 481 L 45 476 C 45 475 44 475 44 478 C 42 482 42 482 40 479 L 38 477 C 38 478 36 477 34 474 L 30 470 L 33 474 Z M 56 420 C 56 423 55 424 49 423 C 45 422 47 424 52 425 C 54 426 56 425 56 424 C 56 423 57 423 58 425 L 62 426 L 61 425 C 60 425 58 423 58 420 C 57 417 56 417 56 420 Z M 16 476 C 16 479 15 480 9 479 C 5 478 7 480 12 481 C 14 482 16 481 16 480 C 16 479 17 479 18 481 L 22 482 L 21 481 C 20 481 18 479 18 476 C 17 473 16 473 16 476 Z M 128 418 L 125 421 C 125 424 125 424 128 421 L 132 420 L 133 419 C 133 417 133 416 128 418 Z M 88 474 L 85 477 C 85 480 85 480 88 477 L 92 476 L 93 475 C 93 473 93 472 88 474 Z M 232 418 C 227 420 227 420 232 421 L 238 419 C 240 416 240 416 232 418 Z M 192 474 C 187 476 187 476 192 477 L 198 475 C 200 472 200 472 192 474 Z M 345 418 L 347 420 C 349 419 351 420 351 421 C 352 422 352 422 352 420 C 351 417 346 416 345 418 Z M 305 474 L 307 476 C 309 475 311 476 311 477 C 312 478 312 478 312 476 C 311 473 306 472 305 474 Z M 13 423 C 13 425 13 426 14 425 C 15 424 15 425 15 426 L 19 428 L 23 428 L 19 426 L 15 422 C 14 420 14 421 13 423 Z M 34 421 C 35 423 34 423 32 423 L 28 425 C 28 427 34 426 36 423 L 35 421 L 34 421 Z M 399 421 C 398 422 398 423 400 424 C 403 425 406 424 406 422 C 406 420 401 419 399 421 Z M 359 477 C 358 478 358 479 360 480 C 363 481 366 480 366 478 C 366 476 361 475 359 477 Z M 425 422 C 424 425 427 426 430 423 C 433 421 433 421 430 422 L 427 421 C 427 419 426 420 425 422 Z M 385 478 C 384 481 387 482 390 479 C 393 477 393 477 390 478 L 387 477 C 387 475 386 476 385 478 Z M 107 423 L 102 424 C 99 423 99 423 99 425 L 103 427 C 106 427 110 424 109 422 L 107 423 Z M 67 479 L 62 480 C 59 479 59 479 59 481 L 63 483 C 66 483 70 480 69 478 L 67 479 Z M 286 423 C 288 426 294 427 293 425 C 293 424 291 422 289 422 L 286 423 Z M 246 479 C 248 482 254 483 253 481 C 253 480 251 478 249 478 L 246 479 Z M 146 424 C 147 428 151 428 152 424 C 152 421 152 421 151 424 C 150 426 149 426 149 424 L 147 422 L 146 424 Z M 106 480 C 107 484 111 484 112 480 C 112 477 112 477 111 480 C 110 482 109 482 109 480 L 107 478 L 106 480 Z M 113 428 L 118 429 L 120 431 C 120 433 118 435 117 435 C 113 436 113 439 118 438 C 120 437 121 436 121 432 C 121 428 120 427 116 427 C 112 427 111 427 113 428 Z M 73 484 L 78 485 L 80 487 C 80 489 78 491 77 491 C 73 492 73 495 78 494 C 80 493 81 492 81 488 C 81 484 80 483 76 483 C 72 483 71 483 73 484 Z M 323 430 C 321 431 320 432 322 434 L 324 433 C 325 432 327 431 328 432 C 330 433 330 433 329 430 L 327 427 L 323 430 Z M 283 486 C 281 487 280 488 282 490 L 284 489 C 285 488 287 487 288 488 C 290 489 290 489 289 486 L 287 483 L 283 486 Z M 5 432 L 5 434 L 6 436 L 9 436 C 11 435 13 434 14 435 L 15 433 C 15 430 14 430 12 432 L 9 432 C 9 429 8 429 5 432 Z M 68 432 L 74 437 C 75 438 76 439 75 437 C 74 435 76 435 78 437 L 85 440 L 88 440 L 83 437 C 82 435 80 434 78 434 L 73 432 L 68 430 C 65 430 65 430 68 432 Z M 28 488 L 34 493 C 35 494 36 495 35 493 C 34 491 36 491 38 493 L 45 496 L 48 496 L 43 493 C 42 491 40 490 38 490 L 33 488 L 28 486 C 25 486 25 486 28 488 Z M 449 434 L 447 434 L 438 435 C 433 437 434 437 441 437 C 446 437 450 436 451 434 L 451 432 L 449 434 Z M 409 490 L 407 490 L 398 491 C 393 493 394 493 401 493 C 406 493 410 492 411 490 L 411 488 L 409 490 Z M 44 436 C 42 437 43 438 46 439 L 52 438 L 51 436 L 48 435 L 44 436 Z M 101 436 C 98 438 98 438 102 438 L 106 436 L 101 436 Z M 61 492 C 58 494 58 494 62 494 L 66 492 L 61 492 Z M 148 437 L 149 438 C 150 437 152 438 152 439 L 156 441 L 158 439 L 156 438 C 155 439 154 438 154 437 C 154 434 149 434 148 437 Z M 108 493 L 109 494 C 110 493 112 494 112 495 L 116 497 L 118 495 L 116 494 C 115 495 114 494 114 493 C 114 490 109 490 108 493 Z M 204 438 L 207 441 C 209 441 210 441 210 439 C 210 436 206 435 204 438 Z M 164 494 L 167 497 C 169 497 170 497 170 495 C 170 492 166 491 164 494 Z M 313 439 C 314 441 318 440 318 438 L 315 437 L 313 439 Z M 273 495 C 274 497 278 496 278 494 L 275 493 L 273 495 Z M 333 438 C 331 441 332 443 334 441 L 340 440 C 342 441 343 441 341 439 C 338 437 335 436 333 438 Z M 293 494 C 291 497 292 499 294 497 L 300 496 C 302 497 303 497 301 495 C 298 493 295 492 293 494 Z M 129 441 C 131 442 131 443 129 444 C 128 445 128 445 130 445 C 133 445 133 441 129 439 L 129 441 Z M 89 497 C 91 498 91 499 89 500 C 88 501 88 501 90 501 C 93 501 93 497 89 495 L 89 497 Z M 139 441 L 134 442 L 140 442 L 146 440 L 139 441 Z M 99 497 L 94 498 L 100 498 L 106 496 L 99 497 Z M 395 440 L 400 440 C 402 439 401 439 397 439 C 394 439 393 439 395 440 Z M 355 496 L 360 496 C 362 495 361 495 357 495 C 354 495 353 495 355 496 Z M 96 444 C 93 446 93 446 96 446 L 98 444 L 102 444 C 102 441 98 441 96 444 Z M 56 500 C 53 502 53 502 56 502 L 58 500 L 62 500 C 62 497 58 497 56 500 Z M 257 444 L 260 444 L 263 441 L 260 441 C 258 441 257 442 257 444 Z M 217 500 L 220 500 L 223 497 L 220 497 C 218 497 217 498 217 500 Z M 325 445 C 324 446 324 447 323 446 L 319 447 C 316 448 316 448 320 449 L 324 448 L 327 448 L 327 442 C 327 442 325 443 325 445 Z M 285 501 C 284 502 284 503 283 502 L 279 503 C 276 504 276 504 280 505 L 284 504 L 287 504 L 287 498 C 287 498 285 499 285 501 Z M 452 443 C 449 444 449 445 452 446 L 455 445 C 455 443 456 443 457 445 C 458 448 458 448 458 445 C 457 442 455 441 452 443 Z M 117 446 C 117 449 117 450 119 450 C 122 450 122 449 120 445 C 118 443 118 444 117 446 Z M 77 502 C 77 505 77 506 79 506 C 82 506 82 505 80 501 C 78 499 78 500 77 502 Z M 378 447 C 378 450 379 452 380 452 C 382 452 381 448 379 445 C 378 443 378 444 378 447 Z M 338 503 C 338 506 339 508 340 508 C 342 508 341 504 339 501 C 338 499 338 500 338 503 Z M 386 445 C 386 447 390 449 392 447 L 391 445 C 388 442 386 443 386 445 Z M 346 501 C 346 503 350 505 352 503 L 351 501 C 348 498 346 499 346 501 Z M 103 447 C 103 448 104 449 106 449 C 111 449 111 448 107 446 L 103 447 Z M 63 503 C 63 504 64 505 66 505 C 71 505 71 504 67 502 L 63 503 Z M 306 447 C 302 450 302 452 305 452 L 307 450 C 306 449 307 448 308 447 L 310 445 L 306 447 Z M 266 503 C 262 506 262 508 265 508 L 267 506 C 266 505 267 504 268 503 L 270 501 L 266 503 Z M 348 447 C 346 449 347 449 350 449 C 355 448 355 447 352 446 L 348 447 Z M 308 503 C 306 505 307 505 310 505 C 315 504 315 503 312 502 L 308 503 Z M 17 450 C 21 453 22 453 20 449 L 17 447 C 14 447 14 447 17 450 Z M 123 450 C 121 453 122 454 125 452 L 128 449 C 128 446 125 447 123 450 Z M 83 506 C 81 509 82 510 85 508 L 88 505 C 88 502 85 503 83 506 Z M 426 449 L 425 452 C 426 452 428 452 430 450 C 432 448 433 447 431 447 L 426 449 Z M 386 505 L 385 508 C 386 508 388 508 390 506 C 392 504 393 503 391 503 L 386 505 Z M 56 451 L 60 454 C 62 454 63 454 61 452 C 59 449 56 448 56 451 Z M 16 507 L 20 510 C 22 510 23 510 21 508 C 19 505 16 504 16 507 Z M 204 451 C 201 452 201 452 206 453 L 212 452 C 214 451 213 450 211 451 L 207 450 L 204 451 Z M 164 507 C 161 508 161 508 166 509 L 172 508 C 174 507 173 506 171 507 L 167 506 L 164 507 Z M 34 451 L 33 455 C 34 457 35 456 35 454 C 37 450 36 449 34 451 Z M 272 451 C 273 452 272 454 271 454 C 268 455 268 455 271 455 C 275 455 276 453 273 450 L 272 451 Z M 232 507 C 233 508 232 510 231 510 C 228 511 228 511 231 511 C 235 511 236 509 233 506 L 232 507 Z M 177 454 L 173 455 L 178 455 L 182 454 L 182 452 L 177 454 Z M 137 510 L 133 511 L 138 511 L 142 510 L 142 508 L 137 510 Z M 369 455 C 367 458 369 460 371 458 L 371 454 L 369 455 Z M 329 511 C 327 514 329 516 331 514 L 331 510 L 329 511 Z M 416 456 C 418 458 426 459 425 457 L 421 456 L 419 456 C 419 455 418 454 416 454 L 416 456 Z M 412 499 C 409 500 409 501 412 502 L 415 501 C 415 499 416 499 417 501 C 418 504 418 504 418 501 C 417 498 415 497 412 499 Z M 441 499 L 445 503 C 447 505 448 504 448 502 C 448 500 447 500 446 500 C 445 501 443 500 443 499 L 442 497 L 441 499 Z M 447 509 L 450 511 C 452 511 452 510 452 509 L 449 507 C 447 507 447 508 447 509 Z M 376 512 C 378 514 386 515 385 513 L 381 512 L 379 512 C 379 511 378 510 376 510 L 376 512 Z"/>
</svg>
