<?xml version="1.0" encoding="UTF-8"?>
<!-- Generated by Pixelmator Pro 3.7.1 -->
<svg width="1234" height="1614" viewBox="0 0 1234 1614" xmlns="http://www.w3.org/2000/svg">
    <g id="pitcher-image">
        <path id="Path" fill="#4d41a1" fill-rule="evenodd" stroke="none" d="M 694 121 C 689 129 689 129 690 132 L 699 139 C 708 146 709 148 708 157 C 707 165 707 173 710 180 L 712 187 C 711 188 704 188 693 186 C 667 183 654 186 628 204 C 617 211 617 211 601 210 C 592 209 588 210 582 215 C 578 218 577 218 574 217 C 571 217 569 217 567 219 L 554 224 C 553 223 558 214 562 210 C 568 203 570 199 570 196 C 570 193 566 186 565 188 L 558 202 C 553 215 553 216 551 215 C 548 212 545 204 544 197 L 542 188 C 541 183 532 182 531 187 L 535 202 C 539 214 540 219 537 219 L 524 213 L 509 206 C 506 206 506 206 508 209 C 509 211 513 214 520 217 C 536 226 535 225 530 229 C 527 231 526 232 517 232 C 503 232 501 233 503 243 C 504 247 504 247 507 247 L 517 243 C 525 240 538 237 538 240 L 531 250 C 521 264 520 267 525 267 C 529 267 532 263 538 253 L 544 243 L 546 243 L 547 261 C 546 280 546 281 553 281 L 557 282 C 557 283 551 291 546 295 C 540 300 535 308 530 317 L 510 362 C 504 380 502 382 496 377 L 493 374 L 495 371 L 500 366 C 504 363 505 360 503 356 L 501 354 L 499 358 L 494 365 C 491 370 488 369 489 362 L 493 351 C 498 342 498 340 493 339 C 487 337 486 338 486 342 L 485 355 C 484 363 481 376 478 378 C 478 379 473 378 466 375 L 453 371 C 452 371 450 378 452 380 L 458 381 L 467 382 L 472 383 L 464 391 C 460 396 455 400 454 400 L 449 396 C 444 390 443 389 437 393 L 432 397 L 440 401 L 453 411 C 463 423 462 427 445 436 C 437 441 436 441 437 443 C 440 447 445 444 459 433 L 464 430 L 461 442 L 457 454 C 459 455 461 452 465 444 L 469 434 C 471 434 483 440 484 442 C 485 444 484 469 482 470 C 481 471 468 476 467 475 L 470 466 L 473 457 C 472 455 472 455 467 464 C 460 477 459 477 452 467 C 446 459 444 457 441 459 C 438 461 439 464 444 467 C 450 471 459 480 459 482 L 457 483 L 428 480 C 426 481 426 482 426 486 L 426 491 L 429 490 C 449 487 453 487 454 489 C 455 490 454 491 446 500 L 439 509 C 440 508 442 509 447 517 L 453 526 L 451 520 L 449 513 C 449 509 461 486 462 486 C 465 486 464 499 462 511 L 460 526 C 461 530 461 531 459 533 C 457 535 456 535 446 535 L 433 535 L 434 538 C 437 542 442 543 452 541 L 461 539 L 458 546 L 455 556 L 451 564 C 449 567 441 572 440 571 L 442 562 C 445 551 444 550 438 560 L 432 568 L 429 560 L 426 550 C 425 549 420 548 419 550 L 420 555 L 423 564 L 424 568 L 419 568 C 416 567 412 566 410 564 L 403 561 C 401 561 400 561 398 564 L 395 567 L 397 570 C 399 572 401 572 409 573 L 423 575 C 431 578 430 580 417 584 L 405 588 L 406 591 C 407 593 408 593 411 593 L 420 589 L 430 587 C 433 587 434 587 438 591 C 445 599 445 601 440 613 L 426 653 C 424 662 422 668 419 668 C 417 669 402 666 402 666 L 411 658 C 416 655 420 651 419 651 L 409 655 L 406 656 L 404 650 L 403 644 C 402 643 401 645 399 649 C 396 655 394 658 391 658 L 381 651 L 370 644 C 369 644 367 651 368 653 L 372 657 C 384 662 388 663 388 665 L 382 670 C 376 674 374 676 374 680 L 377 681 C 380 681 382 680 387 675 C 394 667 395 668 392 680 C 390 689 390 692 393 690 C 394 689 395 688 395 685 C 395 680 397 676 400 674 L 415 674 C 421 676 421 677 420 695 C 417 717 417 718 415 720 C 411 724 398 722 398 717 L 401 707 L 404 697 L 402 697 C 401 697 399 699 397 705 L 392 713 L 387 711 C 380 708 372 707 368 708 L 361 715 L 372 716 C 383 716 387 717 387 721 C 387 724 385 725 377 727 C 369 729 363 734 363 737 L 364 740 C 366 743 370 741 377 734 C 382 730 383 729 384 730 C 385 731 385 732 383 735 C 379 742 377 748 378 749 C 380 750 383 747 387 738 C 390 734 392 730 393 731 L 396 740 C 398 747 398 748 399 746 L 399 738 C 398 733 399 730 402 727 C 406 723 413 724 416 730 L 420 758 C 420 762 419 763 413 771 L 405 780 C 404 781 404 778 402 769 L 400 758 L 399 758 C 398 759 397 760 398 765 C 400 781 400 780 398 779 L 388 774 C 381 770 377 769 374 771 C 371 774 373 776 386 779 C 409 785 408 789 386 791 C 373 792 369 793 369 795 L 370 800 C 372 804 374 804 388 799 C 397 795 399 794 400 796 C 401 797 399 799 393 808 L 386 820 C 387 822 391 821 393 818 C 397 815 405 798 405 796 C 405 791 407 786 412 780 L 418 772 C 420 768 421 769 423 777 L 427 785 C 429 785 428 779 425 759 C 423 747 423 741 423 722 L 423 699 L 427 676 C 438 627 439 623 448 607 C 457 593 496 540 503 534 C 505 532 505 532 506 535 C 507 538 507 540 504 545 C 500 557 497 561 486 573 C 467 596 460 607 450 631 C 435 667 428 696 429 726 C 430 744 436 791 438 792 C 440 794 439 777 436 757 C 434 736 434 715 437 697 C 441 677 448 648 451 640 C 457 623 469 603 483 586 C 493 574 507 553 509 547 C 511 541 513 540 514 543 C 515 547 512 562 507 568 C 506 572 501 578 497 583 L 462 632 C 454 645 448 665 444 686 L 442 720 C 442 749 443 755 453 796 C 460 825 463 832 465 830 L 460 808 C 451 771 446 741 446 725 C 446 717 450 682 453 669 C 458 644 468 626 491 600 C 508 581 514 571 516 557 C 516 553 518 550 519 549 C 520 548 520 548 522 550 C 524 553 525 559 523 568 C 520 578 517 584 510 593 C 493 614 492 615 492 618 C 492 622 494 622 497 618 L 507 605 C 521 587 526 577 528 564 C 528 558 529 557 530 557 L 532 558 L 532 571 C 532 591 529 597 511 617 C 490 639 483 651 477 672 C 471 694 470 700 470 719 C 470 743 473 759 483 796 L 511 900 C 517 922 518 933 518 963 C 517 983 517 991 515 1000 C 510 1029 492 1074 487 1070 L 498 1041 L 508 1014 L 510 996 L 512 971 C 508.488129 922.199463 498.39679 874.097412 482 828 C 466 778 462 760 460 734 C 458.245239 695.183716 467.612549 656.673584 487 623 C 486 622 485 623 479 632 C 472 641 461 675 458 695 C 456 705 457 737 459 756 C 461 770 463 778 470 799 C 481 836 499 901 502 921 C 507.88739 946.60321 508.567535 973.128723 504 999 C 498 1029 489 1054 475 1084 C 464 1107 458 1124 455 1138 C 453 1152 454 1187 457 1196 L 459 1202 L 458 1194 C 456 1171 458 1148 463 1133 C 465 1124 468 1130 465 1142 C 460 1171 464 1198 484 1251 C 488 1264 489 1267 489 1274 C 489 1284 485 1302 483 1303 C 480 1303 480 1298 483 1290 L 484 1281 C 484 1276 476 1249 469 1229 C 461 1207 461 1208 460 1208 L 461 1214 C 463 1224 462 1231 458 1227 C 450.23172 1199.380493 447.521454 1170.583984 450 1142 C 451 1132 452 1124 451 1120 C 451 1113 451 1113 453 1112 C 457 1111 460 1107 461 1100 L 464 1091 C 466 1087 467 1081 465 1083 L 460 1095 C 458 1102 456 1106 455 1106 C 453 1106 453 1105 454 1101 C 454 1095 453 1094 451 1100 C 446.951569 1113.630127 444.929932 1127.781494 445 1142 L 442 1139 C 439 1137 439 1136 440 1129 C 441.945129 1112.413818 445.290375 1096.021973 450 1080 L 439 1074 L 429 1069 L 438 1064 C 445 1061 448 1059 447 1058 C 447 1057 445 1057 440 1059 C 427 1063 423 1061 423 1051 C 423 1044 421 1038 419 1037 C 417 1037 417 1042 419 1051 C 420 1061 420 1060 418 1060 C 416 1060 414 1058 410 1054 C 403 1047 399 1044 395 1044 C 392 1044 391 1045 389 1047 C 386 1050 387 1050 398 1056 C 406 1060 411 1064 410 1064 C 402.322021 1069.491577 393.905151 1073.868408 385 1077 L 386 1079 C 390 1082 394 1082 402 1076 C 410 1071 416 1069 421 1070 C 422 1070 423 1072 423 1079 C 425 1093 426 1096 428 1095 L 429 1083 L 430 1073 L 444 1081 L 446 1083 L 445 1091 L 435 1134 C 434 1136 430 1138 427 1136 C 424 1134 424 1133 429 1128 L 432 1122 L 426 1125 L 421 1127 L 422 1117 L 423 1105 L 423 1103 L 420 1105 C 418 1107 418 1109 417 1115 L 415 1123 C 414 1125 411 1123 405 1118 L 398 1115 C 391 1115 392 1117 403 1124 C 417 1133 417 1134 400 1134 L 388 1134 L 388 1140 C 388 1146 388 1146 390 1146 L 411 1139 C 417 1139 420 1146 420 1158 C 420 1162 421 1163 423 1160 C 425 1158 425 1156 424 1150 C 422 1144 423 1142 427 1142 C 434 1142 438 1149 438 1160 L 440 1168 C 442 1174 441 1176 435 1182 C 431 1187 426 1195 426 1198 C 426 1199 429 1198 430 1195 L 440 1184 C 442 1184 444 1190 444 1194 L 444 1199 L 439 1201 L 423 1205 L 423 1190 C 422 1175 422 1172 419 1172 L 418 1190 L 418 1208 L 413 1210 L 401 1212 L 391 1214 C 390 1215 389 1223 391 1223 L 405 1217 C 418 1212 420 1212 420 1215 L 411 1225 L 403 1234 L 406 1236 C 410 1239 411 1239 412 1234 L 418 1225 C 422 1219 422 1218 424 1219 C 426 1220 426 1221 426 1230 C 426 1240 427 1243 428 1236 L 429 1226 L 430 1219 L 436 1216 L 441 1214 L 437 1210 L 432 1206 L 443 1203 C 445 1203 447 1207 451 1217 L 461 1241 C 473 1264 477 1280 477 1299 C 477 1312 475 1321 468 1335 C 460 1350 459 1353 455 1354 C 452 1356 452 1356 450 1353 C 448 1350 449 1346 455 1344 C 459 1341 460 1339 457 1339 C 442.627533 1339.324585 428.27832 1340.325684 414 1342 L 300 1348 C 258.92926 1354.223999 217.926865 1360.891113 177 1368 L 166 1372 C 158 1373 153 1376 144 1383 C 137.118652 1388.056274 129.748611 1392.411377 122 1396 C 120 1398 117 1399 117 1398 C 115 1397 114 1401 114 1409 C 114 1417 116 1427 121 1437 C 124 1443 124 1451 122 1463 C 120 1472 118 1477 114 1481 C 111 1484 110 1485 110 1487 C 111 1489 112 1489 116 1489 L 137 1492 L 160 1495 C 183.376389 1496.880615 206.714111 1499.214355 230 1502 C 233 1500 233 1499 230 1496 C 228 1494 226 1494 216 1493 C 203 1493 201 1492 201 1487 L 196 1454 C 196 1446 196 1446 216 1446 C 231 1446 233 1446 234 1448 C 236 1450 236 1454 238 1473 L 240 1498 C 241 1503 240 1502 266 1503 L 348 1504 C 401 1505 406 1505 433 1503 C 454 1501 476 1501 526 1500 C 566.654053 1502.260376 607.420044 1498.554321 647 1489 C 690.864746 1483.043823 733.440552 1469.865601 773 1450 C 775 1448 774 1446 770 1414 C 767 1395 766 1389 767 1388 L 775 1386 C 783 1385 788 1382 792 1374 C 797 1366 797 1359 793 1347 C 786 1331 785 1324 784 1309 C 784 1298 784 1293 786 1280 C 790.606995 1253.471069 794.27594 1226.787842 797 1200 C 802.204468 1175.745728 800.823364 1150.540527 793 1127 L 788 1107 L 777 1084 C 765 1060 764 1058 766 1051 C 785.686157 1035.852539 803.480408 1018.394104 819 999 C 827 989 839 976 852 964 C 869 947 874 942 878 936 C 883 926 883 926 887 944 C 888 951 891 961 894 967 C 903 991 905 1005 905 1048 C 905 1077 905 1078 907 1087 C 909 1092 912 1102 916 1109 C 920 1119 921 1121 922 1128 C 923 1145 922 1149 919 1160 L 915 1180 L 913 1195 L 912 1221 C 912.38916 1249.749268 910.718262 1278.489502 907 1307 L 903 1341 C 898 1360 888 1380 868 1410 C 850 1438 841 1446 821 1453 C 814 1456 814 1458 821 1465 C 829 1473 840 1476 864 1476 L 881 1476 L 900 1471 L 931 1462 C 941 1459 943 1458 945 1455 C 948 1450 948 1445 944 1434 C 940 1420 940 1418 941 1408 C 944 1387 948 1376 967 1336 L 992 1279 C 994 1271 999 1260 1003 1252 L 1013 1229 L 1017 1220 L 1016 1190 C 1016 1158 1015 1141 1011 1122 C 1009 1108 1008 1102 1010 1091 L 1013 1063 C 1014 1041 1015 1039 1024 1010 C 1027 1000 1031 988 1031 983 C 1035 964 1036 938 1033 892 C 1032 871 1036 856 1045 835 L 1049 821 C 1048 818 1048 818 1051 815 L 1065 805 C 1080 795 1086 790 1090 780 L 1097 769 L 1101 761 C 1102 757 1105 754 1108 752 L 1116 750 C 1122 749 1124 748 1124 745 C 1124 743 1121 741 1110 734 L 1074 716 L 1033 692 C 1012 679 990 667 989 669 L 1019 691 C 1045.077393 709.879456 1073.267822 725.65271 1103 738 L 1108 742 L 1101 747 C 1093 752 1092 753 1089 762 C 1087 766 1086 768 1084 769 C 1082 770 1082 771 1080 777 C 1080 779 1078 782 1072 788 C 1059 799 1053 804 1042 809 C 1027 816 1023 820 993 848 C 985.218506 856.171326 976.08429 862.937439 966 868 L 952 877 C 944 883 939 885 908 894 C 863 908 856 911 846 919 C 840 924 836 925 833 922 C 831 920 831 920 833 900 C 835.134888 870.690552 834.800354 841.253418 832 812 L 831 833 C 828 898 827 913 824 918 C 822 919 822 919 809 914 C 783 903 778 902 761 907 C 745 911 729 910 728 905 C 743.899231 873.144897 762.997498 842.989685 785 815 L 797 813 C 811 810 823 807 836 800 C 845 796 848 795 849 796 C 850 798 850 809 848 840 L 847 864 C 850 871 854 843 854 812 L 855 791 C 857 788 863 783 865 783 C 867 783 868 788 868 796 C 866.694153 827.648987 866.360657 859.330566 867 891 L 870 891 C 871 890 872 884 872 853 C 873 811 874 784 876 780 L 879 775 C 883 772 905 755 907 755 C 910 754 910 756 907 772 C 903.610901 803.94989 906.671326 836.255005 916 867 C 919 870 920 869 921 866 L 921 854 C 912 805 911 790 913 767 C 915 750 920 742 933 731 C 953 715 966 698 975 678 C 979.526184 666.79071 984.530762 655.78064 990 645 C 992 636 992 622 990 615 C 984 597 977 590 964 590 C 956 590 952 588 948 584 C 944 580 943 576 943 553 C 943.07135 492.046143 931.53241 431.636353 909 375 C 906 367 896 355 888 346 C 863.868774 322.49646 836.198853 302.925171 806 288 C 790 279 789 278 789 271 C 789 265 786 258 781 248 C 776 238 776 233 780 232 L 790 232 L 809 234 C 823 235 824 235 829 243 C 831 247 833 249 834 249 C 837 249 854 232 854 229 C 822.983826 203.847412 792.960999 177.494019 764 150 C 759 144 754 140 744 134 L 724 120 C 712 109 709 107 703 111 C 701 111 698 116 694 121 Z M 720 142 L 734 153 L 754 168 L 764 175 C 770 177 771 177 770 174 L 727 138 C 722 134 720 134 719 137 L 720 142 Z M 717 161 C 717 173 721 180 741 196 C 757 208 761 212 769 216 L 778 221 C 786 227 808 231 811 228 C 812 226 812 226 810 224 C 806 219 791 207 779 198 L 748 175 C 718 151 719 151 717 153 L 717 161 Z M 774 183 C 775 184 819 225 829 232 C 832 235 835 234 836 231 L 833 225 C 829 221 782 180 779 179 L 776 179 C 774 180 774 181 774 183 Z M 733 206 C 748 215 756 220 762 226 C 767 232 772 233 774 229 C 775 226 774 224 768 222 L 745 206 C 728 194 719 188 717 188 L 716 191 C 716 195 718 197 733 206 Z M 661 203 C 650 205 636 211 627 218 L 622 222 L 626 224 C 643 231 646 232 690 241 C 713 246 734 253 755 265 L 767 270 C 770 270 771 266 769 261 L 766 247 C 763 237 761 234 757 229 C 751 223 747 220 736 216 L 718 206 C 710 200 702 198 689 198 C 683 197 679 197 676 199 L 661 203 Z M 582 230 L 582 235 L 578 235 C 573 235 569 238 569 243 C 569 246 568 246 563 250 C 560 253 557 256 556 259 L 554 264 L 572 259 C 591 252 594 252 593 258 C 592 260 591 263 587 266 L 582 271 L 584 273 C 589 277 591 276 610 272 L 630 267 L 632 262 L 635 249 C 637 243 637 242 636 240 C 635 238 628 233 621 229 C 606 220 606 220 591 222 C 583 223 582 224 582 230 Z M 553 242 C 553 252 554 251 563 238 L 571 225 L 565 226 C 556 229 553 233 553 242 Z M 639 272 C 641 275 642 275 643 273 L 655 248 C 655 244 654 241 652 241 C 651 241 648 243 646 246 C 637 257 635 267 639 272 Z M 654 265 C 651 277 650 279 652 283 C 655 288 680 302 692 304 L 701 306 L 700 300 C 697 293 697 287 698 280 C 699 272 702 266 707 261 L 711 255 C 711 253 708 252 695 248 C 678 244 672 244 667 245 C 660 248 657 252 654 265 Z M 704 292 C 706 305 707 306 716 311 C 734 323 748 335 758 349 C 761 354 765 358 768 360 L 776 366 C 791.742798 383.264404 807.409607 400.5979 823 418 C 832 426 841 427 853 422 C 865 417 871 413 877 403 C 885 392 885 392 888 396 C 892 401 892 405 887 410 C 882 415 865 426 856 431 C 849 434 842 435 836 433 C 828 429 812 415 760 361 L 729 329 L 717 323 L 704 316 L 700 318 C 698 320 698 321 698 328 C 698 336 698 336 701 339 C 705 343 704 341 702 356 L 701 366 C 702 370 704 369 706 363 C 708 356 712 350 714 350 L 715 352 L 711 368 C 710 372 711 371 721 357 L 724 352 L 722 347 L 720 340 C 720 338 723 335 728 334 C 731 334 731 334 731 336 C 728 342 728 345 730 350 C 732 354 732 355 731 355 L 726 359 C 724 362 723 363 723 366 C 723 370 723 370 731 371 C 735 372 735 372 735 377 L 736 387 L 737 395 C 739 399 746 403 747 401 C 748 400 746 385 744 375 C 744 372 744 372 748 372 L 752 371 L 746 366 C 741 361 740 360 740 357 L 738 349 L 738 344 C 740 344 743 347 745 353 L 751 362 C 754 365 754 367 755 373 C 757 385 760 392 770 399 C 776 404 779 404 784 400 L 788 398 L 792 401 L 795 405 L 775 412 C 773 412 772 412 770 409 L 768 406 C 768 403 764 399 759 396 L 754 394 L 753 401 C 754 409 751 414 743 424 C 739 430 738 431 740 431 C 744 431 747 429 753 424 C 759 419 766 415 768 416 C 769 417 765 421 760 425 L 752 432 C 744 438 744 439 739 434 C 733 429 732 429 717 443 C 704 456 701 460 702 465 C 703 469 709 477 710 476 L 713 468 C 715 460 715 459 718 458 C 717.368103 465.003296 716.701416 472.003418 716 479 C 718 480 719 480 730 478 L 742 474 C 742 472 733 464 732 464 L 727 455 L 737 461 L 746 467 L 748 459 C 749 451 751 448 755 443 C 760 438 763 438 772 444 C 785 452 786 452 787 451 L 785 445 C 781.668213 439.332397 778.3349 433.665771 775 428 C 776 424 779 428 787 444 C 794 458 798 465 799 464 L 808 451 C 816 438 817 438 818 440 L 820 443 L 811 455 C 802 468 802 469 817 464 L 829 461 L 830 465 C 830 469 828 470 818 470 C 808 470 804 471 804 474 C 804 476 808 480 815 487 L 826 499 L 824 502 C 823 503 823 503 821 501 C 814 490 804 481 803 484 L 805 495 C 809 507 809 508 803 509 L 799 509 L 799 493 C 799 481 799 477 797 474 L 795 471 C 793 471 788 477 785 485 L 781 493 L 780 490 C 778 487 777 486 769 482 L 762 478 C 760 476 760 476 765 478 C 776 481 784 477 789 468 L 792 463 L 786 463 L 751 469 L 746 473 L 744 476 L 748 477 L 752 477 L 760 490 L 768 504 L 767 505 L 759 498 L 753 490 C 751 490 751 492 752 498 C 756 513 756 515 755 518 L 752 520 L 750 504 C 750 495 748 486 747 483 C 746 478 746 478 744 479 C 742 481 741 492 739 516 C 738 531 745 586 751 612 C 759 649 774 678 794 696 C 803 704 817 713 823 715 C 829 716 832 715 840 710 C 847 705 890 671 899 662 L 905 657 L 906 648 C 907 638 906 624 904 614 L 904 606 L 907 609 C 910 613 912 620 911 637 L 912 649 L 915 645 C 920 639 920 635 919 622 L 917 588 C 915 560 913 549 908 534 L 903 513 C 898.065979 489.577148 892.731873 466.240479 887 443 L 889 439 C 893 432 897 442 906 478 C 918 521 922 547 923 593 L 924 624 L 927 625 C 931 627 931 627 934 640 C 940 662 942 663 960 663 L 973 663 L 975 660 C 980 653 982 646 983 632 C 983 617 982 612 976 606 C 972 603 960 597 954 596 C 949 594 946 597 942 604 L 939 612 L 931 620 C 929 620 930 617 935 604 C 938 599 940 593 940 591 L 937 582 C 935 576 935 574 933 544 L 931 506 C 930 489 915 419 911 409 C 896.317505 378.174561 875.570801 350.62561 850 328 L 833 316 L 818 307 C 802.553467 298.766113 787.53418 289.754517 773 280 L 734 263 C 732 263 724 271 721 277 L 717 292 C 716 302 715 305 713 305 C 712 305 711 299 711 291 C 712 283 715 276 721 268 C 724 265 725 262 725 260 C 725 257 725 257 721 257 C 718 257 717 258 714 261 C 706 269 702 282 704 292 Z M 778 275 L 781 276 L 780 268 C 780 259 778 258 776 263 C 774 269 775 273 778 275 Z M 560 276 C 562 277 564 275 569 267 C 570 267 570 266 568 265 C 567 264 566 265 563 269 C 559 274 558 276 560 276 Z M 613 278 C 594 283 583 283 571 278 C 557.588074 294.963989 546.179199 313.419434 537 333 C 535 336 538 342 542 345 C 553.559082 354.741211 564.895325 364.743774 576 375 L 588 385 C 616.418518 406.592773 647.722961 424.096436 681 437 C 702 445 702 445 708 442 L 717 435 C 721 430 721 428 718 424 C 715 422 716 419 721 414 C 727 408 729 404 730 393 C 731 381 731 380 727 380 L 720 381 C 717 382 715 381 706 379 C 687 373 683 370 672 352 C 663 337 663 337 650 341 L 633 349 C 625 354 617 357 611 356 C 608 355 607 355 605 357 L 603 359 L 605 365 C 611 376 627 390 633 389 C 635 389 636 387 639 381 L 643 373 L 635 375 C 629 376 628 377 628 375 L 642 363 C 656 354 659 352 663 352 C 667 353 669 358 669 370 C 669 380 669 380 666 383 C 664 385 664 385 656 385 C 649 384 648 384 645 387 L 642 391 C 642 394 650 404 654 407 C 659 410 663 409 665 405 L 667 398 L 668 392 C 670 390 670 390 672 391 L 676 394 C 677 395 681 397 687 398 L 697 401 L 692 408 C 688 411 686 414 686 415 L 691 415 C 694 415 696 415 698 418 C 700 419 701 422 701 423 L 708 424 L 714 423 L 712 425 C 710 428 704 431 701 431 L 696 427 C 692 423 691 422 686 422 L 678 420 C 674 418 665 416 662 417 C 657 418 655 418 645 408 L 625 392 L 605 375 C 595 366 590 363 581 363 C 574 363 569 357 569 350 C 569 344 572 340 580 335 L 587 331 L 592 335 C 598 339 603 340 606 338 L 606 327 C 605 324 603 324 590 327 C 582 329 582 329 580 327 C 578 325 578 325 581 318 C 591 301 595 297 623 283 L 632 276 C 625.650818 276.506104 619.31543 277.172974 613 278 Z M 616 290 L 616 309 C 617 313 617 313 620 313 C 625 311 630 308 631 306 C 632 303 641 295 642 296 L 638 303 C 635 308 634 310 635 311 L 636 312 L 663 300 L 661 298 L 652 292 C 640 283 640 283 634 283 L 626 284 L 616 290 Z M 621 301 C 624 303 626 302 630 296 C 632 291 633 290 631 290 L 630 289 L 627 290 C 623 291 618 298 621 301 Z M 647 314 L 645 317 L 648 318 C 653 320 658 319 667 314 L 675 311 L 674 315 C 672 318 672 318 675 322 L 682 330 C 688 335 689 338 687 348 C 686 357 687 363 691 364 C 695 366 696 364 697 358 C 698 352 697 345 694 339 C 691 333 690 326 693 320 L 693 314 C 691 311 681 306 674 306 L 665 306 C 659 307 650 311 647 314 Z M 592 313 C 591 317 591 317 594 317 C 598 317 599 316 598 311 C 598 308 597 307 595 307 L 593 308 L 592 313 Z M 612 335 C 613 341 613 341 617 343 C 620 345 620 346 619 348 L 620 351 C 635.028564 344.734619 650.028748 338.401123 665 332 C 667 332 670 335 672 341 L 680 355 L 684 344 C 684 340 682 336 677 332 C 670 326 668 325 660 326 C 648 327 642 326 635 323 C 628 319 626 319 619 323 C 612 326 612 327 612 335 Z M 538 359 C 550.831177 369.965576 564.179749 380.310669 578 390 L 578 386 C 577 384 573 379 562 370 C 535 345 530 341 529 344 C 528 345 535 356 538 359 Z M 452 358 L 464 365 C 472 370 476 371 476 370 C 473.484192 361.718872 471.150299 353.383545 469 345 C 468 344 466 345 460 351 C 455 354 452 358 452 358 Z M 587 357 L 590 359 L 596 350 C 596 348 593 344 592 344 L 589 349 C 586 354 586 354 587 357 Z M 511 395 C 511 405 511 408 517 414 C 522 420 523 422 519 429 C 516 436 516 439 520 448 C 523 457 535 468 538 465 L 540 455 C 542 443 547 431 553 420 C 563 404 569 398 570 403 C 571 405 570 408 562 418 C 547 440 541 461 548 472 C 550 477 555 480 558 480 C 560 480 561 477 566 465 C 573 443 580 432 594 422 C 603 416 603 416 586 404 C 565.090393 388.813232 545.058289 372.453613 526 355 L 522 358 C 517 365 513 379 511 395 Z M 646 369 C 650 369 656 363 656 360 L 655 357 L 649 363 C 644 369 644 369 646 369 Z M 658 373 C 660 377 663 378 665 375 C 666 373 666 362 664 361 L 660 365 C 657 370 657 370 658 373 Z M 461 402 L 466 412 C 470 412 482 388 482 383 L 480 379 L 475 383 C 469 389 461 400 461 402 Z M 497 393 C 501 394 508 389 505 385 C 504 384 500 382 493 381 C 489 380 489 380 489 382 C 489 384 494 392 497 393 Z M 531 420 L 532 428 L 540 406 C 548 383 548 379 542 385 C 535 392 531 406 531 420 Z M 838 400 C 835 407 834 408 827 407 C 820 405 819 406 823 410 C 826 413 827 414 831 414 C 842 414 851 401 850 387 L 850 382 L 845 388 L 838 400 Z M 474 411 C 469 417 465 424 467 424 L 476 420 C 487 415 488 415 489 421 L 489 427 C 490 429 498 420 501 414 C 504 409 505 396 503 394 L 497 400 L 493 407 L 492 401 C 491 396 491 394 488 392 C 485 389 483 389 483 395 C 483 400 482 402 474 411 Z M 611 415 C 636.120544 432.360229 663.33667 446.47229 692 457 C 695 456 700 449 699 449 L 691 446 C 660.910095 432.897949 631.535522 418.210693 603 402 L 584 391 L 580 392 C 581 394 592 402 611 415 Z M 672 408 L 674 411 C 676 414 680 413 682 408 L 682 402 C 678.370483 403.45874 674.995178 405.483887 672 408 Z M 726 415 C 724 420 730 425 735 423 C 737 423 739 420 742 418 L 746 413 L 740 409 L 734 404 C 733 404 731 406 730 409 L 726 415 Z M 421 423 C 421 427 419 426 439 425 C 450 424 453 423 453 422 C 453 420 439 416 431 415 C 426 415 425 415 423 417 L 421 423 Z M 587 438 C 582 446 566 478 566 481 C 566 487 577 494 584 493 C 589 492 601 482 613 468 C 637 439 638 439 634 434 L 607 419 L 598 427 L 587 438 Z M 476 430 C 479 433 482 433 484 431 L 486 428 C 486 426 483 422 481 421 C 480 420 479 421 477 424 C 475 428 475 428 476 430 Z M 490 455 C 492 458 495 457 498 449 C 503 440 505 432 505 426 C 504 419 502 419 498 427 C 492 436 488 452 490 455 Z M 798 450 C 801 444 802 436 801 432 L 798 427 L 797 440 C 797 453 797 453 798 450 Z M 502 449 L 507 450 C 513 450 512 452 504 456 C 491 462 488 469 491 491 L 494 503 C 496 507 502 509 506 509 C 508 508 510 509 516 515 C 519 519 527 525 533 529 L 551 542 L 557 547 L 558 543 C 559 536 564 528 571 521 L 577 515 C 574 512 529 483 528 484 L 525 493 C 523 501 520 505 518 505 L 514 491 C 511 478 511 477 506 472 L 503 466 L 508 462 L 515 458 C 516 455 516 455 513 447 L 510 439 L 506 444 L 502 449 Z M 631 456 C 620 472 608 484 598 490 C 591 495 589 498 592 500 C 594 503 595 502 605 498 C 627 490 644 480 656 468 C 664 461 667 456 665 452 C 664 450 657 445 651 442 C 646 440 645 440 643 441 L 631 456 Z M 434 453 L 437 451 C 439 450 438 449 431 447 C 423 445 423 445 424 447 C 425 450 431 453 434 453 Z M 753 461 C 753 464 755 464 769 462 C 783 460 785 459 780 455 C 775 451 765 446 762 446 L 757 448 C 755 451 752 459 753 461 Z M 665 465 C 658 475 648 484 637 490 L 617 499 C 606 503 603 505 603 506 L 607 509 C 610 510 612 510 619 508 C 639 503 659 491 677 474 C 683 468 684 467 684 464 C 683 458 673 454 670 458 L 665 465 Z M 518 469 C 539.920654 484.480469 562.616821 498.832397 586 512 C 589 514 597 514 599 513 C 600 511 594 507 570 492 C 555.393555 483.793213 541.052917 475.122192 527 466 C 524 464 517 463 516 465 L 518 469 Z M 682 479 L 690 484 L 695 488 C 682 484 679 485 676 489 C 674 493 673 498 674 498 L 688 493 L 702 489 C 705 489 706 486 704 483 C 702 477 695 468 693 468 L 687 474 L 682 479 Z M 474 480 C 471 482 469 491 468 505 L 466 523 C 465 526 464 528 465 529 L 471 535 L 476 538 L 473 540 C 470 542 470 543 470 552 C 470 558 469 555 467 547 L 465 541 L 459 557 C 455 567 453 571 447 574 L 443 576 L 446 578 C 449 582 454 583 457 582 L 493 541 C 498 535 498 533 488 524 L 481 517 L 485 511 L 488 502 C 488 500 484 496 480 493 C 475 491 476 489 482 489 L 487 489 L 485 483 C 483 477 482 477 478 478 L 474 480 Z M 715 486 L 725 496 L 734 504 L 736 495 C 739 482 739 478 738 478 C 730.23053 480.36145 722.557861 483.030273 715 486 Z M 605 517 C 584 522 573 526 570 529 C 567 532 566 535 568 538 C 568 540 569 540 572 538 L 581 538 C 586 539 593 545 593 547 L 582 545 L 575 543 C 573 543 566 549 566 551 L 572 557 C 580 563 580 566 574 573 L 569 578 L 563 574 C 557 570 553 569 549 572 L 547 575 C 547 577 559 596 565 605 C 578 621 597 637 613 644 C 630 651 644 650 661 637 L 676 628 C 703 611 711 597 705 578 L 702 563 L 697 541 L 692 524 L 697 509 C 703 493 703 493 688 497 L 673 501 C 669 501 668 503 664 513 C 659 523 659 525 667 530 C 675 534 675 533 674 519 L 675 507 C 676 507 677 509 678 517 L 680 526 L 684 526 C 687 525 688 526 685 529 L 685 532 L 688 535 C 691 537 691 537 689 539 C 687 542 674 546 662 548 C 648 550 641 554 637 559 C 635 563 633 565 627 570 C 625 572 625 573 625 577 C 625 587 626 587 637 575 L 649 565 L 647 572 C 645 578 644 579 641 580 C 638 582 633 587 633 589 L 635 590 C 645.005798 587.019409 655.005798 584.019409 665 581 C 666 583 663 585 652 589 L 640 594 L 660 600 C 663 600 665 601 666 603 L 667 606 L 650 603 C 633 600 630 600 629 603 L 630 604 C 632 604 648 614 649 616 C 652 621 648 621 639 616 L 630 611 C 626 608 624 609 618 619 C 614 627 610 630 611 626 L 613 622 L 618 609 C 622 600 623 597 622 595 C 621 591 617 589 607 587 L 594 583 C 592 582 589 577 590 576 L 602 579 L 615 583 L 618 584 L 618 578 C 618 569 615 562 608 558 C 601 554 595 548 597 547 C 598 545 603 547 611 553 C 619 558 624 560 627 559 C 630 558 640 546 644 540 L 658 513 C 670 487 670 487 657 495 C 642 506 629 511 605 517 Z M 698 522 C 698 528 699 530 703 530 L 707 531 L 704 535 C 698 541 699 543 708 549 L 712 552 L 709 556 L 706 560 L 711 580 C 721 617 728 635 739 651 C 750 666 770 688 774 688 L 776 687 L 762 663 C 753 648 751 644 746 625 C 739 596 736 571 735 538 C 734 516 734 515 731 510 L 725 502 L 721 499 L 720 508 C 720.191223 540.032349 724.219971 571.92627 732 603 L 722 563 C 717.911133 539.445923 714.576111 515.767212 712 492 C 711 490 711 490 709 492 C 706 496 700 513 698 522 Z M 522 539 L 560 566 L 565 566 C 567 566 568 565 567 562 C 565 556 542 539 509 519 C 497 512 494 510 490 510 C 487 510 486 510 486 512 C 486 513 496 521 522 539 Z M 651 538 C 651 541 651 542 653 543 C 655 545 656 545 663 543 C 674 541 674 541 671 538 C 662 531 657 529 654 532 L 651 538 Z M 751 544 C 751 547 758 554 761 554 C 764 554 771 547 772 544 C 772 542 772 540 770 537 C 765 529 763 528 757 532 C 754 534 751 539 751 544 Z M 687 563 L 690 572 C 691 572 692 571 692 569 C 694 567 693 566 692 561 C 689 555 688 552 685 551 L 683 551 L 687 563 Z M 855 572 C 866.208069 603.181641 874.575439 635.312256 880 668 C 881 668 882 666 882 657 C 883 641 882 633 872 600 C 866.953247 585.015625 861.953247 570.015503 857 555 C 855 552 850 551 849 554 C 849 556 849 559 855 572 Z M 667 566 L 668 570 C 669 571 678 557 678 555 C 678 554 674 556 671 559 C 668 562 667 564 667 566 Z M 540 571 C 542 572 542 571 544 567 C 545 562 545 561 541 561 C 538 561 538 561 538 566 C 538 570 538 571 540 571 Z M 758 585 C 762 587 766 586 769 582 C 773 578 772 576 766 570 L 762 565 L 758 569 C 752 577 752 583 758 585 Z M 808 588 L 808 599 L 810 615 C 815.401367 638.180603 823.454407 660.662048 834 682 C 837 683 838 683 839 681 L 835 670 C 823.982361 641.225464 817.896973 610.798706 817 580 C 818 576 817 576 814 573 L 811 570 L 809 572 C 806 576 806 577 808 588 Z M 538 586 L 532 602 C 528 610 519 622 509 629 C 501 636 500 638 500 642 L 497 647 C 494 650 492 654 488 664 C 481 683 479 691 478 708 C 478.810944 745.002136 484.871429 781.701721 496 817 C 501 831 502 836 506 854 L 514 884 C 521 910 522 914 523 950 C 525 997 523 1008 513 1034 C 498.100281 1073.018677 485.085266 1112.731201 474 1153 L 472 1174 L 475 1183 L 479 1202 C 480 1212 482 1220 489 1235 C 495 1249 496 1254 496 1267 C 496 1286 491 1310 482 1326 C 477 1337 478 1338 493 1336 C 509 1333 528 1333 554 1334 C 572.973511 1335.234741 591.994873 1335.568481 611 1335 C 633 1335 634 1335 654 1338 L 680 1342 L 685 1342 L 685 1336 C 685 1327 687 1326 692 1334 L 695 1339 L 698 1336 L 707 1330 C 720 1320 725 1306 723 1285 C 721 1266 715 1239 709 1227 C 697.584778 1200.991455 690.491516 1173.293945 688 1145 L 679 1061 L 667 1045 L 657 1032 L 654 1040 C 651 1049 648 1054 646 1053 C 644 1051 645 1046 647 1038 L 649 1031 L 644 1033 L 635 1038 C 631 1039 630 1039 629 1037 C 626 1033 629 1030 641 1027 C 649 1024 648 1022 636 1016 L 624 1010 L 624 1005 L 627 1002 C 629 1002 635 1005 641 1010 L 648 1015 L 647 1005 C 645 999 645 996 646 993 C 647 989 648 989 652 992 C 655 995 656 995 656 1004 C 657 1016 660 1025 665 1031 L 669 1034 C 670 1031 672 1014 671 1013 L 666 1014 L 660 1015 L 670 1005 C 681 995 681 994 687 974 C 695.338379 946.311584 706.39209 919.514709 720 894 C 722 886 724 882 735 869 C 746 856 770 825 776 815 C 782 807 782 806 777 800 L 769 787 L 763 774 L 761 765 C 761 762 762 760 772 752 C 777 748 783 738 785 731 L 790 720 L 793 712 L 783 705 C 758.656738 693.21344 739.454468 672.944336 729 648 L 708 607 L 704 611 L 683 634 C 666 651 661 655 655 655 L 643 657 C 622 662 609 657 585 638 C 570 625 571 626 560 610 L 543 577 L 541 575 L 538 586 Z M 438 586 L 442 591 L 447 596 L 450 593 L 452 590 L 447 585 L 442 580 L 440 583 L 438 586 Z M 424 604 C 425 605 425 604 427 600 L 430 593 L 426 596 C 423 599 422 601 424 604 Z M 589 606 C 590 607 610 600 610 599 C 609 597 607 597 597 600 C 588 603 587 603 589 606 Z M 765 618 L 768 621 L 772 617 C 777 613 780 608 780 607 L 776 604 L 770 602 L 766 600 L 764 604 C 761 612 762 614 765 618 Z M 397 613 C 405 618 408 621 406 623 C 400.231506 628.563904 394.563904 634.231506 389 640 C 390 641 391 641 400 633 L 408 627 L 409 633 C 410 639 410 641 412 640 L 413 631 L 414 623 L 420 619 C 427 616 430 613 429 612 L 421 615 L 413 619 L 414 610 C 416 600 414 599 411 608 L 408 615 C 408 616 405 614 403 611 C 399 605 394 602 387 601 L 382 601 C 381 603 388 609 397 613 Z M 375 629 L 377 631 L 385 628 L 392 626 L 388 622 C 384 619 383 618 379 621 C 375 623 374 625 375 629 Z M 965 631 C 966 634 970 634 970 631 L 968 626 C 968 622 966 621 965 623 L 965 631 Z M 850 653 C 852 658 852 663 853 672 C 853 680 854 683 855 683 L 856 684 L 857 678 C 859 673 859 671 857 661 C 855 648 852 639 851 638 L 849 638 C 846 638 847 643 850 653 Z M 880 685 L 852 709 C 840 720 831 721 815 716 C 806 714 806 714 803 715 L 799 722 L 789 740 C 775 764 774 766 774 773 C 774 779 780 797 783 800 C 785 801 785 801 785 793 L 785 782 C 787 779 789 783 791 793 C 792 801 795 807 797 806 L 797 792 L 798 787 C 799 787 800 789 801 795 L 803 804 C 805 808 809 807 819 803 C 832 796 834 794 834 788 C 834 780 832 771 829 766 L 827 760 C 827 758 836 759 837 760 L 839 777 L 840 793 L 850 787 C 866 777 903 750 909 744 C 915 738 916 718 910 706 L 906 696 C 906 693 906 693 908 694 C 911 697 915 704 917 710 L 919 726 L 920 736 L 929 727 C 945.17572 711.744263 958.101135 693.376526 967 673 L 968 669 L 961 668 L 948 666 L 942 666 L 938 674 C 936.34436 676.673523 934.677673 679.340271 933 682 L 934 675 L 935 668 L 922 674 C 908 683 904 682 918 673 C 933 664 932 665 926 661 C 919 657 919 656 929 658 L 937 660 C 938 659 928 637 927 637 L 920 645 C 913 656 904 665 880 685 Z M 953 649 C 959 642 961 637 957 637 L 950 645 C 943 656 945 657 953 649 Z M 797 673 C 802 687 811 700 819 706 L 823 708 L 821 706 L 814 695 C 807 684 804 678 803 670 C 802 665 801 663 799 663 L 796 665 C 795 666 796 668 797 673 Z M 989 684 C 1006.555786 707.188843 1021.323853 732.361694 1033 759 C 1033 763 1036 767 1038 766 C 1040 763 1035 746 1028 732 C 1024 724 1012 707 1005 698 C 999.213501 689.597351 992.124573 682.170837 984 676 C 983 676 985 680 989 684 Z M 980 699 C 989 711 997 730 999 746 C 999 752 999 753 1003 756 C 1010 761 1010 755 1002 736 C 994 715 988 703 982 696 C 977 691 976 690 975 691 L 980 699 Z M 889 704 C 892 710 895 720 896 726 C 899 743 899 742 900 740 C 902 736 901 723 899 716 C 896 703 888 689 885 692 L 889 704 Z M 870 756 C 871 757 869 742 867 737 C 865 733 856 722 856 725 L 870 756 Z M 949 745 C 950 763 952 773 958 788 C 965 807 970 817 978 826 L 987 834 C 991 834 988 827 981 817 C 968 799 963 785 957 750 C 955 735 953 728 952 727 C 950 725 950 725 949 727 L 949 745 Z M 851 756 L 854 775 C 855 776 857 767 857 761 C 857 751 852 735 848 732 C 847 731 847 731 847 734 L 851 756 Z M 812 796 L 816 798 C 817 797 811 778 810 776 C 808 775 806 775 805 777 C 804 779 809 792 812 796 Z M 412 792 L 414 793 L 418 794 L 423 794 C 427 795 428 800 431 813 L 434 825 C 438 828 438 825 435 811 C 432 795 431 792 428 790 C 425 789 419 789 415 791 L 412 792 Z M 472 894 C 482 919 482 921 483 954 C 483 982 482 1000 480 1000 L 475 971 C 468.168427 923.05011 455.750702 876.064087 438 831 L 433 838 C 430 846 430 846 432 844 L 436 842 C 439 842 445 861 456 901 C 474 970 474 988 459 1044 L 452 1071 L 459 1056 C 463 1044 465 1041 466 1041 C 468 1042 467 1049 463 1062 C 459 1074 455 1089 456 1091 L 485 1007 L 488 986 C 489 973 490 970 492 972 L 493 987 C 492 1006 489 1021 480 1047 C 471 1073 471 1072 473 1070 C 475 1068 486 1043 489 1033 C 495 1013 498 989 497 956 C 495 912 493 903 479 865 C 471 843 468 836 466 836 L 465 836 L 470 851 C 483 884 490 909 492 928 L 492 965 C 490 968 489 965 489 956 C 489 944 487 929 483 914 C 470.311371 876.055847 455.964264 838.686584 440 802 L 472 894 Z M 416 814 C 419 814 418 811 415 807 C 412 804 411 803 411 805 C 411 808 414 814 416 814 Z M 761 892 C 772.735962 868.628479 783.087158 844.586975 792 820 C 792 818 791 818 788 822 C 778 838 760 883 761 892 Z M 818 886 C 817 902 817 904 819 904 C 820 904 821 899 822 869 C 824 822 824 821 822 821 C 820.041382 842.623657 818.707458 864.299377 818 886 Z M 996 853 L 976 872 C 970 876 955 886 947 889 C 928.71344 896.402771 910.015808 902.746582 891 908 C 889 910 889 911 889 916 C 891 931 893 942 897 951 C 908.690857 981.590271 913.801941 1014.301453 912 1047 L 913 1080 L 915 1084 L 922 1090 C 926 1092 934 1093 935 1091 L 933 1083 L 931 1075 C 931 1073 936 1071 937 1071 L 938 1080 L 939 1090 L 947 1081 C 955 1072 959 1069 955 1075 L 944 1096 C 942 1102 944 1105 951 1109 L 957 1112 L 959 1109 C 961 1102 961 1101 955 1099 L 949 1097 L 955 1094 L 963 1091 L 964 1082 C 964 1077 965 1074 966 1073 L 969 1076 C 972 1081 971 1084 965 1104 C 961 1120 958 1132 958 1138 C 958 1141 957 1142 954 1145 L 950 1148 L 952 1142 C 955 1133 957 1126 955 1121 C 953 1115 948 1110 940 1107 C 936 1105 934 1105 931 1106 C 925 1108 922 1111 922 1116 L 923 1121 L 929 1117 L 934 1113 L 931 1119 C 929 1124 929 1126 928 1142 C 927 1155 927 1161 925 1169 C 919 1192 919 1197 916 1274 C 915 1315 912 1334 906 1356 C 901 1376 892 1391 879 1405 C 869 1416 868 1417 873 1428 L 874 1433 L 870 1428 L 865 1423 L 862 1436 C 862 1437 864 1438 869 1439 C 878 1442 880 1441 884 1432 C 888 1425 890 1423 893 1423 C 894 1423 895 1424 895 1426 C 895 1428 893 1430 889 1435 C 878 1447 879 1444 888 1456 L 898 1468 C 900 1469 904 1468 910 1464 C 917 1459 924 1456 929 1456 L 937 1454 C 940 1451 940 1449 937 1439 C 934 1429 933 1416 934 1400 C 935 1381 938 1374 958 1334 C 981 1288 980 1290 987 1271 L 994 1250 C 995 1249 993 1247 986 1240 L 976 1231 L 979 1242 L 981 1253 C 980 1255 979 1254 976 1247 C 973 1239 971 1239 969 1248 C 967 1258 966 1256 966 1244 L 966 1233 L 957 1237 L 947 1240 C 945 1239 945 1239 957 1232 L 967 1225 L 955 1222 C 942 1219 940 1219 941 1217 C 942 1215 944 1216 956 1218 L 970 1220 L 962 1209 L 952 1198 L 954 1198 C 956 1200 972 1213 973 1212 L 972 1199 C 970 1185 971 1183 975 1193 C 977 1198 977 1201 977 1209 C 977 1219 977 1221 982 1227 L 990 1238 L 996 1246 C 997 1246 999 1244 1001 1238 L 1003 1231 L 996 1229 C 989 1228 986 1226 986 1225 L 1009 1225 L 1008 1197 C 1007.679016 1179.33313 1007.345703 1161.666382 1007 1144 C 1001 1131 998 1119 998 1113 C 998 1109 999 1107 1001 1104 L 1004 1101 L 1002 1085 L 1000 1059 C 1000 1050 1000 1049 1009 1030 L 1018 1000 C 1022 982 1023 978 1025 958 C 1026 936 1026 936 1024 916 C 1022 900 1022 895 1023 890 C 1029 850 1030 846 1036 836 C 1038 830 1039 828 1038 825 L 1037 822 L 1034 823 C 1029 824 1011 839 996 853 Z M 799 880 L 800 883 L 801 880 C 803 878 804 872 806 854 C 806.234131 843.996948 806.567505 833.99646 807 824 L 804 825 L 799 880 Z M 417 848 C 416 850 411 848 409 845 C 407 840 405 838 402 838 C 400 838 400 838 401 840 C 401 843 402 844 414 853 L 423 861 L 425 855 C 429 848 428 849 426 847 L 423 844 L 421 837 L 418 831 L 416 832 C 417 835 418 847 417 848 Z M 395 859 C 390 859 389 859 389 861 L 391 866 C 392 868 393 868 395 868 C 399 867 409 860 409 858 L 402 858 L 395 859 Z M 427 872 C 430 877 430 877 430 875 C 431 871 429 865 426 864 C 424 863 424 863 425 865 L 427 872 Z M 413 873 C 411 882 411 883 412 883 C 414 883 417 866 415 865 L 414 864 L 413 873 Z M 430 904 C 434 915 432 916 421 906 L 411 900 L 408 902 C 406 903 406 904 415 909 C 426 916 430 919 430 921 L 425 929 C 415 942 412 948 416 950 C 418 951 420 948 426 936 L 434 925 L 438 936 L 442 946 C 443 947 443 944 441 934 C 439 920 440 915 446 908 L 450 903 L 451 900 L 450 898 L 445 904 C 439 915 436 914 434 902 L 431 892 L 428 892 C 426 893 427 897 430 904 Z M 834 928 C 825 928 824 928 817 925 C 801 916 798 915 792 914 C 785 913 780 913 764 916 C 752 918 740 919 733 917 C 727 914 725 915 722 917 C 707.178223 946.606262 694.803589 977.375549 685 1009 C 682 1015 682 1016 682 1028 C 683 1045 685 1062 690 1082 C 695 1106 696 1112 697 1143 C 698 1174 699 1180 706 1195 L 713 1215 L 720 1239 C 728 1260 729 1265 730 1289 L 730 1310 L 727 1315 C 724 1319 720 1324 710 1332 C 703 1339 696 1344 696 1343 L 695 1346 L 695 1349 L 691 1347 C 687 1346 687 1346 683 1348 C 680 1349 680 1350 680 1354 C 680 1359 680 1359 667 1356 C 657 1355 652 1355 638 1360 C 631 1362 630 1363 627 1366 L 624 1370 L 627 1373 C 631 1376 636 1377 667 1377 L 694 1376 C 702 1373 711 1369 709 1368 L 701 1365 C 692 1362 692 1361 693 1358 L 705 1352 L 705 1356 C 705 1359 705 1360 710 1363 C 714 1367 716 1367 725 1369 C 734 1370 742 1372 756 1377 C 759 1379 762 1379 768 1379 C 779 1378 786 1373 788 1365 C 789 1361 789 1359 783 1340 C 773 1310 773 1306 777 1290 L 784 1238 C 785 1220 787 1211 790 1200 C 795 1180 794 1165 787 1137 C 782 1118 773 1095 758 1067 L 755 1061 L 752 1064 C 749 1066 749 1066 747 1064 L 744 1060 C 743 1058 741 1059 735 1065 C 731 1068 730 1068 726 1068 C 706 1065 704 1065 704 1061 C 704 1059 705 1059 714 1060 C 724 1060 725 1060 731 1058 L 744 1052 C 752 1050 755 1047 775 1029 C 787 1018 803 1000 811 989 C 818 979 824 973 838 965 C 852 957 859 950 869 936 C 874 930 876 925 878 920 C 880 913 879 910 877 910 L 865 917 C 844 929 845 928 834 928 Z M 403 928 L 402 932 L 413 927 C 420 924 423 921 423 921 L 415 921 C 409 922 404 925 403 928 Z M 456 932 L 456 929 C 455 926 455 926 451 926 L 446 927 C 446 929 455 933 456 932 Z M 439 983 C 438 993 437 992 429 980 L 421 970 L 417 973 L 413 977 L 421 982 C 432 991 432 991 416 992 L 402 993 L 402 1000 C 403 1001 404 1001 412 999 L 433 994 L 433 996 L 423 1006 C 413 1014 412 1015 414 1016 L 423 1016 L 429 1010 C 434 1000 435 1000 439 1012 C 442 1024 445 1028 445 1021 L 444 1012 L 444 1007 L 452 1010 C 458 1014 459 1014 460 1012 C 461 1010 456 1006 449 1004 C 446 1004 444 1002 443 1001 C 443 999 445 997 451 993 C 456 990 455 988 449 990 L 444 991 L 443 987 L 443 981 C 444 978 443 971 441 970 L 439 973 L 439 983 Z M 937 1039 C 939 1050 944 1061 946 1061 C 948 1060 948 1056 946 1048 L 943 1026 L 941 1002 C 941 996 941 993 943 989 C 947 978 947 977 942 976 L 936 975 L 933 975 L 933 994 C 933 1014 934 1024 937 1039 Z M 429 1057 L 437 1048 C 444 1040 445 1038 443 1038 L 436 1045 C 431 1050 428 1055 429 1057 Z M 742 1088 C 740 1096 740 1098 740 1125 C 740 1156 741 1167 744 1167 L 747 1164 L 747 1149 C 744.075378 1124.700684 744.749268 1100.102783 749 1076 C 749 1074 747 1075 746 1077 L 742 1088 Z M 409 1092 C 410 1092 415 1083 416 1079 C 417 1075 414 1076 411 1082 C 407 1089 406 1092 409 1092 Z M 469 1117 L 471 1117 C 475.874542 1103.952148 480.874786 1090.951416 486 1078 C 485 1078 483 1079 481 1082 C 474 1090 466 1112 469 1117 Z M 918 1099 C 920 1105 922 1105 930 1102 C 937 1099 936 1097 928 1095 C 917 1092 917 1092 916 1093 L 918 1099 Z M 941 1151 L 943 1150 L 940 1147 C 937 1144 937 1144 937 1138 C 938 1130 937 1127 935 1133 C 931 1147 933 1154 941 1151 Z M 399 1197 C 411 1203 413 1203 413 1202 C 414 1201 410 1198 403 1193 C 393 1186 390 1185 389 1188 C 388 1190 389 1192 399 1197 Z M 980 1216 L 981 1217 L 990 1214 C 998 1210 1002 1207 1002 1205 C 1002 1203 998 1204 990 1210 L 980 1216 Z M 426 1281 C 428 1281 428 1280 428 1272 C 428 1264 427 1262 426 1262 C 424 1262 424 1263 424 1271 C 424 1280 424 1281 426 1281 Z M 424 1293 L 414 1285 C 403 1276 401 1274 397 1276 L 395 1280 L 407 1288 L 418 1296 C 418 1298 418 1298 408 1298 C 397 1298 393 1299 393 1302 C 393 1305 397 1305 406 1303 C 416 1302 420 1302 423 1306 C 425 1308 425 1308 423 1316 C 421 1326 421 1327 422 1327 L 425 1319 C 430 1307 430 1307 432 1307 L 438 1310 C 442 1313 449 1316 449 1314 C 449 1313 444 1308 438 1304 C 434 1301 434 1301 435 1297 C 436 1290 438 1285 441 1281 C 444 1278 445 1273 444 1272 L 437 1282 C 430 1292 427 1295 424 1293 Z M 439 1294 C 439 1296 451 1294 452 1293 C 455 1289 449 1288 443 1291 L 439 1294 Z M 406 1319 C 408 1319 409 1318 411 1316 L 413 1312 C 413 1310 411 1311 407 1314 C 403 1317 403 1318 406 1319 Z M 743 1343 L 747 1347 L 753 1347 L 763 1344 C 766 1342 766 1342 766 1335 C 766 1324 764 1324 763 1334 C 761 1347 757 1347 741 1333 C 735 1328 734 1327 734 1329 C 736 1334 739 1339 743 1343 Z M 466 1345 C 463 1348 463 1352 467 1355 C 470 1357 474 1357 483 1354 C 490 1352 490 1352 493 1353 C 497 1356 500 1355 503 1352 C 507 1347 509 1343 508 1342 C 507 1340 497 1340 482 1341 C 469 1342 468 1342 466 1345 Z M 588 1343 L 579 1353 C 580 1354 585 1355 598 1355 L 616 1355 L 618 1352 C 620 1350 623 1342 622 1341 L 596 1341 L 588 1343 Z M 510 1353 C 510 1355 510 1355 543 1354 C 569 1353 573 1352 575 1349 C 577 1346 577 1342 575 1342 C 555.69519 1340.514526 536.30481 1340.514526 517 1342 C 514 1344 510 1350 510 1353 Z M 627 1357 C 640.230408 1353.267822 653.569763 1349.932983 667 1347 L 666 1345 L 655 1344 C 640 1341 631 1342 629 1344 C 626 1346 625 1357 627 1357 Z M 416 1347 L 407 1349 L 405 1352 L 407 1355 C 410 1359 411 1359 421 1358 C 433 1358 438 1356 442 1353 L 444 1350 L 441 1347 C 439 1345 437 1345 432 1345 C 426.61441 1345.145752 421.255768 1345.815674 416 1347 Z M 345 1355 C 343 1355 342 1356 341 1358 C 339 1361 339 1361 341 1363 C 343 1365 345 1365 355 1365 L 366 1365 L 364 1369 L 362 1373 L 377 1386 C 396 1402 403 1407 408 1407 C 411 1407 411 1407 410 1404 L 404 1397 C 396 1391 386 1379 393 1384 L 407 1395 C 419 1404 425 1408 427 1405 C 428 1403 423 1398 402 1381 C 389 1371 386 1369 383 1369 C 379 1369 379 1371 383 1376 L 385 1380 L 379 1376 C 372 1372 368 1366 370 1365 C 372 1363 378 1362 387 1361 C 397 1360 400 1358 400 1354 L 398 1351 C 380.312561 1352.041992 362.643494 1353.375488 345 1355 Z M 276 1360 C 270 1361 269 1361 269 1363 C 269 1367 271 1373 273 1375 C 275 1377 280 1376 307 1372 C 327 1370 331 1368 333 1364 C 334 1361 334 1360 332 1358 C 330 1355 327 1355 302 1357 L 276 1360 Z M 464 1362 L 396 1367 C 393 1368 393 1368 410 1383 L 431 1401 C 436 1405 441 1406 456 1402 C 468 1400 471 1400 509 1399 C 581 1397 624 1395 667 1391 C 681 1390 688 1388 688 1385 C 688 1382 681 1382 653 1382 C 640.254761 1382.872559 627.450439 1381.861694 615 1379 L 616 1372 C 618 1367 618 1366 617 1364 L 615 1361 L 588 1360 C 546.658447 1358.690552 505.277863 1359.358032 464 1362 Z M 214 1370 C 212 1372 212 1373 213 1375 C 213 1379 218 1385 221 1387 C 224 1388 224 1389 223 1396 L 222 1403 L 218 1401 C 212 1397 212 1400 218 1408 L 223 1416 L 219 1418 L 210 1426 L 202 1435 C 200 1438 199 1439 200 1440 L 270 1439 L 290 1439 L 293 1435 C 298 1431 300 1424 299 1422 L 292 1420 C 286 1419 282 1418 283 1417 L 283 1413 L 275 1405 C 262 1394 265 1395 280 1406 C 290 1413 296 1416 298 1414 L 298 1411 C 297 1409 260 1384 258 1384 L 255 1386 C 255 1387 254 1388 250 1387 L 244 1386 L 247 1390 L 248 1393 L 239 1390 L 237 1393 C 237 1396 236 1396 230 1392 L 225 1388 L 229 1386 L 250 1381 L 268 1377 L 262 1365 C 261 1363 254 1363 246 1364 C 220 1367 215 1368 214 1370 Z M 335 1374 L 345 1384 C 377 1410 378 1411 380 1411 C 384 1409 382 1406 375 1400 C 362 1389 350 1379 351 1378 C 353 1376 358 1380 373 1393 C 389 1407 395 1410 396 1407 C 396 1405 390 1399 380 1391 C 370 1384 364 1379 360 1374 C 359 1371 357 1370 356 1370 C 348.973999 1371.193115 341.972595 1372.526611 335 1374 Z M 161 1389 C 160 1391 160 1392 162 1393 C 163 1395 166 1395 185 1395 L 206 1396 L 209 1393 C 213 1389 213 1386 209 1381 C 205 1375 201 1373 195 1373 C 191 1373 188 1374 176 1380 L 161 1389 Z M 324 1382 L 328 1388 C 321.274597 1384.441162 314.607056 1380.774048 308 1377 C 305 1377 303 1379 305 1380 L 323 1393 C 338 1404 351 1412 352 1411 C 353 1410 349 1405 341 1398 L 333 1391 C 334 1390 342 1396 352 1403 C 362 1411 367 1413 368 1411 C 370 1410 366 1405 353 1394 C 327 1373 327 1373 322 1373 L 318 1374 L 324 1382 Z M 700 1383 C 697 1389 698 1391 703 1394 C 708 1396 724 1401 732 1402 C 741 1404 748 1401 755 1394 C 759 1391 761 1388 761 1387 L 746 1380 C 729 1373 722 1372 712 1374 C 704 1376 702 1377 700 1383 Z M 297 1385 L 300 1391 L 291 1385 C 284 1380 282 1379 281 1380 C 279 1383 281 1385 291 1393 C 303 1402 305 1404 305 1409 C 304 1412 306 1415 309 1415 C 311 1415 311 1415 311 1412 L 311 1409 L 316 1412 C 319 1415 323 1416 325 1414 C 326 1413 324 1410 316 1404 L 305 1394 L 321 1404 C 332 1413 340 1415 340 1411 C 325.131409 1399.366211 309.78479 1388.356689 294 1378 C 293 1379 295 1382 297 1385 Z M 270 1386 L 297 1406 C 299 1404 297 1402 286 1393 C 272 1382 273 1383 271 1384 L 270 1386 Z M 915 1415 C 917 1420 919 1422 921 1420 C 922 1419 920 1394 919 1391 C 918 1390 917 1390 916 1393 C 914 1397 914 1411 915 1415 Z M 666 1397 C 666 1400 681 1408 692 1411 C 701 1413 716 1412 721 1409 L 725 1407 C 725 1406 714 1401 705 1399 C 697 1396 681 1394 677 1394 L 670 1395 L 666 1397 Z M 233 1404 C 238 1407 240 1410 240 1415 L 239 1419 L 244 1418 C 250 1418 250 1419 246 1424 L 243 1429 C 243 1431 246 1430 250 1426 C 255 1421 257 1420 267 1420 L 280 1419 C 283 1418 283 1418 267 1407 L 255 1398 L 262 1406 C 267 1410 270 1414 270 1415 C 268 1416 261 1413 256 1409 L 247 1401 L 244 1400 L 246 1403 L 252 1409 C 255 1413 255 1415 253 1415 L 240 1406 C 228 1397 227 1396 227 1398 L 233 1404 Z M 615 1404 C 615 1406 621 1409 628 1410 L 640 1416 C 645 1418 648 1420 652 1420 L 689 1416 C 691 1415 687 1412 680 1410 L 669 1405 C 659 1399 646 1397 629 1399 C 620 1400 615 1402 615 1404 Z M 139 1407 L 139 1425 C 140 1427 140 1427 145 1427 C 151 1426 189 1409 194 1405 L 198 1402 C 198 1399 168 1398 152 1400 C 144 1401 140 1403 139 1407 Z M 737 1414 L 739 1431 L 741 1449 C 743 1453 749 1453 757 1447 C 764 1442 764 1437 761 1414 L 759 1400 L 747 1405 C 736 1411 736 1411 737 1414 Z M 550 1405 L 546 1415 C 547 1417 545 1418 545 1415 L 540 1410 C 536 1406 536 1406 527 1406 L 462 1410 C 458 1411 457 1414 457 1421 C 457 1426 457 1428 459 1429 C 460 1430 471 1430 521 1428 C 603 1424 631 1422 631 1420 C 631 1418 619 1412 615 1412 C 612 1412 610 1411 604 1407 L 596 1402 L 584 1402 C 572.611877 1402.230469 561.252502 1403.232788 550 1405 Z M 207 1408 C 210 1411 210 1411 212 1410 C 213 1408 213 1408 210 1406 C 206 1403 206 1402 204 1404 C 203 1405 204 1406 207 1408 Z M 232 1416 C 235 1415 234 1413 232 1410 L 225 1406 L 227 1411 C 230 1416 231 1417 232 1416 Z M 169 1424 C 150 1433 148 1434 151 1438 C 152 1440 162 1441 166 1440 L 169 1437 L 174 1433 C 182.709534 1426.105591 191.054153 1418.762329 199 1411 C 198 1409 197 1410 191 1413 L 169 1424 Z M 709 1418 L 700 1422 C 698 1424 697 1428 699 1436 L 701 1450 L 700 1459 C 698 1459 698 1458 695 1440 L 692 1423 C 691 1420 690 1420 665 1424 C 645 1427 643 1427 641 1430 C 639 1432 639 1433 639 1436 L 641 1456 C 644 1480 644 1481 646 1482 C 675.262695 1476.314209 704.021729 1468.288452 732 1458 C 735 1456 736 1453 735 1443 C 733.863647 1433.036865 733.196228 1423.025757 733 1413 C 733 1410 729 1411 723 1414 L 709 1418 Z M 400 1414 C 378 1415 376 1416 372 1422 C 369 1428 368 1428 368 1422 L 368 1417 L 349 1417 C 315 1418 311 1419 306 1427 C 302 1431 298 1440 301 1439 C 350.259277 1434.885864 399.605194 1431.885132 449 1430 C 451 1429 451 1428 451 1422 C 451 1412 451 1412 436 1412 L 422 1413 L 400 1414 Z M 178 1436 C 170 1444 168 1448 168 1455 L 170 1473 C 171 1490 171 1489 182 1491 C 192 1492 193 1491 193 1477 C 193 1465 191 1452 189 1449 L 183 1445 L 179 1444 L 186 1441 C 189 1440 194 1438 195 1436 C 200 1432 207 1422 207 1418 C 208 1415 207 1414 203 1416 C 199 1418 186 1428 178 1436 Z M 553 1435 C 552 1437 554 1478 556 1485 C 557 1491 558 1491 584 1489 C 592.2948 1488.018677 600.65332 1487.684326 609 1488 L 623 1486 C 638 1484 638 1484 638 1473 C 636.275085 1458.905396 633.939575 1444.892212 631 1431 C 629 1429 620 1429 584 1431 C 556 1432 554 1433 553 1435 Z M 460 1437 C 457 1439 457 1441 460 1468 C 461 1483 462 1489 464 1490 C 465 1492 468 1492 507 1492 C 543 1492 548 1492 548 1490 L 547 1475 L 545 1449 C 545 1438 545 1436 543 1435 L 539 1433 C 512.628784 1433.432495 486.280029 1434.766602 460 1437 Z M 365 1447 L 366 1463 C 368 1477 368 1477 366 1479 C 363 1483 362 1480 360 1459 C 358 1441 358 1440 356 1440 L 300 1444 C 297 1446 297 1448 298 1460 C 299.951477 1472.258667 301.286499 1484.607544 302 1497 L 322 1498 C 365.662903 1496.236694 409.329681 1494.569946 453 1493 C 458 1493 458 1490 457 1480 L 454 1456 C 453 1435 453 1436 439 1436 L 399 1439 C 369 1441 367 1442 365 1447 Z M 152 1483 C 157 1487 161 1489 163 1487 C 165 1486 164 1451 162 1448 L 158 1444 L 139 1441 L 137 1441 L 140 1454 C 144 1471 146 1477 152 1483 Z M 842 1452 C 835 1457 833 1460 836 1463 C 840 1467 865 1471 879 1470 L 887 1468 L 883 1458 C 876 1447 872 1443 864 1442 L 856 1443 C 852 1444 849 1446 842 1452 Z M 243 1446 L 245 1468 C 247 1492 248 1494 254 1496 L 273 1497 L 289 1498 L 291 1496 C 293 1493 293 1492 294 1477 C 294 1460 293 1449 289 1445 C 287 1443 287 1443 262 1445 L 243 1446 Z"/>
        <g id="pitcher-text">
            <path id="path1" fill="#4d41a1" fill-rule="evenodd" stroke="none" visibility="hidden" d="M 359 304 C 362 301 366 299 369 299 C 373 299 378 302 378 304 C 378 307 367 345 365 348 L 361 350 C 358 350 355 353 356 354 C 357 355 373 360 375 359 C 376 358 376 356 373 354 C 370 351 370 350 373 339 L 380 318 C 384 305 385 303 391 305 C 396 307 398 310 400 316 L 402 321 C 404 321 409 307 408 306 L 359 291 L 356 296 C 353 305 355 309 359 304 Z M 322 388 L 326 390 C 327 391 331 434 330 436 L 326 439 L 323 443 C 323 444 325 445 337 443 C 342 443 343 443 343 441 L 340 438 L 336 436 L 333 413 L 331 391 L 335 388 C 340 383 340 382 332 382 L 322 383 C 317 383 317 386 322 388 Z M 368 496 L 373 497 L 382 518 L 390 540 L 367 521 L 342 501 L 331 506 C 331 507 335 509 338 509 L 341 510 C 343 512 358 550 358 552 L 356 556 L 355 560 C 355 562 356 562 361 560 C 368 557 372 555 372 553 L 367 551 C 362 550 362 550 359 543 L 348 516 C 359.963684 526.766724 372.304749 537.106567 385 547 C 390 550 394 548 394 543 L 385 519 L 376 495 L 378 491 C 381 489 381 486 380 486 C 379 485 376 487 371 488 C 361 492 360 494 368 496 Z M 317 574 C 312 575 312 578 317 580 L 321 582 L 319 593 L 313 609 C 312 609 299 587 299 585 L 302 582 C 306 580 306 578 304 577 C 303 576 287 578 286 579 C 284 581 284 582 288 584 C 291 585 293 588 300 599 C 313 620 315 629 309 633 C 306 635 305 638 309 638 L 318 637 C 327 635 329 633 323 631 C 320 630 318 628 318 627 C 316 622 317 611 321 597 C 324 585 325 582 328 579 L 331 574 L 317 574 Z M 303 718 C 306 716 310 719 310 722 L 310 724 L 306 748 C 301 772 301 777 303 780 C 305 782 305 785 303 785 L 293 781 C 284 776 283 774 289 773 L 295 771 C 297 768 298 761 297 759 L 281 751 C 279 750 278 750 274 754 C 270 759 270 761 272 764 C 275 767 275 770 273 770 L 258 763 C 256 761 258 759 261 759 L 266 758 L 283 739 L 284 738 C 290.420807 731.416992 296.7547 724.749756 303 718 Z M 293 733 L 286 741 L 284 744 L 283 744 L 283 745 C 283 746 284 747 290 750 L 298 753 L 302 740 L 302 738 L 304 724 C 303 722 301 723 293 733 Z M 327 825 C 325 826 325 826 333 829 C 335 830 335 830 335 853 L 334 878 C 332 881 333 881 319 857 L 308 837 L 312 833 C 317 827 316 826 304 829 L 293 832 C 291 833 293 836 297 837 L 301 839 L 302 864 C 301 884 301 888 299 888 C 298 888 275 849 275 845 L 278 841 C 282 838 282 836 279 836 C 275 836 261 840 260 841 C 259 842 260 844 263 845 C 267 845 269 848 282 871 C 294 892 296 895 299 895 C 303 895 304 892 305 871 L 306 850 C 308 848 309 851 319 869 C 328 885 331 888 334 886 C 338 884 338 881 338 860 C 339 835 339 828 342 825 C 347 820 344 819 333 822 C 330 822 327 824 327 825 Z M 324 928 C 328 928 330 930 348 954 C 361 971 362 972 366 973 C 372 974 371 976 361 980 L 351 984 C 349 984 349 981 352 978 L 354 974 C 354 971 348 964 346 964 L 336 967 L 328 971 L 328 976 C 328 983 330 985 333 985 C 337 985 339 986 339 988 C 339 989 326 995 323 995 C 321 995 320 993 322 991 L 325 987 L 322 959 L 320 934 L 320 930 L 324 928 Z M 325 935 C 324 935 323 936 323 939 L 325 952 L 325 953 L 327 965 C 328 966 341 960 342 958 C 343 957 327 935 325 935 Z M 316 1012 C 317 1011 316 1010 329 1016 C 338 1019 341 1021 345 1025 C 353 1033 354 1040 349 1048 C 346 1052 342 1054 337 1055 C 328 1056 328 1056 334 1072 C 338 1083 338 1086 335 1086 C 330 1086 327 1080 326 1068 C 325 1061 323 1056 319 1054 C 314 1052 312 1053 309 1062 C 308 1066 308 1066 310 1069 C 313 1073 313 1076 309 1074 L 300 1071 C 292 1068 292 1065 298 1064 L 303 1063 L 312 1042 L 321 1021 L 318 1017 C 316 1015 316 1013 316 1012 Z M 321 1034 L 315 1048 C 315 1049 324 1052 331 1052 C 338 1052 343 1050 345 1046 C 347 1041 347 1040 345 1035 C 342 1031 340 1029 334 1025 C 327 1020 326 1020 321 1034 Z M 287 1118 L 290 1118 C 300 1119 303 1119 307 1121 C 322 1128 328 1145 319 1160 C 312 1173 301 1179 281 1180 C 274 1181 273 1181 273 1179 C 272 1178 273 1177 274 1177 L 277 1174 L 280 1172 L 279 1151 L 277 1127 L 272 1124 L 269 1121 C 269 1120 271 1119 274 1119 L 286 1118 Z M 283 1125 L 283 1149 L 286 1172 C 287 1174 287 1174 292 1174 C 299 1173 305 1170 310 1165 C 323 1154 320 1135 304 1127 C 297 1124 284 1123 283 1125 Z M 304 1227 C 314 1222 333 1228 332 1235 C 332 1239 328 1239 323 1235 C 314 1228 307 1228 302 1232 C 299 1235 299 1238 302 1241 L 316 1248 L 328 1256 C 330 1260 330 1266 326 1271 C 323 1276 316 1282 310 1285 C 302 1288 291 1286 290 1280 C 288 1274 293 1266 302 1259 L 308 1254 L 302 1249 C 295 1246 293 1243 294 1238 C 296 1233 299 1229 304 1227 Z M 308 1259 C 299 1263 293 1275 298 1280 C 301 1282 307 1283 311 1281 C 318 1277 324 1267 322 1261 C 321 1257 314 1256 308 1259 Z"/>
        </g>
    </g>
</svg>
