<?xml version="1.0" encoding="UTF-8"?>
<!-- Generated by Pixelmator Pro 3.7.1 -->
<svg width="713" height="446" viewBox="0 0 713 446" xmlns="http://www.w3.org/2000/svg">
    <g id="Group">
        <path id="Path" fill="#4d41a1" stroke="none" d="M 158 1 L 156 3 L 152 4 L 146 6 C 144 8 144 9 144 14 C 145 21 142 25 137 25 L 130 28 C 129 30 126 31 125 31 L 123 32 C 122 33 121 34 118 34 C 114 34 113 34 103 44 C 96 52 93 55 91 55 C 88 55 80 59 80 60 L 78 61 L 75 62 C 74 64 72 64 67 64 C 60 64 59 64 55 68 L 51 74 C 51 76 54 79 56 79 C 58 79 58 76 56 76 C 55 75 56 74 58 71 C 61 67 61 67 68 67 C 75 67 76 67 79 64 L 84 61 L 87 59 L 92 58 C 95 58 97 57 105 48 C 114 40 116 38 118 38 L 123 37 L 126 35 L 131 32 L 138 29 C 141 28 148 22 148 20 L 150 19 C 152 19 152 18 149 15 C 147 12 147 12 149 10 L 153 8 L 158 6 L 166 6 C 168 7 171 8 177 8 C 184 8 185 8 187 11 L 192 14 L 194 15 C 195 16 198 17 203 17 C 210 17 211 17 211 15 C 211 14 209 13 203 13 C 198 13 196 12 195 11 L 193 10 C 191 10 190 9 188 7 C 186 4 186 4 176 4 C 168 4 166 4 165 2 C 163 0 161 0 158 1 Z M 376 6 L 375 7 L 366 12 L 363 13 L 360 15 C 360 17 365 16 366 14 L 368 14 L 368 16 L 366 19 L 365 20 C 364 20 363 25 364 28 C 365 31 366 30 367 26 C 367 23 368 23 370 24 C 371 24 372 24 373 22 C 373 20 374 19 376 19 L 378 20 L 380 21 C 381 21 382 20 380 18 C 379 17 379 17 382 17 L 386 18 C 387 18 388 18 387 17 C 386 13 387 11 390 11 C 395 11 394 8 388 7 C 378 5 376 5 376 6 Z M 396 11 C 394 12 395 14 397 14 L 399 15 L 396 15 C 395 15 394 15 393 17 C 393 19 392 20 391 20 L 391 21 L 394 21 C 397 21 398 23 396 24 L 394 27 C 394 29 398 31 399 29 C 400 27 401 28 402 30 C 403 33 405 32 406 29 L 406 24 L 408 24 C 412 24 413 24 414 22 C 415 21 414 20 413 18 C 410 16 410 16 408 17 C 406 19 402 20 402 18 L 404 17 C 406 16 405 14 403 13 L 400 11 L 396 11 Z M 218 16 C 218 19 220 20 224 20 C 227 20 228 20 229 22 L 257 22 C 280 22 286 22 288 20 L 320 19 C 331.356689 18.818787 342.700409 18.15152 354 17 C 354 15 287 15 286 17 C 285 19 281 19 258 19 C 234 19 231 19 229 17 C 227 15 218 14 218 16 Z M 417 24 C 417 26 418 26 422 26 C 426 25 426 25 426 27 C 426 29 427 29 428 29 L 432 28 C 436 28 434 26 430 25 L 426 23 L 421 22 C 418 22 417 22 417 24 Z"/>
        <path id="path1" fill="#4d41a1" stroke="none" d="M 181 26 L 183 27 C 185 27 185 27 184 26 L 181 26 Z M 327 27 C 327 30 329 31 330 28 C 331 26 330 25 329 25 L 327 27 Z M 191 29 C 190 30 191 30 193 30 L 195 29 L 193 28 L 191 29 Z M 277 30 C 273 34 274 35 281 34 C 286 34 288 32 284 30 L 282 29 C 282 27 280 28 277 30 Z M 368 29 C 368 30 372 31 373 30 L 373 36 C 371 42 369 44 366 45 C 362 47 361 49 364 51 C 365 52 366 51 372 45 L 379 36 L 384 37 L 387 40 C 386 42 389 45 390 44 L 389 41 L 389 36 C 389 32 387 31 378 29 L 368 29 Z M 408 29 L 409 32 L 410 34 C 409 36 410 37 412 36 C 414 36 414 36 414 38 L 416 40 C 418 40 418 38 416 36 L 414 32 L 412 29 L 408 29 Z M 435 29 C 434 30 436 32 439 32 L 442 35 C 442 40 446 41 448 37 L 451 35 C 453 35 453 35 452 37 C 450 39 451 40 455 39 C 459 39 461 36 459 35 L 456 34 C 454 34 453 33 453 32 C 452 30 449 31 447 33 C 445 35 445 35 443 33 L 441 30 C 440 28 436 27 435 29 Z M 258 31 C 259 32 260 33 263 33 C 266 33 266 33 265 32 L 261 29 C 258 29 258 29 258 31 Z M 158 32 C 154 37 145 46 143 46 C 141 46 136 50 136 53 C 135 55 136 61 137 61 L 139 59 C 139 57 142 56 144 55 C 149 53 149 53 151 55 C 152 57 152 58 148 59 L 146 61 L 144 62 C 142 62 141 64 143 64 C 145 65 143 67 141 67 L 138 69 C 138 70 137 70 136 68 C 134 66 134 65 132 66 C 130 66 129 66 129 62 L 128 58 L 131 57 C 133 56 132 56 129 55 C 125 53 121 52 120 54 L 117 55 L 114 56 L 107 60 C 101 62 101 63 106 64 C 109 65 110 65 114 62 L 119 59 C 121 59 121 59 120 61 L 116 64 C 114 65 114 66 114 69 L 114 79 L 112 83 C 111 85 109 86 108 84 C 107 83 106 84 106 86 L 101 92 C 97 93 97 94 96 97 C 96 100 92 103 90 102 L 87 104 C 86 106 84 106 84 103 L 83 100 L 81 97 C 80 93 83 92 86 95 C 90 98 92 96 90 92 L 89 84 C 89 79 90 79 95 73 L 100 66 C 100 64 95 65 92 67 L 85 73 C 81 77 81 77 82 81 C 82 84 82 86 80 89 L 74 94 C 72 94 71 95 71 96 L 77 102 C 92 117 91 116 92 122 L 91 128 L 84 131 L 85 134 L 85 138 C 82 142 72 140 72 135 C 72 133 71 134 68 136 C 66 138 66 140 68 140 L 70 142 C 70 144 71 144 72 144 C 74 143 75 146 74 149 L 74 153 L 77 155 C 79 157 82 158 83 156 L 82 154 C 81 152 81 150 83 147 C 86 143 91 143 94 146 C 97 149 100 149 102 148 C 103 147 104 148 105 150 L 106 155 C 106 157 107 157 108 157 C 110 156 110 157 111 162 C 113 169 113 170 115 170 C 117 170 117 169 118 163 C 119 159 119 158 120 159 C 121 162 125 166 126 165 L 131 165 L 135 168 C 135 170 136 171 138 171 L 140 172 C 139 174 141 175 144 175 C 147 175 148 176 146 177 L 144 180 L 143 182 L 143 184 C 143 185 143 186 141 186 L 137 190 C 135 195 131 196 128 194 L 124 192 C 122 191 118 185 119 183 L 118 182 L 117 179 C 118 175 117 171 116 171 C 115 171 110 176 110 178 L 112 185 L 116 193 C 118 193 120 195 122 197 C 125 200 127 201 130 201 C 134 201 136 202 143 208 L 151 212 C 155 212 162 209 165 207 C 167 205 167 205 168 207 L 168 211 C 167 213 167 213 169 213 L 172 211 L 177 200 L 172 200 C 170 202 148 205 145 203 L 141 202 C 139 201 139 201 142 195 L 145 187 C 147 183 156 179 159 182 C 161 183 163 182 164 177 C 164 175 164 174 162 173 C 159 171 158 169 161 169 C 164 169 176 160 179 157 C 181 153 181 153 186 153 L 198 155 C 202 156 204 157 205 156 C 205 155 207 155 209 157 L 223 159 C 230 159 233 159 234 161 C 237 163 237 166 234 166 C 231 166 228 168 228 171 C 228 172 230 172 233 170 C 236 169 236 169 238 171 C 240 173 240 173 239 174 L 237 177 L 232 187 C 230 188 232 189 234 188 C 238 186 241 182 242 179 C 243 176 243 175 241 172 C 240 169 239 167 240 166 L 240 161 C 238 158 239 156 243 156 C 245 156 246 155 248 152 C 251 145 248 140 236 126 C 229 119 228 117 228 114 L 227 109 C 225 107 225 106 227 105 C 229 104 230 104 229 101 C 229 97 227 96 225 97 L 218 98 L 212 98 L 209 97 C 206 94 203 94 201 95 C 200 97 197 97 187 97 C 176 97 174 97 170 99 C 164 102 162 105 163 109 L 164 115 L 166 120 L 169 124 L 171 129 C 173 132 175 141 175 143 C 174 144 175 145 176 146 C 179 148 179 151 177 154 L 174 154 L 173 151 C 173 148 170 148 167 150 L 163 153 L 163 151 L 164 146 L 166 142 C 168 139 167 137 166 139 L 161 142 C 158 143 158 143 158 146 C 158 151 156 151 152 147 C 150 145 149 144 150 142 C 151 140 151 137 149 137 C 147 137 146 140 146 142 L 145 145 C 142 149 144 154 148 155 C 156 157 162 158 165 156 L 169 156 L 167 157 L 165 158 L 164 160 L 158 163 C 155 165 152 166 147 166 C 142 167 141 167 139 164 C 137 162 137 162 135 163 C 133 164 133 164 130 160 L 126 154 C 126 151 126 151 123 151 L 114 150 C 110 150 109 149 108 146 L 104 141 C 101 140 96 132 96 130 L 98 127 L 100 124 L 98 120 L 96 116 C 96 114 102 107 104 107 C 107 107 108 104 108 99 C 107 94 107 94 110 91 L 114 88 L 116 86 L 122 86 C 122 87 123 88 125 88 C 128 87 129 88 129 90 L 130 94 C 132 96 139 90 139 88 C 139 86 140 86 143 86 C 146 87 146 87 146 85 L 145 81 C 143 80 144 71 146 70 L 150 68 L 154 63 L 157 58 L 158 54 C 158 51 158 51 156 52 C 154 54 152 54 152 51 C 152 49 157 46 158 46 L 159 49 C 159 50 160 51 162 51 C 166 51 167 52 168 55 C 168 58 171 59 171 57 L 173 56 C 176 56 176 52 173 50 L 170 47 C 170 44 175 42 179 42 C 181 43 183 42 185 41 C 189 38 189 34 186 36 L 171 36 C 170 37 169 36 168 34 C 166 31 165 30 162 30 L 158 32 Z M 127 66 C 127 70 128 72 130 72 L 133 74 L 139 74 L 137 77 C 134 80 129 81 129 78 L 126 77 C 124 77 115 70 115 69 C 115 68 116 67 118 67 L 122 65 C 124 64 127 64 127 66 Z M 221 102 L 222 105 L 215 106 C 214 105 217 99 218 99 L 221 102 Z M 204 103 L 207 106 C 208 105 209 106 210 109 L 213 113 L 219 119 L 224 125 C 226 126 230 134 230 136 C 230 138 230 139 232 139 C 234 139 235 140 237 143 L 238 147 L 237 146 L 236 145 L 234 146 L 235 148 C 237 148 236 150 234 152 C 232 153 232 153 233 151 C 233 149 233 149 232 150 L 225 151 L 218 152 L 213 153 C 208 154 206 153 209 150 C 211 149 211 149 209 147 C 206 145 205 146 205 148 C 205 150 203 152 201 151 L 198 150 C 196 149 196 149 197 148 L 197 144 L 196 145 L 192 147 L 188 149 C 185 150 182 150 182 148 L 180 146 C 178 146 177 143 178 135 L 177 127 C 175 125 173 111 175 108 C 176 105 180 103 183 104 L 186 104 L 191 103 L 197 101 C 199 99 203 100 204 103 Z M 154 173 C 153 175 150 175 150 174 L 152 172 L 154 173 Z"/>
        <path id="path2" fill="#4d41a1" stroke="none" d="M 180 133 L 181 135 L 183 133 L 181 131 L 180 133 Z M 294 32 C 294 33 295 35 296 34 L 305 34 L 313 33 C 312 31 295 30 294 32 Z M 355 33 C 353 35 353 36 355 36 C 357 36 360 33 360 32 C 360 30 356 31 355 33 Z M 428 34 C 428 36 425 41 423 41 L 421 42 L 427 45 L 431 47 C 432 49 434 51 436 51 L 439 54 L 441 56 L 445 56 L 447 55 C 449 57 450 54 449 51 C 448 46 448 46 445 46 L 443 49 L 443 52 L 442 50 C 442 47 442 46 435 40 C 432 38 432 37 432 36 C 434 34 432 32 430 32 C 428 32 427 32 428 34 Z M 203 39 C 201 42 201 42 202 43 C 205 43 210 41 210 39 C 210 36 206 37 203 39 Z M 461 40 C 459 43 459 43 464 44 L 466 44 L 466 42 L 471 44 L 474 44 C 476 44 477 44 478 46 L 481 49 L 488 52 L 493 55 L 495 56 L 498 58 L 510 64 L 515 67 C 516 67 522 69 526 72 L 531 73 L 534 74 L 537 76 L 540 78 C 542 80 546 79 546 76 C 546 74 535 67 535 68 L 533 69 C 531 69 531 68 532 67 C 532 66 532 65 530 64 L 526 62 L 522 62 C 519 63 518 63 518 61 C 518 59 512 56 509 56 L 506 54 L 502 52 L 499 51 L 495 50 C 493 50 492 49 492 48 L 489 47 L 486 45 C 485 42 475 40 474 42 C 473 44 471 43 471 40 C 471 38 470 37 467 37 C 463 37 462 37 461 40 Z M 351 40 C 350 41 349 42 348 41 C 346 41 346 41 347 43 L 348 47 C 349 50 350 50 352 49 C 353 48 353 48 354 50 C 355 53 355 54 352 58 L 350 64 L 358 64 L 361 62 C 364 58 364 57 360 55 C 357 54 356 51 358 49 C 359 48 359 48 357 47 L 355 44 L 353 40 L 351 40 Z M 235 42 L 239 42 L 236 41 C 234 41 234 41 235 42 Z M 382 42 C 381 44 382 45 383 44 L 383 41 L 382 42 Z M 403 43 L 401 46 C 399 47 398 48 399 49 C 402 52 407 49 406 45 L 405 43 C 405 41 403 41 403 43 Z M 309 45 L 310 49 L 310 52 C 309 54 306 54 304 52 C 302 50 301 51 298 54 C 295 57 294 58 298 59 L 300 61 C 300 63 301 63 304 63 C 308 62 309 62 310 59 C 311 56 311 56 312 58 L 315 61 L 318 63 C 320 66 324 62 323 58 L 321 58 C 319 59 316 54 317 52 C 318 51 318 49 316 47 C 314 42 311 42 309 45 Z M 332 45 C 330 46 330 48 332 48 C 334 48 334 48 334 50 C 332 56 332 57 334 57 C 336 58 336 58 336 60 L 336 64 C 337 66 339 64 339 60 L 342 52 C 347 45 346 44 339 44 L 332 45 Z M 208 47 L 204 50 C 200 53 199 53 194 52 C 190 52 189 52 188 54 C 187 55 187 56 184 55 C 181 54 177 55 177 56 L 178 57 C 180 57 183 63 183 64 C 182 66 185 68 186 67 L 186 60 C 184 58 186 57 189 58 C 192 61 200 60 201 57 C 202 54 206 54 210 58 C 216 62 219 62 220 60 L 220 55 C 222 55 228 60 229 64 C 230 66 230 66 230 64 C 230 59 231 59 236 60 L 243 63 C 246 64 255 66 266 66 C 273 67 274 67 275 69 L 279 73 C 283 75 283 75 284 73 L 286 69 L 288 65 C 288 63 288 63 283 63 L 276 65 C 275 66 274 66 268 63 L 259 61 L 251 59 L 241 58 L 235 57 L 231 56 C 227 56 223 55 220 52 C 215 47 209 44 208 47 Z M 268 47 C 267 49 269 51 270 49 C 271 48 271 46 269 46 L 268 47 Z M 411 48 C 411 50 412 50 413 50 C 415 50 416 49 416 48 L 413 47 L 411 48 Z M 387 49 C 387 54 394 56 395 51 C 395 48 395 48 391 48 L 387 49 Z M 423 51 L 419 52 C 416 52 415 53 418 54 C 420 55 424 53 424 51 L 423 51 Z M 469 54 C 468 57 471 59 475 57 L 475 54 C 473 50 470 50 469 54 Z M 407 54 C 405 55 405 56 408 58 C 410 60 410 60 412 58 C 416 54 412 51 407 54 Z M 477 54 L 480 55 L 482 54 L 480 53 L 477 54 Z M 399 56 C 398 56 398 58 400 58 C 401 58 403 56 401 56 L 399 56 Z M 481 57 C 479 60 481 61 486 61 C 491 62 492 60 487 57 L 481 57 Z M 442 62 L 440 64 L 439 65 C 436 65 432 68 432 71 C 432 74 434 74 435 71 C 435 69 436 69 438 69 L 441 68 C 442 67 443 67 444 69 C 446 70 446 70 446 68 L 444 60 L 442 62 Z M 379 65 C 375 68 374 71 376 71 C 379 71 384 67 384 65 C 384 62 382 62 379 65 Z M 341 66 L 339 68 C 340 69 345 67 345 65 C 345 63 343 64 341 66 Z M 464 65 L 466 66 L 468 65 L 466 64 L 464 65 Z M 175 66 L 169 67 C 165 68 163 69 160 72 L 155 78 L 158 81 C 162 84 163 86 163 90 L 160 92 C 156 92 155 97 158 99 C 160 100 161 100 162 96 L 165 91 C 167 89 167 89 166 88 C 164 86 164 81 166 78 L 169 73 C 169 71 170 70 172 70 L 175 71 C 176 73 179 75 182 75 L 180 70 C 177 65 176 64 175 66 Z M 493 69 C 492 72 492 73 495 73 L 502 76 C 507 82 508 81 506 74 C 504 70 502 69 497 67 C 495 67 494 67 493 69 Z M 426 71 L 425 73 C 425 76 429 75 429 72 C 429 70 427 69 426 71 Z M 298 72 L 294 79 C 291 82 290 84 290 88 C 290 93 290 93 294 94 C 298 94 300 93 300 90 C 300 85 304 83 308 86 C 309 88 311 88 314 87 L 322 88 L 334 90 L 340 90 L 340 87 C 340 84 339 83 337 83 L 333 84 L 330 84 L 330 82 L 332 78 L 332 75 L 328 77 C 326 78 324 79 323 78 L 319 78 C 316 79 312 78 311 75 L 306 74 C 302 75 301 74 300 73 L 298 72 Z M 514 74 C 514 76 515 77 516 77 C 518 77 519 74 517 72 C 515 70 514 71 514 74 Z M 228 75 L 224 77 C 220 77 216 79 218 81 L 224 84 L 229 86 L 232 83 L 235 80 L 229 74 L 228 75 Z M 40 79 L 33 87 L 27 95 L 26 97 C 24 98 24 106 26 110 L 27 117 C 27 121 30 127 31 127 L 33 124 C 33 122 35 120 37 118 C 40 116 41 115 41 113 C 41 110 45 107 50 106 C 53 105 55 103 54 101 L 50 100 C 43 102 38 94 43 91 L 44 89 C 42 86 34 90 34 94 C 33 97 30 97 30 93 L 32 91 C 33 91 36 89 38 86 C 42 82 44 80 46 80 C 50 79 49 77 45 76 C 42 76 41 76 40 79 Z M 40 102 C 40 107 39 108 37 108 C 36 109 35 108 35 107 C 33 101 35 96 38 96 C 39 96 40 98 40 102 Z M 282 78 L 282 82 C 284 84 286 82 284 78 L 284 76 L 282 78 Z M 470 78 L 472 79 L 473 78 L 472 77 L 470 78 Z"/>
        <path id="path3" fill="#4d41a1" stroke="none" d="M 549 78 C 549 80 553 83 555 83 C 558 83 562 87 561 89 C 561 91 568 94 571 94 L 573 95 L 576 98 L 581 101 L 586 104 L 588 105 L 585 106 C 583 106 583 109 585 110 L 589 113 C 589 115 591 116 592 116 L 595 117 C 596 118 597 118 597 116 L 596 115 L 595 113 L 596 112 L 597 113 L 598 115 L 600 117 C 600 120 604 124 606 124 C 608 123 608 124 605 127 L 602 130 L 599 128 L 596 126 L 593 128 L 588 131 L 582 131 C 580 135 567 131 567 127 L 569 124 L 571 122 L 569 119 C 563 114 558 111 558 114 L 560 115 L 561 117 C 561 120 560 121 557 118 L 551 115 C 548 115 545 113 542 111 C 539 108 538 108 534 108 C 531 109 530 109 528 107 L 523 105 L 517 101 C 515 98 514 98 513 99 C 512 101 509 101 510 99 L 508 98 C 506 98 505 97 504 95 C 503 93 503 93 501 94 C 498 94 497 92 499 90 C 500 89 500 89 497 89 L 492 87 L 490 87 C 489 88 488 89 487 88 L 487 84 L 488 81 C 488 79 488 78 485 80 L 485 82 C 486 84 482 86 479 85 C 476 85 475 85 474 88 C 472 91 463 96 460 96 C 456 95 455 91 456 87 C 457 85 457 85 455 85 L 453 84 C 451 83 445 85 443 87 C 441 88 441 89 445 91 L 449 94 L 450 96 C 450 98 452 100 455 100 L 459 101 L 462 103 L 465 104 L 470 105 C 473 105 474 104 474 103 C 474 101 477 100 481 101 L 488 102 L 494 105 L 499 106 L 505 107 L 510 109 L 518 112 C 533 119 543 122 548 122 L 552 123 L 555 125 C 557 125 558 126 558 127 L 562 132 L 565 136 C 565 138 555 138 548 136 L 521 135 L 498 135 C 498 134 476 135 470 137 C 467 137 466 138 468 139 L 482 139 L 496 138 L 498 141 L 500 143 L 506 141 C 515 139 515 139 520 140 L 535 140 L 540 141 C 543 142 544 142 546 140 L 548 140 C 549 141 553 142 564 142 L 581 143 L 588 143 L 594 140 C 595 139 600 138 600 140 L 604 143 C 608 145 610 145 627 145 C 645 145 647 145 648 147 L 649 151 C 648 152 649 154 650 155 L 654 167 L 656 173 L 658 178 C 659 180 659 180 662 179 L 666 178 L 666 175 L 664 171 L 661 167 C 660 166 659 165 660 164 C 660 162 660 161 658 160 C 655 158 654 154 656 154 L 656 151 L 654 143 C 654 139 653 137 652 137 L 649 139 C 649 141 648 142 647 142 C 646 143 641 138 641 136 C 641 134 635 123 633 123 L 631 122 C 629 121 626 120 625 121 C 625 123 626 124 631 126 C 636 128 636 129 636 132 C 636 135 636 136 634 137 C 632 138 631 138 630 136 L 628 135 L 621 139 C 620 142 614 141 612 139 C 610 137 610 137 612 133 L 615 130 C 617 130 617 128 615 126 L 612 122 L 609 119 L 606 117 L 603 115 C 600 114 600 114 601 110 C 601 107 600 106 598 109 C 596 111 594 110 594 107 C 594 105 593 103 590 102 C 587 100 587 98 587 97 C 587 95 587 95 585 95 L 582 93 L 579 92 L 576 91 C 575 88 569 86 566 86 C 564 87 563 87 564 85 C 564 83 563 82 561 82 L 558 80 L 555 79 L 551 78 L 550 77 L 549 78 Z M 265 80 L 254 81 C 243 81 244 81 242 83 C 238 87 243 91 248 88 C 251 86 254 85 256 87 L 262 90 C 266 90 266 90 265 88 C 264 86 264 86 266 84 L 268 82 L 270 84 L 273 87 L 275 88 C 275 89 274 90 272 90 C 269 90 268 92 270 93 L 273 98 C 276 104 277 105 280 104 C 282 103 282 102 282 96 C 281 88 280 87 278 87 L 274 83 C 272 79 270 78 265 80 Z M 371 81 L 366 85 L 363 88 L 359 84 L 354 81 L 350 85 L 345 90 L 342 91 L 344 94 L 348 97 C 351 98 359 96 360 94 L 363 93 L 370 91 L 376 88 C 378 87 379 81 377 81 L 371 81 Z M 184 82 C 182 83 181 85 183 85 L 190 85 C 195 86 197 86 198 88 L 200 90 L 203 88 C 208 85 209 84 212 86 C 214 88 216 88 216 87 L 212 84 C 209 82 207 82 199 82 L 184 82 Z M 384 83 C 383 84 384 85 386 84 L 387 83 L 384 83 Z M 423 85 L 420 88 C 417 88 417 90 419 91 L 425 90 C 429 87 428 88 427 84 C 425 81 423 81 423 85 Z"/>
        <path id="path4" fill="#4d41a1" stroke="none" d="M 520 83 L 522 84 C 524 84 522 82 520 82 L 520 83 Z M 62 86 C 59 87 58 88 61 90 C 63 92 63 93 59 95 C 57 98 57 98 58 99 C 61 101 63 100 63 98 L 65 94 L 65 88 C 67 86 65 85 62 86 Z M 74 86 L 71 88 L 69 89 C 69 92 73 91 74 89 L 77 87 L 78 86 C 77 84 74 85 74 86 Z M 506 86 C 504 87 506 88 508 87 L 508 86 L 506 86 Z M 524 89 C 525 91 527 93 532 95 L 540 99 L 543 100 C 544 102 545 102 546 101 L 558 101 C 563 98 565 97 563 95 C 561 93 561 93 556 94 L 545 94 C 543 95 541 94 539 93 L 533 91 L 528 90 L 526 88 C 524 87 524 87 524 89 Z M 229 89 C 228 90 232 95 234 95 C 236 95 239 91 239 90 L 236 90 L 231 89 L 229 89 Z M 144 94 L 146 97 C 149 99 150 98 150 95 C 150 92 146 91 144 94 Z M 593 98 C 590 99 591 100 596 100 L 606 103 L 617 108 C 620 108 623 110 624 111 L 631 113 C 636 113 643 116 645 118 L 653 124 C 655 124 654 119 652 117 C 650 115 650 115 651 114 C 652 113 654 113 654 115 C 654 116 655 117 657 117 L 662 120 C 666 122 666 122 666 120 C 666 118 668 119 671 121 C 675 123 676 124 678 123 C 681 122 684 124 685 128 L 687 132 L 691 137 L 696 143 C 700 147 700 151 697 155 C 694 159 694 159 696 161 C 698 162 699 169 699 185 C 700 189 700 190 702 190 C 705 192 705 196 702 201 C 700 205 699 213 702 213 L 703 214 L 698 224 L 697 228 C 697 233 694 241 693 239 L 691 238 C 689 238 688 240 685 246 L 681 255 C 681 257 680 258 677 259 C 671 261 666 266 666 270 C 665 275 667 275 671 271 L 675 268 L 678 266 L 682 264 L 686 263 L 689 261 C 691 261 691 259 689 259 C 686 258 688 256 690 256 L 693 256 C 694 255 695 254 696 255 C 698 255 698 255 698 253 C 698 251 699 250 705 243 L 707 240 L 709 234 L 711 229 L 712 228 C 713.397522 214.369064 713.397522 200.630936 712 187 L 713 175 L 712 167 C 711 167 710 168 711 170 C 712 175 711 178 709 176 C 707 174 707 168 709 166 L 709 161 L 707 155 L 707 151 C 709 149 709 148 707 146 L 705 142 C 704 138 701 134 699 131 C 691 124 688 121 686 121 L 684 119 L 681 118 C 679 118 678 117 678 116 L 673 115 L 667 113 L 662 112 L 658 110 L 652 109 L 648 107 L 643 106 L 638 107 C 637 108 635 107 633 106 C 631 104 629 103 626 103 L 621 102 L 614 101 C 608 101 607 101 606 99 C 605 97 604 97 600 97 L 593 98 Z M 628 108 L 625 108 L 627 107 C 629 107 629 107 628 108 Z M 647 110 C 648 110 649 114 647 114 C 645 114 642 111 643 110 L 647 110 Z M 711 221 L 710 225 C 709 227 709 226 709 223 L 710 219 L 711 221 Z M 307 99 C 303 101 303 104 308 105 L 314 109 C 317 111 318 112 320 111 L 327 110 L 333 108 C 334 105 341 103 343 103 L 344 103 C 344 100 341 100 334 101 C 330 101 328 102 327 103 L 321 103 C 319 103 318 103 316 101 C 313 98 312 98 307 99 Z M 564 99 L 568 103 C 571 105 576 106 575 104 L 573 103 L 569 100 C 566 98 564 97 564 99 Z M 114 108 C 111 112 110 114 113 116 C 116 118 117 118 117 115 L 120 111 C 123 108 122 105 119 105 L 114 108 Z M 279 107 C 280 109 284 109 284 108 C 284 106 283 106 282 106 L 279 107 Z M 64 110 L 57 112 C 52 112 48 113 49 115 L 52 116 C 54 116 55 117 57 119 L 60 122 C 63 121 65 122 66 124 L 68 126 L 68 116 L 67 112 C 68 109 66 109 64 110 Z M 69 112 C 69 114 70 115 71 115 C 73 115 74 113 72 111 C 70 109 69 110 69 112 Z M 418 115 L 419 116 L 420 114 L 419 112 L 418 115 Z M 275 115 L 274 117 C 274 119 270 123 269 122 L 268 124 L 266 127 C 265 129 265 129 267 130 C 269 130 269 131 269 133 C 268 135 269 135 270 136 C 272 136 272 137 272 142 C 273 146 272 148 270 153 L 267 159 L 261 159 L 255 161 L 252 161 C 250 161 248 163 250 166 C 251 167 252 168 251 169 C 251 172 254 177 257 178 C 261 178 261 180 258 181 L 254 184 L 248 186 L 244 187 L 240 191 L 231 199 L 230 202 L 227 207 L 223 212 C 221 212 220 213 220 215 C 219 219 220 220 222 218 L 225 216 L 228 214 L 231 211 C 234 210 234 210 234 205 C 234 201 234 200 236 198 C 239 196 241 197 241 200 C 241 201 241 202 239 203 L 237 205 C 237 209 238 210 242 211 L 245 210 L 243 208 L 241 207 C 240 206 245 200 248 198 C 251 196 251 194 248 193 C 245 192 246 191 249 191 L 252 192 C 252 194 253 194 255 194 C 257 193 258 194 258 198 L 259 204 L 255 204 C 250 205 249 206 251 209 L 253 212 C 254 213 254 213 252 215 C 250 218 250 220 252 220 C 256 220 258 217 258 213 L 259 208 L 260 205 L 261 202 L 262 199 L 261 196 C 259 195 260 194 263 193 C 265 193 265 192 265 190 L 265 186 L 266 180 C 265 177 266 176 267 176 C 269 176 269 175 270 173 L 274 166 L 278 160 C 276 154 276 154 278 154 C 281 153 281 151 280 146 L 280 141 C 283 140 283 138 280 135 C 278 133 278 132 280 129 C 283 126 283 121 280 117 C 278 114 276 113 275 115 Z M 271 162 L 270 165 L 265 165 C 265 163 268 160 270 160 L 271 162 Z"/>
        <path id="path5" fill="#4d41a1" stroke="none" d="M 618 116 L 620 116 L 619 115 L 618 116 Z M 18 118 L 17 122 C 15 124 15 136 17 139 L 17 147 C 19 149 19 149 18 153 L 17 160 L 13 179 C 10 191 10 191 13 192 C 16 193 16 197 13 200 C 10 203 10 203 10 214 C 10 227 11 228 16 234 C 19 237 19 237 16 240 C 12 243 12 248 16 253 C 19 257 19 260 17 262 C 15 264 15 279 16 280 C 18 281 21 291 21 297 C 21 300 22 302 24 304 C 26 307 26 308 25 310 C 24 312 28 319 30 319 L 31 325 C 30 330 30 331 34 334 L 37 339 L 39 339 L 41 338 C 43 338 42 342 41 345 C 40 347 40 348 42 351 L 46 355 L 47 357 L 46 363 C 46 366 47 368 49 370 C 52 374 53 376 50 380 C 49 381 54 385 56 385 C 58 384 59 385 61 386 L 65 388 C 66 388 70 392 70 394 L 73 397 L 76 398 C 76 400 87 405 94 407 L 100 410 L 104 411 C 107 411 108 411 109 413 C 109 415 115 417 120 417 L 126 418 L 133 420 C 139 421 145 423 145 425 L 154 426 L 166 427 L 173 428 L 179 430 L 182 432 L 187 439 C 188 442 188 442 191 442 C 193 441 194 442 196 443 L 199 445 L 202 446 L 215 445 L 229 444 C 242.762894 443.249634 256.460144 441.579224 270 439 C 272 440 275 439 295 437 L 316 433 C 330.470764 431.607788 344.834839 429.26944 359 426 L 370 424 L 376 423 L 380 422 C 384 422 403 420 409 418 L 412 415 C 413 412 413 412 417 412 C 419 412 420 412 420 414 L 420 416 L 427 415 C 439.539215 412.262756 452.227448 410.259338 465 409 L 473 407 L 485 405 C 495 404 510 401 514 399 L 523 398 L 532 396 L 552 393 C 558 392 558 392 558 390 L 560 388 L 572 388 L 578 389 C 583 389 584 389 586 387 C 590 383 592 380 592 378 L 596 377 L 600 375 L 604 375 C 606 375 607 375 608 372 L 612 369 L 616 366 L 620 363 L 627 358 C 632 354 632 354 632 350 C 631 347 632 346 633 346 L 634 343 C 633 341 633 341 635 340 L 637 338 L 639 335 L 641 330 L 643 327 L 644 319 C 643 313 643 312 645 312 C 646 312 647 312 646 310 L 648 307 C 652 305 653 303 653 297 C 652 292 652 291 654 291 C 655 290 656 290 655 288 C 655 286 656 285 658 284 L 661 280 L 663 278 C 665 278 665 275 663 275 L 659 278 L 655 281 C 654 281 652 272 653 271 C 655 268 656 263 655 262 C 653 260 651 261 651 262 L 650 265 L 648 267 L 646 268 C 644 268 643 269 644 271 C 646 272 646 288 645 289 C 643 291 640 302 641 303 C 642 304 639 307 638 307 L 636 306 L 635 303 L 634 306 C 634 308 635 309 636 309 C 639 310 640 313 638 316 L 634 322 C 632 327 630 328 629 324 L 631 320 C 634 318 634 317 632 317 C 630 317 625 323 625 325 L 623 328 C 621 329 621 330 622 330 L 625 329 C 627 327 628 329 628 333 C 628 335 628 336 626 337 C 624 337 624 338 625 340 L 624 343 L 621 341 L 619 341 L 619 344 C 622 345 619 351 616 351 L 616 350 C 618 348 619 345 617 345 L 610 351 L 603 357 L 600 361 C 599 365 598 366 597 366 L 594 368 L 591 368 C 587 366 587 367 585 370 C 584 373 582 374 582 372 C 582 370 580 371 580 373 C 580 375 579 375 573 376 L 565 377 L 555 380 L 552 381 L 551 382 L 549 383 L 548 384 C 546 384 546 383 547 381 C 548 380 548 380 545 380 L 542 381 L 535 384 C 528 382 527 382 525 384 C 525 385 523 386 522 385 L 519 386 L 515 388 L 511 389 C 510 391 507 391 507 389 L 501 389 C 499 389 498 389 497 391 C 495 393 492 394 492 392 L 491 391 L 489 392 L 485 393 C 483 392 481 393 479 394 C 476 396 475 396 474 394 C 473 393 473 393 471 395 C 469 397 468 397 465 396 L 458 397 C 457 399 455 399 453 398 C 451 398 449 398 447 400 C 444 402 443 402 441 401 L 438 401 C 437 402 431 403 428 402 L 424 402 L 420 403 L 417 404 L 411 405 L 403 407 L 396 409 C 394 412 391 411 392 408 C 392 407 392 406 389 406 C 386 406 385 407 385 408 C 386 411 383 412 378 412 C 375 411 373 412 371 413 L 366 414 L 355 414 C 354 416 352 416 349 416 L 342 417 L 338 417 L 335 418 L 330 419 L 325 421 L 321 421 L 315 422 L 312 422 L 308 423 L 304 424 L 300 425 L 294 425 L 290 426 L 282 427 L 273 428 L 267 429 L 264 429 C 262 427 259 428 256 430 L 250 432 L 245 432 L 242 431 L 244 429 L 245 427 C 245 426 247 423 250 421 C 253 417 254 417 256 418 C 257 419 257 419 257 417 C 257 413 260 410 263 411 C 266 411 268 409 266 408 L 264 408 C 262 411 261 410 261 407 C 262 404 261 403 259 403 C 256 403 251 407 251 409 C 252 410 251 411 250 411 L 248 415 C 248 417 247 418 244 419 L 239 424 L 236 427 L 225 432 L 221 434 C 219 435 217 436 216 435 L 214 435 C 212 437 209 437 207 435 L 204 435 C 202 438 197 437 191 433 C 185 429 183 424 183 419 L 183 401 C 184 393 183 387 178 384 C 175 382 173 382 175 384 C 176 385 175 387 174 390 C 172 393 172 395 173 396 C 175 399 174 400 171 403 C 169 404 168 407 167 409 L 165 413 L 162 415 L 154 416 L 148 417 C 146 419 143 418 141 415 C 138 412 131 409 129 410 L 125 408 C 123 406 122 405 118 405 L 114 404 L 110 404 L 106 403 L 103 402 L 97 400 C 95 399 93 398 91 399 C 89 399 88 399 86 395 C 84 391 82 390 80 389 L 73 385 L 67 381 L 65 380 L 63 376 C 60 374 61 371 64 370 C 68 369 68 368 65 364 C 63 360 62 360 60 363 C 58 366 56 365 53 363 C 50 360 50 360 52 355 C 53 351 53 350 51 348 L 49 342 C 49 338 48 337 46 333 C 44 331 41 328 41 326 L 38 322 L 36 319 L 34 315 C 32 311 29 296 28 286 C 27 280 24 273 21 272 C 17 271 18 267 23 267 L 26 266 L 28 264 L 30 263 L 28 261 C 26 261 25 260 25 258 L 23 254 L 22 248 L 21 242 C 19 240 19 240 21 237 C 22 233 24 233 25 236 C 25 238 26 238 26 237 C 27 236 27 235 25 233 L 23 227 C 22 224 22 223 24 223 C 26 223 26 221 25 218 C 24 215 24 215 22 215 C 19 216 19 215 19 213 C 19 210 19 210 21 210 C 24 211 24 210 25 200 C 25 186 26 184 29 180 C 33 176 33 176 31 169 C 29 164 28 163 27 165 C 26 167 24 166 24 164 L 26 160 C 27 160 29 157 29 155 C 30 153 31 152 34 151 C 36 150 37 150 36 148 L 36 141 C 35 136 35 136 30 135 L 24 134 L 22 132 L 20 130 C 18 129 18 125 20 122 C 22 120 22 116 20 116 L 18 118 Z M 14 218 L 13 220 L 12 218 L 13 216 L 14 218 Z M 613 355 L 614 357 L 609 357 C 608 354 610 353 613 355 Z M 531 385 L 530 387 C 528 387 527 386 528 385 C 529 383 531 384 531 385 Z M 577 119 L 578 121 L 578 118 C 577 117 577 117 577 119 Z M 138 119 L 130 122 L 123 123 C 120 125 120 125 120 128 C 121 134 121 135 124 131 L 126 127 L 128 125 C 130 125 130 125 128 128 L 127 131 C 128 132 138 130 140 129 C 144 127 142 118 139 118 L 138 119 Z M 581 120 L 581 124 L 585 120 L 581 120 Z M 667 125 C 667 127 670 132 672 132 C 674 132 677 129 676 129 L 672 126 C 669 124 667 123 667 125 Z"/>
        <path id="path6" fill="#4d41a1" stroke="none" d="M 73 127 L 76 130 C 78 132 79 132 81 131 C 83 130 84 128 82 126 L 79 127 L 73 127 Z M 660 131 L 663 136 L 666 139 L 667 137 L 667 134 L 663 132 C 661 130 660 130 660 131 Z M 439 133 L 437 137 C 435 138 428 138 426 136 L 423 136 L 418 134 C 416 132 415 132 413 133 C 412 134 412 134 414 135 L 418 138 C 425 147 425 147 427 145 L 429 141 C 429 139 431 138 432 140 C 434 141 442 141 445 139 C 451 136 451 134 445 134 C 442 135 441 134 441 133 L 440 131 L 439 133 Z M 675 134 C 675 136 680 140 681 140 C 682 139 679 134 677 133 L 675 134 Z M 262 135 C 261 136 261 138 263 138 L 264 137 C 264 135 263 134 262 135 Z M 49 137 L 49 142 L 51 140 C 53 138 51 135 49 137 Z M 297 137 C 296 138 296 138 298 140 C 299 143 300 147 298 148 L 297 153 L 306 148 C 307 146 309 146 317 146 C 328 146 329 144 320 142 L 307 138 C 299 136 299 136 297 137 Z M 452 137 L 453 138 C 454 139 457 138 457 137 L 452 137 Z M 138 139 C 136 140 137 142 139 142 L 141 141 C 141 139 139 138 138 139 Z M 339 139 L 336 141 L 339 140 C 343 140 344 139 342 139 L 339 139 Z M 399 138 L 400 141 C 401 143 402 144 403 143 C 406 142 406 141 403 140 L 399 138 Z M 126 143 L 124 147 C 125 148 130 146 130 144 C 130 143 131 142 133 142 C 136 141 136 140 132 140 L 126 143 Z M 667 142 L 667 151 C 669 155 679 160 679 157 L 678 154 L 676 150 C 675 147 670 141 669 141 L 667 142 Z M 344 143 C 344 145 346 147 349 147 L 352 149 L 348 152 L 346 161 L 345 172 C 344 174 344 174 342 172 L 338 169 C 336 167 335 166 335 163 L 336 158 C 338 154 334 147 331 149 C 330 149 330 155 332 157 L 332 160 L 330 166 L 330 170 L 334 172 C 339 173 339 173 339 177 C 339 180 339 181 341 181 L 345 180 C 348 178 349 180 350 185 L 351 190 C 353 191 355 190 355 188 L 357 185 C 361 183 358 179 354 180 C 351 180 349 177 350 175 L 350 172 C 349 171 350 170 352 169 C 355 167 355 167 355 161 L 355 152 L 353 148 L 351 144 C 349 142 344 141 344 143 Z M 360 143 L 362 144 L 364 143 L 362 142 L 360 143 Z M 408 143 L 408 145 L 407 148 C 406 150 407 153 410 156 L 411 160 C 410 163 410 163 412 163 C 414 163 415 165 413 166 C 411 167 411 172 413 172 L 416 169 L 418 165 L 420 162 C 422 159 422 158 420 155 C 419 154 417 151 415 151 C 413 149 412 149 413 146 C 413 144 413 143 411 143 L 408 143 Z M 682 145 C 682 146 683 149 685 150 L 687 155 L 689 161 L 690 159 L 693 155 C 696 152 696 151 692 151 C 690 150 690 150 690 146 L 690 142 L 686 142 C 683 142 682 143 682 145 Z M 63 147 L 62 152 C 64 155 64 155 67 152 C 70 150 70 148 70 146 C 69 143 66 143 63 147 Z"/>
        <path id="path7" fill="#4d41a1" stroke="none" d="M 430 149 C 429 152 429 154 431 156 L 433 158 L 433 155 L 432 149 L 430 145 L 430 149 Z M 285 149 L 284 151 L 282 152 L 283 154 L 288 148 C 287 146 285 147 285 149 Z M 451 150 L 447 154 L 446 158 L 446 159 L 448 157 L 453 153 C 456 152 457 151 457 149 C 458 146 456 146 451 150 Z M 469 148 C 469 149 472 150 473 149 L 473 148 L 469 148 Z M 492 148 L 492 150 L 494 150 C 496 149 494 147 492 148 Z M 532 150 L 530 152 L 531 156 C 531 158 532 159 534 160 C 537 161 537 161 538 158 C 539 155 538 150 536 149 L 532 150 Z M 10 152 L 8 154 L 4 158 L 0 161 L 0 169 C 1 177 1 177 3 178 L 6 180 C 9 182 9 179 6 176 C 4 174 4 173 4 168 C 4 163 5 161 7 159 L 9 156 C 9 155 10 154 12 154 L 14 152 C 14 150 10 151 10 152 Z M 96 153 C 93 156 93 156 94 158 L 96 162 C 96 165 94 166 92 164 C 91 161 85 162 85 165 L 93 165 L 93 168 L 92 172 L 90 173 C 88 173 87 175 87 180 C 87 183 86 184 85 181 L 85 175 C 86 169 84 167 81 169 C 79 170 78 171 78 174 L 77 180 L 79 184 C 82 186 81 188 78 187 C 74 187 72 191 73 194 C 74 198 74 198 72 198 C 69 199 67 208 68 215 L 69 224 C 69 227 69 228 71 229 C 75 230 73 234 69 234 C 67 233 67 234 66 238 L 68 250 C 70.143471 256.877838 71.814034 263.894196 73 271 L 75 276 C 75 280 81 290 84 293 C 85 293 86 295 85 298 C 85 303 85 303 90 307 C 98 315 101 317 104 317 L 111 320 L 121 321 C 128 321 129 321 131 319 L 134 316 C 136 316 135 313 134 312 C 131 311 133 310 138 310 C 144 310 146 312 142 314 C 139 315 135 318 135 320 C 135 323 139 323 144 320 L 150 318 C 152 319 155 318 158 316 C 163 314 164 314 163 312 C 163 310 162 310 158 310 L 153 312 L 148 312 L 155 307 L 159 305 C 161 303 161 303 163 304 L 165 306 L 168 306 L 171 302 L 174 299 C 174 297 170 298 169 300 C 168 302 167 302 165 301 C 161 301 154 303 152 305 C 151 307 150 307 147 306 L 142 306 L 135 307 C 130 307 130 308 130 310 C 130 312 126 314 123 313 L 120 313 C 119 314 117 313 112 311 L 104 307 L 102 305 L 100 304 C 98 304 92 299 92 296 C 92 295 94 294 97 294 C 100 294 100 293 97 289 C 94 287 94 287 93 288 C 91 290 91 290 89 288 C 86 285 85 283 87 283 L 89 285 C 91 287 93 288 93 285 L 95 283 C 97 282 96 276 94 277 L 92 277 C 90 278 90 273 93 265 C 98 254 98 254 95 253 L 92 250 C 92 248 91 247 90 247 C 88 247 88 248 88 252 L 87 258 C 85 258 85 260 87 260 L 89 264 C 89 268 89 269 87 270 C 84 273 83 276 86 277 C 87 278 88 281 86 281 C 83 283 80 277 81 271 C 81 267 79 261 75 255 C 73 251 72 250 73 247 L 72 244 C 70 243 70 241 73 238 C 75 236 78 235 77 238 C 76 239 78 246 81 251 L 83 255 L 83 247 L 81 237 L 81 226 L 80 223 L 80 214 C 78 208 78 203 80 203 L 82 201 C 82 199 82 198 84 200 L 85 202 L 89 187 C 91 182 91 181 94 181 C 98 180 98 180 98 175 L 100 163 C 102 150 101 149 96 153 Z M 78 228 L 75 230 L 77 227 L 78 228 Z M 93 282 L 91 282 L 91 280 L 92 280 L 93 282 Z M 385 152 L 388 153 L 392 153 L 390 152 L 387 151 L 385 152 Z M 464 152 L 465 154 C 466 155 468 153 467 152 C 466 150 464 151 464 152 Z M 516 152 L 518 153 L 520 152 L 518 151 L 516 152 Z M 314 155 C 312 157 312 160 315 161 C 316 162 317 161 317 159 L 320 156 L 321 154 C 321 151 316 151 314 155 Z M 324 153 C 323 155 325 160 326 161 C 327 161 328 159 327 155 C 327 152 325 151 324 153 Z M 550 154 C 551 156 551 157 553 157 C 556 158 556 159 553 160 C 549 161 546 164 546 166 L 549 169 C 551 171 551 171 552 169 L 552 166 C 551 163 554 162 555 164 C 556 166 563 165 563 164 C 563 162 562 160 559 160 L 556 157 L 554 155 L 551 153 C 550 152 550 152 550 154 Z M 379 155 L 381 157 C 383 158 383 158 383 156 L 381 155 L 379 155 Z"/>
        <path id="path8" fill="#4d41a1" stroke="none" d="M 306 159 C 304 163 304 164 306 166 L 312 177 L 315 180 C 317 180 317 180 317 185 C 316 191 318 193 324 192 C 327 192 328 192 330 194 C 332 196 333 196 334 194 L 334 190 L 333 188 L 333 186 C 332 185 331 186 331 188 C 329 191 327 192 327 190 L 325 186 L 323 183 C 323 183 322 181 320 181 C 318 179 318 179 320 179 L 323 181 L 327 181 L 330 178 C 330 176 323 174 319 175 C 316 175 316 175 314 172 C 314 170 312 169 311 168 C 309 168 309 167 309 162 C 310 156 309 155 306 159 Z M 370 158 L 370 163 C 371 164 374 161 374 159 C 374 157 372 156 370 158 Z M 460 158 C 459 159 461 160 462 159 L 461 157 L 460 158 Z M 60 159 C 59 160 59 165 61 166 C 63 166 63 165 63 161 C 62 158 61 157 60 159 Z M 591 160 L 588 161 C 586 160 584 161 584 164 C 584 167 588 166 591 164 C 593 162 594 158 592 158 L 591 160 Z M 676 160 C 674 160 672 163 674 164 C 675 165 676 165 677 163 C 680 161 679 159 676 160 Z M 397 161 L 397 163 C 398 164 398 164 398 162 C 398 160 398 159 397 161 Z M 481 162 C 481 164 482 165 484 165 L 486 168 C 486 171 488 173 492 173 L 498 176 L 496 178 C 493 179 492 182 495 182 C 497 182 497 182 495 183 L 488 184 C 484 184 478 186 472 191 C 469 194 468 194 464 194 L 459 194 L 455 196 C 452 195 452 196 450 200 C 448 206 446 207 443 203 C 440 201 440 200 442 199 C 444 197 443 197 440 197 C 436 197 435 201 438 202 L 439 207 L 440 215 L 440 221 L 441 226 L 443 229 L 445 226 L 448 223 C 451 223 456 220 456 218 C 456 217 452 216 451 218 L 444 218 L 444 213 L 443 210 L 442 209 L 444 208 L 445 209 L 451 209 L 456 208 C 461 209 462 208 459 203 L 456 200 L 461 199 L 467 197 L 470 196 C 474 196 479 193 482 190 L 487 187 C 491 186 490 191 485 196 L 480 202 C 480 204 482 210 484 211 C 487 215 488 213 488 206 C 489 200 489 199 491 199 C 492 199 493 200 493 202 L 497 205 C 499 205 501 207 502 208 L 506 211 C 509 211 509 210 507 208 C 506 207 505 206 506 205 L 505 203 C 502 203 502 201 503 197 C 504 193 503 193 501 196 C 499 198 499 198 500 199 L 500 201 C 497 201 494 199 494 197 L 492 195 C 490 194 490 194 493 193 L 498 191 L 495 190 C 494 191 493 190 493 189 C 492 187 493 186 495 187 C 497 188 497 187 498 185 L 500 183 L 501 181 L 501 177 C 503 176 502 174 498 172 C 496 172 494 170 494 169 L 493 168 L 492 169 C 492 171 490 172 490 172 L 490 169 C 491 167 491 167 489 166 C 488 165 487 164 488 163 C 488 162 488 161 486 162 L 483 161 L 482 160 L 481 162 Z M 181 166 C 178 169 177 172 180 172 L 183 169 L 185 166 L 186 164 C 186 162 185 163 181 166 Z M 504 164 C 503 165 504 166 506 166 L 507 164 C 507 163 505 162 504 164 Z M 574 164 C 572 164 572 165 574 166 C 575 167 578 167 578 164 L 574 164 Z M 625 163 C 624 164 625 169 626 169 L 628 164 L 625 163 Z M 215 167 L 215 170 L 217 172 L 217 174 L 219 178 C 219 180 220 181 221 181 C 223 181 224 180 223 178 L 222 172 C 222 169 219 164 217 164 L 215 167 Z M 391 165 L 389 168 L 387 171 L 390 170 L 393 168 C 396 168 396 165 394 165 L 391 165 Z"/>
        <path id="path9" fill="#4d41a1" stroke="none" d="M 467 166 C 465 168 465 168 467 169 C 469 169 471 171 472 172 C 475 175 476 176 478 173 C 481 170 481 170 478 169 C 476 168 475 167 476 166 C 476 164 476 164 474 165 L 471 165 C 469 164 469 164 467 166 Z M 432 167 C 432 169 434 171 435 169 C 437 168 436 165 434 165 L 432 167 Z M 672 168 C 671 171 671 172 673 172 L 674 169 C 674 165 674 165 672 168 Z M 378 169 L 380 171 L 382 169 L 380 167 C 379 167 378 167 378 169 Z M 512 168 C 510 171 511 172 513 171 L 515 168 L 512 168 Z M 595 170 C 594 171 593 173 591 173 C 588 173 586 175 586 176 L 591 176 L 594 175 C 597 175 598 173 596 170 L 596 168 L 595 170 Z M 631 170 C 631 172 632 172 634 171 C 635 171 635 170 633 169 C 631 168 631 168 631 170 Z M 66 171 L 66 173 L 67 173 L 68 171 L 67 169 C 65 169 65 169 66 171 Z M 463 170 L 462 172 L 459 176 L 455 180 C 454 182 454 182 451 181 C 448 179 448 179 448 181 C 448 182 449 183 451 183 C 453 184 453 184 453 187 L 450 190 L 450 193 C 451 194 452 194 453 192 L 455 189 L 456 186 C 455 185 458 184 460 186 L 463 185 C 466 183 466 181 463 181 L 461 180 C 461 178 465 175 467 174 L 467 172 L 465 170 L 463 170 Z M 523 170 L 523 172 L 522 175 C 521 177 521 178 523 178 C 524 177 525 176 525 173 C 525 169 524 168 523 170 Z M 613 170 C 614 172 618 173 618 171 L 614 169 L 613 170 Z M 367 173 L 370 177 L 372 176 L 375 174 L 376 173 L 372 171 L 365 170 L 367 173 Z M 531 171 C 530 174 531 175 534 175 C 537 175 537 174 534 172 C 532 170 531 170 531 171 Z M 443 172 C 438 172 437 174 440 176 C 442 177 443 177 445 174 L 447 171 L 443 172 Z M 603 174 C 604 177 607 178 607 175 C 607 173 605 171 604 171 L 603 174 Z M 559 173 L 560 175 L 561 173 L 560 172 L 559 173 Z M 422 176 L 420 180 C 420 182 417 181 416 178 C 414 175 413 175 410 178 L 408 180 L 410 180 L 414 183 C 415 185 416 185 418 185 C 419 185 420 185 421 187 C 423 191 428 196 431 196 C 433 196 436 194 436 192 C 436 190 439 190 441 191 C 443 193 443 193 445 191 C 447 188 446 186 440 187 C 434 187 429 184 429 179 C 429 172 425 171 422 176 Z M 429 184 L 426 187 C 424 188 422 186 425 184 C 427 182 429 183 429 184 Z M 195 176 C 195 178 200 180 201 178 C 203 176 201 174 198 174 C 196 174 195 174 195 176 Z M 541 175 C 540 176 540 177 542 177 L 543 176 C 543 175 542 174 541 175 Z M 570 176 L 571 177 C 572 178 572 177 572 176 C 572 175 571 174 570 176 Z M 641 178 L 643 180 C 645 180 645 178 643 178 L 641 178 Z M 376 180 C 374 181 374 184 376 184 L 379 186 C 381 188 381 188 380 191 C 378 193 377 200 378 204 L 381 206 C 383 206 383 205 383 204 L 382 198 C 382 195 382 194 384 193 C 389 192 389 192 386 191 C 383 189 383 185 387 184 C 392 183 391 181 386 181 L 381 180 L 376 180 Z M 661 186 L 662 193 L 662 196 C 660 198 660 204 662 204 L 664 201 C 664 198 665 198 666 199 C 668 199 668 199 668 197 L 668 188 L 667 188 C 665 192 663 190 663 186 L 662 181 L 661 186 Z M 668 182 L 670 184 L 671 184 L 670 182 L 668 182 Z M 525 184 C 524 185 524 192 526 193 C 527 194 527 194 527 192 L 529 188 L 529 184 L 525 184 Z M 531 184 C 531 185 532 186 534 186 C 536 186 536 186 535 185 L 533 184 L 532 183 L 531 184 Z M 543 185 C 542 187 543 189 545 189 L 546 187 C 546 183 545 182 543 185 Z M 580 185 C 579 186 581 187 582 186 L 581 184 L 580 185 Z M 637 185 L 637 186 C 639 187 640 186 638 185 L 637 185 Z M 561 187 C 561 189 563 190 564 187 L 563 185 L 561 187 Z M 408 189 C 408 191 407 192 405 193 L 402 195 L 405 195 C 408 195 409 194 410 193 C 412 190 414 190 415 193 C 415 195 415 195 416 194 L 415 191 L 414 189 L 411 187 C 409 187 408 187 408 189 Z M 503 188 C 501 188 502 190 504 190 L 506 189 C 506 188 505 187 503 188 Z M 517 188 L 517 190 L 519 190 L 518 188 L 517 188 Z M 620 188 C 620 190 621 190 622 190 C 624 190 625 189 625 188 L 622 187 L 620 188 Z M 681 189 L 682 192 L 683 193 C 685 193 684 188 682 187 L 681 189 Z M 183 191 L 179 192 C 176 192 176 193 177 196 C 178 198 178 198 182 195 C 186 193 187 191 184 190 L 183 191 Z M 649 191 C 648 191 649 194 650 193 L 651 191 C 651 190 650 189 649 191 Z M 106 193 L 104 198 C 102 202 102 210 103 214 L 105 221 C 106.047279 227.060013 107.382118 233.066788 109 239 L 111 241 C 113 241 117 245 117 247 L 119 250 L 119 252 L 117 252 C 116 251 115 252 113 253 L 109 254 L 104 262 L 101 266 C 99 269 99 272 102 272 L 105 268 C 107 264 107 263 114 260 C 122 256 122 256 124 257 C 125 258 127 259 129 258 C 131 258 133 258 136 260 C 140 262 142 262 147 257 C 150 254 151 254 152 255 C 155 257 156 256 156 253 L 157 250 C 159 249 160 245 159 244 L 155 247 L 151 251 C 149 251 149 247 150 245 L 159 241 C 160 243 163 240 162 238 C 162 236 162 236 164 236 C 166 236 167 237 165 238 C 164 239 165 241 167 241 L 168 239 L 170 238 C 172 238 172 240 169 243 C 167 245 166 246 164 245 C 163 245 162 245 162 247 L 161 249 L 159 252 C 159 254 167 257 170 255 L 173 254 L 170 254 C 166 254 168 250 173 248 C 177 246 178 245 178 243 L 177 239 C 174 237 175 235 179 233 C 186 228 189 225 189 222 C 189 219 189 219 186 219 L 179 222 L 171 225 L 162 230 C 158 233 157 234 155 233 L 147 232 L 129 228 L 125 226 L 121 225 L 117 224 L 111 221 C 109 219 109 218 110 217 L 110 211 C 108 204 108 202 110 197 L 111 192 C 110 190 106 191 106 193 Z M 122 236 C 124 238 124 238 125 236 C 127 235 127 235 130 237 L 132 240 L 134 238 L 136 235 L 138 238 C 140 240 140 240 143 239 C 146 237 149 238 149 241 C 149 242 149 243 147 242 C 145 242 145 242 146 243 L 148 247 C 148 250 148 250 145 250 L 141 248 L 139 247 C 137 247 137 248 138 250 C 138 252 138 253 136 253 L 134 255 C 133 259 124 256 124 252 L 123 249 L 122 247 L 120 244 C 118 244 117 234 119 234 L 122 236 Z M 346 192 L 341 196 L 336 199 C 335 199 333 202 333 204 C 333 207 328 211 326 211 C 324 211 324 211 325 208 C 325 205 324 201 322 203 L 318 204 C 314 205 315 207 319 209 C 323 211 323 211 323 215 C 322 219 322 220 324 220 L 327 220 C 327 217 329 214 331 213 L 336 211 C 337 210 338 210 339 212 L 341 214 L 342 212 C 345 208 345 208 343 204 C 341 201 341 201 342 200 L 345 200 L 349 202 C 352 202 352 202 352 198 C 351 193 350 191 349 191 L 346 192 Z M 292 194 L 292 196 L 294 196 L 295 194 L 292 194 Z M 366 196 L 365 198 L 363 200 C 363 202 367 201 369 199 C 370 197 370 197 368 195 C 366 194 366 194 366 196 Z M 544 196 C 543 198 544 201 545 201 L 545 194 L 544 196 Z M 649 196 C 648 197 648 198 650 198 L 651 197 C 651 196 650 195 649 196 Z M 552 197 C 552 199 553 200 557 200 L 559 200 C 557 200 556 198 556 198 C 555 196 552 195 552 197 Z M 562 197 C 560 197 562 199 565 199 C 567 199 568 197 566 197 L 564 196 L 562 197 Z M 570 197 C 569 198 574 202 575 201 C 576 200 574 197 572 196 L 570 197 Z M 580 197 L 581 199 L 582 197 L 581 196 L 580 197 Z M 588 197 L 590 199 L 593 200 C 596 201 597 201 595 198 C 594 196 588 195 588 197 Z M 204 202 C 199.464844 205.775665 195.125839 209.780899 191 214 C 191 216 192 217 193 217 C 194 217 195 220 195 224 C 194 226 194 227 196 227 L 198 222 L 200 216 L 201 214 C 200 213 202 210 204 210 C 206 210 207 216 205 217 L 203 222 L 200 229 L 197 234 L 196 238 C 194 240 195 244 197 244 C 198 244 202 240 202 238 L 203 231 C 204 227 205 226 208 224 L 211 220 C 210 218 211 216 212 215 L 214 211 L 216 210 C 218 209 218 207 215 204 L 213 200 C 213 197 210 198 204 202 Z M 249 200 C 249 202 251 203 252 202 L 250 198 L 249 200 Z M 535 200 L 534 202 L 537 200 L 535 200 Z M 615 201 L 614 206 L 613 208 L 613 210 C 614 211 615 212 616 211 L 620 201 C 620 198 617 199 615 201 Z M 517 201 L 520 204 C 522 204 521 201 520 201 L 517 201 Z M 56 203 L 57 205 L 58 204 C 60 203 59 201 57 201 L 56 203 Z M 633 203 C 630 206 631 207 634 207 C 642 209 644 209 644 208 C 644 207 638 201 636 201 L 633 203 Z M 395 204 C 394 207 395 210 397 210 C 399 211 399 209 399 205 C 399 202 396 201 395 204 Z M 416 204 C 411 205 409 207 412 207 L 415 210 C 415 213 419 215 421 213 C 423 211 428 210 430 212 C 431 213 431 213 431 210 C 431 208 430 206 428 205 L 425 203 C 423 202 422 202 416 204 Z M 82 204 L 82 208 C 83 209 83 209 83 206 C 83 203 82 202 82 204 Z"/>
        <path id="path10" fill="#4d41a1" stroke="none" d="M 349 204 C 347 205 347 206 349 209 C 350 211 351 211 353 211 C 357 210 358 207 355 205 C 352 203 352 203 349 204 Z M 371 205 L 368 209 C 366 212 365 213 366 215 C 366 217 366 217 363 217 C 359 217 357 219 359 221 C 361 223 364 223 365 221 C 367 219 371 220 374 222 C 375 224 378 225 380 226 L 384 228 C 386 229 392 229 393 227 L 395 226 L 398 225 C 399 223 396 222 391 222 C 387 222 386 222 387 220 C 387 218 385 216 385 218 C 384 221 379 220 376 218 C 373 216 373 215 374 212 C 376 204 375 203 373 203 L 371 205 Z M 675 205 C 673 207 673 207 674 208 C 676 209 677 209 678 207 C 680 203 678 202 675 205 Z M 301 206 L 301 209 C 301 211 302 212 303 211 C 305 209 305 206 303 206 L 301 206 Z M 387 206 L 389 208 L 390 207 L 388 205 L 387 206 Z M 514 210 L 514 217 L 515 221 C 515 222 517 224 519 224 L 518 218 C 516 216 517 214 520 214 L 523 214 L 520 212 L 518 208 C 518 206 518 205 516 205 C 515 205 514 206 514 210 Z M 585 206 L 581 210 C 579 212 577 214 577 216 C 576 219 577 220 579 218 L 582 218 C 584 219 584 219 584 217 L 586 213 L 586 208 L 588 206 C 588 204 585 205 585 206 Z M 533 208 L 530 211 L 532 213 L 535 217 L 536 219 L 540 217 L 541 212 C 540 205 538 204 533 208 Z M 554 208 C 552 210 552 210 553 211 C 555 212 557 212 558 210 C 559 207 557 206 554 208 Z M 602 209 L 601 211 L 599 213 L 597 216 C 597 219 599 220 601 218 L 605 218 C 609 220 611 215 607 211 C 604 208 603 207 602 209 Z M 402 211 C 399 213 400 216 403 220 L 406 223 L 408 221 C 410 218 411 214 409 211 C 407 209 405 208 402 211 Z M 405 217 C 404 217 402 216 403 215 L 404 215 L 405 217 Z M 466 212 L 461 216 L 459 218 C 459 220 462 220 463 219 L 466 218 C 469 218 479 214 479 213 C 479 212 472 209 469 209 L 466 212 Z M 567 211 L 569 214 C 570 214 570 210 568 209 L 567 211 Z M 688 210 L 686 214 L 686 218 C 687 219 688 218 689 215 L 689 210 L 688 210 Z M 635 213 C 634 216 634 216 636 216 C 638 216 639 215 639 213 C 639 209 636 209 635 213 Z M 665 211 C 664 212 665 222 667 224 L 668 224 L 670 219 C 672 214 673 212 671 211 L 669 212 L 667 212 L 665 211 Z"/>
        <path id="path11" fill="#4d41a1" stroke="none" d="M 375 212 L 379 214 L 379 212 L 375 212 Z M 504 215 L 506 217 L 507 215 L 506 214 L 504 215 Z M 626 216 C 624 216 625 220 627 220 L 629 218 L 629 216 L 626 216 Z M 54 220 C 54 223 56 225 56 222 L 57 219 L 55 217 L 54 220 Z M 309 218 C 309 221 313 225 316 225 L 319 225 L 315 221 C 311 217 309 216 309 218 Z M 237 219 C 236 220 237 222 239 222 L 240 219 L 237 219 Z M 241 223 C 238 228 238 228 240 230 C 243 234 242 236 238 236 C 235 235 235 235 233 243 L 230 253 L 228 256 L 223 265 C 223 267 227 266 228 264 L 231 262 C 231 263 233 262 234 260 C 235 258 235 258 237 259 L 238 262 C 239 264 243 261 243 259 L 245 256 L 246 251 L 248 245 C 252 231 252 225 247 220 L 244 218 L 241 223 Z M 242 238 L 242 243 C 241 248 237 256 236 256 C 234 255 234 246 236 241 C 238 237 240 236 242 238 Z M 421 221 L 422 223 L 424 225 L 425 228 L 426 229 C 426 232 428 232 431 230 L 434 229 L 432 227 L 429 223 C 428 220 428 220 425 220 L 421 221 Z M 503 221 L 500 222 L 496 223 L 486 223 C 483 225 482 225 480 224 L 474 224 L 465 226 C 460 226 446 229 445 231 L 450 233 L 457 233 L 466 232 L 473 231 L 480 230 C 486 231 486 231 488 228 C 489 226 493 225 495 227 L 497 227 L 502 225 C 506 225 506 224 506 223 C 506 220 504 219 503 221 Z M 553 221 L 555 222 L 557 221 L 555 220 L 553 221 Z M 274 223 C 272 223 272 225 274 227 C 275 228 275 228 276 226 L 277 223 L 274 223 Z M 585 224 C 584 225 585 227 586 226 L 586 222 L 585 224 Z M 216 224 L 215 228 C 213 239 213 239 208 244 C 205 246 204 248 204 249 C 205 252 210 250 213 247 C 215 245 215 245 216 246 C 220 252 220 252 222 249 L 225 243 C 225 240 226 238 229 235 C 232 232 233 229 231 226 C 230 223 225 225 225 229 C 225 232 219 242 218 241 C 217 240 217 234 219 230 L 219 223 L 216 224 Z M 415 224 L 409 225 L 402 227 C 399 227 400 229 403 229 L 406 230 C 407 232 412 233 415 232 L 418 230 C 420 227 420 227 418 225 L 415 224 Z M 683 224 L 683 225 L 684 227 L 683 229 C 681 229 677 236 677 239 C 677 242 675 245 673 246 C 669 247 670 250 675 251 C 678 252 678 252 678 248 L 680 241 L 683 236 C 685 233 685 233 687 234 C 689 236 689 236 690 234 L 689 231 C 688 231 687 230 688 229 C 689 228 689 227 687 225 C 684 223 684 223 683 224 Z M 640 225 L 642 226 L 644 225 L 642 224 L 640 225 Z M 84 227 C 83 229 83 233 85 234 C 87 234 88 231 86 228 C 86 224 86 224 84 227 Z M 294 227 C 293 231 294 233 297 232 C 300 230 301 228 299 226 C 296 224 295 225 294 227 Z M 636 229 L 638 231 C 639 231 639 229 637 228 L 636 229 Z M 95 230 L 94 232 C 94 234 94 234 95 233 L 96 230 L 95 230 Z M 609 230 L 611 231 L 612 230 L 611 229 L 609 230 Z M 615 230 L 617 232 L 619 233 L 620 234 C 621 233 618 229 617 229 L 615 230 Z M 37 234 C 37 238 41 242 42 240 C 43 239 43 238 40 236 C 38 233 37 233 37 234 Z M 310 235 C 310 238 311 241 313 241 C 316 242 316 244 313 244 C 311 245 310 249 311 251 L 314 253 C 317 254 318 254 316 255 C 314 257 313 257 312 256 L 310 256 C 309 258 310 263 313 266 L 315 270 L 314 273 L 313 275 C 309 275 308 280 308 287 L 308 295 L 307 299 L 304 305 L 302 309 C 304 311 303 313 300 319 C 297 323 296 325 297 327 L 296 332 C 295 333 296 335 298 334 L 302 337 L 308 340 C 311 340 312 339 310 337 L 308 333 C 308 331 308 331 306 331 C 305 332 304 331 303 329 C 302 327 302 326 304 322 C 306 317 309 316 311 318 L 311 322 C 310 325 310 325 312 325 L 316 322 C 318 319 318 319 317 318 L 315 315 L 314 313 L 312 311 L 311 307 L 311 303 C 312 301 315 300 315 302 L 318 303 L 322 305 L 324 305 L 324 302 L 323 300 L 322 300 L 319 301 C 317 300 317 300 318 298 L 321 297 C 322 298 322 297 322 296 C 322 294 322 293 320 294 C 318 294 317 294 317 288 L 316 281 C 314 279 315 277 318 277 C 320 278 321 277 320 274 L 322 270 C 323 269 323 269 320 266 C 317 263 316 261 318 259 L 321 259 C 323 261 325 258 323 256 C 320 253 321 249 324 252 C 325 253 327 253 327 251 L 324 249 L 320 245 C 319 243 321 241 323 241 L 326 237 L 319 237 L 312 236 L 311 233 L 310 235 Z M 650 236 L 652 238 C 654 238 654 237 654 236 C 653 234 650 233 650 236 Z M 96 238 C 96 241 99 246 101 246 C 103 246 102 242 101 241 L 99 238 C 98 234 96 234 96 238 Z M 185 236 L 181 238 L 179 241 C 179 243 180 244 182 244 L 184 243 L 186 242 L 190 241 C 192 240 192 240 190 237 C 188 235 188 235 185 236 Z M 291 247 C 290 257 291 262 293 262 C 295 262 296 240 294 238 C 292 236 291 237 291 247 Z M 396 239 L 394 242 L 394 244 C 396 244 395 247 393 247 C 389 248 390 250 394 250 C 396 250 397 249 398 247 L 398 243 C 396 242 396 242 398 242 C 402 243 402 242 399 239 C 397 236 396 236 396 239 Z M 606 240 C 606 244 607 244 610 242 C 612 239 612 238 609 238 C 607 238 606 238 606 240 Z M 625 240 C 626 241 626 242 628 242 L 629 240 L 627 238 C 625 238 625 238 625 240 Z M 87 241 C 86 242 87 244 88 244 L 89 241 C 89 239 88 238 87 241 Z M 481 244 L 482 252 L 483 250 C 482 249 483 248 484 247 C 486 245 486 245 484 244 L 482 241 L 481 239 L 481 244 Z M 506 240 L 508 241 L 509 240 L 507 239 C 506 239 505 239 506 240 Z M 571 240 C 570 241 572 242 573 241 L 572 239 L 571 240 Z M 618 240 C 617 242 618 245 619 245 L 620 242 C 620 239 619 238 618 240 Z M 591 242 L 591 247 L 593 249 L 593 247 L 595 243 C 596 242 596 242 594 241 C 592 240 591 240 591 242 Z M 330 242 C 331 244 333 244 333 243 L 332 242 L 330 242 Z M 415 242 L 417 245 C 419 246 419 246 419 244 C 419 242 415 240 415 242 Z M 438 242 L 438 245 C 438 247 439 247 440 246 L 441 243 C 440 241 439 240 438 242 Z M 470 242 L 469 244 L 473 242 L 470 242 Z M 493 242 C 492 243 494 245 496 244 C 498 243 497 241 495 241 L 493 242 Z M 426 243 L 427 246 L 428 247 C 430 247 429 243 427 242 L 426 243 Z M 509 243 C 510 245 513 245 513 244 L 511 242 L 509 243 Z M 501 245 C 499 246 499 247 500 250 L 501 254 L 501 252 C 501 250 501 250 504 250 L 507 249 L 506 248 L 504 246 C 503 244 502 244 501 245 Z M 27 247 C 27 249 28 250 30 250 C 33 250 34 248 32 246 C 29 244 27 245 27 247 Z M 340 246 L 340 251 C 341 254 341 254 342 252 L 342 247 L 340 246 Z M 353 246 C 351 247 351 248 352 248 C 353 249 356 247 356 246 L 353 246 Z M 368 247 L 367 249 C 368 250 369 249 371 246 C 372 244 370 245 368 247 Z M 651 248 C 650 251 652 252 655 250 L 655 247 C 652 246 652 246 651 248 Z M 382 248 L 384 250 C 386 251 388 250 387 248 L 382 248 Z M 609 248 L 610 251 C 611 253 611 253 611 251 L 610 247 L 609 248 Z M 632 249 C 632 251 634 254 635 253 C 637 252 636 248 635 248 C 632 247 632 247 632 249 Z M 188 250 L 191 251 C 195 250 195 248 191 248 C 189 248 188 248 188 250 Z M 358 249 C 361 251 361 253 359 253 L 357 254 L 358 255 L 365 251 L 362 249 C 359 248 356 247 358 249 Z M 520 250 C 520 251 522 251 523 249 L 522 248 L 520 250 Z M 464 252 C 463 253 466 256 467 255 L 466 252 L 464 252 Z M 185 253 C 184 256 185 258 186 258 C 187 258 188 257 188 255 L 187 252 L 185 253 Z M 206 255 C 205 257 204 258 205 259 L 210 257 C 214 254 214 254 210 253 C 208 252 207 252 206 255 Z M 590 254 L 591 255 C 593 255 592 254 591 253 L 590 254 Z M 670 254 C 669 257 670 259 671 256 L 671 254 L 670 254 Z M 599 255 L 598 257 C 598 259 598 259 599 258 L 599 255 Z M 488 256 C 486 257 486 257 488 258 L 491 262 L 492 265 L 494 262 L 494 256 L 488 256 Z M 614 257 L 615 259 L 616 263 L 616 265 C 618 264 619 259 618 257 C 617 254 615 255 614 257 Z M 545 257 C 544 258 546 260 547 260 L 548 257 C 548 256 546 255 545 257 Z M 332 258 L 331 260 C 331 262 331 262 332 260 L 332 258 Z M 633 259 C 632 261 632 262 635 262 C 636 261 637 257 635 257 L 633 259 Z M 277 259 L 277 264 L 280 265 L 281 263 C 281 260 279 258 277 259 Z M 480 260 L 481 262 L 482 262 C 482 260 481 259 480 260 Z M 161 262 L 160 265 C 160 267 160 268 158 269 C 154 270 148 279 148 282 C 148 284 150 285 150 283 C 150 281 156 279 160 279 C 164 279 166 277 164 273 L 164 271 C 165 270 164 268 163 265 C 162 261 162 261 161 262 Z M 196 264 L 193 268 C 191 269 191 269 189 267 C 188 265 188 265 183 271 L 177 278 C 177 279 176 280 174 280 C 171 280 170 281 169 282 L 167 286 L 166 288 C 166 290 172 289 173 287 C 178 283 181 281 183 281 C 185 282 185 282 185 280 C 185 278 187 277 192 276 C 194 275 194 274 193 273 L 194 273 L 198 274 L 205 274 C 209 275 211 274 211 271 L 215 268 L 218 267 C 219 266 215 264 213 264 L 210 263 C 209 262 208 262 206 265 L 204 270 L 203 271 C 201 271 201 270 202 268 C 202 265 202 264 200 263 C 196 260 197 260 196 264 Z M 35 263 L 35 265 C 37 267 40 268 40 266 C 40 263 38 261 35 263 Z M 171 264 C 169 266 169 269 172 269 C 174 269 181 264 181 263 L 177 262 L 171 264 Z M 394 263 C 393 263 397 268 399 268 L 399 267 C 399 265 395 262 394 263 Z M 623 264 C 624 267 626 268 626 265 L 625 262 L 623 264 Z M 588 266 L 589 269 C 590 270 590 269 590 267 L 589 263 L 588 266 Z"/>
        <path id="path12" fill="#4d41a1" stroke="none" d="M 231 267 L 228 272 L 226 275 L 224 277 L 222 281 L 220 286 L 219 290 C 220 292 219 292 217 293 L 214 292 C 214 290 209 286 207 286 L 205 287 L 208 288 C 209 288 210 288 210 290 C 210 293 209 295 207 295 C 205 295 203 297 204 298 C 205 299 206 298 208 297 L 212 296 L 211 300 C 209 304 206 305 204 302 L 199 300 L 195 299 L 195 303 L 194 307 L 192 305 L 191 303 L 190 305 L 187 308 L 184 312 C 184 315 184 315 188 315 C 197 316 202 315 207 311 L 217 307 L 219 304 L 220 302 L 224 297 L 228 291 L 231 286 L 237 274 C 238 272 238 272 236 271 L 234 269 C 234 264 231 262 231 267 Z M 201 306 L 199 311 C 196 313 190 314 190 311 L 192 310 L 197 307 C 200 303 201 303 201 306 Z M 207 310 C 206 310 204 309 205 308 L 206 308 L 207 310 Z M 436 266 L 437 268 L 438 266 L 437 265 L 436 266 Z M 111 269 C 112 274 112 275 109 275 L 106 275 C 106 277 110 281 111 281 L 116 284 C 120 287 123 286 122 282 C 121 281 122 280 123 279 C 124 278 124 278 122 278 L 115 280 C 113 281 112 281 111 279 L 112 276 C 116 270 116 267 111 266 C 109 266 109 266 111 269 Z M 25 269 L 28 271 C 32 271 32 269 29 268 C 25 267 25 267 25 269 Z M 286 269 L 282 271 C 280 271 276 275 276 278 L 276 289 L 278 309 C 278 322 278 322 270 322 L 265 323 L 269 328 C 272 330 272 331 271 333 L 271 337 L 269 341 L 267 344 L 269 349 C 271 353 272 354 274 354 C 275 353 276 353 276 347 L 276 334 C 279 333 279 330 277 329 C 274 328 275 327 280 324 L 285 321 L 285 273 L 288 271 L 289 270 C 289 267 288 267 286 269 Z M 500 268 C 499 271 500 272 501 270 L 501 268 L 500 268 Z M 121 270 C 120 272 121 273 123 271 L 125 269 C 125 267 121 268 121 270 Z M 130 271 C 127 275 127 276 130 276 C 133 275 134 276 133 277 L 135 280 L 135 282 C 134 283 133 282 133 281 L 131 280 C 129 281 131 283 133 285 C 136 286 136 286 139 284 L 141 279 L 143 276 C 145 273 144 272 141 272 C 139 273 138 273 136 271 L 133 268 L 130 271 Z M 661 269 L 662 271 L 663 269 L 662 268 L 661 269 Z M 616 271 C 615 273 615 273 617 273 C 619 273 620 272 618 270 C 617 269 616 269 616 271 Z M 425 274 C 422 276 423 278 428 277 C 433 277 434 275 432 273 C 430 271 428 272 425 274 Z M 346 274 L 346 276 L 348 276 L 347 274 L 346 274 Z M 607 274 C 604 274 603 276 606 276 L 610 278 C 613 280 614 281 614 278 C 614 276 611 273 610 273 L 607 274 Z M 444 275 L 445 277 L 446 280 C 446 283 450 283 451 279 L 450 275 L 444 275 Z M 588 275 L 589 277 L 590 275 L 589 274 L 588 275 Z M 622 276 C 620 279 620 282 622 280 L 624 274 L 622 276 Z M 490 278 C 490 281 491 282 492 282 C 494 282 494 281 494 279 C 494 276 493 275 491 275 C 488 275 488 275 490 278 Z M 597 277 L 597 280 C 599 280 603 285 603 286 L 606 290 C 608 291 609 293 609 295 L 611 297 L 612 294 C 612 292 612 291 610 290 L 607 287 C 608 285 607 285 606 284 L 601 279 C 599 276 598 275 597 277 Z M 418 278 L 417 280 L 420 278 L 418 278 Z M 380 279 L 380 283 L 381 282 L 383 279 L 383 278 L 380 279 Z M 461 281 L 460 283 L 463 281 L 461 281 Z M 513 281 L 513 283 L 516 283 L 517 281 L 513 281 Z M 358 283 C 357 285 358 286 359 285 L 359 282 L 358 283 Z M 617 283 C 615 283 616 286 618 286 L 622 286 C 624 283 621 281 617 283 Z M 99 286 L 101 289 C 104 289 104 286 101 285 C 99 284 99 284 99 286 Z M 584 285 C 585 287 587 287 587 286 L 586 284 L 584 285 Z M 543 286 L 544 288 L 545 286 L 544 285 L 543 286 Z M 157 287 L 157 288 C 158 289 160 288 160 287 L 157 287 Z M 321 287 L 322 289 L 323 287 L 322 286 L 321 287 Z M 414 288 C 413 291 414 292 416 290 L 416 287 C 416 286 415 286 414 288 Z M 525 288 L 523 290 C 524 291 527 288 527 287 L 525 288 Z M 635 287 L 636 290 C 637 292 637 292 638 291 C 639 287 636 284 635 287 Z M 190 289 C 189 290 189 291 191 291 L 192 290 C 192 289 191 288 190 289 Z M 550 292 C 550 297 550 297 552 296 L 554 294 L 552 290 L 550 288 L 550 292 Z M 44 290 L 46 291 L 48 290 L 46 289 L 44 290 Z M 478 291 C 478 293 480 294 481 294 L 479 290 L 478 291 Z M 425 294 C 423 297 423 297 425 297 C 428 297 431 294 430 293 C 429 290 428 291 425 294 Z M 111 293 C 110 294 113 296 116 295 C 119 295 120 293 117 293 L 114 292 L 111 293 Z M 367 293 L 367 295 L 368 295 C 369 293 368 291 367 293 Z M 415 293 L 420 295 L 420 293 L 415 293 Z M 152 294 C 150 295 150 298 151 298 L 154 295 C 156 293 155 292 152 294 Z M 535 295 L 535 297 C 536 298 538 296 538 294 C 538 292 536 293 535 295 Z M 338 296 C 337 300 337 300 340 299 L 342 296 C 341 294 340 294 338 296 Z M 358 297 L 358 300 L 360 298 L 360 295 C 358 294 358 294 358 297 Z M 494 295 C 493 296 496 298 497 297 L 498 295 L 494 295 Z M 101 296 C 101 298 104 300 106 300 C 108 300 109 299 108 297 C 107 295 101 294 101 296 Z M 135 296 C 134 297 135 297 136 298 C 138 298 139 298 138 296 L 135 296 Z M 142 295 L 144 298 L 146 300 L 146 298 C 146 296 142 294 142 295 Z M 594 297 C 593 299 595 303 596 303 C 598 303 597 296 596 295 L 594 297 Z M 625 296 C 624 299 626 301 627 299 L 628 297 C 627 295 625 295 625 296 Z M 183 298 C 183 300 179 302 177 301 C 174 300 175 302 178 305 L 182 308 C 184 308 184 307 184 304 C 184 301 185 300 186 300 L 186 298 C 185 295 183 295 183 298 Z M 43 300 L 40 308 C 40 313 40 313 42 312 C 43 310 44 310 47 310 C 51 311 50 311 50 303 L 49 298 C 47 296 44 297 43 300 Z M 411 299 L 413 301 C 414 301 414 298 412 297 L 411 299 Z M 375 299 L 377 300 L 378 299 L 377 298 L 375 299 Z M 474 300 L 473 303 C 474 304 478 302 478 301 C 477 299 476 299 474 300 Z M 505 300 L 501 302 C 500 302 499 303 500 305 L 501 309 L 506 304 C 509 300 510 299 508 299 L 505 300 Z M 122 301 C 120 302 120 304 123 304 L 124 306 C 125 307 125 308 126 306 C 128 305 128 304 126 302 C 125 301 124 300 122 301 Z M 600 303 L 601 306 L 602 303 L 601 301 L 600 303 Z M 622 302 C 621 303 621 304 623 304 L 624 302 C 624 301 623 300 622 302 Z M 348 304 L 347 307 C 345 310 345 313 346 313 L 348 311 L 350 310 C 352 310 352 309 352 308 L 351 304 L 350 302 L 348 304 Z"/>
        <path id="path13" fill="#4d41a1" stroke="none" d="M 262 306 C 259 309 259 311 263 311 C 266 311 269 308 269 305 C 269 302 265 302 262 306 Z M 366 305 C 365 305 365 307 367 307 L 368 305 L 368 304 L 366 305 Z M 447 305 L 448 307 L 449 305 L 448 304 L 447 305 Z M 616 305 L 616 308 C 617 309 617 307 617 305 L 616 305 Z M 379 308 L 378 313 C 376 315 376 316 378 316 C 380 316 381 314 380 309 C 379 305 379 305 379 308 Z M 520 308 L 520 310 L 523 308 L 520 308 Z M 319 310 L 319 313 L 320 316 C 318 319 323 318 324 315 L 326 312 L 326 309 C 325 308 325 308 325 310 C 324 312 322 313 322 310 C 321 307 319 307 319 310 Z M 170 311 C 169 312 170 313 173 313 L 177 312 C 178 310 171 309 170 311 Z M 598 311 C 597 312 597 315 599 315 L 600 313 C 600 311 599 310 598 311 Z M 612 311 L 613 313 L 614 311 L 613 310 L 612 311 Z M 543 313 L 543 315 C 544 317 545 316 546 313 C 546 310 544 310 543 313 Z M 256 314 C 255 316 256 317 257 315 L 257 314 L 256 314 Z M 579 314 C 578 315 579 315 581 315 L 583 314 L 581 313 L 579 314 Z M 490 316 C 490 318 492 319 493 316 L 492 314 L 490 316 Z M 250 316 L 251 318 L 252 316 L 251 315 L 250 316 Z M 354 318 C 355 320 357 320 357 318 L 356 316 L 354 318 Z M 588 317 L 588 320 C 589 321 591 320 591 318 C 591 316 588 315 588 317 Z M 52 318 L 56 319 L 59 318 L 55 317 L 52 318 Z M 340 320 C 339 323 340 324 342 322 C 344 320 344 320 342 319 C 340 317 340 317 340 320 Z M 517 318 L 519 320 L 520 318 L 518 317 C 517 317 516 317 517 318 Z M 465 320 C 466 323 467 323 467 321 L 466 318 L 465 320 Z M 494 319 C 493 321 493 321 495 321 C 498 321 499 324 497 325 L 497 328 L 498 327 L 500 325 C 502 324 501 321 499 320 C 496 318 496 318 494 319 Z M 430 320 C 429 322 430 323 431 321 L 431 320 L 430 320 Z M 550 320 C 549 321 550 323 551 323 L 552 321 C 552 319 551 318 550 320 Z M 603 321 L 602 323 L 602 324 C 604 324 606 322 606 320 C 606 318 604 319 603 321 Z M 59 322 C 59 324 64 329 65 329 C 67 328 66 325 65 325 C 64 325 63 324 63 322 C 62 320 59 319 59 322 Z M 413 321 L 413 324 L 414 323 L 415 321 L 416 320 L 413 321 Z M 531 323 L 531 326 L 534 327 C 536 329 536 328 535 324 C 534 319 531 319 531 323 Z M 256 323 L 255 325 L 253 330 C 249 334 249 336 253 335 C 260 334 260 334 260 332 L 257 322 L 256 323 Z M 369 323 L 369 325 L 371 325 C 372 323 371 322 369 323 Z M 572 323 C 571 324 571 325 573 325 C 575 326 575 325 575 324 C 575 322 573 322 572 323 Z M 449 324 L 451 325 L 452 324 L 451 323 L 449 324 Z M 329 326 L 327 329 L 325 333 L 322 338 C 322 341 318 342 318 340 C 318 338 317 337 316 339 L 316 341 L 319 343 C 319 345 319 345 320 343 C 322 340 326 339 327 341 L 329 342 L 328 337 C 327 337 327 335 330 332 C 332 330 333 328 332 327 C 332 325 331 325 329 326 Z M 346 332 L 344 334 C 344 336 347 336 349 335 C 353 332 350 330 346 332 Z M 67 333 C 66 334 67 337 68 337 C 70 337 70 335 69 333 L 67 333 Z M 364 334 L 365 335 L 366 333 L 365 332 L 364 334 Z M 436 336 C 435 338 436 339 437 337 L 437 335 C 437 334 436 334 436 336 Z M 454 335 C 453 336 455 337 456 336 L 455 334 L 454 335 Z M 72 336 C 71 337 74 340 75 339 L 73 335 L 72 336 Z M 294 339 L 292 341 C 291 341 290 342 290 344 L 288 349 L 285 353 L 284 356 L 282 359 L 284 363 C 286 365 286 374 284 376 L 277 377 L 272 378 L 275 383 C 279 390 281 390 282 386 L 285 381 C 288 379 290 369 290 363 C 290 359 291 357 293 355 L 296 349 L 298 343 L 300 339 C 298 337 296 337 294 339 Z M 395 338 L 397 339 L 398 338 L 397 337 L 395 338 Z M 247 340 L 249 345 C 250 351 252 353 255 354 C 259 356 256 363 251 364 C 247 365 245 367 244 370 L 239 376 C 234 380 234 381 238 383 C 241 385 242 385 244 383 L 248 382 L 249 381 L 252 379 C 254 379 255 378 255 376 C 255 373 260 370 263 370 C 266 370 266 369 266 363 C 267 359 266 358 263 353 L 258 345 L 257 341 L 247 340 Z M 361 342 C 360 344 361 346 362 345 L 362 339 L 361 342 Z M 589 343 L 587 345 C 588 346 592 344 593 342 C 593 341 592 341 589 343 Z M 80 343 C 78 346 80 348 84 348 C 88 348 88 346 85 344 C 82 342 82 342 80 343 Z M 191 343 C 188 343 188 346 190 348 C 193 351 194 350 196 347 C 198 344 198 344 196 343 L 191 343 Z M 183 345 C 182 345 183 349 185 349 L 187 346 C 186 344 184 343 183 345 Z M 304 346 L 303 350 L 303 352 C 305 355 307 350 305 346 L 304 343 L 304 346 Z M 594 345 C 594 346 599 348 600 347 C 602 345 601 344 598 344 L 594 345 Z M 607 345 C 606 346 608 347 609 346 L 608 344 L 607 345 Z M 162 348 L 163 352 L 165 352 C 167 350 166 347 165 347 C 162 346 162 346 162 348 Z M 321 348 L 322 350 L 324 348 L 322 346 L 321 348 Z M 54 352 L 56 354 L 57 353 C 56 351 54 351 54 352 Z M 440 353 L 441 354 L 443 353 L 442 352 L 440 353 Z M 72 355 C 72 357 73 358 76 358 C 78 357 78 355 75 354 C 74 353 73 353 72 355 Z M 67 355 C 66 356 66 357 68 357 L 69 356 C 69 355 68 354 67 355 Z M 370 355 C 369 358 371 360 372 358 L 373 356 C 372 354 370 354 370 355 Z M 418 355 C 417 356 419 359 420 357 L 420 355 L 418 355 Z M 327 356 C 326 357 326 358 328 358 L 330 356 C 330 355 328 354 327 356 Z M 341 357 C 342 359 344 359 344 358 L 343 356 L 341 357 Z M 174 361 L 175 364 L 176 361 L 175 358 L 174 361 Z M 344 361 C 345 363 348 363 348 362 L 346 360 L 344 361 Z M 384 362 C 383 363 383 364 385 364 L 387 362 C 387 361 385 360 384 362 Z M 80 366 C 78 367 79 369 84 375 C 89 381 97 386 102 386 C 105 385 106 386 106 388 C 106 390 107 391 108 391 L 109 389 C 109 387 109 386 111 385 C 114 384 113 382 108 383 C 102 383 99 380 99 374 C 99 371 98 370 97 370 C 96 370 93 369 92 367 C 89 365 81 364 80 366 Z M 363 367 L 363 370 C 365 372 366 371 366 368 C 366 366 365 365 363 367 Z M 187 368 C 187 370 188 370 189 370 C 191 370 192 369 192 368 L 189 367 L 187 368 Z M 346 369 L 347 370 C 349 369 349 367 348 367 L 346 369 Z M 219 374 L 221 379 C 222 380 229 379 230 378 C 232 377 223 370 220 370 C 218 370 218 371 219 374 Z M 180 375 L 179 379 C 179 382 180 382 182 382 C 185 382 185 382 185 379 C 185 374 181 371 180 375 Z M 190 374 L 190 375 C 192 376 193 375 191 374 L 190 374 Z M 158 384 C 157 387 157 387 159 386 L 161 384 L 158 384 Z M 337 385 L 338 386 L 339 384 L 338 383 L 337 385 Z M 392 384 L 394 385 L 395 384 L 394 383 L 392 384 Z M 128 388 C 126 389 126 392 126 395 C 126 397 129 396 129 394 L 131 391 L 132 389 C 131 387 130 387 128 388 Z M 144 389 C 143 392 143 393 146 393 C 149 393 149 393 149 390 C 149 388 149 387 147 387 L 144 389 Z M 226 388 L 223 391 C 222 393 222 393 224 394 C 226 395 227 395 229 392 C 231 390 232 389 231 388 L 226 388 Z M 268 390 C 266 391 265 392 266 393 L 264 395 C 262 395 261 398 263 400 L 269 400 C 273 400 274 399 274 397 L 276 395 C 279 395 279 393 276 391 C 274 389 273 389 268 390 Z M 108 395 C 108 397 110 399 111 397 L 111 394 C 109 392 108 393 108 395 Z M 238 394 L 240 396 L 243 397 C 243 399 246 400 246 398 L 244 396 L 241 394 C 240 392 238 393 238 394 Z M 213 398 C 211 401 211 401 212 402 C 214 404 219 404 219 402 C 220 400 218 396 217 396 L 213 398 Z M 194 404 L 195 405 L 197 404 L 196 403 L 194 404 Z M 217 409 C 217 411 217 411 219 409 L 221 407 L 219 407 L 217 409 Z M 195 416 C 195 417 196 418 198 418 C 200 418 201 417 201 416 L 198 415 L 195 416 Z"/>
    </g>
</svg>
