<?xml version="1.0" encoding="UTF-8"?>
<!-- Generated by Pixelmator Pro 3.7.1 -->
<svg width="320" height="377" viewBox="0 0 320 377" xmlns="http://www.w3.org/2000/svg">
    <g id="Group">
        <path id="Path" fill="#4d41a1" stroke="none" d="M 26 1 C 30 3 32 8 28 6 C 27 6 26 6 26 8 C 25 10 25 10 24 9 C 22 6 21 6 22 10 C 22 12 22 13 20 14 L 17 17 C 17 20 14 19 12 16 C 10 13 11 11 14 13 C 16 14 16 14 16 12 L 14 10 C 11 10 8 7 9 6 L 15 6 L 17 7 L 19 6 L 18 5 L 16 3 L 18 2 L 20 1 L 26 1 Z M 212 3 C 211 5 212 6 213 6 C 215 6 217 8 217 11 C 217 13 217 13 215 12 C 212 12 211 13 213 14 C 214 16 212 20 210 21 L 207 22 C 206 22 205 22 205 20 C 205 16 207 13 209 13 C 211 13 212 10 210 9 L 210 7 L 209 6 C 207 7 207 6 209 3 C 211 0 212 0 212 3 Z M 44 8 L 45 11 L 48 14 C 48 17 48 17 46 16 L 42 14 L 40 13 C 38 13 39 16 41 18 C 43 20 44 24 42 24 L 39 22 C 36 19 34 21 37 23 L 39 26 L 35 26 C 34 25 33 26 32 27 L 32 30 C 34 31 35 38 33 38 L 30 35 C 28 33 27 33 26 34 L 27 37 C 29 39 29 40 28 44 C 28 47 27 46 24 43 C 21 40 19 41 21 44 C 23 46 24 50 23 50 C 22 51 21 50 19 48 L 16 46 C 15 47 16 53 17 54 C 18 56 17 62 16 62 L 13 60 L 11 59 L 7 59 L 3 61 L 3 60 L 6 58 C 7 56 7 56 9 57 C 11 59 11 59 11 57 C 12 55 11 54 9 55 L 9 54 L 10 53 L 13 51 C 14 50 14 50 12 50 L 10 50 L 10 49 L 9 50 L 6 50 C 4 49 4 47 7 47 C 9 47 10 45 8 45 L 7 43 C 8 42 14 41 16 43 L 18 42 C 19 41 19 41 17 41 C 15 41 13 39 14 38 C 15 36 19 37 20 38 L 22 37 C 24 36 23 35 21 35 L 18 34 C 17 33 17 33 19 31 C 20 30 25 29 25 31 L 26 32 L 27 30 L 28 29 L 29 28 L 27 27 L 24 26 C 23 24 26 23 30 23 C 34 24 34 22 31 21 C 28 20 27 18 30 17 C 32 16 35 17 35 18 L 36 18 C 37 16 37 15 35 14 C 32 14 31 11 33 11 L 37 11 C 40 12 41 11 39 9 C 37 8 37 8 39 7 L 41 8 L 43 7 C 44 5 44 5 44 8 Z M 12 47 L 14 49 L 14 47 C 15 46 14 46 13 46 C 11 46 11 46 12 47 Z M 8 10 L 10 14 C 9 15 10 17 11 18 C 12 19 13 24 11 24 L 7 21 L 2 17 L 0 15 L 0 12 L 2 15 C 4 17 4 17 6 15 L 6 14 C 4 14 2 11 2 9 L 8 10 Z M 3 19 L 2 21 L 2 22 L 1 22 L 1 18 L 3 19 Z M 217 23 C 219 25 220 31 218 31 L 214 29 C 212 27 211 28 212 31 C 212 33 212 34 210 35 C 206 36 204 36 204 34 C 204 31 207 28 209 28 L 210 26 C 210 21 214 19 217 23 Z M 7 26 C 10 31 10 31 6 30 C 4 30 4 30 4 32 C 5 33 4 34 2 34 C 0 34 0 33 0 29 C 0 24 0 24 2 25 L 4 24 C 3 20 5 22 7 26 Z M 199 25 C 201 28 200 31 199 30 L 196 33 L 195 34 L 193 33 L 191 32 C 190 31 192 29 195 29 C 197 29 197 28 197 25 C 197 23 199 24 199 25 Z M 187 31 C 186 32 186 33 188 34 C 190 36 191 40 189 40 L 186 39 L 185 39 C 184 40 184 39 184 37 L 183 33 L 184 31 C 187 28 187 28 187 31 Z"/>
        <path id="path1" fill="#4d41a1" stroke="none" d="M 215 35 L 217 39 L 217 42 L 213 41 C 210 40 210 40 211 42 L 210 44 L 210 47 L 211 45 C 211 43 213 44 214 47 C 216 52 215 54 213 54 L 210 53 L 208 52 L 207 51 L 207 48 C 209 47 208 46 206 47 C 203 47 203 47 203 45 L 205 40 C 208 38 208 38 208 40 C 209 41 209 40 209 39 C 209 35 212 33 215 35 Z M 196 37 C 198 37 200 40 200 43 C 200 45 199 45 196 43 C 194 41 193 41 192 44 C 191 47 191 47 194 49 L 196 53 C 196 55 196 55 192 53 L 189 50 C 190 48 189 48 188 48 C 185 48 184 47 185 45 L 184 45 L 182 46 L 183 46 C 185 48 184 49 182 52 L 179 56 C 179 60 176 66 174 66 C 172 66 172 65 173 63 L 174 59 C 175 58 176 57 175 56 L 177 52 L 178 46 L 180 41 L 184 41 C 187 43 192 42 193 39 C 193 37 194 36 196 37 Z M 2 40 L 2 42 C 1 43 0 42 0 40 L 2 40 Z"/>
        <path id="path2" fill="#4d41a1" stroke="none" d="M 188 52 L 188 58 C 187 59 187 59 188 58 C 189 58 193 61 193 64 C 193 66 191 66 187 64 C 184 62 183 60 185 59 C 187 58 186 57 184 57 C 181 58 180 57 183 53 C 184 51 186 50 188 52 Z M 206 53 C 208 54 209 57 207 59 L 206 61 L 208 60 C 209 59 209 59 210 61 C 213 64 213 70 211 70 C 208 70 209 74 211 76 C 212 77 213 78 212 79 C 211 80 211 86 213 88 L 214 95 C 214 100 214 101 212 100 C 207 99 206 99 206 101 C 206 103 206 103 208 102 C 211 102 215 103 215 105 C 215 106 216 107 217 106 L 218 109 C 218 112 216 114 215 112 L 211 112 L 211 107 L 212 107 C 211 104 208 105 208 107 L 208 110 C 209 111 210 114 209 116 C 207 118 209 118 212 117 C 215 115 215 115 216 117 L 214 120 C 212 121 212 121 214 123 C 215 125 215 130 213 130 C 211 130 209 126 210 123 L 210 120 L 209 120 L 204 115 L 202 112 L 200 112 C 199 112 199 113 201 115 L 203 118 L 205 120 C 207 120 208 121 208 125 L 208 130 C 207 132 207 133 209 133 L 212 137 L 206 137 C 204 136 203 133 205 133 C 207 132 206 131 202 130 L 198 128 L 196 127 L 194 125 C 193 123 193 123 195 122 L 198 121 L 197 124 L 197 125 C 200 123 201 116 199 117 C 198 118 198 118 198 116 L 198 115 L 197 117 C 198 118 197 119 195 120 C 193 122 192 122 193 124 L 195 128 C 197 130 196 134 194 135 C 192 137 191 137 192 139 L 192 141 L 194 141 L 196 139 L 195 137 C 194 136 194 135 199 134 C 203 134 205 136 203 139 C 202 140 203 141 204 142 C 207 145 206 149 204 149 L 200 147 L 199 144 L 198 147 L 199 151 C 202 156 199 159 195 156 C 191 154 190 151 192 149 C 194 148 194 148 192 146 C 190 145 189 143 190 143 L 189 142 C 187 142 188 137 190 137 C 193 136 192 134 189 134 C 186 134 185 132 188 129 C 189 127 191 126 191 128 L 192 130 L 192 128 C 192 125 191 124 190 126 C 188 127 187 127 187 125 L 189 123 C 192 121 192 120 188 120 L 186 121 L 188 119 L 191 118 C 191 119 194 118 194 116 L 196 114 C 197 113 198 112 197 111 L 195 111 L 191 113 C 189 113 190 109 192 108 C 193 107 194 106 193 105 L 187 109 L 186 110 C 185 110 184 109 184 107 C 184 105 186 102 187 103 C 188 104 188 103 189 102 C 190 99 193 97 194 98 L 193 101 C 192 103 193 104 195 103 L 198 103 L 198 101 L 199 97 C 201 96 201 96 201 98 C 202 99 202 99 204 96 C 207 92 207 90 204 92 C 200 95 198 94 199 89 C 199 85 200 84 201 84 C 203 83 204 79 202 78 C 200 78 200 71 202 69 L 205 68 L 206 68 L 205 66 C 203 66 202 62 204 62 L 205 61 C 205 60 204 59 202 60 C 200 60 199 60 199 58 C 199 56 202 52 204 52 L 206 53 Z M 204 75 L 206 77 C 207 77 208 75 206 75 L 204 75 Z M 207 86 L 208 90 L 209 92 L 212 93 L 212 91 L 211 89 L 209 86 C 206 84 205 84 207 86 Z M 197 105 C 195 106 195 106 196 107 L 198 108 C 200 106 203 107 203 109 C 203 111 203 111 204 110 L 205 108 L 206 107 C 206 105 201 105 197 105 Z M 202 124 C 202 126 202 127 203 126 L 205 124 L 204 122 C 202 120 202 121 202 124 Z M 197 141 C 197 143 198 144 200 142 C 202 140 201 139 199 140 L 197 141 Z M 7 53 C 7 55 7 55 6 54 L 5 54 C 5 55 5 56 4 55 L 3 56 L 4 57 L 5 58 L 3 59 L 1 58 L 1 56 C 0 54 2 52 5 52 C 7 52 8 52 7 53 Z M 182 60 C 183 61 181 63 180 62 C 179 61 180 59 181 59 L 182 60 Z M 12 63 L 16 65 C 17 67 17 70 15 69 L 14 70 C 14 72 13 72 10 71 C 7 70 6 70 9 73 L 11 76 L 11 80 C 12 82 11 83 7 82 C 4 81 1 77 3 76 L 2 74 L 2 73 C 4 73 5 75 5 77 L 6 78 L 6 73 C 5 70 6 67 9 67 L 11 66 L 8 65 L 5 65 L 7 64 L 8 63 L 9 62 L 12 63 Z"/>
        <path id="path3" fill="#4d41a1" stroke="none" d="M 186 66 C 188 69 189 71 187 73 L 185 75 L 184 78 L 184 80 L 185 83 C 186 86 184 87 181 84 C 179 82 178 83 179 86 C 179 88 180 89 182 90 C 184 90 185 91 185 92 L 181 92 L 182 93 C 183 93 186 99 185 100 C 184 101 178 98 176 96 C 175 94 175 94 177 93 L 180 91 L 177 91 C 174 94 172 93 172 89 C 173 86 170 82 169 84 L 169 85 L 170 87 L 169 89 C 166 89 167 90 169 92 C 171 92 172 94 173 95 C 174 97 174 97 171 97 C 167 97 166 97 167 101 L 168 103 L 169 101 C 172 98 173 98 178 101 C 182 102 184 106 182 106 L 182 107 L 183 115 L 179 114 C 174 111 174 107 178 107 C 180 107 181 105 179 104 L 177 105 L 176 105 C 174 101 174 101 174 103 C 175 107 173 109 170 108 C 167 107 165 106 166 104 L 164 103 L 162 105 C 161 107 161 107 159 106 L 155 103 C 155 100 153 101 153 104 L 151 107 C 149 107 149 107 151 109 C 154 110 154 110 154 114 C 154 117 154 118 152 118 L 148 115 C 145 112 144 112 144 115 L 142 118 C 140 119 140 120 141 120 C 144 120 145 123 144 128 L 142 136 C 142 139 141 140 140 138 L 137 138 C 136 139 135 139 134 137 C 132 137 131 135 131 135 L 128 134 C 127 134 126 134 127 135 C 129 135 128 138 127 140 C 125 141 125 141 126 142 C 129 144 129 149 127 152 L 125 155 L 121 159 C 120 159 117 153 118 152 L 120 151 L 121 150 C 121 147 121 146 123 146 L 124 149 L 122 152 L 122 153 C 123 153 126 151 125 150 L 125 146 L 124 143 L 123 141 L 123 139 L 117 137 L 113 137 L 109 135 C 106 134 106 132 110 132 C 111 132 112 131 111 130 C 111 129 116 129 117 131 C 118 132 118 132 116 132 L 113 133 L 115 133 L 119 134 C 121 135 126 133 127 130 L 128 128 L 128 127 L 126 129 C 126 131 122 133 120 131 C 119 131 119 130 121 129 C 122 128 122 128 120 128 L 121 126 L 124 125 L 130 124 L 130 121 L 132 120 L 135 121 C 135 122 136 123 137 122 C 140 120 140 119 136 118 C 133 117 132 116 135 114 L 135 111 C 133 110 133 110 135 107 C 138 105 142 104 142 106 L 141 107 L 140 109 C 139 110 140 111 141 110 L 142 109 L 145 108 C 148 109 149 107 146 106 C 143 106 142 105 145 102 L 152 102 L 152 100 C 149 101 150 99 152 97 L 156 99 L 159 102 L 161 99 C 163 98 164 96 163 95 C 163 93 161 93 161 96 L 159 98 L 157 98 L 155 96 C 152 94 149 96 149 97 C 150 99 147 100 144 99 C 142 99 142 98 143 97 L 146 96 C 148 96 148 96 146 94 C 145 93 145 93 147 93 C 149 94 157 90 155 90 C 152 89 155 87 158 87 C 161 88 161 88 161 86 C 160 85 161 84 163 83 C 166 81 165 78 161 79 C 158 80 158 79 160 76 C 163 73 165 73 164 76 C 164 80 166 80 168 76 C 169 74 174 72 177 72 C 178 72 178 73 176 74 L 173 77 L 175 77 L 180 75 L 180 74 C 179 75 178 74 179 72 C 179 70 180 69 182 71 C 183 72 183 72 182 71 L 181 68 L 183 68 L 184 69 C 184 68 181 65 180 66 L 179 68 L 177 70 C 173 70 176 65 181 64 C 183 64 184 64 186 66 Z M 175 79 C 173 79 174 81 176 81 L 178 81 C 179 79 179 78 177 78 L 175 79 Z M 167 81 L 168 82 C 171 82 173 81 173 79 C 173 78 168 79 167 81 Z M 175 85 L 176 87 C 175 88 176 87 176 87 L 176 84 C 174 82 174 82 175 85 Z M 165 86 C 165 87 164 88 163 87 L 163 88 L 166 88 L 166 85 L 165 86 Z M 159 91 C 157 93 156 94 157 95 C 157 97 158 97 159 95 L 160 93 L 163 91 C 165 91 165 90 164 90 C 162 89 162 89 159 91 Z M 166 94 L 168 94 L 167 93 L 166 94 Z M 131 127 C 130 130 131 133 132 132 L 134 133 L 136 135 L 136 134 C 135 133 135 133 137 132 C 140 132 141 128 139 126 C 137 124 136 125 137 127 C 138 129 138 131 134 131 L 132 131 L 134 129 C 136 128 136 127 135 127 L 134 126 C 134 123 131 125 131 127 Z M 34 80 C 37 83 37 84 34 84 C 31 85 31 85 32 89 C 32 92 32 92 28 89 C 25 87 23 89 26 91 C 28 93 29 99 27 99 L 24 97 L 20 96 L 16 96 C 11 96 10 95 13 92 L 17 91 C 20 92 23 90 23 88 L 22 88 L 18 89 L 16 88 L 18 86 C 21 83 22 83 24 85 C 26 87 26 87 26 85 L 26 83 L 27 83 C 30 83 30 81 27 81 L 24 80 L 24 79 C 28 78 33 78 34 80 Z M 4 82 L 6 85 L 7 86 C 8 88 6 92 5 92 L 3 94 C 2 97 0 96 0 93 C 0 91 1 91 3 91 C 6 91 6 90 3 87 C 1 85 0 84 1 83 L 1 81 C 2 79 3 80 4 82 Z"/>
        <path id="path4" fill="#4d41a1" stroke="none" d="M 10 93 L 9 96 C 9 98 10 98 13 98 L 20 98 C 23 98 24 99 24 101 L 25 104 C 24 105 20 103 19 102 L 16 102 C 14 103 9 101 9 99 C 8 98 8 98 6 100 C 3 103 4 104 8 103 C 12 103 12 103 13 105 L 12 110 L 11 112 L 9 110 C 7 108 5 107 5 109 L 6 110 C 7 111 6 111 4 111 L 0 109 L 1 108 C 2 109 2 108 2 107 L 3 106 L 4 105 L 2 104 C 1 104 0 104 1 103 L 1 101 L 0 100 L 2 99 C 4 100 6 98 6 95 L 8 91 L 10 93 Z M 8 107 L 11 108 C 13 107 10 106 8 106 C 6 106 6 106 8 107 Z"/>
        <path id="path5" fill="#4d41a1" stroke="none" d="M 20 104 L 22 109 C 22 112 22 112 17 110 L 14 106 C 15 103 17 102 20 104 Z M 168 109 L 169 112 C 168 113 169 114 170 114 L 172 112 L 173 110 L 174 111 C 173 112 174 113 176 114 L 179 118 C 181 121 183 121 182 118 C 182 115 185 117 186 121 C 187 127 183 129 176 127 C 174 126 174 126 175 128 C 177 129 177 130 176 132 C 175 133 175 134 177 134 C 179 135 181 139 180 141 C 179 143 179 142 176 141 C 172 138 171 136 173 134 L 173 133 C 171 133 171 132 171 130 L 171 127 L 170 126 L 172 125 C 173 126 173 125 174 124 L 176 121 L 177 120 L 176 120 L 172 121 C 168 121 162 117 162 113 C 162 110 166 107 168 109 Z M 170 116 L 171 118 C 172 118 173 117 172 116 L 171 115 L 170 116 Z M 15 111 C 18 113 17 114 15 114 C 13 114 13 115 13 117 C 13 121 12 122 9 119 C 7 118 6 117 6 119 L 8 120 L 9 121 C 9 123 7 123 4 121 L 1 120 C 0 121 0 120 0 118 C 0 116 0 116 2 117 L 2 115 C 1 113 2 112 8 112 C 11 112 15 111 13 109 L 15 111 Z M 127 120 C 128 122 124 124 121 123 C 119 122 119 122 122 121 C 125 119 126 119 127 120 Z"/>
        <path id="path6" fill="#4d41a1" stroke="none" d="M 167 122 C 169 123 170 126 168 125 L 166 126 L 168 127 C 169 128 170 128 169 130 L 169 135 L 168 137 L 165 139 C 164 141 163 141 162 140 C 160 139 162 135 164 134 L 166 130 C 166 128 166 128 164 129 C 160 131 158 129 160 124 C 162 121 164 120 167 122 Z M 27 126 L 28 127 L 28 129 L 29 134 C 28 138 26 139 22 136 C 19 134 18 135 21 138 C 23 142 24 143 22 143 C 20 143 20 143 21 145 C 22 147 22 147 20 147 C 17 147 14 143 15 142 L 13 141 C 11 141 11 141 12 139 L 15 138 C 17 139 17 137 14 135 C 12 133 12 133 13 132 L 18 133 L 20 133 L 18 131 L 17 129 C 18 127 22 129 22 130 L 23 132 L 24 131 L 24 129 C 25 129 25 128 23 127 L 21 125 L 23 125 L 27 126 Z M 148 129 L 149 130 L 150 132 C 152 132 153 133 152 135 C 152 138 150 137 150 135 L 149 133 L 148 136 C 148 139 146 141 145 139 L 145 132 L 146 130 C 145 128 145 128 148 129 Z M 114 138 C 115 139 117 140 118 139 L 121 140 C 123 142 124 144 122 143 L 120 145 L 119 147 C 118 147 118 144 120 142 L 119 141 L 118 142 L 117 143 L 115 142 L 111 141 C 108 141 108 141 110 142 C 113 144 112 145 109 145 C 107 145 106 145 106 147 C 106 149 106 149 108 148 C 109 147 113 147 113 149 L 112 151 L 110 153 L 112 151 L 115 148 L 115 146 L 116 144 L 116 145 L 117 147 C 119 148 118 151 116 151 L 114 153 L 113 155 L 113 156 C 115 157 115 161 114 164 C 113 166 113 166 112 165 L 110 164 C 109 166 109 166 107 164 C 105 162 104 160 106 159 L 108 156 L 109 151 C 110 150 110 149 108 149 C 99 149 96 148 102 145 C 105 144 105 144 103 144 L 100 142 C 100 140 101 140 103 140 L 109 139 C 111 137 112 137 114 138 Z M 110 158 L 109 161 L 110 160 L 112 159 L 113 158 C 113 156 111 157 110 158 Z"/>
        <path id="path7" fill="#4d41a1" stroke="none" d="M 171 139 L 169 142 L 168 145 L 166 148 L 166 152 C 164 152 162 155 163 156 L 161 158 C 160 160 160 160 162 162 C 165 165 166 164 165 161 C 164 158 165 157 167 155 L 169 150 L 171 148 C 173 148 173 147 173 144 L 173 141 C 174 141 178 145 179 148 C 179 150 180 151 182 151 C 183 151 184 150 183 149 L 184 147 L 185 145 C 185 143 187 141 188 142 L 187 145 C 186 147 186 147 188 150 C 190 152 190 154 190 156 L 190 166 C 189 167 185 163 185 161 L 185 158 L 186 156 L 186 155 C 185 156 185 155 185 154 C 186 152 185 152 182 155 C 180 156 180 161 182 161 C 184 161 183 165 180 167 L 178 171 L 182 168 L 185 165 L 185 168 C 185 171 182 175 181 173 L 175 173 L 176 175 C 177 176 178 183 176 183 L 173 181 C 171 179 170 179 169 180 L 169 189 C 169 191 169 191 170 189 C 171 187 172 189 171 193 C 171 196 170 197 168 195 L 167 195 L 165 196 L 164 195 L 162 191 L 160 193 C 159 196 160 196 161 197 L 163 200 L 164 202 L 165 199 C 165 197 166 196 168 198 L 168 203 L 167 204 C 168 205 170 203 171 201 L 173 199 C 174 200 173 207 172 209 C 170 210 169 210 169 208 C 169 206 168 206 167 209 C 165 211 163 209 163 206 C 163 202 161 202 161 206 L 159 209 C 157 209 157 208 157 206 L 155 202 L 154 198 L 154 196 C 152 197 152 203 154 204 C 156 205 157 209 155 210 C 154 211 148 206 149 205 L 150 203 L 151 201 L 150 201 C 147 201 148 199 152 195 C 154 193 155 192 153 192 L 149 194 L 148 196 L 147 195 C 148 193 147 193 140 194 L 139 196 L 142 196 C 144 196 144 196 143 197 L 137 198 C 134 198 133 199 132 200 L 133 201 C 134 200 135 201 135 202 L 134 203 C 133 202 132 203 131 204 C 130 205 130 205 129 203 L 127 203 C 125 205 123 204 123 202 L 123 199 L 122 202 L 119 204 C 118 204 117 204 118 205 L 119 207 L 121 209 L 123 211 C 122 213 118 213 117 212 C 117 211 116 210 115 211 C 113 211 109 209 109 207 L 108 206 L 107 207 L 105 210 C 104 212 104 212 106 213 L 106 215 L 103 216 C 102 218 102 218 104 219 C 104 220 106 221 107 220 L 107 221 L 104 222 L 103 225 C 103 227 103 227 105 225 L 109 223 C 112 223 113 223 112 225 L 113 225 C 114 224 115 223 116 224 C 119 226 120 224 118 222 L 116 222 L 116 221 C 116 219 116 219 118 221 C 120 222 120 225 120 227 C 120 229 121 230 122 230 L 125 231 L 127 231 L 129 229 C 130 230 131 229 132 228 C 133 227 133 227 131 226 L 129 226 C 129 227 128 228 126 228 L 123 228 L 126 226 C 127 224 129 223 128 222 C 128 221 125 220 125 222 L 124 223 C 122 224 122 223 123 221 C 125 218 124 217 121 219 L 120 219 L 120 216 L 119 217 L 117 217 C 115 216 111 218 112 219 C 112 221 110 221 109 220 C 108 218 111 215 113 215 L 113 214 C 112 213 112 213 114 212 L 118 214 C 117 216 121 216 123 214 C 125 211 126 211 127 216 C 129 221 132 223 131 218 C 130 216 130 216 132 217 C 135 218 135 221 133 222 L 133 235 C 133 236 132 237 131 236 C 130 236 128 240 129 241 L 130 239 L 132 239 L 134 238 L 135 235 C 134 233 134 233 136 233 L 139 235 C 140 238 142 237 142 235 L 142 231 L 145 231 L 145 236 L 143 241 C 142 244 140 244 140 241 C 139 237 137 237 137 241 C 137 243 136 243 133 243 C 130 244 128 243 126 241 C 124 238 122 239 124 242 L 124 245 L 122 249 C 122 252 121 254 119 254 C 117 256 117 257 121 257 L 124 258 C 124 259 124 260 125 259 L 127 260 C 129 261 129 262 127 264 C 125 266 125 266 123 265 C 120 264 119 261 121 261 L 122 260 L 121 259 C 120 259 118 266 119 267 L 117 269 L 113 269 L 114 268 L 115 267 C 114 264 115 261 116 260 L 117 256 L 116 253 C 116 252 113 249 112 250 L 114 254 L 114 261 C 112 265 109 265 110 261 C 110 259 109 259 108 259 C 106 259 106 259 107 260 L 107 263 C 103 267 100 265 102 260 L 102 258 L 99 257 L 95 256 L 91 255 C 90 254 90 254 89 256 L 88 258 L 86 260 L 84 262 L 82 263 C 80 263 80 263 81 266 C 82 270 84 270 84 266 C 83 263 83 263 86 263 C 89 264 90 264 91 261 C 93 258 96 257 96 259 L 98 260 C 99 259 100 260 100 261 C 100 262 99 263 98 262 C 95 262 94 264 95 266 C 95 267 97 267 97 265 L 99 264 L 100 266 L 100 268 L 101 269 C 100 271 94 274 93 273 L 91 273 C 89 276 87 275 87 271 C 87 267 86 267 84 271 L 81 274 C 79 274 79 274 80 273 L 81 270 L 80 270 L 78 271 L 74 274 L 74 276 L 76 274 L 77 273 L 77 277 C 75 280 71 282 69 281 C 68 281 68 274 70 273 L 68 272 C 66 272 65 271 65 270 L 63 269 C 60 269 61 267 64 265 C 67 264 66 262 63 262 C 61 262 61 262 61 264 L 60 267 C 59 267 58 266 58 264 L 57 260 L 55 258 L 53 257 C 50 257 50 257 51 254 C 53 249 52 246 48 246 L 45 244 C 45 242 44 241 42 243 L 39 244 C 36 244 36 245 35 247 L 36 251 C 37 252 35 255 33 255 C 31 255 31 249 33 247 L 33 245 L 32 246 L 29 248 C 27 249 27 249 28 250 C 30 252 29 257 27 258 L 23 258 C 21 260 23 261 27 261 L 30 262 L 32 264 C 34 265 34 265 33 263 L 34 262 L 36 260 C 36 259 37 258 39 258 C 43 256 44 253 41 254 C 38 255 37 254 38 252 C 40 251 44 250 44 252 L 45 252 L 46 251 L 47 251 L 43 249 L 38 248 L 40 247 C 42 248 42 248 43 246 C 43 244 44 244 45 245 L 45 248 L 46 249 L 48 248 L 50 247 L 49 249 L 49 251 C 51 251 50 253 47 254 C 44 254 44 254 45 255 C 48 256 47 259 45 259 L 43 261 L 42 263 L 41 262 L 40 261 L 40 264 L 41 265 L 42 267 L 43 269 L 45 263 L 48 260 C 50 258 50 257 51 259 L 53 260 L 56 261 C 57 261 57 262 55 264 C 54 266 53 266 52 265 L 51 263 L 49 262 L 47 262 C 47 264 52 268 53 268 L 55 268 C 56 269 54 273 52 275 L 50 278 C 50 280 52 281 53 279 L 55 278 C 57 278 58 276 56 275 C 54 275 59 271 61 271 C 64 271 67 274 66 276 L 64 278 L 64 281 C 65 284 64 287 63 285 C 62 284 62 284 59 286 L 56 289 L 54 286 C 53 285 52 283 53 282 L 52 281 L 51 282 L 49 285 C 47 285 46 286 46 287 L 43 291 C 40 293 40 293 39 291 C 39 290 38 289 37 290 C 35 290 35 291 35 295 L 31 297 C 27 297 27 297 27 294 L 27 291 L 21 294 L 22 294 L 25 296 L 29 299 L 32 301 C 33 302 35 303 36 302 C 39 301 42 306 39 309 C 38 310 37 311 38 312 L 37 314 L 34 316 L 32 316 C 30 314 30 309 32 308 C 33 308 34 303 32 304 L 31 306 C 31 307 31 308 30 307 L 29 308 L 28 310 L 27 311 L 25 314 L 24 317 C 25 320 24 320 21 317 C 19 316 18 314 19 313 L 18 311 C 16 312 16 313 17 314 C 17 316 17 316 16 315 C 14 314 12 315 12 318 L 11 319 C 10 319 11 315 13 314 L 14 313 L 16 310 C 18 308 17 306 14 303 C 11 300 8 298 7 300 C 7 301 6 302 4 302 C 1 303 0 306 2 306 L 4 309 C 5 313 7 312 7 308 L 9 302 C 12 299 13 301 10 309 C 9 313 9 313 11 312 L 12 313 L 9 314 L 8 316 L 6 319 L 6 324 C 6 326 6 326 7 325 L 9 322 C 8 319 9 319 11 323 L 17 327 C 20 328 20 328 19 330 C 18 332 19 336 20 334 L 21 331 L 23 329 L 23 331 C 23 334 18 338 16 337 L 16 332 C 16 327 15 327 14 328 L 12 328 L 12 327 L 9 326 L 8 326 C 9 327 8 328 7 329 C 5 330 5 330 6 332 C 7 333 7 333 6 332 L 4 332 C 4 333 4 334 3 333 L 2 335 L 2 338 C 1 340 1 339 1 335 C 1 332 2 331 3 330 L 5 328 C 4 326 1 325 1 328 C 0 329 0 329 0 327 C 0 325 1 325 3 325 L 5 323 L 2 322 C -1 322 0 319 3 318 C 5 318 7 315 5 314 C 5 313 4 313 4 315 L 2 317 C 1 316 0 299 1 291 C 1 288 2 288 4 288 C 7 288 8 289 8 292 C 9 297 9 297 12 296 C 14 295 14 295 13 297 C 12 298 12 299 14 300 L 15 302 L 17 305 L 19 308 L 20 308 C 22 307 23 306 23 308 L 22 309 C 20 308 20 311 21 314 L 22 314 L 25 312 C 27 312 26 309 23 307 L 19 304 C 17 303 19 301 21 301 C 23 301 24 297 22 296 L 18 300 L 17 301 C 16 300 17 298 18 297 L 20 293 L 22 290 L 23 288 L 21 287 L 20 284 L 19 285 C 19 287 17 287 14 285 C 12 283 12 283 13 282 C 16 280 15 279 13 279 C 10 278 10 278 10 281 L 11 285 L 11 286 L 3 286 L 2 287 C 0 287 0 285 2 283 L 2 281 L 0 278 C 0 277 2 276 2 278 C 3 280 5 278 5 276 C 5 274 2 273 2 275 L 1 275 C 0 272 0 268 2 267 L 3 268 L 6 271 L 8 274 C 8 277 10 277 11 274 C 13 271 15 271 17 275 C 18 277 18 278 19 277 L 23 277 L 24 274 C 24 271 24 271 18 270 C 14 270 13 264 15 261 C 17 259 18 260 17 262 L 18 262 L 18 259 L 15 258 L 14 257 C 14 255 12 256 12 258 C 11 262 9 264 6 262 C 5 261 4 260 2 261 C 0 261 0 261 0 258 C 0 256 1 255 2 255 L 2 253 L 4 252 L 6 250 L 4 250 C 1 251 0 251 0 248 C 0 246 0 246 2 248 L 3 248 C 2 247 5 245 8 246 C 10 247 11 249 9 249 C 6 250 7 251 11 252 C 16 254 20 253 20 251 C 20 249 21 248 22 248 C 24 247 24 247 22 247 C 19 246 19 246 19 244 C 19 242 18 241 17 241 C 15 241 12 237 12 235 C 13 234 12 234 11 234 C 9 234 9 234 10 236 C 10 238 10 238 4 238 C 0 238 -1 238 1 234 L 1 228 L 4 229 C 6 231 7 230 7 227 L 9 225 L 12 224 L 14 225 L 13 225 L 12 226 L 15 229 C 17 229 18 230 18 231 L 18 233 C 20 234 22 232 23 229 L 26 227 L 28 225 L 26 223 C 24 223 24 223 23 220 C 23 217 23 216 25 215 L 27 214 L 25 212 C 23 211 23 210 24 210 L 24 209 L 22 211 C 21 212 21 213 20 212 L 18 213 C 16 215 14 211 15 208 C 17 205 18 205 21 207 C 24 208 24 208 26 206 C 28 203 28 200 26 201 C 24 201 22 199 23 198 L 22 197 L 22 195 C 23 194 23 194 22 195 C 19 197 18 193 21 190 L 22 188 L 20 189 L 16 191 C 14 192 14 192 15 190 C 15 189 15 188 14 190 C 13 191 12 192 10 191 C 7 191 6 192 6 193 L 5 194 C 4 194 3 193 4 192 C 4 190 3 189 1 190 L 1 186 L 0 181 L 0 176 L 5 176 L 10 177 L 14 179 L 20 182 L 23 186 L 23 187 L 25 189 C 28 189 30 191 30 193 C 30 195 31 195 32 194 L 34 195 C 35 195 37 195 39 193 C 42 190 42 190 41 188 C 39 187 39 187 42 184 L 46 182 L 47 180 L 45 178 C 39 177 42 174 50 173 C 54 173 57 172 57 171 L 54 170 C 50 171 50 170 54 167 C 56 165 56 165 54 165 C 53 166 52 165 51 164 C 49 163 49 163 51 162 L 61 162 C 63 162 62 165 60 166 L 58 168 L 60 168 C 63 168 63 168 63 170 L 60 172 C 58 172 57 175 60 175 L 63 176 C 64 177 64 177 64 175 C 63 173 63 172 65 171 C 67 171 69 172 67 173 L 65 175 C 65 176 70 173 70 171 L 69 170 L 66 168 C 65 167 65 167 67 167 C 71 167 75 169 74 170 L 75 171 C 76 170 79 172 79 173 C 79 174 78 176 76 176 C 73 178 73 178 72 177 C 72 175 71 175 69 176 L 67 179 L 65 182 L 65 184 C 67 184 69 188 68 190 L 65 189 C 64 188 63 188 63 190 L 60 190 C 59 188 60 181 62 181 C 63 181 62 178 60 177 L 59 178 L 59 179 C 57 180 57 180 58 182 C 59 185 58 186 56 184 L 55 184 C 54 188 54 189 56 188 L 58 188 C 58 190 54 193 53 193 C 51 192 51 188 52 188 L 52 186 L 50 185 L 48 186 L 47 186 L 45 185 C 44 186 47 188 49 187 L 49 188 C 49 190 46 191 45 190 L 44 190 L 47 193 L 48 194 L 47 198 C 46 202 44 202 41 198 L 38 195 L 35 198 L 32 201 L 34 203 C 36 204 36 206 36 209 C 35 212 35 212 33 212 C 32 212 31 212 31 214 L 32 216 C 34 215 35 216 35 219 C 35 223 37 225 40 224 C 43 224 43 223 42 222 C 40 219 41 218 46 217 C 51 216 51 216 54 219 L 56 224 L 56 227 C 54 229 49 229 49 227 L 47 226 C 46 225 46 226 46 228 C 46 230 46 232 44 233 C 42 235 42 235 41 233 L 39 228 C 39 226 38 226 36 226 L 31 225 L 29 226 L 30 228 L 31 227 L 31 226 C 32 226 35 230 35 232 C 35 234 31 237 29 236 L 27 237 L 28 238 L 30 240 C 31 243 36 244 36 242 C 36 241 37 240 39 241 L 43 240 L 45 239 C 47 239 47 239 46 238 L 44 236 C 44 235 49 233 50 234 L 53 235 C 56 236 54 238 52 238 C 50 237 50 237 51 239 C 54 241 53 242 51 241 C 48 241 46 242 49 244 L 51 244 C 53 243 57 242 58 244 L 58 247 C 60 247 62 243 60 242 L 59 239 L 61 238 C 62 239 63 238 64 237 L 68 237 L 69 239 L 69 244 L 68 245 L 67 243 L 66 241 C 63 241 63 243 64 244 C 66 246 66 247 64 250 C 63 251 63 252 61 251 L 60 249 L 59 248 L 57 248 L 56 247 L 55 247 C 56 245 55 245 54 246 L 52 247 C 52 248 54 250 56 250 C 60 251 62 254 58 254 C 55 254 56 256 59 258 C 63 259 64 258 64 257 L 63 256 L 62 256 C 61 256 62 254 64 253 C 67 251 69 250 68 252 L 71 252 L 72 251 L 73 253 L 71 256 L 69 259 L 69 261 C 68 261 67 261 68 262 C 68 264 68 264 69 262 L 72 261 L 73 260 C 73 258 73 258 75 259 L 76 262 C 76 264 76 264 78 262 L 82 260 C 85 260 82 258 79 258 C 76 258 75 258 75 256 C 75 253 77 251 79 251 L 79 257 L 84 254 C 86 251 87 250 86 248 L 84 246 C 83 247 83 246 83 245 L 81 245 L 80 244 L 80 243 L 79 245 C 80 246 79 247 78 249 C 76 250 76 250 77 248 C 78 246 77 244 75 242 C 73 240 72 241 73 242 L 73 246 C 73 248 70 251 69 250 C 67 249 68 248 70 248 C 72 248 72 248 71 246 L 71 241 C 70 239 71 239 73 238 L 77 239 C 78 241 81 241 86 240 L 84 238 C 82 236 82 233 85 231 L 85 230 C 84 229 83 230 82 231 L 80 232 C 80 230 84 228 87 227 L 90 225 L 91 225 C 94 226 94 228 91 228 L 92 229 C 94 230 94 232 91 232 C 90 232 90 233 92 234 C 94 235 94 235 94 233 L 98 232 C 103 231 103 232 99 234 C 97 234 96 236 95 237 C 95 239 94 240 93 240 L 93 238 C 94 236 92 236 91 238 L 91 243 C 92 244 93 245 92 246 L 90 246 L 88 245 L 88 247 L 89 251 L 89 252 L 97 246 C 98 247 98 246 98 244 L 99 238 L 100 241 C 99 244 99 244 101 244 L 103 243 L 103 242 C 102 242 101 238 102 237 C 103 235 107 237 107 239 C 106 241 107 241 111 241 C 113 241 115 242 115 244 L 114 245 L 112 246 L 114 247 L 118 247 L 118 246 C 116 244 117 240 120 240 L 122 238 C 123 236 124 236 126 236 C 129 236 131 235 128 234 C 126 233 122 234 122 235 C 122 237 116 239 114 238 L 112 238 C 109 241 108 240 109 238 L 112 236 L 114 234 C 114 232 113 231 111 233 C 110 234 110 234 110 232 L 111 231 L 112 231 L 113 230 C 114 231 119 229 119 228 C 118 226 114 225 114 226 L 116 227 L 116 228 C 115 230 113 230 113 229 C 113 225 108 224 107 227 C 106 228 105 229 104 228 L 102 229 L 102 228 L 101 225 L 97 225 C 95 224 95 223 96 222 C 98 221 99 220 96 220 L 95 217 L 95 214 L 94 215 L 92 217 C 90 217 89 218 89 219 L 85 223 C 80 225 80 225 80 222 C 80 220 81 219 82 219 L 83 218 L 86 216 L 90 214 L 93 213 L 97 211 L 100 211 C 101 211 101 212 99 213 C 97 216 96 218 98 218 C 100 218 102 216 102 213 C 103 211 102 210 101 209 L 99 207 C 100 206 101 205 103 206 L 106 205 L 104 204 L 101 203 L 101 200 C 99 200 99 199 101 197 L 102 195 L 102 193 C 104 192 107 191 106 193 L 108 193 C 110 193 113 194 112 196 L 109 197 C 107 197 103 200 104 201 L 106 200 C 107 198 110 199 110 200 L 108 202 L 107 203 L 110 203 C 112 201 113 202 113 204 L 113 208 C 114 209 114 209 115 207 C 116 206 115 205 114 203 C 113 201 113 201 115 199 C 118 196 123 194 123 196 L 122 197 L 122 198 C 122 199 124 199 124 197 L 126 196 C 128 196 128 196 126 194 L 126 191 C 128 190 128 190 126 189 L 125 187 L 131 187 L 134 185 C 136 182 136 182 135 181 C 133 179 134 178 137 179 L 139 181 L 141 180 L 142 180 L 144 181 L 146 182 L 148 184 C 149 186 149 186 149 184 L 151 181 L 151 178 C 151 176 149 177 149 179 C 149 181 149 181 144 179 C 141 177 141 176 144 174 L 146 174 L 147 176 L 147 173 C 147 171 148 171 149 171 C 151 171 151 171 150 173 C 149 175 149 175 151 174 C 154 173 154 170 152 170 L 150 169 C 149 168 148 168 147 170 C 144 173 140 174 140 171 L 144 168 C 148 167 147 167 144 166 C 141 166 140 165 143 163 L 145 160 C 145 158 147 156 148 155 C 152 151 152 151 152 153 L 151 155 L 151 156 L 155 155 C 157 153 159 152 160 153 C 162 153 162 152 161 150 C 160 148 160 147 162 146 L 166 141 L 167 139 L 170 138 L 171 139 Z M 173 150 L 172 151 L 171 150 L 171 157 L 172 161 C 171 161 162 167 162 169 L 162 170 L 159 170 C 157 172 156 171 158 169 L 158 167 C 156 166 156 166 156 170 C 155 172 155 173 158 174 C 160 174 160 175 159 176 C 158 177 157 177 156 175 C 154 173 153 173 153 176 C 154 178 152 183 151 183 L 151 184 L 150 187 C 149 188 149 189 147 188 L 143 185 C 142 183 142 183 141 185 L 141 190 C 143 192 143 192 145 190 L 148 190 C 148 191 150 191 150 189 L 152 188 L 152 189 C 150 190 152 191 154 190 L 157 187 C 158 186 158 186 158 188 L 157 190 L 156 191 L 160 189 L 162 186 L 152 186 L 155 184 C 158 184 161 181 160 179 C 159 178 162 176 163 178 L 163 180 C 162 179 161 179 161 182 L 164 185 C 166 185 166 185 164 184 C 162 183 162 183 164 182 L 167 179 L 170 176 C 171 176 172 176 171 173 L 172 169 C 174 170 179 165 178 164 C 177 162 176 162 175 165 C 174 166 174 165 174 162 C 174 158 175 155 176 157 L 176 159 L 177 161 C 179 160 179 154 177 152 C 175 150 175 149 176 148 C 177 147 177 147 175 147 L 173 150 Z M 168 156 L 168 158 L 167 160 C 166 162 168 162 170 161 L 170 157 C 169 155 167 154 168 156 Z M 154 160 L 153 160 C 154 161 152 165 150 165 L 149 166 C 150 168 152 168 153 165 L 157 162 C 158 161 159 161 158 159 C 158 157 158 157 157 158 C 157 160 156 160 154 160 Z M 159 165 L 161 167 L 161 164 C 161 163 159 163 159 165 Z M 146 164 L 147 165 L 150 164 L 148 163 L 146 164 Z M 51 176 C 49 178 49 179 51 180 L 51 181 C 48 181 49 183 52 183 C 54 183 55 182 56 180 L 58 176 C 58 174 53 175 51 176 Z M 2 180 C 1 181 5 188 6 188 L 8 186 L 8 183 C 7 182 7 182 9 181 L 11 180 C 11 178 2 179 2 180 Z M 11 184 C 10 186 10 186 12 187 L 17 186 L 20 185 L 18 184 C 15 181 13 181 11 184 Z M 163 189 L 165 190 L 166 189 L 165 188 L 163 189 Z M 136 190 L 135 191 L 134 190 L 133 189 L 133 194 C 131 196 132 197 135 196 C 138 195 140 191 138 189 C 136 188 135 188 136 190 Z M 128 198 L 127 199 L 127 200 C 128 201 128 201 130 199 L 130 196 L 128 198 Z M 157 199 C 156 202 156 202 158 202 L 159 200 C 159 197 158 197 157 199 Z M 29 199 L 29 201 C 30 203 30 203 31 201 C 33 198 32 197 29 199 Z M 27 212 L 29 215 L 30 213 C 30 211 28 210 27 212 Z M 47 222 L 49 222 L 48 221 C 46 220 45 221 47 222 Z M 50 224 L 52 224 L 53 222 C 53 221 50 222 50 224 Z M 116 233 L 117 234 L 118 235 C 117 235 118 236 118 235 C 120 235 120 235 119 232 C 119 231 116 231 116 233 Z M 26 232 C 26 233 23 236 22 235 L 19 237 C 17 240 18 240 21 238 L 24 236 C 24 237 26 236 26 234 C 28 233 28 232 27 232 L 26 232 Z M 22 241 L 24 245 L 25 248 L 26 248 L 26 246 L 25 242 L 25 240 C 23 237 21 238 22 241 Z M 86 241 C 84 244 85 245 87 243 C 89 240 90 239 88 239 L 86 241 Z M 106 246 L 101 248 L 99 249 L 101 249 L 105 250 L 107 250 L 109 251 L 108 253 L 108 254 C 110 255 111 253 111 250 C 111 248 110 248 108 248 L 106 248 L 108 246 C 111 243 109 243 106 246 Z M 23 255 L 25 256 L 25 252 C 25 250 25 250 23 251 C 22 253 21 253 23 255 Z M 93 252 L 94 253 L 97 253 L 99 252 L 96 251 L 93 252 Z M 4 254 C 2 256 2 257 3 257 C 5 257 7 255 7 253 C 7 251 6 252 4 254 Z M 100 255 L 103 256 L 105 257 L 106 257 C 107 255 106 254 102 254 C 100 254 99 254 100 255 Z M 110 257 L 111 259 L 112 257 L 111 256 L 110 257 Z M 19 257 L 20 259 L 21 257 L 20 256 L 19 257 Z M 18 265 L 19 266 L 19 267 L 20 268 L 22 270 C 24 269 27 273 27 276 L 27 279 L 25 280 L 22 282 C 20 281 20 281 21 283 C 21 285 26 284 28 282 C 29 281 29 281 29 283 L 27 287 C 25 288 25 289 26 289 C 28 290 31 288 30 286 C 30 285 31 284 33 284 L 36 284 C 36 286 41 286 43 284 L 38 284 C 37 283 41 281 47 279 C 50 278 50 277 47 277 L 45 277 L 42 278 L 39 279 L 37 281 C 35 282 30 281 30 280 C 30 278 35 276 36 276 C 38 277 38 277 38 275 C 38 274 38 273 36 274 L 33 274 L 35 271 L 38 268 C 40 268 40 266 38 266 C 36 265 32 268 33 270 C 33 272 31 276 29 276 C 27 276 28 271 30 269 C 31 267 31 267 29 268 L 26 269 L 25 269 C 26 267 25 267 24 268 C 23 268 22 268 23 266 L 22 264 L 20 264 L 18 265 Z M 70 266 C 67 267 66 269 68 269 L 70 270 L 72 270 C 74 268 76 263 74 264 L 70 266 Z M 91 266 L 90 267 C 88 268 89 270 91 270 C 94 271 95 268 92 266 L 91 266 Z M 45 271 C 45 273 45 273 44 272 C 42 270 39 269 39 271 L 42 274 C 44 275 45 275 47 272 C 50 268 50 265 47 267 L 45 271 Z M 60 275 L 59 276 C 59 278 63 277 63 275 L 62 274 L 60 275 Z M 15 278 C 15 279 17 281 18 280 L 18 278 C 17 277 15 276 15 278 Z M 57 282 L 59 282 L 60 280 C 59 278 57 280 57 282 Z M 16 284 C 16 285 16 286 17 285 L 17 282 L 16 284 Z M 3 294 C 6 294 6 293 6 292 L 3 292 L 3 294 Z M 3 296 C 2 299 4 300 6 299 C 8 298 8 298 6 296 L 3 296 Z M 25 303 C 23 304 23 305 25 305 C 27 306 29 304 28 303 L 25 303 Z"/>
        <path id="path8" fill="#4d41a1" stroke="none" d="M 167 168 C 166 170 166 170 168 170 L 169 172 C 169 175 166 176 166 173 L 165 170 L 167 167 L 167 168 Z M 1 140 L 1 145 L -0 142 C -0 139 -0 138 1 140 Z M 12 142 L 14 145 L 16 148 C 18 150 19 153 17 154 L 15 154 C 14 152 13 155 15 157 C 17 159 13 159 10 158 L 7 157 L 9 158 C 10 159 11 162 9 162 L 8 165 C 8 168 7 168 5 168 C 1 168 -1 166 1 164 L 1 163 C -1 163 -0 161 2 161 L 4 161 L 4 163 C 6 164 6 160 5 159 C 3 158 3 158 5 157 C 7 156 6 156 2 155 L -0 154 C -0 152 4 151 6 153 L 8 154 L 6 151 C 3 148 2 147 5 147 C 8 147 10 149 9 152 C 9 153 9 154 10 153 C 12 153 12 152 11 150 L 11 148 C 12 147 11 146 9 146 L 5 144 C 4 143 4 143 6 142 L 12 142 Z M 88 146 C 89 147 89 147 87 147 L 85 147 L 88 148 L 91 150 C 91 151 90 152 88 152 L 85 153 L 86 154 L 90 157 C 92 159 93 160 94 159 C 96 158 95 157 94 157 L 91 155 C 90 154 90 154 92 153 L 95 154 L 99 156 L 101 158 L 103 160 L 105 164 C 104 166 102 165 100 162 C 98 159 97 158 97 160 L 95 163 L 95 165 L 97 167 L 94 174 L 93 176 C 93 178 91 180 89 179 L 89 173 C 91 172 93 163 91 163 C 91 163 89 164 89 166 C 87 168 87 169 88 171 C 89 173 89 173 87 173 L 85 174 C 85 176 81 178 80 177 L 83 171 L 83 169 L 82 168 L 82 170 L 80 171 L 79 170 L 78 169 C 76 170 75 167 77 165 C 79 162 82 163 84 166 C 85 169 87 168 87 165 L 85 163 L 83 161 L 80 160 C 77 160 78 157 81 157 C 85 157 84 155 81 155 C 79 155 78 154 78 153 L 78 151 L 82 151 C 84 150 84 150 82 150 L 78 148 C 76 147 77 145 83 144 C 86 144 87 144 88 146 Z M 84 159 L 86 160 L 88 161 L 91 162 L 93 161 L 92 160 L 89 159 C 88 158 84 157 84 159 Z M 131 151 C 132 152 130 157 129 158 C 127 159 125 159 125 157 C 125 155 131 149 131 151 Z"/>
        <path id="path9" fill="#4d41a1" stroke="none" d="M 103 154 C 103 159 102 160 102 157 L 101 155 C 98 155 99 152 101 151 C 104 149 104 149 103 154 Z M 108 152 L 107 154 L 106 155 C 106 157 106 158 105 157 L 106 151 L 108 152 Z M 2 195 L 5 195 L 6 196 L 7 197 L 15 197 C 17 195 19 195 19 197 L 22 200 L 24 203 C 23 204 17 205 15 203 C 13 201 12 202 12 204 C 11 208 9 207 7 203 L 4 199 L 2 198 C -1 195 -0 194 2 195 Z M 148 199 C 148 201 147 202 146 202 C 144 202 144 201 145 198 C 146 196 148 197 148 199 Z M 143 202 C 143 203 144 204 145 203 L 146 204 L 144 205 L 139 205 L 141 203 L 141 200 L 143 202 Z M 94 204 C 93 205 94 206 95 206 C 96 206 97 207 96 209 C 96 211 92 212 88 210 L 88 208 C 90 207 90 207 87 206 C 85 205 85 205 86 203 C 88 201 94 202 94 204 Z"/>
        <path id="path10" fill="#4d41a1" stroke="none" d="M 138 204 L 137 207 C 135 208 135 208 138 208 L 141 207 C 142 206 142 206 142 208 L 139 214 L 139 210 L 135 209 C 134 209 133 209 132 211 C 130 214 130 214 132 214 L 133 212 L 134 211 L 135 213 C 135 215 134 215 131 215 C 128 216 128 215 128 213 C 129 211 129 211 127 211 C 125 211 121 208 122 207 L 128 207 C 132 207 134 206 135 205 C 136 203 137 203 138 204 Z M 150 210 C 151 212 152 213 151 214 L 151 216 L 152 215 C 153 213 155 214 155 216 L 153 219 C 151 221 151 221 149 220 L 148 216 L 148 214 L 147 212 L 145 211 L 143 210 L 145 209 L 147 209 C 147 207 148 208 150 210 Z M 84 210 C 85 212 87 213 87 212 L 88 213 L 85 214 C 82 214 81 214 81 216 C 81 217 81 218 80 217 L 79 218 C 78 220 76 220 74 219 L 72 219 L 71 218 L 79 212 C 81 211 81 211 79 211 C 77 210 77 210 78 209 C 80 207 80 208 84 210 Z M 77 216 C 75 218 77 218 79 216 L 79 215 L 77 216 Z"/>
        <path id="path11" fill="#4d41a1" stroke="none" d="M 65 210 L 66 210 L 68 211 L 68 212 C 66 212 66 212 68 213 C 71 214 70 218 67 219 L 65 220 C 66 222 68 222 69 220 L 72 220 L 76 221 C 78 221 78 221 78 224 C 78 228 75 230 75 227 L 75 222 L 72 222 L 72 226 L 67 227 C 64 227 64 227 64 224 L 64 222 C 60 224 60 225 61 227 L 61 230 C 60 231 59 232 58 231 C 57 231 57 223 59 222 C 61 220 60 219 58 220 C 56 220 54 218 56 217 L 60 216 C 63 216 64 214 61 212 L 61 210 L 65 210 Z M 62 218 L 61 219 C 62 220 65 219 65 218 L 62 218 Z M 2 210 L 2 214 C 1 214 0 213 0 211 C 0 209 2 208 2 210 Z M 110 211 C 112 212 111 213 108 217 L 105 219 C 104 218 105 217 106 217 C 108 216 108 215 108 213 C 107 210 109 209 110 211 Z M 144 221 C 146 224 147 225 146 221 L 147 219 L 148 221 L 149 223 L 151 226 C 151 228 150 229 149 229 L 146 227 C 144 225 144 225 143 228 C 141 231 136 231 135 228 L 136 227 C 137 228 139 225 138 222 L 139 219 L 139 221 C 139 223 141 225 143 224 L 143 221 L 142 219 C 143 218 143 219 144 221 Z M 136 223 L 135 226 L 135 223 L 136 221 L 136 223 Z M 98 229 L 97 231 C 95 230 95 227 97 227 C 98 227 99 227 98 229 Z M 106 231 L 107 233 C 106 234 104 234 104 232 L 103 230 L 106 231 Z M 150 233 C 151 235 152 235 152 233 C 153 232 153 232 154 234 L 155 239 C 154 241 152 241 151 238 L 150 236 L 150 238 L 147 244 C 145 244 145 239 146 237 L 147 232 C 148 230 148 230 150 233 Z M 98 241 L 93 242 L 94 241 L 97 240 L 98 241 Z M 4 242 C 6 243 4 245 2 245 L 0 243 C 0 241 2 240 4 242 Z M 135 246 C 136 248 137 248 137 247 C 138 245 142 247 143 249 L 144 252 L 144 249 C 143 246 144 245 146 246 C 148 248 150 253 150 255 L 148 255 C 146 253 146 253 146 255 C 145 258 143 258 142 255 L 142 253 L 140 255 C 139 258 136 259 136 257 C 136 256 135 256 134 258 L 132 260 L 131 258 C 130 255 130 251 132 251 L 132 248 C 132 245 133 244 135 246 Z M 136 251 L 134 254 L 138 250 C 138 248 137 249 136 251 Z M 130 247 C 131 249 126 256 125 256 L 124 252 C 124 250 125 249 126 249 L 126 247 L 128 246 L 130 247 Z M 75 249 L 74 252 C 73 251 74 246 75 246 L 75 249 Z M 84 249 L 83 251 L 82 249 L 83 248 L 84 249 Z M 128 270 L 124 270 L 126 269 L 128 270 Z M 85 273 C 87 274 86 280 84 282 C 83 284 83 284 82 283 L 81 281 L 80 280 C 79 280 78 279 78 277 C 78 276 78 275 81 276 L 83 275 C 83 273 84 272 85 273 Z M 22 273 L 20 274 C 18 275 17 273 20 272 L 22 273 Z M 13 288 C 15 290 15 292 13 293 L 11 291 C 10 288 11 287 13 288 Z M 19 292 L 17 293 C 15 293 15 293 17 292 L 19 290 L 19 292 Z M 72 294 L 72 295 L 69 294 L 69 293 C 69 291 70 292 72 294 Z M 68 301 L 69 302 L 71 306 C 73 308 73 311 70 310 L 68 311 C 67 312 65 308 66 307 C 66 306 65 306 64 308 C 62 311 60 310 62 307 L 63 304 L 59 309 C 58 312 54 313 55 310 C 55 308 55 308 52 307 C 48 307 47 307 47 310 C 47 314 45 316 43 314 L 41 307 C 41 302 41 302 44 302 C 46 302 47 302 48 304 L 49 306 L 50 303 C 49 301 49 301 51 301 C 54 301 56 302 56 304 C 56 305 56 306 57 305 L 58 303 C 58 301 58 301 60 301 C 63 303 65 303 66 301 L 68 301 Z M 81 306 L 80 307 C 79 307 78 307 79 308 L 78 309 L 78 306 L 81 306 Z M 147 310 C 149 311 148 317 147 319 C 145 320 143 320 143 318 L 142 316 L 142 318 L 141 321 C 140 323 137 321 137 318 C 137 316 136 316 135 319 L 131 323 C 129 323 129 318 131 316 C 132 315 132 315 130 315 L 127 318 C 127 320 125 321 124 322 C 122 323 122 323 122 319 L 123 313 C 124 311 124 310 125 311 L 131 311 C 134 311 135 311 136 313 L 138 314 L 138 313 C 137 311 137 310 139 310 C 140 309 142 310 143 311 L 145 312 C 145 310 146 309 147 310 Z"/>
        <path id="path12" fill="#4d41a1" stroke="none" d="M 121 310 C 123 312 124 315 122 315 L 121 317 L 118 323 L 116 320 C 116 318 114 318 111 321 C 108 324 107 323 107 320 C 108 318 108 318 106 319 L 105 320 L 102 326 L 100 323 L 98 320 C 96 320 96 322 97 324 L 98 327 C 97 329 97 329 95 327 C 93 325 92 324 92 326 L 90 327 C 88 328 87 327 87 326 C 87 323 86 323 84 326 C 82 328 78 330 76 329 C 75 329 75 328 77 326 C 77 324 79 323 79 323 L 79 321 C 78 318 88 317 92 320 L 93 321 L 92 319 C 90 317 90 316 92 316 L 94 314 C 94 312 95 311 97 313 L 101 314 L 112 314 L 118 315 L 117 312 C 117 308 119 308 121 310 Z M 99 318 L 102 319 C 103 318 101 316 99 316 L 99 318 Z M 78 317 C 78 320 78 321 76 324 L 73 328 L 69 331 C 64 334 64 336 67 338 L 68 339 L 67 341 L 66 345 L 64 345 C 62 343 62 343 61 344 C 59 347 57 345 58 342 C 59 340 59 339 57 339 L 56 340 L 54 342 L 51 344 L 53 344 C 55 343 57 345 55 346 L 53 350 C 54 352 53 352 50 352 C 45 353 41 356 42 359 L 41 364 L 40 370 C 41 368 40 367 37 367 C 35 367 34 368 35 369 C 35 370 35 371 33 372 L 30 374 C 28 377 26 378 27 375 L 26 373 L 25 373 L 27 372 L 28 372 L 27 370 C 25 369 26 368 29 368 L 31 367 L 33 366 L 37 364 C 38 362 38 361 36 363 L 32 364 C 30 365 30 364 31 363 C 31 360 31 360 29 363 L 27 365 L 25 362 L 23 358 L 22 357 L 22 361 C 23 365 20 368 17 364 C 15 362 15 363 16 366 C 17 368 17 368 14 367 L 10 367 C 9 368 8 367 5 366 L 1 364 L 1 360 C 3 361 7 356 5 354 L 7 352 L 9 349 C 9 347 9 347 8 348 C 7 349 6 350 5 349 C 3 349 2 350 4 351 L 3 351 C 1 351 0 351 1 349 L 4 347 L 7 346 L 6 345 L 5 345 L 6 344 L 6 342 L 0 342 L 2 340 L 3 338 L 4 337 L 5 338 L 5 339 L 6 336 C 7 334 11 331 11 333 L 8 336 C 6 339 6 339 7 340 L 11 342 L 12 340 C 12 337 13 337 15 340 C 17 342 17 343 16 344 C 15 346 11 347 11 345 L 10 344 C 8 344 9 345 12 348 L 13 351 L 13 352 L 18 352 C 21 352 21 352 22 354 C 22 356 25 356 27 355 L 28 353 L 31 352 L 34 352 L 36 354 L 38 356 L 40 359 L 40 355 C 39 352 40 349 41 352 C 42 354 44 353 45 350 C 45 348 45 348 48 349 C 51 351 52 350 52 349 L 50 348 C 48 349 48 349 48 347 L 50 341 C 53 337 53 334 49 333 C 47 333 46 332 46 331 L 47 328 L 49 327 C 53 325 50 323 46 324 L 44 325 C 45 327 44 327 42 326 L 40 326 C 39 327 39 327 38 325 L 35 325 C 33 325 32 326 32 327 L 30 328 L 27 327 L 23 326 C 20 326 19 326 20 324 C 21 322 25 321 27 323 C 29 325 31 325 31 322 C 31 320 36 320 40 322 L 42 323 L 45 320 C 49 319 51 319 54 322 C 56 323 56 323 56 321 C 55 318 55 318 58 318 L 63 319 C 65 320 65 325 63 326 L 63 328 C 65 329 66 328 66 325 L 68 322 C 70 322 70 321 69 320 C 67 317 68 317 73 316 L 78 317 Z M 57 323 L 55 324 L 53 324 C 52 326 54 327 55 326 L 57 325 L 59 325 C 61 327 61 327 62 326 L 62 324 C 61 322 57 322 57 323 Z M 52 328 L 48 330 L 50 331 C 52 331 53 332 53 334 C 54 337 56 337 57 334 L 57 331 L 59 329 L 61 327 L 58 327 L 52 328 Z M 59 335 L 59 337 L 61 337 L 62 332 L 62 328 L 60 331 C 59 332 58 334 59 335 Z M 8 354 L 5 359 L 3 363 L 6 361 L 8 360 L 9 360 L 10 361 L 11 364 L 12 362 L 14 362 L 14 361 L 16 361 C 13 354 13 354 12 355 C 10 356 10 356 10 354 L 9 353 L 8 354 Z M 29 356 C 29 358 30 360 31 359 C 33 358 32 356 31 356 L 29 356 Z M 15 357 L 16 358 L 19 358 L 19 357 C 16 356 15 355 15 357 Z M 35 359 L 37 359 L 36 358 L 35 359 Z M 43 372 C 43 373 46 374 48 373 L 49 372 L 48 371 C 47 369 43 370 43 372 Z"/>
        <path id="path13" fill="#4d41a1" stroke="none" d="M 56 331 L 56 333 L 54 333 C 54 331 56 329 56 331 Z M 20 319 C 20 321 18 324 18 322 L 17 323 C 15 325 15 325 15 323 L 16 319 C 16 318 20 317 20 319 Z M 38 329 L 40 332 C 41 335 41 335 43 334 L 44 334 L 42 337 C 40 338 40 338 42 338 C 43 338 44 338 45 336 C 46 335 46 334 48 335 C 50 335 50 335 48 337 L 48 339 C 49 339 49 340 47 342 L 45 344 L 44 342 C 43 339 43 339 42 341 C 41 346 39 346 38 341 C 37 338 36 337 35 338 L 33 338 L 31 337 L 31 336 L 33 333 C 33 331 32 331 31 332 L 30 332 C 31 331 30 331 29 331 C 28 330 29 330 32 330 L 36 329 L 38 329 Z M 37 332 C 34 333 35 336 37 336 L 39 334 C 39 332 39 332 37 332 Z M 116 330 L 115 332 L 114 330 L 115 329 L 116 330 Z M 27 332 C 28 335 28 336 25 336 L 25 331 C 26 330 26 330 27 332 Z"/>
        <path id="path14" fill="#4d41a1" stroke="none" d="M 27 339 L 30 339 C 34 338 35 341 34 344 L 32 347 C 30 347 27 344 28 342 L 27 340 L 25 343 C 25 345 24 347 22 348 C 19 350 19 350 18 348 C 17 345 17 345 19 345 L 20 343 C 19 342 20 342 21 342 L 23 340 C 23 338 25 337 27 339 Z M 6 369 L 5 372 C 5 373 4 374 3 373 L 2 375 C 3 376 2 377 1 377 L 0 373 C 0 370 3 367 5 367 L 6 369 Z M 19 375 C 19 377 17 377 14 376 C 12 376 12 375 14 374 C 16 372 19 373 19 375 Z"/>
    </g>
</svg>
